%TF.GenerationSoftware,KiCad,Pcbnew,8.0.9-8.0.9-0~ubuntu22.04.1*%
%TF.CreationDate,2025-04-21T10:33:26+05:30*%
%TF.ProjectId,Variable Buck Converter,56617269-6162-46c6-9520-4275636b2043,rev?*%
%TF.SameCoordinates,Original*%
%TF.FileFunction,Copper,L3,Inr*%
%TF.FilePolarity,Positive*%
%FSLAX46Y46*%
G04 Gerber Fmt 4.6, Leading zero omitted, Abs format (unit mm)*
G04 Created by KiCad (PCBNEW 8.0.9-8.0.9-0~ubuntu22.04.1) date 2025-04-21 10:33:26*
%MOMM*%
%LPD*%
G01*
G04 APERTURE LIST*
%TA.AperFunction,ComponentPad*%
%ADD10C,3.000000*%
%TD*%
%TA.AperFunction,ComponentPad*%
%ADD11R,1.700000X1.700000*%
%TD*%
%TA.AperFunction,ComponentPad*%
%ADD12O,1.700000X1.700000*%
%TD*%
%TA.AperFunction,ComponentPad*%
%ADD13C,1.440000*%
%TD*%
%TA.AperFunction,ComponentPad*%
%ADD14R,2.600000X2.600000*%
%TD*%
%TA.AperFunction,ComponentPad*%
%ADD15C,2.600000*%
%TD*%
%TA.AperFunction,ViaPad*%
%ADD16C,0.600000*%
%TD*%
G04 APERTURE END LIST*
D10*
%TO.N,Net-(J4-Pin_1)*%
%TO.C,TP15*%
X125200000Y-102230000D03*
%TD*%
%TO.N,/Buck Converter/HS*%
%TO.C,TP14*%
X118400000Y-102230000D03*
%TD*%
%TO.N,/Buck Converter/HS*%
%TO.C,TP3*%
X119320000Y-94420000D03*
%TD*%
%TO.N,Net-(D1-K)*%
%TO.C,TP5*%
X101940000Y-87500000D03*
%TD*%
D11*
%TO.N,/Buck Converter/EN*%
%TO.C,JP2*%
X93545000Y-91030000D03*
D12*
%TO.N,Net-(IC1-1Y)*%
X96085000Y-91030000D03*
%TD*%
D10*
%TO.N,+Vin_Buck*%
%TO.C,TP10*%
X116480000Y-76240000D03*
%TD*%
D11*
%TO.N,+VIN*%
%TO.C,JP6*%
X104865000Y-76310000D03*
D12*
%TO.N,+Vin_Buck*%
X107405000Y-76310000D03*
%TD*%
D10*
%TO.N,Net-(C10-Pad1)*%
%TO.C,TP11*%
X116480000Y-82470000D03*
%TD*%
%TO.N,+5V*%
%TO.C,TP7*%
X118190000Y-108500000D03*
%TD*%
%TO.N,/Buck Converter/V_OUT*%
%TO.C,TP13*%
X131550000Y-76330000D03*
%TD*%
D11*
%TO.N,Net-(J7-Pin_1)*%
%TO.C,JP1*%
X86295000Y-122640000D03*
D12*
%TO.N,+5V*%
X88835000Y-122640000D03*
%TD*%
D10*
%TO.N,GND*%
%TO.C,TP4*%
X95850000Y-76340000D03*
%TD*%
D11*
%TO.N,+5V*%
%TO.C,JP5*%
X112970000Y-104560000D03*
D12*
%TO.N,Net-(IC2-DLH)*%
X112970000Y-107100000D03*
%TD*%
D13*
%TO.N,Net-(POT2-Pad1)*%
%TO.C,POT2*%
X106390000Y-111640000D03*
X106390000Y-114180000D03*
%TO.N,GND*%
X106390000Y-116720000D03*
%TD*%
D11*
%TO.N,/pwm*%
%TO.C,JP3*%
X93545000Y-99970000D03*
D12*
%TO.N,Net-(IC1-2Y)*%
X96085000Y-99970000D03*
%TD*%
D10*
%TO.N,+VIN*%
%TO.C,TP6*%
X98080000Y-111030000D03*
%TD*%
D13*
%TO.N,Net-(POT1-Pad1)*%
%TO.C,POT1*%
X112080000Y-111610000D03*
X112080000Y-114150000D03*
%TO.N,GND*%
X112080000Y-116690000D03*
%TD*%
D11*
%TO.N,unconnected-(J6-Pin_1-Pad1)*%
%TO.C,J6*%
X85730000Y-145010000D03*
D12*
%TO.N,unconnected-(J6-Pin_2-Pad2)*%
X88270000Y-145010000D03*
%TO.N,GND*%
X90810000Y-145010000D03*
%TO.N,unconnected-(J6-Pin_4-Pad4)*%
X93350000Y-145010000D03*
%TO.N,unconnected-(J6-Pin_5-Pad5)*%
X95890000Y-145010000D03*
%TO.N,unconnected-(J6-Pin_6-Pad6)*%
X98430000Y-145010000D03*
%TO.N,unconnected-(J6-Pin_7-Pad7)*%
X100970000Y-145010000D03*
%TO.N,GND*%
X103510000Y-145010000D03*
%TO.N,unconnected-(J6-Pin_9-Pad9)*%
X106050000Y-145010000D03*
%TO.N,unconnected-(J6-Pin_10-Pad10)*%
X108590000Y-145010000D03*
%TO.N,unconnected-(J6-Pin_11-Pad11)*%
X111130000Y-145010000D03*
%TO.N,unconnected-(J6-Pin_12-Pad12)*%
X113670000Y-145010000D03*
%TO.N,GND*%
X116210000Y-145010000D03*
%TO.N,unconnected-(J6-Pin_14-Pad14)*%
X118750000Y-145010000D03*
%TO.N,unconnected-(J6-Pin_15-Pad15)*%
X121290000Y-145010000D03*
%TO.N,unconnected-(J6-Pin_16-Pad16)*%
X123830000Y-145010000D03*
%TO.N,unconnected-(J6-Pin_17-Pad17)*%
X126370000Y-145010000D03*
%TO.N,GND*%
X128910000Y-145010000D03*
%TO.N,unconnected-(J6-Pin_19-Pad19)*%
X131450000Y-145010000D03*
%TO.N,unconnected-(J6-Pin_20-Pad20)*%
X133990000Y-145010000D03*
%TD*%
D14*
%TO.N,Net-(J4-Pin_1)*%
%TO.C,J4*%
X131525000Y-97140000D03*
D15*
%TO.N,Net-(J4-Pin_2)*%
X131525000Y-92140000D03*
%TD*%
D14*
%TO.N,+Vin_Buck*%
%TO.C,J3*%
X108750000Y-63830000D03*
D15*
%TO.N,GND*%
X103750000Y-63830000D03*
%TD*%
D14*
%TO.N,/Buck Converter/V_OUT*%
%TO.C,J5*%
X131595000Y-63830000D03*
D15*
%TO.N,GND*%
X126595000Y-63830000D03*
%TD*%
D10*
%TO.N,/Buck Converter/HO*%
%TO.C,TP8*%
X107580000Y-88980000D03*
%TD*%
D11*
%TO.N,Net-(J7-Pin_1)*%
%TO.C,J7*%
X85730000Y-127230000D03*
D12*
%TO.N,unconnected-(J7-Pin_2-Pad2)*%
X88270000Y-127230000D03*
%TO.N,GND*%
X90810000Y-127230000D03*
%TO.N,unconnected-(J7-Pin_4-Pad4)*%
X93350000Y-127230000D03*
%TO.N,+3V3*%
X95890000Y-127230000D03*
%TO.N,unconnected-(J7-Pin_6-Pad6)*%
X98430000Y-127230000D03*
%TO.N,/pwm*%
X100970000Y-127230000D03*
%TO.N,GND*%
X103510000Y-127230000D03*
%TO.N,Net-(J7-Pin_9)*%
X106050000Y-127230000D03*
%TO.N,unconnected-(J7-Pin_10-Pad10)*%
X108590000Y-127230000D03*
%TO.N,unconnected-(J7-Pin_11-Pad11)*%
X111130000Y-127230000D03*
%TO.N,unconnected-(J7-Pin_12-Pad12)*%
X113670000Y-127230000D03*
%TO.N,GND*%
X116210000Y-127230000D03*
%TO.N,/pwm*%
X118750000Y-127230000D03*
%TO.N,/Buck Converter/EN*%
X121290000Y-127230000D03*
%TO.N,unconnected-(J7-Pin_16-Pad16)*%
X123830000Y-127230000D03*
%TO.N,unconnected-(J7-Pin_17-Pad17)*%
X126370000Y-127230000D03*
%TO.N,GND*%
X128910000Y-127230000D03*
%TO.N,unconnected-(J7-Pin_19-Pad19)*%
X131450000Y-127230000D03*
%TO.N,unconnected-(J7-Pin_20-Pad20)*%
X133990000Y-127230000D03*
%TD*%
D10*
%TO.N,Net-(IC1-2Y)*%
%TO.C,TP2*%
X96160000Y-104390000D03*
%TD*%
%TO.N,/Buck Converter/LO*%
%TO.C,TP9*%
X109440000Y-100350000D03*
%TD*%
D14*
%TO.N,+VIN*%
%TO.C,J2*%
X88790000Y-110350000D03*
D15*
%TO.N,GND*%
X88790000Y-115350000D03*
%TD*%
D11*
%TO.N,+5V*%
%TO.C,JP4*%
X85975000Y-104790000D03*
D12*
%TO.N,Net-(IC1-VCC)*%
X88515000Y-104790000D03*
%TO.N,+3V3*%
X91055000Y-104790000D03*
%TD*%
D11*
%TO.N,/Buck Converter/EN*%
%TO.C,J1*%
X85570000Y-91760000D03*
D12*
%TO.N,GND*%
X85570000Y-94300000D03*
X85570000Y-96840000D03*
%TO.N,/pwm*%
X85570000Y-99380000D03*
%TD*%
D10*
%TO.N,Net-(IC1-1Y)*%
%TO.C,TP1*%
X96160000Y-86010000D03*
%TD*%
%TO.N,Net-(J4-Pin_2)*%
%TO.C,TP12*%
X131580000Y-82980000D03*
%TD*%
D16*
%TO.N,GND*%
X104010000Y-98530000D03*
X93610000Y-136760000D03*
X99680000Y-120550000D03*
X102050000Y-123500000D03*
X114950000Y-97770000D03*
X120510000Y-83830000D03*
X112286668Y-99220000D03*
X104740000Y-109530000D03*
X114060000Y-99220000D03*
X110860000Y-97080000D03*
X105060000Y-80560000D03*
X134590000Y-87950000D03*
X133150000Y-118380000D03*
X134870000Y-119990000D03*
X131960000Y-122820000D03*
X113173334Y-99220000D03*
X101223885Y-95201750D03*
X101640000Y-97410000D03*
X112290000Y-97770000D03*
X130510000Y-121060000D03*
X109290000Y-124850000D03*
X105090000Y-82330000D03*
X93245000Y-93680000D03*
X134580000Y-83450000D03*
X122420000Y-122400000D03*
X118180000Y-64950000D03*
X122150000Y-64840000D03*
X93370000Y-106850000D03*
X111840000Y-98470000D03*
X99590000Y-123370000D03*
X87470000Y-102720000D03*
X113176666Y-97770000D03*
X130010000Y-124460000D03*
X94020000Y-94410000D03*
X99850000Y-125240000D03*
X105120000Y-84050000D03*
X87940000Y-95810000D03*
X97750000Y-118650000D03*
X114946668Y-99220000D03*
X93350000Y-110640000D03*
X114063332Y-97770000D03*
X114483332Y-98470000D03*
X117710000Y-124430000D03*
X126830000Y-124360000D03*
X98990000Y-64270000D03*
X98930000Y-61070000D03*
X134360000Y-106100000D03*
X93370000Y-104100000D03*
X101140000Y-102680000D03*
X96200000Y-117240000D03*
X125150000Y-136600000D03*
X134540000Y-94900000D03*
X107880000Y-107830000D03*
X93340000Y-116050000D03*
X134150000Y-111140000D03*
X108780000Y-136680000D03*
X102880000Y-109540000D03*
X94910000Y-110710000D03*
X126870000Y-122400000D03*
X122420000Y-124510000D03*
X112710000Y-98470000D03*
X125160000Y-113040000D03*
X121660000Y-88270000D03*
X109590000Y-97380000D03*
X98000000Y-121880000D03*
X121620000Y-86160000D03*
X95170000Y-115850000D03*
X115370000Y-98470000D03*
X113500000Y-124320000D03*
X87990000Y-96870000D03*
X117790000Y-122290000D03*
X101210000Y-122090000D03*
X95240000Y-106830000D03*
X94720000Y-118480000D03*
X134250000Y-102050000D03*
X122040000Y-70580000D03*
X102110000Y-125280000D03*
X87910000Y-94780000D03*
X96400000Y-120120000D03*
X102140000Y-101900000D03*
X113390000Y-122360000D03*
X104410000Y-95780000D03*
X104390000Y-95110000D03*
X134540000Y-80120000D03*
X134110000Y-115090000D03*
X98960000Y-68030000D03*
X115780000Y-113180000D03*
X108510000Y-97130000D03*
X97360000Y-101800000D03*
X113596666Y-98470000D03*
X109290000Y-122020000D03*
X85680000Y-102820000D03*
X107030000Y-97270000D03*
X93370000Y-105450000D03*
X90700000Y-95580000D03*
X99260000Y-116530000D03*
X122790000Y-105340000D03*
X94870000Y-102690000D03*
X105200000Y-85790000D03*
X121930000Y-76320000D03*
%TO.N,/Buck Converter/HS*%
X111500000Y-94030000D03*
X110240000Y-87860000D03*
X104410000Y-94055000D03*
X110930000Y-90780000D03*
X109430000Y-91160000D03*
X102290000Y-92690000D03*
X103940000Y-92050000D03*
X108980000Y-94040000D03*
X106340000Y-91460000D03*
%TO.N,+5V*%
X95615000Y-122615000D03*
X104680000Y-103407500D03*
%TD*%
%TA.AperFunction,Conductor*%
%TO.N,GND*%
G36*
X135493537Y-59459407D02*
G01*
X135514044Y-59479437D01*
X135849200Y-59918607D01*
X135869473Y-59976336D01*
X135869500Y-59978667D01*
X135869500Y-84192930D01*
X135869499Y-84193384D01*
X135590205Y-145115096D01*
X135571031Y-145173199D01*
X135556078Y-145189425D01*
X135184703Y-145511582D01*
X135128357Y-145535431D01*
X135068754Y-145521606D01*
X135028661Y-145475387D01*
X135023391Y-145414429D01*
X135024599Y-145409747D01*
X135080345Y-145213821D01*
X135099232Y-145010000D01*
X135080345Y-144806179D01*
X135024328Y-144609299D01*
X134933088Y-144426065D01*
X134809732Y-144262715D01*
X134658462Y-144124814D01*
X134506006Y-144030417D01*
X134484432Y-144017059D01*
X134484427Y-144017056D01*
X134379776Y-143976514D01*
X134293556Y-143943112D01*
X134293555Y-143943111D01*
X134293553Y-143943111D01*
X134092347Y-143905500D01*
X133887653Y-143905500D01*
X133686446Y-143943111D01*
X133495572Y-144017056D01*
X133495567Y-144017059D01*
X133321542Y-144124811D01*
X133321540Y-144124812D01*
X133321538Y-144124814D01*
X133310435Y-144134936D01*
X133170269Y-144262714D01*
X133046913Y-144426063D01*
X133046908Y-144426072D01*
X132955672Y-144609298D01*
X132899655Y-144806177D01*
X132886868Y-144944174D01*
X132880768Y-145010000D01*
X132899655Y-145213821D01*
X132955672Y-145410701D01*
X133046912Y-145593935D01*
X133170268Y-145757285D01*
X133321538Y-145895186D01*
X133495573Y-146002944D01*
X133686444Y-146076888D01*
X133887653Y-146114500D01*
X134092347Y-146114500D01*
X134240049Y-146086890D01*
X134300723Y-146094783D01*
X134345170Y-146136832D01*
X134356413Y-146196975D01*
X134330157Y-146252241D01*
X134323121Y-146258979D01*
X134090951Y-146460379D01*
X133957801Y-146575883D01*
X133901455Y-146599731D01*
X133893198Y-146600099D01*
X86094154Y-146729880D01*
X86035912Y-146711130D01*
X86020408Y-146697229D01*
X85643520Y-146279848D01*
X85618554Y-146223987D01*
X85631190Y-146164121D01*
X85676601Y-146123115D01*
X85716994Y-146114499D01*
X86605066Y-146114499D01*
X86679301Y-146099734D01*
X86763484Y-146043484D01*
X86819734Y-145959301D01*
X86834500Y-145885067D01*
X86834499Y-145010000D01*
X87160768Y-145010000D01*
X87179655Y-145213821D01*
X87235672Y-145410701D01*
X87326912Y-145593935D01*
X87450268Y-145757285D01*
X87601538Y-145895186D01*
X87775573Y-146002944D01*
X87966444Y-146076888D01*
X88167653Y-146114500D01*
X88372347Y-146114500D01*
X88573556Y-146076888D01*
X88764427Y-146002944D01*
X88938462Y-145895186D01*
X89089732Y-145757285D01*
X89213088Y-145593935D01*
X89304328Y-145410701D01*
X89360345Y-145213821D01*
X89379232Y-145010000D01*
X89360345Y-144806179D01*
X89347206Y-144760000D01*
X89733314Y-144760000D01*
X90376988Y-144760000D01*
X90344075Y-144817007D01*
X90310000Y-144944174D01*
X90310000Y-145075826D01*
X90344075Y-145202993D01*
X90376988Y-145260000D01*
X89733314Y-145260000D01*
X89776141Y-145410521D01*
X89867335Y-145593663D01*
X89867340Y-145593672D01*
X89990640Y-145756947D01*
X90141843Y-145894787D01*
X90315794Y-146002492D01*
X90315796Y-146002493D01*
X90506584Y-146076405D01*
X90559999Y-146086390D01*
X90560000Y-146086390D01*
X90560000Y-145443012D01*
X90617007Y-145475925D01*
X90744174Y-145510000D01*
X90875826Y-145510000D01*
X91002993Y-145475925D01*
X91060000Y-145443012D01*
X91060000Y-146086390D01*
X91113415Y-146076405D01*
X91304203Y-146002493D01*
X91304205Y-146002492D01*
X91478156Y-145894787D01*
X91629359Y-145756947D01*
X91752659Y-145593672D01*
X91752664Y-145593663D01*
X91843858Y-145410521D01*
X91886686Y-145260000D01*
X91243012Y-145260000D01*
X91275925Y-145202993D01*
X91310000Y-145075826D01*
X91310000Y-145010000D01*
X92240768Y-145010000D01*
X92259655Y-145213821D01*
X92315672Y-145410701D01*
X92406912Y-145593935D01*
X92530268Y-145757285D01*
X92681538Y-145895186D01*
X92855573Y-146002944D01*
X93046444Y-146076888D01*
X93247653Y-146114500D01*
X93452347Y-146114500D01*
X93653556Y-146076888D01*
X93844427Y-146002944D01*
X94018462Y-145895186D01*
X94169732Y-145757285D01*
X94293088Y-145593935D01*
X94384328Y-145410701D01*
X94440345Y-145213821D01*
X94459232Y-145010000D01*
X94780768Y-145010000D01*
X94799655Y-145213821D01*
X94855672Y-145410701D01*
X94946912Y-145593935D01*
X95070268Y-145757285D01*
X95221538Y-145895186D01*
X95395573Y-146002944D01*
X95586444Y-146076888D01*
X95787653Y-146114500D01*
X95992347Y-146114500D01*
X96193556Y-146076888D01*
X96384427Y-146002944D01*
X96558462Y-145895186D01*
X96709732Y-145757285D01*
X96833088Y-145593935D01*
X96924328Y-145410701D01*
X96980345Y-145213821D01*
X96999232Y-145010000D01*
X97320768Y-145010000D01*
X97339655Y-145213821D01*
X97395672Y-145410701D01*
X97486912Y-145593935D01*
X97610268Y-145757285D01*
X97761538Y-145895186D01*
X97935573Y-146002944D01*
X98126444Y-146076888D01*
X98327653Y-146114500D01*
X98532347Y-146114500D01*
X98733556Y-146076888D01*
X98924427Y-146002944D01*
X99098462Y-145895186D01*
X99249732Y-145757285D01*
X99373088Y-145593935D01*
X99464328Y-145410701D01*
X99520345Y-145213821D01*
X99539232Y-145010000D01*
X99860768Y-145010000D01*
X99879655Y-145213821D01*
X99935672Y-145410701D01*
X100026912Y-145593935D01*
X100150268Y-145757285D01*
X100301538Y-145895186D01*
X100475573Y-146002944D01*
X100666444Y-146076888D01*
X100867653Y-146114500D01*
X101072347Y-146114500D01*
X101273556Y-146076888D01*
X101464427Y-146002944D01*
X101638462Y-145895186D01*
X101789732Y-145757285D01*
X101913088Y-145593935D01*
X102004328Y-145410701D01*
X102060345Y-145213821D01*
X102079232Y-145010000D01*
X102060345Y-144806179D01*
X102047206Y-144760000D01*
X102433314Y-144760000D01*
X103076988Y-144760000D01*
X103044075Y-144817007D01*
X103010000Y-144944174D01*
X103010000Y-145075826D01*
X103044075Y-145202993D01*
X103076988Y-145260000D01*
X102433314Y-145260000D01*
X102476141Y-145410521D01*
X102567335Y-145593663D01*
X102567340Y-145593672D01*
X102690640Y-145756947D01*
X102841843Y-145894787D01*
X103015794Y-146002492D01*
X103015796Y-146002493D01*
X103206584Y-146076405D01*
X103260000Y-146086390D01*
X103260000Y-145443012D01*
X103317007Y-145475925D01*
X103444174Y-145510000D01*
X103575826Y-145510000D01*
X103702993Y-145475925D01*
X103760000Y-145443012D01*
X103760000Y-146086390D01*
X103813415Y-146076405D01*
X104004203Y-146002493D01*
X104004205Y-146002492D01*
X104178156Y-145894787D01*
X104329359Y-145756947D01*
X104452659Y-145593672D01*
X104452664Y-145593663D01*
X104543858Y-145410521D01*
X104586686Y-145260000D01*
X103943012Y-145260000D01*
X103975925Y-145202993D01*
X104010000Y-145075826D01*
X104010000Y-145010000D01*
X104940768Y-145010000D01*
X104959655Y-145213821D01*
X105015672Y-145410701D01*
X105106912Y-145593935D01*
X105230268Y-145757285D01*
X105381538Y-145895186D01*
X105555573Y-146002944D01*
X105746444Y-146076888D01*
X105947653Y-146114500D01*
X106152347Y-146114500D01*
X106353556Y-146076888D01*
X106544427Y-146002944D01*
X106718462Y-145895186D01*
X106869732Y-145757285D01*
X106993088Y-145593935D01*
X107084328Y-145410701D01*
X107140345Y-145213821D01*
X107159232Y-145010000D01*
X107480768Y-145010000D01*
X107499655Y-145213821D01*
X107555672Y-145410701D01*
X107646912Y-145593935D01*
X107770268Y-145757285D01*
X107921538Y-145895186D01*
X108095573Y-146002944D01*
X108286444Y-146076888D01*
X108487653Y-146114500D01*
X108692347Y-146114500D01*
X108893556Y-146076888D01*
X109084427Y-146002944D01*
X109258462Y-145895186D01*
X109409732Y-145757285D01*
X109533088Y-145593935D01*
X109624328Y-145410701D01*
X109680345Y-145213821D01*
X109699232Y-145010000D01*
X110020768Y-145010000D01*
X110039655Y-145213821D01*
X110095672Y-145410701D01*
X110186912Y-145593935D01*
X110310268Y-145757285D01*
X110461538Y-145895186D01*
X110635573Y-146002944D01*
X110826444Y-146076888D01*
X111027653Y-146114500D01*
X111232347Y-146114500D01*
X111433556Y-146076888D01*
X111624427Y-146002944D01*
X111798462Y-145895186D01*
X111949732Y-145757285D01*
X112073088Y-145593935D01*
X112164328Y-145410701D01*
X112220345Y-145213821D01*
X112239232Y-145010000D01*
X112560768Y-145010000D01*
X112579655Y-145213821D01*
X112635672Y-145410701D01*
X112726912Y-145593935D01*
X112850268Y-145757285D01*
X113001538Y-145895186D01*
X113175573Y-146002944D01*
X113366444Y-146076888D01*
X113567653Y-146114500D01*
X113772347Y-146114500D01*
X113973556Y-146076888D01*
X114164427Y-146002944D01*
X114338462Y-145895186D01*
X114489732Y-145757285D01*
X114613088Y-145593935D01*
X114704328Y-145410701D01*
X114760345Y-145213821D01*
X114779232Y-145010000D01*
X114760345Y-144806179D01*
X114747206Y-144760000D01*
X115133314Y-144760000D01*
X115776988Y-144760000D01*
X115744075Y-144817007D01*
X115710000Y-144944174D01*
X115710000Y-145075826D01*
X115744075Y-145202993D01*
X115776988Y-145260000D01*
X115133314Y-145260000D01*
X115176141Y-145410521D01*
X115267335Y-145593663D01*
X115267340Y-145593672D01*
X115390640Y-145756947D01*
X115541843Y-145894787D01*
X115715794Y-146002492D01*
X115715796Y-146002493D01*
X115906584Y-146076405D01*
X115959999Y-146086390D01*
X115960000Y-146086390D01*
X115960000Y-145443012D01*
X116017007Y-145475925D01*
X116144174Y-145510000D01*
X116275826Y-145510000D01*
X116402993Y-145475925D01*
X116460000Y-145443012D01*
X116460000Y-146086390D01*
X116513415Y-146076405D01*
X116704203Y-146002493D01*
X116704205Y-146002492D01*
X116878156Y-145894787D01*
X117029359Y-145756947D01*
X117152659Y-145593672D01*
X117152664Y-145593663D01*
X117243858Y-145410521D01*
X117286686Y-145260000D01*
X116643012Y-145260000D01*
X116675925Y-145202993D01*
X116710000Y-145075826D01*
X116710000Y-145010000D01*
X117640768Y-145010000D01*
X117659655Y-145213821D01*
X117715672Y-145410701D01*
X117806912Y-145593935D01*
X117930268Y-145757285D01*
X118081538Y-145895186D01*
X118255573Y-146002944D01*
X118446444Y-146076888D01*
X118647653Y-146114500D01*
X118852347Y-146114500D01*
X119053556Y-146076888D01*
X119244427Y-146002944D01*
X119418462Y-145895186D01*
X119569732Y-145757285D01*
X119693088Y-145593935D01*
X119784328Y-145410701D01*
X119840345Y-145213821D01*
X119859232Y-145010000D01*
X120180768Y-145010000D01*
X120199655Y-145213821D01*
X120255672Y-145410701D01*
X120346912Y-145593935D01*
X120470268Y-145757285D01*
X120621538Y-145895186D01*
X120795573Y-146002944D01*
X120986444Y-146076888D01*
X121187653Y-146114500D01*
X121392347Y-146114500D01*
X121593556Y-146076888D01*
X121784427Y-146002944D01*
X121958462Y-145895186D01*
X122109732Y-145757285D01*
X122233088Y-145593935D01*
X122324328Y-145410701D01*
X122380345Y-145213821D01*
X122399232Y-145010000D01*
X122720768Y-145010000D01*
X122739655Y-145213821D01*
X122795672Y-145410701D01*
X122886912Y-145593935D01*
X123010268Y-145757285D01*
X123161538Y-145895186D01*
X123335573Y-146002944D01*
X123526444Y-146076888D01*
X123727653Y-146114500D01*
X123932347Y-146114500D01*
X124133556Y-146076888D01*
X124324427Y-146002944D01*
X124498462Y-145895186D01*
X124649732Y-145757285D01*
X124773088Y-145593935D01*
X124864328Y-145410701D01*
X124920345Y-145213821D01*
X124939232Y-145010000D01*
X125260768Y-145010000D01*
X125279655Y-145213821D01*
X125335672Y-145410701D01*
X125426912Y-145593935D01*
X125550268Y-145757285D01*
X125701538Y-145895186D01*
X125875573Y-146002944D01*
X126066444Y-146076888D01*
X126267653Y-146114500D01*
X126472347Y-146114500D01*
X126673556Y-146076888D01*
X126864427Y-146002944D01*
X127038462Y-145895186D01*
X127189732Y-145757285D01*
X127313088Y-145593935D01*
X127404328Y-145410701D01*
X127460345Y-145213821D01*
X127479232Y-145010000D01*
X127460345Y-144806179D01*
X127447206Y-144760000D01*
X127833314Y-144760000D01*
X128476988Y-144760000D01*
X128444075Y-144817007D01*
X128410000Y-144944174D01*
X128410000Y-145075826D01*
X128444075Y-145202993D01*
X128476988Y-145260000D01*
X127833314Y-145260000D01*
X127876141Y-145410521D01*
X127967335Y-145593663D01*
X127967340Y-145593672D01*
X128090640Y-145756947D01*
X128241843Y-145894787D01*
X128415794Y-146002492D01*
X128415796Y-146002493D01*
X128606584Y-146076405D01*
X128659999Y-146086390D01*
X128660000Y-146086390D01*
X128660000Y-145443012D01*
X128717007Y-145475925D01*
X128844174Y-145510000D01*
X128975826Y-145510000D01*
X129102993Y-145475925D01*
X129160000Y-145443012D01*
X129160000Y-146086390D01*
X129213415Y-146076405D01*
X129404203Y-146002493D01*
X129404205Y-146002492D01*
X129578156Y-145894787D01*
X129729359Y-145756947D01*
X129852659Y-145593672D01*
X129852664Y-145593663D01*
X129943858Y-145410521D01*
X129986686Y-145260000D01*
X129343012Y-145260000D01*
X129375925Y-145202993D01*
X129410000Y-145075826D01*
X129410000Y-145010000D01*
X130340768Y-145010000D01*
X130359655Y-145213821D01*
X130415672Y-145410701D01*
X130506912Y-145593935D01*
X130630268Y-145757285D01*
X130781538Y-145895186D01*
X130955573Y-146002944D01*
X131146444Y-146076888D01*
X131347653Y-146114500D01*
X131552347Y-146114500D01*
X131753556Y-146076888D01*
X131944427Y-146002944D01*
X132118462Y-145895186D01*
X132269732Y-145757285D01*
X132393088Y-145593935D01*
X132484328Y-145410701D01*
X132540345Y-145213821D01*
X132559232Y-145010000D01*
X132540345Y-144806179D01*
X132484328Y-144609299D01*
X132393088Y-144426065D01*
X132269732Y-144262715D01*
X132118462Y-144124814D01*
X131966006Y-144030417D01*
X131944432Y-144017059D01*
X131944427Y-144017056D01*
X131839776Y-143976514D01*
X131753556Y-143943112D01*
X131753555Y-143943111D01*
X131753553Y-143943111D01*
X131552347Y-143905500D01*
X131347653Y-143905500D01*
X131146446Y-143943111D01*
X130955572Y-144017056D01*
X130955567Y-144017059D01*
X130781542Y-144124811D01*
X130781540Y-144124812D01*
X130781538Y-144124814D01*
X130770435Y-144134936D01*
X130630269Y-144262714D01*
X130506913Y-144426063D01*
X130506908Y-144426072D01*
X130415672Y-144609298D01*
X130359655Y-144806177D01*
X130346868Y-144944174D01*
X130340768Y-145010000D01*
X129410000Y-145010000D01*
X129410000Y-144944174D01*
X129375925Y-144817007D01*
X129343012Y-144760000D01*
X129986686Y-144760000D01*
X129943858Y-144609478D01*
X129852664Y-144426336D01*
X129852659Y-144426327D01*
X129729359Y-144263052D01*
X129578156Y-144125212D01*
X129404205Y-144017507D01*
X129404203Y-144017506D01*
X129213418Y-143943595D01*
X129213412Y-143943593D01*
X129160000Y-143933609D01*
X129160000Y-144576988D01*
X129102993Y-144544075D01*
X128975826Y-144510000D01*
X128844174Y-144510000D01*
X128717007Y-144544075D01*
X128660000Y-144576988D01*
X128660000Y-143933609D01*
X128659999Y-143933609D01*
X128606587Y-143943593D01*
X128606581Y-143943595D01*
X128415796Y-144017506D01*
X128415794Y-144017507D01*
X128241843Y-144125212D01*
X128090640Y-144263052D01*
X127967340Y-144426327D01*
X127967335Y-144426336D01*
X127876141Y-144609478D01*
X127833314Y-144760000D01*
X127447206Y-144760000D01*
X127404328Y-144609299D01*
X127313088Y-144426065D01*
X127189732Y-144262715D01*
X127038462Y-144124814D01*
X126886006Y-144030417D01*
X126864432Y-144017059D01*
X126864427Y-144017056D01*
X126759776Y-143976514D01*
X126673556Y-143943112D01*
X126673555Y-143943111D01*
X126673553Y-143943111D01*
X126472347Y-143905500D01*
X126267653Y-143905500D01*
X126066446Y-143943111D01*
X125875572Y-144017056D01*
X125875567Y-144017059D01*
X125701542Y-144124811D01*
X125701540Y-144124812D01*
X125701538Y-144124814D01*
X125690435Y-144134936D01*
X125550269Y-144262714D01*
X125426913Y-144426063D01*
X125426908Y-144426072D01*
X125335672Y-144609298D01*
X125279655Y-144806177D01*
X125266868Y-144944174D01*
X125260768Y-145010000D01*
X124939232Y-145010000D01*
X124920345Y-144806179D01*
X124864328Y-144609299D01*
X124773088Y-144426065D01*
X124649732Y-144262715D01*
X124498462Y-144124814D01*
X124346006Y-144030417D01*
X124324432Y-144017059D01*
X124324427Y-144017056D01*
X124219776Y-143976514D01*
X124133556Y-143943112D01*
X124133555Y-143943111D01*
X124133553Y-143943111D01*
X123932347Y-143905500D01*
X123727653Y-143905500D01*
X123526446Y-143943111D01*
X123335572Y-144017056D01*
X123335567Y-144017059D01*
X123161542Y-144124811D01*
X123161540Y-144124812D01*
X123161538Y-144124814D01*
X123150435Y-144134936D01*
X123010269Y-144262714D01*
X122886913Y-144426063D01*
X122886908Y-144426072D01*
X122795672Y-144609298D01*
X122739655Y-144806177D01*
X122726868Y-144944174D01*
X122720768Y-145010000D01*
X122399232Y-145010000D01*
X122380345Y-144806179D01*
X122324328Y-144609299D01*
X122233088Y-144426065D01*
X122109732Y-144262715D01*
X121958462Y-144124814D01*
X121806006Y-144030417D01*
X121784432Y-144017059D01*
X121784427Y-144017056D01*
X121679776Y-143976514D01*
X121593556Y-143943112D01*
X121593555Y-143943111D01*
X121593553Y-143943111D01*
X121392347Y-143905500D01*
X121187653Y-143905500D01*
X120986446Y-143943111D01*
X120795572Y-144017056D01*
X120795567Y-144017059D01*
X120621542Y-144124811D01*
X120621540Y-144124812D01*
X120621538Y-144124814D01*
X120610435Y-144134936D01*
X120470269Y-144262714D01*
X120346913Y-144426063D01*
X120346908Y-144426072D01*
X120255672Y-144609298D01*
X120199655Y-144806177D01*
X120186868Y-144944174D01*
X120180768Y-145010000D01*
X119859232Y-145010000D01*
X119840345Y-144806179D01*
X119784328Y-144609299D01*
X119693088Y-144426065D01*
X119569732Y-144262715D01*
X119418462Y-144124814D01*
X119266006Y-144030417D01*
X119244432Y-144017059D01*
X119244427Y-144017056D01*
X119139776Y-143976514D01*
X119053556Y-143943112D01*
X119053555Y-143943111D01*
X119053553Y-143943111D01*
X118852347Y-143905500D01*
X118647653Y-143905500D01*
X118446446Y-143943111D01*
X118255572Y-144017056D01*
X118255567Y-144017059D01*
X118081542Y-144124811D01*
X118081540Y-144124812D01*
X118081538Y-144124814D01*
X118070435Y-144134936D01*
X117930269Y-144262714D01*
X117806913Y-144426063D01*
X117806908Y-144426072D01*
X117715672Y-144609298D01*
X117659655Y-144806177D01*
X117646868Y-144944174D01*
X117640768Y-145010000D01*
X116710000Y-145010000D01*
X116710000Y-144944174D01*
X116675925Y-144817007D01*
X116643012Y-144760000D01*
X117286686Y-144760000D01*
X117243858Y-144609478D01*
X117152664Y-144426336D01*
X117152659Y-144426327D01*
X117029359Y-144263052D01*
X116878156Y-144125212D01*
X116704205Y-144017507D01*
X116704203Y-144017506D01*
X116513418Y-143943595D01*
X116513412Y-143943593D01*
X116460000Y-143933609D01*
X116460000Y-144576988D01*
X116402993Y-144544075D01*
X116275826Y-144510000D01*
X116144174Y-144510000D01*
X116017007Y-144544075D01*
X115960000Y-144576988D01*
X115960000Y-143933609D01*
X115959999Y-143933609D01*
X115906587Y-143943593D01*
X115906581Y-143943595D01*
X115715796Y-144017506D01*
X115715794Y-144017507D01*
X115541843Y-144125212D01*
X115390640Y-144263052D01*
X115267340Y-144426327D01*
X115267335Y-144426336D01*
X115176141Y-144609478D01*
X115133314Y-144760000D01*
X114747206Y-144760000D01*
X114704328Y-144609299D01*
X114613088Y-144426065D01*
X114489732Y-144262715D01*
X114338462Y-144124814D01*
X114186006Y-144030417D01*
X114164432Y-144017059D01*
X114164427Y-144017056D01*
X114059776Y-143976514D01*
X113973556Y-143943112D01*
X113973555Y-143943111D01*
X113973553Y-143943111D01*
X113772347Y-143905500D01*
X113567653Y-143905500D01*
X113366446Y-143943111D01*
X113175572Y-144017056D01*
X113175567Y-144017059D01*
X113001542Y-144124811D01*
X113001540Y-144124812D01*
X113001538Y-144124814D01*
X112990435Y-144134936D01*
X112850269Y-144262714D01*
X112726913Y-144426063D01*
X112726908Y-144426072D01*
X112635672Y-144609298D01*
X112579655Y-144806177D01*
X112566868Y-144944174D01*
X112560768Y-145010000D01*
X112239232Y-145010000D01*
X112220345Y-144806179D01*
X112164328Y-144609299D01*
X112073088Y-144426065D01*
X111949732Y-144262715D01*
X111798462Y-144124814D01*
X111646006Y-144030417D01*
X111624432Y-144017059D01*
X111624427Y-144017056D01*
X111519776Y-143976514D01*
X111433556Y-143943112D01*
X111433555Y-143943111D01*
X111433553Y-143943111D01*
X111232347Y-143905500D01*
X111027653Y-143905500D01*
X110826446Y-143943111D01*
X110635572Y-144017056D01*
X110635567Y-144017059D01*
X110461542Y-144124811D01*
X110461540Y-144124812D01*
X110461538Y-144124814D01*
X110450435Y-144134936D01*
X110310269Y-144262714D01*
X110186913Y-144426063D01*
X110186908Y-144426072D01*
X110095672Y-144609298D01*
X110039655Y-144806177D01*
X110026868Y-144944174D01*
X110020768Y-145010000D01*
X109699232Y-145010000D01*
X109680345Y-144806179D01*
X109624328Y-144609299D01*
X109533088Y-144426065D01*
X109409732Y-144262715D01*
X109258462Y-144124814D01*
X109106006Y-144030417D01*
X109084432Y-144017059D01*
X109084427Y-144017056D01*
X108979776Y-143976514D01*
X108893556Y-143943112D01*
X108893555Y-143943111D01*
X108893553Y-143943111D01*
X108692347Y-143905500D01*
X108487653Y-143905500D01*
X108286446Y-143943111D01*
X108095572Y-144017056D01*
X108095567Y-144017059D01*
X107921542Y-144124811D01*
X107921540Y-144124812D01*
X107921538Y-144124814D01*
X107910435Y-144134936D01*
X107770269Y-144262714D01*
X107646913Y-144426063D01*
X107646908Y-144426072D01*
X107555672Y-144609298D01*
X107499655Y-144806177D01*
X107486868Y-144944174D01*
X107480768Y-145010000D01*
X107159232Y-145010000D01*
X107140345Y-144806179D01*
X107084328Y-144609299D01*
X106993088Y-144426065D01*
X106869732Y-144262715D01*
X106718462Y-144124814D01*
X106566006Y-144030417D01*
X106544432Y-144017059D01*
X106544427Y-144017056D01*
X106439776Y-143976514D01*
X106353556Y-143943112D01*
X106353555Y-143943111D01*
X106353553Y-143943111D01*
X106152347Y-143905500D01*
X105947653Y-143905500D01*
X105746446Y-143943111D01*
X105555572Y-144017056D01*
X105555567Y-144017059D01*
X105381542Y-144124811D01*
X105381540Y-144124812D01*
X105381538Y-144124814D01*
X105370435Y-144134936D01*
X105230269Y-144262714D01*
X105106913Y-144426063D01*
X105106908Y-144426072D01*
X105015672Y-144609298D01*
X104959655Y-144806177D01*
X104946868Y-144944174D01*
X104940768Y-145010000D01*
X104010000Y-145010000D01*
X104010000Y-144944174D01*
X103975925Y-144817007D01*
X103943012Y-144760000D01*
X104586686Y-144760000D01*
X104543858Y-144609478D01*
X104452664Y-144426336D01*
X104452659Y-144426327D01*
X104329359Y-144263052D01*
X104178156Y-144125212D01*
X104004205Y-144017507D01*
X104004203Y-144017506D01*
X103813418Y-143943595D01*
X103813412Y-143943593D01*
X103760000Y-143933609D01*
X103760000Y-144576988D01*
X103702993Y-144544075D01*
X103575826Y-144510000D01*
X103444174Y-144510000D01*
X103317007Y-144544075D01*
X103260000Y-144576988D01*
X103260000Y-143933609D01*
X103259999Y-143933609D01*
X103206587Y-143943593D01*
X103206581Y-143943595D01*
X103015796Y-144017506D01*
X103015794Y-144017507D01*
X102841843Y-144125212D01*
X102690640Y-144263052D01*
X102567340Y-144426327D01*
X102567335Y-144426336D01*
X102476141Y-144609478D01*
X102433314Y-144760000D01*
X102047206Y-144760000D01*
X102004328Y-144609299D01*
X101913088Y-144426065D01*
X101789732Y-144262715D01*
X101638462Y-144124814D01*
X101486006Y-144030417D01*
X101464432Y-144017059D01*
X101464427Y-144017056D01*
X101359776Y-143976514D01*
X101273556Y-143943112D01*
X101273555Y-143943111D01*
X101273553Y-143943111D01*
X101072347Y-143905500D01*
X100867653Y-143905500D01*
X100666446Y-143943111D01*
X100475572Y-144017056D01*
X100475567Y-144017059D01*
X100301542Y-144124811D01*
X100301540Y-144124812D01*
X100301538Y-144124814D01*
X100290435Y-144134936D01*
X100150269Y-144262714D01*
X100026913Y-144426063D01*
X100026908Y-144426072D01*
X99935672Y-144609298D01*
X99879655Y-144806177D01*
X99866868Y-144944174D01*
X99860768Y-145010000D01*
X99539232Y-145010000D01*
X99520345Y-144806179D01*
X99464328Y-144609299D01*
X99373088Y-144426065D01*
X99249732Y-144262715D01*
X99098462Y-144124814D01*
X98946006Y-144030417D01*
X98924432Y-144017059D01*
X98924427Y-144017056D01*
X98819776Y-143976514D01*
X98733556Y-143943112D01*
X98733555Y-143943111D01*
X98733553Y-143943111D01*
X98532347Y-143905500D01*
X98327653Y-143905500D01*
X98126446Y-143943111D01*
X97935572Y-144017056D01*
X97935567Y-144017059D01*
X97761542Y-144124811D01*
X97761540Y-144124812D01*
X97761538Y-144124814D01*
X97750435Y-144134936D01*
X97610269Y-144262714D01*
X97486913Y-144426063D01*
X97486908Y-144426072D01*
X97395672Y-144609298D01*
X97339655Y-144806177D01*
X97326868Y-144944174D01*
X97320768Y-145010000D01*
X96999232Y-145010000D01*
X96980345Y-144806179D01*
X96924328Y-144609299D01*
X96833088Y-144426065D01*
X96709732Y-144262715D01*
X96558462Y-144124814D01*
X96406006Y-144030417D01*
X96384432Y-144017059D01*
X96384427Y-144017056D01*
X96279776Y-143976514D01*
X96193556Y-143943112D01*
X96193555Y-143943111D01*
X96193553Y-143943111D01*
X95992347Y-143905500D01*
X95787653Y-143905500D01*
X95586446Y-143943111D01*
X95395572Y-144017056D01*
X95395567Y-144017059D01*
X95221542Y-144124811D01*
X95221540Y-144124812D01*
X95221538Y-144124814D01*
X95210435Y-144134936D01*
X95070269Y-144262714D01*
X94946913Y-144426063D01*
X94946908Y-144426072D01*
X94855672Y-144609298D01*
X94799655Y-144806177D01*
X94786868Y-144944174D01*
X94780768Y-145010000D01*
X94459232Y-145010000D01*
X94440345Y-144806179D01*
X94384328Y-144609299D01*
X94293088Y-144426065D01*
X94169732Y-144262715D01*
X94018462Y-144124814D01*
X93866006Y-144030417D01*
X93844432Y-144017059D01*
X93844427Y-144017056D01*
X93739776Y-143976514D01*
X93653556Y-143943112D01*
X93653555Y-143943111D01*
X93653553Y-143943111D01*
X93452347Y-143905500D01*
X93247653Y-143905500D01*
X93046446Y-143943111D01*
X92855572Y-144017056D01*
X92855567Y-144017059D01*
X92681542Y-144124811D01*
X92681540Y-144124812D01*
X92681538Y-144124814D01*
X92670435Y-144134936D01*
X92530269Y-144262714D01*
X92406913Y-144426063D01*
X92406908Y-144426072D01*
X92315672Y-144609298D01*
X92259655Y-144806177D01*
X92246868Y-144944174D01*
X92240768Y-145010000D01*
X91310000Y-145010000D01*
X91310000Y-144944174D01*
X91275925Y-144817007D01*
X91243012Y-144760000D01*
X91886686Y-144760000D01*
X91843858Y-144609478D01*
X91752664Y-144426336D01*
X91752659Y-144426327D01*
X91629359Y-144263052D01*
X91478156Y-144125212D01*
X91304205Y-144017507D01*
X91304203Y-144017506D01*
X91113418Y-143943595D01*
X91113412Y-143943593D01*
X91060000Y-143933609D01*
X91060000Y-144576988D01*
X91002993Y-144544075D01*
X90875826Y-144510000D01*
X90744174Y-144510000D01*
X90617007Y-144544075D01*
X90560000Y-144576988D01*
X90560000Y-143933609D01*
X90559999Y-143933609D01*
X90506587Y-143943593D01*
X90506581Y-143943595D01*
X90315796Y-144017506D01*
X90315794Y-144017507D01*
X90141843Y-144125212D01*
X89990640Y-144263052D01*
X89867340Y-144426327D01*
X89867335Y-144426336D01*
X89776141Y-144609478D01*
X89733314Y-144760000D01*
X89347206Y-144760000D01*
X89304328Y-144609299D01*
X89213088Y-144426065D01*
X89089732Y-144262715D01*
X88938462Y-144124814D01*
X88786006Y-144030417D01*
X88764432Y-144017059D01*
X88764427Y-144017056D01*
X88659776Y-143976514D01*
X88573556Y-143943112D01*
X88573555Y-143943111D01*
X88573553Y-143943111D01*
X88372347Y-143905500D01*
X88167653Y-143905500D01*
X87966446Y-143943111D01*
X87775572Y-144017056D01*
X87775567Y-144017059D01*
X87601542Y-144124811D01*
X87601540Y-144124812D01*
X87601538Y-144124814D01*
X87590435Y-144134936D01*
X87450269Y-144262714D01*
X87326913Y-144426063D01*
X87326908Y-144426072D01*
X87235672Y-144609298D01*
X87179655Y-144806177D01*
X87166868Y-144944174D01*
X87160768Y-145010000D01*
X86834499Y-145010000D01*
X86834499Y-144134934D01*
X86819734Y-144060699D01*
X86763484Y-143976516D01*
X86679301Y-143920266D01*
X86605067Y-143905500D01*
X86605066Y-143905500D01*
X84934892Y-143905500D01*
X84876701Y-143886593D01*
X84840737Y-143837093D01*
X84835893Y-143806763D01*
X84796014Y-128433753D01*
X84814771Y-128375516D01*
X84864177Y-128339424D01*
X84895007Y-128334499D01*
X86605066Y-128334499D01*
X86679301Y-128319734D01*
X86763484Y-128263484D01*
X86819734Y-128179301D01*
X86834500Y-128105067D01*
X86834499Y-127230000D01*
X87160768Y-127230000D01*
X87179655Y-127433821D01*
X87235672Y-127630701D01*
X87326912Y-127813935D01*
X87450268Y-127977285D01*
X87601538Y-128115186D01*
X87775573Y-128222944D01*
X87966444Y-128296888D01*
X88167653Y-128334500D01*
X88372347Y-128334500D01*
X88573556Y-128296888D01*
X88764427Y-128222944D01*
X88938462Y-128115186D01*
X89089732Y-127977285D01*
X89213088Y-127813935D01*
X89304328Y-127630701D01*
X89360345Y-127433821D01*
X89379232Y-127230000D01*
X89360345Y-127026179D01*
X89347206Y-126980000D01*
X89733314Y-126980000D01*
X90376988Y-126980000D01*
X90344075Y-127037007D01*
X90310000Y-127164174D01*
X90310000Y-127295826D01*
X90344075Y-127422993D01*
X90376988Y-127480000D01*
X89733314Y-127480000D01*
X89776141Y-127630521D01*
X89867335Y-127813663D01*
X89867340Y-127813672D01*
X89990640Y-127976947D01*
X90141843Y-128114787D01*
X90315794Y-128222492D01*
X90315796Y-128222493D01*
X90506584Y-128296405D01*
X90559999Y-128306390D01*
X90560000Y-128306390D01*
X90560000Y-127663012D01*
X90617007Y-127695925D01*
X90744174Y-127730000D01*
X90875826Y-127730000D01*
X91002993Y-127695925D01*
X91060000Y-127663012D01*
X91060000Y-128306390D01*
X91113415Y-128296405D01*
X91304203Y-128222493D01*
X91304205Y-128222492D01*
X91478156Y-128114787D01*
X91629359Y-127976947D01*
X91752659Y-127813672D01*
X91752664Y-127813663D01*
X91843858Y-127630521D01*
X91886686Y-127480000D01*
X91243012Y-127480000D01*
X91275925Y-127422993D01*
X91310000Y-127295826D01*
X91310000Y-127230000D01*
X92240768Y-127230000D01*
X92259655Y-127433821D01*
X92315672Y-127630701D01*
X92406912Y-127813935D01*
X92530268Y-127977285D01*
X92681538Y-128115186D01*
X92855573Y-128222944D01*
X93046444Y-128296888D01*
X93247653Y-128334500D01*
X93452347Y-128334500D01*
X93653556Y-128296888D01*
X93844427Y-128222944D01*
X94018462Y-128115186D01*
X94169732Y-127977285D01*
X94293088Y-127813935D01*
X94384328Y-127630701D01*
X94440345Y-127433821D01*
X94459232Y-127230000D01*
X94780768Y-127230000D01*
X94799655Y-127433821D01*
X94855672Y-127630701D01*
X94946912Y-127813935D01*
X95070268Y-127977285D01*
X95221538Y-128115186D01*
X95395573Y-128222944D01*
X95586444Y-128296888D01*
X95787653Y-128334500D01*
X95992347Y-128334500D01*
X96193556Y-128296888D01*
X96384427Y-128222944D01*
X96558462Y-128115186D01*
X96709732Y-127977285D01*
X96833088Y-127813935D01*
X96924328Y-127630701D01*
X96980345Y-127433821D01*
X96999232Y-127230000D01*
X97320768Y-127230000D01*
X97339655Y-127433821D01*
X97395672Y-127630701D01*
X97486912Y-127813935D01*
X97610268Y-127977285D01*
X97761538Y-128115186D01*
X97935573Y-128222944D01*
X98126444Y-128296888D01*
X98327653Y-128334500D01*
X98532347Y-128334500D01*
X98733556Y-128296888D01*
X98924427Y-128222944D01*
X99098462Y-128115186D01*
X99249732Y-127977285D01*
X99373088Y-127813935D01*
X99464328Y-127630701D01*
X99520345Y-127433821D01*
X99539232Y-127230000D01*
X99860768Y-127230000D01*
X99879655Y-127433821D01*
X99935672Y-127630701D01*
X100026912Y-127813935D01*
X100150268Y-127977285D01*
X100301538Y-128115186D01*
X100475573Y-128222944D01*
X100666444Y-128296888D01*
X100867653Y-128334500D01*
X101072347Y-128334500D01*
X101273556Y-128296888D01*
X101464427Y-128222944D01*
X101638462Y-128115186D01*
X101789732Y-127977285D01*
X101913088Y-127813935D01*
X102004328Y-127630701D01*
X102060345Y-127433821D01*
X102079232Y-127230000D01*
X102060345Y-127026179D01*
X102047206Y-126980000D01*
X102433314Y-126980000D01*
X103076988Y-126980000D01*
X103044075Y-127037007D01*
X103010000Y-127164174D01*
X103010000Y-127295826D01*
X103044075Y-127422993D01*
X103076988Y-127480000D01*
X102433314Y-127480000D01*
X102476141Y-127630521D01*
X102567335Y-127813663D01*
X102567340Y-127813672D01*
X102690640Y-127976947D01*
X102841843Y-128114787D01*
X103015794Y-128222492D01*
X103015796Y-128222493D01*
X103206584Y-128296405D01*
X103260000Y-128306390D01*
X103260000Y-127663012D01*
X103317007Y-127695925D01*
X103444174Y-127730000D01*
X103575826Y-127730000D01*
X103702993Y-127695925D01*
X103760000Y-127663012D01*
X103760000Y-128306390D01*
X103813415Y-128296405D01*
X104004203Y-128222493D01*
X104004205Y-128222492D01*
X104178156Y-128114787D01*
X104329359Y-127976947D01*
X104452659Y-127813672D01*
X104452664Y-127813663D01*
X104543858Y-127630521D01*
X104586686Y-127480000D01*
X103943012Y-127480000D01*
X103975925Y-127422993D01*
X104010000Y-127295826D01*
X104010000Y-127230000D01*
X104940768Y-127230000D01*
X104959655Y-127433821D01*
X105015672Y-127630701D01*
X105106912Y-127813935D01*
X105230268Y-127977285D01*
X105381538Y-128115186D01*
X105555573Y-128222944D01*
X105746444Y-128296888D01*
X105947653Y-128334500D01*
X106152347Y-128334500D01*
X106353556Y-128296888D01*
X106544427Y-128222944D01*
X106718462Y-128115186D01*
X106869732Y-127977285D01*
X106993088Y-127813935D01*
X107084328Y-127630701D01*
X107140345Y-127433821D01*
X107159232Y-127230000D01*
X107480768Y-127230000D01*
X107499655Y-127433821D01*
X107555672Y-127630701D01*
X107646912Y-127813935D01*
X107770268Y-127977285D01*
X107921538Y-128115186D01*
X108095573Y-128222944D01*
X108286444Y-128296888D01*
X108487653Y-128334500D01*
X108692347Y-128334500D01*
X108893556Y-128296888D01*
X109084427Y-128222944D01*
X109258462Y-128115186D01*
X109409732Y-127977285D01*
X109533088Y-127813935D01*
X109624328Y-127630701D01*
X109680345Y-127433821D01*
X109699232Y-127230000D01*
X110020768Y-127230000D01*
X110039655Y-127433821D01*
X110095672Y-127630701D01*
X110186912Y-127813935D01*
X110310268Y-127977285D01*
X110461538Y-128115186D01*
X110635573Y-128222944D01*
X110826444Y-128296888D01*
X111027653Y-128334500D01*
X111232347Y-128334500D01*
X111433556Y-128296888D01*
X111624427Y-128222944D01*
X111798462Y-128115186D01*
X111949732Y-127977285D01*
X112073088Y-127813935D01*
X112164328Y-127630701D01*
X112220345Y-127433821D01*
X112239232Y-127230000D01*
X112560768Y-127230000D01*
X112579655Y-127433821D01*
X112635672Y-127630701D01*
X112726912Y-127813935D01*
X112850268Y-127977285D01*
X113001538Y-128115186D01*
X113175573Y-128222944D01*
X113366444Y-128296888D01*
X113567653Y-128334500D01*
X113772347Y-128334500D01*
X113973556Y-128296888D01*
X114164427Y-128222944D01*
X114338462Y-128115186D01*
X114489732Y-127977285D01*
X114613088Y-127813935D01*
X114704328Y-127630701D01*
X114760345Y-127433821D01*
X114779232Y-127230000D01*
X114760345Y-127026179D01*
X114747206Y-126980000D01*
X115133314Y-126980000D01*
X115776988Y-126980000D01*
X115744075Y-127037007D01*
X115710000Y-127164174D01*
X115710000Y-127295826D01*
X115744075Y-127422993D01*
X115776988Y-127480000D01*
X115133314Y-127480000D01*
X115176141Y-127630521D01*
X115267335Y-127813663D01*
X115267340Y-127813672D01*
X115390640Y-127976947D01*
X115541843Y-128114787D01*
X115715794Y-128222492D01*
X115715796Y-128222493D01*
X115906584Y-128296405D01*
X115959999Y-128306390D01*
X115960000Y-128306390D01*
X115960000Y-127663012D01*
X116017007Y-127695925D01*
X116144174Y-127730000D01*
X116275826Y-127730000D01*
X116402993Y-127695925D01*
X116460000Y-127663012D01*
X116460000Y-128306390D01*
X116513415Y-128296405D01*
X116704203Y-128222493D01*
X116704205Y-128222492D01*
X116878156Y-128114787D01*
X117029359Y-127976947D01*
X117152659Y-127813672D01*
X117152664Y-127813663D01*
X117243858Y-127630521D01*
X117286686Y-127480000D01*
X116643012Y-127480000D01*
X116675925Y-127422993D01*
X116710000Y-127295826D01*
X116710000Y-127230000D01*
X117640768Y-127230000D01*
X117659655Y-127433821D01*
X117715672Y-127630701D01*
X117806912Y-127813935D01*
X117930268Y-127977285D01*
X118081538Y-128115186D01*
X118255573Y-128222944D01*
X118446444Y-128296888D01*
X118647653Y-128334500D01*
X118852347Y-128334500D01*
X119053556Y-128296888D01*
X119244427Y-128222944D01*
X119418462Y-128115186D01*
X119569732Y-127977285D01*
X119693088Y-127813935D01*
X119784328Y-127630701D01*
X119840345Y-127433821D01*
X119859232Y-127230000D01*
X120180768Y-127230000D01*
X120199655Y-127433821D01*
X120255672Y-127630701D01*
X120346912Y-127813935D01*
X120470268Y-127977285D01*
X120621538Y-128115186D01*
X120795573Y-128222944D01*
X120986444Y-128296888D01*
X121187653Y-128334500D01*
X121392347Y-128334500D01*
X121593556Y-128296888D01*
X121784427Y-128222944D01*
X121958462Y-128115186D01*
X122109732Y-127977285D01*
X122233088Y-127813935D01*
X122324328Y-127630701D01*
X122380345Y-127433821D01*
X122399232Y-127230000D01*
X122720768Y-127230000D01*
X122739655Y-127433821D01*
X122795672Y-127630701D01*
X122886912Y-127813935D01*
X123010268Y-127977285D01*
X123161538Y-128115186D01*
X123335573Y-128222944D01*
X123526444Y-128296888D01*
X123727653Y-128334500D01*
X123932347Y-128334500D01*
X124133556Y-128296888D01*
X124324427Y-128222944D01*
X124498462Y-128115186D01*
X124649732Y-127977285D01*
X124773088Y-127813935D01*
X124864328Y-127630701D01*
X124920345Y-127433821D01*
X124939232Y-127230000D01*
X125260768Y-127230000D01*
X125279655Y-127433821D01*
X125335672Y-127630701D01*
X125426912Y-127813935D01*
X125550268Y-127977285D01*
X125701538Y-128115186D01*
X125875573Y-128222944D01*
X126066444Y-128296888D01*
X126267653Y-128334500D01*
X126472347Y-128334500D01*
X126673556Y-128296888D01*
X126864427Y-128222944D01*
X127038462Y-128115186D01*
X127189732Y-127977285D01*
X127313088Y-127813935D01*
X127404328Y-127630701D01*
X127460345Y-127433821D01*
X127479232Y-127230000D01*
X127460345Y-127026179D01*
X127447206Y-126980000D01*
X127833314Y-126980000D01*
X128476988Y-126980000D01*
X128444075Y-127037007D01*
X128410000Y-127164174D01*
X128410000Y-127295826D01*
X128444075Y-127422993D01*
X128476988Y-127480000D01*
X127833314Y-127480000D01*
X127876141Y-127630521D01*
X127967335Y-127813663D01*
X127967340Y-127813672D01*
X128090640Y-127976947D01*
X128241843Y-128114787D01*
X128415794Y-128222492D01*
X128415796Y-128222493D01*
X128606584Y-128296405D01*
X128659999Y-128306390D01*
X128660000Y-128306390D01*
X128660000Y-127663012D01*
X128717007Y-127695925D01*
X128844174Y-127730000D01*
X128975826Y-127730000D01*
X129102993Y-127695925D01*
X129160000Y-127663012D01*
X129160000Y-128306390D01*
X129213415Y-128296405D01*
X129404203Y-128222493D01*
X129404205Y-128222492D01*
X129578156Y-128114787D01*
X129729359Y-127976947D01*
X129852659Y-127813672D01*
X129852664Y-127813663D01*
X129943858Y-127630521D01*
X129986686Y-127480000D01*
X129343012Y-127480000D01*
X129375925Y-127422993D01*
X129410000Y-127295826D01*
X129410000Y-127230000D01*
X130340768Y-127230000D01*
X130359655Y-127433821D01*
X130415672Y-127630701D01*
X130506912Y-127813935D01*
X130630268Y-127977285D01*
X130781538Y-128115186D01*
X130955573Y-128222944D01*
X131146444Y-128296888D01*
X131347653Y-128334500D01*
X131552347Y-128334500D01*
X131753556Y-128296888D01*
X131944427Y-128222944D01*
X132118462Y-128115186D01*
X132269732Y-127977285D01*
X132393088Y-127813935D01*
X132484328Y-127630701D01*
X132540345Y-127433821D01*
X132559232Y-127230000D01*
X132880768Y-127230000D01*
X132899655Y-127433821D01*
X132955672Y-127630701D01*
X133046912Y-127813935D01*
X133170268Y-127977285D01*
X133321538Y-128115186D01*
X133495573Y-128222944D01*
X133686444Y-128296888D01*
X133887653Y-128334500D01*
X134092347Y-128334500D01*
X134293556Y-128296888D01*
X134484427Y-128222944D01*
X134658462Y-128115186D01*
X134809732Y-127977285D01*
X134933088Y-127813935D01*
X135024328Y-127630701D01*
X135080345Y-127433821D01*
X135099232Y-127230000D01*
X135080345Y-127026179D01*
X135024328Y-126829299D01*
X134933088Y-126646065D01*
X134809732Y-126482715D01*
X134658462Y-126344814D01*
X134506006Y-126250417D01*
X134484432Y-126237059D01*
X134484427Y-126237056D01*
X134379776Y-126196514D01*
X134293556Y-126163112D01*
X134293555Y-126163111D01*
X134293553Y-126163111D01*
X134092347Y-126125500D01*
X133887653Y-126125500D01*
X133686446Y-126163111D01*
X133495572Y-126237056D01*
X133495567Y-126237059D01*
X133321542Y-126344811D01*
X133321540Y-126344812D01*
X133321538Y-126344814D01*
X133310435Y-126354936D01*
X133170269Y-126482714D01*
X133046913Y-126646063D01*
X133046908Y-126646072D01*
X132955672Y-126829298D01*
X132899655Y-127026177D01*
X132886868Y-127164174D01*
X132880768Y-127230000D01*
X132559232Y-127230000D01*
X132540345Y-127026179D01*
X132484328Y-126829299D01*
X132393088Y-126646065D01*
X132269732Y-126482715D01*
X132118462Y-126344814D01*
X131966006Y-126250417D01*
X131944432Y-126237059D01*
X131944427Y-126237056D01*
X131839776Y-126196514D01*
X131753556Y-126163112D01*
X131753555Y-126163111D01*
X131753553Y-126163111D01*
X131552347Y-126125500D01*
X131347653Y-126125500D01*
X131146446Y-126163111D01*
X130955572Y-126237056D01*
X130955567Y-126237059D01*
X130781542Y-126344811D01*
X130781540Y-126344812D01*
X130781538Y-126344814D01*
X130770435Y-126354936D01*
X130630269Y-126482714D01*
X130506913Y-126646063D01*
X130506908Y-126646072D01*
X130415672Y-126829298D01*
X130359655Y-127026177D01*
X130346868Y-127164174D01*
X130340768Y-127230000D01*
X129410000Y-127230000D01*
X129410000Y-127164174D01*
X129375925Y-127037007D01*
X129343012Y-126980000D01*
X129986686Y-126980000D01*
X129943858Y-126829478D01*
X129852664Y-126646336D01*
X129852659Y-126646327D01*
X129729359Y-126483052D01*
X129578156Y-126345212D01*
X129404205Y-126237507D01*
X129404203Y-126237506D01*
X129213418Y-126163595D01*
X129213412Y-126163593D01*
X129160000Y-126153609D01*
X129160000Y-126796988D01*
X129102993Y-126764075D01*
X128975826Y-126730000D01*
X128844174Y-126730000D01*
X128717007Y-126764075D01*
X128660000Y-126796988D01*
X128660000Y-126153609D01*
X128659999Y-126153609D01*
X128606587Y-126163593D01*
X128606581Y-126163595D01*
X128415796Y-126237506D01*
X128415794Y-126237507D01*
X128241843Y-126345212D01*
X128090640Y-126483052D01*
X127967340Y-126646327D01*
X127967335Y-126646336D01*
X127876141Y-126829478D01*
X127833314Y-126980000D01*
X127447206Y-126980000D01*
X127404328Y-126829299D01*
X127313088Y-126646065D01*
X127189732Y-126482715D01*
X127038462Y-126344814D01*
X126886006Y-126250417D01*
X126864432Y-126237059D01*
X126864427Y-126237056D01*
X126759776Y-126196514D01*
X126673556Y-126163112D01*
X126673555Y-126163111D01*
X126673553Y-126163111D01*
X126472347Y-126125500D01*
X126267653Y-126125500D01*
X126066446Y-126163111D01*
X125875572Y-126237056D01*
X125875567Y-126237059D01*
X125701542Y-126344811D01*
X125701540Y-126344812D01*
X125701538Y-126344814D01*
X125690435Y-126354936D01*
X125550269Y-126482714D01*
X125426913Y-126646063D01*
X125426908Y-126646072D01*
X125335672Y-126829298D01*
X125279655Y-127026177D01*
X125266868Y-127164174D01*
X125260768Y-127230000D01*
X124939232Y-127230000D01*
X124920345Y-127026179D01*
X124864328Y-126829299D01*
X124773088Y-126646065D01*
X124649732Y-126482715D01*
X124498462Y-126344814D01*
X124346006Y-126250417D01*
X124324432Y-126237059D01*
X124324427Y-126237056D01*
X124219776Y-126196514D01*
X124133556Y-126163112D01*
X124133555Y-126163111D01*
X124133553Y-126163111D01*
X123932347Y-126125500D01*
X123727653Y-126125500D01*
X123526446Y-126163111D01*
X123335572Y-126237056D01*
X123335567Y-126237059D01*
X123161542Y-126344811D01*
X123161540Y-126344812D01*
X123161538Y-126344814D01*
X123150435Y-126354936D01*
X123010269Y-126482714D01*
X122886913Y-126646063D01*
X122886908Y-126646072D01*
X122795672Y-126829298D01*
X122739655Y-127026177D01*
X122726868Y-127164174D01*
X122720768Y-127230000D01*
X122399232Y-127230000D01*
X122380345Y-127026179D01*
X122324328Y-126829299D01*
X122233088Y-126646065D01*
X122109732Y-126482715D01*
X121958462Y-126344814D01*
X121806006Y-126250417D01*
X121784432Y-126237059D01*
X121784427Y-126237056D01*
X121679776Y-126196514D01*
X121593556Y-126163112D01*
X121593555Y-126163111D01*
X121593553Y-126163111D01*
X121392347Y-126125500D01*
X121187653Y-126125500D01*
X120986446Y-126163111D01*
X120795572Y-126237056D01*
X120795567Y-126237059D01*
X120621542Y-126344811D01*
X120621540Y-126344812D01*
X120621538Y-126344814D01*
X120610435Y-126354936D01*
X120470269Y-126482714D01*
X120346913Y-126646063D01*
X120346908Y-126646072D01*
X120255672Y-126829298D01*
X120199655Y-127026177D01*
X120186868Y-127164174D01*
X120180768Y-127230000D01*
X119859232Y-127230000D01*
X119840345Y-127026179D01*
X119784328Y-126829299D01*
X119693088Y-126646065D01*
X119569732Y-126482715D01*
X119418462Y-126344814D01*
X119266006Y-126250417D01*
X119244432Y-126237059D01*
X119244427Y-126237056D01*
X119139776Y-126196514D01*
X119053556Y-126163112D01*
X119053555Y-126163111D01*
X119053553Y-126163111D01*
X118852347Y-126125500D01*
X118647653Y-126125500D01*
X118446446Y-126163111D01*
X118255572Y-126237056D01*
X118255567Y-126237059D01*
X118081542Y-126344811D01*
X118081540Y-126344812D01*
X118081538Y-126344814D01*
X118070435Y-126354936D01*
X117930269Y-126482714D01*
X117806913Y-126646063D01*
X117806908Y-126646072D01*
X117715672Y-126829298D01*
X117659655Y-127026177D01*
X117646868Y-127164174D01*
X117640768Y-127230000D01*
X116710000Y-127230000D01*
X116710000Y-127164174D01*
X116675925Y-127037007D01*
X116643012Y-126980000D01*
X117286686Y-126980000D01*
X117243858Y-126829478D01*
X117152664Y-126646336D01*
X117152659Y-126646327D01*
X117029359Y-126483052D01*
X116878156Y-126345212D01*
X116704205Y-126237507D01*
X116704203Y-126237506D01*
X116513418Y-126163595D01*
X116513412Y-126163593D01*
X116460000Y-126153609D01*
X116460000Y-126796988D01*
X116402993Y-126764075D01*
X116275826Y-126730000D01*
X116144174Y-126730000D01*
X116017007Y-126764075D01*
X115960000Y-126796988D01*
X115960000Y-126153609D01*
X115959999Y-126153609D01*
X115906587Y-126163593D01*
X115906581Y-126163595D01*
X115715796Y-126237506D01*
X115715794Y-126237507D01*
X115541843Y-126345212D01*
X115390640Y-126483052D01*
X115267340Y-126646327D01*
X115267335Y-126646336D01*
X115176141Y-126829478D01*
X115133314Y-126980000D01*
X114747206Y-126980000D01*
X114704328Y-126829299D01*
X114613088Y-126646065D01*
X114489732Y-126482715D01*
X114338462Y-126344814D01*
X114186006Y-126250417D01*
X114164432Y-126237059D01*
X114164427Y-126237056D01*
X114059776Y-126196514D01*
X113973556Y-126163112D01*
X113973555Y-126163111D01*
X113973553Y-126163111D01*
X113772347Y-126125500D01*
X113567653Y-126125500D01*
X113366446Y-126163111D01*
X113175572Y-126237056D01*
X113175567Y-126237059D01*
X113001542Y-126344811D01*
X113001540Y-126344812D01*
X113001538Y-126344814D01*
X112990435Y-126354936D01*
X112850269Y-126482714D01*
X112726913Y-126646063D01*
X112726908Y-126646072D01*
X112635672Y-126829298D01*
X112579655Y-127026177D01*
X112566868Y-127164174D01*
X112560768Y-127230000D01*
X112239232Y-127230000D01*
X112220345Y-127026179D01*
X112164328Y-126829299D01*
X112073088Y-126646065D01*
X111949732Y-126482715D01*
X111798462Y-126344814D01*
X111646006Y-126250417D01*
X111624432Y-126237059D01*
X111624427Y-126237056D01*
X111519776Y-126196514D01*
X111433556Y-126163112D01*
X111433555Y-126163111D01*
X111433553Y-126163111D01*
X111232347Y-126125500D01*
X111027653Y-126125500D01*
X110826446Y-126163111D01*
X110635572Y-126237056D01*
X110635567Y-126237059D01*
X110461542Y-126344811D01*
X110461540Y-126344812D01*
X110461538Y-126344814D01*
X110450435Y-126354936D01*
X110310269Y-126482714D01*
X110186913Y-126646063D01*
X110186908Y-126646072D01*
X110095672Y-126829298D01*
X110039655Y-127026177D01*
X110026868Y-127164174D01*
X110020768Y-127230000D01*
X109699232Y-127230000D01*
X109680345Y-127026179D01*
X109624328Y-126829299D01*
X109533088Y-126646065D01*
X109409732Y-126482715D01*
X109258462Y-126344814D01*
X109106006Y-126250417D01*
X109084432Y-126237059D01*
X109084427Y-126237056D01*
X108979776Y-126196514D01*
X108893556Y-126163112D01*
X108893555Y-126163111D01*
X108893553Y-126163111D01*
X108692347Y-126125500D01*
X108487653Y-126125500D01*
X108286446Y-126163111D01*
X108095572Y-126237056D01*
X108095567Y-126237059D01*
X107921542Y-126344811D01*
X107921540Y-126344812D01*
X107921538Y-126344814D01*
X107910435Y-126354936D01*
X107770269Y-126482714D01*
X107646913Y-126646063D01*
X107646908Y-126646072D01*
X107555672Y-126829298D01*
X107499655Y-127026177D01*
X107486868Y-127164174D01*
X107480768Y-127230000D01*
X107159232Y-127230000D01*
X107140345Y-127026179D01*
X107084328Y-126829299D01*
X106993088Y-126646065D01*
X106869732Y-126482715D01*
X106718462Y-126344814D01*
X106566006Y-126250417D01*
X106544432Y-126237059D01*
X106544427Y-126237056D01*
X106439776Y-126196514D01*
X106353556Y-126163112D01*
X106353555Y-126163111D01*
X106353553Y-126163111D01*
X106152347Y-126125500D01*
X105947653Y-126125500D01*
X105746446Y-126163111D01*
X105555572Y-126237056D01*
X105555567Y-126237059D01*
X105381542Y-126344811D01*
X105381540Y-126344812D01*
X105381538Y-126344814D01*
X105370435Y-126354936D01*
X105230269Y-126482714D01*
X105106913Y-126646063D01*
X105106908Y-126646072D01*
X105015672Y-126829298D01*
X104959655Y-127026177D01*
X104946868Y-127164174D01*
X104940768Y-127230000D01*
X104010000Y-127230000D01*
X104010000Y-127164174D01*
X103975925Y-127037007D01*
X103943012Y-126980000D01*
X104586686Y-126980000D01*
X104543858Y-126829478D01*
X104452664Y-126646336D01*
X104452659Y-126646327D01*
X104329359Y-126483052D01*
X104178156Y-126345212D01*
X104004205Y-126237507D01*
X104004203Y-126237506D01*
X103813418Y-126163595D01*
X103813412Y-126163593D01*
X103760000Y-126153609D01*
X103760000Y-126796988D01*
X103702993Y-126764075D01*
X103575826Y-126730000D01*
X103444174Y-126730000D01*
X103317007Y-126764075D01*
X103260000Y-126796988D01*
X103260000Y-126153609D01*
X103259999Y-126153609D01*
X103206587Y-126163593D01*
X103206581Y-126163595D01*
X103015796Y-126237506D01*
X103015794Y-126237507D01*
X102841843Y-126345212D01*
X102690640Y-126483052D01*
X102567340Y-126646327D01*
X102567335Y-126646336D01*
X102476141Y-126829478D01*
X102433314Y-126980000D01*
X102047206Y-126980000D01*
X102004328Y-126829299D01*
X101913088Y-126646065D01*
X101789732Y-126482715D01*
X101638462Y-126344814D01*
X101486006Y-126250417D01*
X101464432Y-126237059D01*
X101464427Y-126237056D01*
X101359776Y-126196514D01*
X101273556Y-126163112D01*
X101273555Y-126163111D01*
X101273553Y-126163111D01*
X101072347Y-126125500D01*
X100867653Y-126125500D01*
X100666446Y-126163111D01*
X100475572Y-126237056D01*
X100475567Y-126237059D01*
X100301542Y-126344811D01*
X100301540Y-126344812D01*
X100301538Y-126344814D01*
X100290435Y-126354936D01*
X100150269Y-126482714D01*
X100026913Y-126646063D01*
X100026908Y-126646072D01*
X99935672Y-126829298D01*
X99879655Y-127026177D01*
X99866868Y-127164174D01*
X99860768Y-127230000D01*
X99539232Y-127230000D01*
X99520345Y-127026179D01*
X99464328Y-126829299D01*
X99373088Y-126646065D01*
X99249732Y-126482715D01*
X99098462Y-126344814D01*
X98946006Y-126250417D01*
X98924432Y-126237059D01*
X98924427Y-126237056D01*
X98819776Y-126196514D01*
X98733556Y-126163112D01*
X98733555Y-126163111D01*
X98733553Y-126163111D01*
X98532347Y-126125500D01*
X98327653Y-126125500D01*
X98126446Y-126163111D01*
X97935572Y-126237056D01*
X97935567Y-126237059D01*
X97761542Y-126344811D01*
X97761540Y-126344812D01*
X97761538Y-126344814D01*
X97750435Y-126354936D01*
X97610269Y-126482714D01*
X97486913Y-126646063D01*
X97486908Y-126646072D01*
X97395672Y-126829298D01*
X97339655Y-127026177D01*
X97326868Y-127164174D01*
X97320768Y-127230000D01*
X96999232Y-127230000D01*
X96980345Y-127026179D01*
X96924328Y-126829299D01*
X96833088Y-126646065D01*
X96709732Y-126482715D01*
X96558462Y-126344814D01*
X96406006Y-126250417D01*
X96384432Y-126237059D01*
X96384427Y-126237056D01*
X96279776Y-126196514D01*
X96193556Y-126163112D01*
X96193555Y-126163111D01*
X96193553Y-126163111D01*
X95992347Y-126125500D01*
X95787653Y-126125500D01*
X95586446Y-126163111D01*
X95395572Y-126237056D01*
X95395567Y-126237059D01*
X95221542Y-126344811D01*
X95221540Y-126344812D01*
X95221538Y-126344814D01*
X95210435Y-126354936D01*
X95070269Y-126482714D01*
X94946913Y-126646063D01*
X94946908Y-126646072D01*
X94855672Y-126829298D01*
X94799655Y-127026177D01*
X94786868Y-127164174D01*
X94780768Y-127230000D01*
X94459232Y-127230000D01*
X94440345Y-127026179D01*
X94384328Y-126829299D01*
X94293088Y-126646065D01*
X94169732Y-126482715D01*
X94018462Y-126344814D01*
X93866006Y-126250417D01*
X93844432Y-126237059D01*
X93844427Y-126237056D01*
X93739776Y-126196514D01*
X93653556Y-126163112D01*
X93653555Y-126163111D01*
X93653553Y-126163111D01*
X93452347Y-126125500D01*
X93247653Y-126125500D01*
X93046446Y-126163111D01*
X92855572Y-126237056D01*
X92855567Y-126237059D01*
X92681542Y-126344811D01*
X92681540Y-126344812D01*
X92681538Y-126344814D01*
X92670435Y-126354936D01*
X92530269Y-126482714D01*
X92406913Y-126646063D01*
X92406908Y-126646072D01*
X92315672Y-126829298D01*
X92259655Y-127026177D01*
X92246868Y-127164174D01*
X92240768Y-127230000D01*
X91310000Y-127230000D01*
X91310000Y-127164174D01*
X91275925Y-127037007D01*
X91243012Y-126980000D01*
X91886686Y-126980000D01*
X91843858Y-126829478D01*
X91752664Y-126646336D01*
X91752659Y-126646327D01*
X91629359Y-126483052D01*
X91478156Y-126345212D01*
X91304205Y-126237507D01*
X91304203Y-126237506D01*
X91113418Y-126163595D01*
X91113412Y-126163593D01*
X91060000Y-126153609D01*
X91060000Y-126796988D01*
X91002993Y-126764075D01*
X90875826Y-126730000D01*
X90744174Y-126730000D01*
X90617007Y-126764075D01*
X90560000Y-126796988D01*
X90560000Y-126153609D01*
X90559999Y-126153609D01*
X90506587Y-126163593D01*
X90506581Y-126163595D01*
X90315796Y-126237506D01*
X90315794Y-126237507D01*
X90141843Y-126345212D01*
X89990640Y-126483052D01*
X89867340Y-126646327D01*
X89867335Y-126646336D01*
X89776141Y-126829478D01*
X89733314Y-126980000D01*
X89347206Y-126980000D01*
X89304328Y-126829299D01*
X89213088Y-126646065D01*
X89089732Y-126482715D01*
X88938462Y-126344814D01*
X88786006Y-126250417D01*
X88764432Y-126237059D01*
X88764427Y-126237056D01*
X88659776Y-126196514D01*
X88573556Y-126163112D01*
X88573555Y-126163111D01*
X88573553Y-126163111D01*
X88372347Y-126125500D01*
X88167653Y-126125500D01*
X87966446Y-126163111D01*
X87775572Y-126237056D01*
X87775567Y-126237059D01*
X87601542Y-126344811D01*
X87601540Y-126344812D01*
X87601538Y-126344814D01*
X87590435Y-126354936D01*
X87450269Y-126482714D01*
X87326913Y-126646063D01*
X87326908Y-126646072D01*
X87235672Y-126829298D01*
X87179655Y-127026177D01*
X87166868Y-127164174D01*
X87160768Y-127230000D01*
X86834499Y-127230000D01*
X86834499Y-126354934D01*
X86819734Y-126280699D01*
X86763484Y-126196516D01*
X86679301Y-126140266D01*
X86605067Y-126125500D01*
X86605066Y-126125500D01*
X84888770Y-126125500D01*
X84830579Y-126106593D01*
X84794615Y-126057093D01*
X84789771Y-126026763D01*
X84778715Y-121764933D01*
X85190500Y-121764933D01*
X85190500Y-123515063D01*
X85190501Y-123515070D01*
X85205265Y-123589300D01*
X85205266Y-123589302D01*
X85261513Y-123673480D01*
X85261516Y-123673484D01*
X85345699Y-123729734D01*
X85419933Y-123744500D01*
X87170066Y-123744499D01*
X87244301Y-123729734D01*
X87328484Y-123673484D01*
X87384734Y-123589301D01*
X87399500Y-123515067D01*
X87399499Y-122640000D01*
X87725768Y-122640000D01*
X87744655Y-122843821D01*
X87800672Y-123040701D01*
X87891912Y-123223935D01*
X88015268Y-123387285D01*
X88166538Y-123525186D01*
X88340573Y-123632944D01*
X88531444Y-123706888D01*
X88732653Y-123744500D01*
X88937347Y-123744500D01*
X89138556Y-123706888D01*
X89329427Y-123632944D01*
X89503462Y-123525186D01*
X89654732Y-123387285D01*
X89778088Y-123223935D01*
X89869328Y-123040701D01*
X89925345Y-122843821D01*
X89944232Y-122640000D01*
X89941915Y-122614999D01*
X95055715Y-122614999D01*
X95055715Y-122615000D01*
X95074772Y-122759754D01*
X95130645Y-122894643D01*
X95219526Y-123010474D01*
X95335357Y-123099355D01*
X95470246Y-123155228D01*
X95578811Y-123169520D01*
X95614999Y-123174285D01*
X95615000Y-123174285D01*
X95615001Y-123174285D01*
X95643950Y-123170473D01*
X95759754Y-123155228D01*
X95894643Y-123099355D01*
X96010474Y-123010474D01*
X96099355Y-122894643D01*
X96155228Y-122759754D01*
X96174285Y-122615000D01*
X96155228Y-122470246D01*
X96099355Y-122335358D01*
X96010474Y-122219526D01*
X96010472Y-122219525D01*
X96010472Y-122219524D01*
X95956572Y-122178165D01*
X95894643Y-122130645D01*
X95759754Y-122074772D01*
X95759752Y-122074771D01*
X95759750Y-122074771D01*
X95615001Y-122055715D01*
X95614999Y-122055715D01*
X95470249Y-122074771D01*
X95470244Y-122074773D01*
X95335359Y-122130644D01*
X95219527Y-122219525D01*
X95219525Y-122219527D01*
X95130644Y-122335359D01*
X95074773Y-122470244D01*
X95074771Y-122470249D01*
X95055715Y-122614999D01*
X89941915Y-122614999D01*
X89925345Y-122436179D01*
X89869328Y-122239299D01*
X89778088Y-122056065D01*
X89654732Y-121892715D01*
X89503462Y-121754814D01*
X89329427Y-121647056D01*
X89138556Y-121573112D01*
X89138555Y-121573111D01*
X89138553Y-121573111D01*
X88937347Y-121535500D01*
X88732653Y-121535500D01*
X88531446Y-121573111D01*
X88340572Y-121647056D01*
X88340567Y-121647059D01*
X88166542Y-121754811D01*
X88166540Y-121754812D01*
X88166538Y-121754814D01*
X88155435Y-121764936D01*
X88015269Y-121892714D01*
X87891913Y-122056063D01*
X87891908Y-122056072D01*
X87800672Y-122239298D01*
X87744655Y-122436177D01*
X87744655Y-122436179D01*
X87725768Y-122640000D01*
X87399499Y-122640000D01*
X87399499Y-121764934D01*
X87384734Y-121690699D01*
X87384733Y-121690697D01*
X87328486Y-121606519D01*
X87328485Y-121606518D01*
X87328484Y-121606516D01*
X87244301Y-121550266D01*
X87170067Y-121535500D01*
X87170066Y-121535500D01*
X85419936Y-121535500D01*
X85419929Y-121535501D01*
X85345699Y-121550265D01*
X85345697Y-121550266D01*
X85261519Y-121606513D01*
X85261514Y-121606518D01*
X85234428Y-121647056D01*
X85205266Y-121690699D01*
X85192513Y-121754811D01*
X85190500Y-121764933D01*
X84778715Y-121764933D01*
X84762074Y-115350000D01*
X87231195Y-115350000D01*
X87250385Y-115593849D01*
X87307488Y-115831698D01*
X87401093Y-116057680D01*
X87401094Y-116057682D01*
X87525594Y-116260849D01*
X88188957Y-115597485D01*
X88213978Y-115657890D01*
X88285112Y-115764351D01*
X88375649Y-115854888D01*
X88482110Y-115926022D01*
X88542511Y-115951041D01*
X87879149Y-116614404D01*
X88082303Y-116738897D01*
X88082313Y-116738902D01*
X88308301Y-116832511D01*
X88308300Y-116832511D01*
X88546150Y-116889614D01*
X88790000Y-116908804D01*
X89033849Y-116889614D01*
X89271698Y-116832511D01*
X89497686Y-116738902D01*
X89497696Y-116738897D01*
X89528539Y-116719996D01*
X105411287Y-116719996D01*
X105411287Y-116720003D01*
X105430091Y-116910932D01*
X105430092Y-116910937D01*
X105485787Y-117094537D01*
X105485789Y-117094542D01*
X105547134Y-117209310D01*
X105990000Y-116766444D01*
X105990000Y-116772661D01*
X106017259Y-116874394D01*
X106069920Y-116965606D01*
X106144394Y-117040080D01*
X106235606Y-117092741D01*
X106337339Y-117120000D01*
X106343552Y-117120000D01*
X105900688Y-117562864D01*
X106015462Y-117624212D01*
X106199062Y-117679907D01*
X106199067Y-117679908D01*
X106389997Y-117698713D01*
X106390003Y-117698713D01*
X106580932Y-117679908D01*
X106580937Y-117679907D01*
X106764537Y-117624212D01*
X106879310Y-117562864D01*
X106436446Y-117120000D01*
X106442661Y-117120000D01*
X106544394Y-117092741D01*
X106635606Y-117040080D01*
X106710080Y-116965606D01*
X106762741Y-116874394D01*
X106790000Y-116772661D01*
X106790000Y-116766446D01*
X107232864Y-117209310D01*
X107294212Y-117094537D01*
X107349907Y-116910937D01*
X107349908Y-116910932D01*
X107368713Y-116720003D01*
X107368713Y-116719996D01*
X107365758Y-116689996D01*
X111101287Y-116689996D01*
X111101287Y-116690003D01*
X111120091Y-116880932D01*
X111120092Y-116880937D01*
X111175787Y-117064537D01*
X111175789Y-117064542D01*
X111237134Y-117179310D01*
X111680000Y-116736444D01*
X111680000Y-116742661D01*
X111707259Y-116844394D01*
X111759920Y-116935606D01*
X111834394Y-117010080D01*
X111925606Y-117062741D01*
X112027339Y-117090000D01*
X112033552Y-117090000D01*
X111590688Y-117532864D01*
X111705462Y-117594212D01*
X111889062Y-117649907D01*
X111889067Y-117649908D01*
X112079997Y-117668713D01*
X112080003Y-117668713D01*
X112270932Y-117649908D01*
X112270937Y-117649907D01*
X112454537Y-117594212D01*
X112569310Y-117532864D01*
X112126446Y-117090000D01*
X112132661Y-117090000D01*
X112234394Y-117062741D01*
X112325606Y-117010080D01*
X112400080Y-116935606D01*
X112452741Y-116844394D01*
X112480000Y-116742661D01*
X112480000Y-116736446D01*
X112922864Y-117179310D01*
X112984212Y-117064537D01*
X113039907Y-116880937D01*
X113039908Y-116880932D01*
X113058713Y-116690003D01*
X113058713Y-116689996D01*
X113039908Y-116499067D01*
X113039907Y-116499062D01*
X112984212Y-116315462D01*
X112922864Y-116200688D01*
X112480000Y-116643552D01*
X112480000Y-116637339D01*
X112452741Y-116535606D01*
X112400080Y-116444394D01*
X112325606Y-116369920D01*
X112234394Y-116317259D01*
X112132661Y-116290000D01*
X112126444Y-116290000D01*
X112569310Y-115847134D01*
X112454542Y-115785789D01*
X112454537Y-115785787D01*
X112270937Y-115730092D01*
X112270932Y-115730091D01*
X112080003Y-115711287D01*
X112079997Y-115711287D01*
X111889067Y-115730091D01*
X111889062Y-115730092D01*
X111705462Y-115785787D01*
X111705457Y-115785789D01*
X111590688Y-115847134D01*
X112033554Y-116290000D01*
X112027339Y-116290000D01*
X111925606Y-116317259D01*
X111834394Y-116369920D01*
X111759920Y-116444394D01*
X111707259Y-116535606D01*
X111680000Y-116637339D01*
X111680000Y-116643554D01*
X111237134Y-116200688D01*
X111175789Y-116315457D01*
X111175787Y-116315462D01*
X111120092Y-116499062D01*
X111120091Y-116499067D01*
X111101287Y-116689996D01*
X107365758Y-116689996D01*
X107349908Y-116529067D01*
X107349907Y-116529062D01*
X107294212Y-116345462D01*
X107232864Y-116230688D01*
X106790000Y-116673552D01*
X106790000Y-116667339D01*
X106762741Y-116565606D01*
X106710080Y-116474394D01*
X106635606Y-116399920D01*
X106544394Y-116347259D01*
X106442661Y-116320000D01*
X106436444Y-116320000D01*
X106879310Y-115877134D01*
X106764542Y-115815789D01*
X106764537Y-115815787D01*
X106580937Y-115760092D01*
X106580932Y-115760091D01*
X106390003Y-115741287D01*
X106389997Y-115741287D01*
X106199067Y-115760091D01*
X106199062Y-115760092D01*
X106015462Y-115815787D01*
X106015457Y-115815789D01*
X105900688Y-115877134D01*
X106343554Y-116320000D01*
X106337339Y-116320000D01*
X106235606Y-116347259D01*
X106144394Y-116399920D01*
X106069920Y-116474394D01*
X106017259Y-116565606D01*
X105990000Y-116667339D01*
X105990000Y-116673554D01*
X105547134Y-116230688D01*
X105485789Y-116345457D01*
X105485787Y-116345462D01*
X105430092Y-116529062D01*
X105430091Y-116529067D01*
X105411287Y-116719996D01*
X89528539Y-116719996D01*
X89700849Y-116614404D01*
X89037487Y-115951042D01*
X89097890Y-115926022D01*
X89204351Y-115854888D01*
X89294888Y-115764351D01*
X89366022Y-115657890D01*
X89391042Y-115597487D01*
X90054404Y-116260849D01*
X90178897Y-116057696D01*
X90178902Y-116057686D01*
X90272511Y-115831698D01*
X90329614Y-115593849D01*
X90348804Y-115350000D01*
X90329614Y-115106150D01*
X90272511Y-114868301D01*
X90178902Y-114642313D01*
X90178897Y-114642303D01*
X90054404Y-114439149D01*
X89391041Y-115102511D01*
X89366022Y-115042110D01*
X89294888Y-114935649D01*
X89204351Y-114845112D01*
X89097890Y-114773978D01*
X89037485Y-114748957D01*
X89606447Y-114179996D01*
X105410785Y-114179996D01*
X105410785Y-114180003D01*
X105429598Y-114371029D01*
X105429599Y-114371035D01*
X105485323Y-114554729D01*
X105485325Y-114554734D01*
X105575807Y-114724015D01*
X105575815Y-114724027D01*
X105697581Y-114872401D01*
X105697598Y-114872418D01*
X105845972Y-114994184D01*
X105845977Y-114994188D01*
X105845982Y-114994190D01*
X105845984Y-114994192D01*
X106015265Y-115084674D01*
X106015271Y-115084677D01*
X106100072Y-115110401D01*
X106198964Y-115140400D01*
X106198970Y-115140401D01*
X106389997Y-115159215D01*
X106390000Y-115159215D01*
X106390003Y-115159215D01*
X106581029Y-115140401D01*
X106581035Y-115140400D01*
X106764729Y-115084677D01*
X106934023Y-114994188D01*
X107013976Y-114928572D01*
X107082401Y-114872418D01*
X107082404Y-114872414D01*
X107082410Y-114872410D01*
X107082414Y-114872404D01*
X107082418Y-114872401D01*
X107203403Y-114724979D01*
X107204188Y-114724023D01*
X107294677Y-114554729D01*
X107350400Y-114371035D01*
X107353356Y-114341029D01*
X107369215Y-114180003D01*
X107369215Y-114179996D01*
X107366260Y-114149996D01*
X111100785Y-114149996D01*
X111100785Y-114150003D01*
X111119598Y-114341029D01*
X111119599Y-114341035D01*
X111175323Y-114524729D01*
X111175325Y-114524734D01*
X111265807Y-114694015D01*
X111265815Y-114694027D01*
X111387581Y-114842401D01*
X111387598Y-114842418D01*
X111501202Y-114935649D01*
X111535977Y-114964188D01*
X111535982Y-114964190D01*
X111535984Y-114964192D01*
X111705265Y-115054674D01*
X111705271Y-115054677D01*
X111804168Y-115084677D01*
X111888964Y-115110400D01*
X111888970Y-115110401D01*
X112079997Y-115129215D01*
X112080000Y-115129215D01*
X112080003Y-115129215D01*
X112271029Y-115110401D01*
X112271035Y-115110400D01*
X112285045Y-115106150D01*
X112454729Y-115054677D01*
X112624023Y-114964188D01*
X112769118Y-114845112D01*
X112772401Y-114842418D01*
X112772404Y-114842414D01*
X112772410Y-114842410D01*
X112772414Y-114842404D01*
X112772418Y-114842401D01*
X112869564Y-114724027D01*
X112894188Y-114694023D01*
X112984677Y-114524729D01*
X113040400Y-114341035D01*
X113056261Y-114180000D01*
X113059215Y-114150003D01*
X113059215Y-114149996D01*
X113040401Y-113958970D01*
X113040400Y-113958964D01*
X113012651Y-113867488D01*
X112984677Y-113775271D01*
X112894188Y-113605977D01*
X112894184Y-113605972D01*
X112772418Y-113457598D01*
X112772401Y-113457581D01*
X112624027Y-113335815D01*
X112624015Y-113335807D01*
X112454734Y-113245325D01*
X112454729Y-113245323D01*
X112271035Y-113189599D01*
X112271029Y-113189598D01*
X112080003Y-113170785D01*
X112079997Y-113170785D01*
X111888970Y-113189598D01*
X111888964Y-113189599D01*
X111705270Y-113245323D01*
X111705265Y-113245325D01*
X111535984Y-113335807D01*
X111535972Y-113335815D01*
X111387598Y-113457581D01*
X111387581Y-113457598D01*
X111265815Y-113605972D01*
X111265807Y-113605984D01*
X111175325Y-113775265D01*
X111175323Y-113775270D01*
X111119599Y-113958964D01*
X111119598Y-113958970D01*
X111100785Y-114149996D01*
X107366260Y-114149996D01*
X107350401Y-113988970D01*
X107350400Y-113988964D01*
X107296228Y-113810385D01*
X107294677Y-113805271D01*
X107204188Y-113635977D01*
X107204184Y-113635972D01*
X107082418Y-113487598D01*
X107082401Y-113487581D01*
X106934027Y-113365815D01*
X106934015Y-113365807D01*
X106764734Y-113275325D01*
X106764729Y-113275323D01*
X106581035Y-113219599D01*
X106581029Y-113219598D01*
X106390003Y-113200785D01*
X106389997Y-113200785D01*
X106198970Y-113219598D01*
X106198964Y-113219599D01*
X106015270Y-113275323D01*
X106015265Y-113275325D01*
X105845984Y-113365807D01*
X105845972Y-113365815D01*
X105697598Y-113487581D01*
X105697581Y-113487598D01*
X105575815Y-113635972D01*
X105575807Y-113635984D01*
X105485325Y-113805265D01*
X105485323Y-113805270D01*
X105429599Y-113988964D01*
X105429598Y-113988970D01*
X105410785Y-114179996D01*
X89606447Y-114179996D01*
X89700849Y-114085594D01*
X89497682Y-113961094D01*
X89497680Y-113961093D01*
X89271698Y-113867488D01*
X89271699Y-113867488D01*
X89033849Y-113810385D01*
X88790000Y-113791195D01*
X88546150Y-113810385D01*
X88308301Y-113867488D01*
X88082319Y-113961093D01*
X88082317Y-113961094D01*
X87879149Y-114085594D01*
X88542512Y-114748957D01*
X88482110Y-114773978D01*
X88375649Y-114845112D01*
X88285112Y-114935649D01*
X88213978Y-115042110D01*
X88188957Y-115102512D01*
X87525594Y-114439149D01*
X87401094Y-114642317D01*
X87401093Y-114642319D01*
X87307488Y-114868301D01*
X87250385Y-115106150D01*
X87231195Y-115350000D01*
X84762074Y-115350000D01*
X84745667Y-109024932D01*
X87235500Y-109024932D01*
X87235500Y-111675063D01*
X87235501Y-111675070D01*
X87250265Y-111749300D01*
X87250266Y-111749302D01*
X87306513Y-111833480D01*
X87306516Y-111833484D01*
X87390699Y-111889734D01*
X87464933Y-111904500D01*
X90115066Y-111904499D01*
X90189301Y-111889734D01*
X90273484Y-111833484D01*
X90329734Y-111749301D01*
X90344500Y-111675067D01*
X90344500Y-111029997D01*
X96320580Y-111029997D01*
X96320580Y-111030002D01*
X96340230Y-111292223D01*
X96340230Y-111292227D01*
X96340231Y-111292228D01*
X96398746Y-111548598D01*
X96494817Y-111793384D01*
X96494819Y-111793388D01*
X96494823Y-111793396D01*
X96558969Y-111904499D01*
X96626299Y-112021117D01*
X96626303Y-112021122D01*
X96626305Y-112021125D01*
X96790244Y-112226699D01*
X96790255Y-112226711D01*
X96983013Y-112405564D01*
X96983015Y-112405565D01*
X96983020Y-112405570D01*
X97200290Y-112553702D01*
X97437212Y-112667798D01*
X97688492Y-112745308D01*
X97948518Y-112784500D01*
X97948523Y-112784500D01*
X98211477Y-112784500D01*
X98211482Y-112784500D01*
X98471508Y-112745308D01*
X98722788Y-112667798D01*
X98959710Y-112553702D01*
X99176980Y-112405570D01*
X99369746Y-112226710D01*
X99533701Y-112021117D01*
X99665183Y-111793384D01*
X99725383Y-111639996D01*
X105410785Y-111639996D01*
X105410785Y-111640003D01*
X105429598Y-111831029D01*
X105429599Y-111831035D01*
X105485323Y-112014729D01*
X105485325Y-112014734D01*
X105575807Y-112184015D01*
X105575815Y-112184027D01*
X105697581Y-112332401D01*
X105697598Y-112332418D01*
X105845972Y-112454184D01*
X105845977Y-112454188D01*
X105845982Y-112454190D01*
X105845984Y-112454192D01*
X106015265Y-112544674D01*
X106015271Y-112544677D01*
X106100072Y-112570401D01*
X106198964Y-112600400D01*
X106198970Y-112600401D01*
X106389997Y-112619215D01*
X106390000Y-112619215D01*
X106390003Y-112619215D01*
X106581029Y-112600401D01*
X106581035Y-112600400D01*
X106764729Y-112544677D01*
X106934023Y-112454188D01*
X107013976Y-112388572D01*
X107082401Y-112332418D01*
X107082404Y-112332414D01*
X107082410Y-112332410D01*
X107082414Y-112332404D01*
X107082418Y-112332401D01*
X107169155Y-112226711D01*
X107204188Y-112184023D01*
X107294677Y-112014729D01*
X107350400Y-111831035D01*
X107353356Y-111801029D01*
X107369215Y-111640003D01*
X107369215Y-111639996D01*
X107366260Y-111609996D01*
X111100785Y-111609996D01*
X111100785Y-111610003D01*
X111119598Y-111801029D01*
X111119599Y-111801035D01*
X111175323Y-111984729D01*
X111175325Y-111984734D01*
X111265807Y-112154015D01*
X111265815Y-112154027D01*
X111387581Y-112302401D01*
X111387598Y-112302418D01*
X111513291Y-112405570D01*
X111535977Y-112424188D01*
X111535982Y-112424190D01*
X111535984Y-112424192D01*
X111705265Y-112514674D01*
X111705271Y-112514677D01*
X111804168Y-112544677D01*
X111888964Y-112570400D01*
X111888970Y-112570401D01*
X112079997Y-112589215D01*
X112080000Y-112589215D01*
X112080003Y-112589215D01*
X112271029Y-112570401D01*
X112271035Y-112570400D01*
X112454729Y-112514677D01*
X112624023Y-112424188D01*
X112735866Y-112332401D01*
X112772401Y-112302418D01*
X112772404Y-112302414D01*
X112772410Y-112302410D01*
X112772414Y-112302404D01*
X112772418Y-112302401D01*
X112828572Y-112233976D01*
X112894188Y-112154023D01*
X112984677Y-111984729D01*
X113040400Y-111801035D01*
X113041153Y-111793396D01*
X113059215Y-111610003D01*
X113059215Y-111609996D01*
X113040401Y-111418970D01*
X113040400Y-111418964D01*
X113001956Y-111292232D01*
X112984677Y-111235271D01*
X112894188Y-111065977D01*
X112894184Y-111065972D01*
X112772418Y-110917598D01*
X112772401Y-110917581D01*
X112624027Y-110795815D01*
X112624015Y-110795807D01*
X112454734Y-110705325D01*
X112454729Y-110705323D01*
X112271035Y-110649599D01*
X112271029Y-110649598D01*
X112080003Y-110630785D01*
X112079997Y-110630785D01*
X111888970Y-110649598D01*
X111888964Y-110649599D01*
X111705270Y-110705323D01*
X111705265Y-110705325D01*
X111535984Y-110795807D01*
X111535972Y-110795815D01*
X111387598Y-110917581D01*
X111387581Y-110917598D01*
X111265815Y-111065972D01*
X111265807Y-111065984D01*
X111175325Y-111235265D01*
X111175323Y-111235270D01*
X111119599Y-111418964D01*
X111119598Y-111418970D01*
X111100785Y-111609996D01*
X107366260Y-111609996D01*
X107350401Y-111448970D01*
X107350400Y-111448964D01*
X107333496Y-111393241D01*
X107294677Y-111265271D01*
X107204188Y-111095977D01*
X107204184Y-111095972D01*
X107082418Y-110947598D01*
X107082401Y-110947581D01*
X106934027Y-110825815D01*
X106934015Y-110825807D01*
X106764734Y-110735325D01*
X106764729Y-110735323D01*
X106581035Y-110679599D01*
X106581029Y-110679598D01*
X106390003Y-110660785D01*
X106389997Y-110660785D01*
X106198970Y-110679598D01*
X106198964Y-110679599D01*
X106015270Y-110735323D01*
X106015265Y-110735325D01*
X105845984Y-110825807D01*
X105845972Y-110825815D01*
X105697598Y-110947581D01*
X105697581Y-110947598D01*
X105575815Y-111095972D01*
X105575807Y-111095984D01*
X105485325Y-111265265D01*
X105485323Y-111265270D01*
X105429599Y-111448964D01*
X105429598Y-111448970D01*
X105410785Y-111639996D01*
X99725383Y-111639996D01*
X99761254Y-111548598D01*
X99819769Y-111292228D01*
X99839420Y-111030000D01*
X99819769Y-110767772D01*
X99761254Y-110511402D01*
X99665183Y-110266616D01*
X99665179Y-110266609D01*
X99665176Y-110266603D01*
X99533704Y-110038889D01*
X99533701Y-110038883D01*
X99521595Y-110023702D01*
X99369755Y-109833300D01*
X99369744Y-109833288D01*
X99176986Y-109654435D01*
X99176983Y-109654433D01*
X99176980Y-109654430D01*
X98959710Y-109506298D01*
X98928186Y-109491117D01*
X98722788Y-109392202D01*
X98471512Y-109314693D01*
X98471503Y-109314691D01*
X98211485Y-109275500D01*
X98211482Y-109275500D01*
X97948518Y-109275500D01*
X97948514Y-109275500D01*
X97688496Y-109314691D01*
X97688487Y-109314693D01*
X97437211Y-109392202D01*
X97200297Y-109506294D01*
X97200293Y-109506296D01*
X97200290Y-109506298D01*
X96983020Y-109654430D01*
X96983013Y-109654435D01*
X96790255Y-109833288D01*
X96790244Y-109833300D01*
X96626305Y-110038874D01*
X96626295Y-110038889D01*
X96494823Y-110266603D01*
X96494819Y-110266611D01*
X96398744Y-110511408D01*
X96340232Y-110767767D01*
X96340230Y-110767776D01*
X96320580Y-111029997D01*
X90344500Y-111029997D01*
X90344499Y-109024934D01*
X90329734Y-108950699D01*
X90329733Y-108950697D01*
X90273486Y-108866519D01*
X90273485Y-108866518D01*
X90273484Y-108866516D01*
X90189301Y-108810266D01*
X90115067Y-108795500D01*
X90115066Y-108795500D01*
X87464936Y-108795500D01*
X87464929Y-108795501D01*
X87390699Y-108810265D01*
X87390697Y-108810266D01*
X87306519Y-108866513D01*
X87306514Y-108866518D01*
X87269016Y-108922638D01*
X87250266Y-108950699D01*
X87238437Y-109010166D01*
X87235500Y-109024932D01*
X84745667Y-109024932D01*
X84744305Y-108499997D01*
X116430580Y-108499997D01*
X116430580Y-108500002D01*
X116450230Y-108762223D01*
X116450232Y-108762232D01*
X116474034Y-108866518D01*
X116508746Y-109018598D01*
X116604817Y-109263384D01*
X116604819Y-109263388D01*
X116604823Y-109263396D01*
X116634440Y-109314693D01*
X116736299Y-109491117D01*
X116736303Y-109491122D01*
X116736305Y-109491125D01*
X116900244Y-109696699D01*
X116900255Y-109696711D01*
X117093013Y-109875564D01*
X117093015Y-109875565D01*
X117093020Y-109875570D01*
X117310290Y-110023702D01*
X117547212Y-110137798D01*
X117798492Y-110215308D01*
X118058518Y-110254500D01*
X118058523Y-110254500D01*
X118321477Y-110254500D01*
X118321482Y-110254500D01*
X118581508Y-110215308D01*
X118832788Y-110137798D01*
X119069710Y-110023702D01*
X119286980Y-109875570D01*
X119479746Y-109696710D01*
X119643701Y-109491117D01*
X119775183Y-109263384D01*
X119871254Y-109018598D01*
X119929769Y-108762228D01*
X119949420Y-108500000D01*
X119929769Y-108237772D01*
X119871254Y-107981402D01*
X119775183Y-107736616D01*
X119775179Y-107736609D01*
X119775176Y-107736603D01*
X119643704Y-107508889D01*
X119643701Y-107508883D01*
X119637176Y-107500701D01*
X119479755Y-107303300D01*
X119479744Y-107303288D01*
X119286986Y-107124435D01*
X119286983Y-107124433D01*
X119286980Y-107124430D01*
X119069710Y-106976298D01*
X118832788Y-106862202D01*
X118581512Y-106784693D01*
X118581503Y-106784691D01*
X118321485Y-106745500D01*
X118321482Y-106745500D01*
X118058518Y-106745500D01*
X118058514Y-106745500D01*
X117798496Y-106784691D01*
X117798487Y-106784693D01*
X117547211Y-106862202D01*
X117310297Y-106976294D01*
X117310293Y-106976296D01*
X117310290Y-106976298D01*
X117093020Y-107124430D01*
X117093013Y-107124435D01*
X116900255Y-107303288D01*
X116900244Y-107303300D01*
X116736305Y-107508874D01*
X116736295Y-107508889D01*
X116604823Y-107736603D01*
X116604819Y-107736611D01*
X116508744Y-107981408D01*
X116450232Y-108237767D01*
X116450230Y-108237776D01*
X116430580Y-108499997D01*
X84744305Y-108499997D01*
X84740674Y-107100000D01*
X111860768Y-107100000D01*
X111879655Y-107303821D01*
X111935672Y-107500701D01*
X112026912Y-107683935D01*
X112150268Y-107847285D01*
X112301538Y-107985186D01*
X112475573Y-108092944D01*
X112666444Y-108166888D01*
X112867653Y-108204500D01*
X113072347Y-108204500D01*
X113273556Y-108166888D01*
X113464427Y-108092944D01*
X113638462Y-107985186D01*
X113789732Y-107847285D01*
X113913088Y-107683935D01*
X114004328Y-107500701D01*
X114060345Y-107303821D01*
X114079232Y-107100000D01*
X114060345Y-106896179D01*
X114004328Y-106699299D01*
X113913088Y-106516065D01*
X113789732Y-106352715D01*
X113638462Y-106214814D01*
X113524901Y-106144500D01*
X113464432Y-106107059D01*
X113464427Y-106107056D01*
X113273553Y-106033111D01*
X113072347Y-105995500D01*
X112867653Y-105995500D01*
X112666446Y-106033111D01*
X112475572Y-106107056D01*
X112475567Y-106107059D01*
X112301542Y-106214811D01*
X112301540Y-106214812D01*
X112301538Y-106214814D01*
X112168461Y-106336129D01*
X112150269Y-106352714D01*
X112026913Y-106516063D01*
X112026908Y-106516072D01*
X111935672Y-106699298D01*
X111879655Y-106896177D01*
X111879655Y-106896179D01*
X111860768Y-107100000D01*
X84740674Y-107100000D01*
X84737417Y-105844637D01*
X84756173Y-105786404D01*
X84805579Y-105750312D01*
X84866764Y-105750153D01*
X84916357Y-105785989D01*
X84918726Y-105789378D01*
X84941516Y-105823484D01*
X85025699Y-105879734D01*
X85099933Y-105894500D01*
X86850066Y-105894499D01*
X86924301Y-105879734D01*
X87008484Y-105823484D01*
X87064734Y-105739301D01*
X87079500Y-105665067D01*
X87079499Y-104790000D01*
X87405768Y-104790000D01*
X87424655Y-104993821D01*
X87480672Y-105190701D01*
X87571912Y-105373935D01*
X87695268Y-105537285D01*
X87846538Y-105675186D01*
X88020573Y-105782944D01*
X88211444Y-105856888D01*
X88412653Y-105894500D01*
X88617347Y-105894500D01*
X88818556Y-105856888D01*
X89009427Y-105782944D01*
X89183462Y-105675186D01*
X89334732Y-105537285D01*
X89458088Y-105373935D01*
X89549328Y-105190701D01*
X89605345Y-104993821D01*
X89624232Y-104790000D01*
X89945768Y-104790000D01*
X89964655Y-104993821D01*
X90020672Y-105190701D01*
X90111912Y-105373935D01*
X90235268Y-105537285D01*
X90386538Y-105675186D01*
X90560573Y-105782944D01*
X90751444Y-105856888D01*
X90952653Y-105894500D01*
X91157347Y-105894500D01*
X91358556Y-105856888D01*
X91549427Y-105782944D01*
X91723462Y-105675186D01*
X91874732Y-105537285D01*
X91998088Y-105373935D01*
X92089328Y-105190701D01*
X92145345Y-104993821D01*
X92164232Y-104790000D01*
X92145345Y-104586179D01*
X92089527Y-104389997D01*
X94400580Y-104389997D01*
X94400580Y-104390002D01*
X94420230Y-104652223D01*
X94420230Y-104652227D01*
X94420231Y-104652228D01*
X94478746Y-104908598D01*
X94512194Y-104993822D01*
X94574819Y-105153388D01*
X94574823Y-105153396D01*
X94700673Y-105371373D01*
X94706299Y-105381117D01*
X94706303Y-105381122D01*
X94706305Y-105381125D01*
X94870244Y-105586699D01*
X94870255Y-105586711D01*
X95063013Y-105765564D01*
X95063015Y-105765565D01*
X95063020Y-105765570D01*
X95280290Y-105913702D01*
X95517212Y-106027798D01*
X95768492Y-106105308D01*
X96028518Y-106144500D01*
X96028523Y-106144500D01*
X96291477Y-106144500D01*
X96291482Y-106144500D01*
X96551508Y-106105308D01*
X96802788Y-106027798D01*
X97039710Y-105913702D01*
X97256980Y-105765570D01*
X97449746Y-105586710D01*
X97613701Y-105381117D01*
X97745183Y-105153384D01*
X97841254Y-104908598D01*
X97899769Y-104652228D01*
X97919420Y-104390000D01*
X97919367Y-104389299D01*
X97899769Y-104127776D01*
X97899769Y-104127772D01*
X97841254Y-103871402D01*
X97745183Y-103626616D01*
X97745179Y-103626609D01*
X97745176Y-103626603D01*
X97654914Y-103470266D01*
X97618675Y-103407499D01*
X104120715Y-103407499D01*
X104120715Y-103407500D01*
X104139771Y-103552250D01*
X104139773Y-103552256D01*
X104194729Y-103684933D01*
X104195645Y-103687143D01*
X104284526Y-103802974D01*
X104400357Y-103891855D01*
X104535246Y-103947728D01*
X104643811Y-103962020D01*
X104679999Y-103966785D01*
X104680000Y-103966785D01*
X104680001Y-103966785D01*
X104708950Y-103962973D01*
X104824754Y-103947728D01*
X104959643Y-103891855D01*
X105075474Y-103802974D01*
X105164355Y-103687143D01*
X105165270Y-103684933D01*
X111865500Y-103684933D01*
X111865500Y-105435063D01*
X111865501Y-105435070D01*
X111880265Y-105509300D01*
X111880266Y-105509302D01*
X111931990Y-105586711D01*
X111936516Y-105593484D01*
X112020699Y-105649734D01*
X112094933Y-105664500D01*
X113845066Y-105664499D01*
X113919301Y-105649734D01*
X114003484Y-105593484D01*
X114059734Y-105509301D01*
X114074500Y-105435067D01*
X114074499Y-103684934D01*
X114059734Y-103610699D01*
X114059733Y-103610697D01*
X114003486Y-103526519D01*
X114003485Y-103526518D01*
X114003484Y-103526516D01*
X113919301Y-103470266D01*
X113845067Y-103455500D01*
X113845066Y-103455500D01*
X112094936Y-103455500D01*
X112094929Y-103455501D01*
X112020699Y-103470265D01*
X112020697Y-103470266D01*
X111936519Y-103526513D01*
X111936514Y-103526518D01*
X111919321Y-103552250D01*
X111880266Y-103610699D01*
X111865501Y-103684929D01*
X111865500Y-103684933D01*
X105165270Y-103684933D01*
X105220228Y-103552254D01*
X105239285Y-103407500D01*
X105220228Y-103262746D01*
X105164355Y-103127858D01*
X105075474Y-103012026D01*
X105075472Y-103012025D01*
X105075472Y-103012024D01*
X105021572Y-102970665D01*
X104959643Y-102923145D01*
X104824754Y-102867272D01*
X104824752Y-102867271D01*
X104824750Y-102867271D01*
X104680001Y-102848215D01*
X104679999Y-102848215D01*
X104535249Y-102867271D01*
X104535244Y-102867273D01*
X104400359Y-102923144D01*
X104284527Y-103012025D01*
X104284525Y-103012027D01*
X104195644Y-103127859D01*
X104139773Y-103262744D01*
X104139771Y-103262749D01*
X104120715Y-103407499D01*
X97618675Y-103407499D01*
X97613701Y-103398883D01*
X97505138Y-103262749D01*
X97449755Y-103193300D01*
X97449744Y-103193288D01*
X97256986Y-103014435D01*
X97256983Y-103014433D01*
X97256980Y-103014430D01*
X97039710Y-102866298D01*
X97002160Y-102848215D01*
X96802788Y-102752202D01*
X96551512Y-102674693D01*
X96551503Y-102674691D01*
X96291485Y-102635500D01*
X96291482Y-102635500D01*
X96028518Y-102635500D01*
X96028514Y-102635500D01*
X95768496Y-102674691D01*
X95768487Y-102674693D01*
X95517211Y-102752202D01*
X95280297Y-102866294D01*
X95280293Y-102866296D01*
X95280290Y-102866298D01*
X95066546Y-103012026D01*
X95063013Y-103014435D01*
X94870255Y-103193288D01*
X94870244Y-103193300D01*
X94706305Y-103398874D01*
X94706295Y-103398889D01*
X94574823Y-103626603D01*
X94574819Y-103626611D01*
X94574817Y-103626615D01*
X94574817Y-103626616D01*
X94480161Y-103867798D01*
X94478744Y-103871408D01*
X94420232Y-104127767D01*
X94420230Y-104127776D01*
X94400580Y-104389997D01*
X92089527Y-104389997D01*
X92089328Y-104389299D01*
X91998088Y-104206065D01*
X91874732Y-104042715D01*
X91723462Y-103904814D01*
X91549427Y-103797056D01*
X91358556Y-103723112D01*
X91358555Y-103723111D01*
X91358553Y-103723111D01*
X91157347Y-103685500D01*
X90952653Y-103685500D01*
X90751446Y-103723111D01*
X90560572Y-103797056D01*
X90560567Y-103797059D01*
X90386542Y-103904811D01*
X90386540Y-103904812D01*
X90386538Y-103904814D01*
X90339466Y-103947726D01*
X90235269Y-104042714D01*
X90111913Y-104206063D01*
X90111908Y-104206072D01*
X90020672Y-104389298D01*
X89964655Y-104586177D01*
X89958534Y-104652232D01*
X89945768Y-104790000D01*
X89624232Y-104790000D01*
X89605345Y-104586179D01*
X89549328Y-104389299D01*
X89458088Y-104206065D01*
X89334732Y-104042715D01*
X89183462Y-103904814D01*
X89009427Y-103797056D01*
X88818556Y-103723112D01*
X88818555Y-103723111D01*
X88818553Y-103723111D01*
X88617347Y-103685500D01*
X88412653Y-103685500D01*
X88211446Y-103723111D01*
X88020572Y-103797056D01*
X88020567Y-103797059D01*
X87846542Y-103904811D01*
X87846540Y-103904812D01*
X87846538Y-103904814D01*
X87799466Y-103947726D01*
X87695269Y-104042714D01*
X87571913Y-104206063D01*
X87571908Y-104206072D01*
X87480672Y-104389298D01*
X87424655Y-104586177D01*
X87418534Y-104652232D01*
X87405768Y-104790000D01*
X87079499Y-104790000D01*
X87079499Y-103914934D01*
X87064734Y-103840699D01*
X87040918Y-103805057D01*
X87008486Y-103756519D01*
X87008484Y-103756516D01*
X86924301Y-103700266D01*
X86850067Y-103685500D01*
X86850066Y-103685500D01*
X85099936Y-103685500D01*
X85099929Y-103685501D01*
X85025699Y-103700265D01*
X85025697Y-103700266D01*
X84941519Y-103756513D01*
X84941513Y-103756519D01*
X84913282Y-103798770D01*
X84865231Y-103836649D01*
X84804093Y-103839051D01*
X84753220Y-103805057D01*
X84732043Y-103747654D01*
X84731969Y-103744130D01*
X84728041Y-102229997D01*
X116640580Y-102229997D01*
X116640580Y-102230002D01*
X116660230Y-102492223D01*
X116660232Y-102492232D01*
X116701877Y-102674693D01*
X116718746Y-102748598D01*
X116814817Y-102993384D01*
X116814819Y-102993388D01*
X116814823Y-102993396D01*
X116892456Y-103127859D01*
X116946299Y-103221117D01*
X116946303Y-103221122D01*
X116946305Y-103221125D01*
X117110244Y-103426699D01*
X117110255Y-103426711D01*
X117303013Y-103605564D01*
X117303015Y-103605565D01*
X117303020Y-103605570D01*
X117520290Y-103753702D01*
X117757212Y-103867798D01*
X118008492Y-103945308D01*
X118268518Y-103984500D01*
X118268523Y-103984500D01*
X118531477Y-103984500D01*
X118531482Y-103984500D01*
X118791508Y-103945308D01*
X119042788Y-103867798D01*
X119279710Y-103753702D01*
X119496980Y-103605570D01*
X119689746Y-103426710D01*
X119705066Y-103407500D01*
X119733792Y-103371477D01*
X119853701Y-103221117D01*
X119985183Y-102993384D01*
X120081254Y-102748598D01*
X120139769Y-102492228D01*
X120159420Y-102230000D01*
X120159420Y-102229997D01*
X123440580Y-102229997D01*
X123440580Y-102230002D01*
X123460230Y-102492223D01*
X123460232Y-102492232D01*
X123501877Y-102674693D01*
X123518746Y-102748598D01*
X123614817Y-102993384D01*
X123614819Y-102993388D01*
X123614823Y-102993396D01*
X123692456Y-103127859D01*
X123746299Y-103221117D01*
X123746303Y-103221122D01*
X123746305Y-103221125D01*
X123910244Y-103426699D01*
X123910255Y-103426711D01*
X124103013Y-103605564D01*
X124103015Y-103605565D01*
X124103020Y-103605570D01*
X124320290Y-103753702D01*
X124557212Y-103867798D01*
X124808492Y-103945308D01*
X125068518Y-103984500D01*
X125068523Y-103984500D01*
X125331477Y-103984500D01*
X125331482Y-103984500D01*
X125591508Y-103945308D01*
X125842788Y-103867798D01*
X126079710Y-103753702D01*
X126296980Y-103605570D01*
X126489746Y-103426710D01*
X126505066Y-103407500D01*
X126533792Y-103371477D01*
X126653701Y-103221117D01*
X126785183Y-102993384D01*
X126881254Y-102748598D01*
X126939769Y-102492228D01*
X126959420Y-102230000D01*
X126939769Y-101967772D01*
X126881254Y-101711402D01*
X126785183Y-101466616D01*
X126785179Y-101466609D01*
X126785176Y-101466603D01*
X126653704Y-101238889D01*
X126653701Y-101238883D01*
X126653694Y-101238874D01*
X126489755Y-101033300D01*
X126489744Y-101033288D01*
X126296986Y-100854435D01*
X126296983Y-100854433D01*
X126296980Y-100854430D01*
X126079710Y-100706298D01*
X125842788Y-100592202D01*
X125591512Y-100514693D01*
X125591503Y-100514691D01*
X125331485Y-100475500D01*
X125331482Y-100475500D01*
X125068518Y-100475500D01*
X125068514Y-100475500D01*
X124808496Y-100514691D01*
X124808487Y-100514693D01*
X124557211Y-100592202D01*
X124320297Y-100706294D01*
X124320293Y-100706296D01*
X124320290Y-100706298D01*
X124116753Y-100845067D01*
X124103013Y-100854435D01*
X123910255Y-101033288D01*
X123910244Y-101033300D01*
X123746305Y-101238874D01*
X123746295Y-101238889D01*
X123614823Y-101466603D01*
X123614819Y-101466611D01*
X123518744Y-101711408D01*
X123460232Y-101967767D01*
X123460230Y-101967776D01*
X123440580Y-102229997D01*
X120159420Y-102229997D01*
X120139769Y-101967772D01*
X120081254Y-101711402D01*
X119985183Y-101466616D01*
X119985179Y-101466609D01*
X119985176Y-101466603D01*
X119853704Y-101238889D01*
X119853701Y-101238883D01*
X119853694Y-101238874D01*
X119689755Y-101033300D01*
X119689744Y-101033288D01*
X119496986Y-100854435D01*
X119496983Y-100854433D01*
X119496980Y-100854430D01*
X119279710Y-100706298D01*
X119042788Y-100592202D01*
X118791512Y-100514693D01*
X118791503Y-100514691D01*
X118531485Y-100475500D01*
X118531482Y-100475500D01*
X118268518Y-100475500D01*
X118268514Y-100475500D01*
X118008496Y-100514691D01*
X118008487Y-100514693D01*
X117757211Y-100592202D01*
X117520297Y-100706294D01*
X117520293Y-100706296D01*
X117520290Y-100706298D01*
X117316753Y-100845067D01*
X117303013Y-100854435D01*
X117110255Y-101033288D01*
X117110244Y-101033300D01*
X116946305Y-101238874D01*
X116946295Y-101238889D01*
X116814823Y-101466603D01*
X116814819Y-101466611D01*
X116718744Y-101711408D01*
X116660232Y-101967767D01*
X116660230Y-101967776D01*
X116640580Y-102229997D01*
X84728041Y-102229997D01*
X84723105Y-100326984D01*
X84741860Y-100268751D01*
X84791266Y-100232659D01*
X84852451Y-100232500D01*
X84888796Y-100253570D01*
X84901538Y-100265186D01*
X85075573Y-100372944D01*
X85266444Y-100446888D01*
X85467653Y-100484500D01*
X85672347Y-100484500D01*
X85873556Y-100446888D01*
X86064427Y-100372944D01*
X86238462Y-100265186D01*
X86389732Y-100127285D01*
X86513088Y-99963935D01*
X86604328Y-99780701D01*
X86660345Y-99583821D01*
X86679232Y-99380000D01*
X86660345Y-99176179D01*
X86637229Y-99094933D01*
X92440500Y-99094933D01*
X92440500Y-100845063D01*
X92440501Y-100845070D01*
X92455265Y-100919300D01*
X92455266Y-100919302D01*
X92511513Y-101003480D01*
X92511516Y-101003484D01*
X92595699Y-101059734D01*
X92669933Y-101074500D01*
X94420066Y-101074499D01*
X94494301Y-101059734D01*
X94578484Y-101003484D01*
X94634734Y-100919301D01*
X94649500Y-100845067D01*
X94649499Y-99970000D01*
X94975768Y-99970000D01*
X94994655Y-100173822D01*
X95011396Y-100232659D01*
X95050672Y-100370701D01*
X95141912Y-100553935D01*
X95265268Y-100717285D01*
X95416538Y-100855186D01*
X95590573Y-100962944D01*
X95781444Y-101036888D01*
X95982653Y-101074500D01*
X96187347Y-101074500D01*
X96388556Y-101036888D01*
X96579427Y-100962944D01*
X96753462Y-100855186D01*
X96904732Y-100717285D01*
X97028088Y-100553935D01*
X97119328Y-100370701D01*
X97125219Y-100349997D01*
X107680580Y-100349997D01*
X107680580Y-100350002D01*
X107700230Y-100612223D01*
X107700232Y-100612232D01*
X107755684Y-100855186D01*
X107758746Y-100868598D01*
X107854817Y-101113384D01*
X107854819Y-101113388D01*
X107854823Y-101113396D01*
X107980673Y-101331373D01*
X107986299Y-101341117D01*
X107986303Y-101341122D01*
X107986305Y-101341125D01*
X108150244Y-101546699D01*
X108150255Y-101546711D01*
X108343013Y-101725564D01*
X108343015Y-101725565D01*
X108343020Y-101725570D01*
X108560290Y-101873702D01*
X108797212Y-101987798D01*
X109048492Y-102065308D01*
X109308518Y-102104500D01*
X109308523Y-102104500D01*
X109571477Y-102104500D01*
X109571482Y-102104500D01*
X109831508Y-102065308D01*
X110082788Y-101987798D01*
X110319710Y-101873702D01*
X110536980Y-101725570D01*
X110729746Y-101546710D01*
X110893701Y-101341117D01*
X111025183Y-101113384D01*
X111121254Y-100868598D01*
X111179769Y-100612228D01*
X111199420Y-100350000D01*
X111179769Y-100087772D01*
X111121254Y-99831402D01*
X111025183Y-99586616D01*
X111025179Y-99586609D01*
X111025176Y-99586603D01*
X110956629Y-99467877D01*
X110893701Y-99358883D01*
X110785111Y-99222715D01*
X110729755Y-99153300D01*
X110729744Y-99153288D01*
X110536986Y-98974435D01*
X110536983Y-98974433D01*
X110536980Y-98974430D01*
X110319710Y-98826298D01*
X110082788Y-98712202D01*
X109977527Y-98679733D01*
X109831512Y-98634693D01*
X109831503Y-98634691D01*
X109571485Y-98595500D01*
X109571482Y-98595500D01*
X109308518Y-98595500D01*
X109308514Y-98595500D01*
X109048496Y-98634691D01*
X109048487Y-98634693D01*
X108797211Y-98712202D01*
X108560297Y-98826294D01*
X108560293Y-98826296D01*
X108560290Y-98826298D01*
X108343020Y-98974430D01*
X108343013Y-98974435D01*
X108150255Y-99153288D01*
X108150244Y-99153300D01*
X107986305Y-99358874D01*
X107986295Y-99358889D01*
X107854823Y-99586603D01*
X107854819Y-99586611D01*
X107758744Y-99831408D01*
X107700232Y-100087767D01*
X107700230Y-100087776D01*
X107680580Y-100349997D01*
X97125219Y-100349997D01*
X97175345Y-100173821D01*
X97194232Y-99970000D01*
X97175345Y-99766179D01*
X97119328Y-99569299D01*
X97028088Y-99386065D01*
X96904732Y-99222715D01*
X96753462Y-99084814D01*
X96579427Y-98977056D01*
X96388556Y-98903112D01*
X96388555Y-98903111D01*
X96388553Y-98903111D01*
X96187347Y-98865500D01*
X95982653Y-98865500D01*
X95781446Y-98903111D01*
X95590572Y-98977056D01*
X95590567Y-98977059D01*
X95416542Y-99084811D01*
X95416540Y-99084812D01*
X95416538Y-99084814D01*
X95283461Y-99206129D01*
X95265269Y-99222714D01*
X95141913Y-99386063D01*
X95141908Y-99386072D01*
X95050672Y-99569298D01*
X94994655Y-99766177D01*
X94975768Y-99970000D01*
X94649499Y-99970000D01*
X94649499Y-99094934D01*
X94634734Y-99020699D01*
X94634733Y-99020697D01*
X94578486Y-98936519D01*
X94578485Y-98936518D01*
X94578484Y-98936516D01*
X94494301Y-98880266D01*
X94420067Y-98865500D01*
X94420066Y-98865500D01*
X92669936Y-98865500D01*
X92669929Y-98865501D01*
X92595699Y-98880265D01*
X92595697Y-98880266D01*
X92511519Y-98936513D01*
X92511514Y-98936518D01*
X92482929Y-98979299D01*
X92455266Y-99020699D01*
X92442513Y-99084811D01*
X92440500Y-99094933D01*
X86637229Y-99094933D01*
X86604328Y-98979299D01*
X86513088Y-98796065D01*
X86389732Y-98632715D01*
X86238462Y-98494814D01*
X86064427Y-98387056D01*
X85873556Y-98313112D01*
X85873555Y-98313111D01*
X85873553Y-98313111D01*
X85672347Y-98275500D01*
X85467653Y-98275500D01*
X85266446Y-98313111D01*
X85075572Y-98387056D01*
X85075567Y-98387059D01*
X84901542Y-98494811D01*
X84901540Y-98494812D01*
X84901538Y-98494814D01*
X84883897Y-98510896D01*
X84828155Y-98536124D01*
X84768230Y-98523770D01*
X84727011Y-98478553D01*
X84718204Y-98437997D01*
X84716498Y-97780287D01*
X84735254Y-97722053D01*
X84784660Y-97685961D01*
X84845845Y-97685802D01*
X84882192Y-97706873D01*
X84901843Y-97724787D01*
X85075794Y-97832492D01*
X85075796Y-97832493D01*
X85266584Y-97906405D01*
X85319999Y-97916390D01*
X85320000Y-97916390D01*
X85320000Y-97273012D01*
X85377007Y-97305925D01*
X85504174Y-97340000D01*
X85635826Y-97340000D01*
X85762993Y-97305925D01*
X85820000Y-97273012D01*
X85820000Y-97916390D01*
X85873415Y-97906405D01*
X86064203Y-97832493D01*
X86064205Y-97832492D01*
X86238156Y-97724787D01*
X86389359Y-97586947D01*
X86512659Y-97423672D01*
X86512664Y-97423663D01*
X86603858Y-97240521D01*
X86646686Y-97090000D01*
X86003012Y-97090000D01*
X86035925Y-97032993D01*
X86070000Y-96905826D01*
X86070000Y-96774174D01*
X86035925Y-96647007D01*
X86003012Y-96590000D01*
X86646686Y-96590000D01*
X86603858Y-96439478D01*
X86512664Y-96256336D01*
X86512659Y-96256327D01*
X86389359Y-96093052D01*
X86238156Y-95955212D01*
X86064205Y-95847507D01*
X86064203Y-95847506D01*
X85873418Y-95773595D01*
X85873412Y-95773593D01*
X85820000Y-95763609D01*
X85820000Y-96406988D01*
X85762993Y-96374075D01*
X85635826Y-96340000D01*
X85504174Y-96340000D01*
X85377007Y-96374075D01*
X85320000Y-96406988D01*
X85320000Y-95763609D01*
X85319999Y-95763609D01*
X85266587Y-95773593D01*
X85266581Y-95773595D01*
X85075796Y-95847506D01*
X85075794Y-95847507D01*
X84901843Y-95955212D01*
X84877326Y-95977562D01*
X84821584Y-96002790D01*
X84761658Y-95990436D01*
X84720440Y-95945219D01*
X84711633Y-95904661D01*
X84709894Y-95234267D01*
X84728650Y-95176032D01*
X84778056Y-95139940D01*
X84839241Y-95139781D01*
X84875589Y-95160853D01*
X84901843Y-95184787D01*
X85075794Y-95292492D01*
X85075796Y-95292493D01*
X85266584Y-95366405D01*
X85319999Y-95376390D01*
X85320000Y-95376390D01*
X85320000Y-94733012D01*
X85377007Y-94765925D01*
X85504174Y-94800000D01*
X85635826Y-94800000D01*
X85762993Y-94765925D01*
X85820000Y-94733012D01*
X85820000Y-95376390D01*
X85873415Y-95366405D01*
X86064203Y-95292493D01*
X86064205Y-95292492D01*
X86238156Y-95184787D01*
X86389359Y-95046947D01*
X86512659Y-94883672D01*
X86512664Y-94883663D01*
X86603858Y-94700521D01*
X86646686Y-94550000D01*
X86003012Y-94550000D01*
X86035925Y-94492993D01*
X86070000Y-94365826D01*
X86070000Y-94234174D01*
X86035925Y-94107007D01*
X86005898Y-94054999D01*
X103850715Y-94054999D01*
X103850715Y-94055000D01*
X103867796Y-94184750D01*
X103869772Y-94199754D01*
X103925645Y-94334643D01*
X104014526Y-94450474D01*
X104130357Y-94539355D01*
X104265246Y-94595228D01*
X104373811Y-94609520D01*
X104409999Y-94614285D01*
X104410000Y-94614285D01*
X104410001Y-94614285D01*
X104438950Y-94610473D01*
X104554754Y-94595228D01*
X104689643Y-94539355D01*
X104805474Y-94450474D01*
X104894355Y-94334643D01*
X104950228Y-94199754D01*
X104969285Y-94055000D01*
X104967310Y-94039999D01*
X108420715Y-94039999D01*
X108420715Y-94040000D01*
X108438455Y-94174756D01*
X108439772Y-94184754D01*
X108495645Y-94319643D01*
X108584526Y-94435474D01*
X108700357Y-94524355D01*
X108835246Y-94580228D01*
X108943811Y-94594520D01*
X108979999Y-94599285D01*
X108980000Y-94599285D01*
X108980001Y-94599285D01*
X109010816Y-94595228D01*
X109124754Y-94580228D01*
X109259643Y-94524355D01*
X109375474Y-94435474D01*
X109464355Y-94319643D01*
X109520228Y-94184754D01*
X109539285Y-94040000D01*
X109537968Y-94030000D01*
X109537968Y-94029999D01*
X110940715Y-94029999D01*
X110940715Y-94030000D01*
X110957536Y-94157776D01*
X110959772Y-94174754D01*
X111015645Y-94309643D01*
X111104526Y-94425474D01*
X111220357Y-94514355D01*
X111355246Y-94570228D01*
X111463811Y-94584520D01*
X111499999Y-94589285D01*
X111500000Y-94589285D01*
X111500001Y-94589285D01*
X111528950Y-94585473D01*
X111644754Y-94570228D01*
X111779643Y-94514355D01*
X111895474Y-94425474D01*
X111899677Y-94419997D01*
X117560580Y-94419997D01*
X117560580Y-94420002D01*
X117580230Y-94682223D01*
X117580230Y-94682227D01*
X117580231Y-94682228D01*
X117638746Y-94938598D01*
X117731932Y-95176032D01*
X117734819Y-95183388D01*
X117734823Y-95183396D01*
X117797811Y-95292493D01*
X117866299Y-95411117D01*
X117866303Y-95411122D01*
X117866305Y-95411125D01*
X118030244Y-95616699D01*
X118030255Y-95616711D01*
X118223013Y-95795564D01*
X118223015Y-95795565D01*
X118223020Y-95795570D01*
X118440290Y-95943702D01*
X118677212Y-96057798D01*
X118928492Y-96135308D01*
X119188518Y-96174500D01*
X119188523Y-96174500D01*
X119451477Y-96174500D01*
X119451482Y-96174500D01*
X119711508Y-96135308D01*
X119962788Y-96057798D01*
X120199710Y-95943702D01*
X120388581Y-95814932D01*
X129970500Y-95814932D01*
X129970500Y-98465063D01*
X129970501Y-98465070D01*
X129985265Y-98539300D01*
X129985266Y-98539302D01*
X130022817Y-98595500D01*
X130041516Y-98623484D01*
X130125699Y-98679734D01*
X130199933Y-98694500D01*
X132850066Y-98694499D01*
X132924301Y-98679734D01*
X133008484Y-98623484D01*
X133064734Y-98539301D01*
X133079500Y-98465067D01*
X133079499Y-95814934D01*
X133064734Y-95740699D01*
X133064733Y-95740697D01*
X133008486Y-95656519D01*
X133008485Y-95656518D01*
X133008484Y-95656516D01*
X132924301Y-95600266D01*
X132850067Y-95585500D01*
X132850066Y-95585500D01*
X130199936Y-95585500D01*
X130199929Y-95585501D01*
X130125699Y-95600265D01*
X130125697Y-95600266D01*
X130041519Y-95656513D01*
X130041514Y-95656518D01*
X130004016Y-95712638D01*
X129985266Y-95740699D01*
X129980709Y-95763609D01*
X129970500Y-95814932D01*
X120388581Y-95814932D01*
X120416980Y-95795570D01*
X120609746Y-95616710D01*
X120622861Y-95600265D01*
X120653792Y-95561477D01*
X120773701Y-95411117D01*
X120905183Y-95183384D01*
X121001254Y-94938598D01*
X121059769Y-94682228D01*
X121078260Y-94435475D01*
X121079420Y-94420002D01*
X121079420Y-94419997D01*
X121061791Y-94184754D01*
X121059769Y-94157772D01*
X121001254Y-93901402D01*
X120905183Y-93656616D01*
X120905179Y-93656609D01*
X120905176Y-93656603D01*
X120831709Y-93529356D01*
X120773701Y-93428883D01*
X120759610Y-93411213D01*
X120609755Y-93223300D01*
X120609744Y-93223288D01*
X120416986Y-93044435D01*
X120416983Y-93044433D01*
X120416980Y-93044430D01*
X120199710Y-92896298D01*
X119962788Y-92782202D01*
X119711512Y-92704693D01*
X119711503Y-92704691D01*
X119451485Y-92665500D01*
X119451482Y-92665500D01*
X119188518Y-92665500D01*
X119188514Y-92665500D01*
X118928496Y-92704691D01*
X118928487Y-92704693D01*
X118677211Y-92782202D01*
X118440297Y-92896294D01*
X118440293Y-92896296D01*
X118440290Y-92896298D01*
X118332713Y-92969643D01*
X118223013Y-93044435D01*
X118030255Y-93223288D01*
X118030244Y-93223300D01*
X117866305Y-93428874D01*
X117866295Y-93428889D01*
X117734823Y-93656603D01*
X117734819Y-93656611D01*
X117734817Y-93656615D01*
X117734817Y-93656616D01*
X117688215Y-93775358D01*
X117638744Y-93901408D01*
X117580232Y-94157767D01*
X117580230Y-94157776D01*
X117560580Y-94419997D01*
X111899677Y-94419997D01*
X111984355Y-94309643D01*
X112040228Y-94174754D01*
X112059285Y-94030000D01*
X112040228Y-93885246D01*
X111984355Y-93750358D01*
X111895474Y-93634526D01*
X111895472Y-93634525D01*
X111895472Y-93634524D01*
X111792675Y-93555645D01*
X111779643Y-93545645D01*
X111644754Y-93489772D01*
X111644752Y-93489771D01*
X111644750Y-93489771D01*
X111500001Y-93470715D01*
X111499999Y-93470715D01*
X111355249Y-93489771D01*
X111355246Y-93489771D01*
X111355246Y-93489772D01*
X111331107Y-93499771D01*
X111220359Y-93545644D01*
X111104527Y-93634525D01*
X111104525Y-93634527D01*
X111015644Y-93750359D01*
X110959773Y-93885244D01*
X110959771Y-93885249D01*
X110940715Y-94029999D01*
X109537968Y-94029999D01*
X109522203Y-93910249D01*
X109520228Y-93895246D01*
X109464355Y-93760358D01*
X109375474Y-93644526D01*
X109375472Y-93644525D01*
X109375472Y-93644524D01*
X109279191Y-93570645D01*
X109259643Y-93555645D01*
X109124754Y-93499772D01*
X109124752Y-93499771D01*
X109124750Y-93499771D01*
X108980001Y-93480715D01*
X108979999Y-93480715D01*
X108835249Y-93499771D01*
X108835244Y-93499773D01*
X108700359Y-93555644D01*
X108584527Y-93644525D01*
X108584525Y-93644527D01*
X108495644Y-93760359D01*
X108439773Y-93895244D01*
X108439771Y-93895249D01*
X108420715Y-94039999D01*
X104967310Y-94039999D01*
X104950228Y-93910246D01*
X104894355Y-93775358D01*
X104805474Y-93659526D01*
X104805472Y-93659525D01*
X104805472Y-93659524D01*
X104751572Y-93618165D01*
X104689643Y-93570645D01*
X104653427Y-93555644D01*
X104589963Y-93529356D01*
X104554754Y-93514772D01*
X104554752Y-93514771D01*
X104554750Y-93514771D01*
X104410001Y-93495715D01*
X104409999Y-93495715D01*
X104265249Y-93514771D01*
X104265244Y-93514773D01*
X104130359Y-93570644D01*
X104014527Y-93659525D01*
X104014525Y-93659527D01*
X103925644Y-93775359D01*
X103869773Y-93910244D01*
X103869771Y-93910249D01*
X103850715Y-94054999D01*
X86005898Y-94054999D01*
X86003012Y-94050000D01*
X86646686Y-94050000D01*
X86603858Y-93899478D01*
X86512664Y-93716336D01*
X86512659Y-93716327D01*
X86389359Y-93553052D01*
X86238156Y-93415212D01*
X86064205Y-93307507D01*
X86064203Y-93307506D01*
X85873418Y-93233595D01*
X85873412Y-93233593D01*
X85820000Y-93223609D01*
X85820000Y-93866988D01*
X85762993Y-93834075D01*
X85635826Y-93800000D01*
X85504174Y-93800000D01*
X85377007Y-93834075D01*
X85320000Y-93866988D01*
X85320000Y-93223609D01*
X85319999Y-93223609D01*
X85266587Y-93233593D01*
X85266581Y-93233595D01*
X85075796Y-93307506D01*
X85075794Y-93307507D01*
X84901843Y-93415212D01*
X84870754Y-93443554D01*
X84815013Y-93468783D01*
X84755087Y-93456430D01*
X84713867Y-93411213D01*
X84705060Y-93370652D01*
X84704004Y-92963754D01*
X84722761Y-92905516D01*
X84772167Y-92869424D01*
X84802998Y-92864499D01*
X86445066Y-92864499D01*
X86519301Y-92849734D01*
X86603484Y-92793484D01*
X86659734Y-92709301D01*
X86663573Y-92689999D01*
X101730715Y-92689999D01*
X101730715Y-92690000D01*
X101744338Y-92793484D01*
X101749772Y-92834754D01*
X101805645Y-92969643D01*
X101894526Y-93085474D01*
X102010357Y-93174355D01*
X102145246Y-93230228D01*
X102239123Y-93242587D01*
X102289999Y-93249285D01*
X102290000Y-93249285D01*
X102290001Y-93249285D01*
X102318950Y-93245473D01*
X102434754Y-93230228D01*
X102569643Y-93174355D01*
X102685474Y-93085474D01*
X102774355Y-92969643D01*
X102830228Y-92834754D01*
X102849285Y-92690000D01*
X102830228Y-92545246D01*
X102774355Y-92410358D01*
X102685474Y-92294526D01*
X102685472Y-92294525D01*
X102685472Y-92294524D01*
X102631572Y-92253165D01*
X102569643Y-92205645D01*
X102434754Y-92149772D01*
X102434752Y-92149771D01*
X102434750Y-92149771D01*
X102290001Y-92130715D01*
X102289999Y-92130715D01*
X102145249Y-92149771D01*
X102145244Y-92149773D01*
X102010359Y-92205644D01*
X101894527Y-92294525D01*
X101894525Y-92294527D01*
X101805644Y-92410359D01*
X101749773Y-92545244D01*
X101749771Y-92545249D01*
X101730715Y-92689999D01*
X86663573Y-92689999D01*
X86674500Y-92635067D01*
X86674499Y-90884934D01*
X86659734Y-90810699D01*
X86639221Y-90780000D01*
X86603486Y-90726519D01*
X86603484Y-90726516D01*
X86519301Y-90670266D01*
X86445067Y-90655500D01*
X84796760Y-90655500D01*
X84738569Y-90636593D01*
X84702605Y-90587093D01*
X84697760Y-90556761D01*
X84696718Y-90154933D01*
X92440500Y-90154933D01*
X92440500Y-91905063D01*
X92440501Y-91905070D01*
X92455265Y-91979300D01*
X92455266Y-91979302D01*
X92502505Y-92049999D01*
X92511516Y-92063484D01*
X92595699Y-92119734D01*
X92669933Y-92134500D01*
X94420066Y-92134499D01*
X94494301Y-92119734D01*
X94578484Y-92063484D01*
X94634734Y-91979301D01*
X94649500Y-91905067D01*
X94649499Y-91030000D01*
X94975768Y-91030000D01*
X94994655Y-91233822D01*
X95017822Y-91315244D01*
X95050672Y-91430701D01*
X95141912Y-91613935D01*
X95265268Y-91777285D01*
X95416538Y-91915186D01*
X95590573Y-92022944D01*
X95781444Y-92096888D01*
X95982653Y-92134500D01*
X96187347Y-92134500D01*
X96388556Y-92096888D01*
X96509590Y-92049999D01*
X103380715Y-92049999D01*
X103380715Y-92050000D01*
X103392563Y-92140000D01*
X103399772Y-92194754D01*
X103455645Y-92329643D01*
X103544526Y-92445474D01*
X103660357Y-92534355D01*
X103795246Y-92590228D01*
X103903811Y-92604520D01*
X103939999Y-92609285D01*
X103940000Y-92609285D01*
X103940001Y-92609285D01*
X103968950Y-92605473D01*
X104084754Y-92590228D01*
X104219643Y-92534355D01*
X104335474Y-92445474D01*
X104424355Y-92329643D01*
X104480228Y-92194754D01*
X104487436Y-92140000D01*
X129965693Y-92140000D01*
X129984890Y-92383927D01*
X130042011Y-92621854D01*
X130042012Y-92621858D01*
X130135643Y-92847903D01*
X130135648Y-92847914D01*
X130263492Y-93056535D01*
X130263498Y-93056543D01*
X130414714Y-93233595D01*
X130422403Y-93242597D01*
X130422409Y-93242602D01*
X130422412Y-93242605D01*
X130608456Y-93401501D01*
X130608462Y-93401506D01*
X130653137Y-93428883D01*
X130817085Y-93529351D01*
X130817096Y-93529356D01*
X131043141Y-93622987D01*
X131043145Y-93622988D01*
X131043146Y-93622988D01*
X131043148Y-93622989D01*
X131281071Y-93680109D01*
X131525000Y-93699307D01*
X131768929Y-93680109D01*
X132006852Y-93622989D01*
X132006855Y-93622987D01*
X132006858Y-93622987D01*
X132193578Y-93545645D01*
X132232911Y-93529353D01*
X132441538Y-93401506D01*
X132627597Y-93242597D01*
X132786506Y-93056538D01*
X132914353Y-92847911D01*
X132971767Y-92709301D01*
X133007987Y-92621858D01*
X133007988Y-92621854D01*
X133007987Y-92621854D01*
X133007989Y-92621852D01*
X133065109Y-92383929D01*
X133084307Y-92140000D01*
X133065109Y-91896071D01*
X133007989Y-91658148D01*
X133007988Y-91658145D01*
X133007987Y-91658141D01*
X132914356Y-91432096D01*
X132914351Y-91432085D01*
X132811565Y-91264355D01*
X132786506Y-91223462D01*
X132749692Y-91180358D01*
X132627605Y-91037412D01*
X132627602Y-91037409D01*
X132627597Y-91037403D01*
X132627590Y-91037397D01*
X132627587Y-91037394D01*
X132441543Y-90878498D01*
X132441535Y-90878492D01*
X132232914Y-90750648D01*
X132232903Y-90750643D01*
X132006858Y-90657012D01*
X132006854Y-90657011D01*
X131768927Y-90599890D01*
X131525000Y-90580693D01*
X131281072Y-90599890D01*
X131043145Y-90657011D01*
X131043141Y-90657012D01*
X130817096Y-90750643D01*
X130817085Y-90750648D01*
X130608464Y-90878492D01*
X130608456Y-90878498D01*
X130422412Y-91037394D01*
X130422394Y-91037412D01*
X130263498Y-91223456D01*
X130263492Y-91223464D01*
X130135648Y-91432085D01*
X130135643Y-91432096D01*
X130042012Y-91658141D01*
X130042011Y-91658145D01*
X129984890Y-91896072D01*
X129965693Y-92140000D01*
X104487436Y-92140000D01*
X104499285Y-92050000D01*
X104480228Y-91905246D01*
X104424355Y-91770358D01*
X104335474Y-91654526D01*
X104335472Y-91654525D01*
X104335472Y-91654524D01*
X104270605Y-91604750D01*
X104219643Y-91565645D01*
X104084754Y-91509772D01*
X104084752Y-91509771D01*
X104084750Y-91509771D01*
X103940001Y-91490715D01*
X103939999Y-91490715D01*
X103795249Y-91509771D01*
X103795244Y-91509773D01*
X103660359Y-91565644D01*
X103544527Y-91654525D01*
X103544525Y-91654527D01*
X103455644Y-91770359D01*
X103420390Y-91855471D01*
X103403573Y-91896071D01*
X103399773Y-91905244D01*
X103399771Y-91905249D01*
X103380715Y-92049999D01*
X96509590Y-92049999D01*
X96579427Y-92022944D01*
X96753462Y-91915186D01*
X96904732Y-91777285D01*
X97028088Y-91613935D01*
X97104739Y-91459999D01*
X105780715Y-91459999D01*
X105780715Y-91460000D01*
X105787267Y-91509773D01*
X105799772Y-91604754D01*
X105855645Y-91739643D01*
X105944526Y-91855474D01*
X106060357Y-91944355D01*
X106195246Y-92000228D01*
X106303811Y-92014520D01*
X106339999Y-92019285D01*
X106340000Y-92019285D01*
X106340001Y-92019285D01*
X106368950Y-92015473D01*
X106484754Y-92000228D01*
X106619643Y-91944355D01*
X106735474Y-91855474D01*
X106824355Y-91739643D01*
X106880228Y-91604754D01*
X106899285Y-91460000D01*
X106895610Y-91432089D01*
X106894520Y-91423811D01*
X106880228Y-91315246D01*
X106824355Y-91180358D01*
X106808733Y-91159999D01*
X108870715Y-91159999D01*
X108870715Y-91160000D01*
X108880433Y-91233822D01*
X108889772Y-91304754D01*
X108945645Y-91439643D01*
X109034526Y-91555474D01*
X109150357Y-91644355D01*
X109285246Y-91700228D01*
X109393811Y-91714520D01*
X109429999Y-91719285D01*
X109430000Y-91719285D01*
X109430001Y-91719285D01*
X109458950Y-91715473D01*
X109574754Y-91700228D01*
X109709643Y-91644355D01*
X109825474Y-91555474D01*
X109914355Y-91439643D01*
X109970228Y-91304754D01*
X109989285Y-91160000D01*
X109970228Y-91015246D01*
X109914355Y-90880358D01*
X109837347Y-90779999D01*
X110370715Y-90779999D01*
X110370715Y-90780000D01*
X110389771Y-90924750D01*
X110389773Y-90924756D01*
X110436436Y-91037412D01*
X110445645Y-91059643D01*
X110534526Y-91175474D01*
X110650357Y-91264355D01*
X110785246Y-91320228D01*
X110893811Y-91334520D01*
X110929999Y-91339285D01*
X110930000Y-91339285D01*
X110930001Y-91339285D01*
X110958950Y-91335473D01*
X111074754Y-91320228D01*
X111209643Y-91264355D01*
X111325474Y-91175474D01*
X111414355Y-91059643D01*
X111470228Y-90924754D01*
X111489285Y-90780000D01*
X111470228Y-90635246D01*
X111414355Y-90500358D01*
X111325474Y-90384526D01*
X111325472Y-90384525D01*
X111325472Y-90384524D01*
X111271572Y-90343165D01*
X111209643Y-90295645D01*
X111178427Y-90282715D01*
X111074756Y-90239773D01*
X111074758Y-90239773D01*
X111074754Y-90239772D01*
X111074752Y-90239771D01*
X111074750Y-90239771D01*
X110930001Y-90220715D01*
X110929999Y-90220715D01*
X110785249Y-90239771D01*
X110785244Y-90239773D01*
X110650359Y-90295644D01*
X110534527Y-90384525D01*
X110534525Y-90384527D01*
X110445644Y-90500359D01*
X110389773Y-90635244D01*
X110389771Y-90635249D01*
X110370715Y-90779999D01*
X109837347Y-90779999D01*
X109825474Y-90764526D01*
X109825472Y-90764525D01*
X109825472Y-90764524D01*
X109735265Y-90695306D01*
X109709643Y-90675645D01*
X109696659Y-90670267D01*
X109612111Y-90635246D01*
X109574754Y-90619772D01*
X109574752Y-90619771D01*
X109574750Y-90619771D01*
X109430001Y-90600715D01*
X109429999Y-90600715D01*
X109285249Y-90619771D01*
X109285246Y-90619771D01*
X109285246Y-90619772D01*
X109262246Y-90629299D01*
X109150359Y-90675644D01*
X109034527Y-90764525D01*
X109034525Y-90764527D01*
X108945644Y-90880359D01*
X108889773Y-91015244D01*
X108889771Y-91015249D01*
X108870715Y-91159999D01*
X106808733Y-91159999D01*
X106735474Y-91064526D01*
X106735472Y-91064525D01*
X106735472Y-91064524D01*
X106681572Y-91023165D01*
X106619643Y-90975645D01*
X106484754Y-90919772D01*
X106484752Y-90919771D01*
X106484750Y-90919771D01*
X106340001Y-90900715D01*
X106339999Y-90900715D01*
X106195249Y-90919771D01*
X106195244Y-90919773D01*
X106060359Y-90975644D01*
X105944527Y-91064525D01*
X105944525Y-91064527D01*
X105855644Y-91180359D01*
X105799773Y-91315244D01*
X105799771Y-91315249D01*
X105780715Y-91459999D01*
X97104739Y-91459999D01*
X97119328Y-91430701D01*
X97175345Y-91233821D01*
X97194232Y-91030000D01*
X97175345Y-90826179D01*
X97119328Y-90629299D01*
X97028088Y-90446065D01*
X96904732Y-90282715D01*
X96753462Y-90144814D01*
X96579427Y-90037056D01*
X96388556Y-89963112D01*
X96388555Y-89963111D01*
X96388553Y-89963111D01*
X96187347Y-89925500D01*
X95982653Y-89925500D01*
X95781446Y-89963111D01*
X95590572Y-90037056D01*
X95590567Y-90037059D01*
X95416542Y-90144811D01*
X95416540Y-90144812D01*
X95416538Y-90144814D01*
X95265268Y-90282715D01*
X95255504Y-90295645D01*
X95141913Y-90446063D01*
X95141908Y-90446072D01*
X95050672Y-90629298D01*
X94994655Y-90826177D01*
X94975768Y-91030000D01*
X94649499Y-91030000D01*
X94649499Y-90154934D01*
X94634734Y-90080699D01*
X94634733Y-90080697D01*
X94578486Y-89996519D01*
X94578485Y-89996518D01*
X94578484Y-89996516D01*
X94494301Y-89940266D01*
X94420067Y-89925500D01*
X94420066Y-89925500D01*
X92669936Y-89925500D01*
X92669929Y-89925501D01*
X92595699Y-89940265D01*
X92595697Y-89940266D01*
X92511519Y-89996513D01*
X92511514Y-89996518D01*
X92484428Y-90037056D01*
X92455266Y-90080699D01*
X92442513Y-90144811D01*
X92440500Y-90154933D01*
X84696718Y-90154933D01*
X84685966Y-86009997D01*
X94400580Y-86009997D01*
X94400580Y-86010002D01*
X94420230Y-86272223D01*
X94420232Y-86272232D01*
X94474247Y-86508889D01*
X94478746Y-86528598D01*
X94560382Y-86736603D01*
X94574819Y-86773388D01*
X94574823Y-86773396D01*
X94694920Y-86981408D01*
X94706299Y-87001117D01*
X94706303Y-87001122D01*
X94706305Y-87001125D01*
X94870244Y-87206699D01*
X94870255Y-87206711D01*
X95063013Y-87385564D01*
X95063015Y-87385565D01*
X95063020Y-87385570D01*
X95280290Y-87533702D01*
X95517212Y-87647798D01*
X95768492Y-87725308D01*
X96028518Y-87764500D01*
X96028523Y-87764500D01*
X96291477Y-87764500D01*
X96291482Y-87764500D01*
X96551508Y-87725308D01*
X96802788Y-87647798D01*
X97039710Y-87533702D01*
X97089146Y-87499997D01*
X100180580Y-87499997D01*
X100180580Y-87500002D01*
X100200230Y-87762223D01*
X100200232Y-87762232D01*
X100255586Y-88004756D01*
X100258746Y-88018598D01*
X100351713Y-88255474D01*
X100354819Y-88263388D01*
X100354823Y-88263396D01*
X100469143Y-88461402D01*
X100486299Y-88491117D01*
X100486303Y-88491122D01*
X100486305Y-88491125D01*
X100650244Y-88696699D01*
X100650255Y-88696711D01*
X100843013Y-88875564D01*
X100843015Y-88875565D01*
X100843020Y-88875570D01*
X101060290Y-89023702D01*
X101297212Y-89137798D01*
X101548492Y-89215308D01*
X101808518Y-89254500D01*
X101808523Y-89254500D01*
X102071477Y-89254500D01*
X102071482Y-89254500D01*
X102331508Y-89215308D01*
X102582788Y-89137798D01*
X102819710Y-89023702D01*
X102883814Y-88979997D01*
X105820580Y-88979997D01*
X105820580Y-88980002D01*
X105840230Y-89242223D01*
X105840230Y-89242227D01*
X105840231Y-89242228D01*
X105898746Y-89498598D01*
X105994817Y-89743384D01*
X105994819Y-89743388D01*
X105994823Y-89743396D01*
X106108487Y-89940266D01*
X106126299Y-89971117D01*
X106126303Y-89971122D01*
X106126305Y-89971125D01*
X106290244Y-90176699D01*
X106290255Y-90176711D01*
X106483013Y-90355564D01*
X106483015Y-90355565D01*
X106483020Y-90355570D01*
X106700290Y-90503702D01*
X106937212Y-90617798D01*
X107188492Y-90695308D01*
X107448518Y-90734500D01*
X107448523Y-90734500D01*
X107711477Y-90734500D01*
X107711482Y-90734500D01*
X107971508Y-90695308D01*
X108222788Y-90617798D01*
X108459710Y-90503702D01*
X108676980Y-90355570D01*
X108869746Y-90176710D01*
X109033701Y-89971117D01*
X109165183Y-89743384D01*
X109261254Y-89498598D01*
X109319769Y-89242228D01*
X109339420Y-88980000D01*
X109319769Y-88717772D01*
X109261254Y-88461402D01*
X109165183Y-88216616D01*
X109165179Y-88216609D01*
X109165176Y-88216603D01*
X109042864Y-88004754D01*
X109033701Y-87988883D01*
X109033694Y-87988874D01*
X108930920Y-87859999D01*
X109680715Y-87859999D01*
X109680715Y-87860000D01*
X109697682Y-87988883D01*
X109699772Y-88004754D01*
X109755645Y-88139643D01*
X109844526Y-88255474D01*
X109960357Y-88344355D01*
X110095246Y-88400228D01*
X110203811Y-88414520D01*
X110239999Y-88419285D01*
X110240000Y-88419285D01*
X110240001Y-88419285D01*
X110268950Y-88415473D01*
X110384754Y-88400228D01*
X110519643Y-88344355D01*
X110635474Y-88255474D01*
X110724355Y-88139643D01*
X110780228Y-88004754D01*
X110799285Y-87860000D01*
X110780228Y-87715246D01*
X110724355Y-87580358D01*
X110635474Y-87464526D01*
X110635472Y-87464525D01*
X110635472Y-87464524D01*
X110532577Y-87385570D01*
X110519643Y-87375645D01*
X110384754Y-87319772D01*
X110384752Y-87319771D01*
X110384750Y-87319771D01*
X110240001Y-87300715D01*
X110239999Y-87300715D01*
X110095249Y-87319771D01*
X110095244Y-87319773D01*
X109960359Y-87375644D01*
X109844527Y-87464525D01*
X109844525Y-87464527D01*
X109755644Y-87580359D01*
X109699773Y-87715244D01*
X109699771Y-87715249D01*
X109680715Y-87859999D01*
X108930920Y-87859999D01*
X108869755Y-87783300D01*
X108869744Y-87783288D01*
X108676986Y-87604435D01*
X108676983Y-87604433D01*
X108676980Y-87604430D01*
X108459710Y-87456298D01*
X108222788Y-87342202D01*
X107971512Y-87264693D01*
X107971503Y-87264691D01*
X107711485Y-87225500D01*
X107711482Y-87225500D01*
X107448518Y-87225500D01*
X107448514Y-87225500D01*
X107188496Y-87264691D01*
X107188487Y-87264693D01*
X106937211Y-87342202D01*
X106700297Y-87456294D01*
X106700293Y-87456296D01*
X106700290Y-87456298D01*
X106518326Y-87580359D01*
X106483013Y-87604435D01*
X106290255Y-87783288D01*
X106290244Y-87783300D01*
X106126305Y-87988874D01*
X106126295Y-87988889D01*
X105994823Y-88216603D01*
X105994819Y-88216611D01*
X105994817Y-88216615D01*
X105994817Y-88216616D01*
X105944684Y-88344355D01*
X105898744Y-88461408D01*
X105840232Y-88717767D01*
X105840230Y-88717776D01*
X105820580Y-88979997D01*
X102883814Y-88979997D01*
X103036980Y-88875570D01*
X103229746Y-88696710D01*
X103393701Y-88491117D01*
X103525183Y-88263384D01*
X103621254Y-88018598D01*
X103679769Y-87762228D01*
X103696894Y-87533705D01*
X103699420Y-87500002D01*
X103699420Y-87499997D01*
X103679769Y-87237776D01*
X103679769Y-87237772D01*
X103621254Y-86981402D01*
X103525183Y-86736616D01*
X103525179Y-86736609D01*
X103525176Y-86736603D01*
X103393704Y-86508889D01*
X103393701Y-86508883D01*
X103393694Y-86508874D01*
X103229755Y-86303300D01*
X103229744Y-86303288D01*
X103036986Y-86124435D01*
X103036983Y-86124433D01*
X103036980Y-86124430D01*
X102819710Y-85976298D01*
X102582788Y-85862202D01*
X102331512Y-85784693D01*
X102331503Y-85784691D01*
X102071485Y-85745500D01*
X102071482Y-85745500D01*
X101808518Y-85745500D01*
X101808514Y-85745500D01*
X101548496Y-85784691D01*
X101548487Y-85784693D01*
X101297211Y-85862202D01*
X101060297Y-85976294D01*
X101060293Y-85976296D01*
X101060290Y-85976298D01*
X100843020Y-86124430D01*
X100843013Y-86124435D01*
X100650255Y-86303288D01*
X100650244Y-86303300D01*
X100486305Y-86508874D01*
X100486295Y-86508889D01*
X100354823Y-86736603D01*
X100354819Y-86736611D01*
X100258744Y-86981408D01*
X100200232Y-87237767D01*
X100200230Y-87237776D01*
X100180580Y-87499997D01*
X97089146Y-87499997D01*
X97256980Y-87385570D01*
X97449746Y-87206710D01*
X97613701Y-87001117D01*
X97745183Y-86773384D01*
X97841254Y-86528598D01*
X97899769Y-86272228D01*
X97919420Y-86010000D01*
X97916894Y-85976298D01*
X97902536Y-85784692D01*
X97899769Y-85747772D01*
X97841254Y-85491402D01*
X97745183Y-85246616D01*
X97745179Y-85246609D01*
X97745176Y-85246603D01*
X97613704Y-85018889D01*
X97613701Y-85018883D01*
X97613694Y-85018874D01*
X97449755Y-84813300D01*
X97449744Y-84813288D01*
X97256986Y-84634435D01*
X97256983Y-84634433D01*
X97256980Y-84634430D01*
X97039710Y-84486298D01*
X96802788Y-84372202D01*
X96748849Y-84355564D01*
X96551512Y-84294693D01*
X96551503Y-84294691D01*
X96291485Y-84255500D01*
X96291482Y-84255500D01*
X96028518Y-84255500D01*
X96028514Y-84255500D01*
X95768496Y-84294691D01*
X95768487Y-84294693D01*
X95517211Y-84372202D01*
X95280297Y-84486294D01*
X95280293Y-84486296D01*
X95280290Y-84486298D01*
X95087415Y-84617798D01*
X95063013Y-84634435D01*
X94870255Y-84813288D01*
X94870244Y-84813300D01*
X94706305Y-85018874D01*
X94706295Y-85018889D01*
X94574823Y-85246603D01*
X94574819Y-85246611D01*
X94478744Y-85491408D01*
X94420232Y-85747767D01*
X94420230Y-85747776D01*
X94400580Y-86009997D01*
X84685966Y-86009997D01*
X84676783Y-82469997D01*
X114720580Y-82469997D01*
X114720580Y-82470002D01*
X114740230Y-82732223D01*
X114740232Y-82732232D01*
X114796783Y-82980000D01*
X114798746Y-82988598D01*
X114894817Y-83233384D01*
X114894819Y-83233388D01*
X114894823Y-83233396D01*
X114899925Y-83242232D01*
X115026299Y-83461117D01*
X115026303Y-83461122D01*
X115026305Y-83461125D01*
X115190244Y-83666699D01*
X115190255Y-83666711D01*
X115383013Y-83845564D01*
X115383015Y-83845565D01*
X115383020Y-83845570D01*
X115600290Y-83993702D01*
X115837212Y-84107798D01*
X116088492Y-84185308D01*
X116348518Y-84224500D01*
X116348523Y-84224500D01*
X116611477Y-84224500D01*
X116611482Y-84224500D01*
X116871508Y-84185308D01*
X117122788Y-84107798D01*
X117359710Y-83993702D01*
X117576980Y-83845570D01*
X117769746Y-83666710D01*
X117933701Y-83461117D01*
X118065183Y-83233384D01*
X118161254Y-82988598D01*
X118163217Y-82979997D01*
X129820580Y-82979997D01*
X129820580Y-82980002D01*
X129840230Y-83242223D01*
X129840232Y-83242232D01*
X129890189Y-83461110D01*
X129898746Y-83498598D01*
X129994817Y-83743384D01*
X129994819Y-83743388D01*
X129994823Y-83743396D01*
X130053814Y-83845570D01*
X130126299Y-83971117D01*
X130126303Y-83971122D01*
X130126305Y-83971125D01*
X130290244Y-84176699D01*
X130290255Y-84176711D01*
X130483013Y-84355564D01*
X130483015Y-84355565D01*
X130483020Y-84355570D01*
X130700290Y-84503702D01*
X130937212Y-84617798D01*
X131188492Y-84695308D01*
X131448518Y-84734500D01*
X131448523Y-84734500D01*
X131711477Y-84734500D01*
X131711482Y-84734500D01*
X131971508Y-84695308D01*
X132222788Y-84617798D01*
X132459710Y-84503702D01*
X132676980Y-84355570D01*
X132869746Y-84176710D01*
X133033701Y-83971117D01*
X133165183Y-83743384D01*
X133261254Y-83498598D01*
X133319769Y-83242228D01*
X133339420Y-82980000D01*
X133319769Y-82717772D01*
X133261254Y-82461402D01*
X133165183Y-82216616D01*
X133165179Y-82216609D01*
X133165176Y-82216603D01*
X133033704Y-81988889D01*
X133033701Y-81988883D01*
X133003811Y-81951402D01*
X132869755Y-81783300D01*
X132869744Y-81783288D01*
X132676986Y-81604435D01*
X132676983Y-81604433D01*
X132676980Y-81604430D01*
X132459710Y-81456298D01*
X132222788Y-81342202D01*
X131971512Y-81264693D01*
X131971503Y-81264691D01*
X131711485Y-81225500D01*
X131711482Y-81225500D01*
X131448518Y-81225500D01*
X131448514Y-81225500D01*
X131188496Y-81264691D01*
X131188487Y-81264693D01*
X130937211Y-81342202D01*
X130700297Y-81456294D01*
X130700293Y-81456296D01*
X130700290Y-81456298D01*
X130483020Y-81604430D01*
X130483013Y-81604435D01*
X130290255Y-81783288D01*
X130290244Y-81783300D01*
X130126305Y-81988874D01*
X130126295Y-81988889D01*
X129994823Y-82216603D01*
X129994819Y-82216611D01*
X129898744Y-82461408D01*
X129840232Y-82717767D01*
X129840230Y-82717776D01*
X129820580Y-82979997D01*
X118163217Y-82979997D01*
X118219769Y-82732228D01*
X118239420Y-82470000D01*
X118219769Y-82207772D01*
X118161254Y-81951402D01*
X118065183Y-81706616D01*
X118065179Y-81706609D01*
X118065176Y-81706603D01*
X117933704Y-81478889D01*
X117933701Y-81478883D01*
X117824702Y-81342202D01*
X117769755Y-81273300D01*
X117769744Y-81273288D01*
X117576986Y-81094435D01*
X117576983Y-81094433D01*
X117576980Y-81094430D01*
X117359710Y-80946298D01*
X117122788Y-80832202D01*
X116871512Y-80754693D01*
X116871503Y-80754691D01*
X116611485Y-80715500D01*
X116611482Y-80715500D01*
X116348518Y-80715500D01*
X116348514Y-80715500D01*
X116088496Y-80754691D01*
X116088487Y-80754693D01*
X115837211Y-80832202D01*
X115600297Y-80946294D01*
X115600293Y-80946296D01*
X115600290Y-80946298D01*
X115383020Y-81094430D01*
X115383013Y-81094435D01*
X115190255Y-81273288D01*
X115190244Y-81273300D01*
X115026305Y-81478874D01*
X115026295Y-81478889D01*
X114894823Y-81706603D01*
X114894819Y-81706611D01*
X114798744Y-81951408D01*
X114740232Y-82207767D01*
X114740230Y-82207776D01*
X114720580Y-82469997D01*
X84676783Y-82469997D01*
X84660882Y-76339998D01*
X94091082Y-76339998D01*
X94091082Y-76340001D01*
X94110727Y-76602148D01*
X94110729Y-76602157D01*
X94169226Y-76858452D01*
X94265267Y-77103159D01*
X94265276Y-77103178D01*
X94396710Y-77330828D01*
X94396720Y-77330842D01*
X94445027Y-77391417D01*
X95134152Y-76702291D01*
X95141049Y-76718942D01*
X95228599Y-76849970D01*
X95340030Y-76961401D01*
X95471058Y-77048951D01*
X95487705Y-77055846D01*
X94797954Y-77745598D01*
X94970548Y-77863271D01*
X95207392Y-77977329D01*
X95458599Y-78054816D01*
X95458609Y-78054818D01*
X95718552Y-78093999D01*
X95718561Y-78094000D01*
X95981439Y-78094000D01*
X95981447Y-78093999D01*
X96241390Y-78054818D01*
X96241400Y-78054816D01*
X96492607Y-77977329D01*
X96729451Y-77863271D01*
X96902045Y-77745599D01*
X96212293Y-77055847D01*
X96228942Y-77048951D01*
X96359970Y-76961401D01*
X96471401Y-76849970D01*
X96558951Y-76718942D01*
X96565847Y-76702293D01*
X97254971Y-77391417D01*
X97303285Y-77330835D01*
X97434723Y-77103178D01*
X97434732Y-77103159D01*
X97530773Y-76858452D01*
X97589270Y-76602157D01*
X97589272Y-76602148D01*
X97608918Y-76340001D01*
X97608918Y-76339998D01*
X97589272Y-76077851D01*
X97589270Y-76077842D01*
X97530773Y-75821547D01*
X97434732Y-75576840D01*
X97434723Y-75576821D01*
X97352804Y-75434933D01*
X103760500Y-75434933D01*
X103760500Y-77185063D01*
X103760501Y-77185070D01*
X103775265Y-77259300D01*
X103775266Y-77259302D01*
X103831513Y-77343480D01*
X103831516Y-77343484D01*
X103915699Y-77399734D01*
X103989933Y-77414500D01*
X105740066Y-77414499D01*
X105814301Y-77399734D01*
X105898484Y-77343484D01*
X105954734Y-77259301D01*
X105969500Y-77185067D01*
X105969499Y-76310000D01*
X106295768Y-76310000D01*
X106314655Y-76513822D01*
X106370672Y-76710701D01*
X106444243Y-76858452D01*
X106461912Y-76893935D01*
X106585268Y-77057285D01*
X106736538Y-77195186D01*
X106910573Y-77302944D01*
X107101444Y-77376888D01*
X107302653Y-77414500D01*
X107507347Y-77414500D01*
X107708556Y-77376888D01*
X107899427Y-77302944D01*
X108073462Y-77195186D01*
X108224732Y-77057285D01*
X108348088Y-76893935D01*
X108439328Y-76710701D01*
X108495345Y-76513821D01*
X108514232Y-76310000D01*
X108507745Y-76239997D01*
X114720580Y-76239997D01*
X114720580Y-76240002D01*
X114740230Y-76502223D01*
X114740232Y-76502232D01*
X114789694Y-76718942D01*
X114798746Y-76758598D01*
X114878340Y-76961401D01*
X114894819Y-77003388D01*
X114894823Y-77003396D01*
X114999711Y-77185066D01*
X115026299Y-77231117D01*
X115026303Y-77231122D01*
X115026305Y-77231125D01*
X115190244Y-77436699D01*
X115190255Y-77436711D01*
X115383013Y-77615564D01*
X115383015Y-77615565D01*
X115383020Y-77615570D01*
X115600290Y-77763702D01*
X115837212Y-77877798D01*
X116088492Y-77955308D01*
X116348518Y-77994500D01*
X116348523Y-77994500D01*
X116611477Y-77994500D01*
X116611482Y-77994500D01*
X116871508Y-77955308D01*
X117122788Y-77877798D01*
X117359710Y-77763702D01*
X117576980Y-77615570D01*
X117769746Y-77436710D01*
X117787460Y-77414498D01*
X117854173Y-77330842D01*
X117933701Y-77231117D01*
X118065183Y-77003384D01*
X118161254Y-76758598D01*
X118219769Y-76502228D01*
X118232676Y-76329997D01*
X129790580Y-76329997D01*
X129790580Y-76330002D01*
X129810230Y-76592223D01*
X129810230Y-76592227D01*
X129810231Y-76592228D01*
X129868746Y-76848598D01*
X129964817Y-77093384D01*
X129964819Y-77093388D01*
X129964823Y-77093396D01*
X130044333Y-77231110D01*
X130096299Y-77321117D01*
X130096303Y-77321122D01*
X130096305Y-77321125D01*
X130260244Y-77526699D01*
X130260255Y-77526711D01*
X130453013Y-77705564D01*
X130453015Y-77705565D01*
X130453020Y-77705570D01*
X130670290Y-77853702D01*
X130907212Y-77967798D01*
X131158492Y-78045308D01*
X131418518Y-78084500D01*
X131418523Y-78084500D01*
X131681477Y-78084500D01*
X131681482Y-78084500D01*
X131941508Y-78045308D01*
X132192788Y-77967798D01*
X132429710Y-77853702D01*
X132646980Y-77705570D01*
X132839746Y-77526710D01*
X133003701Y-77321117D01*
X133135183Y-77093384D01*
X133231254Y-76848598D01*
X133289769Y-76592228D01*
X133309420Y-76330000D01*
X133289769Y-76067772D01*
X133231254Y-75811402D01*
X133135183Y-75566616D01*
X133135179Y-75566609D01*
X133135176Y-75566603D01*
X133053312Y-75424811D01*
X133003701Y-75338883D01*
X132986295Y-75317056D01*
X132839755Y-75133300D01*
X132839744Y-75133288D01*
X132646986Y-74954435D01*
X132646983Y-74954433D01*
X132646980Y-74954430D01*
X132429710Y-74806298D01*
X132192788Y-74692202D01*
X131975519Y-74625183D01*
X131941512Y-74614693D01*
X131941503Y-74614691D01*
X131681485Y-74575500D01*
X131681482Y-74575500D01*
X131418518Y-74575500D01*
X131418514Y-74575500D01*
X131158496Y-74614691D01*
X131158487Y-74614693D01*
X130907211Y-74692202D01*
X130670297Y-74806294D01*
X130670293Y-74806296D01*
X130670290Y-74806298D01*
X130482399Y-74934400D01*
X130453013Y-74954435D01*
X130260255Y-75133288D01*
X130260244Y-75133300D01*
X130096305Y-75338874D01*
X130096295Y-75338889D01*
X129964823Y-75566603D01*
X129964819Y-75566611D01*
X129964817Y-75566615D01*
X129964817Y-75566616D01*
X129902236Y-75726072D01*
X129868744Y-75811408D01*
X129810232Y-76067767D01*
X129810230Y-76067776D01*
X129790580Y-76329997D01*
X118232676Y-76329997D01*
X118239420Y-76240000D01*
X118219769Y-75977772D01*
X118161254Y-75721402D01*
X118065183Y-75476616D01*
X118065179Y-75476609D01*
X118065176Y-75476603D01*
X117985657Y-75338874D01*
X117933701Y-75248883D01*
X117929098Y-75243111D01*
X117769755Y-75043300D01*
X117769744Y-75043288D01*
X117576986Y-74864435D01*
X117576983Y-74864433D01*
X117576980Y-74864430D01*
X117359710Y-74716298D01*
X117331411Y-74702670D01*
X117122788Y-74602202D01*
X116871512Y-74524693D01*
X116871503Y-74524691D01*
X116611485Y-74485500D01*
X116611482Y-74485500D01*
X116348518Y-74485500D01*
X116348514Y-74485500D01*
X116088496Y-74524691D01*
X116088487Y-74524693D01*
X115837211Y-74602202D01*
X115600297Y-74716294D01*
X115600293Y-74716296D01*
X115600290Y-74716298D01*
X115452985Y-74816729D01*
X115383013Y-74864435D01*
X115190255Y-75043288D01*
X115190244Y-75043300D01*
X115026305Y-75248874D01*
X115026295Y-75248889D01*
X114894823Y-75476603D01*
X114894819Y-75476611D01*
X114798744Y-75721408D01*
X114740232Y-75977767D01*
X114740230Y-75977776D01*
X114720580Y-76239997D01*
X108507745Y-76239997D01*
X108495345Y-76106179D01*
X108439328Y-75909299D01*
X108348088Y-75726065D01*
X108224732Y-75562715D01*
X108073462Y-75424814D01*
X107969910Y-75360697D01*
X107899432Y-75317059D01*
X107899427Y-75317056D01*
X107794789Y-75276519D01*
X107708556Y-75243112D01*
X107708555Y-75243111D01*
X107708553Y-75243111D01*
X107507347Y-75205500D01*
X107302653Y-75205500D01*
X107101446Y-75243111D01*
X106910572Y-75317056D01*
X106910567Y-75317059D01*
X106736542Y-75424811D01*
X106736540Y-75424812D01*
X106736538Y-75424814D01*
X106679714Y-75476616D01*
X106585269Y-75562714D01*
X106461913Y-75726063D01*
X106461908Y-75726072D01*
X106370672Y-75909298D01*
X106314655Y-76106177D01*
X106295768Y-76310000D01*
X105969499Y-76310000D01*
X105969499Y-75434934D01*
X105954734Y-75360699D01*
X105954733Y-75360697D01*
X105898486Y-75276519D01*
X105898485Y-75276518D01*
X105898484Y-75276516D01*
X105814301Y-75220266D01*
X105740067Y-75205500D01*
X105740066Y-75205500D01*
X103989936Y-75205500D01*
X103989929Y-75205501D01*
X103915699Y-75220265D01*
X103915697Y-75220266D01*
X103831519Y-75276513D01*
X103831514Y-75276518D01*
X103823454Y-75288581D01*
X103775266Y-75360699D01*
X103762513Y-75424811D01*
X103760500Y-75434933D01*
X97352804Y-75434933D01*
X97303289Y-75349171D01*
X97303284Y-75349164D01*
X97254971Y-75288581D01*
X96565846Y-75977705D01*
X96558951Y-75961058D01*
X96471401Y-75830030D01*
X96359970Y-75718599D01*
X96228942Y-75631049D01*
X96212291Y-75624152D01*
X96902044Y-74934400D01*
X96729451Y-74816728D01*
X96492607Y-74702670D01*
X96241400Y-74625183D01*
X96241390Y-74625181D01*
X95981447Y-74586000D01*
X95718552Y-74586000D01*
X95458609Y-74625181D01*
X95458599Y-74625183D01*
X95207392Y-74702670D01*
X94970544Y-74816729D01*
X94797953Y-74934399D01*
X95487706Y-75624152D01*
X95471058Y-75631049D01*
X95340030Y-75718599D01*
X95228599Y-75830030D01*
X95141049Y-75961058D01*
X95134152Y-75977706D01*
X94445027Y-75288581D01*
X94396714Y-75349165D01*
X94396710Y-75349171D01*
X94265276Y-75576821D01*
X94265267Y-75576840D01*
X94169226Y-75821547D01*
X94110729Y-76077842D01*
X94110727Y-76077851D01*
X94091082Y-76339998D01*
X84660882Y-76339998D01*
X84660500Y-76192750D01*
X84660500Y-63830000D01*
X102191195Y-63830000D01*
X102210385Y-64073849D01*
X102267488Y-64311698D01*
X102361093Y-64537680D01*
X102361094Y-64537682D01*
X102485594Y-64740849D01*
X103148957Y-64077485D01*
X103173978Y-64137890D01*
X103245112Y-64244351D01*
X103335649Y-64334888D01*
X103442110Y-64406022D01*
X103502511Y-64431041D01*
X102839149Y-65094404D01*
X103042303Y-65218897D01*
X103042313Y-65218902D01*
X103268301Y-65312511D01*
X103268300Y-65312511D01*
X103506150Y-65369614D01*
X103750000Y-65388804D01*
X103993849Y-65369614D01*
X104231698Y-65312511D01*
X104457686Y-65218902D01*
X104457696Y-65218897D01*
X104660849Y-65094404D01*
X103997487Y-64431042D01*
X104057890Y-64406022D01*
X104164351Y-64334888D01*
X104254888Y-64244351D01*
X104326022Y-64137890D01*
X104351042Y-64077487D01*
X105014404Y-64740849D01*
X105138897Y-64537696D01*
X105138902Y-64537686D01*
X105232511Y-64311698D01*
X105289614Y-64073849D01*
X105308804Y-63830000D01*
X105289614Y-63586150D01*
X105232511Y-63348301D01*
X105138902Y-63122313D01*
X105138897Y-63122303D01*
X105014404Y-62919149D01*
X104351041Y-63582511D01*
X104326022Y-63522110D01*
X104254888Y-63415649D01*
X104164351Y-63325112D01*
X104057890Y-63253978D01*
X103997485Y-63228957D01*
X104660849Y-62565594D01*
X104561857Y-62504932D01*
X107195500Y-62504932D01*
X107195500Y-65155063D01*
X107195501Y-65155070D01*
X107210265Y-65229300D01*
X107210266Y-65229302D01*
X107265866Y-65312511D01*
X107266516Y-65313484D01*
X107350699Y-65369734D01*
X107424933Y-65384500D01*
X110075066Y-65384499D01*
X110149301Y-65369734D01*
X110233484Y-65313484D01*
X110289734Y-65229301D01*
X110304500Y-65155067D01*
X110304499Y-63830000D01*
X125036195Y-63830000D01*
X125055385Y-64073849D01*
X125112488Y-64311698D01*
X125206093Y-64537680D01*
X125206094Y-64537682D01*
X125330594Y-64740849D01*
X125993957Y-64077485D01*
X126018978Y-64137890D01*
X126090112Y-64244351D01*
X126180649Y-64334888D01*
X126287110Y-64406022D01*
X126347511Y-64431041D01*
X125684149Y-65094404D01*
X125887303Y-65218897D01*
X125887313Y-65218902D01*
X126113301Y-65312511D01*
X126113300Y-65312511D01*
X126351150Y-65369614D01*
X126595000Y-65388804D01*
X126838849Y-65369614D01*
X127076698Y-65312511D01*
X127302686Y-65218902D01*
X127302696Y-65218897D01*
X127505849Y-65094404D01*
X126842487Y-64431042D01*
X126902890Y-64406022D01*
X127009351Y-64334888D01*
X127099888Y-64244351D01*
X127171022Y-64137890D01*
X127196042Y-64077487D01*
X127859404Y-64740849D01*
X127983897Y-64537696D01*
X127983902Y-64537686D01*
X128077511Y-64311698D01*
X128134614Y-64073849D01*
X128153804Y-63830000D01*
X128134614Y-63586150D01*
X128077511Y-63348301D01*
X127983902Y-63122313D01*
X127983897Y-63122303D01*
X127859404Y-62919149D01*
X127196041Y-63582511D01*
X127171022Y-63522110D01*
X127099888Y-63415649D01*
X127009351Y-63325112D01*
X126902890Y-63253978D01*
X126842485Y-63228957D01*
X127505849Y-62565594D01*
X127406857Y-62504932D01*
X130040500Y-62504932D01*
X130040500Y-65155063D01*
X130040501Y-65155070D01*
X130055265Y-65229300D01*
X130055266Y-65229302D01*
X130110866Y-65312511D01*
X130111516Y-65313484D01*
X130195699Y-65369734D01*
X130269933Y-65384500D01*
X132920066Y-65384499D01*
X132994301Y-65369734D01*
X133078484Y-65313484D01*
X133134734Y-65229301D01*
X133149500Y-65155067D01*
X133149499Y-62504934D01*
X133134734Y-62430699D01*
X133134733Y-62430697D01*
X133078486Y-62346519D01*
X133078485Y-62346518D01*
X133078484Y-62346516D01*
X132994301Y-62290266D01*
X132920067Y-62275500D01*
X132920066Y-62275500D01*
X130269936Y-62275500D01*
X130269929Y-62275501D01*
X130195699Y-62290265D01*
X130195697Y-62290266D01*
X130111519Y-62346513D01*
X130111514Y-62346518D01*
X130074016Y-62402638D01*
X130055266Y-62430699D01*
X130043437Y-62490166D01*
X130040500Y-62504932D01*
X127406857Y-62504932D01*
X127302682Y-62441094D01*
X127302680Y-62441093D01*
X127076698Y-62347488D01*
X127076699Y-62347488D01*
X126838849Y-62290385D01*
X126595000Y-62271195D01*
X126351150Y-62290385D01*
X126113301Y-62347488D01*
X125887319Y-62441093D01*
X125887317Y-62441094D01*
X125684149Y-62565594D01*
X126347512Y-63228957D01*
X126287110Y-63253978D01*
X126180649Y-63325112D01*
X126090112Y-63415649D01*
X126018978Y-63522110D01*
X125993957Y-63582512D01*
X125330594Y-62919149D01*
X125206094Y-63122317D01*
X125206093Y-63122319D01*
X125112488Y-63348301D01*
X125055385Y-63586150D01*
X125036195Y-63830000D01*
X110304499Y-63830000D01*
X110304499Y-62504934D01*
X110289734Y-62430699D01*
X110289733Y-62430697D01*
X110233486Y-62346519D01*
X110233485Y-62346518D01*
X110233484Y-62346516D01*
X110149301Y-62290266D01*
X110075067Y-62275500D01*
X110075066Y-62275500D01*
X107424936Y-62275500D01*
X107424929Y-62275501D01*
X107350699Y-62290265D01*
X107350697Y-62290266D01*
X107266519Y-62346513D01*
X107266514Y-62346518D01*
X107229016Y-62402638D01*
X107210266Y-62430699D01*
X107198437Y-62490166D01*
X107195500Y-62504932D01*
X104561857Y-62504932D01*
X104457682Y-62441094D01*
X104457680Y-62441093D01*
X104231698Y-62347488D01*
X104231699Y-62347488D01*
X103993849Y-62290385D01*
X103750000Y-62271195D01*
X103506150Y-62290385D01*
X103268301Y-62347488D01*
X103042319Y-62441093D01*
X103042317Y-62441094D01*
X102839149Y-62565594D01*
X103502512Y-63228957D01*
X103442110Y-63253978D01*
X103335649Y-63325112D01*
X103245112Y-63415649D01*
X103173978Y-63522110D01*
X103148957Y-63582512D01*
X102485594Y-62919149D01*
X102361094Y-63122317D01*
X102361093Y-63122319D01*
X102267488Y-63348301D01*
X102210385Y-63586150D01*
X102191195Y-63830000D01*
X84660500Y-63830000D01*
X84660500Y-60579913D01*
X84679407Y-60521722D01*
X84689189Y-60510218D01*
X85720796Y-59469794D01*
X85775194Y-59441786D01*
X85791097Y-59440500D01*
X135435346Y-59440500D01*
X135493537Y-59459407D01*
G37*
%TD.AperFunction*%
%TD*%
M02*
