%TF.GenerationSoftware,KiCad,Pcbnew,8.0.9-8.0.9-0~ubuntu22.04.1*%
%TF.CreationDate,2025-04-21T19:02:28+05:30*%
%TF.ProjectId,Variable Buck Converter,56617269-6162-46c6-9520-4275636b2043,rev?*%
%TF.SameCoordinates,Original*%
%TF.FileFunction,Drillmap*%
%TF.FilePolarity,Positive*%
%FSLAX45Y45*%
G04 Gerber Fmt 4.5, Leading zero omitted, Abs format (unit mm)*
G04 Created by KiCad (PCBNEW 8.0.9-8.0.9-0~ubuntu22.04.1) date 2025-04-21 19:02:28*
%MOMM*%
%LPD*%
G01*
G04 APERTURE LIST*
%ADD10C,0.050000*%
%ADD11C,0.200000*%
%ADD12C,0.100000*%
%ADD13C,0.130000*%
%ADD14C,0.160000*%
G04 APERTURE END LIST*
D10*
X8416000Y-5894000D02*
X13637000Y-5894000D01*
X13637000Y-14739000D01*
X8416000Y-14739000D01*
X8416000Y-5894000D01*
D11*
D12*
X8553000Y-10267000D02*
X8583000Y-10297000D01*
X8583000Y-10267000D02*
X8553000Y-10297000D01*
X8732000Y-10257000D02*
X8762000Y-10287000D01*
X8762000Y-10257000D02*
X8732000Y-10287000D01*
X8776000Y-9463000D02*
X8806000Y-9493000D01*
X8806000Y-9463000D02*
X8776000Y-9493000D01*
X8779000Y-9566000D02*
X8809000Y-9596000D01*
X8809000Y-9566000D02*
X8779000Y-9596000D01*
X8784000Y-9672000D02*
X8814000Y-9702000D01*
X8814000Y-9672000D02*
X8784000Y-9702000D01*
X9055000Y-9543000D02*
X9085000Y-9573000D01*
X9085000Y-9543000D02*
X9055000Y-9573000D01*
X9309500Y-9353000D02*
X9339500Y-9383000D01*
X9339500Y-9353000D02*
X9309500Y-9383000D01*
X9319000Y-11590000D02*
X9349000Y-11620000D01*
X9349000Y-11590000D02*
X9319000Y-11620000D01*
X9320000Y-11049000D02*
X9350000Y-11079000D01*
X9350000Y-11049000D02*
X9320000Y-11079000D01*
X9322000Y-10395000D02*
X9352000Y-10425000D01*
X9352000Y-10395000D02*
X9322000Y-10425000D01*
X9322000Y-10530000D02*
X9352000Y-10560000D01*
X9352000Y-10530000D02*
X9322000Y-10560000D01*
X9322000Y-10670000D02*
X9352000Y-10700000D01*
X9352000Y-10670000D02*
X9322000Y-10700000D01*
X9346000Y-13661000D02*
X9376000Y-13691000D01*
X9376000Y-13661000D02*
X9346000Y-13691000D01*
X9387000Y-9426000D02*
X9417000Y-9456000D01*
X9417000Y-9426000D02*
X9387000Y-9456000D01*
X9457000Y-11833000D02*
X9487000Y-11863000D01*
X9487000Y-11833000D02*
X9457000Y-11863000D01*
X9472000Y-10254000D02*
X9502000Y-10284000D01*
X9502000Y-10254000D02*
X9472000Y-10284000D01*
X9476000Y-11056000D02*
X9506000Y-11086000D01*
X9506000Y-11056000D02*
X9476000Y-11086000D01*
X9502000Y-11570000D02*
X9532000Y-11600000D01*
X9532000Y-11570000D02*
X9502000Y-11600000D01*
X9509000Y-10668000D02*
X9539000Y-10698000D01*
X9539000Y-10668000D02*
X9509000Y-10698000D01*
X9546500Y-12246500D02*
X9576500Y-12276500D01*
X9576500Y-12246500D02*
X9546500Y-12276500D01*
X9605000Y-11709000D02*
X9635000Y-11739000D01*
X9635000Y-11709000D02*
X9605000Y-11739000D01*
X9625000Y-11997000D02*
X9655000Y-12027000D01*
X9655000Y-11997000D02*
X9625000Y-12027000D01*
X9721000Y-10165000D02*
X9751000Y-10195000D01*
X9751000Y-10165000D02*
X9721000Y-10195000D01*
X9760000Y-11850000D02*
X9790000Y-11880000D01*
X9790000Y-11850000D02*
X9760000Y-11880000D01*
X9785000Y-12173000D02*
X9815000Y-12203000D01*
X9815000Y-12173000D02*
X9785000Y-12203000D01*
X9878000Y-6092000D02*
X9908000Y-6122000D01*
X9908000Y-6092000D02*
X9878000Y-6122000D01*
X9881000Y-6788000D02*
X9911000Y-6818000D01*
X9911000Y-6788000D02*
X9881000Y-6818000D01*
X9884000Y-6412000D02*
X9914000Y-6442000D01*
X9914000Y-6412000D02*
X9884000Y-6442000D01*
X9911000Y-11638000D02*
X9941000Y-11668000D01*
X9941000Y-11638000D02*
X9911000Y-11668000D01*
X9944000Y-12322000D02*
X9974000Y-12352000D01*
X9974000Y-12322000D02*
X9944000Y-12352000D01*
X9953000Y-12040000D02*
X9983000Y-12070000D01*
X9983000Y-12040000D02*
X9953000Y-12070000D01*
X9970000Y-12509000D02*
X10000000Y-12539000D01*
X10000000Y-12509000D02*
X9970000Y-12539000D01*
X10099000Y-10253000D02*
X10129000Y-10283000D01*
X10129000Y-10253000D02*
X10099000Y-10283000D01*
X10106000Y-12194000D02*
X10136000Y-12224000D01*
X10136000Y-12194000D02*
X10106000Y-12224000D01*
X10107389Y-9505175D02*
X10137389Y-9535175D01*
X10137389Y-9505175D02*
X10107389Y-9535175D01*
X10149000Y-9726000D02*
X10179000Y-9756000D01*
X10179000Y-9726000D02*
X10149000Y-9756000D01*
X10190000Y-12335000D02*
X10220000Y-12365000D01*
X10220000Y-12335000D02*
X10190000Y-12365000D01*
X10196000Y-12513000D02*
X10226000Y-12543000D01*
X10226000Y-12513000D02*
X10196000Y-12543000D01*
X10199000Y-10175000D02*
X10229000Y-10205000D01*
X10229000Y-10175000D02*
X10199000Y-10205000D01*
X10214000Y-9254000D02*
X10244000Y-9284000D01*
X10244000Y-9254000D02*
X10214000Y-9284000D01*
X10273000Y-10939000D02*
X10303000Y-10969000D01*
X10303000Y-10939000D02*
X10273000Y-10969000D01*
X10379000Y-9190000D02*
X10409000Y-9220000D01*
X10409000Y-9190000D02*
X10379000Y-9220000D01*
X10386000Y-9838000D02*
X10416000Y-9868000D01*
X10416000Y-9838000D02*
X10386000Y-9868000D01*
X10424000Y-9496000D02*
X10454000Y-9526000D01*
X10454000Y-9496000D02*
X10424000Y-9526000D01*
X10426000Y-9390500D02*
X10456000Y-9420500D01*
X10456000Y-9390500D02*
X10426000Y-9420500D01*
X10426000Y-9563000D02*
X10456000Y-9593000D01*
X10456000Y-9563000D02*
X10426000Y-9593000D01*
X10453000Y-10325750D02*
X10483000Y-10355750D01*
X10483000Y-10325750D02*
X10453000Y-10355750D01*
X10459000Y-10938000D02*
X10489000Y-10968000D01*
X10489000Y-10938000D02*
X10459000Y-10968000D01*
X10491000Y-8041000D02*
X10521000Y-8071000D01*
X10521000Y-8041000D02*
X10491000Y-8071000D01*
X10494000Y-8218000D02*
X10524000Y-8248000D01*
X10524000Y-8218000D02*
X10494000Y-8248000D01*
X10497000Y-8390000D02*
X10527000Y-8420000D01*
X10527000Y-8390000D02*
X10497000Y-8420000D01*
X10505000Y-8564000D02*
X10535000Y-8594000D01*
X10535000Y-8564000D02*
X10505000Y-8594000D01*
X10619000Y-9131000D02*
X10649000Y-9161000D01*
X10649000Y-9131000D02*
X10619000Y-9161000D01*
X10688000Y-9712000D02*
X10718000Y-9742000D01*
X10718000Y-9712000D02*
X10688000Y-9742000D01*
X10773000Y-10768000D02*
X10803000Y-10798000D01*
X10803000Y-10768000D02*
X10773000Y-10798000D01*
X10836000Y-9698000D02*
X10866000Y-9728000D01*
X10866000Y-9698000D02*
X10836000Y-9728000D01*
X10863000Y-13653000D02*
X10893000Y-13683000D01*
X10893000Y-13653000D02*
X10863000Y-13683000D01*
X10883000Y-9389000D02*
X10913000Y-9419000D01*
X10913000Y-9389000D02*
X10883000Y-9419000D01*
X10914000Y-12187000D02*
X10944000Y-12217000D01*
X10944000Y-12187000D02*
X10914000Y-12217000D01*
X10914000Y-12470000D02*
X10944000Y-12500000D01*
X10944000Y-12470000D02*
X10914000Y-12500000D01*
X10928000Y-9101000D02*
X10958000Y-9131000D01*
X10958000Y-9101000D02*
X10928000Y-9131000D01*
X10944000Y-9723000D02*
X10974000Y-9753000D01*
X10974000Y-9723000D02*
X10944000Y-9753000D01*
X11009000Y-8771000D02*
X11039000Y-8801000D01*
X11039000Y-8771000D02*
X11009000Y-8801000D01*
X11071000Y-9693000D02*
X11101000Y-9723000D01*
X11101000Y-9693000D02*
X11071000Y-9723000D01*
X11078000Y-9063000D02*
X11108000Y-9093000D01*
X11108000Y-9063000D02*
X11078000Y-9093000D01*
X11135000Y-9388000D02*
X11165000Y-9418000D01*
X11165000Y-9388000D02*
X11135000Y-9418000D01*
X11169000Y-9832000D02*
X11199000Y-9862000D01*
X11199000Y-9832000D02*
X11169000Y-9862000D01*
X11213667Y-9907000D02*
X11243667Y-9937000D01*
X11243667Y-9907000D02*
X11213667Y-9937000D01*
X11214000Y-9762000D02*
X11244000Y-9792000D01*
X11244000Y-9762000D02*
X11214000Y-9792000D01*
X11256000Y-9832000D02*
X11286000Y-9862000D01*
X11286000Y-9832000D02*
X11256000Y-9862000D01*
X11302333Y-9907000D02*
X11332333Y-9937000D01*
X11332333Y-9907000D02*
X11302333Y-9937000D01*
X11302667Y-9762000D02*
X11332667Y-9792000D01*
X11332667Y-9762000D02*
X11302667Y-9792000D01*
X11324000Y-12221000D02*
X11354000Y-12251000D01*
X11354000Y-12221000D02*
X11324000Y-12251000D01*
X11335000Y-12417000D02*
X11365000Y-12447000D01*
X11365000Y-12417000D02*
X11335000Y-12447000D01*
X11344667Y-9832000D02*
X11374667Y-9862000D01*
X11374667Y-9832000D02*
X11344667Y-9862000D01*
X11391000Y-9907000D02*
X11421000Y-9937000D01*
X11421000Y-9907000D02*
X11391000Y-9937000D01*
X11391333Y-9762000D02*
X11421333Y-9792000D01*
X11421333Y-9762000D02*
X11391333Y-9792000D01*
X11433333Y-9832000D02*
X11463333Y-9862000D01*
X11463333Y-9832000D02*
X11433333Y-9862000D01*
X11479667Y-9907000D02*
X11509667Y-9937000D01*
X11509667Y-9907000D02*
X11479667Y-9937000D01*
X11480000Y-9762000D02*
X11510000Y-9792000D01*
X11510000Y-9762000D02*
X11480000Y-9792000D01*
X11522000Y-9832000D02*
X11552000Y-9862000D01*
X11552000Y-9832000D02*
X11522000Y-9862000D01*
X11563000Y-11303000D02*
X11593000Y-11333000D01*
X11593000Y-11303000D02*
X11563000Y-11333000D01*
X11756000Y-12428000D02*
X11786000Y-12458000D01*
X11786000Y-12428000D02*
X11756000Y-12458000D01*
X11764000Y-12214000D02*
X11794000Y-12244000D01*
X11794000Y-12214000D02*
X11764000Y-12244000D01*
X11803000Y-6480000D02*
X11833000Y-6510000D01*
X11833000Y-6480000D02*
X11803000Y-6510000D01*
X12036000Y-8368000D02*
X12066000Y-8398000D01*
X12066000Y-8368000D02*
X12036000Y-8398000D01*
X12147000Y-8601000D02*
X12177000Y-8631000D01*
X12177000Y-8601000D02*
X12147000Y-8631000D01*
X12151000Y-8812000D02*
X12181000Y-8842000D01*
X12181000Y-8812000D02*
X12151000Y-8842000D01*
X12178000Y-7617000D02*
X12208000Y-7647000D01*
X12208000Y-7617000D02*
X12178000Y-7647000D01*
X12189000Y-7043000D02*
X12219000Y-7073000D01*
X12219000Y-7043000D02*
X12189000Y-7073000D01*
X12200000Y-6469000D02*
X12230000Y-6499000D01*
X12230000Y-6469000D02*
X12200000Y-6499000D01*
X12227000Y-12225000D02*
X12257000Y-12255000D01*
X12257000Y-12225000D02*
X12227000Y-12255000D01*
X12227000Y-12436000D02*
X12257000Y-12466000D01*
X12257000Y-12436000D02*
X12227000Y-12466000D01*
X12264000Y-10519000D02*
X12294000Y-10549000D01*
X12294000Y-10519000D02*
X12264000Y-10549000D01*
X12500000Y-13645000D02*
X12530000Y-13675000D01*
X12530000Y-13645000D02*
X12500000Y-13675000D01*
X12501000Y-11289000D02*
X12531000Y-11319000D01*
X12531000Y-11289000D02*
X12501000Y-11319000D01*
X12668000Y-12421000D02*
X12698000Y-12451000D01*
X12698000Y-12421000D02*
X12668000Y-12451000D01*
X12672000Y-12225000D02*
X12702000Y-12255000D01*
X12702000Y-12225000D02*
X12672000Y-12255000D01*
X12986000Y-12431000D02*
X13016000Y-12461000D01*
X13016000Y-12431000D02*
X12986000Y-12461000D01*
X13036000Y-12091000D02*
X13066000Y-12121000D01*
X13066000Y-12091000D02*
X13036000Y-12121000D01*
X13181000Y-12267000D02*
X13211000Y-12297000D01*
X13211000Y-12267000D02*
X13181000Y-12297000D01*
X13300000Y-11823000D02*
X13330000Y-11853000D01*
X13330000Y-11823000D02*
X13300000Y-11853000D01*
X13396000Y-11494000D02*
X13426000Y-11524000D01*
X13426000Y-11494000D02*
X13396000Y-11524000D01*
X13400000Y-11099000D02*
X13430000Y-11129000D01*
X13430000Y-11099000D02*
X13400000Y-11129000D01*
X13410000Y-10190000D02*
X13440000Y-10220000D01*
X13440000Y-10190000D02*
X13410000Y-10220000D01*
X13421000Y-10595000D02*
X13451000Y-10625000D01*
X13451000Y-10595000D02*
X13421000Y-10625000D01*
X13439000Y-7997000D02*
X13469000Y-8027000D01*
X13469000Y-7997000D02*
X13439000Y-8027000D01*
X13439000Y-9475000D02*
X13469000Y-9505000D01*
X13469000Y-9475000D02*
X13439000Y-9505000D01*
X13443000Y-8330000D02*
X13473000Y-8360000D01*
X13473000Y-8330000D02*
X13443000Y-8360000D01*
X13444000Y-8780000D02*
X13474000Y-8810000D01*
X13474000Y-8780000D02*
X13444000Y-8810000D01*
X13472000Y-11984000D02*
X13502000Y-12014000D01*
X13502000Y-11984000D02*
X13472000Y-12014000D01*
X10679000Y-11164000D02*
G75*
G02*
X10599000Y-11164000I-40000J0D01*
G01*
X10599000Y-11164000D02*
G75*
G02*
X10679000Y-11164000I40000J0D01*
G01*
X10679000Y-11418000D02*
G75*
G02*
X10599000Y-11418000I-40000J0D01*
G01*
X10599000Y-11418000D02*
G75*
G02*
X10679000Y-11418000I40000J0D01*
G01*
X10679000Y-11672000D02*
G75*
G02*
X10599000Y-11672000I-40000J0D01*
G01*
X10599000Y-11672000D02*
G75*
G02*
X10679000Y-11672000I40000J0D01*
G01*
X11248000Y-11161000D02*
G75*
G02*
X11168000Y-11161000I-40000J0D01*
G01*
X11168000Y-11161000D02*
G75*
G02*
X11248000Y-11161000I40000J0D01*
G01*
X11248000Y-11415000D02*
G75*
G02*
X11168000Y-11415000I-40000J0D01*
G01*
X11168000Y-11415000D02*
G75*
G02*
X11248000Y-11415000I40000J0D01*
G01*
X11248000Y-11669000D02*
G75*
G02*
X11168000Y-11669000I-40000J0D01*
G01*
X11168000Y-11669000D02*
G75*
G02*
X11248000Y-11669000I40000J0D01*
G01*
X8557000Y-9126000D02*
X8557000Y-9226000D01*
X8507000Y-9176000D02*
X8607000Y-9176000D01*
X8557000Y-9380000D02*
X8557000Y-9480000D01*
X8507000Y-9430000D02*
X8607000Y-9430000D01*
X8557000Y-9634000D02*
X8557000Y-9734000D01*
X8507000Y-9684000D02*
X8607000Y-9684000D01*
X8557000Y-9888000D02*
X8557000Y-9988000D01*
X8507000Y-9938000D02*
X8607000Y-9938000D01*
X8573000Y-12673000D02*
X8573000Y-12773000D01*
X8523000Y-12723000D02*
X8623000Y-12723000D01*
X8573000Y-14451000D02*
X8573000Y-14551000D01*
X8523000Y-14501000D02*
X8623000Y-14501000D01*
X8597500Y-10429000D02*
X8597500Y-10529000D01*
X8547500Y-10479000D02*
X8647500Y-10479000D01*
X8629500Y-12214000D02*
X8629500Y-12314000D01*
X8579500Y-12264000D02*
X8679500Y-12264000D01*
X8827000Y-12673000D02*
X8827000Y-12773000D01*
X8777000Y-12723000D02*
X8877000Y-12723000D01*
X8827000Y-14451000D02*
X8827000Y-14551000D01*
X8777000Y-14501000D02*
X8877000Y-14501000D01*
X8851500Y-10429000D02*
X8851500Y-10529000D01*
X8801500Y-10479000D02*
X8901500Y-10479000D01*
X8883500Y-12214000D02*
X8883500Y-12314000D01*
X8833500Y-12264000D02*
X8933500Y-12264000D01*
X9081000Y-12673000D02*
X9081000Y-12773000D01*
X9031000Y-12723000D02*
X9131000Y-12723000D01*
X9081000Y-14451000D02*
X9081000Y-14551000D01*
X9031000Y-14501000D02*
X9131000Y-14501000D01*
X9105500Y-10429000D02*
X9105500Y-10529000D01*
X9055500Y-10479000D02*
X9155500Y-10479000D01*
X9335000Y-12673000D02*
X9335000Y-12773000D01*
X9285000Y-12723000D02*
X9385000Y-12723000D01*
X9335000Y-14451000D02*
X9335000Y-14551000D01*
X9285000Y-14501000D02*
X9385000Y-14501000D01*
X9354500Y-9053000D02*
X9354500Y-9153000D01*
X9304500Y-9103000D02*
X9404500Y-9103000D01*
X9354500Y-9947000D02*
X9354500Y-10047000D01*
X9304500Y-9997000D02*
X9404500Y-9997000D01*
X9589000Y-12673000D02*
X9589000Y-12773000D01*
X9539000Y-12723000D02*
X9639000Y-12723000D01*
X9589000Y-14451000D02*
X9589000Y-14551000D01*
X9539000Y-14501000D02*
X9639000Y-14501000D01*
X9608500Y-9053000D02*
X9608500Y-9153000D01*
X9558500Y-9103000D02*
X9658500Y-9103000D01*
X9608500Y-9947000D02*
X9608500Y-10047000D01*
X9558500Y-9997000D02*
X9658500Y-9997000D01*
X9843000Y-12673000D02*
X9843000Y-12773000D01*
X9793000Y-12723000D02*
X9893000Y-12723000D01*
X9843000Y-14451000D02*
X9843000Y-14551000D01*
X9793000Y-14501000D02*
X9893000Y-14501000D01*
X10097000Y-12673000D02*
X10097000Y-12773000D01*
X10047000Y-12723000D02*
X10147000Y-12723000D01*
X10097000Y-14451000D02*
X10097000Y-14551000D01*
X10047000Y-14501000D02*
X10147000Y-14501000D01*
X10351000Y-12673000D02*
X10351000Y-12773000D01*
X10301000Y-12723000D02*
X10401000Y-12723000D01*
X10351000Y-14451000D02*
X10351000Y-14551000D01*
X10301000Y-14501000D02*
X10401000Y-14501000D01*
X10486500Y-7581000D02*
X10486500Y-7681000D01*
X10436500Y-7631000D02*
X10536500Y-7631000D01*
X10605000Y-12673000D02*
X10605000Y-12773000D01*
X10555000Y-12723000D02*
X10655000Y-12723000D01*
X10605000Y-14451000D02*
X10605000Y-14551000D01*
X10555000Y-14501000D02*
X10655000Y-14501000D01*
X10740500Y-7581000D02*
X10740500Y-7681000D01*
X10690500Y-7631000D02*
X10790500Y-7631000D01*
X10859000Y-12673000D02*
X10859000Y-12773000D01*
X10809000Y-12723000D02*
X10909000Y-12723000D01*
X10859000Y-14451000D02*
X10859000Y-14551000D01*
X10809000Y-14501000D02*
X10909000Y-14501000D01*
X11113000Y-12673000D02*
X11113000Y-12773000D01*
X11063000Y-12723000D02*
X11163000Y-12723000D01*
X11113000Y-14451000D02*
X11113000Y-14551000D01*
X11063000Y-14501000D02*
X11163000Y-14501000D01*
X11297000Y-10406000D02*
X11297000Y-10506000D01*
X11247000Y-10456000D02*
X11347000Y-10456000D01*
X11297000Y-10660000D02*
X11297000Y-10760000D01*
X11247000Y-10710000D02*
X11347000Y-10710000D01*
X11367000Y-12673000D02*
X11367000Y-12773000D01*
X11317000Y-12723000D02*
X11417000Y-12723000D01*
X11367000Y-14451000D02*
X11367000Y-14551000D01*
X11317000Y-14501000D02*
X11417000Y-14501000D01*
X11621000Y-12673000D02*
X11621000Y-12773000D01*
X11571000Y-12723000D02*
X11671000Y-12723000D01*
X11621000Y-14451000D02*
X11621000Y-14551000D01*
X11571000Y-14501000D02*
X11671000Y-14501000D01*
X11875000Y-12673000D02*
X11875000Y-12773000D01*
X11825000Y-12723000D02*
X11925000Y-12723000D01*
X11875000Y-14451000D02*
X11875000Y-14551000D01*
X11825000Y-14501000D02*
X11925000Y-14501000D01*
X12129000Y-12673000D02*
X12129000Y-12773000D01*
X12079000Y-12723000D02*
X12179000Y-12723000D01*
X12129000Y-14451000D02*
X12129000Y-14551000D01*
X12079000Y-14501000D02*
X12179000Y-14501000D01*
X12383000Y-12673000D02*
X12383000Y-12773000D01*
X12333000Y-12723000D02*
X12433000Y-12723000D01*
X12383000Y-14451000D02*
X12383000Y-14551000D01*
X12333000Y-14501000D02*
X12433000Y-14501000D01*
X12637000Y-12673000D02*
X12637000Y-12773000D01*
X12587000Y-12723000D02*
X12687000Y-12723000D01*
X12637000Y-14451000D02*
X12637000Y-14551000D01*
X12587000Y-14501000D02*
X12687000Y-14501000D01*
X12891000Y-12673000D02*
X12891000Y-12773000D01*
X12841000Y-12723000D02*
X12941000Y-12723000D01*
X12891000Y-14451000D02*
X12891000Y-14551000D01*
X12841000Y-14501000D02*
X12941000Y-14501000D01*
X13145000Y-12673000D02*
X13145000Y-12773000D01*
X13095000Y-12723000D02*
X13195000Y-12723000D01*
X13145000Y-14451000D02*
X13145000Y-14551000D01*
X13095000Y-14501000D02*
X13195000Y-14501000D01*
X13399000Y-12673000D02*
X13399000Y-12773000D01*
X13349000Y-12723000D02*
X13449000Y-12723000D01*
X13399000Y-14451000D02*
X13399000Y-14551000D01*
X13349000Y-14501000D02*
X13449000Y-14501000D01*
D13*
X8924962Y-11080962D02*
X8924962Y-10989038D01*
X8833038Y-10989038D01*
X8833038Y-11080962D01*
X8924962Y-11080962D01*
X8924962Y-11580962D02*
X8924962Y-11489038D01*
X8833038Y-11489038D01*
X8833038Y-11580962D01*
X8924962Y-11580962D01*
X10420962Y-6428962D02*
X10420962Y-6337038D01*
X10329038Y-6337038D01*
X10329038Y-6428962D01*
X10420962Y-6428962D01*
X10920962Y-6428962D02*
X10920962Y-6337038D01*
X10829038Y-6337038D01*
X10829038Y-6428962D01*
X10920962Y-6428962D01*
X12705462Y-6428962D02*
X12705462Y-6337038D01*
X12613538Y-6337038D01*
X12613538Y-6428962D01*
X12705462Y-6428962D01*
X13198462Y-9259962D02*
X13198462Y-9168038D01*
X13106538Y-9168038D01*
X13106538Y-9259962D01*
X13198462Y-9259962D01*
X13198462Y-9759962D02*
X13198462Y-9668038D01*
X13106538Y-9668038D01*
X13106538Y-9759962D01*
X13198462Y-9759962D01*
X13205462Y-6428962D02*
X13205462Y-6337038D01*
X13113538Y-6337038D01*
X13113538Y-6428962D01*
X13205462Y-6428962D01*
D14*
X9585000Y-7714000D02*
X9665000Y-7634000D01*
X9585000Y-7554000D01*
X9505000Y-7634000D01*
X9585000Y-7714000D01*
X9616000Y-8681000D02*
X9696000Y-8601000D01*
X9616000Y-8521000D01*
X9536000Y-8601000D01*
X9616000Y-8681000D01*
X9616000Y-10519000D02*
X9696000Y-10439000D01*
X9616000Y-10359000D01*
X9536000Y-10439000D01*
X9616000Y-10519000D01*
X9808000Y-11183000D02*
X9888000Y-11103000D01*
X9808000Y-11023000D01*
X9728000Y-11103000D01*
X9808000Y-11183000D01*
X10194000Y-8830000D02*
X10274000Y-8750000D01*
X10194000Y-8670000D01*
X10114000Y-8750000D01*
X10194000Y-8830000D01*
X10758000Y-8978000D02*
X10838000Y-8898000D01*
X10758000Y-8818000D01*
X10678000Y-8898000D01*
X10758000Y-8978000D01*
X10944000Y-10115000D02*
X11024000Y-10035000D01*
X10944000Y-9955000D01*
X10864000Y-10035000D01*
X10944000Y-10115000D01*
X11648000Y-7704000D02*
X11728000Y-7624000D01*
X11648000Y-7544000D01*
X11568000Y-7624000D01*
X11648000Y-7704000D01*
X11648000Y-8327000D02*
X11728000Y-8247000D01*
X11648000Y-8167000D01*
X11568000Y-8247000D01*
X11648000Y-8327000D01*
X11819000Y-10930000D02*
X11899000Y-10850000D01*
X11819000Y-10770000D01*
X11739000Y-10850000D01*
X11819000Y-10930000D01*
X11840000Y-10303000D02*
X11920000Y-10223000D01*
X11840000Y-10143000D01*
X11760000Y-10223000D01*
X11840000Y-10303000D01*
X11932000Y-9522000D02*
X12012000Y-9442000D01*
X11932000Y-9362000D01*
X11852000Y-9442000D01*
X11932000Y-9522000D01*
X12520000Y-10303000D02*
X12600000Y-10223000D01*
X12520000Y-10143000D01*
X12440000Y-10223000D01*
X12520000Y-10303000D01*
X13155000Y-7713000D02*
X13235000Y-7633000D01*
X13155000Y-7553000D01*
X13075000Y-7633000D01*
X13155000Y-7713000D01*
X13158000Y-8378000D02*
X13238000Y-8298000D01*
X13158000Y-8218000D01*
X13078000Y-8298000D01*
X13158000Y-8378000D01*
D11*
X8674277Y-15052984D02*
X8674277Y-14852984D01*
X8674277Y-14852984D02*
X8721896Y-14852984D01*
X8721896Y-14852984D02*
X8750467Y-14862508D01*
X8750467Y-14862508D02*
X8769515Y-14881555D01*
X8769515Y-14881555D02*
X8779039Y-14900603D01*
X8779039Y-14900603D02*
X8788563Y-14938698D01*
X8788563Y-14938698D02*
X8788563Y-14967269D01*
X8788563Y-14967269D02*
X8779039Y-15005365D01*
X8779039Y-15005365D02*
X8769515Y-15024412D01*
X8769515Y-15024412D02*
X8750467Y-15043460D01*
X8750467Y-15043460D02*
X8721896Y-15052984D01*
X8721896Y-15052984D02*
X8674277Y-15052984D01*
X8874277Y-15052984D02*
X8874277Y-14919650D01*
X8874277Y-14957746D02*
X8883801Y-14938698D01*
X8883801Y-14938698D02*
X8893324Y-14929174D01*
X8893324Y-14929174D02*
X8912372Y-14919650D01*
X8912372Y-14919650D02*
X8931420Y-14919650D01*
X8998086Y-15052984D02*
X8998086Y-14919650D01*
X8998086Y-14852984D02*
X8988563Y-14862508D01*
X8988563Y-14862508D02*
X8998086Y-14872031D01*
X8998086Y-14872031D02*
X9007610Y-14862508D01*
X9007610Y-14862508D02*
X8998086Y-14852984D01*
X8998086Y-14852984D02*
X8998086Y-14872031D01*
X9121896Y-15052984D02*
X9102848Y-15043460D01*
X9102848Y-15043460D02*
X9093324Y-15024412D01*
X9093324Y-15024412D02*
X9093324Y-14852984D01*
X9226658Y-15052984D02*
X9207610Y-15043460D01*
X9207610Y-15043460D02*
X9198086Y-15024412D01*
X9198086Y-15024412D02*
X9198086Y-14852984D01*
X9455229Y-15052984D02*
X9455229Y-14852984D01*
X9455229Y-14852984D02*
X9521896Y-14995841D01*
X9521896Y-14995841D02*
X9588563Y-14852984D01*
X9588563Y-14852984D02*
X9588563Y-15052984D01*
X9769515Y-15052984D02*
X9769515Y-14948222D01*
X9769515Y-14948222D02*
X9759991Y-14929174D01*
X9759991Y-14929174D02*
X9740944Y-14919650D01*
X9740944Y-14919650D02*
X9702848Y-14919650D01*
X9702848Y-14919650D02*
X9683801Y-14929174D01*
X9769515Y-15043460D02*
X9750467Y-15052984D01*
X9750467Y-15052984D02*
X9702848Y-15052984D01*
X9702848Y-15052984D02*
X9683801Y-15043460D01*
X9683801Y-15043460D02*
X9674277Y-15024412D01*
X9674277Y-15024412D02*
X9674277Y-15005365D01*
X9674277Y-15005365D02*
X9683801Y-14986317D01*
X9683801Y-14986317D02*
X9702848Y-14976793D01*
X9702848Y-14976793D02*
X9750467Y-14976793D01*
X9750467Y-14976793D02*
X9769515Y-14967269D01*
X9864753Y-14919650D02*
X9864753Y-15119650D01*
X9864753Y-14929174D02*
X9883801Y-14919650D01*
X9883801Y-14919650D02*
X9921896Y-14919650D01*
X9921896Y-14919650D02*
X9940944Y-14929174D01*
X9940944Y-14929174D02*
X9950467Y-14938698D01*
X9950467Y-14938698D02*
X9959991Y-14957746D01*
X9959991Y-14957746D02*
X9959991Y-15014888D01*
X9959991Y-15014888D02*
X9950467Y-15033936D01*
X9950467Y-15033936D02*
X9940944Y-15043460D01*
X9940944Y-15043460D02*
X9921896Y-15052984D01*
X9921896Y-15052984D02*
X9883801Y-15052984D01*
X9883801Y-15052984D02*
X9864753Y-15043460D01*
X10045705Y-15033936D02*
X10055229Y-15043460D01*
X10055229Y-15043460D02*
X10045705Y-15052984D01*
X10045705Y-15052984D02*
X10036182Y-15043460D01*
X10036182Y-15043460D02*
X10045705Y-15033936D01*
X10045705Y-15033936D02*
X10045705Y-15052984D01*
X10045705Y-14929174D02*
X10055229Y-14938698D01*
X10055229Y-14938698D02*
X10045705Y-14948222D01*
X10045705Y-14948222D02*
X10036182Y-14938698D01*
X10036182Y-14938698D02*
X10045705Y-14929174D01*
X10045705Y-14929174D02*
X10045705Y-14948222D01*
D12*
X8383500Y-15366500D02*
X8413500Y-15396500D01*
X8413500Y-15366500D02*
X8383500Y-15396500D01*
D11*
X8712372Y-15272984D02*
X8731420Y-15272984D01*
X8731420Y-15272984D02*
X8750467Y-15282508D01*
X8750467Y-15282508D02*
X8759991Y-15292031D01*
X8759991Y-15292031D02*
X8769515Y-15311079D01*
X8769515Y-15311079D02*
X8779039Y-15349174D01*
X8779039Y-15349174D02*
X8779039Y-15396793D01*
X8779039Y-15396793D02*
X8769515Y-15434888D01*
X8769515Y-15434888D02*
X8759991Y-15453936D01*
X8759991Y-15453936D02*
X8750467Y-15463460D01*
X8750467Y-15463460D02*
X8731420Y-15472984D01*
X8731420Y-15472984D02*
X8712372Y-15472984D01*
X8712372Y-15472984D02*
X8693324Y-15463460D01*
X8693324Y-15463460D02*
X8683801Y-15453936D01*
X8683801Y-15453936D02*
X8674277Y-15434888D01*
X8674277Y-15434888D02*
X8664753Y-15396793D01*
X8664753Y-15396793D02*
X8664753Y-15349174D01*
X8664753Y-15349174D02*
X8674277Y-15311079D01*
X8674277Y-15311079D02*
X8683801Y-15292031D01*
X8683801Y-15292031D02*
X8693324Y-15282508D01*
X8693324Y-15282508D02*
X8712372Y-15272984D01*
X8864753Y-15453936D02*
X8874277Y-15463460D01*
X8874277Y-15463460D02*
X8864753Y-15472984D01*
X8864753Y-15472984D02*
X8855229Y-15463460D01*
X8855229Y-15463460D02*
X8864753Y-15453936D01*
X8864753Y-15453936D02*
X8864753Y-15472984D01*
X8940944Y-15272984D02*
X9064753Y-15272984D01*
X9064753Y-15272984D02*
X8998086Y-15349174D01*
X8998086Y-15349174D02*
X9026658Y-15349174D01*
X9026658Y-15349174D02*
X9045705Y-15358698D01*
X9045705Y-15358698D02*
X9055229Y-15368222D01*
X9055229Y-15368222D02*
X9064753Y-15387269D01*
X9064753Y-15387269D02*
X9064753Y-15434888D01*
X9064753Y-15434888D02*
X9055229Y-15453936D01*
X9055229Y-15453936D02*
X9045705Y-15463460D01*
X9045705Y-15463460D02*
X9026658Y-15472984D01*
X9026658Y-15472984D02*
X8969515Y-15472984D01*
X8969515Y-15472984D02*
X8950467Y-15463460D01*
X8950467Y-15463460D02*
X8940944Y-15453936D01*
X9188563Y-15272984D02*
X9207610Y-15272984D01*
X9207610Y-15272984D02*
X9226658Y-15282508D01*
X9226658Y-15282508D02*
X9236182Y-15292031D01*
X9236182Y-15292031D02*
X9245705Y-15311079D01*
X9245705Y-15311079D02*
X9255229Y-15349174D01*
X9255229Y-15349174D02*
X9255229Y-15396793D01*
X9255229Y-15396793D02*
X9245705Y-15434888D01*
X9245705Y-15434888D02*
X9236182Y-15453936D01*
X9236182Y-15453936D02*
X9226658Y-15463460D01*
X9226658Y-15463460D02*
X9207610Y-15472984D01*
X9207610Y-15472984D02*
X9188563Y-15472984D01*
X9188563Y-15472984D02*
X9169515Y-15463460D01*
X9169515Y-15463460D02*
X9159991Y-15453936D01*
X9159991Y-15453936D02*
X9150467Y-15434888D01*
X9150467Y-15434888D02*
X9140944Y-15396793D01*
X9140944Y-15396793D02*
X9140944Y-15349174D01*
X9140944Y-15349174D02*
X9150467Y-15311079D01*
X9150467Y-15311079D02*
X9159991Y-15292031D01*
X9159991Y-15292031D02*
X9169515Y-15282508D01*
X9169515Y-15282508D02*
X9188563Y-15272984D01*
X9379039Y-15272984D02*
X9398086Y-15272984D01*
X9398086Y-15272984D02*
X9417134Y-15282508D01*
X9417134Y-15282508D02*
X9426658Y-15292031D01*
X9426658Y-15292031D02*
X9436182Y-15311079D01*
X9436182Y-15311079D02*
X9445705Y-15349174D01*
X9445705Y-15349174D02*
X9445705Y-15396793D01*
X9445705Y-15396793D02*
X9436182Y-15434888D01*
X9436182Y-15434888D02*
X9426658Y-15453936D01*
X9426658Y-15453936D02*
X9417134Y-15463460D01*
X9417134Y-15463460D02*
X9398086Y-15472984D01*
X9398086Y-15472984D02*
X9379039Y-15472984D01*
X9379039Y-15472984D02*
X9359991Y-15463460D01*
X9359991Y-15463460D02*
X9350467Y-15453936D01*
X9350467Y-15453936D02*
X9340944Y-15434888D01*
X9340944Y-15434888D02*
X9331420Y-15396793D01*
X9331420Y-15396793D02*
X9331420Y-15349174D01*
X9331420Y-15349174D02*
X9340944Y-15311079D01*
X9340944Y-15311079D02*
X9350467Y-15292031D01*
X9350467Y-15292031D02*
X9359991Y-15282508D01*
X9359991Y-15282508D02*
X9379039Y-15272984D01*
X9531420Y-15472984D02*
X9531420Y-15339650D01*
X9531420Y-15358698D02*
X9540944Y-15349174D01*
X9540944Y-15349174D02*
X9559991Y-15339650D01*
X9559991Y-15339650D02*
X9588563Y-15339650D01*
X9588563Y-15339650D02*
X9607610Y-15349174D01*
X9607610Y-15349174D02*
X9617134Y-15368222D01*
X9617134Y-15368222D02*
X9617134Y-15472984D01*
X9617134Y-15368222D02*
X9626658Y-15349174D01*
X9626658Y-15349174D02*
X9645705Y-15339650D01*
X9645705Y-15339650D02*
X9674277Y-15339650D01*
X9674277Y-15339650D02*
X9693325Y-15349174D01*
X9693325Y-15349174D02*
X9702848Y-15368222D01*
X9702848Y-15368222D02*
X9702848Y-15472984D01*
X9798086Y-15472984D02*
X9798086Y-15339650D01*
X9798086Y-15358698D02*
X9807610Y-15349174D01*
X9807610Y-15349174D02*
X9826658Y-15339650D01*
X9826658Y-15339650D02*
X9855229Y-15339650D01*
X9855229Y-15339650D02*
X9874277Y-15349174D01*
X9874277Y-15349174D02*
X9883801Y-15368222D01*
X9883801Y-15368222D02*
X9883801Y-15472984D01*
X9883801Y-15368222D02*
X9893325Y-15349174D01*
X9893325Y-15349174D02*
X9912372Y-15339650D01*
X9912372Y-15339650D02*
X9940944Y-15339650D01*
X9940944Y-15339650D02*
X9959991Y-15349174D01*
X9959991Y-15349174D02*
X9969515Y-15368222D01*
X9969515Y-15368222D02*
X9969515Y-15472984D01*
X10359991Y-15263460D02*
X10188563Y-15520603D01*
X10617134Y-15272984D02*
X10636182Y-15272984D01*
X10636182Y-15272984D02*
X10655229Y-15282508D01*
X10655229Y-15282508D02*
X10664753Y-15292031D01*
X10664753Y-15292031D02*
X10674277Y-15311079D01*
X10674277Y-15311079D02*
X10683801Y-15349174D01*
X10683801Y-15349174D02*
X10683801Y-15396793D01*
X10683801Y-15396793D02*
X10674277Y-15434888D01*
X10674277Y-15434888D02*
X10664753Y-15453936D01*
X10664753Y-15453936D02*
X10655229Y-15463460D01*
X10655229Y-15463460D02*
X10636182Y-15472984D01*
X10636182Y-15472984D02*
X10617134Y-15472984D01*
X10617134Y-15472984D02*
X10598087Y-15463460D01*
X10598087Y-15463460D02*
X10588563Y-15453936D01*
X10588563Y-15453936D02*
X10579039Y-15434888D01*
X10579039Y-15434888D02*
X10569515Y-15396793D01*
X10569515Y-15396793D02*
X10569515Y-15349174D01*
X10569515Y-15349174D02*
X10579039Y-15311079D01*
X10579039Y-15311079D02*
X10588563Y-15292031D01*
X10588563Y-15292031D02*
X10598087Y-15282508D01*
X10598087Y-15282508D02*
X10617134Y-15272984D01*
X10769515Y-15453936D02*
X10779039Y-15463460D01*
X10779039Y-15463460D02*
X10769515Y-15472984D01*
X10769515Y-15472984D02*
X10759991Y-15463460D01*
X10759991Y-15463460D02*
X10769515Y-15453936D01*
X10769515Y-15453936D02*
X10769515Y-15472984D01*
X10902848Y-15272984D02*
X10921896Y-15272984D01*
X10921896Y-15272984D02*
X10940944Y-15282508D01*
X10940944Y-15282508D02*
X10950468Y-15292031D01*
X10950468Y-15292031D02*
X10959991Y-15311079D01*
X10959991Y-15311079D02*
X10969515Y-15349174D01*
X10969515Y-15349174D02*
X10969515Y-15396793D01*
X10969515Y-15396793D02*
X10959991Y-15434888D01*
X10959991Y-15434888D02*
X10950468Y-15453936D01*
X10950468Y-15453936D02*
X10940944Y-15463460D01*
X10940944Y-15463460D02*
X10921896Y-15472984D01*
X10921896Y-15472984D02*
X10902848Y-15472984D01*
X10902848Y-15472984D02*
X10883801Y-15463460D01*
X10883801Y-15463460D02*
X10874277Y-15453936D01*
X10874277Y-15453936D02*
X10864753Y-15434888D01*
X10864753Y-15434888D02*
X10855229Y-15396793D01*
X10855229Y-15396793D02*
X10855229Y-15349174D01*
X10855229Y-15349174D02*
X10864753Y-15311079D01*
X10864753Y-15311079D02*
X10874277Y-15292031D01*
X10874277Y-15292031D02*
X10883801Y-15282508D01*
X10883801Y-15282508D02*
X10902848Y-15272984D01*
X11159991Y-15472984D02*
X11045706Y-15472984D01*
X11102848Y-15472984D02*
X11102848Y-15272984D01*
X11102848Y-15272984D02*
X11083801Y-15301555D01*
X11083801Y-15301555D02*
X11064753Y-15320603D01*
X11064753Y-15320603D02*
X11045706Y-15330127D01*
X11350467Y-15472984D02*
X11236182Y-15472984D01*
X11293325Y-15472984D02*
X11293325Y-15272984D01*
X11293325Y-15272984D02*
X11274277Y-15301555D01*
X11274277Y-15301555D02*
X11255229Y-15320603D01*
X11255229Y-15320603D02*
X11236182Y-15330127D01*
X11464753Y-15358698D02*
X11445706Y-15349174D01*
X11445706Y-15349174D02*
X11436182Y-15339650D01*
X11436182Y-15339650D02*
X11426658Y-15320603D01*
X11426658Y-15320603D02*
X11426658Y-15311079D01*
X11426658Y-15311079D02*
X11436182Y-15292031D01*
X11436182Y-15292031D02*
X11445706Y-15282508D01*
X11445706Y-15282508D02*
X11464753Y-15272984D01*
X11464753Y-15272984D02*
X11502848Y-15272984D01*
X11502848Y-15272984D02*
X11521896Y-15282508D01*
X11521896Y-15282508D02*
X11531420Y-15292031D01*
X11531420Y-15292031D02*
X11540944Y-15311079D01*
X11540944Y-15311079D02*
X11540944Y-15320603D01*
X11540944Y-15320603D02*
X11531420Y-15339650D01*
X11531420Y-15339650D02*
X11521896Y-15349174D01*
X11521896Y-15349174D02*
X11502848Y-15358698D01*
X11502848Y-15358698D02*
X11464753Y-15358698D01*
X11464753Y-15358698D02*
X11445706Y-15368222D01*
X11445706Y-15368222D02*
X11436182Y-15377746D01*
X11436182Y-15377746D02*
X11426658Y-15396793D01*
X11426658Y-15396793D02*
X11426658Y-15434888D01*
X11426658Y-15434888D02*
X11436182Y-15453936D01*
X11436182Y-15453936D02*
X11445706Y-15463460D01*
X11445706Y-15463460D02*
X11464753Y-15472984D01*
X11464753Y-15472984D02*
X11502848Y-15472984D01*
X11502848Y-15472984D02*
X11521896Y-15463460D01*
X11521896Y-15463460D02*
X11531420Y-15453936D01*
X11531420Y-15453936D02*
X11540944Y-15434888D01*
X11540944Y-15434888D02*
X11540944Y-15396793D01*
X11540944Y-15396793D02*
X11531420Y-15377746D01*
X11531420Y-15377746D02*
X11521896Y-15368222D01*
X11521896Y-15368222D02*
X11502848Y-15358698D01*
X11617134Y-15272984D02*
X11617134Y-15311079D01*
X11693325Y-15272984D02*
X11693325Y-15311079D01*
X11988563Y-15549174D02*
X11979039Y-15539650D01*
X11979039Y-15539650D02*
X11959991Y-15511079D01*
X11959991Y-15511079D02*
X11950468Y-15492031D01*
X11950468Y-15492031D02*
X11940944Y-15463460D01*
X11940944Y-15463460D02*
X11931420Y-15415841D01*
X11931420Y-15415841D02*
X11931420Y-15377746D01*
X11931420Y-15377746D02*
X11940944Y-15330127D01*
X11940944Y-15330127D02*
X11950468Y-15301555D01*
X11950468Y-15301555D02*
X11959991Y-15282508D01*
X11959991Y-15282508D02*
X11979039Y-15253936D01*
X11979039Y-15253936D02*
X11988563Y-15244412D01*
X12169515Y-15472984D02*
X12055229Y-15472984D01*
X12112372Y-15472984D02*
X12112372Y-15272984D01*
X12112372Y-15272984D02*
X12093325Y-15301555D01*
X12093325Y-15301555D02*
X12074277Y-15320603D01*
X12074277Y-15320603D02*
X12055229Y-15330127D01*
X12359991Y-15472984D02*
X12245706Y-15472984D01*
X12302848Y-15472984D02*
X12302848Y-15272984D01*
X12302848Y-15272984D02*
X12283801Y-15301555D01*
X12283801Y-15301555D02*
X12264753Y-15320603D01*
X12264753Y-15320603D02*
X12245706Y-15330127D01*
X12550468Y-15472984D02*
X12436182Y-15472984D01*
X12493325Y-15472984D02*
X12493325Y-15272984D01*
X12493325Y-15272984D02*
X12474277Y-15301555D01*
X12474277Y-15301555D02*
X12455229Y-15320603D01*
X12455229Y-15320603D02*
X12436182Y-15330127D01*
X12788563Y-15472984D02*
X12788563Y-15272984D01*
X12874277Y-15472984D02*
X12874277Y-15368222D01*
X12874277Y-15368222D02*
X12864753Y-15349174D01*
X12864753Y-15349174D02*
X12845706Y-15339650D01*
X12845706Y-15339650D02*
X12817134Y-15339650D01*
X12817134Y-15339650D02*
X12798087Y-15349174D01*
X12798087Y-15349174D02*
X12788563Y-15358698D01*
X12998087Y-15472984D02*
X12979039Y-15463460D01*
X12979039Y-15463460D02*
X12969515Y-15453936D01*
X12969515Y-15453936D02*
X12959991Y-15434888D01*
X12959991Y-15434888D02*
X12959991Y-15377746D01*
X12959991Y-15377746D02*
X12969515Y-15358698D01*
X12969515Y-15358698D02*
X12979039Y-15349174D01*
X12979039Y-15349174D02*
X12998087Y-15339650D01*
X12998087Y-15339650D02*
X13026658Y-15339650D01*
X13026658Y-15339650D02*
X13045706Y-15349174D01*
X13045706Y-15349174D02*
X13055230Y-15358698D01*
X13055230Y-15358698D02*
X13064753Y-15377746D01*
X13064753Y-15377746D02*
X13064753Y-15434888D01*
X13064753Y-15434888D02*
X13055230Y-15453936D01*
X13055230Y-15453936D02*
X13045706Y-15463460D01*
X13045706Y-15463460D02*
X13026658Y-15472984D01*
X13026658Y-15472984D02*
X12998087Y-15472984D01*
X13179039Y-15472984D02*
X13159991Y-15463460D01*
X13159991Y-15463460D02*
X13150468Y-15444412D01*
X13150468Y-15444412D02*
X13150468Y-15272984D01*
X13331420Y-15463460D02*
X13312372Y-15472984D01*
X13312372Y-15472984D02*
X13274277Y-15472984D01*
X13274277Y-15472984D02*
X13255230Y-15463460D01*
X13255230Y-15463460D02*
X13245706Y-15444412D01*
X13245706Y-15444412D02*
X13245706Y-15368222D01*
X13245706Y-15368222D02*
X13255230Y-15349174D01*
X13255230Y-15349174D02*
X13274277Y-15339650D01*
X13274277Y-15339650D02*
X13312372Y-15339650D01*
X13312372Y-15339650D02*
X13331420Y-15349174D01*
X13331420Y-15349174D02*
X13340944Y-15368222D01*
X13340944Y-15368222D02*
X13340944Y-15387269D01*
X13340944Y-15387269D02*
X13245706Y-15406317D01*
X13417134Y-15463460D02*
X13436182Y-15472984D01*
X13436182Y-15472984D02*
X13474277Y-15472984D01*
X13474277Y-15472984D02*
X13493325Y-15463460D01*
X13493325Y-15463460D02*
X13502849Y-15444412D01*
X13502849Y-15444412D02*
X13502849Y-15434888D01*
X13502849Y-15434888D02*
X13493325Y-15415841D01*
X13493325Y-15415841D02*
X13474277Y-15406317D01*
X13474277Y-15406317D02*
X13445706Y-15406317D01*
X13445706Y-15406317D02*
X13426658Y-15396793D01*
X13426658Y-15396793D02*
X13417134Y-15377746D01*
X13417134Y-15377746D02*
X13417134Y-15368222D01*
X13417134Y-15368222D02*
X13426658Y-15349174D01*
X13426658Y-15349174D02*
X13445706Y-15339650D01*
X13445706Y-15339650D02*
X13474277Y-15339650D01*
X13474277Y-15339650D02*
X13493325Y-15349174D01*
X13569515Y-15549174D02*
X13579039Y-15539650D01*
X13579039Y-15539650D02*
X13598087Y-15511079D01*
X13598087Y-15511079D02*
X13607611Y-15492031D01*
X13607611Y-15492031D02*
X13617134Y-15463460D01*
X13617134Y-15463460D02*
X13626658Y-15415841D01*
X13626658Y-15415841D02*
X13626658Y-15377746D01*
X13626658Y-15377746D02*
X13617134Y-15330127D01*
X13617134Y-15330127D02*
X13607611Y-15301555D01*
X13607611Y-15301555D02*
X13598087Y-15282508D01*
X13598087Y-15282508D02*
X13579039Y-15253936D01*
X13579039Y-15253936D02*
X13569515Y-15244412D01*
D12*
X8413500Y-15645500D02*
G75*
G02*
X8333500Y-15645500I-40000J0D01*
G01*
X8333500Y-15645500D02*
G75*
G02*
X8413500Y-15645500I40000J0D01*
G01*
D11*
X8712372Y-15536984D02*
X8731420Y-15536984D01*
X8731420Y-15536984D02*
X8750467Y-15546508D01*
X8750467Y-15546508D02*
X8759991Y-15556031D01*
X8759991Y-15556031D02*
X8769515Y-15575079D01*
X8769515Y-15575079D02*
X8779039Y-15613174D01*
X8779039Y-15613174D02*
X8779039Y-15660793D01*
X8779039Y-15660793D02*
X8769515Y-15698888D01*
X8769515Y-15698888D02*
X8759991Y-15717936D01*
X8759991Y-15717936D02*
X8750467Y-15727460D01*
X8750467Y-15727460D02*
X8731420Y-15736984D01*
X8731420Y-15736984D02*
X8712372Y-15736984D01*
X8712372Y-15736984D02*
X8693324Y-15727460D01*
X8693324Y-15727460D02*
X8683801Y-15717936D01*
X8683801Y-15717936D02*
X8674277Y-15698888D01*
X8674277Y-15698888D02*
X8664753Y-15660793D01*
X8664753Y-15660793D02*
X8664753Y-15613174D01*
X8664753Y-15613174D02*
X8674277Y-15575079D01*
X8674277Y-15575079D02*
X8683801Y-15556031D01*
X8683801Y-15556031D02*
X8693324Y-15546508D01*
X8693324Y-15546508D02*
X8712372Y-15536984D01*
X8864753Y-15717936D02*
X8874277Y-15727460D01*
X8874277Y-15727460D02*
X8864753Y-15736984D01*
X8864753Y-15736984D02*
X8855229Y-15727460D01*
X8855229Y-15727460D02*
X8864753Y-15717936D01*
X8864753Y-15717936D02*
X8864753Y-15736984D01*
X8988563Y-15622698D02*
X8969515Y-15613174D01*
X8969515Y-15613174D02*
X8959991Y-15603650D01*
X8959991Y-15603650D02*
X8950467Y-15584603D01*
X8950467Y-15584603D02*
X8950467Y-15575079D01*
X8950467Y-15575079D02*
X8959991Y-15556031D01*
X8959991Y-15556031D02*
X8969515Y-15546508D01*
X8969515Y-15546508D02*
X8988563Y-15536984D01*
X8988563Y-15536984D02*
X9026658Y-15536984D01*
X9026658Y-15536984D02*
X9045705Y-15546508D01*
X9045705Y-15546508D02*
X9055229Y-15556031D01*
X9055229Y-15556031D02*
X9064753Y-15575079D01*
X9064753Y-15575079D02*
X9064753Y-15584603D01*
X9064753Y-15584603D02*
X9055229Y-15603650D01*
X9055229Y-15603650D02*
X9045705Y-15613174D01*
X9045705Y-15613174D02*
X9026658Y-15622698D01*
X9026658Y-15622698D02*
X8988563Y-15622698D01*
X8988563Y-15622698D02*
X8969515Y-15632222D01*
X8969515Y-15632222D02*
X8959991Y-15641746D01*
X8959991Y-15641746D02*
X8950467Y-15660793D01*
X8950467Y-15660793D02*
X8950467Y-15698888D01*
X8950467Y-15698888D02*
X8959991Y-15717936D01*
X8959991Y-15717936D02*
X8969515Y-15727460D01*
X8969515Y-15727460D02*
X8988563Y-15736984D01*
X8988563Y-15736984D02*
X9026658Y-15736984D01*
X9026658Y-15736984D02*
X9045705Y-15727460D01*
X9045705Y-15727460D02*
X9055229Y-15717936D01*
X9055229Y-15717936D02*
X9064753Y-15698888D01*
X9064753Y-15698888D02*
X9064753Y-15660793D01*
X9064753Y-15660793D02*
X9055229Y-15641746D01*
X9055229Y-15641746D02*
X9045705Y-15632222D01*
X9045705Y-15632222D02*
X9026658Y-15622698D01*
X9188563Y-15536984D02*
X9207610Y-15536984D01*
X9207610Y-15536984D02*
X9226658Y-15546508D01*
X9226658Y-15546508D02*
X9236182Y-15556031D01*
X9236182Y-15556031D02*
X9245705Y-15575079D01*
X9245705Y-15575079D02*
X9255229Y-15613174D01*
X9255229Y-15613174D02*
X9255229Y-15660793D01*
X9255229Y-15660793D02*
X9245705Y-15698888D01*
X9245705Y-15698888D02*
X9236182Y-15717936D01*
X9236182Y-15717936D02*
X9226658Y-15727460D01*
X9226658Y-15727460D02*
X9207610Y-15736984D01*
X9207610Y-15736984D02*
X9188563Y-15736984D01*
X9188563Y-15736984D02*
X9169515Y-15727460D01*
X9169515Y-15727460D02*
X9159991Y-15717936D01*
X9159991Y-15717936D02*
X9150467Y-15698888D01*
X9150467Y-15698888D02*
X9140944Y-15660793D01*
X9140944Y-15660793D02*
X9140944Y-15613174D01*
X9140944Y-15613174D02*
X9150467Y-15575079D01*
X9150467Y-15575079D02*
X9159991Y-15556031D01*
X9159991Y-15556031D02*
X9169515Y-15546508D01*
X9169515Y-15546508D02*
X9188563Y-15536984D01*
X9379039Y-15536984D02*
X9398086Y-15536984D01*
X9398086Y-15536984D02*
X9417134Y-15546508D01*
X9417134Y-15546508D02*
X9426658Y-15556031D01*
X9426658Y-15556031D02*
X9436182Y-15575079D01*
X9436182Y-15575079D02*
X9445705Y-15613174D01*
X9445705Y-15613174D02*
X9445705Y-15660793D01*
X9445705Y-15660793D02*
X9436182Y-15698888D01*
X9436182Y-15698888D02*
X9426658Y-15717936D01*
X9426658Y-15717936D02*
X9417134Y-15727460D01*
X9417134Y-15727460D02*
X9398086Y-15736984D01*
X9398086Y-15736984D02*
X9379039Y-15736984D01*
X9379039Y-15736984D02*
X9359991Y-15727460D01*
X9359991Y-15727460D02*
X9350467Y-15717936D01*
X9350467Y-15717936D02*
X9340944Y-15698888D01*
X9340944Y-15698888D02*
X9331420Y-15660793D01*
X9331420Y-15660793D02*
X9331420Y-15613174D01*
X9331420Y-15613174D02*
X9340944Y-15575079D01*
X9340944Y-15575079D02*
X9350467Y-15556031D01*
X9350467Y-15556031D02*
X9359991Y-15546508D01*
X9359991Y-15546508D02*
X9379039Y-15536984D01*
X9531420Y-15736984D02*
X9531420Y-15603650D01*
X9531420Y-15622698D02*
X9540944Y-15613174D01*
X9540944Y-15613174D02*
X9559991Y-15603650D01*
X9559991Y-15603650D02*
X9588563Y-15603650D01*
X9588563Y-15603650D02*
X9607610Y-15613174D01*
X9607610Y-15613174D02*
X9617134Y-15632222D01*
X9617134Y-15632222D02*
X9617134Y-15736984D01*
X9617134Y-15632222D02*
X9626658Y-15613174D01*
X9626658Y-15613174D02*
X9645705Y-15603650D01*
X9645705Y-15603650D02*
X9674277Y-15603650D01*
X9674277Y-15603650D02*
X9693325Y-15613174D01*
X9693325Y-15613174D02*
X9702848Y-15632222D01*
X9702848Y-15632222D02*
X9702848Y-15736984D01*
X9798086Y-15736984D02*
X9798086Y-15603650D01*
X9798086Y-15622698D02*
X9807610Y-15613174D01*
X9807610Y-15613174D02*
X9826658Y-15603650D01*
X9826658Y-15603650D02*
X9855229Y-15603650D01*
X9855229Y-15603650D02*
X9874277Y-15613174D01*
X9874277Y-15613174D02*
X9883801Y-15632222D01*
X9883801Y-15632222D02*
X9883801Y-15736984D01*
X9883801Y-15632222D02*
X9893325Y-15613174D01*
X9893325Y-15613174D02*
X9912372Y-15603650D01*
X9912372Y-15603650D02*
X9940944Y-15603650D01*
X9940944Y-15603650D02*
X9959991Y-15613174D01*
X9959991Y-15613174D02*
X9969515Y-15632222D01*
X9969515Y-15632222D02*
X9969515Y-15736984D01*
X10359991Y-15527460D02*
X10188563Y-15784603D01*
X10617134Y-15536984D02*
X10636182Y-15536984D01*
X10636182Y-15536984D02*
X10655229Y-15546508D01*
X10655229Y-15546508D02*
X10664753Y-15556031D01*
X10664753Y-15556031D02*
X10674277Y-15575079D01*
X10674277Y-15575079D02*
X10683801Y-15613174D01*
X10683801Y-15613174D02*
X10683801Y-15660793D01*
X10683801Y-15660793D02*
X10674277Y-15698888D01*
X10674277Y-15698888D02*
X10664753Y-15717936D01*
X10664753Y-15717936D02*
X10655229Y-15727460D01*
X10655229Y-15727460D02*
X10636182Y-15736984D01*
X10636182Y-15736984D02*
X10617134Y-15736984D01*
X10617134Y-15736984D02*
X10598087Y-15727460D01*
X10598087Y-15727460D02*
X10588563Y-15717936D01*
X10588563Y-15717936D02*
X10579039Y-15698888D01*
X10579039Y-15698888D02*
X10569515Y-15660793D01*
X10569515Y-15660793D02*
X10569515Y-15613174D01*
X10569515Y-15613174D02*
X10579039Y-15575079D01*
X10579039Y-15575079D02*
X10588563Y-15556031D01*
X10588563Y-15556031D02*
X10598087Y-15546508D01*
X10598087Y-15546508D02*
X10617134Y-15536984D01*
X10769515Y-15717936D02*
X10779039Y-15727460D01*
X10779039Y-15727460D02*
X10769515Y-15736984D01*
X10769515Y-15736984D02*
X10759991Y-15727460D01*
X10759991Y-15727460D02*
X10769515Y-15717936D01*
X10769515Y-15717936D02*
X10769515Y-15736984D01*
X10902848Y-15536984D02*
X10921896Y-15536984D01*
X10921896Y-15536984D02*
X10940944Y-15546508D01*
X10940944Y-15546508D02*
X10950468Y-15556031D01*
X10950468Y-15556031D02*
X10959991Y-15575079D01*
X10959991Y-15575079D02*
X10969515Y-15613174D01*
X10969515Y-15613174D02*
X10969515Y-15660793D01*
X10969515Y-15660793D02*
X10959991Y-15698888D01*
X10959991Y-15698888D02*
X10950468Y-15717936D01*
X10950468Y-15717936D02*
X10940944Y-15727460D01*
X10940944Y-15727460D02*
X10921896Y-15736984D01*
X10921896Y-15736984D02*
X10902848Y-15736984D01*
X10902848Y-15736984D02*
X10883801Y-15727460D01*
X10883801Y-15727460D02*
X10874277Y-15717936D01*
X10874277Y-15717936D02*
X10864753Y-15698888D01*
X10864753Y-15698888D02*
X10855229Y-15660793D01*
X10855229Y-15660793D02*
X10855229Y-15613174D01*
X10855229Y-15613174D02*
X10864753Y-15575079D01*
X10864753Y-15575079D02*
X10874277Y-15556031D01*
X10874277Y-15556031D02*
X10883801Y-15546508D01*
X10883801Y-15546508D02*
X10902848Y-15536984D01*
X11036182Y-15536984D02*
X11159991Y-15536984D01*
X11159991Y-15536984D02*
X11093325Y-15613174D01*
X11093325Y-15613174D02*
X11121896Y-15613174D01*
X11121896Y-15613174D02*
X11140944Y-15622698D01*
X11140944Y-15622698D02*
X11150468Y-15632222D01*
X11150468Y-15632222D02*
X11159991Y-15651269D01*
X11159991Y-15651269D02*
X11159991Y-15698888D01*
X11159991Y-15698888D02*
X11150468Y-15717936D01*
X11150468Y-15717936D02*
X11140944Y-15727460D01*
X11140944Y-15727460D02*
X11121896Y-15736984D01*
X11121896Y-15736984D02*
X11064753Y-15736984D01*
X11064753Y-15736984D02*
X11045706Y-15727460D01*
X11045706Y-15727460D02*
X11036182Y-15717936D01*
X11350467Y-15736984D02*
X11236182Y-15736984D01*
X11293325Y-15736984D02*
X11293325Y-15536984D01*
X11293325Y-15536984D02*
X11274277Y-15565555D01*
X11274277Y-15565555D02*
X11255229Y-15584603D01*
X11255229Y-15584603D02*
X11236182Y-15594127D01*
X11531420Y-15536984D02*
X11436182Y-15536984D01*
X11436182Y-15536984D02*
X11426658Y-15632222D01*
X11426658Y-15632222D02*
X11436182Y-15622698D01*
X11436182Y-15622698D02*
X11455229Y-15613174D01*
X11455229Y-15613174D02*
X11502848Y-15613174D01*
X11502848Y-15613174D02*
X11521896Y-15622698D01*
X11521896Y-15622698D02*
X11531420Y-15632222D01*
X11531420Y-15632222D02*
X11540944Y-15651269D01*
X11540944Y-15651269D02*
X11540944Y-15698888D01*
X11540944Y-15698888D02*
X11531420Y-15717936D01*
X11531420Y-15717936D02*
X11521896Y-15727460D01*
X11521896Y-15727460D02*
X11502848Y-15736984D01*
X11502848Y-15736984D02*
X11455229Y-15736984D01*
X11455229Y-15736984D02*
X11436182Y-15727460D01*
X11436182Y-15727460D02*
X11426658Y-15717936D01*
X11617134Y-15536984D02*
X11617134Y-15575079D01*
X11693325Y-15536984D02*
X11693325Y-15575079D01*
X11988563Y-15813174D02*
X11979039Y-15803650D01*
X11979039Y-15803650D02*
X11959991Y-15775079D01*
X11959991Y-15775079D02*
X11950468Y-15756031D01*
X11950468Y-15756031D02*
X11940944Y-15727460D01*
X11940944Y-15727460D02*
X11931420Y-15679841D01*
X11931420Y-15679841D02*
X11931420Y-15641746D01*
X11931420Y-15641746D02*
X11940944Y-15594127D01*
X11940944Y-15594127D02*
X11950468Y-15565555D01*
X11950468Y-15565555D02*
X11959991Y-15546508D01*
X11959991Y-15546508D02*
X11979039Y-15517936D01*
X11979039Y-15517936D02*
X11988563Y-15508412D01*
X12150468Y-15536984D02*
X12112372Y-15536984D01*
X12112372Y-15536984D02*
X12093325Y-15546508D01*
X12093325Y-15546508D02*
X12083801Y-15556031D01*
X12083801Y-15556031D02*
X12064753Y-15584603D01*
X12064753Y-15584603D02*
X12055229Y-15622698D01*
X12055229Y-15622698D02*
X12055229Y-15698888D01*
X12055229Y-15698888D02*
X12064753Y-15717936D01*
X12064753Y-15717936D02*
X12074277Y-15727460D01*
X12074277Y-15727460D02*
X12093325Y-15736984D01*
X12093325Y-15736984D02*
X12131420Y-15736984D01*
X12131420Y-15736984D02*
X12150468Y-15727460D01*
X12150468Y-15727460D02*
X12159991Y-15717936D01*
X12159991Y-15717936D02*
X12169515Y-15698888D01*
X12169515Y-15698888D02*
X12169515Y-15651269D01*
X12169515Y-15651269D02*
X12159991Y-15632222D01*
X12159991Y-15632222D02*
X12150468Y-15622698D01*
X12150468Y-15622698D02*
X12131420Y-15613174D01*
X12131420Y-15613174D02*
X12093325Y-15613174D01*
X12093325Y-15613174D02*
X12074277Y-15622698D01*
X12074277Y-15622698D02*
X12064753Y-15632222D01*
X12064753Y-15632222D02*
X12055229Y-15651269D01*
X12407610Y-15736984D02*
X12407610Y-15536984D01*
X12493325Y-15736984D02*
X12493325Y-15632222D01*
X12493325Y-15632222D02*
X12483801Y-15613174D01*
X12483801Y-15613174D02*
X12464753Y-15603650D01*
X12464753Y-15603650D02*
X12436182Y-15603650D01*
X12436182Y-15603650D02*
X12417134Y-15613174D01*
X12417134Y-15613174D02*
X12407610Y-15622698D01*
X12617134Y-15736984D02*
X12598087Y-15727460D01*
X12598087Y-15727460D02*
X12588563Y-15717936D01*
X12588563Y-15717936D02*
X12579039Y-15698888D01*
X12579039Y-15698888D02*
X12579039Y-15641746D01*
X12579039Y-15641746D02*
X12588563Y-15622698D01*
X12588563Y-15622698D02*
X12598087Y-15613174D01*
X12598087Y-15613174D02*
X12617134Y-15603650D01*
X12617134Y-15603650D02*
X12645706Y-15603650D01*
X12645706Y-15603650D02*
X12664753Y-15613174D01*
X12664753Y-15613174D02*
X12674277Y-15622698D01*
X12674277Y-15622698D02*
X12683801Y-15641746D01*
X12683801Y-15641746D02*
X12683801Y-15698888D01*
X12683801Y-15698888D02*
X12674277Y-15717936D01*
X12674277Y-15717936D02*
X12664753Y-15727460D01*
X12664753Y-15727460D02*
X12645706Y-15736984D01*
X12645706Y-15736984D02*
X12617134Y-15736984D01*
X12798087Y-15736984D02*
X12779039Y-15727460D01*
X12779039Y-15727460D02*
X12769515Y-15708412D01*
X12769515Y-15708412D02*
X12769515Y-15536984D01*
X12950468Y-15727460D02*
X12931420Y-15736984D01*
X12931420Y-15736984D02*
X12893325Y-15736984D01*
X12893325Y-15736984D02*
X12874277Y-15727460D01*
X12874277Y-15727460D02*
X12864753Y-15708412D01*
X12864753Y-15708412D02*
X12864753Y-15632222D01*
X12864753Y-15632222D02*
X12874277Y-15613174D01*
X12874277Y-15613174D02*
X12893325Y-15603650D01*
X12893325Y-15603650D02*
X12931420Y-15603650D01*
X12931420Y-15603650D02*
X12950468Y-15613174D01*
X12950468Y-15613174D02*
X12959991Y-15632222D01*
X12959991Y-15632222D02*
X12959991Y-15651269D01*
X12959991Y-15651269D02*
X12864753Y-15670317D01*
X13036182Y-15727460D02*
X13055230Y-15736984D01*
X13055230Y-15736984D02*
X13093325Y-15736984D01*
X13093325Y-15736984D02*
X13112372Y-15727460D01*
X13112372Y-15727460D02*
X13121896Y-15708412D01*
X13121896Y-15708412D02*
X13121896Y-15698888D01*
X13121896Y-15698888D02*
X13112372Y-15679841D01*
X13112372Y-15679841D02*
X13093325Y-15670317D01*
X13093325Y-15670317D02*
X13064753Y-15670317D01*
X13064753Y-15670317D02*
X13045706Y-15660793D01*
X13045706Y-15660793D02*
X13036182Y-15641746D01*
X13036182Y-15641746D02*
X13036182Y-15632222D01*
X13036182Y-15632222D02*
X13045706Y-15613174D01*
X13045706Y-15613174D02*
X13064753Y-15603650D01*
X13064753Y-15603650D02*
X13093325Y-15603650D01*
X13093325Y-15603650D02*
X13112372Y-15613174D01*
X13188563Y-15813174D02*
X13198087Y-15803650D01*
X13198087Y-15803650D02*
X13217134Y-15775079D01*
X13217134Y-15775079D02*
X13226658Y-15756031D01*
X13226658Y-15756031D02*
X13236182Y-15727460D01*
X13236182Y-15727460D02*
X13245706Y-15679841D01*
X13245706Y-15679841D02*
X13245706Y-15641746D01*
X13245706Y-15641746D02*
X13236182Y-15594127D01*
X13236182Y-15594127D02*
X13226658Y-15565555D01*
X13226658Y-15565555D02*
X13217134Y-15546508D01*
X13217134Y-15546508D02*
X13198087Y-15517936D01*
X13198087Y-15517936D02*
X13188563Y-15508412D01*
D12*
X8363500Y-15859500D02*
X8363500Y-15959500D01*
X8313500Y-15909500D02*
X8413500Y-15909500D01*
D11*
X8779039Y-16000984D02*
X8664753Y-16000984D01*
X8721896Y-16000984D02*
X8721896Y-15800984D01*
X8721896Y-15800984D02*
X8702848Y-15829555D01*
X8702848Y-15829555D02*
X8683801Y-15848603D01*
X8683801Y-15848603D02*
X8664753Y-15858127D01*
X8864753Y-15981936D02*
X8874277Y-15991460D01*
X8874277Y-15991460D02*
X8864753Y-16000984D01*
X8864753Y-16000984D02*
X8855229Y-15991460D01*
X8855229Y-15991460D02*
X8864753Y-15981936D01*
X8864753Y-15981936D02*
X8864753Y-16000984D01*
X8998086Y-15800984D02*
X9017134Y-15800984D01*
X9017134Y-15800984D02*
X9036182Y-15810508D01*
X9036182Y-15810508D02*
X9045705Y-15820031D01*
X9045705Y-15820031D02*
X9055229Y-15839079D01*
X9055229Y-15839079D02*
X9064753Y-15877174D01*
X9064753Y-15877174D02*
X9064753Y-15924793D01*
X9064753Y-15924793D02*
X9055229Y-15962888D01*
X9055229Y-15962888D02*
X9045705Y-15981936D01*
X9045705Y-15981936D02*
X9036182Y-15991460D01*
X9036182Y-15991460D02*
X9017134Y-16000984D01*
X9017134Y-16000984D02*
X8998086Y-16000984D01*
X8998086Y-16000984D02*
X8979039Y-15991460D01*
X8979039Y-15991460D02*
X8969515Y-15981936D01*
X8969515Y-15981936D02*
X8959991Y-15962888D01*
X8959991Y-15962888D02*
X8950467Y-15924793D01*
X8950467Y-15924793D02*
X8950467Y-15877174D01*
X8950467Y-15877174D02*
X8959991Y-15839079D01*
X8959991Y-15839079D02*
X8969515Y-15820031D01*
X8969515Y-15820031D02*
X8979039Y-15810508D01*
X8979039Y-15810508D02*
X8998086Y-15800984D01*
X9188563Y-15800984D02*
X9207610Y-15800984D01*
X9207610Y-15800984D02*
X9226658Y-15810508D01*
X9226658Y-15810508D02*
X9236182Y-15820031D01*
X9236182Y-15820031D02*
X9245705Y-15839079D01*
X9245705Y-15839079D02*
X9255229Y-15877174D01*
X9255229Y-15877174D02*
X9255229Y-15924793D01*
X9255229Y-15924793D02*
X9245705Y-15962888D01*
X9245705Y-15962888D02*
X9236182Y-15981936D01*
X9236182Y-15981936D02*
X9226658Y-15991460D01*
X9226658Y-15991460D02*
X9207610Y-16000984D01*
X9207610Y-16000984D02*
X9188563Y-16000984D01*
X9188563Y-16000984D02*
X9169515Y-15991460D01*
X9169515Y-15991460D02*
X9159991Y-15981936D01*
X9159991Y-15981936D02*
X9150467Y-15962888D01*
X9150467Y-15962888D02*
X9140944Y-15924793D01*
X9140944Y-15924793D02*
X9140944Y-15877174D01*
X9140944Y-15877174D02*
X9150467Y-15839079D01*
X9150467Y-15839079D02*
X9159991Y-15820031D01*
X9159991Y-15820031D02*
X9169515Y-15810508D01*
X9169515Y-15810508D02*
X9188563Y-15800984D01*
X9379039Y-15800984D02*
X9398086Y-15800984D01*
X9398086Y-15800984D02*
X9417134Y-15810508D01*
X9417134Y-15810508D02*
X9426658Y-15820031D01*
X9426658Y-15820031D02*
X9436182Y-15839079D01*
X9436182Y-15839079D02*
X9445705Y-15877174D01*
X9445705Y-15877174D02*
X9445705Y-15924793D01*
X9445705Y-15924793D02*
X9436182Y-15962888D01*
X9436182Y-15962888D02*
X9426658Y-15981936D01*
X9426658Y-15981936D02*
X9417134Y-15991460D01*
X9417134Y-15991460D02*
X9398086Y-16000984D01*
X9398086Y-16000984D02*
X9379039Y-16000984D01*
X9379039Y-16000984D02*
X9359991Y-15991460D01*
X9359991Y-15991460D02*
X9350467Y-15981936D01*
X9350467Y-15981936D02*
X9340944Y-15962888D01*
X9340944Y-15962888D02*
X9331420Y-15924793D01*
X9331420Y-15924793D02*
X9331420Y-15877174D01*
X9331420Y-15877174D02*
X9340944Y-15839079D01*
X9340944Y-15839079D02*
X9350467Y-15820031D01*
X9350467Y-15820031D02*
X9359991Y-15810508D01*
X9359991Y-15810508D02*
X9379039Y-15800984D01*
X9531420Y-16000984D02*
X9531420Y-15867650D01*
X9531420Y-15886698D02*
X9540944Y-15877174D01*
X9540944Y-15877174D02*
X9559991Y-15867650D01*
X9559991Y-15867650D02*
X9588563Y-15867650D01*
X9588563Y-15867650D02*
X9607610Y-15877174D01*
X9607610Y-15877174D02*
X9617134Y-15896222D01*
X9617134Y-15896222D02*
X9617134Y-16000984D01*
X9617134Y-15896222D02*
X9626658Y-15877174D01*
X9626658Y-15877174D02*
X9645705Y-15867650D01*
X9645705Y-15867650D02*
X9674277Y-15867650D01*
X9674277Y-15867650D02*
X9693325Y-15877174D01*
X9693325Y-15877174D02*
X9702848Y-15896222D01*
X9702848Y-15896222D02*
X9702848Y-16000984D01*
X9798086Y-16000984D02*
X9798086Y-15867650D01*
X9798086Y-15886698D02*
X9807610Y-15877174D01*
X9807610Y-15877174D02*
X9826658Y-15867650D01*
X9826658Y-15867650D02*
X9855229Y-15867650D01*
X9855229Y-15867650D02*
X9874277Y-15877174D01*
X9874277Y-15877174D02*
X9883801Y-15896222D01*
X9883801Y-15896222D02*
X9883801Y-16000984D01*
X9883801Y-15896222D02*
X9893325Y-15877174D01*
X9893325Y-15877174D02*
X9912372Y-15867650D01*
X9912372Y-15867650D02*
X9940944Y-15867650D01*
X9940944Y-15867650D02*
X9959991Y-15877174D01*
X9959991Y-15877174D02*
X9969515Y-15896222D01*
X9969515Y-15896222D02*
X9969515Y-16000984D01*
X10359991Y-15791460D02*
X10188563Y-16048603D01*
X10617134Y-15800984D02*
X10636182Y-15800984D01*
X10636182Y-15800984D02*
X10655229Y-15810508D01*
X10655229Y-15810508D02*
X10664753Y-15820031D01*
X10664753Y-15820031D02*
X10674277Y-15839079D01*
X10674277Y-15839079D02*
X10683801Y-15877174D01*
X10683801Y-15877174D02*
X10683801Y-15924793D01*
X10683801Y-15924793D02*
X10674277Y-15962888D01*
X10674277Y-15962888D02*
X10664753Y-15981936D01*
X10664753Y-15981936D02*
X10655229Y-15991460D01*
X10655229Y-15991460D02*
X10636182Y-16000984D01*
X10636182Y-16000984D02*
X10617134Y-16000984D01*
X10617134Y-16000984D02*
X10598087Y-15991460D01*
X10598087Y-15991460D02*
X10588563Y-15981936D01*
X10588563Y-15981936D02*
X10579039Y-15962888D01*
X10579039Y-15962888D02*
X10569515Y-15924793D01*
X10569515Y-15924793D02*
X10569515Y-15877174D01*
X10569515Y-15877174D02*
X10579039Y-15839079D01*
X10579039Y-15839079D02*
X10588563Y-15820031D01*
X10588563Y-15820031D02*
X10598087Y-15810508D01*
X10598087Y-15810508D02*
X10617134Y-15800984D01*
X10769515Y-15981936D02*
X10779039Y-15991460D01*
X10779039Y-15991460D02*
X10769515Y-16000984D01*
X10769515Y-16000984D02*
X10759991Y-15991460D01*
X10759991Y-15991460D02*
X10769515Y-15981936D01*
X10769515Y-15981936D02*
X10769515Y-16000984D01*
X10902848Y-15800984D02*
X10921896Y-15800984D01*
X10921896Y-15800984D02*
X10940944Y-15810508D01*
X10940944Y-15810508D02*
X10950468Y-15820031D01*
X10950468Y-15820031D02*
X10959991Y-15839079D01*
X10959991Y-15839079D02*
X10969515Y-15877174D01*
X10969515Y-15877174D02*
X10969515Y-15924793D01*
X10969515Y-15924793D02*
X10959991Y-15962888D01*
X10959991Y-15962888D02*
X10950468Y-15981936D01*
X10950468Y-15981936D02*
X10940944Y-15991460D01*
X10940944Y-15991460D02*
X10921896Y-16000984D01*
X10921896Y-16000984D02*
X10902848Y-16000984D01*
X10902848Y-16000984D02*
X10883801Y-15991460D01*
X10883801Y-15991460D02*
X10874277Y-15981936D01*
X10874277Y-15981936D02*
X10864753Y-15962888D01*
X10864753Y-15962888D02*
X10855229Y-15924793D01*
X10855229Y-15924793D02*
X10855229Y-15877174D01*
X10855229Y-15877174D02*
X10864753Y-15839079D01*
X10864753Y-15839079D02*
X10874277Y-15820031D01*
X10874277Y-15820031D02*
X10883801Y-15810508D01*
X10883801Y-15810508D02*
X10902848Y-15800984D01*
X11036182Y-15800984D02*
X11159991Y-15800984D01*
X11159991Y-15800984D02*
X11093325Y-15877174D01*
X11093325Y-15877174D02*
X11121896Y-15877174D01*
X11121896Y-15877174D02*
X11140944Y-15886698D01*
X11140944Y-15886698D02*
X11150468Y-15896222D01*
X11150468Y-15896222D02*
X11159991Y-15915269D01*
X11159991Y-15915269D02*
X11159991Y-15962888D01*
X11159991Y-15962888D02*
X11150468Y-15981936D01*
X11150468Y-15981936D02*
X11140944Y-15991460D01*
X11140944Y-15991460D02*
X11121896Y-16000984D01*
X11121896Y-16000984D02*
X11064753Y-16000984D01*
X11064753Y-16000984D02*
X11045706Y-15991460D01*
X11045706Y-15991460D02*
X11036182Y-15981936D01*
X11255229Y-16000984D02*
X11293325Y-16000984D01*
X11293325Y-16000984D02*
X11312372Y-15991460D01*
X11312372Y-15991460D02*
X11321896Y-15981936D01*
X11321896Y-15981936D02*
X11340944Y-15953365D01*
X11340944Y-15953365D02*
X11350467Y-15915269D01*
X11350467Y-15915269D02*
X11350467Y-15839079D01*
X11350467Y-15839079D02*
X11340944Y-15820031D01*
X11340944Y-15820031D02*
X11331420Y-15810508D01*
X11331420Y-15810508D02*
X11312372Y-15800984D01*
X11312372Y-15800984D02*
X11274277Y-15800984D01*
X11274277Y-15800984D02*
X11255229Y-15810508D01*
X11255229Y-15810508D02*
X11245706Y-15820031D01*
X11245706Y-15820031D02*
X11236182Y-15839079D01*
X11236182Y-15839079D02*
X11236182Y-15886698D01*
X11236182Y-15886698D02*
X11245706Y-15905746D01*
X11245706Y-15905746D02*
X11255229Y-15915269D01*
X11255229Y-15915269D02*
X11274277Y-15924793D01*
X11274277Y-15924793D02*
X11312372Y-15924793D01*
X11312372Y-15924793D02*
X11331420Y-15915269D01*
X11331420Y-15915269D02*
X11340944Y-15905746D01*
X11340944Y-15905746D02*
X11350467Y-15886698D01*
X11521896Y-15867650D02*
X11521896Y-16000984D01*
X11474277Y-15791460D02*
X11426658Y-15934317D01*
X11426658Y-15934317D02*
X11550467Y-15934317D01*
X11617134Y-15800984D02*
X11617134Y-15839079D01*
X11693325Y-15800984D02*
X11693325Y-15839079D01*
X11988563Y-16077174D02*
X11979039Y-16067650D01*
X11979039Y-16067650D02*
X11959991Y-16039079D01*
X11959991Y-16039079D02*
X11950468Y-16020031D01*
X11950468Y-16020031D02*
X11940944Y-15991460D01*
X11940944Y-15991460D02*
X11931420Y-15943841D01*
X11931420Y-15943841D02*
X11931420Y-15905746D01*
X11931420Y-15905746D02*
X11940944Y-15858127D01*
X11940944Y-15858127D02*
X11950468Y-15829555D01*
X11950468Y-15829555D02*
X11959991Y-15810508D01*
X11959991Y-15810508D02*
X11979039Y-15781936D01*
X11979039Y-15781936D02*
X11988563Y-15772412D01*
X12159991Y-15800984D02*
X12064753Y-15800984D01*
X12064753Y-15800984D02*
X12055229Y-15896222D01*
X12055229Y-15896222D02*
X12064753Y-15886698D01*
X12064753Y-15886698D02*
X12083801Y-15877174D01*
X12083801Y-15877174D02*
X12131420Y-15877174D01*
X12131420Y-15877174D02*
X12150468Y-15886698D01*
X12150468Y-15886698D02*
X12159991Y-15896222D01*
X12159991Y-15896222D02*
X12169515Y-15915269D01*
X12169515Y-15915269D02*
X12169515Y-15962888D01*
X12169515Y-15962888D02*
X12159991Y-15981936D01*
X12159991Y-15981936D02*
X12150468Y-15991460D01*
X12150468Y-15991460D02*
X12131420Y-16000984D01*
X12131420Y-16000984D02*
X12083801Y-16000984D01*
X12083801Y-16000984D02*
X12064753Y-15991460D01*
X12064753Y-15991460D02*
X12055229Y-15981936D01*
X12236182Y-15800984D02*
X12369515Y-15800984D01*
X12369515Y-15800984D02*
X12283801Y-16000984D01*
X12598087Y-16000984D02*
X12598087Y-15800984D01*
X12683801Y-16000984D02*
X12683801Y-15896222D01*
X12683801Y-15896222D02*
X12674277Y-15877174D01*
X12674277Y-15877174D02*
X12655230Y-15867650D01*
X12655230Y-15867650D02*
X12626658Y-15867650D01*
X12626658Y-15867650D02*
X12607610Y-15877174D01*
X12607610Y-15877174D02*
X12598087Y-15886698D01*
X12807610Y-16000984D02*
X12788563Y-15991460D01*
X12788563Y-15991460D02*
X12779039Y-15981936D01*
X12779039Y-15981936D02*
X12769515Y-15962888D01*
X12769515Y-15962888D02*
X12769515Y-15905746D01*
X12769515Y-15905746D02*
X12779039Y-15886698D01*
X12779039Y-15886698D02*
X12788563Y-15877174D01*
X12788563Y-15877174D02*
X12807610Y-15867650D01*
X12807610Y-15867650D02*
X12836182Y-15867650D01*
X12836182Y-15867650D02*
X12855230Y-15877174D01*
X12855230Y-15877174D02*
X12864753Y-15886698D01*
X12864753Y-15886698D02*
X12874277Y-15905746D01*
X12874277Y-15905746D02*
X12874277Y-15962888D01*
X12874277Y-15962888D02*
X12864753Y-15981936D01*
X12864753Y-15981936D02*
X12855230Y-15991460D01*
X12855230Y-15991460D02*
X12836182Y-16000984D01*
X12836182Y-16000984D02*
X12807610Y-16000984D01*
X12988563Y-16000984D02*
X12969515Y-15991460D01*
X12969515Y-15991460D02*
X12959991Y-15972412D01*
X12959991Y-15972412D02*
X12959991Y-15800984D01*
X13140944Y-15991460D02*
X13121896Y-16000984D01*
X13121896Y-16000984D02*
X13083801Y-16000984D01*
X13083801Y-16000984D02*
X13064753Y-15991460D01*
X13064753Y-15991460D02*
X13055230Y-15972412D01*
X13055230Y-15972412D02*
X13055230Y-15896222D01*
X13055230Y-15896222D02*
X13064753Y-15877174D01*
X13064753Y-15877174D02*
X13083801Y-15867650D01*
X13083801Y-15867650D02*
X13121896Y-15867650D01*
X13121896Y-15867650D02*
X13140944Y-15877174D01*
X13140944Y-15877174D02*
X13150468Y-15896222D01*
X13150468Y-15896222D02*
X13150468Y-15915269D01*
X13150468Y-15915269D02*
X13055230Y-15934317D01*
X13226658Y-15991460D02*
X13245706Y-16000984D01*
X13245706Y-16000984D02*
X13283801Y-16000984D01*
X13283801Y-16000984D02*
X13302849Y-15991460D01*
X13302849Y-15991460D02*
X13312372Y-15972412D01*
X13312372Y-15972412D02*
X13312372Y-15962888D01*
X13312372Y-15962888D02*
X13302849Y-15943841D01*
X13302849Y-15943841D02*
X13283801Y-15934317D01*
X13283801Y-15934317D02*
X13255230Y-15934317D01*
X13255230Y-15934317D02*
X13236182Y-15924793D01*
X13236182Y-15924793D02*
X13226658Y-15905746D01*
X13226658Y-15905746D02*
X13226658Y-15896222D01*
X13226658Y-15896222D02*
X13236182Y-15877174D01*
X13236182Y-15877174D02*
X13255230Y-15867650D01*
X13255230Y-15867650D02*
X13283801Y-15867650D01*
X13283801Y-15867650D02*
X13302849Y-15877174D01*
X13379039Y-16077174D02*
X13388563Y-16067650D01*
X13388563Y-16067650D02*
X13407611Y-16039079D01*
X13407611Y-16039079D02*
X13417134Y-16020031D01*
X13417134Y-16020031D02*
X13426658Y-15991460D01*
X13426658Y-15991460D02*
X13436182Y-15943841D01*
X13436182Y-15943841D02*
X13436182Y-15905746D01*
X13436182Y-15905746D02*
X13426658Y-15858127D01*
X13426658Y-15858127D02*
X13417134Y-15829555D01*
X13417134Y-15829555D02*
X13407611Y-15810508D01*
X13407611Y-15810508D02*
X13388563Y-15781936D01*
X13388563Y-15781936D02*
X13379039Y-15772412D01*
D13*
X8394462Y-16219462D02*
X8394462Y-16127538D01*
X8302538Y-16127538D01*
X8302538Y-16219462D01*
X8394462Y-16219462D01*
D11*
X8779039Y-16264984D02*
X8664753Y-16264984D01*
X8721896Y-16264984D02*
X8721896Y-16064984D01*
X8721896Y-16064984D02*
X8702848Y-16093555D01*
X8702848Y-16093555D02*
X8683801Y-16112603D01*
X8683801Y-16112603D02*
X8664753Y-16122127D01*
X8864753Y-16245936D02*
X8874277Y-16255460D01*
X8874277Y-16255460D02*
X8864753Y-16264984D01*
X8864753Y-16264984D02*
X8855229Y-16255460D01*
X8855229Y-16255460D02*
X8864753Y-16245936D01*
X8864753Y-16245936D02*
X8864753Y-16264984D01*
X8940944Y-16064984D02*
X9064753Y-16064984D01*
X9064753Y-16064984D02*
X8998086Y-16141174D01*
X8998086Y-16141174D02*
X9026658Y-16141174D01*
X9026658Y-16141174D02*
X9045705Y-16150698D01*
X9045705Y-16150698D02*
X9055229Y-16160222D01*
X9055229Y-16160222D02*
X9064753Y-16179269D01*
X9064753Y-16179269D02*
X9064753Y-16226888D01*
X9064753Y-16226888D02*
X9055229Y-16245936D01*
X9055229Y-16245936D02*
X9045705Y-16255460D01*
X9045705Y-16255460D02*
X9026658Y-16264984D01*
X9026658Y-16264984D02*
X8969515Y-16264984D01*
X8969515Y-16264984D02*
X8950467Y-16255460D01*
X8950467Y-16255460D02*
X8940944Y-16245936D01*
X9188563Y-16064984D02*
X9207610Y-16064984D01*
X9207610Y-16064984D02*
X9226658Y-16074508D01*
X9226658Y-16074508D02*
X9236182Y-16084031D01*
X9236182Y-16084031D02*
X9245705Y-16103079D01*
X9245705Y-16103079D02*
X9255229Y-16141174D01*
X9255229Y-16141174D02*
X9255229Y-16188793D01*
X9255229Y-16188793D02*
X9245705Y-16226888D01*
X9245705Y-16226888D02*
X9236182Y-16245936D01*
X9236182Y-16245936D02*
X9226658Y-16255460D01*
X9226658Y-16255460D02*
X9207610Y-16264984D01*
X9207610Y-16264984D02*
X9188563Y-16264984D01*
X9188563Y-16264984D02*
X9169515Y-16255460D01*
X9169515Y-16255460D02*
X9159991Y-16245936D01*
X9159991Y-16245936D02*
X9150467Y-16226888D01*
X9150467Y-16226888D02*
X9140944Y-16188793D01*
X9140944Y-16188793D02*
X9140944Y-16141174D01*
X9140944Y-16141174D02*
X9150467Y-16103079D01*
X9150467Y-16103079D02*
X9159991Y-16084031D01*
X9159991Y-16084031D02*
X9169515Y-16074508D01*
X9169515Y-16074508D02*
X9188563Y-16064984D01*
X9379039Y-16064984D02*
X9398086Y-16064984D01*
X9398086Y-16064984D02*
X9417134Y-16074508D01*
X9417134Y-16074508D02*
X9426658Y-16084031D01*
X9426658Y-16084031D02*
X9436182Y-16103079D01*
X9436182Y-16103079D02*
X9445705Y-16141174D01*
X9445705Y-16141174D02*
X9445705Y-16188793D01*
X9445705Y-16188793D02*
X9436182Y-16226888D01*
X9436182Y-16226888D02*
X9426658Y-16245936D01*
X9426658Y-16245936D02*
X9417134Y-16255460D01*
X9417134Y-16255460D02*
X9398086Y-16264984D01*
X9398086Y-16264984D02*
X9379039Y-16264984D01*
X9379039Y-16264984D02*
X9359991Y-16255460D01*
X9359991Y-16255460D02*
X9350467Y-16245936D01*
X9350467Y-16245936D02*
X9340944Y-16226888D01*
X9340944Y-16226888D02*
X9331420Y-16188793D01*
X9331420Y-16188793D02*
X9331420Y-16141174D01*
X9331420Y-16141174D02*
X9340944Y-16103079D01*
X9340944Y-16103079D02*
X9350467Y-16084031D01*
X9350467Y-16084031D02*
X9359991Y-16074508D01*
X9359991Y-16074508D02*
X9379039Y-16064984D01*
X9531420Y-16264984D02*
X9531420Y-16131650D01*
X9531420Y-16150698D02*
X9540944Y-16141174D01*
X9540944Y-16141174D02*
X9559991Y-16131650D01*
X9559991Y-16131650D02*
X9588563Y-16131650D01*
X9588563Y-16131650D02*
X9607610Y-16141174D01*
X9607610Y-16141174D02*
X9617134Y-16160222D01*
X9617134Y-16160222D02*
X9617134Y-16264984D01*
X9617134Y-16160222D02*
X9626658Y-16141174D01*
X9626658Y-16141174D02*
X9645705Y-16131650D01*
X9645705Y-16131650D02*
X9674277Y-16131650D01*
X9674277Y-16131650D02*
X9693325Y-16141174D01*
X9693325Y-16141174D02*
X9702848Y-16160222D01*
X9702848Y-16160222D02*
X9702848Y-16264984D01*
X9798086Y-16264984D02*
X9798086Y-16131650D01*
X9798086Y-16150698D02*
X9807610Y-16141174D01*
X9807610Y-16141174D02*
X9826658Y-16131650D01*
X9826658Y-16131650D02*
X9855229Y-16131650D01*
X9855229Y-16131650D02*
X9874277Y-16141174D01*
X9874277Y-16141174D02*
X9883801Y-16160222D01*
X9883801Y-16160222D02*
X9883801Y-16264984D01*
X9883801Y-16160222D02*
X9893325Y-16141174D01*
X9893325Y-16141174D02*
X9912372Y-16131650D01*
X9912372Y-16131650D02*
X9940944Y-16131650D01*
X9940944Y-16131650D02*
X9959991Y-16141174D01*
X9959991Y-16141174D02*
X9969515Y-16160222D01*
X9969515Y-16160222D02*
X9969515Y-16264984D01*
X10359991Y-16055460D02*
X10188563Y-16312603D01*
X10617134Y-16064984D02*
X10636182Y-16064984D01*
X10636182Y-16064984D02*
X10655229Y-16074508D01*
X10655229Y-16074508D02*
X10664753Y-16084031D01*
X10664753Y-16084031D02*
X10674277Y-16103079D01*
X10674277Y-16103079D02*
X10683801Y-16141174D01*
X10683801Y-16141174D02*
X10683801Y-16188793D01*
X10683801Y-16188793D02*
X10674277Y-16226888D01*
X10674277Y-16226888D02*
X10664753Y-16245936D01*
X10664753Y-16245936D02*
X10655229Y-16255460D01*
X10655229Y-16255460D02*
X10636182Y-16264984D01*
X10636182Y-16264984D02*
X10617134Y-16264984D01*
X10617134Y-16264984D02*
X10598087Y-16255460D01*
X10598087Y-16255460D02*
X10588563Y-16245936D01*
X10588563Y-16245936D02*
X10579039Y-16226888D01*
X10579039Y-16226888D02*
X10569515Y-16188793D01*
X10569515Y-16188793D02*
X10569515Y-16141174D01*
X10569515Y-16141174D02*
X10579039Y-16103079D01*
X10579039Y-16103079D02*
X10588563Y-16084031D01*
X10588563Y-16084031D02*
X10598087Y-16074508D01*
X10598087Y-16074508D02*
X10617134Y-16064984D01*
X10769515Y-16245936D02*
X10779039Y-16255460D01*
X10779039Y-16255460D02*
X10769515Y-16264984D01*
X10769515Y-16264984D02*
X10759991Y-16255460D01*
X10759991Y-16255460D02*
X10769515Y-16245936D01*
X10769515Y-16245936D02*
X10769515Y-16264984D01*
X10902848Y-16064984D02*
X10921896Y-16064984D01*
X10921896Y-16064984D02*
X10940944Y-16074508D01*
X10940944Y-16074508D02*
X10950468Y-16084031D01*
X10950468Y-16084031D02*
X10959991Y-16103079D01*
X10959991Y-16103079D02*
X10969515Y-16141174D01*
X10969515Y-16141174D02*
X10969515Y-16188793D01*
X10969515Y-16188793D02*
X10959991Y-16226888D01*
X10959991Y-16226888D02*
X10950468Y-16245936D01*
X10950468Y-16245936D02*
X10940944Y-16255460D01*
X10940944Y-16255460D02*
X10921896Y-16264984D01*
X10921896Y-16264984D02*
X10902848Y-16264984D01*
X10902848Y-16264984D02*
X10883801Y-16255460D01*
X10883801Y-16255460D02*
X10874277Y-16245936D01*
X10874277Y-16245936D02*
X10864753Y-16226888D01*
X10864753Y-16226888D02*
X10855229Y-16188793D01*
X10855229Y-16188793D02*
X10855229Y-16141174D01*
X10855229Y-16141174D02*
X10864753Y-16103079D01*
X10864753Y-16103079D02*
X10874277Y-16084031D01*
X10874277Y-16084031D02*
X10883801Y-16074508D01*
X10883801Y-16074508D02*
X10902848Y-16064984D01*
X11150468Y-16064984D02*
X11055229Y-16064984D01*
X11055229Y-16064984D02*
X11045706Y-16160222D01*
X11045706Y-16160222D02*
X11055229Y-16150698D01*
X11055229Y-16150698D02*
X11074277Y-16141174D01*
X11074277Y-16141174D02*
X11121896Y-16141174D01*
X11121896Y-16141174D02*
X11140944Y-16150698D01*
X11140944Y-16150698D02*
X11150468Y-16160222D01*
X11150468Y-16160222D02*
X11159991Y-16179269D01*
X11159991Y-16179269D02*
X11159991Y-16226888D01*
X11159991Y-16226888D02*
X11150468Y-16245936D01*
X11150468Y-16245936D02*
X11140944Y-16255460D01*
X11140944Y-16255460D02*
X11121896Y-16264984D01*
X11121896Y-16264984D02*
X11074277Y-16264984D01*
X11074277Y-16264984D02*
X11055229Y-16255460D01*
X11055229Y-16255460D02*
X11045706Y-16245936D01*
X11350467Y-16264984D02*
X11236182Y-16264984D01*
X11293325Y-16264984D02*
X11293325Y-16064984D01*
X11293325Y-16064984D02*
X11274277Y-16093555D01*
X11274277Y-16093555D02*
X11255229Y-16112603D01*
X11255229Y-16112603D02*
X11236182Y-16122127D01*
X11426658Y-16084031D02*
X11436182Y-16074508D01*
X11436182Y-16074508D02*
X11455229Y-16064984D01*
X11455229Y-16064984D02*
X11502848Y-16064984D01*
X11502848Y-16064984D02*
X11521896Y-16074508D01*
X11521896Y-16074508D02*
X11531420Y-16084031D01*
X11531420Y-16084031D02*
X11540944Y-16103079D01*
X11540944Y-16103079D02*
X11540944Y-16122127D01*
X11540944Y-16122127D02*
X11531420Y-16150698D01*
X11531420Y-16150698D02*
X11417134Y-16264984D01*
X11417134Y-16264984D02*
X11540944Y-16264984D01*
X11617134Y-16064984D02*
X11617134Y-16103079D01*
X11693325Y-16064984D02*
X11693325Y-16103079D01*
X11988563Y-16341174D02*
X11979039Y-16331650D01*
X11979039Y-16331650D02*
X11959991Y-16303079D01*
X11959991Y-16303079D02*
X11950468Y-16284031D01*
X11950468Y-16284031D02*
X11940944Y-16255460D01*
X11940944Y-16255460D02*
X11931420Y-16207841D01*
X11931420Y-16207841D02*
X11931420Y-16169746D01*
X11931420Y-16169746D02*
X11940944Y-16122127D01*
X11940944Y-16122127D02*
X11950468Y-16093555D01*
X11950468Y-16093555D02*
X11959991Y-16074508D01*
X11959991Y-16074508D02*
X11979039Y-16045936D01*
X11979039Y-16045936D02*
X11988563Y-16036412D01*
X12093325Y-16150698D02*
X12074277Y-16141174D01*
X12074277Y-16141174D02*
X12064753Y-16131650D01*
X12064753Y-16131650D02*
X12055229Y-16112603D01*
X12055229Y-16112603D02*
X12055229Y-16103079D01*
X12055229Y-16103079D02*
X12064753Y-16084031D01*
X12064753Y-16084031D02*
X12074277Y-16074508D01*
X12074277Y-16074508D02*
X12093325Y-16064984D01*
X12093325Y-16064984D02*
X12131420Y-16064984D01*
X12131420Y-16064984D02*
X12150468Y-16074508D01*
X12150468Y-16074508D02*
X12159991Y-16084031D01*
X12159991Y-16084031D02*
X12169515Y-16103079D01*
X12169515Y-16103079D02*
X12169515Y-16112603D01*
X12169515Y-16112603D02*
X12159991Y-16131650D01*
X12159991Y-16131650D02*
X12150468Y-16141174D01*
X12150468Y-16141174D02*
X12131420Y-16150698D01*
X12131420Y-16150698D02*
X12093325Y-16150698D01*
X12093325Y-16150698D02*
X12074277Y-16160222D01*
X12074277Y-16160222D02*
X12064753Y-16169746D01*
X12064753Y-16169746D02*
X12055229Y-16188793D01*
X12055229Y-16188793D02*
X12055229Y-16226888D01*
X12055229Y-16226888D02*
X12064753Y-16245936D01*
X12064753Y-16245936D02*
X12074277Y-16255460D01*
X12074277Y-16255460D02*
X12093325Y-16264984D01*
X12093325Y-16264984D02*
X12131420Y-16264984D01*
X12131420Y-16264984D02*
X12150468Y-16255460D01*
X12150468Y-16255460D02*
X12159991Y-16245936D01*
X12159991Y-16245936D02*
X12169515Y-16226888D01*
X12169515Y-16226888D02*
X12169515Y-16188793D01*
X12169515Y-16188793D02*
X12159991Y-16169746D01*
X12159991Y-16169746D02*
X12150468Y-16160222D01*
X12150468Y-16160222D02*
X12131420Y-16150698D01*
X12407610Y-16264984D02*
X12407610Y-16064984D01*
X12493325Y-16264984D02*
X12493325Y-16160222D01*
X12493325Y-16160222D02*
X12483801Y-16141174D01*
X12483801Y-16141174D02*
X12464753Y-16131650D01*
X12464753Y-16131650D02*
X12436182Y-16131650D01*
X12436182Y-16131650D02*
X12417134Y-16141174D01*
X12417134Y-16141174D02*
X12407610Y-16150698D01*
X12617134Y-16264984D02*
X12598087Y-16255460D01*
X12598087Y-16255460D02*
X12588563Y-16245936D01*
X12588563Y-16245936D02*
X12579039Y-16226888D01*
X12579039Y-16226888D02*
X12579039Y-16169746D01*
X12579039Y-16169746D02*
X12588563Y-16150698D01*
X12588563Y-16150698D02*
X12598087Y-16141174D01*
X12598087Y-16141174D02*
X12617134Y-16131650D01*
X12617134Y-16131650D02*
X12645706Y-16131650D01*
X12645706Y-16131650D02*
X12664753Y-16141174D01*
X12664753Y-16141174D02*
X12674277Y-16150698D01*
X12674277Y-16150698D02*
X12683801Y-16169746D01*
X12683801Y-16169746D02*
X12683801Y-16226888D01*
X12683801Y-16226888D02*
X12674277Y-16245936D01*
X12674277Y-16245936D02*
X12664753Y-16255460D01*
X12664753Y-16255460D02*
X12645706Y-16264984D01*
X12645706Y-16264984D02*
X12617134Y-16264984D01*
X12798087Y-16264984D02*
X12779039Y-16255460D01*
X12779039Y-16255460D02*
X12769515Y-16236412D01*
X12769515Y-16236412D02*
X12769515Y-16064984D01*
X12950468Y-16255460D02*
X12931420Y-16264984D01*
X12931420Y-16264984D02*
X12893325Y-16264984D01*
X12893325Y-16264984D02*
X12874277Y-16255460D01*
X12874277Y-16255460D02*
X12864753Y-16236412D01*
X12864753Y-16236412D02*
X12864753Y-16160222D01*
X12864753Y-16160222D02*
X12874277Y-16141174D01*
X12874277Y-16141174D02*
X12893325Y-16131650D01*
X12893325Y-16131650D02*
X12931420Y-16131650D01*
X12931420Y-16131650D02*
X12950468Y-16141174D01*
X12950468Y-16141174D02*
X12959991Y-16160222D01*
X12959991Y-16160222D02*
X12959991Y-16179269D01*
X12959991Y-16179269D02*
X12864753Y-16198317D01*
X13036182Y-16255460D02*
X13055230Y-16264984D01*
X13055230Y-16264984D02*
X13093325Y-16264984D01*
X13093325Y-16264984D02*
X13112372Y-16255460D01*
X13112372Y-16255460D02*
X13121896Y-16236412D01*
X13121896Y-16236412D02*
X13121896Y-16226888D01*
X13121896Y-16226888D02*
X13112372Y-16207841D01*
X13112372Y-16207841D02*
X13093325Y-16198317D01*
X13093325Y-16198317D02*
X13064753Y-16198317D01*
X13064753Y-16198317D02*
X13045706Y-16188793D01*
X13045706Y-16188793D02*
X13036182Y-16169746D01*
X13036182Y-16169746D02*
X13036182Y-16160222D01*
X13036182Y-16160222D02*
X13045706Y-16141174D01*
X13045706Y-16141174D02*
X13064753Y-16131650D01*
X13064753Y-16131650D02*
X13093325Y-16131650D01*
X13093325Y-16131650D02*
X13112372Y-16141174D01*
X13188563Y-16341174D02*
X13198087Y-16331650D01*
X13198087Y-16331650D02*
X13217134Y-16303079D01*
X13217134Y-16303079D02*
X13226658Y-16284031D01*
X13226658Y-16284031D02*
X13236182Y-16255460D01*
X13236182Y-16255460D02*
X13245706Y-16207841D01*
X13245706Y-16207841D02*
X13245706Y-16169746D01*
X13245706Y-16169746D02*
X13236182Y-16122127D01*
X13236182Y-16122127D02*
X13226658Y-16093555D01*
X13226658Y-16093555D02*
X13217134Y-16074508D01*
X13217134Y-16074508D02*
X13198087Y-16045936D01*
X13198087Y-16045936D02*
X13188563Y-16036412D01*
D14*
X8333500Y-16517500D02*
X8413500Y-16437500D01*
X8333500Y-16357500D01*
X8253500Y-16437500D01*
X8333500Y-16517500D01*
D11*
X8779039Y-16528984D02*
X8664753Y-16528984D01*
X8721896Y-16528984D02*
X8721896Y-16328984D01*
X8721896Y-16328984D02*
X8702848Y-16357555D01*
X8702848Y-16357555D02*
X8683801Y-16376603D01*
X8683801Y-16376603D02*
X8664753Y-16386127D01*
X8864753Y-16509936D02*
X8874277Y-16519460D01*
X8874277Y-16519460D02*
X8864753Y-16528984D01*
X8864753Y-16528984D02*
X8855229Y-16519460D01*
X8855229Y-16519460D02*
X8864753Y-16509936D01*
X8864753Y-16509936D02*
X8864753Y-16528984D01*
X9045705Y-16328984D02*
X9007610Y-16328984D01*
X9007610Y-16328984D02*
X8988563Y-16338508D01*
X8988563Y-16338508D02*
X8979039Y-16348031D01*
X8979039Y-16348031D02*
X8959991Y-16376603D01*
X8959991Y-16376603D02*
X8950467Y-16414698D01*
X8950467Y-16414698D02*
X8950467Y-16490888D01*
X8950467Y-16490888D02*
X8959991Y-16509936D01*
X8959991Y-16509936D02*
X8969515Y-16519460D01*
X8969515Y-16519460D02*
X8988563Y-16528984D01*
X8988563Y-16528984D02*
X9026658Y-16528984D01*
X9026658Y-16528984D02*
X9045705Y-16519460D01*
X9045705Y-16519460D02*
X9055229Y-16509936D01*
X9055229Y-16509936D02*
X9064753Y-16490888D01*
X9064753Y-16490888D02*
X9064753Y-16443269D01*
X9064753Y-16443269D02*
X9055229Y-16424222D01*
X9055229Y-16424222D02*
X9045705Y-16414698D01*
X9045705Y-16414698D02*
X9026658Y-16405174D01*
X9026658Y-16405174D02*
X8988563Y-16405174D01*
X8988563Y-16405174D02*
X8969515Y-16414698D01*
X8969515Y-16414698D02*
X8959991Y-16424222D01*
X8959991Y-16424222D02*
X8950467Y-16443269D01*
X9188563Y-16328984D02*
X9207610Y-16328984D01*
X9207610Y-16328984D02*
X9226658Y-16338508D01*
X9226658Y-16338508D02*
X9236182Y-16348031D01*
X9236182Y-16348031D02*
X9245705Y-16367079D01*
X9245705Y-16367079D02*
X9255229Y-16405174D01*
X9255229Y-16405174D02*
X9255229Y-16452793D01*
X9255229Y-16452793D02*
X9245705Y-16490888D01*
X9245705Y-16490888D02*
X9236182Y-16509936D01*
X9236182Y-16509936D02*
X9226658Y-16519460D01*
X9226658Y-16519460D02*
X9207610Y-16528984D01*
X9207610Y-16528984D02*
X9188563Y-16528984D01*
X9188563Y-16528984D02*
X9169515Y-16519460D01*
X9169515Y-16519460D02*
X9159991Y-16509936D01*
X9159991Y-16509936D02*
X9150467Y-16490888D01*
X9150467Y-16490888D02*
X9140944Y-16452793D01*
X9140944Y-16452793D02*
X9140944Y-16405174D01*
X9140944Y-16405174D02*
X9150467Y-16367079D01*
X9150467Y-16367079D02*
X9159991Y-16348031D01*
X9159991Y-16348031D02*
X9169515Y-16338508D01*
X9169515Y-16338508D02*
X9188563Y-16328984D01*
X9379039Y-16328984D02*
X9398086Y-16328984D01*
X9398086Y-16328984D02*
X9417134Y-16338508D01*
X9417134Y-16338508D02*
X9426658Y-16348031D01*
X9426658Y-16348031D02*
X9436182Y-16367079D01*
X9436182Y-16367079D02*
X9445705Y-16405174D01*
X9445705Y-16405174D02*
X9445705Y-16452793D01*
X9445705Y-16452793D02*
X9436182Y-16490888D01*
X9436182Y-16490888D02*
X9426658Y-16509936D01*
X9426658Y-16509936D02*
X9417134Y-16519460D01*
X9417134Y-16519460D02*
X9398086Y-16528984D01*
X9398086Y-16528984D02*
X9379039Y-16528984D01*
X9379039Y-16528984D02*
X9359991Y-16519460D01*
X9359991Y-16519460D02*
X9350467Y-16509936D01*
X9350467Y-16509936D02*
X9340944Y-16490888D01*
X9340944Y-16490888D02*
X9331420Y-16452793D01*
X9331420Y-16452793D02*
X9331420Y-16405174D01*
X9331420Y-16405174D02*
X9340944Y-16367079D01*
X9340944Y-16367079D02*
X9350467Y-16348031D01*
X9350467Y-16348031D02*
X9359991Y-16338508D01*
X9359991Y-16338508D02*
X9379039Y-16328984D01*
X9531420Y-16528984D02*
X9531420Y-16395650D01*
X9531420Y-16414698D02*
X9540944Y-16405174D01*
X9540944Y-16405174D02*
X9559991Y-16395650D01*
X9559991Y-16395650D02*
X9588563Y-16395650D01*
X9588563Y-16395650D02*
X9607610Y-16405174D01*
X9607610Y-16405174D02*
X9617134Y-16424222D01*
X9617134Y-16424222D02*
X9617134Y-16528984D01*
X9617134Y-16424222D02*
X9626658Y-16405174D01*
X9626658Y-16405174D02*
X9645705Y-16395650D01*
X9645705Y-16395650D02*
X9674277Y-16395650D01*
X9674277Y-16395650D02*
X9693325Y-16405174D01*
X9693325Y-16405174D02*
X9702848Y-16424222D01*
X9702848Y-16424222D02*
X9702848Y-16528984D01*
X9798086Y-16528984D02*
X9798086Y-16395650D01*
X9798086Y-16414698D02*
X9807610Y-16405174D01*
X9807610Y-16405174D02*
X9826658Y-16395650D01*
X9826658Y-16395650D02*
X9855229Y-16395650D01*
X9855229Y-16395650D02*
X9874277Y-16405174D01*
X9874277Y-16405174D02*
X9883801Y-16424222D01*
X9883801Y-16424222D02*
X9883801Y-16528984D01*
X9883801Y-16424222D02*
X9893325Y-16405174D01*
X9893325Y-16405174D02*
X9912372Y-16395650D01*
X9912372Y-16395650D02*
X9940944Y-16395650D01*
X9940944Y-16395650D02*
X9959991Y-16405174D01*
X9959991Y-16405174D02*
X9969515Y-16424222D01*
X9969515Y-16424222D02*
X9969515Y-16528984D01*
X10359991Y-16319460D02*
X10188563Y-16576603D01*
X10617134Y-16328984D02*
X10636182Y-16328984D01*
X10636182Y-16328984D02*
X10655229Y-16338508D01*
X10655229Y-16338508D02*
X10664753Y-16348031D01*
X10664753Y-16348031D02*
X10674277Y-16367079D01*
X10674277Y-16367079D02*
X10683801Y-16405174D01*
X10683801Y-16405174D02*
X10683801Y-16452793D01*
X10683801Y-16452793D02*
X10674277Y-16490888D01*
X10674277Y-16490888D02*
X10664753Y-16509936D01*
X10664753Y-16509936D02*
X10655229Y-16519460D01*
X10655229Y-16519460D02*
X10636182Y-16528984D01*
X10636182Y-16528984D02*
X10617134Y-16528984D01*
X10617134Y-16528984D02*
X10598087Y-16519460D01*
X10598087Y-16519460D02*
X10588563Y-16509936D01*
X10588563Y-16509936D02*
X10579039Y-16490888D01*
X10579039Y-16490888D02*
X10569515Y-16452793D01*
X10569515Y-16452793D02*
X10569515Y-16405174D01*
X10569515Y-16405174D02*
X10579039Y-16367079D01*
X10579039Y-16367079D02*
X10588563Y-16348031D01*
X10588563Y-16348031D02*
X10598087Y-16338508D01*
X10598087Y-16338508D02*
X10617134Y-16328984D01*
X10769515Y-16509936D02*
X10779039Y-16519460D01*
X10779039Y-16519460D02*
X10769515Y-16528984D01*
X10769515Y-16528984D02*
X10759991Y-16519460D01*
X10759991Y-16519460D02*
X10769515Y-16509936D01*
X10769515Y-16509936D02*
X10769515Y-16528984D01*
X10902848Y-16328984D02*
X10921896Y-16328984D01*
X10921896Y-16328984D02*
X10940944Y-16338508D01*
X10940944Y-16338508D02*
X10950468Y-16348031D01*
X10950468Y-16348031D02*
X10959991Y-16367079D01*
X10959991Y-16367079D02*
X10969515Y-16405174D01*
X10969515Y-16405174D02*
X10969515Y-16452793D01*
X10969515Y-16452793D02*
X10959991Y-16490888D01*
X10959991Y-16490888D02*
X10950468Y-16509936D01*
X10950468Y-16509936D02*
X10940944Y-16519460D01*
X10940944Y-16519460D02*
X10921896Y-16528984D01*
X10921896Y-16528984D02*
X10902848Y-16528984D01*
X10902848Y-16528984D02*
X10883801Y-16519460D01*
X10883801Y-16519460D02*
X10874277Y-16509936D01*
X10874277Y-16509936D02*
X10864753Y-16490888D01*
X10864753Y-16490888D02*
X10855229Y-16452793D01*
X10855229Y-16452793D02*
X10855229Y-16405174D01*
X10855229Y-16405174D02*
X10864753Y-16367079D01*
X10864753Y-16367079D02*
X10874277Y-16348031D01*
X10874277Y-16348031D02*
X10883801Y-16338508D01*
X10883801Y-16338508D02*
X10902848Y-16328984D01*
X11140944Y-16328984D02*
X11102848Y-16328984D01*
X11102848Y-16328984D02*
X11083801Y-16338508D01*
X11083801Y-16338508D02*
X11074277Y-16348031D01*
X11074277Y-16348031D02*
X11055229Y-16376603D01*
X11055229Y-16376603D02*
X11045706Y-16414698D01*
X11045706Y-16414698D02*
X11045706Y-16490888D01*
X11045706Y-16490888D02*
X11055229Y-16509936D01*
X11055229Y-16509936D02*
X11064753Y-16519460D01*
X11064753Y-16519460D02*
X11083801Y-16528984D01*
X11083801Y-16528984D02*
X11121896Y-16528984D01*
X11121896Y-16528984D02*
X11140944Y-16519460D01*
X11140944Y-16519460D02*
X11150468Y-16509936D01*
X11150468Y-16509936D02*
X11159991Y-16490888D01*
X11159991Y-16490888D02*
X11159991Y-16443269D01*
X11159991Y-16443269D02*
X11150468Y-16424222D01*
X11150468Y-16424222D02*
X11140944Y-16414698D01*
X11140944Y-16414698D02*
X11121896Y-16405174D01*
X11121896Y-16405174D02*
X11083801Y-16405174D01*
X11083801Y-16405174D02*
X11064753Y-16414698D01*
X11064753Y-16414698D02*
X11055229Y-16424222D01*
X11055229Y-16424222D02*
X11045706Y-16443269D01*
X11226658Y-16328984D02*
X11350467Y-16328984D01*
X11350467Y-16328984D02*
X11283801Y-16405174D01*
X11283801Y-16405174D02*
X11312372Y-16405174D01*
X11312372Y-16405174D02*
X11331420Y-16414698D01*
X11331420Y-16414698D02*
X11340944Y-16424222D01*
X11340944Y-16424222D02*
X11350467Y-16443269D01*
X11350467Y-16443269D02*
X11350467Y-16490888D01*
X11350467Y-16490888D02*
X11340944Y-16509936D01*
X11340944Y-16509936D02*
X11331420Y-16519460D01*
X11331420Y-16519460D02*
X11312372Y-16528984D01*
X11312372Y-16528984D02*
X11255229Y-16528984D01*
X11255229Y-16528984D02*
X11236182Y-16519460D01*
X11236182Y-16519460D02*
X11226658Y-16509936D01*
X11474277Y-16328984D02*
X11493325Y-16328984D01*
X11493325Y-16328984D02*
X11512372Y-16338508D01*
X11512372Y-16338508D02*
X11521896Y-16348031D01*
X11521896Y-16348031D02*
X11531420Y-16367079D01*
X11531420Y-16367079D02*
X11540944Y-16405174D01*
X11540944Y-16405174D02*
X11540944Y-16452793D01*
X11540944Y-16452793D02*
X11531420Y-16490888D01*
X11531420Y-16490888D02*
X11521896Y-16509936D01*
X11521896Y-16509936D02*
X11512372Y-16519460D01*
X11512372Y-16519460D02*
X11493325Y-16528984D01*
X11493325Y-16528984D02*
X11474277Y-16528984D01*
X11474277Y-16528984D02*
X11455229Y-16519460D01*
X11455229Y-16519460D02*
X11445706Y-16509936D01*
X11445706Y-16509936D02*
X11436182Y-16490888D01*
X11436182Y-16490888D02*
X11426658Y-16452793D01*
X11426658Y-16452793D02*
X11426658Y-16405174D01*
X11426658Y-16405174D02*
X11436182Y-16367079D01*
X11436182Y-16367079D02*
X11445706Y-16348031D01*
X11445706Y-16348031D02*
X11455229Y-16338508D01*
X11455229Y-16338508D02*
X11474277Y-16328984D01*
X11617134Y-16328984D02*
X11617134Y-16367079D01*
X11693325Y-16328984D02*
X11693325Y-16367079D01*
X11988563Y-16605174D02*
X11979039Y-16595650D01*
X11979039Y-16595650D02*
X11959991Y-16567079D01*
X11959991Y-16567079D02*
X11950468Y-16548031D01*
X11950468Y-16548031D02*
X11940944Y-16519460D01*
X11940944Y-16519460D02*
X11931420Y-16471841D01*
X11931420Y-16471841D02*
X11931420Y-16433746D01*
X11931420Y-16433746D02*
X11940944Y-16386127D01*
X11940944Y-16386127D02*
X11950468Y-16357555D01*
X11950468Y-16357555D02*
X11959991Y-16338508D01*
X11959991Y-16338508D02*
X11979039Y-16309936D01*
X11979039Y-16309936D02*
X11988563Y-16300412D01*
X12169515Y-16528984D02*
X12055229Y-16528984D01*
X12112372Y-16528984D02*
X12112372Y-16328984D01*
X12112372Y-16328984D02*
X12093325Y-16357555D01*
X12093325Y-16357555D02*
X12074277Y-16376603D01*
X12074277Y-16376603D02*
X12055229Y-16386127D01*
X12350468Y-16328984D02*
X12255229Y-16328984D01*
X12255229Y-16328984D02*
X12245706Y-16424222D01*
X12245706Y-16424222D02*
X12255229Y-16414698D01*
X12255229Y-16414698D02*
X12274277Y-16405174D01*
X12274277Y-16405174D02*
X12321896Y-16405174D01*
X12321896Y-16405174D02*
X12340944Y-16414698D01*
X12340944Y-16414698D02*
X12350468Y-16424222D01*
X12350468Y-16424222D02*
X12359991Y-16443269D01*
X12359991Y-16443269D02*
X12359991Y-16490888D01*
X12359991Y-16490888D02*
X12350468Y-16509936D01*
X12350468Y-16509936D02*
X12340944Y-16519460D01*
X12340944Y-16519460D02*
X12321896Y-16528984D01*
X12321896Y-16528984D02*
X12274277Y-16528984D01*
X12274277Y-16528984D02*
X12255229Y-16519460D01*
X12255229Y-16519460D02*
X12245706Y-16509936D01*
X12598087Y-16528984D02*
X12598087Y-16328984D01*
X12683801Y-16528984D02*
X12683801Y-16424222D01*
X12683801Y-16424222D02*
X12674277Y-16405174D01*
X12674277Y-16405174D02*
X12655230Y-16395650D01*
X12655230Y-16395650D02*
X12626658Y-16395650D01*
X12626658Y-16395650D02*
X12607610Y-16405174D01*
X12607610Y-16405174D02*
X12598087Y-16414698D01*
X12807610Y-16528984D02*
X12788563Y-16519460D01*
X12788563Y-16519460D02*
X12779039Y-16509936D01*
X12779039Y-16509936D02*
X12769515Y-16490888D01*
X12769515Y-16490888D02*
X12769515Y-16433746D01*
X12769515Y-16433746D02*
X12779039Y-16414698D01*
X12779039Y-16414698D02*
X12788563Y-16405174D01*
X12788563Y-16405174D02*
X12807610Y-16395650D01*
X12807610Y-16395650D02*
X12836182Y-16395650D01*
X12836182Y-16395650D02*
X12855230Y-16405174D01*
X12855230Y-16405174D02*
X12864753Y-16414698D01*
X12864753Y-16414698D02*
X12874277Y-16433746D01*
X12874277Y-16433746D02*
X12874277Y-16490888D01*
X12874277Y-16490888D02*
X12864753Y-16509936D01*
X12864753Y-16509936D02*
X12855230Y-16519460D01*
X12855230Y-16519460D02*
X12836182Y-16528984D01*
X12836182Y-16528984D02*
X12807610Y-16528984D01*
X12988563Y-16528984D02*
X12969515Y-16519460D01*
X12969515Y-16519460D02*
X12959991Y-16500412D01*
X12959991Y-16500412D02*
X12959991Y-16328984D01*
X13140944Y-16519460D02*
X13121896Y-16528984D01*
X13121896Y-16528984D02*
X13083801Y-16528984D01*
X13083801Y-16528984D02*
X13064753Y-16519460D01*
X13064753Y-16519460D02*
X13055230Y-16500412D01*
X13055230Y-16500412D02*
X13055230Y-16424222D01*
X13055230Y-16424222D02*
X13064753Y-16405174D01*
X13064753Y-16405174D02*
X13083801Y-16395650D01*
X13083801Y-16395650D02*
X13121896Y-16395650D01*
X13121896Y-16395650D02*
X13140944Y-16405174D01*
X13140944Y-16405174D02*
X13150468Y-16424222D01*
X13150468Y-16424222D02*
X13150468Y-16443269D01*
X13150468Y-16443269D02*
X13055230Y-16462317D01*
X13226658Y-16519460D02*
X13245706Y-16528984D01*
X13245706Y-16528984D02*
X13283801Y-16528984D01*
X13283801Y-16528984D02*
X13302849Y-16519460D01*
X13302849Y-16519460D02*
X13312372Y-16500412D01*
X13312372Y-16500412D02*
X13312372Y-16490888D01*
X13312372Y-16490888D02*
X13302849Y-16471841D01*
X13302849Y-16471841D02*
X13283801Y-16462317D01*
X13283801Y-16462317D02*
X13255230Y-16462317D01*
X13255230Y-16462317D02*
X13236182Y-16452793D01*
X13236182Y-16452793D02*
X13226658Y-16433746D01*
X13226658Y-16433746D02*
X13226658Y-16424222D01*
X13226658Y-16424222D02*
X13236182Y-16405174D01*
X13236182Y-16405174D02*
X13255230Y-16395650D01*
X13255230Y-16395650D02*
X13283801Y-16395650D01*
X13283801Y-16395650D02*
X13302849Y-16405174D01*
X13379039Y-16605174D02*
X13388563Y-16595650D01*
X13388563Y-16595650D02*
X13407611Y-16567079D01*
X13407611Y-16567079D02*
X13417134Y-16548031D01*
X13417134Y-16548031D02*
X13426658Y-16519460D01*
X13426658Y-16519460D02*
X13436182Y-16471841D01*
X13436182Y-16471841D02*
X13436182Y-16433746D01*
X13436182Y-16433746D02*
X13426658Y-16386127D01*
X13426658Y-16386127D02*
X13417134Y-16357555D01*
X13417134Y-16357555D02*
X13407611Y-16338508D01*
X13407611Y-16338508D02*
X13388563Y-16309936D01*
X13388563Y-16309936D02*
X13379039Y-16300412D01*
M02*
