M48
; DRILL file {KiCad 8.0.9-8.0.9-0~ubuntu22.04.1} date 2025-04-21T19:02:27+0530
; FORMAT={-:-/ absolute / metric / decimal}
; #@! TF.CreationDate,2025-04-21T19:02:27+05:30
; #@! TF.GenerationSoftware,Kicad,Pcbnew,8.0.9-8.0.9-0~ubuntu22.04.1
; #@! TF.FileFunction,Plated,1,4,PTH
FMAT,2
METRIC
; #@! TA.AperFunction,Plated,PTH,ViaDrill
T1C0.300
; #@! TA.AperFunction,Plated,PTH,ComponentDrill
T2C0.800
; #@! TA.AperFunction,Plated,PTH,ComponentDrill
T3C1.000
; #@! TA.AperFunction,Plated,PTH,ComponentDrill
T4C1.300
; #@! TA.AperFunction,Plated,PTH,ComponentDrill
T5C1.600
%
G90
G05
T1
X85.68Y-102.82
X87.47Y-102.72
X87.91Y-94.78
X87.94Y-95.81
X87.99Y-96.87
X90.7Y-95.58
X93.245Y-93.68
X93.34Y-116.05
X93.35Y-110.64
X93.37Y-104.1
X93.37Y-105.45
X93.37Y-106.85
X93.61Y-136.76
X94.02Y-94.41
X94.72Y-118.48
X94.87Y-102.69
X94.91Y-110.71
X95.17Y-115.85
X95.24Y-106.83
X95.615Y-122.615
X96.2Y-117.24
X96.4Y-120.12
X97.36Y-101.8
X97.75Y-118.65
X98.0Y-121.88
X98.93Y-61.07
X98.96Y-68.03
X98.99Y-64.27
X99.26Y-116.53
X99.59Y-123.37
X99.68Y-120.55
X99.85Y-125.24
X101.14Y-102.68
X101.21Y-122.09
X101.224Y-95.202
X101.64Y-97.41
X102.05Y-123.5
X102.11Y-125.28
X102.14Y-101.9
X102.29Y-92.69
X102.88Y-109.54
X103.94Y-92.05
X104.01Y-98.53
X104.39Y-95.11
X104.41Y-94.055
X104.41Y-95.78
X104.68Y-103.407
X104.74Y-109.53
X105.06Y-80.56
X105.09Y-82.33
X105.12Y-84.05
X105.2Y-85.79
X106.34Y-91.46
X107.03Y-97.27
X107.88Y-107.83
X108.51Y-97.13
X108.78Y-136.68
X108.98Y-94.04
X109.29Y-122.02
X109.29Y-124.85
X109.43Y-91.16
X109.59Y-97.38
X110.24Y-87.86
X110.86Y-97.08
X110.93Y-90.78
X111.5Y-94.03
X111.84Y-98.47
X112.287Y-99.22
X112.29Y-97.77
X112.71Y-98.47
X113.173Y-99.22
X113.177Y-97.77
X113.39Y-122.36
X113.5Y-124.32
X113.597Y-98.47
X114.06Y-99.22
X114.063Y-97.77
X114.483Y-98.47
X114.947Y-99.22
X114.95Y-97.77
X115.37Y-98.47
X115.78Y-113.18
X117.71Y-124.43
X117.79Y-122.29
X118.18Y-64.95
X120.51Y-83.83
X121.62Y-86.16
X121.66Y-88.27
X121.93Y-76.32
X122.04Y-70.58
X122.15Y-64.84
X122.42Y-122.4
X122.42Y-124.51
X122.79Y-105.34
X125.15Y-136.6
X125.16Y-113.04
X126.83Y-124.36
X126.87Y-122.4
X130.01Y-124.46
X130.51Y-121.06
X131.96Y-122.82
X133.15Y-118.38
X134.11Y-115.09
X134.15Y-111.14
X134.25Y-102.05
X134.36Y-106.1
X134.54Y-80.12
X134.54Y-94.9
X134.58Y-83.45
X134.59Y-87.95
X134.87Y-119.99
T2
X106.39Y-111.64
X106.39Y-114.18
X106.39Y-116.72
X112.08Y-111.61
X112.08Y-114.15
X112.08Y-116.69
T3
X85.57Y-91.76
X85.57Y-94.3
X85.57Y-96.84
X85.57Y-99.38
X85.73Y-127.23
X85.73Y-145.01
X85.975Y-104.79
X86.295Y-122.64
X88.27Y-127.23
X88.27Y-145.01
X88.515Y-104.79
X88.835Y-122.64
X90.81Y-127.23
X90.81Y-145.01
X91.055Y-104.79
X93.35Y-127.23
X93.35Y-145.01
X93.545Y-91.03
X93.545Y-99.97
X95.89Y-127.23
X95.89Y-145.01
X96.085Y-91.03
X96.085Y-99.97
X98.43Y-127.23
X98.43Y-145.01
X100.97Y-127.23
X100.97Y-145.01
X103.51Y-127.23
X103.51Y-145.01
X104.865Y-76.31
X106.05Y-127.23
X106.05Y-145.01
X107.405Y-76.31
X108.59Y-127.23
X108.59Y-145.01
X111.13Y-127.23
X111.13Y-145.01
X112.97Y-104.56
X112.97Y-107.1
X113.67Y-127.23
X113.67Y-145.01
X116.21Y-127.23
X116.21Y-145.01
X118.75Y-127.23
X118.75Y-145.01
X121.29Y-127.23
X121.29Y-145.01
X123.83Y-127.23
X123.83Y-145.01
X126.37Y-127.23
X126.37Y-145.01
X128.91Y-127.23
X128.91Y-145.01
X131.45Y-127.23
X131.45Y-145.01
X133.99Y-127.23
X133.99Y-145.01
T4
X88.79Y-110.35
X88.79Y-115.35
X103.75Y-63.83
X108.75Y-63.83
X126.595Y-63.83
X131.525Y-92.14
X131.525Y-97.14
X131.595Y-63.83
T5
X95.85Y-76.34
X96.16Y-86.01
X96.16Y-104.39
X98.08Y-111.03
X101.94Y-87.5
X107.58Y-88.98
X109.44Y-100.35
X116.48Y-76.24
X116.48Y-82.47
X118.19Y-108.5
X118.4Y-102.23
X119.32Y-94.42
X125.2Y-102.23
X131.55Y-76.33
X131.58Y-82.98
M30
