%TF.GenerationSoftware,KiCad,Pcbnew,8.0.9-8.0.9-0~ubuntu22.04.1*%
%TF.CreationDate,2025-04-21T10:33:33+05:30*%
%TF.ProjectId,Variable Buck Converter,56617269-6162-46c6-9520-4275636b2043,rev?*%
%TF.SameCoordinates,Original*%
%TF.FileFunction,Drillmap*%
%TF.FilePolarity,Positive*%
%FSLAX45Y45*%
G04 Gerber Fmt 4.5, Leading zero omitted, Abs format (unit mm)*
G04 Created by KiCad (PCBNEW 8.0.9-8.0.9-0~ubuntu22.04.1) date 2025-04-21 10:33:33*
%MOMM*%
%LPD*%
G01*
G04 APERTURE LIST*
%ADD10C,0.050000*%
%ADD11C,0.200000*%
G04 APERTURE END LIST*
D10*
X8416000Y-5894000D02*
X13637000Y-5894000D01*
X13637000Y-14739000D01*
X8416000Y-14739000D01*
X8416000Y-5894000D01*
D11*
X8674277Y-15052984D02*
X8674277Y-14852984D01*
X8674277Y-14852984D02*
X8721896Y-14852984D01*
X8721896Y-14852984D02*
X8750467Y-14862508D01*
X8750467Y-14862508D02*
X8769515Y-14881555D01*
X8769515Y-14881555D02*
X8779039Y-14900603D01*
X8779039Y-14900603D02*
X8788563Y-14938698D01*
X8788563Y-14938698D02*
X8788563Y-14967269D01*
X8788563Y-14967269D02*
X8779039Y-15005365D01*
X8779039Y-15005365D02*
X8769515Y-15024412D01*
X8769515Y-15024412D02*
X8750467Y-15043460D01*
X8750467Y-15043460D02*
X8721896Y-15052984D01*
X8721896Y-15052984D02*
X8674277Y-15052984D01*
X8874277Y-15052984D02*
X8874277Y-14919650D01*
X8874277Y-14957746D02*
X8883801Y-14938698D01*
X8883801Y-14938698D02*
X8893324Y-14929174D01*
X8893324Y-14929174D02*
X8912372Y-14919650D01*
X8912372Y-14919650D02*
X8931420Y-14919650D01*
X8998086Y-15052984D02*
X8998086Y-14919650D01*
X8998086Y-14852984D02*
X8988563Y-14862508D01*
X8988563Y-14862508D02*
X8998086Y-14872031D01*
X8998086Y-14872031D02*
X9007610Y-14862508D01*
X9007610Y-14862508D02*
X8998086Y-14852984D01*
X8998086Y-14852984D02*
X8998086Y-14872031D01*
X9121896Y-15052984D02*
X9102848Y-15043460D01*
X9102848Y-15043460D02*
X9093324Y-15024412D01*
X9093324Y-15024412D02*
X9093324Y-14852984D01*
X9226658Y-15052984D02*
X9207610Y-15043460D01*
X9207610Y-15043460D02*
X9198086Y-15024412D01*
X9198086Y-15024412D02*
X9198086Y-14852984D01*
X9455229Y-15052984D02*
X9455229Y-14852984D01*
X9455229Y-14852984D02*
X9521896Y-14995841D01*
X9521896Y-14995841D02*
X9588563Y-14852984D01*
X9588563Y-14852984D02*
X9588563Y-15052984D01*
X9769515Y-15052984D02*
X9769515Y-14948222D01*
X9769515Y-14948222D02*
X9759991Y-14929174D01*
X9759991Y-14929174D02*
X9740944Y-14919650D01*
X9740944Y-14919650D02*
X9702848Y-14919650D01*
X9702848Y-14919650D02*
X9683801Y-14929174D01*
X9769515Y-15043460D02*
X9750467Y-15052984D01*
X9750467Y-15052984D02*
X9702848Y-15052984D01*
X9702848Y-15052984D02*
X9683801Y-15043460D01*
X9683801Y-15043460D02*
X9674277Y-15024412D01*
X9674277Y-15024412D02*
X9674277Y-15005365D01*
X9674277Y-15005365D02*
X9683801Y-14986317D01*
X9683801Y-14986317D02*
X9702848Y-14976793D01*
X9702848Y-14976793D02*
X9750467Y-14976793D01*
X9750467Y-14976793D02*
X9769515Y-14967269D01*
X9864753Y-14919650D02*
X9864753Y-15119650D01*
X9864753Y-14929174D02*
X9883801Y-14919650D01*
X9883801Y-14919650D02*
X9921896Y-14919650D01*
X9921896Y-14919650D02*
X9940944Y-14929174D01*
X9940944Y-14929174D02*
X9950467Y-14938698D01*
X9950467Y-14938698D02*
X9959991Y-14957746D01*
X9959991Y-14957746D02*
X9959991Y-15014888D01*
X9959991Y-15014888D02*
X9950467Y-15033936D01*
X9950467Y-15033936D02*
X9940944Y-15043460D01*
X9940944Y-15043460D02*
X9921896Y-15052984D01*
X9921896Y-15052984D02*
X9883801Y-15052984D01*
X9883801Y-15052984D02*
X9864753Y-15043460D01*
X10045705Y-15033936D02*
X10055229Y-15043460D01*
X10055229Y-15043460D02*
X10045705Y-15052984D01*
X10045705Y-15052984D02*
X10036182Y-15043460D01*
X10036182Y-15043460D02*
X10045705Y-15033936D01*
X10045705Y-15033936D02*
X10045705Y-15052984D01*
X10045705Y-14929174D02*
X10055229Y-14938698D01*
X10055229Y-14938698D02*
X10045705Y-14948222D01*
X10045705Y-14948222D02*
X10036182Y-14938698D01*
X10036182Y-14938698D02*
X10045705Y-14929174D01*
X10045705Y-14929174D02*
X10045705Y-14948222D01*
M02*
