G04*
G04 #@! TF.GenerationSoftware,Altium Limited,Altium Designer,18.1.9 (240)*
G04*
G04 Layer_Physical_Order=3*
G04 Layer_Color=16440176*
%FSAX25Y25*%
%MOIN*%
G70*
G01*
G75*
%ADD16C,0.01000*%
%ADD17C,0.00800*%
%ADD83C,0.06496*%
%ADD106C,0.04600*%
%ADD109R,0.07087X0.07087*%
%ADD112C,0.08465*%
%ADD115R,0.08465X0.08465*%
%ADD117C,0.08700*%
%ADD119C,0.01968*%
%ADD120C,0.01700*%
%ADD121C,0.02400*%
%ADD122C,0.02200*%
G36*
X0297831Y0391300D02*
X0298134Y0390300D01*
X0297814Y0390086D01*
X0297328Y0389358D01*
X0297157Y0388500D01*
X0297328Y0387642D01*
X0297814Y0386914D01*
Y0386586D01*
X0297328Y0385858D01*
X0297157Y0385000D01*
X0297328Y0384141D01*
X0297814Y0383414D01*
X0298542Y0382928D01*
X0299400Y0382757D01*
X0300258Y0382928D01*
X0300986Y0383414D01*
X0301814D01*
X0302542Y0382928D01*
X0303400Y0382757D01*
X0304258Y0382928D01*
X0304986Y0383414D01*
X0305814D01*
X0306542Y0382928D01*
X0307400Y0382757D01*
X0308258Y0382928D01*
X0308986Y0383414D01*
X0309814D01*
X0310542Y0382928D01*
X0311400Y0382757D01*
X0312258Y0382928D01*
X0312986Y0383414D01*
X0313472Y0384141D01*
X0313643Y0385000D01*
X0313472Y0385858D01*
X0312986Y0386586D01*
Y0386914D01*
X0313472Y0387642D01*
X0313643Y0388500D01*
X0313472Y0389358D01*
X0312986Y0390086D01*
X0312666Y0390300D01*
X0312969Y0391300D01*
X0363600Y0391300D01*
X0364320Y0390580D01*
X0363879Y0389607D01*
X0362700Y0389684D01*
X0360509Y0389540D01*
X0358356Y0389112D01*
X0356277Y0388406D01*
X0354308Y0387435D01*
X0352483Y0386215D01*
X0350832Y0384768D01*
X0349384Y0383117D01*
X0348165Y0381292D01*
X0347194Y0379323D01*
X0346488Y0377244D01*
X0346060Y0375091D01*
X0345916Y0372900D01*
X0346060Y0370709D01*
X0346488Y0368556D01*
X0347194Y0366477D01*
X0348165Y0364508D01*
X0349384Y0362683D01*
X0350832Y0361032D01*
X0352483Y0359584D01*
X0354308Y0358365D01*
X0356277Y0357394D01*
X0358356Y0356688D01*
X0360509Y0356259D01*
X0362700Y0356116D01*
X0364891Y0356259D01*
X0367044Y0356688D01*
X0369123Y0357394D01*
X0371092Y0358365D01*
X0372917Y0359584D01*
X0374568Y0361032D01*
X0376016Y0362683D01*
X0377235Y0364508D01*
X0378206Y0366477D01*
X0378912Y0368556D01*
X0379340Y0370709D01*
X0379484Y0372900D01*
X0379407Y0374079D01*
X0380380Y0374520D01*
X0381500Y0373400D01*
X0381500Y0187300D01*
X0374500Y0180400D01*
X0367834D01*
X0367669Y0181400D01*
X0369123Y0181894D01*
X0371092Y0182865D01*
X0372917Y0184084D01*
X0374568Y0185532D01*
X0376016Y0187182D01*
X0377235Y0189008D01*
X0378206Y0190977D01*
X0378912Y0193056D01*
X0379340Y0195209D01*
X0379484Y0197400D01*
X0379340Y0199591D01*
X0378912Y0201744D01*
X0378206Y0203823D01*
X0377235Y0205792D01*
X0376016Y0207617D01*
X0374568Y0209268D01*
X0372917Y0210716D01*
X0371092Y0211935D01*
X0369123Y0212906D01*
X0367044Y0213612D01*
X0364891Y0214040D01*
X0362700Y0214184D01*
X0360509Y0214040D01*
X0358356Y0213612D01*
X0356277Y0212906D01*
X0354308Y0211935D01*
X0352483Y0210716D01*
X0350832Y0209268D01*
X0349384Y0207617D01*
X0348165Y0205792D01*
X0347194Y0203823D01*
X0346488Y0201744D01*
X0346060Y0199591D01*
X0345916Y0197400D01*
X0346060Y0195209D01*
X0346488Y0193056D01*
X0347194Y0190977D01*
X0348165Y0189008D01*
X0349384Y0187182D01*
X0350832Y0185532D01*
X0352483Y0184084D01*
X0354308Y0182865D01*
X0356277Y0181894D01*
X0357731Y0181400D01*
X0357566Y0180400D01*
X0185334D01*
X0185169Y0181400D01*
X0186623Y0181894D01*
X0188592Y0182865D01*
X0190417Y0184084D01*
X0192068Y0185532D01*
X0193516Y0187182D01*
X0194735Y0189008D01*
X0195706Y0190977D01*
X0196412Y0193056D01*
X0196840Y0195209D01*
X0196984Y0197400D01*
X0196840Y0199591D01*
X0196412Y0201744D01*
X0195706Y0203823D01*
X0194735Y0205792D01*
X0193516Y0207617D01*
X0192068Y0209268D01*
X0190417Y0210716D01*
X0188592Y0211935D01*
X0186623Y0212906D01*
X0184544Y0213612D01*
X0182391Y0214040D01*
X0180200Y0214184D01*
X0178009Y0214040D01*
X0175856Y0213612D01*
X0173777Y0212906D01*
X0171808Y0211935D01*
X0169983Y0210716D01*
X0168332Y0209268D01*
X0166884Y0207617D01*
X0165665Y0205792D01*
X0164694Y0203823D01*
X0163988Y0201744D01*
X0163560Y0199591D01*
X0163416Y0197400D01*
X0163560Y0195209D01*
X0163988Y0193056D01*
X0164694Y0190977D01*
X0165665Y0189008D01*
X0166884Y0187182D01*
X0168332Y0185532D01*
X0169983Y0184084D01*
X0171808Y0182865D01*
X0173777Y0181894D01*
X0175231Y0181400D01*
X0175066Y0180400D01*
X0170300D01*
X0161394Y0189306D01*
Y0384494D01*
X0168200Y0391300D01*
X0297831Y0391300D01*
D02*
G37*
%LPC*%
G36*
X0329400Y0385743D02*
X0328095Y0385571D01*
X0326878Y0385067D01*
X0325834Y0384266D01*
X0325032Y0383222D01*
X0324529Y0382005D01*
X0324357Y0380700D01*
X0324529Y0379395D01*
X0325032Y0378178D01*
X0325834Y0377134D01*
X0326878Y0376332D01*
X0328095Y0375829D01*
X0329400Y0375657D01*
X0330705Y0375829D01*
X0331922Y0376332D01*
X0332966Y0377134D01*
X0333768Y0378178D01*
X0334271Y0379395D01*
X0334443Y0380700D01*
X0334271Y0382005D01*
X0333768Y0383222D01*
X0332966Y0384266D01*
X0331922Y0385067D01*
X0330705Y0385571D01*
X0329400Y0385743D01*
D02*
G37*
G36*
X0310032Y0374232D02*
X0299568D01*
Y0363768D01*
X0310032D01*
Y0374232D01*
D02*
G37*
G36*
X0180200Y0389684D02*
X0178009Y0389540D01*
X0175856Y0389112D01*
X0173777Y0388406D01*
X0171808Y0387435D01*
X0169983Y0386215D01*
X0168332Y0384768D01*
X0166884Y0383117D01*
X0165665Y0381292D01*
X0164694Y0379323D01*
X0163988Y0377244D01*
X0163560Y0375091D01*
X0163416Y0372900D01*
X0163560Y0370709D01*
X0163988Y0368556D01*
X0164694Y0366477D01*
X0165665Y0364508D01*
X0166884Y0362683D01*
X0168332Y0361032D01*
X0169983Y0359584D01*
X0171808Y0358365D01*
X0173777Y0357394D01*
X0175856Y0356688D01*
X0178009Y0356259D01*
X0180200Y0356116D01*
X0182391Y0356259D01*
X0184544Y0356688D01*
X0186623Y0357394D01*
X0188592Y0358365D01*
X0190417Y0359584D01*
X0192068Y0361032D01*
X0193516Y0362683D01*
X0194735Y0364508D01*
X0195706Y0366477D01*
X0196412Y0368556D01*
X0196840Y0370709D01*
X0196984Y0372900D01*
X0196840Y0375091D01*
X0196412Y0377244D01*
X0195706Y0379323D01*
X0194735Y0381292D01*
X0193516Y0383117D01*
X0192068Y0384768D01*
X0190417Y0386215D01*
X0188592Y0387435D01*
X0186623Y0388406D01*
X0184544Y0389112D01*
X0182391Y0389540D01*
X0180200Y0389684D01*
D02*
G37*
G36*
X0312200Y0356243D02*
X0311342Y0356072D01*
X0310614Y0355586D01*
X0310128Y0354858D01*
X0309957Y0354000D01*
X0310128Y0353141D01*
X0310614Y0352414D01*
X0311342Y0351928D01*
X0312200Y0351757D01*
X0313058Y0351928D01*
X0313786Y0352414D01*
X0314272Y0353141D01*
X0314443Y0354000D01*
X0314272Y0354858D01*
X0313786Y0355586D01*
X0313058Y0356072D01*
X0312200Y0356243D01*
D02*
G37*
G36*
X0306200D02*
X0305342Y0356072D01*
X0304614Y0355586D01*
X0304128Y0354858D01*
X0303957Y0354000D01*
X0304128Y0353141D01*
X0304614Y0352414D01*
X0305342Y0351928D01*
X0306200Y0351757D01*
X0307058Y0351928D01*
X0307786Y0352414D01*
X0308272Y0353141D01*
X0308443Y0354000D01*
X0308272Y0354858D01*
X0307786Y0355586D01*
X0307058Y0356072D01*
X0306200Y0356243D01*
D02*
G37*
G36*
X0312000Y0348243D02*
X0311142Y0348072D01*
X0310414Y0347586D01*
X0309928Y0346858D01*
X0309757Y0346000D01*
X0309928Y0345142D01*
X0310414Y0344414D01*
X0311142Y0343928D01*
X0312000Y0343757D01*
X0312858Y0343928D01*
X0313586Y0344414D01*
X0314072Y0345142D01*
X0314243Y0346000D01*
X0314072Y0346858D01*
X0313586Y0347586D01*
X0312858Y0348072D01*
X0312000Y0348243D01*
D02*
G37*
G36*
X0306000D02*
X0305142Y0348072D01*
X0304414Y0347586D01*
X0303928Y0346858D01*
X0303757Y0346000D01*
X0303928Y0345142D01*
X0304414Y0344414D01*
X0305142Y0343928D01*
X0306000Y0343757D01*
X0306858Y0343928D01*
X0307586Y0344414D01*
X0308072Y0345142D01*
X0308243Y0346000D01*
X0308072Y0346858D01*
X0307586Y0347586D01*
X0306858Y0348072D01*
X0306000Y0348243D01*
D02*
G37*
G36*
X0365300Y0346441D02*
X0364481Y0346278D01*
X0363786Y0345814D01*
X0363322Y0345119D01*
X0363159Y0344300D01*
X0363322Y0343480D01*
X0363786Y0342786D01*
X0364481Y0342322D01*
X0365300Y0342159D01*
X0366119Y0342322D01*
X0366814Y0342786D01*
X0367278Y0343480D01*
X0367441Y0344300D01*
X0367278Y0345119D01*
X0366814Y0345814D01*
X0366119Y0346278D01*
X0365300Y0346441D01*
D02*
G37*
G36*
X0313300Y0337443D02*
X0312442Y0337272D01*
X0311714Y0336786D01*
X0311228Y0336058D01*
X0311057Y0335200D01*
X0311228Y0334342D01*
X0311714Y0333614D01*
X0312442Y0333128D01*
X0313300Y0332957D01*
X0314158Y0333128D01*
X0314886Y0333614D01*
X0315372Y0334342D01*
X0315543Y0335200D01*
X0315372Y0336058D01*
X0314886Y0336786D01*
X0314158Y0337272D01*
X0313300Y0337443D01*
D02*
G37*
G36*
X0187700Y0340986D02*
X0186642Y0340847D01*
X0185657Y0340439D01*
X0184811Y0339789D01*
X0184161Y0338943D01*
X0183753Y0337958D01*
X0183614Y0336900D01*
X0183753Y0335842D01*
X0184161Y0334857D01*
X0184811Y0334011D01*
X0185657Y0333361D01*
X0186642Y0332953D01*
X0187700Y0332814D01*
X0188758Y0332953D01*
X0189743Y0333361D01*
X0190589Y0334011D01*
X0191239Y0334857D01*
X0191647Y0335842D01*
X0191786Y0336900D01*
X0191647Y0337958D01*
X0191239Y0338943D01*
X0190589Y0339789D01*
X0189743Y0340439D01*
X0188758Y0340847D01*
X0187700Y0340986D01*
D02*
G37*
G36*
X0306000Y0337243D02*
X0305142Y0337072D01*
X0304414Y0336586D01*
X0303928Y0335858D01*
X0303757Y0335000D01*
X0303928Y0334142D01*
X0304414Y0333414D01*
X0305142Y0332928D01*
X0306000Y0332757D01*
X0306858Y0332928D01*
X0307586Y0333414D01*
X0308072Y0334142D01*
X0308243Y0335000D01*
X0308072Y0335858D01*
X0307586Y0336586D01*
X0306858Y0337072D01*
X0306000Y0337243D01*
D02*
G37*
G36*
X0191751Y0330951D02*
X0183649D01*
Y0322849D01*
X0191751D01*
Y0330951D01*
D02*
G37*
G36*
X0312000Y0326243D02*
X0311142Y0326072D01*
X0310414Y0325586D01*
X0309928Y0324858D01*
X0309757Y0324000D01*
X0309928Y0323142D01*
X0310414Y0322414D01*
X0311142Y0321928D01*
X0312000Y0321757D01*
X0312858Y0321928D01*
X0313586Y0322414D01*
X0314072Y0323142D01*
X0314243Y0324000D01*
X0314072Y0324858D01*
X0313586Y0325586D01*
X0312858Y0326072D01*
X0312000Y0326243D01*
D02*
G37*
G36*
X0306000D02*
X0305142Y0326072D01*
X0304414Y0325586D01*
X0303928Y0324858D01*
X0303757Y0324000D01*
X0303928Y0323142D01*
X0304414Y0322414D01*
X0305142Y0321928D01*
X0306000Y0321757D01*
X0306858Y0321928D01*
X0307586Y0322414D01*
X0308072Y0323142D01*
X0308243Y0324000D01*
X0308072Y0324858D01*
X0307586Y0325586D01*
X0306858Y0326072D01*
X0306000Y0326243D01*
D02*
G37*
G36*
X0358400Y0328543D02*
X0357095Y0328371D01*
X0355878Y0327867D01*
X0354834Y0327066D01*
X0354032Y0326022D01*
X0353529Y0324805D01*
X0353357Y0323500D01*
X0353529Y0322195D01*
X0354032Y0320978D01*
X0354834Y0319934D01*
X0355878Y0319132D01*
X0357095Y0318629D01*
X0358400Y0318457D01*
X0359705Y0318629D01*
X0360922Y0319132D01*
X0361966Y0319934D01*
X0362768Y0320978D01*
X0363271Y0322195D01*
X0363443Y0323500D01*
X0363271Y0324805D01*
X0362768Y0326022D01*
X0361966Y0327066D01*
X0360922Y0327867D01*
X0359705Y0328371D01*
X0358400Y0328543D01*
D02*
G37*
G36*
X0173248Y0321248D02*
X0164752D01*
Y0312752D01*
X0173248D01*
Y0321248D01*
D02*
G37*
G36*
X0303200Y0311643D02*
X0302342Y0311472D01*
X0301614Y0310986D01*
X0301128Y0310258D01*
X0301001Y0309620D01*
X0300930Y0309557D01*
X0300350Y0309271D01*
X0299979Y0309191D01*
X0299558Y0309472D01*
X0298700Y0309643D01*
X0297842Y0309472D01*
X0297114Y0308986D01*
X0296628Y0308258D01*
X0296457Y0307400D01*
X0296628Y0306541D01*
X0296079Y0305563D01*
X0295814Y0305386D01*
X0295328Y0304658D01*
X0295157Y0303800D01*
X0295328Y0302942D01*
X0295379Y0302865D01*
X0295714Y0301886D01*
X0295228Y0301158D01*
X0295057Y0300300D01*
X0295228Y0299442D01*
X0295714Y0298714D01*
X0296442Y0298228D01*
X0297300Y0298057D01*
X0298158Y0298228D01*
X0298886Y0298714D01*
X0299372Y0299442D01*
X0299543Y0300300D01*
X0299372Y0301158D01*
X0299321Y0301235D01*
X0298986Y0302214D01*
X0299472Y0302942D01*
X0299643Y0303800D01*
X0299472Y0304658D01*
X0300021Y0305637D01*
X0300286Y0305814D01*
X0300772Y0306541D01*
X0300899Y0307180D01*
X0300970Y0307243D01*
X0301550Y0307529D01*
X0301921Y0307609D01*
X0302342Y0307328D01*
X0303200Y0307157D01*
X0304058Y0307328D01*
X0304786Y0307814D01*
X0305272Y0308542D01*
X0305443Y0309400D01*
X0305272Y0310258D01*
X0304786Y0310986D01*
X0304058Y0311472D01*
X0303200Y0311643D01*
D02*
G37*
G36*
X0310200D02*
X0309342Y0311472D01*
X0308614Y0310986D01*
X0308128Y0310258D01*
X0307957Y0309400D01*
X0308128Y0308542D01*
X0308614Y0307814D01*
X0309342Y0307328D01*
X0310200Y0307157D01*
X0311058Y0307328D01*
X0311786Y0307814D01*
X0312272Y0308542D01*
X0312443Y0309400D01*
X0312272Y0310258D01*
X0311786Y0310986D01*
X0311058Y0311472D01*
X0310200Y0311643D01*
D02*
G37*
G36*
X0204300Y0310134D02*
X0203256Y0309997D01*
X0202283Y0309594D01*
X0201447Y0308953D01*
X0200806Y0308117D01*
X0200403Y0307144D01*
X0200266Y0306100D01*
X0200403Y0305056D01*
X0200806Y0304083D01*
X0201447Y0303247D01*
X0202283Y0302606D01*
X0203256Y0302203D01*
X0204300Y0302065D01*
X0205344Y0302203D01*
X0206317Y0302606D01*
X0207153Y0303247D01*
X0207794Y0304083D01*
X0208197Y0305056D01*
X0208334Y0306100D01*
X0208197Y0307144D01*
X0207794Y0308117D01*
X0207153Y0308953D01*
X0206317Y0309594D01*
X0205344Y0309997D01*
X0204300Y0310134D01*
D02*
G37*
G36*
X0344471Y0303143D02*
X0343613Y0302972D01*
X0342885Y0302486D01*
X0342399Y0301758D01*
X0342228Y0300900D01*
X0342399Y0300042D01*
X0342885Y0299314D01*
X0343613Y0298828D01*
X0344471Y0298657D01*
X0345330Y0298828D01*
X0346058Y0299314D01*
X0346544Y0300042D01*
X0346714Y0300900D01*
X0346544Y0301758D01*
X0346058Y0302486D01*
X0345330Y0302972D01*
X0344471Y0303143D01*
D02*
G37*
G36*
X0339043D02*
X0338184Y0302972D01*
X0337457Y0302486D01*
X0336970Y0301758D01*
X0336800Y0300900D01*
X0336970Y0300042D01*
X0337457Y0299314D01*
X0338184Y0298828D01*
X0339043Y0298657D01*
X0339901Y0298828D01*
X0340629Y0299314D01*
X0341115Y0300042D01*
X0341286Y0300900D01*
X0341115Y0301758D01*
X0340629Y0302486D01*
X0339901Y0302972D01*
X0339043Y0303143D01*
D02*
G37*
G36*
X0333614D02*
X0332756Y0302972D01*
X0332028Y0302486D01*
X0331542Y0301758D01*
X0331371Y0300900D01*
X0331542Y0300042D01*
X0332028Y0299314D01*
X0332756Y0298828D01*
X0333614Y0298657D01*
X0334473Y0298828D01*
X0335200Y0299314D01*
X0335687Y0300042D01*
X0335857Y0300900D01*
X0335687Y0301758D01*
X0335200Y0302486D01*
X0334473Y0302972D01*
X0333614Y0303143D01*
D02*
G37*
G36*
X0328186D02*
X0327327Y0302972D01*
X0326600Y0302486D01*
X0326113Y0301758D01*
X0325943Y0300900D01*
X0326113Y0300042D01*
X0326600Y0299314D01*
X0327327Y0298828D01*
X0328186Y0298657D01*
X0329044Y0298828D01*
X0329772Y0299314D01*
X0330258Y0300042D01*
X0330429Y0300900D01*
X0330258Y0301758D01*
X0329772Y0302486D01*
X0329044Y0302972D01*
X0328186Y0303143D01*
D02*
G37*
G36*
X0303200Y0305643D02*
X0302342Y0305472D01*
X0301614Y0304986D01*
X0301128Y0304258D01*
X0300957Y0303400D01*
X0301128Y0302542D01*
X0301556Y0301900D01*
X0301128Y0301258D01*
X0300957Y0300400D01*
X0301128Y0299541D01*
X0301614Y0298814D01*
X0302342Y0298328D01*
X0303200Y0298157D01*
X0304058Y0298328D01*
X0304786Y0298814D01*
X0304799Y0298833D01*
X0306001D01*
X0306014Y0298814D01*
X0306742Y0298328D01*
X0307600Y0298157D01*
X0308458Y0298328D01*
X0309186Y0298814D01*
X0309672Y0299541D01*
X0309843Y0300400D01*
X0309672Y0301258D01*
X0309244Y0301900D01*
X0309672Y0302541D01*
X0309843Y0303400D01*
X0309672Y0304258D01*
X0309186Y0304986D01*
X0308458Y0305472D01*
X0307600Y0305643D01*
X0306742Y0305472D01*
X0306014Y0304986D01*
X0306001Y0304967D01*
X0304799D01*
X0304786Y0304986D01*
X0304058Y0305472D01*
X0303200Y0305643D01*
D02*
G37*
G36*
X0217500Y0300534D02*
X0216456Y0300397D01*
X0215483Y0299994D01*
X0214647Y0299353D01*
X0214006Y0298517D01*
X0213603Y0297544D01*
X0213465Y0296500D01*
X0213470Y0296465D01*
X0212496Y0296203D01*
X0212041Y0297293D01*
X0211930Y0297458D01*
X0211821Y0297621D01*
X0211820Y0297622D01*
X0211819Y0297623D01*
X0211653Y0297733D01*
X0211490Y0297842D01*
X0211489Y0297842D01*
X0211488Y0297843D01*
X0211292Y0297881D01*
X0211100Y0297920D01*
X0195033D01*
X0194642Y0297842D01*
X0194312Y0297621D01*
X0194091Y0297290D01*
X0194013Y0296900D01*
Y0289532D01*
X0194036Y0289419D01*
X0194039Y0289303D01*
X0194074Y0289225D01*
X0194091Y0289142D01*
X0194155Y0289046D01*
X0194203Y0288940D01*
X0194265Y0288882D01*
X0194312Y0288811D01*
X0194408Y0288747D01*
X0194493Y0288667D01*
X0202675Y0283561D01*
X0207393Y0275772D01*
X0207451Y0275709D01*
X0207492Y0275635D01*
X0207583Y0275564D01*
X0207662Y0275478D01*
X0207739Y0275442D01*
X0207806Y0275390D01*
X0207917Y0275359D01*
X0208022Y0275310D01*
X0208107Y0275306D01*
X0208189Y0275283D01*
X0229424Y0273690D01*
X0229462Y0273694D01*
X0229500Y0273687D01*
X0229658Y0273718D01*
X0229819Y0273738D01*
X0229852Y0273757D01*
X0229890Y0273764D01*
X0230024Y0273854D01*
X0230165Y0273933D01*
X0230189Y0273964D01*
X0230221Y0273985D01*
X0230311Y0274119D01*
X0230410Y0274247D01*
X0230420Y0274284D01*
X0230442Y0274316D01*
X0230473Y0274474D01*
X0230517Y0274630D01*
X0230512Y0274668D01*
X0230520Y0274706D01*
X0230520Y0275944D01*
X0230743Y0276278D01*
X0230886Y0277000D01*
X0230743Y0277722D01*
X0230520Y0278056D01*
X0230520Y0283800D01*
X0230490Y0283948D01*
X0230475Y0284098D01*
X0230452Y0284142D01*
X0230442Y0284190D01*
X0230358Y0284316D01*
X0230287Y0284449D01*
X0230248Y0284480D01*
X0230221Y0284521D01*
X0230095Y0284605D01*
X0229978Y0284700D01*
X0229931Y0284715D01*
X0229890Y0284742D01*
X0229742Y0284771D01*
X0229597Y0284815D01*
X0222835Y0285463D01*
X0219343Y0291851D01*
X0219511Y0292967D01*
X0219730Y0293169D01*
X0220353Y0293647D01*
X0220994Y0294483D01*
X0221397Y0295456D01*
X0221534Y0296500D01*
X0221397Y0297544D01*
X0220994Y0298517D01*
X0220353Y0299353D01*
X0219517Y0299994D01*
X0218544Y0300397D01*
X0217500Y0300534D01*
D02*
G37*
G36*
X0291700Y0300643D02*
X0290842Y0300472D01*
X0290114Y0299986D01*
X0289628Y0299258D01*
X0289457Y0298400D01*
X0289628Y0297541D01*
X0290114Y0296814D01*
X0290842Y0296328D01*
X0291700Y0296157D01*
X0292558Y0296328D01*
X0293286Y0296814D01*
X0293772Y0297541D01*
X0293943Y0298400D01*
X0293772Y0299258D01*
X0293286Y0299986D01*
X0292558Y0300472D01*
X0291700Y0300643D01*
D02*
G37*
G36*
X0285400D02*
X0284542Y0300472D01*
X0283814Y0299986D01*
X0283328Y0299258D01*
X0283157Y0298400D01*
X0283328Y0297541D01*
X0283814Y0296814D01*
X0284542Y0296328D01*
X0285400Y0296157D01*
X0286258Y0296328D01*
X0286986Y0296814D01*
X0287472Y0297541D01*
X0287643Y0298400D01*
X0287472Y0299258D01*
X0286986Y0299986D01*
X0286258Y0300472D01*
X0285400Y0300643D01*
D02*
G37*
G36*
X0269007Y0295876D02*
X0268285Y0295732D01*
X0267673Y0295323D01*
X0266840Y0295323D01*
X0266648Y0295452D01*
X0266229Y0295732D01*
X0265507Y0295876D01*
X0264785Y0295732D01*
X0264173Y0295323D01*
X0263340Y0295323D01*
X0263148Y0295452D01*
X0262729Y0295732D01*
X0262007Y0295876D01*
X0261285Y0295732D01*
X0260673Y0295323D01*
X0260264Y0294711D01*
X0260246Y0294624D01*
X0259438Y0294533D01*
X0259215Y0294563D01*
X0258840Y0295123D01*
X0258228Y0295532D01*
X0257507Y0295676D01*
X0256785Y0295532D01*
X0256173Y0295123D01*
X0255707D01*
X0255640Y0295223D01*
X0255029Y0295632D01*
X0254307Y0295776D01*
X0253585Y0295632D01*
X0252973Y0295223D01*
X0252340D01*
X0251729Y0295632D01*
X0251007Y0295776D01*
X0250285Y0295632D01*
X0249673Y0295223D01*
X0249264Y0294612D01*
X0249125Y0293913D01*
X0248807Y0293976D01*
X0248085Y0293832D01*
X0247473Y0293423D01*
X0247064Y0292811D01*
X0247042Y0292700D01*
X0246100D01*
Y0283100D01*
X0246200Y0283000D01*
Y0281267D01*
X0246078Y0281243D01*
X0245466Y0280834D01*
X0245057Y0280222D01*
X0244914Y0279500D01*
X0245057Y0278778D01*
X0245410Y0278250D01*
X0245057Y0277722D01*
X0244914Y0277000D01*
X0245057Y0276278D01*
X0245456Y0275650D01*
X0245057Y0275022D01*
X0244914Y0274300D01*
X0245057Y0273578D01*
X0245410Y0273050D01*
X0245057Y0272522D01*
X0244914Y0271800D01*
X0245057Y0271078D01*
X0245444Y0270500D01*
X0245057Y0269922D01*
X0244914Y0269200D01*
X0245057Y0268478D01*
X0245466Y0267866D01*
X0245718Y0267698D01*
X0246000Y0266800D01*
X0246000Y0266800D01*
Y0256600D01*
X0246300Y0256300D01*
X0278735D01*
X0278600Y0256435D01*
Y0273499D01*
X0279600Y0274234D01*
X0279700Y0274214D01*
X0280422Y0274357D01*
X0281034Y0274766D01*
X0281443Y0275378D01*
X0281586Y0276100D01*
X0281443Y0276822D01*
X0281034Y0277434D01*
X0280422Y0277843D01*
X0279700Y0277986D01*
X0278986Y0278600D01*
X0278843Y0279322D01*
X0278600Y0279685D01*
Y0280299D01*
X0279600Y0281034D01*
X0279700Y0281014D01*
X0280422Y0281157D01*
X0281034Y0281566D01*
X0281443Y0282178D01*
X0281586Y0282900D01*
X0281443Y0283622D01*
X0281034Y0284234D01*
X0280422Y0284643D01*
X0279726Y0284781D01*
X0279696Y0284791D01*
X0278958Y0285658D01*
X0278986Y0285800D01*
X0278843Y0286522D01*
X0278600Y0286885D01*
Y0292500D01*
X0278400Y0292700D01*
X0271481D01*
X0270835Y0293700D01*
X0270893Y0293990D01*
X0270749Y0294711D01*
X0270340Y0295323D01*
X0269728Y0295732D01*
X0269007Y0295876D01*
D02*
G37*
G36*
X0344757Y0297143D02*
X0343899Y0296972D01*
X0343171Y0296486D01*
X0342685Y0295758D01*
X0342514Y0294900D01*
X0342685Y0294041D01*
X0343171Y0293314D01*
X0343899Y0292828D01*
X0344757Y0292657D01*
X0345616Y0292828D01*
X0346343Y0293314D01*
X0346830Y0294041D01*
X0347000Y0294900D01*
X0346830Y0295758D01*
X0346343Y0296486D01*
X0345616Y0296972D01*
X0344757Y0297143D01*
D02*
G37*
G36*
X0339329D02*
X0338470Y0296972D01*
X0337742Y0296486D01*
X0337256Y0295758D01*
X0337086Y0294900D01*
X0337256Y0294041D01*
X0337742Y0293314D01*
X0338470Y0292828D01*
X0339329Y0292657D01*
X0340187Y0292828D01*
X0340915Y0293314D01*
X0341401Y0294041D01*
X0341572Y0294900D01*
X0341401Y0295758D01*
X0340915Y0296486D01*
X0340187Y0296972D01*
X0339329Y0297143D01*
D02*
G37*
G36*
X0333900D02*
X0333042Y0296972D01*
X0332314Y0296486D01*
X0331828Y0295758D01*
X0331657Y0294900D01*
X0331828Y0294041D01*
X0332314Y0293314D01*
X0333042Y0292828D01*
X0333900Y0292657D01*
X0334758Y0292828D01*
X0335486Y0293314D01*
X0335972Y0294041D01*
X0336143Y0294900D01*
X0335972Y0295758D01*
X0335486Y0296486D01*
X0334758Y0296972D01*
X0333900Y0297143D01*
D02*
G37*
G36*
X0328471D02*
X0327613Y0296972D01*
X0326885Y0296486D01*
X0326399Y0295758D01*
X0326228Y0294900D01*
X0326399Y0294041D01*
X0326885Y0293314D01*
X0327613Y0292828D01*
X0328471Y0292657D01*
X0329330Y0292828D01*
X0330058Y0293314D01*
X0330544Y0294041D01*
X0330715Y0294900D01*
X0330544Y0295758D01*
X0330058Y0296486D01*
X0329330Y0296972D01*
X0328471Y0297143D01*
D02*
G37*
G36*
X0185100Y0295434D02*
X0184056Y0295297D01*
X0183083Y0294894D01*
X0182247Y0294253D01*
X0181606Y0293417D01*
X0181203Y0292444D01*
X0181065Y0291400D01*
X0181203Y0290356D01*
X0181606Y0289383D01*
X0182247Y0288547D01*
X0183083Y0287906D01*
X0184056Y0287503D01*
X0185100Y0287365D01*
X0186144Y0287503D01*
X0187117Y0287906D01*
X0187953Y0288547D01*
X0188594Y0289383D01*
X0188997Y0290356D01*
X0189135Y0291400D01*
X0188997Y0292444D01*
X0188594Y0293417D01*
X0187953Y0294253D01*
X0187117Y0294894D01*
X0186144Y0295297D01*
X0185100Y0295434D01*
D02*
G37*
G36*
X0299151Y0293751D02*
X0291049D01*
Y0285649D01*
X0299151D01*
Y0293751D01*
D02*
G37*
G36*
X0285100Y0293786D02*
X0284042Y0293647D01*
X0283057Y0293239D01*
X0282211Y0292589D01*
X0281561Y0291743D01*
X0281153Y0290757D01*
X0281014Y0289700D01*
X0281153Y0288642D01*
X0281561Y0287657D01*
X0282211Y0286811D01*
X0283057Y0286161D01*
X0284042Y0285753D01*
X0285100Y0285614D01*
X0286158Y0285753D01*
X0287143Y0286161D01*
X0287989Y0286811D01*
X0288639Y0287657D01*
X0289047Y0288642D01*
X0289186Y0289700D01*
X0289047Y0290757D01*
X0288639Y0291743D01*
X0287989Y0292589D01*
X0287143Y0293239D01*
X0286158Y0293647D01*
X0285100Y0293786D01*
D02*
G37*
G36*
X0169000Y0291285D02*
X0167891Y0291139D01*
X0166858Y0290711D01*
X0165970Y0290030D01*
X0165289Y0289142D01*
X0164861Y0288109D01*
X0164715Y0287000D01*
X0164861Y0285891D01*
X0165289Y0284858D01*
X0165970Y0283970D01*
X0166858Y0283289D01*
X0167891Y0282861D01*
X0169000Y0282715D01*
X0170109Y0282861D01*
X0171142Y0283289D01*
X0172030Y0283970D01*
X0172711Y0284858D01*
X0173139Y0285891D01*
X0173285Y0287000D01*
X0173139Y0288109D01*
X0172711Y0289142D01*
X0172030Y0290030D01*
X0171142Y0290711D01*
X0170109Y0291139D01*
X0169000Y0291285D01*
D02*
G37*
G36*
X0194000Y0280486D02*
X0193278Y0280343D01*
X0192666Y0279934D01*
X0192257Y0279322D01*
X0192114Y0278600D01*
X0192257Y0277878D01*
X0192666Y0277266D01*
X0193278Y0276857D01*
X0194000Y0276714D01*
X0194722Y0276857D01*
X0195334Y0277266D01*
X0195743Y0277878D01*
X0195886Y0278600D01*
X0195743Y0279322D01*
X0195334Y0279934D01*
X0194722Y0280343D01*
X0194000Y0280486D01*
D02*
G37*
G36*
X0377700Y0281743D02*
X0376842Y0281572D01*
X0376114Y0281086D01*
X0375628Y0280358D01*
X0375457Y0279500D01*
X0375628Y0278642D01*
X0376114Y0277914D01*
X0376272Y0277808D01*
Y0276606D01*
X0376114Y0276500D01*
X0375628Y0275773D01*
X0375457Y0274914D01*
X0375628Y0274056D01*
X0376114Y0273328D01*
X0376842Y0272842D01*
X0377700Y0272671D01*
X0378558Y0272842D01*
X0379286Y0273328D01*
X0379772Y0274056D01*
X0379943Y0274914D01*
X0379772Y0275773D01*
X0379286Y0276500D01*
X0379128Y0276606D01*
Y0277808D01*
X0379286Y0277914D01*
X0379772Y0278642D01*
X0379943Y0279500D01*
X0379772Y0280358D01*
X0379286Y0281086D01*
X0378558Y0281572D01*
X0377700Y0281743D01*
D02*
G37*
G36*
X0371700Y0281457D02*
X0370842Y0281287D01*
X0370114Y0280800D01*
X0369628Y0280073D01*
X0369457Y0279214D01*
X0369628Y0278356D01*
X0370114Y0277628D01*
X0370272Y0277523D01*
Y0276320D01*
X0370114Y0276215D01*
X0369628Y0275487D01*
X0369457Y0274628D01*
X0369628Y0273770D01*
X0370114Y0273042D01*
X0370842Y0272556D01*
X0371700Y0272385D01*
X0372558Y0272556D01*
X0373286Y0273042D01*
X0373772Y0273770D01*
X0373943Y0274628D01*
X0373772Y0275487D01*
X0373286Y0276215D01*
X0373128Y0276320D01*
Y0277523D01*
X0373286Y0277628D01*
X0373772Y0278356D01*
X0373943Y0279214D01*
X0373772Y0280073D01*
X0373286Y0280800D01*
X0372558Y0281287D01*
X0371700Y0281457D01*
D02*
G37*
G36*
X0179119Y0274786D02*
X0178397Y0274643D01*
X0177785Y0274234D01*
X0177376Y0273622D01*
X0177233Y0272900D01*
X0177376Y0272178D01*
X0177785Y0271566D01*
X0178397Y0271157D01*
X0179119Y0271014D01*
X0179841Y0271157D01*
X0180453Y0271566D01*
X0180862Y0272178D01*
X0181005Y0272900D01*
X0180862Y0273622D01*
X0180453Y0274234D01*
X0179841Y0274643D01*
X0179119Y0274786D01*
D02*
G37*
G36*
X0196400Y0274486D02*
X0195678Y0274343D01*
X0195066Y0273934D01*
X0194657Y0273322D01*
X0194514Y0272600D01*
X0194657Y0271878D01*
X0195066Y0271266D01*
X0195678Y0270857D01*
X0196400Y0270714D01*
X0197122Y0270857D01*
X0197734Y0271266D01*
X0198143Y0271878D01*
X0198286Y0272600D01*
X0198143Y0273322D01*
X0197734Y0273934D01*
X0197122Y0274343D01*
X0196400Y0274486D01*
D02*
G37*
G36*
X0329800Y0273843D02*
X0328942Y0273672D01*
X0328214Y0273186D01*
X0327728Y0272458D01*
X0327557Y0271600D01*
X0327728Y0270742D01*
X0328214Y0270014D01*
X0328942Y0269528D01*
X0329800Y0269357D01*
X0330658Y0269528D01*
X0331386Y0270014D01*
X0331872Y0270742D01*
X0332043Y0271600D01*
X0331872Y0272458D01*
X0331386Y0273186D01*
X0330658Y0273672D01*
X0329800Y0273843D01*
D02*
G37*
G36*
X0323367Y0273543D02*
X0322508Y0273372D01*
X0321781Y0272886D01*
X0321294Y0272158D01*
X0321124Y0271300D01*
X0321294Y0270442D01*
X0321781Y0269714D01*
X0322508Y0269228D01*
X0323367Y0269057D01*
X0324225Y0269228D01*
X0324953Y0269714D01*
X0325439Y0270442D01*
X0325610Y0271300D01*
X0325439Y0272158D01*
X0324953Y0272886D01*
X0324225Y0273372D01*
X0323367Y0273543D01*
D02*
G37*
G36*
X0377700Y0271729D02*
X0376842Y0271558D01*
X0376114Y0271072D01*
X0375628Y0270344D01*
X0375457Y0269486D01*
X0375628Y0268627D01*
X0376114Y0267899D01*
X0376842Y0267413D01*
X0377700Y0267243D01*
X0378558Y0267413D01*
X0379286Y0267899D01*
X0379772Y0268627D01*
X0379943Y0269486D01*
X0379772Y0270344D01*
X0379286Y0271072D01*
X0378558Y0271558D01*
X0377700Y0271729D01*
D02*
G37*
G36*
X0203000Y0272186D02*
X0202278Y0272043D01*
X0201666Y0271634D01*
X0201257Y0271022D01*
X0201114Y0270300D01*
X0201257Y0269578D01*
X0201666Y0268966D01*
X0202278Y0268557D01*
X0203000Y0268414D01*
X0203126Y0268439D01*
X0204157Y0268378D01*
X0204566Y0267766D01*
X0205178Y0267357D01*
X0205900Y0267214D01*
X0206622Y0267357D01*
X0207234Y0267766D01*
X0207643Y0268378D01*
X0207786Y0269100D01*
X0207643Y0269822D01*
X0207234Y0270434D01*
X0206622Y0270843D01*
X0205900Y0270986D01*
X0205774Y0270961D01*
X0204743Y0271022D01*
X0204334Y0271634D01*
X0203722Y0272043D01*
X0203000Y0272186D01*
D02*
G37*
G36*
X0318533Y0268943D02*
X0317675Y0268772D01*
X0316947Y0268286D01*
X0316461Y0267558D01*
X0316401Y0267256D01*
X0316376Y0267133D01*
X0315357D01*
X0315332Y0267256D01*
X0315272Y0267558D01*
X0314786Y0268286D01*
X0314058Y0268772D01*
X0313200Y0268943D01*
X0312342Y0268772D01*
X0311614Y0268286D01*
X0311128Y0267558D01*
X0311068Y0267256D01*
X0311043Y0267133D01*
X0310023D01*
X0309999Y0267256D01*
X0309939Y0267558D01*
X0309453Y0268286D01*
X0308725Y0268772D01*
X0307867Y0268943D01*
X0307008Y0268772D01*
X0306280Y0268286D01*
X0305794Y0267558D01*
X0305734Y0267256D01*
X0305710Y0267133D01*
X0304690D01*
X0304666Y0267256D01*
X0304606Y0267558D01*
X0304119Y0268286D01*
X0303392Y0268772D01*
X0302533Y0268943D01*
X0301675Y0268772D01*
X0300947Y0268286D01*
X0300461Y0267558D01*
X0300401Y0267256D01*
X0300376Y0267133D01*
X0299357D01*
X0299332Y0267256D01*
X0299272Y0267558D01*
X0298786Y0268286D01*
X0298058Y0268772D01*
X0297200Y0268943D01*
X0296342Y0268772D01*
X0295614Y0268286D01*
X0295128Y0267558D01*
X0294957Y0266700D01*
X0295128Y0265842D01*
X0295614Y0265114D01*
X0295747Y0264186D01*
X0295621Y0263998D01*
X0295261Y0263458D01*
X0295090Y0262600D01*
X0295261Y0261741D01*
X0295747Y0261014D01*
X0296475Y0260528D01*
X0297333Y0260357D01*
X0298192Y0260528D01*
X0298920Y0261014D01*
X0299406Y0261741D01*
X0299466Y0262043D01*
X0299490Y0262166D01*
X0300510D01*
X0300534Y0262043D01*
X0300594Y0261741D01*
X0301081Y0261014D01*
X0301808Y0260528D01*
X0302667Y0260357D01*
X0303525Y0260528D01*
X0304253Y0261014D01*
X0304739Y0261741D01*
X0304799Y0262043D01*
X0304824Y0262166D01*
X0305843D01*
X0305868Y0262043D01*
X0305928Y0261741D01*
X0306414Y0261014D01*
X0307142Y0260528D01*
X0308000Y0260357D01*
X0308858Y0260528D01*
X0309586Y0261014D01*
X0310072Y0261741D01*
X0310132Y0262043D01*
X0310157Y0262166D01*
X0311176D01*
X0311201Y0262043D01*
X0311261Y0261741D01*
X0311747Y0261014D01*
X0312475Y0260528D01*
X0313333Y0260357D01*
X0314192Y0260528D01*
X0314919Y0261014D01*
X0315406Y0261741D01*
X0315466Y0262043D01*
X0315490Y0262166D01*
X0316510D01*
X0316534Y0262043D01*
X0316594Y0261741D01*
X0317080Y0261014D01*
X0317808Y0260528D01*
X0318667Y0260357D01*
X0319525Y0260528D01*
X0320253Y0261014D01*
X0320739Y0261741D01*
X0320799Y0262043D01*
X0320824Y0262166D01*
X0321843D01*
X0321868Y0262043D01*
X0321928Y0261741D01*
X0322414Y0261014D01*
X0323142Y0260528D01*
X0324000Y0260357D01*
X0324858Y0260528D01*
X0325586Y0261014D01*
X0326072Y0261741D01*
X0326132Y0262043D01*
X0326157Y0262166D01*
X0327176D01*
X0327201Y0262043D01*
X0327261Y0261741D01*
X0327747Y0261014D01*
X0328475Y0260528D01*
X0329333Y0260357D01*
X0330192Y0260528D01*
X0330919Y0261014D01*
X0331406Y0261741D01*
X0331576Y0262600D01*
X0331406Y0263458D01*
X0330919Y0264186D01*
X0330192Y0264672D01*
X0329333Y0264843D01*
X0328475Y0264672D01*
X0327747Y0264186D01*
X0327261Y0263458D01*
X0327201Y0263156D01*
X0327176Y0263033D01*
X0326157D01*
X0326132Y0263156D01*
X0326072Y0263458D01*
X0325586Y0264186D01*
X0324858Y0264672D01*
X0324000Y0264843D01*
X0323142Y0264672D01*
X0322414Y0264186D01*
X0321928Y0263458D01*
X0321868Y0263156D01*
X0321843Y0263033D01*
X0320824D01*
X0320799Y0263156D01*
X0320739Y0263458D01*
X0320253Y0264186D01*
X0320119Y0265114D01*
X0320245Y0265302D01*
X0320606Y0265842D01*
X0320776Y0266700D01*
X0320606Y0267558D01*
X0320119Y0268286D01*
X0319392Y0268772D01*
X0318533Y0268943D01*
D02*
G37*
G36*
X0371700Y0271443D02*
X0370842Y0271272D01*
X0370114Y0270786D01*
X0369628Y0270058D01*
X0369457Y0269200D01*
X0369628Y0268341D01*
X0370114Y0267614D01*
X0370842Y0267128D01*
X0371700Y0266957D01*
X0372558Y0267128D01*
X0373286Y0267614D01*
X0373772Y0268341D01*
X0373943Y0269200D01*
X0373772Y0270058D01*
X0373286Y0270786D01*
X0372558Y0271272D01*
X0371700Y0271443D01*
D02*
G37*
G36*
X0190800Y0268986D02*
X0190078Y0268843D01*
X0189466Y0268434D01*
X0189057Y0267822D01*
X0188914Y0267100D01*
X0189057Y0266378D01*
X0189466Y0265766D01*
X0190078Y0265357D01*
X0190800Y0265214D01*
X0191522Y0265357D01*
X0192134Y0265766D01*
X0192543Y0266378D01*
X0192686Y0267100D01*
X0192543Y0267822D01*
X0192134Y0268434D01*
X0191522Y0268843D01*
X0190800Y0268986D01*
D02*
G37*
G36*
X0359000Y0273677D02*
X0357634Y0273498D01*
X0356361Y0272970D01*
X0355268Y0272132D01*
X0354430Y0271039D01*
X0353902Y0269766D01*
X0353723Y0268400D01*
X0353902Y0267034D01*
X0354430Y0265761D01*
X0355268Y0264668D01*
X0356361Y0263829D01*
X0357634Y0263302D01*
X0359000Y0263123D01*
X0360366Y0263302D01*
X0361639Y0263829D01*
X0362732Y0264668D01*
X0363570Y0265761D01*
X0364098Y0267034D01*
X0364277Y0268400D01*
X0364098Y0269766D01*
X0363570Y0271039D01*
X0362732Y0272132D01*
X0361639Y0272970D01*
X0360366Y0273498D01*
X0359000Y0273677D01*
D02*
G37*
G36*
X0377700Y0266300D02*
X0376842Y0266129D01*
X0376114Y0265643D01*
X0375628Y0264915D01*
X0375457Y0264057D01*
X0375628Y0263199D01*
X0376114Y0262471D01*
X0376842Y0261985D01*
X0377700Y0261814D01*
X0378558Y0261985D01*
X0379286Y0262471D01*
X0379772Y0263199D01*
X0379943Y0264057D01*
X0379772Y0264915D01*
X0379286Y0265643D01*
X0378558Y0266129D01*
X0377700Y0266300D01*
D02*
G37*
G36*
X0371700Y0266014D02*
X0370842Y0265844D01*
X0370114Y0265357D01*
X0369628Y0264630D01*
X0369457Y0263771D01*
X0369628Y0262913D01*
X0370114Y0262185D01*
X0370842Y0261699D01*
X0371700Y0261528D01*
X0372558Y0261699D01*
X0373286Y0262185D01*
X0373772Y0262913D01*
X0373943Y0263771D01*
X0373772Y0264630D01*
X0373286Y0265357D01*
X0372558Y0265844D01*
X0371700Y0266014D01*
D02*
G37*
G36*
X0209200Y0260595D02*
X0208478Y0260451D01*
X0207866Y0260042D01*
X0207457Y0259430D01*
X0207314Y0258709D01*
X0207457Y0257987D01*
X0207866Y0257375D01*
X0208478Y0256966D01*
X0209200Y0256822D01*
X0209922Y0256966D01*
X0210534Y0257375D01*
X0210943Y0257987D01*
X0211086Y0258709D01*
X0210943Y0259430D01*
X0210534Y0260042D01*
X0209922Y0260451D01*
X0209200Y0260595D01*
D02*
G37*
G36*
X0227400Y0262734D02*
X0226356Y0262597D01*
X0225383Y0262194D01*
X0224547Y0261553D01*
X0223906Y0260717D01*
X0223503Y0259744D01*
X0223365Y0258700D01*
X0223503Y0257656D01*
X0223906Y0256683D01*
X0224547Y0255847D01*
X0225383Y0255206D01*
X0226356Y0254803D01*
X0227400Y0254665D01*
X0228444Y0254803D01*
X0229417Y0255206D01*
X0230253Y0255847D01*
X0230894Y0256683D01*
X0231297Y0257656D01*
X0231434Y0258700D01*
X0231297Y0259744D01*
X0230894Y0260717D01*
X0230253Y0261553D01*
X0229417Y0262194D01*
X0228444Y0262597D01*
X0227400Y0262734D01*
D02*
G37*
G36*
X0183500Y0262034D02*
X0182456Y0261897D01*
X0181483Y0261494D01*
X0180647Y0260853D01*
X0180006Y0260017D01*
X0179603Y0259044D01*
X0179465Y0258000D01*
X0179603Y0256956D01*
X0180006Y0255983D01*
X0180647Y0255147D01*
X0181483Y0254506D01*
X0182456Y0254103D01*
X0183500Y0253965D01*
X0184544Y0254103D01*
X0185517Y0254506D01*
X0186353Y0255147D01*
X0186994Y0255983D01*
X0187397Y0256956D01*
X0187534Y0258000D01*
X0187397Y0259044D01*
X0186994Y0260017D01*
X0186353Y0260853D01*
X0185517Y0261494D01*
X0184544Y0261897D01*
X0183500Y0262034D01*
D02*
G37*
G36*
X0188800Y0251896D02*
X0187403Y0251712D01*
X0186102Y0251173D01*
X0184984Y0250316D01*
X0184127Y0249198D01*
X0183588Y0247897D01*
X0183404Y0246500D01*
X0183588Y0245103D01*
X0184127Y0243802D01*
X0184984Y0242684D01*
X0186102Y0241827D01*
X0187403Y0241288D01*
X0188800Y0241104D01*
X0190197Y0241288D01*
X0191498Y0241827D01*
X0192616Y0242684D01*
X0193473Y0243802D01*
X0194012Y0245103D01*
X0194196Y0246500D01*
X0194012Y0247897D01*
X0193473Y0249198D01*
X0192616Y0250316D01*
X0191498Y0251173D01*
X0190197Y0251712D01*
X0188800Y0251896D01*
D02*
G37*
G36*
X0179000Y0235382D02*
X0177814Y0235226D01*
X0176709Y0234769D01*
X0175760Y0234040D01*
X0175031Y0233091D01*
X0174574Y0231986D01*
X0174417Y0230800D01*
X0174574Y0229614D01*
X0175031Y0228509D01*
X0175760Y0227560D01*
X0176709Y0226831D01*
X0177814Y0226374D01*
X0179000Y0226217D01*
X0180186Y0226374D01*
X0181291Y0226831D01*
X0182240Y0227560D01*
X0182969Y0228509D01*
X0183426Y0229614D01*
X0183582Y0230800D01*
X0183426Y0231986D01*
X0182969Y0233091D01*
X0182240Y0234040D01*
X0181291Y0234769D01*
X0180186Y0235226D01*
X0179000Y0235382D01*
D02*
G37*
G36*
X0205200Y0234296D02*
X0203803Y0234112D01*
X0202502Y0233573D01*
X0201384Y0232716D01*
X0200527Y0231598D01*
X0199988Y0230296D01*
X0199804Y0228900D01*
X0199988Y0227503D01*
X0200527Y0226202D01*
X0201384Y0225084D01*
X0202502Y0224227D01*
X0203803Y0223688D01*
X0205200Y0223504D01*
X0206597Y0223688D01*
X0207898Y0224227D01*
X0209016Y0225084D01*
X0209873Y0226202D01*
X0210412Y0227503D01*
X0210596Y0228900D01*
X0210412Y0230296D01*
X0209873Y0231598D01*
X0209016Y0232716D01*
X0207898Y0233573D01*
X0206597Y0234112D01*
X0205200Y0234296D01*
D02*
G37*
G36*
X0259251Y0227951D02*
X0251149D01*
Y0219849D01*
X0259251D01*
Y0227951D01*
D02*
G37*
G36*
X0245200Y0227986D02*
X0244142Y0227847D01*
X0243157Y0227439D01*
X0242311Y0226789D01*
X0241661Y0225943D01*
X0241253Y0224957D01*
X0241114Y0223900D01*
X0241253Y0222842D01*
X0241661Y0221857D01*
X0242311Y0221011D01*
X0243157Y0220361D01*
X0244142Y0219953D01*
X0245200Y0219814D01*
X0246258Y0219953D01*
X0247243Y0220361D01*
X0248089Y0221011D01*
X0248739Y0221857D01*
X0249147Y0222842D01*
X0249286Y0223900D01*
X0249147Y0224957D01*
X0248739Y0225943D01*
X0248089Y0226789D01*
X0247243Y0227439D01*
X0246258Y0227847D01*
X0245200Y0227986D01*
D02*
G37*
%LPD*%
G36*
X0212396Y0293796D02*
X0218100Y0292000D01*
X0222200Y0284500D01*
X0229500Y0283800D01*
X0229500Y0274706D01*
X0208265Y0276300D01*
X0203421Y0284298D01*
X0195033Y0289532D01*
Y0296900D01*
X0211100D01*
X0212396Y0293796D01*
D02*
G37*
%LPC*%
G36*
X0207600Y0290134D02*
X0206556Y0289997D01*
X0205583Y0289594D01*
X0204747Y0288953D01*
X0204106Y0288117D01*
X0203703Y0287144D01*
X0203566Y0286100D01*
X0203703Y0285056D01*
X0204106Y0284083D01*
X0204747Y0283247D01*
X0205583Y0282606D01*
X0206556Y0282203D01*
X0207600Y0282065D01*
X0208644Y0282203D01*
X0209617Y0282606D01*
X0210453Y0283247D01*
X0211094Y0284083D01*
X0211497Y0285056D01*
X0211634Y0286100D01*
X0211497Y0287144D01*
X0211094Y0288117D01*
X0210453Y0288953D01*
X0209617Y0289594D01*
X0208644Y0289997D01*
X0207600Y0290134D01*
D02*
G37*
%LPD*%
G54D16*
X0497200Y0080717D02*
Y0101050D01*
X0413200Y0080717D02*
Y0101050D01*
X0040000Y0080717D02*
X0700200D01*
X0040000Y0060383D02*
X0700000D01*
X0040000Y0040050D02*
X0440500D01*
X0040050Y0101050D02*
X0700200D01*
X0040050Y0040050D02*
Y0101050D01*
Y0040050D02*
X0197600D01*
X0040000D02*
Y0101050D01*
X0286500Y0040050D02*
Y0101050D01*
X0700200Y0040050D02*
Y0101050D01*
X0440500Y0040050D02*
X0700200D01*
X0559400Y0039400D02*
Y0059683D01*
G54D17*
X0567400Y0087833D02*
Y0093831D01*
X0571399Y0087833D01*
Y0093831D01*
X0574398Y0087833D02*
X0576397D01*
X0577397Y0088833D01*
Y0090832D01*
X0576397Y0091832D01*
X0574398D01*
X0573398Y0090832D01*
Y0088833D01*
X0574398Y0087833D01*
X0580396Y0092832D02*
Y0091832D01*
X0579396D01*
X0581395D01*
X0580396D01*
Y0088833D01*
X0581395Y0087833D01*
X0590393Y0093831D02*
X0592392D01*
X0591392D01*
Y0087833D01*
X0590393D01*
X0592392D01*
X0595391D02*
Y0091832D01*
X0598390D01*
X0599390Y0090832D01*
Y0087833D01*
X0607387Y0093831D02*
Y0089833D01*
X0609386Y0087833D01*
X0611386Y0089833D01*
Y0093831D01*
X0616384Y0087833D02*
X0614385D01*
X0613385Y0088833D01*
Y0090832D01*
X0614385Y0091832D01*
X0616384D01*
X0617384Y0090832D01*
Y0089833D01*
X0613385D01*
X0619383Y0091832D02*
Y0087833D01*
Y0089833D01*
X0620383Y0090832D01*
X0621383Y0091832D01*
X0622382D01*
X0625381Y0087833D02*
X0628380D01*
X0629380Y0088833D01*
X0628380Y0089833D01*
X0626381D01*
X0625381Y0090832D01*
X0626381Y0091832D01*
X0629380D01*
X0631379Y0087833D02*
X0633379D01*
X0632379D01*
Y0091832D01*
X0631379D01*
X0637377Y0087833D02*
X0639377D01*
X0640376Y0088833D01*
Y0090832D01*
X0639377Y0091832D01*
X0637377D01*
X0636378Y0090832D01*
Y0088833D01*
X0637377Y0087833D01*
X0642376D02*
Y0091832D01*
X0645375D01*
X0646374Y0090832D01*
Y0087833D01*
X0652373Y0092832D02*
X0651373Y0093831D01*
X0649373D01*
X0648374Y0092832D01*
Y0088833D01*
X0649373Y0087833D01*
X0651373D01*
X0652373Y0088833D01*
X0655372Y0087833D02*
X0657371D01*
X0658371Y0088833D01*
Y0090832D01*
X0657371Y0091832D01*
X0655372D01*
X0654372Y0090832D01*
Y0088833D01*
X0655372Y0087833D01*
X0660370D02*
Y0091832D01*
X0663369D01*
X0664369Y0090832D01*
Y0087833D01*
X0667368Y0092832D02*
Y0091832D01*
X0666368D01*
X0668367D01*
X0667368D01*
Y0088833D01*
X0668367Y0087833D01*
X0671366Y0091832D02*
Y0087833D01*
Y0089833D01*
X0672366Y0090832D01*
X0673366Y0091832D01*
X0674365D01*
X0678364Y0087833D02*
X0680364D01*
X0681363Y0088833D01*
Y0090832D01*
X0680364Y0091832D01*
X0678364D01*
X0677364Y0090832D01*
Y0088833D01*
X0678364Y0087833D01*
X0683362D02*
X0685362D01*
X0684362D01*
Y0093831D01*
X0683362D01*
X0520799Y0092832D02*
X0519799Y0093831D01*
X0517800D01*
X0516800Y0092832D01*
Y0091832D01*
X0517800Y0090832D01*
X0519799D01*
X0520799Y0089833D01*
Y0088833D01*
X0519799Y0087833D01*
X0517800D01*
X0516800Y0088833D01*
X0522798Y0093831D02*
Y0089833D01*
X0524797Y0087833D01*
X0526797Y0089833D01*
Y0093831D01*
X0528796Y0087833D02*
Y0093831D01*
X0532795Y0087833D01*
Y0093831D01*
X0540792Y0087833D02*
Y0093831D01*
X0543791D01*
X0544791Y0092832D01*
Y0090832D01*
X0543791Y0089833D01*
X0540792D01*
X0542792D02*
X0544791Y0087833D01*
X0550789Y0093831D02*
X0546790D01*
Y0087833D01*
X0550789D01*
X0546790Y0090832D02*
X0548790D01*
X0552788Y0093831D02*
Y0089833D01*
X0554788Y0087833D01*
X0556787Y0089833D01*
Y0093831D01*
X0558786Y0091832D02*
X0559786D01*
Y0090832D01*
X0558786D01*
Y0091832D01*
Y0088833D02*
X0559786D01*
Y0087833D01*
X0558786D01*
Y0088833D01*
X0433000Y0087833D02*
Y0093831D01*
X0435999D01*
X0436999Y0092832D01*
Y0090832D01*
X0435999Y0089833D01*
X0433000D01*
X0434999D02*
X0436999Y0087833D01*
X0442997Y0093831D02*
X0438998D01*
Y0087833D01*
X0442997D01*
X0438998Y0090832D02*
X0440997D01*
X0444996Y0093831D02*
Y0089833D01*
X0446995Y0087833D01*
X0448995Y0089833D01*
Y0093831D01*
X0450994Y0091832D02*
X0451994D01*
Y0090832D01*
X0450994D01*
Y0091832D01*
Y0088833D02*
X0451994D01*
Y0087833D01*
X0450994D01*
Y0088833D01*
X0126900Y0052965D02*
Y0046966D01*
Y0049966D01*
X0130899D01*
Y0052965D01*
Y0046966D01*
X0132898Y0052965D02*
Y0048966D01*
X0134897Y0046966D01*
X0136897Y0048966D01*
Y0052965D01*
X0138896Y0046966D02*
Y0052965D01*
X0141895D01*
X0142895Y0051965D01*
Y0049966D01*
X0141895Y0048966D01*
X0138896D01*
X0144894Y0051965D02*
X0145894Y0052965D01*
X0147893D01*
X0148893Y0051965D01*
Y0047966D01*
X0147893Y0046966D01*
X0145894D01*
X0144894Y0047966D01*
Y0051965D01*
X0150892Y0046966D02*
X0152892D01*
X0151892D01*
Y0052965D01*
X0150892Y0051965D01*
X0159889Y0046966D02*
X0155891D01*
X0159889Y0050965D01*
Y0051965D01*
X0158890Y0052965D01*
X0156890D01*
X0155891Y0051965D01*
X0161889Y0046966D02*
Y0050965D01*
X0163888Y0052965D01*
X0165887Y0050965D01*
Y0046966D01*
Y0049966D01*
X0161889D01*
X0167887Y0046966D02*
Y0047966D01*
X0168886D01*
Y0046966D01*
X0167887D01*
X0176884Y0051965D02*
X0175884Y0052965D01*
X0173885D01*
X0172885Y0051965D01*
Y0047966D01*
X0173885Y0046966D01*
X0175884D01*
X0176884Y0047966D01*
Y0049966D01*
X0174884D01*
X0182882Y0046966D02*
X0178883D01*
X0182882Y0050965D01*
Y0051965D01*
X0181882Y0052965D01*
X0179883D01*
X0178883Y0051965D01*
X0384149Y0046966D02*
Y0052965D01*
X0381150Y0049966D01*
X0385149D01*
X0387148Y0046966D02*
X0391147Y0050965D01*
X0393146Y0051965D02*
X0394146Y0052965D01*
X0396145D01*
X0397145Y0051965D01*
Y0050965D01*
X0396145Y0049966D01*
X0397145Y0048966D01*
Y0047966D01*
X0396145Y0046966D01*
X0394146D01*
X0393146Y0047966D01*
Y0048966D01*
X0394146Y0049966D01*
X0393146Y0050965D01*
Y0051965D01*
X0394146Y0049966D02*
X0396145D01*
X0399144Y0046966D02*
X0403143Y0050965D01*
X0409141Y0046966D02*
X0405142D01*
X0409141Y0050965D01*
Y0051965D01*
X0408141Y0052965D01*
X0406142D01*
X0405142Y0051965D01*
X0411140D02*
X0412140Y0052965D01*
X0414139D01*
X0415139Y0051965D01*
Y0047966D01*
X0414139Y0046966D01*
X0412140D01*
X0411140Y0047966D01*
Y0051965D01*
X0417138Y0046966D02*
X0419138D01*
X0418138D01*
Y0052965D01*
X0417138Y0051965D01*
X0422137Y0047966D02*
X0423136Y0046966D01*
X0425136D01*
X0426135Y0047966D01*
Y0051965D01*
X0425136Y0052965D01*
X0423136D01*
X0422137Y0051965D01*
Y0050965D01*
X0423136Y0049966D01*
X0426135D01*
X0298199Y0051965D02*
X0297199Y0052965D01*
X0295200D01*
X0294200Y0051965D01*
Y0047966D01*
X0295200Y0046966D01*
X0297199D01*
X0298199Y0047966D01*
Y0049966D01*
X0296199D01*
X0304197Y0052965D02*
X0300198D01*
Y0046966D01*
X0304197D01*
X0300198Y0049966D02*
X0302197D01*
X0306196Y0046966D02*
Y0052965D01*
X0310195Y0046966D01*
Y0052965D01*
X0316193D02*
X0312194D01*
Y0046966D01*
X0316193D01*
X0312194Y0049966D02*
X0314194D01*
X0318192Y0046966D02*
Y0052965D01*
X0321191D01*
X0322191Y0051965D01*
Y0049966D01*
X0321191Y0048966D01*
X0318192D01*
X0320192D02*
X0322191Y0046966D01*
X0324190D02*
Y0050965D01*
X0326190Y0052965D01*
X0328189Y0050965D01*
Y0046966D01*
Y0049966D01*
X0324190D01*
X0330188Y0052965D02*
X0334187D01*
X0332188D01*
Y0046966D01*
X0340185Y0052965D02*
X0336186D01*
Y0046966D01*
X0340185D01*
X0336186Y0049966D02*
X0338186D01*
X0342184Y0052965D02*
Y0046966D01*
X0345183D01*
X0346183Y0047966D01*
Y0051965D01*
X0345183Y0052965D01*
X0342184D01*
X0372175Y0050965D02*
X0373175D01*
Y0049966D01*
X0372175D01*
Y0050965D01*
Y0047966D02*
X0373175D01*
Y0046966D01*
X0372175D01*
Y0047966D01*
X0046350Y0087833D02*
Y0091832D01*
X0048349Y0093831D01*
X0050349Y0091832D01*
Y0087833D01*
Y0090832D01*
X0046350D01*
X0052348Y0093831D02*
Y0087833D01*
X0056347D01*
X0058346Y0093831D02*
Y0087833D01*
X0062345D01*
X0070342D02*
Y0091832D01*
X0072342Y0093831D01*
X0074341Y0091832D01*
Y0087833D01*
Y0090832D01*
X0070342D01*
X0076340Y0087833D02*
Y0093831D01*
X0079339D01*
X0080339Y0092832D01*
Y0090832D01*
X0079339Y0089833D01*
X0076340D01*
X0078340D02*
X0080339Y0087833D01*
X0082338Y0093831D02*
X0086337D01*
X0084338D01*
Y0087833D01*
X0088336Y0093831D02*
Y0087833D01*
X0090336Y0089833D01*
X0092335Y0087833D01*
Y0093831D01*
X0097334D02*
X0095334D01*
X0094335Y0092832D01*
Y0088833D01*
X0095334Y0087833D01*
X0097334D01*
X0098333Y0088833D01*
Y0092832D01*
X0097334Y0093831D01*
X0100332Y0087833D02*
Y0093831D01*
X0103332D01*
X0104331Y0092832D01*
Y0090832D01*
X0103332Y0089833D01*
X0100332D01*
X0102332D02*
X0104331Y0087833D01*
X0106331Y0093831D02*
Y0087833D01*
Y0089833D01*
X0110329Y0093831D01*
X0107330Y0090832D01*
X0110329Y0087833D01*
X0118327Y0093831D02*
Y0089833D01*
X0120326Y0087833D01*
X0122325Y0089833D01*
Y0093831D01*
X0124325D02*
X0126324D01*
X0125324D01*
Y0087833D01*
X0124325D01*
X0126324D01*
X0133322Y0093831D02*
X0129323D01*
Y0087833D01*
X0133322D01*
X0129323Y0090832D02*
X0131323D01*
X0135321Y0093831D02*
Y0087833D01*
X0137321Y0089833D01*
X0139320Y0087833D01*
Y0093831D01*
X0145318D02*
X0141319D01*
Y0087833D01*
X0145318D01*
X0141319Y0090832D02*
X0143319D01*
X0147317Y0093831D02*
Y0087833D01*
X0150316D01*
X0151316Y0088833D01*
Y0092832D01*
X0150316Y0093831D01*
X0147317D01*
X0163312D02*
X0159313D01*
Y0090832D01*
X0161313D01*
X0159313D01*
Y0087833D01*
X0165312D02*
Y0093831D01*
X0168310D01*
X0169310Y0092832D01*
Y0090832D01*
X0168310Y0089833D01*
X0165312D01*
X0167311D02*
X0169310Y0087833D01*
X0174309Y0093831D02*
X0172309D01*
X0171310Y0092832D01*
Y0088833D01*
X0172309Y0087833D01*
X0174309D01*
X0175308Y0088833D01*
Y0092832D01*
X0174309Y0093831D01*
X0177308Y0087833D02*
Y0093831D01*
X0179307Y0091832D01*
X0181306Y0093831D01*
Y0087833D01*
X0189304Y0093831D02*
X0193303D01*
X0191303D01*
Y0087833D01*
X0198301Y0093831D02*
X0196301D01*
X0195302Y0092832D01*
Y0088833D01*
X0196301Y0087833D01*
X0198301D01*
X0199301Y0088833D01*
Y0092832D01*
X0198301Y0093831D01*
X0201300Y0087833D02*
Y0093831D01*
X0204299D01*
X0205299Y0092832D01*
Y0090832D01*
X0204299Y0089833D01*
X0201300D01*
X0217295Y0092832D02*
X0216295Y0093831D01*
X0214296D01*
X0213296Y0092832D01*
Y0091832D01*
X0214296Y0090832D01*
X0216295D01*
X0217295Y0089833D01*
Y0088833D01*
X0216295Y0087833D01*
X0214296D01*
X0213296Y0088833D01*
X0219294Y0093831D02*
X0221293D01*
X0220294D01*
Y0087833D01*
X0219294D01*
X0221293D01*
X0224292Y0093831D02*
Y0087833D01*
X0227291D01*
X0228291Y0088833D01*
Y0092832D01*
X0227291Y0093831D01*
X0224292D01*
X0234289D02*
X0230291D01*
Y0087833D01*
X0234289D01*
X0230291Y0090832D02*
X0232290D01*
X0462150Y0087833D02*
Y0091832D01*
X0464149Y0093831D01*
X0466149Y0091832D01*
Y0087833D01*
Y0090832D01*
X0462150D01*
X0348550Y0093831D02*
Y0087833D01*
Y0090832D01*
X0352549D01*
Y0093831D01*
Y0087833D01*
X0354548Y0093831D02*
Y0089833D01*
X0356547Y0087833D01*
X0358547Y0089833D01*
Y0093831D01*
X0360546Y0087833D02*
Y0093831D01*
X0363545D01*
X0364545Y0092832D01*
Y0090832D01*
X0363545Y0089833D01*
X0360546D01*
X0366544Y0092832D02*
X0367544Y0093831D01*
X0369543D01*
X0370543Y0092832D01*
Y0088833D01*
X0369543Y0087833D01*
X0367544D01*
X0366544Y0088833D01*
Y0092832D01*
X0372542Y0087833D02*
X0374542D01*
X0373542D01*
Y0093831D01*
X0372542Y0092832D01*
X0381539Y0087833D02*
X0377541D01*
X0381539Y0091832D01*
Y0092832D01*
X0380540Y0093831D01*
X0378540D01*
X0377541Y0092832D01*
X0294000Y0093831D02*
Y0087833D01*
X0296999D01*
X0297999Y0088833D01*
Y0089833D01*
X0296999Y0090832D01*
X0294000D01*
X0296999D01*
X0297999Y0091832D01*
Y0092832D01*
X0296999Y0093831D01*
X0294000D01*
X0302997D02*
X0300998D01*
X0299998Y0092832D01*
Y0088833D01*
X0300998Y0087833D01*
X0302997D01*
X0303997Y0088833D01*
Y0092832D01*
X0302997Y0093831D01*
X0305996Y0087833D02*
Y0091832D01*
X0307996Y0093831D01*
X0309995Y0091832D01*
Y0087833D01*
Y0090832D01*
X0305996D01*
X0311994Y0087833D02*
Y0093831D01*
X0314993D01*
X0315993Y0092832D01*
Y0090832D01*
X0314993Y0089833D01*
X0311994D01*
X0313994D02*
X0315993Y0087833D01*
X0317992Y0093831D02*
Y0087833D01*
X0320991D01*
X0321991Y0088833D01*
Y0092832D01*
X0320991Y0093831D01*
X0317992D01*
X0330988Y0087833D02*
Y0093831D01*
X0332987D02*
Y0087833D01*
X0329988Y0091832D02*
X0332987D01*
X0333987D01*
X0329988Y0089833D02*
X0333987D01*
X0335986Y0091832D02*
X0336986D01*
Y0090832D01*
X0335986D01*
Y0091832D01*
Y0088833D02*
X0336986D01*
Y0087833D01*
X0335986D01*
Y0088833D01*
X0046350Y0073549D02*
Y0067551D01*
X0050349D01*
X0052348D02*
Y0071549D01*
X0054347Y0073549D01*
X0056347Y0071549D01*
Y0067551D01*
Y0070550D01*
X0052348D01*
X0058346Y0073549D02*
Y0072549D01*
X0060346Y0070550D01*
X0062345Y0072549D01*
Y0073549D01*
X0060346Y0070550D02*
Y0067551D01*
X0068343Y0073549D02*
X0064344D01*
Y0067551D01*
X0068343D01*
X0064344Y0070550D02*
X0066343D01*
X0070342Y0067551D02*
Y0073549D01*
X0073341D01*
X0074341Y0072549D01*
Y0070550D01*
X0073341Y0069550D01*
X0070342D01*
X0072342D02*
X0074341Y0067551D01*
X0082338D02*
Y0073549D01*
X0086337Y0067551D01*
Y0073549D01*
X0088336Y0067551D02*
Y0071549D01*
X0090336Y0073549D01*
X0092335Y0071549D01*
Y0067551D01*
Y0070550D01*
X0088336D01*
X0094335Y0067551D02*
Y0073549D01*
X0096334Y0071549D01*
X0098333Y0073549D01*
Y0067551D01*
X0104331Y0073549D02*
X0100332D01*
Y0067551D01*
X0104331D01*
X0100332Y0070550D02*
X0102332D01*
X0112329Y0069550D02*
X0116327D01*
X0112329Y0071549D02*
X0116327D01*
X0046350Y0046966D02*
Y0052965D01*
X0049349D01*
X0050349Y0051965D01*
Y0049966D01*
X0049349Y0048966D01*
X0046350D01*
X0052348Y0052965D02*
Y0046966D01*
X0056347D01*
X0061345Y0052965D02*
X0059346D01*
X0058346Y0051965D01*
Y0047966D01*
X0059346Y0046966D01*
X0061345D01*
X0062345Y0047966D01*
Y0051965D01*
X0061345Y0052965D01*
X0064344D02*
X0068343D01*
X0066343D01*
Y0046966D01*
X0076340D02*
Y0052965D01*
X0080339Y0046966D01*
Y0052965D01*
X0082338Y0046966D02*
Y0050965D01*
X0084338Y0052965D01*
X0086337Y0050965D01*
Y0046966D01*
Y0049966D01*
X0082338D01*
X0088336Y0046966D02*
Y0052965D01*
X0090336Y0050965D01*
X0092335Y0052965D01*
Y0046966D01*
X0098333Y0052965D02*
X0094335D01*
Y0046966D01*
X0098333D01*
X0094335Y0049966D02*
X0096334D01*
X0106331Y0048966D02*
X0110329D01*
X0106331Y0050965D02*
X0110329D01*
X0454050Y0051965D02*
X0455050Y0052965D01*
X0457049D01*
X0458049Y0051965D01*
Y0050965D01*
X0457049Y0049966D01*
X0456049D01*
X0457049D01*
X0458049Y0048966D01*
Y0047966D01*
X0457049Y0046966D01*
X0455050D01*
X0454050Y0047966D01*
X0460048Y0050965D02*
X0461048D01*
Y0049966D01*
X0460048D01*
Y0050965D01*
Y0047966D02*
X0461048D01*
Y0046966D01*
X0460048D01*
Y0047966D01*
X0469045Y0046966D02*
X0465046D01*
X0469045Y0050965D01*
Y0051965D01*
X0468046Y0052965D01*
X0466046D01*
X0465046Y0051965D01*
X0471044Y0047966D02*
X0472044Y0046966D01*
X0474044D01*
X0475043Y0047966D01*
Y0051965D01*
X0474044Y0052965D01*
X0472044D01*
X0471044Y0051965D01*
Y0050965D01*
X0472044Y0049966D01*
X0475043D01*
X0477043Y0050965D02*
X0478042D01*
Y0049966D01*
X0477043D01*
Y0050965D01*
Y0047966D02*
X0478042D01*
Y0046966D01*
X0477043D01*
Y0047966D01*
X0486040Y0052965D02*
X0482041D01*
Y0049966D01*
X0484040Y0050965D01*
X0485040D01*
X0486040Y0049966D01*
Y0047966D01*
X0485040Y0046966D01*
X0483041D01*
X0482041Y0047966D01*
X0488039Y0051965D02*
X0489039Y0052965D01*
X0491038D01*
X0492038Y0051965D01*
Y0050965D01*
X0491038Y0049966D01*
X0490038D01*
X0491038D01*
X0492038Y0048966D01*
Y0047966D01*
X0491038Y0046966D01*
X0489039D01*
X0488039Y0047966D01*
X0500035Y0046966D02*
Y0052965D01*
X0503034D01*
X0504034Y0051965D01*
Y0049966D01*
X0503034Y0048966D01*
X0500035D01*
X0506033Y0046966D02*
Y0052965D01*
X0508033Y0050965D01*
X0510032Y0052965D01*
Y0046966D01*
X0580500Y0052965D02*
X0584499D01*
X0582499D01*
Y0046966D01*
X0590497Y0052965D02*
X0586498D01*
Y0046966D01*
X0590497D01*
X0586498Y0049966D02*
X0588497D01*
X0592496Y0052965D02*
X0596495Y0046966D01*
Y0052965D02*
X0592496Y0046966D01*
X0598494D02*
Y0050965D01*
X0600493Y0052965D01*
X0602493Y0050965D01*
Y0046966D01*
Y0049966D01*
X0598494D01*
X0608491Y0051965D02*
X0607491Y0052965D01*
X0605492D01*
X0604492Y0051965D01*
Y0050965D01*
X0605492Y0049966D01*
X0607491D01*
X0608491Y0048966D01*
Y0047966D01*
X0607491Y0046966D01*
X0605492D01*
X0604492Y0047966D01*
X0616488Y0052965D02*
X0618488D01*
X0617488D01*
Y0046966D01*
X0616488D01*
X0618488D01*
X0621487D02*
Y0052965D01*
X0625486Y0046966D01*
Y0052965D01*
X0631484Y0051965D02*
X0630484Y0052965D01*
X0628484D01*
X0627485Y0051965D01*
Y0050965D01*
X0628484Y0049966D01*
X0630484D01*
X0631484Y0048966D01*
Y0047966D01*
X0630484Y0046966D01*
X0628484D01*
X0627485Y0047966D01*
X0633483Y0052965D02*
X0637482D01*
X0635482D01*
Y0046966D01*
X0639481D02*
Y0052965D01*
X0642480D01*
X0643480Y0051965D01*
Y0049966D01*
X0642480Y0048966D01*
X0639481D01*
X0641480D02*
X0643480Y0046966D01*
X0645479Y0052965D02*
Y0047966D01*
X0646479Y0046966D01*
X0648478D01*
X0649478Y0047966D01*
Y0052965D01*
X0651477Y0046966D02*
Y0052965D01*
X0653476Y0050965D01*
X0655476Y0052965D01*
Y0046966D01*
X0661474Y0052965D02*
X0657475D01*
Y0046966D01*
X0661474D01*
X0657475Y0049966D02*
X0659474D01*
X0663473Y0046966D02*
Y0052965D01*
X0667472Y0046966D01*
Y0052965D01*
X0669471D02*
X0673470D01*
X0671471D01*
Y0046966D01*
X0679468Y0051965D02*
X0678468Y0052965D01*
X0676469D01*
X0675469Y0051965D01*
Y0050965D01*
X0676469Y0049966D01*
X0678468D01*
X0679468Y0048966D01*
Y0047966D01*
X0678468Y0046966D01*
X0676469D01*
X0675469Y0047966D01*
G54D83*
X0169000Y0297000D02*
D03*
Y0307000D02*
D03*
G54D106*
X0169358Y0243858D02*
D03*
X0204300Y0326100D02*
D03*
X0217500Y0316500D02*
D03*
X0185100Y0311400D02*
D03*
X0227400Y0238700D02*
D03*
X0193458Y0300242D02*
D03*
G54D109*
X0179000Y0220800D02*
D03*
G54D112*
X0284800Y0369000D02*
D03*
G54D115*
X0359000Y0248400D02*
D03*
G54D117*
X0205600Y0210400D02*
D03*
X0254300Y0381700D02*
D03*
X0364700Y0224400D02*
D03*
G54D119*
X0211638Y0271447D02*
D03*
X0216362D02*
D03*
X0211638Y0278239D02*
D03*
X0216362D02*
D03*
G54D120*
X0216000Y0289100D02*
D03*
X0261800Y0303900D02*
D03*
X0270100Y0303500D02*
D03*
X0250200Y0302900D02*
D03*
X0179900Y0269500D02*
D03*
X0242200Y0295100D02*
D03*
X0240400D02*
D03*
X0236700Y0294900D02*
D03*
X0221800Y0270800D02*
D03*
X0235400Y0267100D02*
D03*
X0238500Y0267300D02*
D03*
X0241600Y0267400D02*
D03*
X0239900Y0265500D02*
D03*
X0236800Y0265400D02*
D03*
X0233700Y0265200D02*
D03*
X0230500Y0265300D02*
D03*
X0229000Y0277000D02*
D03*
X0186100Y0269400D02*
D03*
X0186700Y0276250D02*
D03*
X0216000Y0287300D02*
D03*
X0211700Y0260900D02*
D03*
X0213500D02*
D03*
X0254600Y0302800D02*
D03*
X0229200Y0294900D02*
D03*
X0227400D02*
D03*
X0225600D02*
D03*
X0244200Y0295100D02*
D03*
X0223800Y0294900D02*
D03*
X0232200D02*
D03*
X0234400D02*
D03*
X0232200Y0267100D02*
D03*
X0229200D02*
D03*
G54D121*
X0278800Y0336800D02*
D03*
X0317300Y0250900D02*
D03*
X0208900Y0251400D02*
D03*
X0377500Y0244100D02*
D03*
Y0233100D02*
D03*
Y0238600D02*
D03*
X0372500Y0233100D02*
D03*
Y0238600D02*
D03*
Y0244100D02*
D03*
Y0249600D02*
D03*
X0378000D02*
D03*
X0329900Y0250800D02*
D03*
X0323367D02*
D03*
X0312600Y0251900D02*
D03*
X0307267D02*
D03*
X0301933D02*
D03*
X0296600D02*
D03*
X0301700Y0255300D02*
D03*
X0323033Y0256800D02*
D03*
X0312367Y0255300D02*
D03*
X0307033D02*
D03*
X0296367D02*
D03*
X0317700Y0256800D02*
D03*
X0329567D02*
D03*
X0282733Y0384500D02*
D03*
X0278567Y0388500D02*
D03*
X0282733D02*
D03*
X0286900D02*
D03*
X0291067D02*
D03*
X0291067Y0384500D02*
D03*
X0286900D02*
D03*
X0278567D02*
D03*
X0254500Y0325400D02*
D03*
X0258500D02*
D03*
X0277000Y0354000D02*
D03*
Y0346000D02*
D03*
Y0329000D02*
D03*
X0283000D02*
D03*
Y0337000D02*
D03*
Y0346000D02*
D03*
Y0354000D02*
D03*
X0268200D02*
D03*
X0265643Y0325400D02*
D03*
X0261929D02*
D03*
X0258214Y0322148D02*
D03*
X0254310D02*
D03*
X0261929Y0322400D02*
D03*
X0265643D02*
D03*
X0196700Y0249900D02*
D03*
Y0246300D02*
D03*
X0212000Y0251000D02*
D03*
X0276200Y0315400D02*
D03*
X0279700D02*
D03*
G54D122*
X0197500Y0276900D02*
D03*
X0370000Y0344200D02*
D03*
X0195800Y0348100D02*
D03*
X0267200Y0216900D02*
D03*
X0174200Y0276200D02*
D03*
M02*
