G04*
G04 #@! TF.GenerationSoftware,Altium Limited,Altium Designer,18.1.9 (240)*
G04*
G04 Layer_Color=3326705*
%FSAX25Y25*%
%MOIN*%
G70*
G01*
G75*
%ADD16C,0.01000*%
%ADD17C,0.00800*%
%ADD102C,0.01500*%
%ADD135C,0.00100*%
G54D16*
X0708874Y0872898D02*
Y0866900D01*
X0712873D01*
X0715872Y0870899D02*
X0717871D01*
X0718871Y0869899D01*
Y0866900D01*
X0715872D01*
X0714872Y0867900D01*
X0715872Y0868899D01*
X0718871D01*
X0720870Y0870899D02*
Y0867900D01*
X0721870Y0866900D01*
X0724869D01*
Y0865900D01*
X0723869Y0864900D01*
X0722869D01*
X0724869Y0866900D02*
Y0870899D01*
X0729867Y0866900D02*
X0727868D01*
X0726868Y0867900D01*
Y0869899D01*
X0727868Y0870899D01*
X0729867D01*
X0730867Y0869899D01*
Y0868899D01*
X0726868D01*
X0732866Y0870899D02*
Y0866900D01*
Y0868899D01*
X0733866Y0869899D01*
X0734866Y0870899D01*
X0735865D01*
X0708874Y0734900D02*
X0710873D01*
X0709874D01*
Y0740898D01*
X0708874Y0739898D01*
X0713872Y0734900D02*
X0715872D01*
X0714872D01*
Y0740898D01*
X0713872Y0739898D01*
X0708874Y0746900D02*
X0710873D01*
X0709874D01*
Y0752898D01*
X0708874Y0751898D01*
X0713872D02*
X0714872Y0752898D01*
X0716872D01*
X0717871Y0751898D01*
Y0747900D01*
X0716872Y0746900D01*
X0714872D01*
X0713872Y0747900D01*
Y0751898D01*
X0708874Y0759900D02*
X0709874Y0758900D01*
X0711873D01*
X0712873Y0759900D01*
Y0763898D01*
X0711873Y0764898D01*
X0709874D01*
X0708874Y0763898D01*
Y0762899D01*
X0709874Y0761899D01*
X0712873D01*
X0708874Y0775898D02*
X0709874Y0776898D01*
X0711873D01*
X0712873Y0775898D01*
Y0774899D01*
X0711873Y0773899D01*
X0712873Y0772899D01*
Y0771900D01*
X0711873Y0770900D01*
X0709874D01*
X0708874Y0771900D01*
Y0772899D01*
X0709874Y0773899D01*
X0708874Y0774899D01*
Y0775898D01*
X0709874Y0773899D02*
X0711873D01*
X0708874Y0788898D02*
X0712873D01*
Y0787898D01*
X0708874Y0783900D01*
Y0782900D01*
X0712873Y0800898D02*
X0710873Y0799898D01*
X0708874Y0797899D01*
Y0795900D01*
X0709874Y0794900D01*
X0711873D01*
X0712873Y0795900D01*
Y0796899D01*
X0711873Y0797899D01*
X0708874D01*
X0712873Y0812898D02*
X0708874D01*
Y0809899D01*
X0710873Y0810899D01*
X0711873D01*
X0712873Y0809899D01*
Y0807900D01*
X0711873Y0806900D01*
X0709874D01*
X0708874Y0807900D01*
X0711873Y0818900D02*
Y0824898D01*
X0708874Y0821899D01*
X0712873D01*
X0708874Y0835898D02*
X0709874Y0836898D01*
X0711873D01*
X0712873Y0835898D01*
Y0834899D01*
X0711873Y0833899D01*
X0710873D01*
X0711873D01*
X0712873Y0832899D01*
Y0831900D01*
X0711873Y0830900D01*
X0709874D01*
X0708874Y0831900D01*
X0712873Y0842900D02*
X0708874D01*
X0712873Y0846899D01*
Y0847898D01*
X0711873Y0848898D01*
X0709874D01*
X0708874Y0847898D01*
Y0854900D02*
X0710873D01*
X0709874D01*
Y0860898D01*
X0708874Y0859898D01*
X0749865Y0866900D02*
Y0872898D01*
X0753864Y0866900D01*
Y0872898D01*
X0756863Y0870899D02*
X0758862D01*
X0759862Y0869899D01*
Y0866900D01*
X0756863D01*
X0755863Y0867900D01*
X0756863Y0868899D01*
X0759862D01*
X0761861Y0866900D02*
Y0870899D01*
X0762861D01*
X0763861Y0869899D01*
Y0866900D01*
Y0869899D01*
X0764860Y0870899D01*
X0765860Y0869899D01*
Y0866900D01*
X0770858D02*
X0768859D01*
X0767860Y0867900D01*
Y0869899D01*
X0768859Y0870899D01*
X0770858D01*
X0771858Y0869899D01*
Y0868899D01*
X0767860D01*
X0749865Y0740898D02*
Y0734900D01*
X0752864D01*
X0753864Y0735900D01*
Y0736899D01*
X0752864Y0737899D01*
X0749865D01*
X0752864D01*
X0753864Y0738899D01*
Y0739898D01*
X0752864Y0740898D01*
X0749865D01*
X0756863Y0734900D02*
X0758862D01*
X0759862Y0735900D01*
Y0737899D01*
X0758862Y0738899D01*
X0756863D01*
X0755863Y0737899D01*
Y0735900D01*
X0756863Y0734900D01*
X0762861Y0739898D02*
Y0738899D01*
X0761861D01*
X0763861D01*
X0762861D01*
Y0735900D01*
X0763861Y0734900D01*
X0767860Y0739898D02*
Y0738899D01*
X0766860D01*
X0768859D01*
X0767860D01*
Y0735900D01*
X0768859Y0734900D01*
X0772858D02*
X0774857D01*
X0775857Y0735900D01*
Y0737899D01*
X0774857Y0738899D01*
X0772858D01*
X0771858Y0737899D01*
Y0735900D01*
X0772858Y0734900D01*
X0777856D02*
Y0738899D01*
X0778856D01*
X0779856Y0737899D01*
Y0734900D01*
Y0737899D01*
X0780855Y0738899D01*
X0781855Y0737899D01*
Y0734900D01*
X0792851Y0740898D02*
X0790852D01*
X0789852Y0739898D01*
Y0735900D01*
X0790852Y0734900D01*
X0792851D01*
X0793851Y0735900D01*
Y0739898D01*
X0792851Y0740898D01*
X0795851Y0738899D02*
X0797850Y0734900D01*
X0799849Y0738899D01*
X0804848Y0734900D02*
X0802848D01*
X0801849Y0735900D01*
Y0737899D01*
X0802848Y0738899D01*
X0804848D01*
X0805847Y0737899D01*
Y0736899D01*
X0801849D01*
X0807847Y0738899D02*
Y0734900D01*
Y0736899D01*
X0808846Y0737899D01*
X0809846Y0738899D01*
X0810846D01*
X0813845Y0734900D02*
X0815844D01*
X0814844D01*
Y0740898D01*
X0813845D01*
X0819843Y0738899D02*
X0821842D01*
X0822842Y0737899D01*
Y0734900D01*
X0819843D01*
X0818843Y0735900D01*
X0819843Y0736899D01*
X0822842D01*
X0824841Y0738899D02*
Y0735900D01*
X0825841Y0734900D01*
X0828840D01*
Y0733900D01*
X0827840Y0732901D01*
X0826840D01*
X0828840Y0734900D02*
Y0738899D01*
X0749865Y0752898D02*
Y0746900D01*
X0752864D01*
X0753864Y0747900D01*
Y0748899D01*
X0752864Y0749899D01*
X0749865D01*
X0752864D01*
X0753864Y0750899D01*
Y0751898D01*
X0752864Y0752898D01*
X0749865D01*
X0756863Y0746900D02*
X0758862D01*
X0759862Y0747900D01*
Y0749899D01*
X0758862Y0750899D01*
X0756863D01*
X0755863Y0749899D01*
Y0747900D01*
X0756863Y0746900D01*
X0762861Y0751898D02*
Y0750899D01*
X0761861D01*
X0763861D01*
X0762861D01*
Y0747900D01*
X0763861Y0746900D01*
X0767860Y0751898D02*
Y0750899D01*
X0766860D01*
X0768859D01*
X0767860D01*
Y0747900D01*
X0768859Y0746900D01*
X0772858D02*
X0774857D01*
X0775857Y0747900D01*
Y0749899D01*
X0774857Y0750899D01*
X0772858D01*
X0771858Y0749899D01*
Y0747900D01*
X0772858Y0746900D01*
X0777856D02*
Y0750899D01*
X0778856D01*
X0779856Y0749899D01*
Y0746900D01*
Y0749899D01*
X0780855Y0750899D01*
X0781855Y0749899D01*
Y0746900D01*
X0793851Y0751898D02*
X0792851Y0752898D01*
X0790852D01*
X0789852Y0751898D01*
Y0750899D01*
X0790852Y0749899D01*
X0792851D01*
X0793851Y0748899D01*
Y0747900D01*
X0792851Y0746900D01*
X0790852D01*
X0789852Y0747900D01*
X0796850Y0746900D02*
X0798849D01*
X0799849Y0747900D01*
Y0749899D01*
X0798849Y0750899D01*
X0796850D01*
X0795851Y0749899D01*
Y0747900D01*
X0796850Y0746900D01*
X0801849D02*
X0803848D01*
X0802848D01*
Y0752898D01*
X0801849D01*
X0810846D02*
Y0746900D01*
X0807847D01*
X0806847Y0747900D01*
Y0749899D01*
X0807847Y0750899D01*
X0810846D01*
X0815844Y0746900D02*
X0813845D01*
X0812845Y0747900D01*
Y0749899D01*
X0813845Y0750899D01*
X0815844D01*
X0816844Y0749899D01*
Y0748899D01*
X0812845D01*
X0818843Y0750899D02*
Y0746900D01*
Y0748899D01*
X0819843Y0749899D01*
X0820842Y0750899D01*
X0821842D01*
X0749865Y0764898D02*
Y0758900D01*
X0752864D01*
X0753864Y0759900D01*
Y0760899D01*
X0752864Y0761899D01*
X0749865D01*
X0752864D01*
X0753864Y0762899D01*
Y0763898D01*
X0752864Y0764898D01*
X0749865D01*
X0756863Y0758900D02*
X0758862D01*
X0759862Y0759900D01*
Y0761899D01*
X0758862Y0762899D01*
X0756863D01*
X0755863Y0761899D01*
Y0759900D01*
X0756863Y0758900D01*
X0762861Y0763898D02*
Y0762899D01*
X0761861D01*
X0763861D01*
X0762861D01*
Y0759900D01*
X0763861Y0758900D01*
X0767860Y0763898D02*
Y0762899D01*
X0766860D01*
X0768859D01*
X0767860D01*
Y0759900D01*
X0768859Y0758900D01*
X0772858D02*
X0774857D01*
X0775857Y0759900D01*
Y0761899D01*
X0774857Y0762899D01*
X0772858D01*
X0771858Y0761899D01*
Y0759900D01*
X0772858Y0758900D01*
X0777856D02*
Y0762899D01*
X0778856D01*
X0779856Y0761899D01*
Y0758900D01*
Y0761899D01*
X0780855Y0762899D01*
X0781855Y0761899D01*
Y0758900D01*
X0789852Y0764898D02*
Y0758900D01*
X0793851D01*
X0796850Y0762899D02*
X0798849D01*
X0799849Y0761899D01*
Y0758900D01*
X0796850D01*
X0795851Y0759900D01*
X0796850Y0760899D01*
X0799849D01*
X0801849Y0762899D02*
Y0759900D01*
X0802848Y0758900D01*
X0805847D01*
Y0757900D01*
X0804848Y0756901D01*
X0803848D01*
X0805847Y0758900D02*
Y0762899D01*
X0810846Y0758900D02*
X0808846D01*
X0807847Y0759900D01*
Y0761899D01*
X0808846Y0762899D01*
X0810846D01*
X0811845Y0761899D01*
Y0760899D01*
X0807847D01*
X0813845Y0762899D02*
Y0758900D01*
Y0760899D01*
X0814844Y0761899D01*
X0815844Y0762899D01*
X0816844D01*
X0749865Y0776898D02*
Y0770900D01*
X0752864D01*
X0753864Y0771900D01*
Y0775898D01*
X0752864Y0776898D01*
X0749865D01*
X0755863Y0770900D02*
X0757863D01*
X0756863D01*
Y0774899D01*
X0755863D01*
X0763861Y0770900D02*
X0761861D01*
X0760862Y0771900D01*
Y0773899D01*
X0761861Y0774899D01*
X0763861D01*
X0764860Y0773899D01*
Y0772899D01*
X0760862D01*
X0766860Y0770900D02*
X0768859D01*
X0767860D01*
Y0776898D01*
X0766860D01*
X0774857Y0770900D02*
X0772858D01*
X0771858Y0771900D01*
Y0773899D01*
X0772858Y0774899D01*
X0774857D01*
X0775857Y0773899D01*
Y0772899D01*
X0771858D01*
X0781855Y0774899D02*
X0778856D01*
X0777856Y0773899D01*
Y0771900D01*
X0778856Y0770900D01*
X0781855D01*
X0784854Y0775898D02*
Y0774899D01*
X0783854D01*
X0785854D01*
X0784854D01*
Y0771900D01*
X0785854Y0770900D01*
X0788853Y0774899D02*
Y0770900D01*
Y0772899D01*
X0789852Y0773899D01*
X0790852Y0774899D01*
X0791852D01*
X0794851Y0770900D02*
X0796850D01*
X0795851D01*
Y0774899D01*
X0794851D01*
X0803848D02*
X0800849D01*
X0799849Y0773899D01*
Y0771900D01*
X0800849Y0770900D01*
X0803848D01*
X0811845Y0775898D02*
X0812845Y0776898D01*
X0814844D01*
X0815844Y0775898D01*
Y0774899D01*
X0814844Y0773899D01*
X0813845D01*
X0814844D01*
X0815844Y0772899D01*
Y0771900D01*
X0814844Y0770900D01*
X0812845D01*
X0811845Y0771900D01*
X0749865Y0782900D02*
Y0788898D01*
X0751865Y0786899D01*
X0753864Y0788898D01*
Y0782900D01*
X0755863D02*
X0757863D01*
X0756863D01*
Y0786899D01*
X0755863D01*
X0764860Y0788898D02*
Y0782900D01*
X0761861D01*
X0760862Y0783900D01*
Y0785899D01*
X0761861Y0786899D01*
X0764860D01*
X0766860Y0788898D02*
Y0782900D01*
X0770858D01*
X0773858Y0786899D02*
X0775857D01*
X0776857Y0785899D01*
Y0782900D01*
X0773858D01*
X0772858Y0783900D01*
X0773858Y0784899D01*
X0776857D01*
X0778856Y0786899D02*
Y0783900D01*
X0779856Y0782900D01*
X0782855D01*
Y0781900D01*
X0781855Y0780901D01*
X0780855D01*
X0782855Y0782900D02*
Y0786899D01*
X0787853Y0782900D02*
X0785854D01*
X0784854Y0783900D01*
Y0785899D01*
X0785854Y0786899D01*
X0787853D01*
X0788853Y0785899D01*
Y0784899D01*
X0784854D01*
X0790852Y0786899D02*
Y0782900D01*
Y0784899D01*
X0791852Y0785899D01*
X0792851Y0786899D01*
X0793851D01*
X0800849Y0782900D02*
X0796850D01*
X0800849Y0786899D01*
Y0787898D01*
X0799849Y0788898D01*
X0797850D01*
X0796850Y0787898D01*
X0749865Y0800898D02*
Y0794900D01*
X0752864D01*
X0753864Y0795900D01*
Y0799898D01*
X0752864Y0800898D01*
X0749865D01*
X0755863Y0794900D02*
X0757863D01*
X0756863D01*
Y0798899D01*
X0755863D01*
X0763861Y0794900D02*
X0761861D01*
X0760862Y0795900D01*
Y0797899D01*
X0761861Y0798899D01*
X0763861D01*
X0764860Y0797899D01*
Y0796899D01*
X0760862D01*
X0766860Y0794900D02*
X0768859D01*
X0767860D01*
Y0800898D01*
X0766860D01*
X0774857Y0794900D02*
X0772858D01*
X0771858Y0795900D01*
Y0797899D01*
X0772858Y0798899D01*
X0774857D01*
X0775857Y0797899D01*
Y0796899D01*
X0771858D01*
X0781855Y0798899D02*
X0778856D01*
X0777856Y0797899D01*
Y0795900D01*
X0778856Y0794900D01*
X0781855D01*
X0784854Y0799898D02*
Y0798899D01*
X0783854D01*
X0785854D01*
X0784854D01*
Y0795900D01*
X0785854Y0794900D01*
X0788853Y0798899D02*
Y0794900D01*
Y0796899D01*
X0789852Y0797899D01*
X0790852Y0798899D01*
X0791852D01*
X0794851Y0794900D02*
X0796850D01*
X0795851D01*
Y0798899D01*
X0794851D01*
X0803848D02*
X0800849D01*
X0799849Y0797899D01*
Y0795900D01*
X0800849Y0794900D01*
X0803848D01*
X0809846D02*
X0805847D01*
X0809846Y0798899D01*
Y0799898D01*
X0808846Y0800898D01*
X0806847D01*
X0805847Y0799898D01*
X0749865Y0806900D02*
Y0812898D01*
X0751865Y0810899D01*
X0753864Y0812898D01*
Y0806900D01*
X0755863D02*
X0757863D01*
X0756863D01*
Y0810899D01*
X0755863D01*
X0764860Y0812898D02*
Y0806900D01*
X0761861D01*
X0760862Y0807900D01*
Y0809899D01*
X0761861Y0810899D01*
X0764860D01*
X0766860Y0812898D02*
Y0806900D01*
X0770858D01*
X0773858Y0810899D02*
X0775857D01*
X0776857Y0809899D01*
Y0806900D01*
X0773858D01*
X0772858Y0807900D01*
X0773858Y0808899D01*
X0776857D01*
X0778856Y0810899D02*
Y0807900D01*
X0779856Y0806900D01*
X0782855D01*
Y0805900D01*
X0781855Y0804901D01*
X0780855D01*
X0782855Y0806900D02*
Y0810899D01*
X0787853Y0806900D02*
X0785854D01*
X0784854Y0807900D01*
Y0809899D01*
X0785854Y0810899D01*
X0787853D01*
X0788853Y0809899D01*
Y0808899D01*
X0784854D01*
X0790852Y0810899D02*
Y0806900D01*
Y0808899D01*
X0791852Y0809899D01*
X0792851Y0810899D01*
X0793851D01*
X0796850Y0806900D02*
X0798849D01*
X0797850D01*
Y0812898D01*
X0796850Y0811898D01*
X0749865Y0824898D02*
Y0818900D01*
X0752864D01*
X0753864Y0819900D01*
Y0823898D01*
X0752864Y0824898D01*
X0749865D01*
X0755863Y0818900D02*
X0757863D01*
X0756863D01*
Y0822899D01*
X0755863D01*
X0763861Y0818900D02*
X0761861D01*
X0760862Y0819900D01*
Y0821899D01*
X0761861Y0822899D01*
X0763861D01*
X0764860Y0821899D01*
Y0820899D01*
X0760862D01*
X0766860Y0818900D02*
X0768859D01*
X0767860D01*
Y0824898D01*
X0766860D01*
X0774857Y0818900D02*
X0772858D01*
X0771858Y0819900D01*
Y0821899D01*
X0772858Y0822899D01*
X0774857D01*
X0775857Y0821899D01*
Y0820899D01*
X0771858D01*
X0781855Y0822899D02*
X0778856D01*
X0777856Y0821899D01*
Y0819900D01*
X0778856Y0818900D01*
X0781855D01*
X0784854Y0823898D02*
Y0822899D01*
X0783854D01*
X0785854D01*
X0784854D01*
Y0819900D01*
X0785854Y0818900D01*
X0788853Y0822899D02*
Y0818900D01*
Y0820899D01*
X0789852Y0821899D01*
X0790852Y0822899D01*
X0791852D01*
X0794851Y0818900D02*
X0796850D01*
X0795851D01*
Y0822899D01*
X0794851D01*
X0803848D02*
X0800849D01*
X0799849Y0821899D01*
Y0819900D01*
X0800849Y0818900D01*
X0803848D01*
X0805847D02*
X0807847D01*
X0806847D01*
Y0824898D01*
X0805847Y0823898D01*
X0749865Y0836898D02*
X0753864D01*
X0751865D01*
Y0830900D01*
X0756863D02*
X0758862D01*
X0759862Y0831900D01*
Y0833899D01*
X0758862Y0834899D01*
X0756863D01*
X0755863Y0833899D01*
Y0831900D01*
X0756863Y0830900D01*
X0761861Y0828901D02*
Y0834899D01*
X0764860D01*
X0765860Y0833899D01*
Y0831900D01*
X0764860Y0830900D01*
X0761861D01*
X0773858Y0836898D02*
Y0830900D01*
X0777856D01*
X0780855Y0834899D02*
X0782855D01*
X0783854Y0833899D01*
Y0830900D01*
X0780855D01*
X0779856Y0831900D01*
X0780855Y0832899D01*
X0783854D01*
X0785854Y0834899D02*
Y0831900D01*
X0786853Y0830900D01*
X0789852D01*
Y0829900D01*
X0788853Y0828901D01*
X0787853D01*
X0789852Y0830900D02*
Y0834899D01*
X0794851Y0830900D02*
X0792851D01*
X0791852Y0831900D01*
Y0833899D01*
X0792851Y0834899D01*
X0794851D01*
X0795851Y0833899D01*
Y0832899D01*
X0791852D01*
X0797850Y0834899D02*
Y0830900D01*
Y0832899D01*
X0798849Y0833899D01*
X0799849Y0834899D01*
X0800849D01*
X0749865Y0848898D02*
X0753864D01*
X0751865D01*
Y0842900D01*
X0756863D02*
X0758862D01*
X0759862Y0843900D01*
Y0845899D01*
X0758862Y0846899D01*
X0756863D01*
X0755863Y0845899D01*
Y0843900D01*
X0756863Y0842900D01*
X0761861Y0840901D02*
Y0846899D01*
X0764860D01*
X0765860Y0845899D01*
Y0843900D01*
X0764860Y0842900D01*
X0761861D01*
X0777856Y0847898D02*
X0776857Y0848898D01*
X0774857D01*
X0773858Y0847898D01*
Y0846899D01*
X0774857Y0845899D01*
X0776857D01*
X0777856Y0844899D01*
Y0843900D01*
X0776857Y0842900D01*
X0774857D01*
X0773858Y0843900D01*
X0780855Y0842900D02*
X0782855D01*
X0783854Y0843900D01*
Y0845899D01*
X0782855Y0846899D01*
X0780855D01*
X0779856Y0845899D01*
Y0843900D01*
X0780855Y0842900D01*
X0785854D02*
X0787853D01*
X0786853D01*
Y0848898D01*
X0785854D01*
X0794851D02*
Y0842900D01*
X0791852D01*
X0790852Y0843900D01*
Y0845899D01*
X0791852Y0846899D01*
X0794851D01*
X0799849Y0842900D02*
X0797850D01*
X0796850Y0843900D01*
Y0845899D01*
X0797850Y0846899D01*
X0799849D01*
X0800849Y0845899D01*
Y0844899D01*
X0796850D01*
X0802848Y0846899D02*
Y0842900D01*
Y0844899D01*
X0803848Y0845899D01*
X0804848Y0846899D01*
X0805847D01*
X0749865Y0860898D02*
X0753864D01*
X0751865D01*
Y0854900D01*
X0756863D02*
X0758862D01*
X0759862Y0855900D01*
Y0857899D01*
X0758862Y0858899D01*
X0756863D01*
X0755863Y0857899D01*
Y0855900D01*
X0756863Y0854900D01*
X0761861Y0852901D02*
Y0858899D01*
X0764860D01*
X0765860Y0857899D01*
Y0855900D01*
X0764860Y0854900D01*
X0761861D01*
X0776857Y0860898D02*
X0774857D01*
X0773858Y0859898D01*
Y0855900D01*
X0774857Y0854900D01*
X0776857D01*
X0777856Y0855900D01*
Y0859898D01*
X0776857Y0860898D01*
X0779856Y0858899D02*
X0781855Y0854900D01*
X0783854Y0858899D01*
X0788853Y0854900D02*
X0786853D01*
X0785854Y0855900D01*
Y0857899D01*
X0786853Y0858899D01*
X0788853D01*
X0789852Y0857899D01*
Y0856899D01*
X0785854D01*
X0791852Y0858899D02*
Y0854900D01*
Y0856899D01*
X0792851Y0857899D01*
X0793851Y0858899D01*
X0794851D01*
X0797850Y0854900D02*
X0799849D01*
X0798849D01*
Y0860898D01*
X0797850D01*
X0803848Y0858899D02*
X0805847D01*
X0806847Y0857899D01*
Y0854900D01*
X0803848D01*
X0802848Y0855900D01*
X0803848Y0856899D01*
X0806847D01*
X0808846Y0858899D02*
Y0855900D01*
X0809846Y0854900D01*
X0812845D01*
Y0853900D01*
X0811845Y0852901D01*
X0810846D01*
X0812845Y0854900D02*
Y0858899D01*
X0842840Y0866900D02*
Y0872898D01*
X0844839Y0870899D01*
X0846838Y0872898D01*
Y0866900D01*
X0849837Y0870899D02*
X0851837D01*
X0852837Y0869899D01*
Y0866900D01*
X0849837D01*
X0848838Y0867900D01*
X0849837Y0868899D01*
X0852837D01*
X0855836Y0871898D02*
Y0870899D01*
X0854836D01*
X0856835D01*
X0855836D01*
Y0867900D01*
X0856835Y0866900D01*
X0862833D02*
X0860834D01*
X0859834Y0867900D01*
Y0869899D01*
X0860834Y0870899D01*
X0862833D01*
X0863833Y0869899D01*
Y0868899D01*
X0859834D01*
X0865832Y0870899D02*
Y0866900D01*
Y0868899D01*
X0866832Y0869899D01*
X0867832Y0870899D01*
X0868831D01*
X0871830Y0866900D02*
X0873830D01*
X0872830D01*
Y0870899D01*
X0871830D01*
X0877829D02*
X0879828D01*
X0880828Y0869899D01*
Y0866900D01*
X0877829D01*
X0876829Y0867900D01*
X0877829Y0868899D01*
X0880828D01*
X0882827Y0866900D02*
X0884826D01*
X0883827D01*
Y0872898D01*
X0882827D01*
X0846838Y0751898D02*
X0845839Y0752898D01*
X0843839D01*
X0842840Y0751898D01*
Y0750899D01*
X0843839Y0749899D01*
X0845839D01*
X0846838Y0748899D01*
Y0747900D01*
X0845839Y0746900D01*
X0843839D01*
X0842840Y0747900D01*
X0849837Y0746900D02*
X0851837D01*
X0852837Y0747900D01*
Y0749899D01*
X0851837Y0750899D01*
X0849837D01*
X0848838Y0749899D01*
Y0747900D01*
X0849837Y0746900D01*
X0854836D02*
X0856835D01*
X0855836D01*
Y0752898D01*
X0854836D01*
X0863833D02*
Y0746900D01*
X0860834D01*
X0859834Y0747900D01*
Y0749899D01*
X0860834Y0750899D01*
X0863833D01*
X0868831Y0746900D02*
X0866832D01*
X0865832Y0747900D01*
Y0749899D01*
X0866832Y0750899D01*
X0868831D01*
X0869831Y0749899D01*
Y0748899D01*
X0865832D01*
X0871830Y0750899D02*
Y0746900D01*
Y0748899D01*
X0872830Y0749899D01*
X0873830Y0750899D01*
X0874829D01*
X0883827Y0746900D02*
Y0752898D01*
X0886825D01*
X0887825Y0751898D01*
Y0749899D01*
X0886825Y0748899D01*
X0883827D01*
X0885826D02*
X0887825Y0746900D01*
X0892824D02*
X0890824D01*
X0889825Y0747900D01*
Y0749899D01*
X0890824Y0750899D01*
X0892824D01*
X0893823Y0749899D01*
Y0748899D01*
X0889825D01*
X0895823Y0746900D02*
X0898822D01*
X0899821Y0747900D01*
X0898822Y0748899D01*
X0896822D01*
X0895823Y0749899D01*
X0896822Y0750899D01*
X0899821D01*
X0901821Y0746900D02*
X0903820D01*
X0902820D01*
Y0750899D01*
X0901821D01*
X0906819Y0746900D02*
X0909818D01*
X0910818Y0747900D01*
X0909818Y0748899D01*
X0907819D01*
X0906819Y0749899D01*
X0907819Y0750899D01*
X0910818D01*
X0913817Y0751898D02*
Y0750899D01*
X0912817D01*
X0914816D01*
X0913817D01*
Y0747900D01*
X0914816Y0746900D01*
X0846838Y0763898D02*
X0845839Y0764898D01*
X0843839D01*
X0842840Y0763898D01*
Y0759900D01*
X0843839Y0758900D01*
X0845839D01*
X0846838Y0759900D01*
X0849837Y0758900D02*
X0851837D01*
X0852837Y0759900D01*
Y0761899D01*
X0851837Y0762899D01*
X0849837D01*
X0848838Y0761899D01*
Y0759900D01*
X0849837Y0758900D01*
X0854836Y0756901D02*
Y0762899D01*
X0857835D01*
X0858835Y0761899D01*
Y0759900D01*
X0857835Y0758900D01*
X0854836D01*
X0860834Y0756901D02*
Y0762899D01*
X0863833D01*
X0864833Y0761899D01*
Y0759900D01*
X0863833Y0758900D01*
X0860834D01*
X0869831D02*
X0867832D01*
X0866832Y0759900D01*
Y0761899D01*
X0867832Y0762899D01*
X0869831D01*
X0870831Y0761899D01*
Y0760899D01*
X0866832D01*
X0872830Y0762899D02*
Y0758900D01*
Y0760899D01*
X0873830Y0761899D01*
X0874829Y0762899D01*
X0875829D01*
X0846838Y0787898D02*
X0845839Y0788898D01*
X0843839D01*
X0842840Y0787898D01*
Y0783900D01*
X0843839Y0782900D01*
X0845839D01*
X0846838Y0783900D01*
X0849837Y0782900D02*
X0851837D01*
X0852837Y0783900D01*
Y0785899D01*
X0851837Y0786899D01*
X0849837D01*
X0848838Y0785899D01*
Y0783900D01*
X0849837Y0782900D01*
X0854836Y0780901D02*
Y0786899D01*
X0857835D01*
X0858835Y0785899D01*
Y0783900D01*
X0857835Y0782900D01*
X0854836D01*
X0860834Y0780901D02*
Y0786899D01*
X0863833D01*
X0864833Y0785899D01*
Y0783900D01*
X0863833Y0782900D01*
X0860834D01*
X0869831D02*
X0867832D01*
X0866832Y0783900D01*
Y0785899D01*
X0867832Y0786899D01*
X0869831D01*
X0870831Y0785899D01*
Y0784899D01*
X0866832D01*
X0872830Y0786899D02*
Y0782900D01*
Y0784899D01*
X0873830Y0785899D01*
X0874829Y0786899D01*
X0875829D01*
X0846838Y0800898D02*
X0842840D01*
Y0797899D01*
X0844839D01*
X0842840D01*
Y0794900D01*
X0848838D02*
Y0800898D01*
X0851837D01*
X0852837Y0799898D01*
Y0797899D01*
X0851837Y0796899D01*
X0848838D01*
X0850837D02*
X0852837Y0794900D01*
X0854836Y0797899D02*
X0858835D01*
X0863833Y0794900D02*
Y0800898D01*
X0860834Y0797899D01*
X0864833D01*
X0846838Y0811898D02*
X0845839Y0812898D01*
X0843839D01*
X0842840Y0811898D01*
Y0807900D01*
X0843839Y0806900D01*
X0845839D01*
X0846838Y0807900D01*
X0849837Y0806900D02*
X0851837D01*
X0852837Y0807900D01*
Y0809899D01*
X0851837Y0810899D01*
X0849837D01*
X0848838Y0809899D01*
Y0807900D01*
X0849837Y0806900D01*
X0854836Y0804901D02*
Y0810899D01*
X0857835D01*
X0858835Y0809899D01*
Y0807900D01*
X0857835Y0806900D01*
X0854836D01*
X0860834Y0804901D02*
Y0810899D01*
X0863833D01*
X0864833Y0809899D01*
Y0807900D01*
X0863833Y0806900D01*
X0860834D01*
X0869831D02*
X0867832D01*
X0866832Y0807900D01*
Y0809899D01*
X0867832Y0810899D01*
X0869831D01*
X0870831Y0809899D01*
Y0808899D01*
X0866832D01*
X0872830Y0810899D02*
Y0806900D01*
Y0808899D01*
X0873830Y0809899D01*
X0874829Y0810899D01*
X0875829D01*
X0846838Y0824898D02*
X0842840D01*
Y0821899D01*
X0844839D01*
X0842840D01*
Y0818900D01*
X0848838D02*
Y0824898D01*
X0851837D01*
X0852837Y0823898D01*
Y0821899D01*
X0851837Y0820899D01*
X0848838D01*
X0850837D02*
X0852837Y0818900D01*
X0854836Y0821899D02*
X0858835D01*
X0863833Y0818900D02*
Y0824898D01*
X0860834Y0821899D01*
X0864833D01*
X0846838Y0835898D02*
X0845839Y0836898D01*
X0843839D01*
X0842840Y0835898D01*
Y0831900D01*
X0843839Y0830900D01*
X0845839D01*
X0846838Y0831900D01*
X0849837Y0830900D02*
X0851837D01*
X0852837Y0831900D01*
Y0833899D01*
X0851837Y0834899D01*
X0849837D01*
X0848838Y0833899D01*
Y0831900D01*
X0849837Y0830900D01*
X0854836Y0828901D02*
Y0834899D01*
X0857835D01*
X0858835Y0833899D01*
Y0831900D01*
X0857835Y0830900D01*
X0854836D01*
X0860834Y0828901D02*
Y0834899D01*
X0863833D01*
X0864833Y0833899D01*
Y0831900D01*
X0863833Y0830900D01*
X0860834D01*
X0869831D02*
X0867832D01*
X0866832Y0831900D01*
Y0833899D01*
X0867832Y0834899D01*
X0869831D01*
X0870831Y0833899D01*
Y0832899D01*
X0866832D01*
X0872830Y0834899D02*
Y0830900D01*
Y0832899D01*
X0873830Y0833899D01*
X0874829Y0834899D01*
X0875829D01*
X0846838Y0847898D02*
X0845839Y0848898D01*
X0843839D01*
X0842840Y0847898D01*
Y0846899D01*
X0843839Y0845899D01*
X0845839D01*
X0846838Y0844899D01*
Y0843900D01*
X0845839Y0842900D01*
X0843839D01*
X0842840Y0843900D01*
X0849837Y0842900D02*
X0851837D01*
X0852837Y0843900D01*
Y0845899D01*
X0851837Y0846899D01*
X0849837D01*
X0848838Y0845899D01*
Y0843900D01*
X0849837Y0842900D01*
X0854836D02*
X0856835D01*
X0855836D01*
Y0848898D01*
X0854836D01*
X0863833D02*
Y0842900D01*
X0860834D01*
X0859834Y0843900D01*
Y0845899D01*
X0860834Y0846899D01*
X0863833D01*
X0868831Y0842900D02*
X0866832D01*
X0865832Y0843900D01*
Y0845899D01*
X0866832Y0846899D01*
X0868831D01*
X0869831Y0845899D01*
Y0844899D01*
X0865832D01*
X0871830Y0846899D02*
Y0842900D01*
Y0844899D01*
X0872830Y0845899D01*
X0873830Y0846899D01*
X0874829D01*
X0883827Y0842900D02*
Y0848898D01*
X0886825D01*
X0887825Y0847898D01*
Y0845899D01*
X0886825Y0844899D01*
X0883827D01*
X0885826D02*
X0887825Y0842900D01*
X0892824D02*
X0890824D01*
X0889825Y0843900D01*
Y0845899D01*
X0890824Y0846899D01*
X0892824D01*
X0893823Y0845899D01*
Y0844899D01*
X0889825D01*
X0895823Y0842900D02*
X0898822D01*
X0899821Y0843900D01*
X0898822Y0844899D01*
X0896822D01*
X0895823Y0845899D01*
X0896822Y0846899D01*
X0899821D01*
X0901821Y0842900D02*
X0903820D01*
X0902820D01*
Y0846899D01*
X0901821D01*
X0906819Y0842900D02*
X0909818D01*
X0910818Y0843900D01*
X0909818Y0844899D01*
X0907819D01*
X0906819Y0845899D01*
X0907819Y0846899D01*
X0910818D01*
X0913817Y0847898D02*
Y0846899D01*
X0912817D01*
X0914816D01*
X0913817D01*
Y0843900D01*
X0914816Y0842900D01*
X0928817Y0872898D02*
X0932815D01*
X0930816D01*
Y0866900D01*
X0934815Y0872898D02*
Y0866900D01*
Y0869899D01*
X0935814Y0870899D01*
X0937814D01*
X0938813Y0869899D01*
Y0866900D01*
X0940813D02*
X0942812D01*
X0941812D01*
Y0870899D01*
X0940813D01*
X0949810D02*
X0946811D01*
X0945811Y0869899D01*
Y0867900D01*
X0946811Y0866900D01*
X0949810D01*
X0951809D02*
Y0872898D01*
Y0868899D02*
X0954808Y0870899D01*
X0951809Y0868899D02*
X0954808Y0866900D01*
X0957807D02*
Y0870899D01*
X0960806D01*
X0961806Y0869899D01*
Y0866900D01*
X0966804D02*
X0964805D01*
X0963805Y0867900D01*
Y0869899D01*
X0964805Y0870899D01*
X0966804D01*
X0967804Y0869899D01*
Y0868899D01*
X0963805D01*
X0969803Y0866900D02*
X0972802D01*
X0973802Y0867900D01*
X0972802Y0868899D01*
X0970803D01*
X0969803Y0869899D01*
X0970803Y0870899D01*
X0973802D01*
X0975801Y0866900D02*
X0978800D01*
X0979800Y0867900D01*
X0978800Y0868899D01*
X0976801D01*
X0975801Y0869899D01*
X0976801Y0870899D01*
X0979800D01*
X0928817Y0751898D02*
X0929816Y0752898D01*
X0931816D01*
X0932815Y0751898D01*
Y0747900D01*
X0931816Y0746900D01*
X0929816D01*
X0928817Y0747900D01*
Y0751898D01*
X0934815Y0746900D02*
Y0747900D01*
X0935814D01*
Y0746900D01*
X0934815D01*
X0942812D02*
Y0752898D01*
X0939813Y0749899D01*
X0943812D01*
X0945811Y0751898D02*
X0946811Y0752898D01*
X0948810D01*
X0949810Y0751898D01*
Y0747900D01*
X0948810Y0746900D01*
X0946811D01*
X0945811Y0747900D01*
Y0751898D01*
X0951809Y0746900D02*
Y0750899D01*
X0952809D01*
X0953808Y0749899D01*
Y0746900D01*
Y0749899D01*
X0954808Y0750899D01*
X0955808Y0749899D01*
Y0746900D01*
X0957807D02*
X0959807D01*
X0958807D01*
Y0750899D01*
X0957807D01*
X0962805Y0746900D02*
X0964805D01*
X0963805D01*
Y0752898D01*
X0962805D01*
X0932815Y0758900D02*
X0928817D01*
X0932815Y0762899D01*
Y0763898D01*
X0931816Y0764898D01*
X0929816D01*
X0928817Y0763898D01*
X0934815Y0758900D02*
Y0759900D01*
X0935814D01*
Y0758900D01*
X0934815D01*
X0939813Y0763898D02*
X0940813Y0764898D01*
X0942812D01*
X0943812Y0763898D01*
Y0762899D01*
X0942812Y0761899D01*
X0943812Y0760899D01*
Y0759900D01*
X0942812Y0758900D01*
X0940813D01*
X0939813Y0759900D01*
Y0760899D01*
X0940813Y0761899D01*
X0939813Y0762899D01*
Y0763898D01*
X0940813Y0761899D02*
X0942812D01*
X0945811Y0763898D02*
X0946811Y0764898D01*
X0948810D01*
X0949810Y0763898D01*
Y0759900D01*
X0948810Y0758900D01*
X0946811D01*
X0945811Y0759900D01*
Y0763898D01*
X0951809Y0758900D02*
Y0762899D01*
X0952809D01*
X0953808Y0761899D01*
Y0758900D01*
Y0761899D01*
X0954808Y0762899D01*
X0955808Y0761899D01*
Y0758900D01*
X0957807D02*
X0959807D01*
X0958807D01*
Y0762899D01*
X0957807D01*
X0962805Y0758900D02*
X0964805D01*
X0963805D01*
Y0764898D01*
X0962805D01*
X0932815Y0776898D02*
X0928817D01*
Y0773899D01*
X0930816Y0774899D01*
X0931816D01*
X0932815Y0773899D01*
Y0771900D01*
X0931816Y0770900D01*
X0929816D01*
X0928817Y0771900D01*
X0934815Y0770900D02*
Y0771900D01*
X0935814D01*
Y0770900D01*
X0934815D01*
X0939813Y0775898D02*
X0940813Y0776898D01*
X0942812D01*
X0943812Y0775898D01*
Y0771900D01*
X0942812Y0770900D01*
X0940813D01*
X0939813Y0771900D01*
Y0775898D01*
X0945811D02*
X0946811Y0776898D01*
X0948810D01*
X0949810Y0775898D01*
Y0771900D01*
X0948810Y0770900D01*
X0946811D01*
X0945811Y0771900D01*
Y0775898D01*
X0951809Y0770900D02*
Y0774899D01*
X0952809D01*
X0953808Y0773899D01*
Y0770900D01*
Y0773899D01*
X0954808Y0774899D01*
X0955808Y0773899D01*
Y0770900D01*
X0957807D02*
X0959807D01*
X0958807D01*
Y0774899D01*
X0957807D01*
X0962805Y0770900D02*
X0964805D01*
X0963805D01*
Y0776898D01*
X0962805D01*
X0932815Y0782900D02*
X0928817D01*
X0932815Y0786899D01*
Y0787898D01*
X0931816Y0788898D01*
X0929816D01*
X0928817Y0787898D01*
X0934815Y0782900D02*
Y0783900D01*
X0935814D01*
Y0782900D01*
X0934815D01*
X0939813Y0787898D02*
X0940813Y0788898D01*
X0942812D01*
X0943812Y0787898D01*
Y0786899D01*
X0942812Y0785899D01*
X0943812Y0784899D01*
Y0783900D01*
X0942812Y0782900D01*
X0940813D01*
X0939813Y0783900D01*
Y0784899D01*
X0940813Y0785899D01*
X0939813Y0786899D01*
Y0787898D01*
X0940813Y0785899D02*
X0942812D01*
X0945811Y0787898D02*
X0946811Y0788898D01*
X0948810D01*
X0949810Y0787898D01*
Y0783900D01*
X0948810Y0782900D01*
X0946811D01*
X0945811Y0783900D01*
Y0787898D01*
X0951809Y0782900D02*
Y0786899D01*
X0952809D01*
X0953808Y0785899D01*
Y0782900D01*
Y0785899D01*
X0954808Y0786899D01*
X0955808Y0785899D01*
Y0782900D01*
X0957807D02*
X0959807D01*
X0958807D01*
Y0786899D01*
X0957807D01*
X0962805Y0782900D02*
X0964805D01*
X0963805D01*
Y0788898D01*
X0962805D01*
X0931816Y0794900D02*
Y0800898D01*
X0928817Y0797899D01*
X0932815D01*
X0934815Y0799898D02*
X0935814Y0800898D01*
X0937814D01*
X0938813Y0799898D01*
Y0795900D01*
X0937814Y0794900D01*
X0935814D01*
X0934815Y0795900D01*
Y0799898D01*
X0940813Y0794900D02*
Y0795900D01*
X0941812D01*
Y0794900D01*
X0940813D01*
X0945811Y0799898D02*
X0946811Y0800898D01*
X0948810D01*
X0949810Y0799898D01*
Y0795900D01*
X0948810Y0794900D01*
X0946811D01*
X0945811Y0795900D01*
Y0799898D01*
X0951809D02*
X0952809Y0800898D01*
X0954808D01*
X0955808Y0799898D01*
Y0795900D01*
X0954808Y0794900D01*
X0952809D01*
X0951809Y0795900D01*
Y0799898D01*
X0957807Y0794900D02*
Y0798899D01*
X0958807D01*
X0959807Y0797899D01*
Y0794900D01*
Y0797899D01*
X0960806Y0798899D01*
X0961806Y0797899D01*
Y0794900D01*
X0963805D02*
X0965804D01*
X0964805D01*
Y0798899D01*
X0963805D01*
X0968804Y0794900D02*
X0970803D01*
X0969803D01*
Y0800898D01*
X0968804D01*
X0932815Y0806900D02*
X0928817D01*
X0932815Y0810899D01*
Y0811898D01*
X0931816Y0812898D01*
X0929816D01*
X0928817Y0811898D01*
X0934815Y0806900D02*
Y0807900D01*
X0935814D01*
Y0806900D01*
X0934815D01*
X0939813Y0811898D02*
X0940813Y0812898D01*
X0942812D01*
X0943812Y0811898D01*
Y0810899D01*
X0942812Y0809899D01*
X0943812Y0808899D01*
Y0807900D01*
X0942812Y0806900D01*
X0940813D01*
X0939813Y0807900D01*
Y0808899D01*
X0940813Y0809899D01*
X0939813Y0810899D01*
Y0811898D01*
X0940813Y0809899D02*
X0942812D01*
X0945811Y0811898D02*
X0946811Y0812898D01*
X0948810D01*
X0949810Y0811898D01*
Y0807900D01*
X0948810Y0806900D01*
X0946811D01*
X0945811Y0807900D01*
Y0811898D01*
X0951809Y0806900D02*
Y0810899D01*
X0952809D01*
X0953808Y0809899D01*
Y0806900D01*
Y0809899D01*
X0954808Y0810899D01*
X0955808Y0809899D01*
Y0806900D01*
X0957807D02*
X0959807D01*
X0958807D01*
Y0810899D01*
X0957807D01*
X0962805Y0806900D02*
X0964805D01*
X0963805D01*
Y0812898D01*
X0962805D01*
X0932815Y0824898D02*
X0928817D01*
Y0821899D01*
X0930816Y0822899D01*
X0931816D01*
X0932815Y0821899D01*
Y0819900D01*
X0931816Y0818900D01*
X0929816D01*
X0928817Y0819900D01*
X0934815Y0818900D02*
Y0819900D01*
X0935814D01*
Y0818900D01*
X0934815D01*
X0939813Y0823898D02*
X0940813Y0824898D01*
X0942812D01*
X0943812Y0823898D01*
Y0819900D01*
X0942812Y0818900D01*
X0940813D01*
X0939813Y0819900D01*
Y0823898D01*
X0945811D02*
X0946811Y0824898D01*
X0948810D01*
X0949810Y0823898D01*
Y0819900D01*
X0948810Y0818900D01*
X0946811D01*
X0945811Y0819900D01*
Y0823898D01*
X0951809Y0818900D02*
Y0822899D01*
X0952809D01*
X0953808Y0821899D01*
Y0818900D01*
Y0821899D01*
X0954808Y0822899D01*
X0955808Y0821899D01*
Y0818900D01*
X0957807D02*
X0959807D01*
X0958807D01*
Y0822899D01*
X0957807D01*
X0962805Y0818900D02*
X0964805D01*
X0963805D01*
Y0824898D01*
X0962805D01*
X0932815Y0830900D02*
X0928817D01*
X0932815Y0834899D01*
Y0835898D01*
X0931816Y0836898D01*
X0929816D01*
X0928817Y0835898D01*
X0934815Y0830900D02*
Y0831900D01*
X0935814D01*
Y0830900D01*
X0934815D01*
X0939813Y0835898D02*
X0940813Y0836898D01*
X0942812D01*
X0943812Y0835898D01*
Y0834899D01*
X0942812Y0833899D01*
X0943812Y0832899D01*
Y0831900D01*
X0942812Y0830900D01*
X0940813D01*
X0939813Y0831900D01*
Y0832899D01*
X0940813Y0833899D01*
X0939813Y0834899D01*
Y0835898D01*
X0940813Y0833899D02*
X0942812D01*
X0945811Y0835898D02*
X0946811Y0836898D01*
X0948810D01*
X0949810Y0835898D01*
Y0831900D01*
X0948810Y0830900D01*
X0946811D01*
X0945811Y0831900D01*
Y0835898D01*
X0951809Y0830900D02*
Y0834899D01*
X0952809D01*
X0953808Y0833899D01*
Y0830900D01*
Y0833899D01*
X0954808Y0834899D01*
X0955808Y0833899D01*
Y0830900D01*
X0957807D02*
X0959807D01*
X0958807D01*
Y0834899D01*
X0957807D01*
X0962805Y0830900D02*
X0964805D01*
X0963805D01*
Y0836898D01*
X0962805D01*
X0928817Y0847898D02*
X0929816Y0848898D01*
X0931816D01*
X0932815Y0847898D01*
Y0843900D01*
X0931816Y0842900D01*
X0929816D01*
X0928817Y0843900D01*
Y0847898D01*
X0934815Y0842900D02*
Y0843900D01*
X0935814D01*
Y0842900D01*
X0934815D01*
X0942812D02*
Y0848898D01*
X0939813Y0845899D01*
X0943812D01*
X0945811Y0847898D02*
X0946811Y0848898D01*
X0948810D01*
X0949810Y0847898D01*
Y0843900D01*
X0948810Y0842900D01*
X0946811D01*
X0945811Y0843900D01*
Y0847898D01*
X0951809Y0842900D02*
Y0846899D01*
X0952809D01*
X0953808Y0845899D01*
Y0842900D01*
Y0845899D01*
X0954808Y0846899D01*
X0955808Y0845899D01*
Y0842900D01*
X0957807D02*
X0959807D01*
X0958807D01*
Y0846899D01*
X0957807D01*
X0962805Y0842900D02*
X0964805D01*
X0963805D01*
Y0848898D01*
X0962805D01*
X0997799Y0871898D02*
X0996799Y0872898D01*
X0994800D01*
X0993800Y0871898D01*
Y0867900D01*
X0994800Y0866900D01*
X0996799D01*
X0997799Y0867900D01*
X1000798Y0866900D02*
X1002797D01*
X1003797Y0867900D01*
Y0869899D01*
X1002797Y0870899D01*
X1000798D01*
X0999798Y0869899D01*
Y0867900D01*
X1000798Y0866900D01*
X1005796D02*
Y0870899D01*
X1008795D01*
X1009795Y0869899D01*
Y0866900D01*
X1011794D02*
X1014793D01*
X1015793Y0867900D01*
X1014793Y0868899D01*
X1012794D01*
X1011794Y0869899D01*
X1012794Y0870899D01*
X1015793D01*
X1018792Y0871898D02*
Y0870899D01*
X1017792D01*
X1019792D01*
X1018792D01*
Y0867900D01*
X1019792Y0866900D01*
X1023790Y0870899D02*
X1025790D01*
X1026789Y0869899D01*
Y0866900D01*
X1023790D01*
X1022791Y0867900D01*
X1023790Y0868899D01*
X1026789D01*
X1028789Y0866900D02*
Y0870899D01*
X1031788D01*
X1032787Y0869899D01*
Y0866900D01*
X1035786Y0871898D02*
Y0870899D01*
X1034787D01*
X1036786D01*
X1035786D01*
Y0867900D01*
X1036786Y0866900D01*
X0993800Y0751898D02*
X0994800Y0752898D01*
X0996799D01*
X0997799Y0751898D01*
Y0750899D01*
X0996799Y0749899D01*
X0995799D01*
X0996799D01*
X0997799Y0748899D01*
Y0747900D01*
X0996799Y0746900D01*
X0994800D01*
X0993800Y0747900D01*
X0999798Y0746900D02*
Y0747900D01*
X1000798D01*
Y0746900D01*
X0999798D01*
X1008795Y0752898D02*
X1004796D01*
Y0749899D01*
X1006796Y0750899D01*
X1007796D01*
X1008795Y0749899D01*
Y0747900D01*
X1007796Y0746900D01*
X1005796D01*
X1004796Y0747900D01*
X0996799Y0770900D02*
Y0776898D01*
X0993800Y0773899D01*
X0997799D01*
X0999798Y0770900D02*
Y0771900D01*
X1000798D01*
Y0770900D01*
X0999798D01*
X1008795D02*
X1004796D01*
X1008795Y0774899D01*
Y0775898D01*
X1007796Y0776898D01*
X1005796D01*
X1004796Y0775898D01*
X0996799Y0794900D02*
Y0800898D01*
X0993800Y0797899D01*
X0997799D01*
X0999798Y0794900D02*
Y0795900D01*
X1000798D01*
Y0794900D01*
X0999798D01*
X1008795D02*
X1004796D01*
X1008795Y0798899D01*
Y0799898D01*
X1007796Y0800898D01*
X1005796D01*
X1004796Y0799898D01*
X0996799Y0818900D02*
Y0824898D01*
X0993800Y0821899D01*
X0997799D01*
X0999798Y0818900D02*
Y0819900D01*
X1000798D01*
Y0818900D01*
X0999798D01*
X1008795D02*
X1004796D01*
X1008795Y0822899D01*
Y0823898D01*
X1007796Y0824898D01*
X1005796D01*
X1004796Y0823898D01*
X0993800Y0847898D02*
X0994800Y0848898D01*
X0996799D01*
X0997799Y0847898D01*
Y0846899D01*
X0996799Y0845899D01*
X0995799D01*
X0996799D01*
X0997799Y0844899D01*
Y0843900D01*
X0996799Y0842900D01*
X0994800D01*
X0993800Y0843900D01*
X0999798Y0842900D02*
Y0843900D01*
X1000798D01*
Y0842900D01*
X0999798D01*
X1008795Y0848898D02*
X1004796D01*
Y0845899D01*
X1006796Y0846899D01*
X1007796D01*
X1008795Y0845899D01*
Y0843900D01*
X1007796Y0842900D01*
X1005796D01*
X1004796Y0843900D01*
X1050786Y0872898D02*
Y0866900D01*
X1053785D01*
X1054785Y0867900D01*
Y0868899D01*
X1053785Y0869899D01*
X1050786D01*
X1053785D01*
X1054785Y0870899D01*
Y0871898D01*
X1053785Y0872898D01*
X1050786D01*
X1057784Y0866900D02*
X1059783D01*
X1060783Y0867900D01*
Y0869899D01*
X1059783Y0870899D01*
X1057784D01*
X1056784Y0869899D01*
Y0867900D01*
X1057784Y0866900D01*
X1063782Y0870899D02*
X1065781D01*
X1066781Y0869899D01*
Y0866900D01*
X1063782D01*
X1062782Y0867900D01*
X1063782Y0868899D01*
X1066781D01*
X1068780Y0870899D02*
Y0866900D01*
Y0868899D01*
X1069780Y0869899D01*
X1070780Y0870899D01*
X1071779D01*
X1078777Y0872898D02*
Y0866900D01*
X1075778D01*
X1074778Y0867900D01*
Y0869899D01*
X1075778Y0870899D01*
X1078777D01*
X1086775Y0872898D02*
Y0866900D01*
X1090773D01*
X1093772Y0870899D02*
X1095772D01*
X1096771Y0869899D01*
Y0866900D01*
X1093772D01*
X1092772Y0867900D01*
X1093772Y0868899D01*
X1096771D01*
X1098771Y0870899D02*
Y0867900D01*
X1099770Y0866900D01*
X1102769D01*
Y0865900D01*
X1101770Y0864900D01*
X1100770D01*
X1102769Y0866900D02*
Y0870899D01*
X1107768Y0866900D02*
X1105768D01*
X1104769Y0867900D01*
Y0869899D01*
X1105768Y0870899D01*
X1107768D01*
X1108767Y0869899D01*
Y0868899D01*
X1104769D01*
X1110767Y0870899D02*
Y0866900D01*
Y0868899D01*
X1111766Y0869899D01*
X1112766Y0870899D01*
X1113766D01*
X1126762Y0871898D02*
X1125762Y0872898D01*
X1123763D01*
X1122763Y0871898D01*
Y0870899D01*
X1123763Y0869899D01*
X1125762D01*
X1126762Y0868899D01*
Y0867900D01*
X1125762Y0866900D01*
X1123763D01*
X1122763Y0867900D01*
X1129760Y0871898D02*
Y0870899D01*
X1128761D01*
X1130760D01*
X1129760D01*
Y0867900D01*
X1130760Y0866900D01*
X1134759Y0870899D02*
X1136758D01*
X1137758Y0869899D01*
Y0866900D01*
X1134759D01*
X1133759Y0867900D01*
X1134759Y0868899D01*
X1137758D01*
X1143756Y0870899D02*
X1140757D01*
X1139757Y0869899D01*
Y0867900D01*
X1140757Y0866900D01*
X1143756D01*
X1145755D02*
Y0872898D01*
Y0868899D02*
X1148754Y0870899D01*
X1145755Y0868899D02*
X1148754Y0866900D01*
X0497200Y0080717D02*
Y0101050D01*
X0413200Y0080717D02*
Y0101050D01*
X0040000Y0080717D02*
X0700200D01*
X0040000Y0060383D02*
X0700000D01*
X0040000Y0040050D02*
X0440500D01*
X0040050Y0101050D02*
X0700200D01*
X0040050Y0040050D02*
Y0101050D01*
Y0040050D02*
X0197600D01*
X0040000D02*
Y0101050D01*
X0286500Y0040050D02*
Y0101050D01*
X0700200Y0040050D02*
Y0101050D01*
X0440500Y0040050D02*
X0700200D01*
X0559400Y0039400D02*
Y0059683D01*
G54D17*
X0126900Y0067551D02*
Y0073549D01*
X0128899Y0071549D01*
X0130899Y0073549D01*
Y0067551D01*
X0132898D02*
X0134897D01*
X0133898D01*
Y0073549D01*
X0132898Y0072549D01*
X0141895Y0067551D02*
X0137896D01*
X0141895Y0071549D01*
Y0072549D01*
X0140895Y0073549D01*
X0138896D01*
X0137896Y0072549D01*
X0153891D02*
X0152892Y0073549D01*
X0150892D01*
X0149893Y0072549D01*
Y0071549D01*
X0150892Y0070550D01*
X0152892D01*
X0153891Y0069550D01*
Y0068550D01*
X0152892Y0067551D01*
X0150892D01*
X0149893Y0068550D01*
X0156890Y0072549D02*
Y0071549D01*
X0155891D01*
X0157890D01*
X0156890D01*
Y0068550D01*
X0157890Y0067551D01*
X0161889Y0071549D02*
X0163888D01*
X0164888Y0070550D01*
Y0067551D01*
X0161889D01*
X0160889Y0068550D01*
X0161889Y0069550D01*
X0164888D01*
X0170886Y0071549D02*
X0167887D01*
X0166887Y0070550D01*
Y0068550D01*
X0167887Y0067551D01*
X0170886D01*
X0172885D02*
Y0073549D01*
Y0069550D02*
X0175884Y0071549D01*
X0172885Y0069550D02*
X0175884Y0067551D01*
X0178883Y0071549D02*
Y0068550D01*
X0179883Y0067551D01*
X0182882D01*
Y0071549D01*
X0184881Y0065551D02*
Y0071549D01*
X0187880D01*
X0188880Y0070550D01*
Y0068550D01*
X0187880Y0067551D01*
X0184881D01*
X0567400Y0087833D02*
Y0093831D01*
X0571399Y0087833D01*
Y0093831D01*
X0574398Y0087833D02*
X0576397D01*
X0577397Y0088833D01*
Y0090832D01*
X0576397Y0091832D01*
X0574398D01*
X0573398Y0090832D01*
Y0088833D01*
X0574398Y0087833D01*
X0580396Y0092832D02*
Y0091832D01*
X0579396D01*
X0581395D01*
X0580396D01*
Y0088833D01*
X0581395Y0087833D01*
X0590393Y0093831D02*
X0592392D01*
X0591392D01*
Y0087833D01*
X0590393D01*
X0592392D01*
X0595391D02*
Y0091832D01*
X0598390D01*
X0599390Y0090832D01*
Y0087833D01*
X0607387Y0093831D02*
Y0089833D01*
X0609386Y0087833D01*
X0611386Y0089833D01*
Y0093831D01*
X0616384Y0087833D02*
X0614385D01*
X0613385Y0088833D01*
Y0090832D01*
X0614385Y0091832D01*
X0616384D01*
X0617384Y0090832D01*
Y0089833D01*
X0613385D01*
X0619383Y0091832D02*
Y0087833D01*
Y0089833D01*
X0620383Y0090832D01*
X0621383Y0091832D01*
X0622382D01*
X0625381Y0087833D02*
X0628380D01*
X0629380Y0088833D01*
X0628380Y0089833D01*
X0626381D01*
X0625381Y0090832D01*
X0626381Y0091832D01*
X0629380D01*
X0631379Y0087833D02*
X0633379D01*
X0632379D01*
Y0091832D01*
X0631379D01*
X0637377Y0087833D02*
X0639377D01*
X0640376Y0088833D01*
Y0090832D01*
X0639377Y0091832D01*
X0637377D01*
X0636378Y0090832D01*
Y0088833D01*
X0637377Y0087833D01*
X0642376D02*
Y0091832D01*
X0645375D01*
X0646374Y0090832D01*
Y0087833D01*
X0652373Y0092832D02*
X0651373Y0093831D01*
X0649373D01*
X0648374Y0092832D01*
Y0088833D01*
X0649373Y0087833D01*
X0651373D01*
X0652373Y0088833D01*
X0655372Y0087833D02*
X0657371D01*
X0658371Y0088833D01*
Y0090832D01*
X0657371Y0091832D01*
X0655372D01*
X0654372Y0090832D01*
Y0088833D01*
X0655372Y0087833D01*
X0660370D02*
Y0091832D01*
X0663369D01*
X0664369Y0090832D01*
Y0087833D01*
X0667368Y0092832D02*
Y0091832D01*
X0666368D01*
X0668367D01*
X0667368D01*
Y0088833D01*
X0668367Y0087833D01*
X0671366Y0091832D02*
Y0087833D01*
Y0089833D01*
X0672366Y0090832D01*
X0673366Y0091832D01*
X0674365D01*
X0678364Y0087833D02*
X0680364D01*
X0681363Y0088833D01*
Y0090832D01*
X0680364Y0091832D01*
X0678364D01*
X0677364Y0090832D01*
Y0088833D01*
X0678364Y0087833D01*
X0683362D02*
X0685362D01*
X0684362D01*
Y0093831D01*
X0683362D01*
X0520799Y0092832D02*
X0519799Y0093831D01*
X0517800D01*
X0516800Y0092832D01*
Y0091832D01*
X0517800Y0090832D01*
X0519799D01*
X0520799Y0089833D01*
Y0088833D01*
X0519799Y0087833D01*
X0517800D01*
X0516800Y0088833D01*
X0522798Y0093831D02*
Y0089833D01*
X0524797Y0087833D01*
X0526797Y0089833D01*
Y0093831D01*
X0528796Y0087833D02*
Y0093831D01*
X0532795Y0087833D01*
Y0093831D01*
X0540792Y0087833D02*
Y0093831D01*
X0543791D01*
X0544791Y0092832D01*
Y0090832D01*
X0543791Y0089833D01*
X0540792D01*
X0542792D02*
X0544791Y0087833D01*
X0550789Y0093831D02*
X0546790D01*
Y0087833D01*
X0550789D01*
X0546790Y0090832D02*
X0548790D01*
X0552788Y0093831D02*
Y0089833D01*
X0554788Y0087833D01*
X0556787Y0089833D01*
Y0093831D01*
X0558786Y0091832D02*
X0559786D01*
Y0090832D01*
X0558786D01*
Y0091832D01*
Y0088833D02*
X0559786D01*
Y0087833D01*
X0558786D01*
Y0088833D01*
X0433000Y0087833D02*
Y0093831D01*
X0435999D01*
X0436999Y0092832D01*
Y0090832D01*
X0435999Y0089833D01*
X0433000D01*
X0434999D02*
X0436999Y0087833D01*
X0442997Y0093831D02*
X0438998D01*
Y0087833D01*
X0442997D01*
X0438998Y0090832D02*
X0440997D01*
X0444996Y0093831D02*
Y0089833D01*
X0446995Y0087833D01*
X0448995Y0089833D01*
Y0093831D01*
X0450994Y0091832D02*
X0451994D01*
Y0090832D01*
X0450994D01*
Y0091832D01*
Y0088833D02*
X0451994D01*
Y0087833D01*
X0450994D01*
Y0088833D01*
X0126900Y0052965D02*
Y0046966D01*
Y0049966D01*
X0130899D01*
Y0052965D01*
Y0046966D01*
X0132898Y0052965D02*
Y0048966D01*
X0134897Y0046966D01*
X0136897Y0048966D01*
Y0052965D01*
X0138896Y0046966D02*
Y0052965D01*
X0141895D01*
X0142895Y0051965D01*
Y0049966D01*
X0141895Y0048966D01*
X0138896D01*
X0144894Y0051965D02*
X0145894Y0052965D01*
X0147893D01*
X0148893Y0051965D01*
Y0047966D01*
X0147893Y0046966D01*
X0145894D01*
X0144894Y0047966D01*
Y0051965D01*
X0150892Y0046966D02*
X0152892D01*
X0151892D01*
Y0052965D01*
X0150892Y0051965D01*
X0159889Y0046966D02*
X0155891D01*
X0159889Y0050965D01*
Y0051965D01*
X0158890Y0052965D01*
X0156890D01*
X0155891Y0051965D01*
X0161889Y0046966D02*
Y0050965D01*
X0163888Y0052965D01*
X0165887Y0050965D01*
Y0046966D01*
Y0049966D01*
X0161889D01*
X0167887Y0046966D02*
Y0047966D01*
X0168886D01*
Y0046966D01*
X0167887D01*
X0176884Y0051965D02*
X0175884Y0052965D01*
X0173885D01*
X0172885Y0051965D01*
Y0047966D01*
X0173885Y0046966D01*
X0175884D01*
X0176884Y0047966D01*
Y0049966D01*
X0174884D01*
X0178883Y0046966D02*
Y0052965D01*
X0180883Y0050965D01*
X0182882Y0052965D01*
Y0046966D01*
X0184881D02*
X0186881D01*
X0185881D01*
Y0052965D01*
X0184881Y0051965D01*
X0193878Y0046966D02*
X0189880D01*
X0193878Y0050965D01*
Y0051965D01*
X0192879Y0052965D01*
X0190879D01*
X0189880Y0051965D01*
X0384149Y0046966D02*
Y0052965D01*
X0381150Y0049966D01*
X0385149D01*
X0387148Y0046966D02*
X0391147Y0050965D01*
X0393146Y0051965D02*
X0394146Y0052965D01*
X0396145D01*
X0397145Y0051965D01*
Y0050965D01*
X0396145Y0049966D01*
X0397145Y0048966D01*
Y0047966D01*
X0396145Y0046966D01*
X0394146D01*
X0393146Y0047966D01*
Y0048966D01*
X0394146Y0049966D01*
X0393146Y0050965D01*
Y0051965D01*
X0394146Y0049966D02*
X0396145D01*
X0399144Y0046966D02*
X0403143Y0050965D01*
X0409141Y0046966D02*
X0405142D01*
X0409141Y0050965D01*
Y0051965D01*
X0408141Y0052965D01*
X0406142D01*
X0405142Y0051965D01*
X0411140D02*
X0412140Y0052965D01*
X0414139D01*
X0415139Y0051965D01*
Y0047966D01*
X0414139Y0046966D01*
X0412140D01*
X0411140Y0047966D01*
Y0051965D01*
X0417138Y0046966D02*
X0419138D01*
X0418138D01*
Y0052965D01*
X0417138Y0051965D01*
X0422137Y0047966D02*
X0423136Y0046966D01*
X0425136D01*
X0426135Y0047966D01*
Y0051965D01*
X0425136Y0052965D01*
X0423136D01*
X0422137Y0051965D01*
Y0050965D01*
X0423136Y0049966D01*
X0426135D01*
X0298199Y0051965D02*
X0297199Y0052965D01*
X0295200D01*
X0294200Y0051965D01*
Y0047966D01*
X0295200Y0046966D01*
X0297199D01*
X0298199Y0047966D01*
Y0049966D01*
X0296199D01*
X0304197Y0052965D02*
X0300198D01*
Y0046966D01*
X0304197D01*
X0300198Y0049966D02*
X0302197D01*
X0306196Y0046966D02*
Y0052965D01*
X0310195Y0046966D01*
Y0052965D01*
X0316193D02*
X0312194D01*
Y0046966D01*
X0316193D01*
X0312194Y0049966D02*
X0314194D01*
X0318192Y0046966D02*
Y0052965D01*
X0321191D01*
X0322191Y0051965D01*
Y0049966D01*
X0321191Y0048966D01*
X0318192D01*
X0320192D02*
X0322191Y0046966D01*
X0324190D02*
Y0050965D01*
X0326190Y0052965D01*
X0328189Y0050965D01*
Y0046966D01*
Y0049966D01*
X0324190D01*
X0330188Y0052965D02*
X0334187D01*
X0332188D01*
Y0046966D01*
X0340185Y0052965D02*
X0336186D01*
Y0046966D01*
X0340185D01*
X0336186Y0049966D02*
X0338186D01*
X0342184Y0052965D02*
Y0046966D01*
X0345183D01*
X0346183Y0047966D01*
Y0051965D01*
X0345183Y0052965D01*
X0342184D01*
X0372175Y0050965D02*
X0373175D01*
Y0049966D01*
X0372175D01*
Y0050965D01*
Y0047966D02*
X0373175D01*
Y0046966D01*
X0372175D01*
Y0047966D01*
X0046350Y0087833D02*
Y0091832D01*
X0048349Y0093831D01*
X0050349Y0091832D01*
Y0087833D01*
Y0090832D01*
X0046350D01*
X0052348Y0093831D02*
Y0087833D01*
X0056347D01*
X0058346Y0093831D02*
Y0087833D01*
X0062345D01*
X0070342D02*
Y0091832D01*
X0072342Y0093831D01*
X0074341Y0091832D01*
Y0087833D01*
Y0090832D01*
X0070342D01*
X0076340Y0087833D02*
Y0093831D01*
X0079339D01*
X0080339Y0092832D01*
Y0090832D01*
X0079339Y0089833D01*
X0076340D01*
X0078340D02*
X0080339Y0087833D01*
X0082338Y0093831D02*
X0086337D01*
X0084338D01*
Y0087833D01*
X0088336Y0093831D02*
Y0087833D01*
X0090336Y0089833D01*
X0092335Y0087833D01*
Y0093831D01*
X0097334D02*
X0095334D01*
X0094335Y0092832D01*
Y0088833D01*
X0095334Y0087833D01*
X0097334D01*
X0098333Y0088833D01*
Y0092832D01*
X0097334Y0093831D01*
X0100332Y0087833D02*
Y0093831D01*
X0103332D01*
X0104331Y0092832D01*
Y0090832D01*
X0103332Y0089833D01*
X0100332D01*
X0102332D02*
X0104331Y0087833D01*
X0106331Y0093831D02*
Y0087833D01*
Y0089833D01*
X0110329Y0093831D01*
X0107330Y0090832D01*
X0110329Y0087833D01*
X0118327Y0093831D02*
Y0089833D01*
X0120326Y0087833D01*
X0122325Y0089833D01*
Y0093831D01*
X0124325D02*
X0126324D01*
X0125324D01*
Y0087833D01*
X0124325D01*
X0126324D01*
X0133322Y0093831D02*
X0129323D01*
Y0087833D01*
X0133322D01*
X0129323Y0090832D02*
X0131323D01*
X0135321Y0093831D02*
Y0087833D01*
X0137321Y0089833D01*
X0139320Y0087833D01*
Y0093831D01*
X0145318D02*
X0141319D01*
Y0087833D01*
X0145318D01*
X0141319Y0090832D02*
X0143319D01*
X0147317Y0093831D02*
Y0087833D01*
X0150316D01*
X0151316Y0088833D01*
Y0092832D01*
X0150316Y0093831D01*
X0147317D01*
X0163312D02*
X0159313D01*
Y0090832D01*
X0161313D01*
X0159313D01*
Y0087833D01*
X0165312D02*
Y0093831D01*
X0168310D01*
X0169310Y0092832D01*
Y0090832D01*
X0168310Y0089833D01*
X0165312D01*
X0167311D02*
X0169310Y0087833D01*
X0174309Y0093831D02*
X0172309D01*
X0171310Y0092832D01*
Y0088833D01*
X0172309Y0087833D01*
X0174309D01*
X0175308Y0088833D01*
Y0092832D01*
X0174309Y0093831D01*
X0177308Y0087833D02*
Y0093831D01*
X0179307Y0091832D01*
X0181306Y0093831D01*
Y0087833D01*
X0189304Y0093831D02*
X0193303D01*
X0191303D01*
Y0087833D01*
X0198301Y0093831D02*
X0196301D01*
X0195302Y0092832D01*
Y0088833D01*
X0196301Y0087833D01*
X0198301D01*
X0199301Y0088833D01*
Y0092832D01*
X0198301Y0093831D01*
X0201300Y0087833D02*
Y0093831D01*
X0204299D01*
X0205299Y0092832D01*
Y0090832D01*
X0204299Y0089833D01*
X0201300D01*
X0217295Y0092832D02*
X0216295Y0093831D01*
X0214296D01*
X0213296Y0092832D01*
Y0091832D01*
X0214296Y0090832D01*
X0216295D01*
X0217295Y0089833D01*
Y0088833D01*
X0216295Y0087833D01*
X0214296D01*
X0213296Y0088833D01*
X0219294Y0093831D02*
X0221293D01*
X0220294D01*
Y0087833D01*
X0219294D01*
X0221293D01*
X0224292Y0093831D02*
Y0087833D01*
X0227291D01*
X0228291Y0088833D01*
Y0092832D01*
X0227291Y0093831D01*
X0224292D01*
X0234289D02*
X0230291D01*
Y0087833D01*
X0234289D01*
X0230291Y0090832D02*
X0232290D01*
X0462150Y0087833D02*
Y0091832D01*
X0464149Y0093831D01*
X0466149Y0091832D01*
Y0087833D01*
Y0090832D01*
X0462150D01*
X0348550Y0093831D02*
Y0087833D01*
Y0090832D01*
X0352549D01*
Y0093831D01*
Y0087833D01*
X0354548Y0093831D02*
Y0089833D01*
X0356547Y0087833D01*
X0358547Y0089833D01*
Y0093831D01*
X0360546Y0087833D02*
Y0093831D01*
X0363545D01*
X0364545Y0092832D01*
Y0090832D01*
X0363545Y0089833D01*
X0360546D01*
X0366544Y0092832D02*
X0367544Y0093831D01*
X0369543D01*
X0370543Y0092832D01*
Y0088833D01*
X0369543Y0087833D01*
X0367544D01*
X0366544Y0088833D01*
Y0092832D01*
X0372542Y0087833D02*
X0374542D01*
X0373542D01*
Y0093831D01*
X0372542Y0092832D01*
X0381539Y0087833D02*
X0377541D01*
X0381539Y0091832D01*
Y0092832D01*
X0380540Y0093831D01*
X0378540D01*
X0377541Y0092832D01*
X0294000Y0093831D02*
Y0087833D01*
X0296999D01*
X0297999Y0088833D01*
Y0089833D01*
X0296999Y0090832D01*
X0294000D01*
X0296999D01*
X0297999Y0091832D01*
Y0092832D01*
X0296999Y0093831D01*
X0294000D01*
X0302997D02*
X0300998D01*
X0299998Y0092832D01*
Y0088833D01*
X0300998Y0087833D01*
X0302997D01*
X0303997Y0088833D01*
Y0092832D01*
X0302997Y0093831D01*
X0305996Y0087833D02*
Y0091832D01*
X0307996Y0093831D01*
X0309995Y0091832D01*
Y0087833D01*
Y0090832D01*
X0305996D01*
X0311994Y0087833D02*
Y0093831D01*
X0314993D01*
X0315993Y0092832D01*
Y0090832D01*
X0314993Y0089833D01*
X0311994D01*
X0313994D02*
X0315993Y0087833D01*
X0317992Y0093831D02*
Y0087833D01*
X0320991D01*
X0321991Y0088833D01*
Y0092832D01*
X0320991Y0093831D01*
X0317992D01*
X0330988Y0087833D02*
Y0093831D01*
X0332987D02*
Y0087833D01*
X0329988Y0091832D02*
X0332987D01*
X0333987D01*
X0329988Y0089833D02*
X0333987D01*
X0335986Y0091832D02*
X0336986D01*
Y0090832D01*
X0335986D01*
Y0091832D01*
Y0088833D02*
X0336986D01*
Y0087833D01*
X0335986D01*
Y0088833D01*
X0046350Y0073549D02*
Y0067551D01*
X0050349D01*
X0052348D02*
Y0071549D01*
X0054347Y0073549D01*
X0056347Y0071549D01*
Y0067551D01*
Y0070550D01*
X0052348D01*
X0058346Y0073549D02*
Y0072549D01*
X0060346Y0070550D01*
X0062345Y0072549D01*
Y0073549D01*
X0060346Y0070550D02*
Y0067551D01*
X0068343Y0073549D02*
X0064344D01*
Y0067551D01*
X0068343D01*
X0064344Y0070550D02*
X0066343D01*
X0070342Y0067551D02*
Y0073549D01*
X0073341D01*
X0074341Y0072549D01*
Y0070550D01*
X0073341Y0069550D01*
X0070342D01*
X0072342D02*
X0074341Y0067551D01*
X0082338D02*
Y0073549D01*
X0086337Y0067551D01*
Y0073549D01*
X0088336Y0067551D02*
Y0071549D01*
X0090336Y0073549D01*
X0092335Y0071549D01*
Y0067551D01*
Y0070550D01*
X0088336D01*
X0094335Y0067551D02*
Y0073549D01*
X0096334Y0071549D01*
X0098333Y0073549D01*
Y0067551D01*
X0104331Y0073549D02*
X0100332D01*
Y0067551D01*
X0104331D01*
X0100332Y0070550D02*
X0102332D01*
X0112329Y0069550D02*
X0116327D01*
X0112329Y0071549D02*
X0116327D01*
X0046350Y0046966D02*
Y0052965D01*
X0049349D01*
X0050349Y0051965D01*
Y0049966D01*
X0049349Y0048966D01*
X0046350D01*
X0052348Y0052965D02*
Y0046966D01*
X0056347D01*
X0061345Y0052965D02*
X0059346D01*
X0058346Y0051965D01*
Y0047966D01*
X0059346Y0046966D01*
X0061345D01*
X0062345Y0047966D01*
Y0051965D01*
X0061345Y0052965D01*
X0064344D02*
X0068343D01*
X0066343D01*
Y0046966D01*
X0076340D02*
Y0052965D01*
X0080339Y0046966D01*
Y0052965D01*
X0082338Y0046966D02*
Y0050965D01*
X0084338Y0052965D01*
X0086337Y0050965D01*
Y0046966D01*
Y0049966D01*
X0082338D01*
X0088336Y0046966D02*
Y0052965D01*
X0090336Y0050965D01*
X0092335Y0052965D01*
Y0046966D01*
X0098333Y0052965D02*
X0094335D01*
Y0046966D01*
X0098333D01*
X0094335Y0049966D02*
X0096334D01*
X0106331Y0048966D02*
X0110329D01*
X0106331Y0050965D02*
X0110329D01*
X0454050Y0051965D02*
X0455050Y0052965D01*
X0457049D01*
X0458049Y0051965D01*
Y0050965D01*
X0457049Y0049966D01*
X0456049D01*
X0457049D01*
X0458049Y0048966D01*
Y0047966D01*
X0457049Y0046966D01*
X0455050D01*
X0454050Y0047966D01*
X0460048Y0050965D02*
X0461048D01*
Y0049966D01*
X0460048D01*
Y0050965D01*
Y0047966D02*
X0461048D01*
Y0046966D01*
X0460048D01*
Y0047966D01*
X0469045Y0046966D02*
X0465046D01*
X0469045Y0050965D01*
Y0051965D01*
X0468046Y0052965D01*
X0466046D01*
X0465046Y0051965D01*
X0471044Y0047966D02*
X0472044Y0046966D01*
X0474044D01*
X0475043Y0047966D01*
Y0051965D01*
X0474044Y0052965D01*
X0472044D01*
X0471044Y0051965D01*
Y0050965D01*
X0472044Y0049966D01*
X0475043D01*
X0477043Y0050965D02*
X0478042D01*
Y0049966D01*
X0477043D01*
Y0050965D01*
Y0047966D02*
X0478042D01*
Y0046966D01*
X0477043D01*
Y0047966D01*
X0486040Y0052965D02*
X0482041D01*
Y0049966D01*
X0484040Y0050965D01*
X0485040D01*
X0486040Y0049966D01*
Y0047966D01*
X0485040Y0046966D01*
X0483041D01*
X0482041Y0047966D01*
X0491038Y0046966D02*
Y0052965D01*
X0488039Y0049966D01*
X0492038D01*
X0500035Y0046966D02*
Y0052965D01*
X0503034D01*
X0504034Y0051965D01*
Y0049966D01*
X0503034Y0048966D01*
X0500035D01*
X0506033Y0046966D02*
Y0052965D01*
X0508033Y0050965D01*
X0510032Y0052965D01*
Y0046966D01*
X0580500Y0052965D02*
X0584499D01*
X0582499D01*
Y0046966D01*
X0590497Y0052965D02*
X0586498D01*
Y0046966D01*
X0590497D01*
X0586498Y0049966D02*
X0588497D01*
X0592496Y0052965D02*
X0596495Y0046966D01*
Y0052965D02*
X0592496Y0046966D01*
X0598494D02*
Y0050965D01*
X0600493Y0052965D01*
X0602493Y0050965D01*
Y0046966D01*
Y0049966D01*
X0598494D01*
X0608491Y0051965D02*
X0607491Y0052965D01*
X0605492D01*
X0604492Y0051965D01*
Y0050965D01*
X0605492Y0049966D01*
X0607491D01*
X0608491Y0048966D01*
Y0047966D01*
X0607491Y0046966D01*
X0605492D01*
X0604492Y0047966D01*
X0616488Y0052965D02*
X0618488D01*
X0617488D01*
Y0046966D01*
X0616488D01*
X0618488D01*
X0621487D02*
Y0052965D01*
X0625486Y0046966D01*
Y0052965D01*
X0631484Y0051965D02*
X0630484Y0052965D01*
X0628484D01*
X0627485Y0051965D01*
Y0050965D01*
X0628484Y0049966D01*
X0630484D01*
X0631484Y0048966D01*
Y0047966D01*
X0630484Y0046966D01*
X0628484D01*
X0627485Y0047966D01*
X0633483Y0052965D02*
X0637482D01*
X0635482D01*
Y0046966D01*
X0639481D02*
Y0052965D01*
X0642480D01*
X0643480Y0051965D01*
Y0049966D01*
X0642480Y0048966D01*
X0639481D01*
X0641480D02*
X0643480Y0046966D01*
X0645479Y0052965D02*
Y0047966D01*
X0646479Y0046966D01*
X0648478D01*
X0649478Y0047966D01*
Y0052965D01*
X0651477Y0046966D02*
Y0052965D01*
X0653476Y0050965D01*
X0655476Y0052965D01*
Y0046966D01*
X0661474Y0052965D02*
X0657475D01*
Y0046966D01*
X0661474D01*
X0657475Y0049966D02*
X0659474D01*
X0663473Y0046966D02*
Y0052965D01*
X0667472Y0046966D01*
Y0052965D01*
X0669471D02*
X0673470D01*
X0671471D01*
Y0046966D01*
X0679468Y0051965D02*
X0678468Y0052965D01*
X0676469D01*
X0675469Y0051965D01*
Y0050965D01*
X0676469Y0049966D01*
X0678468D01*
X0679468Y0048966D01*
Y0047966D01*
X0678468Y0046966D01*
X0676469D01*
X0675469Y0047966D01*
G54D102*
X0702874Y0863900D02*
X1156754D01*
X0702874Y0875900D02*
X1156754D01*
X0702874Y0731900D02*
Y0875900D01*
Y0731900D02*
X0743865D01*
X0702874Y0743900D02*
X0743865D01*
X0702874Y0755900D02*
X0743865D01*
X0702874Y0767900D02*
X0743865D01*
X0702874Y0779900D02*
X0743865D01*
X0702874Y0791900D02*
X0743865D01*
X0702874Y0803900D02*
X0743865D01*
X0702874Y0815900D02*
X0743865D01*
X0702874Y0827900D02*
X0743865D01*
X0702874Y0839900D02*
X0743865D01*
X0702874Y0851900D02*
X0743865D01*
Y0731900D02*
Y0875900D01*
Y0731900D02*
X0836840D01*
X0743865Y0743900D02*
X0836840D01*
X0743865Y0755900D02*
X0836840D01*
X0743865Y0767900D02*
X0836840D01*
X0743865Y0779900D02*
X0836840D01*
X0743865Y0791900D02*
X0836840D01*
X0743865Y0803900D02*
X0836840D01*
X0743865Y0815900D02*
X0836840D01*
X0743865Y0827900D02*
X0836840D01*
X0743865Y0839900D02*
X0836840D01*
X0743865Y0851900D02*
X0836840D01*
Y0731900D02*
Y0875900D01*
Y0731900D02*
X0922816D01*
X0836840Y0743900D02*
X0922816D01*
X0836840Y0755900D02*
X0922816D01*
X0836840Y0767900D02*
X0922816D01*
X0836840Y0779900D02*
X0922816D01*
X0836840Y0791900D02*
X0922816D01*
X0836840Y0803900D02*
X0922816D01*
X0836840Y0815900D02*
X0922816D01*
X0836840Y0827900D02*
X0922816D01*
X0836840Y0839900D02*
X0922816D01*
X0836840Y0851900D02*
X0922816D01*
Y0731900D02*
Y0875900D01*
Y0731900D02*
X0987800D01*
X0922816Y0743900D02*
X0987800D01*
X0922816Y0755900D02*
X0987800D01*
X0922816Y0767900D02*
X0987800D01*
X0922816Y0779900D02*
X0987800D01*
X0922816Y0791900D02*
X0987800D01*
X0922816Y0803900D02*
X0987800D01*
X0922816Y0815900D02*
X0987800D01*
X0922816Y0827900D02*
X0987800D01*
X0922816Y0839900D02*
X0987800D01*
X0922816Y0851900D02*
X0987800D01*
Y0731900D02*
Y0875900D01*
Y0731900D02*
X1044786D01*
X0987800Y0743900D02*
X1044786D01*
X0987800Y0755900D02*
X1044786D01*
X0987800Y0767900D02*
X1044786D01*
X0987800Y0779900D02*
X1044786D01*
X0987800Y0791900D02*
X1044786D01*
X0987800Y0803900D02*
X1044786D01*
X0987800Y0815900D02*
X1044786D01*
X0987800Y0827900D02*
X1044786D01*
X0987800Y0839900D02*
X1044786D01*
X0987800Y0851900D02*
X1044786D01*
Y0731900D02*
Y0875900D01*
Y0731900D02*
X1156754D01*
X1044786Y0743900D02*
X1156754D01*
X1044786Y0755900D02*
X1156754D01*
X1044786Y0767900D02*
X1156754D01*
X1044786Y0779900D02*
X1156754D01*
X1044786Y0791900D02*
X1156754D01*
X1044786Y0803900D02*
X1156754D01*
X1044786Y0815900D02*
X1156754D01*
X1044786Y0827900D02*
X1156754D01*
X1044786Y0839900D02*
X1156754D01*
X1044786Y0851900D02*
X1156754D01*
Y0731900D02*
Y0875900D01*
G54D135*
X1150754Y0731900D02*
X1156754Y0737900D01*
X1144754Y0731900D02*
X1156754Y0743900D01*
X1138754Y0731900D02*
X1150754Y0743900D01*
X1132754Y0731900D02*
X1144754Y0743900D01*
X1126754Y0731900D02*
X1138754Y0743900D01*
X1120754Y0731900D02*
X1132754Y0743900D01*
X1114754Y0731900D02*
X1126754Y0743900D01*
X1108754Y0731900D02*
X1120754Y0743900D01*
X1102754Y0731900D02*
X1114754Y0743900D01*
X1096754Y0731900D02*
X1108754Y0743900D01*
X1090754Y0731900D02*
X1102754Y0743900D01*
X1084754Y0731900D02*
X1096754Y0743900D01*
X1078754Y0731900D02*
X1090754Y0743900D01*
X1072754Y0731900D02*
X1084754Y0743900D01*
X1066754Y0731900D02*
X1078754Y0743900D01*
X1060754Y0731900D02*
X1072754Y0743900D01*
X1054754Y0731900D02*
X1066754Y0743900D01*
X1048754Y0731900D02*
X1060754Y0743900D01*
X1044786Y0733932D02*
X1054754Y0743900D01*
X1044786Y0739932D02*
X1048754Y0743900D01*
X1150754D02*
X1156754Y0749900D01*
X1144754Y0743900D02*
X1156754Y0755900D01*
X1138754Y0743900D02*
X1150754Y0755900D01*
X1132754Y0743900D02*
X1144754Y0755900D01*
X1126754Y0743900D02*
X1138754Y0755900D01*
X1120754Y0743900D02*
X1132754Y0755900D01*
X1114754Y0743900D02*
X1126754Y0755900D01*
X1108754Y0743900D02*
X1120754Y0755900D01*
X1102754Y0743900D02*
X1114754Y0755900D01*
X1096754Y0743900D02*
X1108754Y0755900D01*
X1090754Y0743900D02*
X1102754Y0755900D01*
X1084754Y0743900D02*
X1096754Y0755900D01*
X1078754Y0743900D02*
X1090754Y0755900D01*
X1072754Y0743900D02*
X1084754Y0755900D01*
X1066754Y0743900D02*
X1078754Y0755900D01*
X1060754Y0743900D02*
X1072754Y0755900D01*
X1054754Y0743900D02*
X1066754Y0755900D01*
X1048754Y0743900D02*
X1060754Y0755900D01*
X1044786Y0745932D02*
X1054754Y0755900D01*
X1044786Y0751932D02*
X1048754Y0755900D01*
X1150754D02*
X1156754Y0761900D01*
X1144754Y0755900D02*
X1156754Y0767900D01*
X1138754Y0755900D02*
X1150754Y0767900D01*
X1132754Y0755900D02*
X1144754Y0767900D01*
X1126754Y0755900D02*
X1138754Y0767900D01*
X1120754Y0755900D02*
X1132754Y0767900D01*
X1114754Y0755900D02*
X1126754Y0767900D01*
X1108754Y0755900D02*
X1120754Y0767900D01*
X1102754Y0755900D02*
X1114754Y0767900D01*
X1096754Y0755900D02*
X1108754Y0767900D01*
X1090754Y0755900D02*
X1102754Y0767900D01*
X1084754Y0755900D02*
X1096754Y0767900D01*
X1078754Y0755900D02*
X1090754Y0767900D01*
X1072754Y0755900D02*
X1084754Y0767900D01*
X1066754Y0755900D02*
X1078754Y0767900D01*
X1060754Y0755900D02*
X1072754Y0767900D01*
X1054754Y0755900D02*
X1066754Y0767900D01*
X1048754Y0755900D02*
X1060754Y0767900D01*
X1044786Y0757932D02*
X1054754Y0767900D01*
X1044786Y0763932D02*
X1048754Y0767900D01*
X1150754D02*
X1156754Y0773900D01*
X1144754Y0767900D02*
X1156754Y0779900D01*
X1138754Y0767900D02*
X1150754Y0779900D01*
X1132754Y0767900D02*
X1144754Y0779900D01*
X1126754Y0767900D02*
X1138754Y0779900D01*
X1120754Y0767900D02*
X1132754Y0779900D01*
X1114754Y0767900D02*
X1126754Y0779900D01*
X1108754Y0767900D02*
X1120754Y0779900D01*
X1102754Y0767900D02*
X1114754Y0779900D01*
X1096754Y0767900D02*
X1108754Y0779900D01*
X1090754Y0767900D02*
X1102754Y0779900D01*
X1084754Y0767900D02*
X1096754Y0779900D01*
X1078754Y0767900D02*
X1090754Y0779900D01*
X1072754Y0767900D02*
X1084754Y0779900D01*
X1066754Y0767900D02*
X1078754Y0779900D01*
X1060754Y0767900D02*
X1072754Y0779900D01*
X1054754Y0767900D02*
X1066754Y0779900D01*
X1048754Y0767900D02*
X1060754Y0779900D01*
X1044786Y0769932D02*
X1054754Y0779900D01*
X1044786Y0775932D02*
X1048754Y0779900D01*
X1150754D02*
X1156754Y0785900D01*
X1144754Y0779900D02*
X1156754Y0791900D01*
X1138754Y0779900D02*
X1150754Y0791900D01*
X1132754Y0779900D02*
X1144754Y0791900D01*
X1126754Y0779900D02*
X1138754Y0791900D01*
X1120754Y0779900D02*
X1132754Y0791900D01*
X1114754Y0779900D02*
X1126754Y0791900D01*
X1108754Y0779900D02*
X1120754Y0791900D01*
X1102754Y0779900D02*
X1114754Y0791900D01*
X1096754Y0779900D02*
X1108754Y0791900D01*
X1090754Y0779900D02*
X1102754Y0791900D01*
X1084754Y0779900D02*
X1096754Y0791900D01*
X1078754Y0779900D02*
X1090754Y0791900D01*
X1072754Y0779900D02*
X1084754Y0791900D01*
X1066754Y0779900D02*
X1078754Y0791900D01*
X1060754Y0779900D02*
X1072754Y0791900D01*
X1054754Y0779900D02*
X1066754Y0791900D01*
X1048754Y0779900D02*
X1060754Y0791900D01*
X1044786Y0781932D02*
X1054754Y0791900D01*
X1044786Y0787932D02*
X1048754Y0791900D01*
X1150754D02*
X1156754Y0797900D01*
X1144754Y0791900D02*
X1156754Y0803900D01*
X1138754Y0791900D02*
X1150754Y0803900D01*
X1132754Y0791900D02*
X1144754Y0803900D01*
X1126754Y0791900D02*
X1138754Y0803900D01*
X1120754Y0791900D02*
X1132754Y0803900D01*
X1114754Y0791900D02*
X1126754Y0803900D01*
X1108754Y0791900D02*
X1120754Y0803900D01*
X1102754Y0791900D02*
X1114754Y0803900D01*
X1096754Y0791900D02*
X1108754Y0803900D01*
X1090754Y0791900D02*
X1102754Y0803900D01*
X1084754Y0791900D02*
X1096754Y0803900D01*
X1078754Y0791900D02*
X1090754Y0803900D01*
X1072754Y0791900D02*
X1084754Y0803900D01*
X1066754Y0791900D02*
X1078754Y0803900D01*
X1060754Y0791900D02*
X1072754Y0803900D01*
X1054754Y0791900D02*
X1066754Y0803900D01*
X1048754Y0791900D02*
X1060754Y0803900D01*
X1044786Y0793932D02*
X1054754Y0803900D01*
X1044786Y0799932D02*
X1048754Y0803900D01*
X1150754D02*
X1156754Y0809900D01*
X1144754Y0803900D02*
X1156754Y0815900D01*
X1138754Y0803900D02*
X1150754Y0815900D01*
X1132754Y0803900D02*
X1144754Y0815900D01*
X1126754Y0803900D02*
X1138754Y0815900D01*
X1120754Y0803900D02*
X1132754Y0815900D01*
X1114754Y0803900D02*
X1126754Y0815900D01*
X1108754Y0803900D02*
X1120754Y0815900D01*
X1102754Y0803900D02*
X1114754Y0815900D01*
X1096754Y0803900D02*
X1108754Y0815900D01*
X1090754Y0803900D02*
X1102754Y0815900D01*
X1084754Y0803900D02*
X1096754Y0815900D01*
X1078754Y0803900D02*
X1090754Y0815900D01*
X1072754Y0803900D02*
X1084754Y0815900D01*
X1066754Y0803900D02*
X1078754Y0815900D01*
X1060754Y0803900D02*
X1072754Y0815900D01*
X1054754Y0803900D02*
X1066754Y0815900D01*
X1048754Y0803900D02*
X1060754Y0815900D01*
X1044786Y0805932D02*
X1054754Y0815900D01*
X1044786Y0811932D02*
X1048754Y0815900D01*
X1150754D02*
X1156754Y0821900D01*
X1144754Y0815900D02*
X1156754Y0827900D01*
X1138754Y0815900D02*
X1150754Y0827900D01*
X1132754Y0815900D02*
X1144754Y0827900D01*
X1126754Y0815900D02*
X1138754Y0827900D01*
X1120754Y0815900D02*
X1132754Y0827900D01*
X1114754Y0815900D02*
X1126754Y0827900D01*
X1108754Y0815900D02*
X1120754Y0827900D01*
X1102754Y0815900D02*
X1114754Y0827900D01*
X1096754Y0815900D02*
X1108754Y0827900D01*
X1090754Y0815900D02*
X1102754Y0827900D01*
X1084754Y0815900D02*
X1096754Y0827900D01*
X1078754Y0815900D02*
X1090754Y0827900D01*
X1072754Y0815900D02*
X1084754Y0827900D01*
X1066754Y0815900D02*
X1078754Y0827900D01*
X1060754Y0815900D02*
X1072754Y0827900D01*
X1054754Y0815900D02*
X1066754Y0827900D01*
X1048754Y0815900D02*
X1060754Y0827900D01*
X1044786Y0817932D02*
X1054754Y0827900D01*
X1044786Y0823932D02*
X1048754Y0827900D01*
X1150754D02*
X1156754Y0833900D01*
X1144754Y0827900D02*
X1156754Y0839900D01*
X1138754Y0827900D02*
X1150754Y0839900D01*
X1132754Y0827900D02*
X1144754Y0839900D01*
X1126754Y0827900D02*
X1138754Y0839900D01*
X1120754Y0827900D02*
X1132754Y0839900D01*
X1114754Y0827900D02*
X1126754Y0839900D01*
X1108754Y0827900D02*
X1120754Y0839900D01*
X1102754Y0827900D02*
X1114754Y0839900D01*
X1096754Y0827900D02*
X1108754Y0839900D01*
X1090754Y0827900D02*
X1102754Y0839900D01*
X1084754Y0827900D02*
X1096754Y0839900D01*
X1078754Y0827900D02*
X1090754Y0839900D01*
X1072754Y0827900D02*
X1084754Y0839900D01*
X1066754Y0827900D02*
X1078754Y0839900D01*
X1060754Y0827900D02*
X1072754Y0839900D01*
X1054754Y0827900D02*
X1066754Y0839900D01*
X1048754Y0827900D02*
X1060754Y0839900D01*
X1044786Y0829932D02*
X1054754Y0839900D01*
X1044786Y0835932D02*
X1048754Y0839900D01*
X1150754D02*
X1156754Y0845900D01*
X1144754Y0839900D02*
X1156754Y0851900D01*
X1138754Y0839900D02*
X1150754Y0851900D01*
X1132754Y0839900D02*
X1144754Y0851900D01*
X1126754Y0839900D02*
X1138754Y0851900D01*
X1120754Y0839900D02*
X1132754Y0851900D01*
X1114754Y0839900D02*
X1126754Y0851900D01*
X1108754Y0839900D02*
X1120754Y0851900D01*
X1102754Y0839900D02*
X1114754Y0851900D01*
X1096754Y0839900D02*
X1108754Y0851900D01*
X1090754Y0839900D02*
X1102754Y0851900D01*
X1084754Y0839900D02*
X1096754Y0851900D01*
X1078754Y0839900D02*
X1090754Y0851900D01*
X1072754Y0839900D02*
X1084754Y0851900D01*
X1066754Y0839900D02*
X1078754Y0851900D01*
X1060754Y0839900D02*
X1072754Y0851900D01*
X1054754Y0839900D02*
X1066754Y0851900D01*
X1048754Y0839900D02*
X1060754Y0851900D01*
X1044786Y0841932D02*
X1054754Y0851900D01*
X1044786Y0847932D02*
X1048754Y0851900D01*
X1150754D02*
X1156754Y0857900D01*
X1144754Y0851900D02*
X1156754Y0863900D01*
X1138754Y0851900D02*
X1150754Y0863900D01*
X1132754Y0851900D02*
X1144754Y0863900D01*
X1126754Y0851900D02*
X1138754Y0863900D01*
X1120754Y0851900D02*
X1132754Y0863900D01*
X1114754Y0851900D02*
X1126754Y0863900D01*
X1108754Y0851900D02*
X1120754Y0863900D01*
X1102754Y0851900D02*
X1114754Y0863900D01*
X1096754Y0851900D02*
X1108754Y0863900D01*
X1090754Y0851900D02*
X1102754Y0863900D01*
X1084754Y0851900D02*
X1096754Y0863900D01*
X1078754Y0851900D02*
X1090754Y0863900D01*
X1072754Y0851900D02*
X1084754Y0863900D01*
X1066754Y0851900D02*
X1078754Y0863900D01*
X1060754Y0851900D02*
X1072754Y0863900D01*
X1054754Y0851900D02*
X1066754Y0863900D01*
X1048754Y0851900D02*
X1060754Y0863900D01*
X1044786Y0853932D02*
X1054754Y0863900D01*
X1044786Y0859932D02*
X1048754Y0863900D01*
M02*
