G04*
G04 #@! TF.GenerationSoftware,Altium Limited,Altium Designer,18.1.9 (240)*
G04*
G04 Layer_Physical_Order=1*
G04 Layer_Color=255*
%FSAX25Y25*%
%MOIN*%
G70*
G01*
G75*
%ADD16C,0.01000*%
%ADD17C,0.00800*%
%ADD19C,0.00500*%
G04:AMPARAMS|DCode=28|XSize=9.84mil|YSize=23.62mil|CornerRadius=1.97mil|HoleSize=0mil|Usage=FLASHONLY|Rotation=90.000|XOffset=0mil|YOffset=0mil|HoleType=Round|Shape=RoundedRectangle|*
%AMROUNDEDRECTD28*
21,1,0.00984,0.01968,0,0,90.0*
21,1,0.00591,0.02362,0,0,90.0*
1,1,0.00394,0.00984,0.00295*
1,1,0.00394,0.00984,-0.00295*
1,1,0.00394,-0.00984,-0.00295*
1,1,0.00394,-0.00984,0.00295*
%
%ADD28ROUNDEDRECTD28*%
G04:AMPARAMS|DCode=29|XSize=9.84mil|YSize=23.62mil|CornerRadius=1.97mil|HoleSize=0mil|Usage=FLASHONLY|Rotation=0.000|XOffset=0mil|YOffset=0mil|HoleType=Round|Shape=RoundedRectangle|*
%AMROUNDEDRECTD29*
21,1,0.00984,0.01968,0,0,0.0*
21,1,0.00591,0.02362,0,0,0.0*
1,1,0.00394,0.00295,-0.00984*
1,1,0.00394,-0.00295,-0.00984*
1,1,0.00394,-0.00295,0.00984*
1,1,0.00394,0.00295,0.00984*
%
%ADD29ROUNDEDRECTD29*%
%ADD30R,0.10630X0.05118*%
%ADD31R,0.01575X0.01575*%
%ADD32R,0.03150X0.01575*%
%ADD33R,0.06300X0.05000*%
%ADD34R,0.13780X0.06299*%
%ADD35R,0.03937X0.03740*%
%ADD36R,0.01575X0.01575*%
%ADD37R,0.01575X0.03150*%
%ADD38R,0.08661X0.16535*%
%ADD40R,0.04724X0.04724*%
%ADD41C,0.03937*%
%ADD44R,0.03150X0.02362*%
%ADD45R,0.01811X0.01654*%
%ADD46R,0.10827X0.02559*%
%ADD47R,0.01654X0.01811*%
%ADD48R,0.07480X0.05118*%
%ADD49R,0.07480X0.07874*%
G04:AMPARAMS|DCode=50|XSize=23.62mil|YSize=39.37mil|CornerRadius=2.01mil|HoleSize=0mil|Usage=FLASHONLY|Rotation=90.000|XOffset=0mil|YOffset=0mil|HoleType=Round|Shape=RoundedRectangle|*
%AMROUNDEDRECTD50*
21,1,0.02362,0.03535,0,0,90.0*
21,1,0.01961,0.03937,0,0,90.0*
1,1,0.00402,0.01768,0.00980*
1,1,0.00402,0.01768,-0.00980*
1,1,0.00402,-0.01768,-0.00980*
1,1,0.00402,-0.01768,0.00980*
%
%ADD50ROUNDEDRECTD50*%
%ADD83C,0.06496*%
%ADD84R,0.06496X0.06496*%
G04:AMPARAMS|DCode=92|XSize=29.53mil|YSize=66.93mil|CornerRadius=1.92mil|HoleSize=0mil|Usage=FLASHONLY|Rotation=90.000|XOffset=0mil|YOffset=0mil|HoleType=Round|Shape=RoundedRectangle|*
%AMROUNDEDRECTD92*
21,1,0.02953,0.06309,0,0,90.0*
21,1,0.02569,0.06693,0,0,90.0*
1,1,0.00384,0.03155,0.01284*
1,1,0.00384,0.03155,-0.01284*
1,1,0.00384,-0.03155,-0.01284*
1,1,0.00384,-0.03155,0.01284*
%
%ADD92ROUNDEDRECTD92*%
G04:AMPARAMS|DCode=93|XSize=47.24mil|YSize=66.93mil|CornerRadius=1.89mil|HoleSize=0mil|Usage=FLASHONLY|Rotation=90.000|XOffset=0mil|YOffset=0mil|HoleType=Round|Shape=RoundedRectangle|*
%AMROUNDEDRECTD93*
21,1,0.04724,0.06315,0,0,90.0*
21,1,0.04347,0.06693,0,0,90.0*
1,1,0.00378,0.03158,0.02173*
1,1,0.00378,0.03158,-0.02173*
1,1,0.00378,-0.03158,-0.02173*
1,1,0.00378,-0.03158,0.02173*
%
%ADD93ROUNDEDRECTD93*%
%ADD94R,0.02362X0.02362*%
%ADD95R,0.03000X0.01000*%
%ADD96O,0.01102X0.05756*%
%ADD97O,0.01102X0.02598*%
%ADD98C,0.01200*%
%ADD99C,0.02500*%
%ADD100C,0.02000*%
%ADD101C,0.00600*%
%ADD102C,0.01500*%
%ADD103R,0.02500X0.01000*%
%ADD104R,0.03150X0.02362*%
%ADD105R,0.02362X0.03150*%
%ADD106C,0.04600*%
%ADD107C,0.06000*%
%ADD108C,0.31496*%
%ADD109R,0.07087X0.07087*%
%ADD110C,0.07087*%
%ADD111R,0.08465X0.08465*%
%ADD112C,0.08465*%
%ADD113C,0.06102*%
%ADD114R,0.06102X0.06102*%
%ADD115R,0.08465X0.08465*%
%ADD116R,0.06102X0.06102*%
%ADD117C,0.08700*%
%ADD118C,0.08000*%
%ADD119C,0.01968*%
%ADD120C,0.01700*%
%ADD121C,0.02400*%
%ADD122C,0.02200*%
G36*
X0295200Y0320742D02*
X0268176Y0301476D01*
X0245737Y0300049D01*
X0244900Y0293600D01*
X0223200D01*
Y0306400D01*
X0197700Y0344900D01*
Y0369956D01*
X0198700Y0370207D01*
X0199074Y0369508D01*
X0199855Y0368555D01*
X0200808Y0367774D01*
X0201894Y0367193D01*
X0203074Y0366835D01*
X0204300Y0366714D01*
X0205526Y0366835D01*
X0206705Y0367193D01*
X0207792Y0367774D01*
X0208745Y0368555D01*
X0209526Y0369508D01*
X0210107Y0370594D01*
X0210465Y0371774D01*
X0210586Y0373000D01*
X0210465Y0374226D01*
X0210107Y0375405D01*
X0209526Y0376492D01*
X0208745Y0377445D01*
X0207792Y0378226D01*
X0206705Y0378807D01*
X0205526Y0379165D01*
X0204300Y0379286D01*
X0203074Y0379165D01*
X0201894Y0378807D01*
X0200808Y0378226D01*
X0199855Y0377445D01*
X0199074Y0376492D01*
X0198700Y0375793D01*
X0197700Y0376044D01*
Y0380500D01*
X0246139D01*
Y0390118D01*
X0295200D01*
Y0320742D01*
D02*
G37*
G36*
X0181228Y0347700D02*
X0179214Y0347867D01*
X0177206Y0347700D01*
Y0349500D01*
X0179214Y0349333D01*
X0181228Y0349500D01*
Y0347700D01*
D02*
G37*
G36*
X0370834Y0343321D02*
X0369634Y0342838D01*
X0369379Y0343549D01*
X0370798Y0343784D01*
X0370834Y0343321D01*
D02*
G37*
G36*
X0379200Y0261412D02*
X0378488Y0260710D01*
X0253700Y0262400D01*
Y0273400D01*
X0283700D01*
X0285603Y0285680D01*
X0286158Y0285753D01*
X0287143Y0286161D01*
X0287989Y0286811D01*
X0288639Y0287657D01*
X0289047Y0288642D01*
X0289186Y0289700D01*
X0289047Y0290757D01*
X0288639Y0291743D01*
X0288468Y0291966D01*
X0289778Y0293275D01*
X0293295D01*
X0293782Y0293372D01*
X0293824Y0293400D01*
X0313200Y0293400D01*
X0315200D01*
X0343974Y0322174D01*
X0353537D01*
X0354032Y0320978D01*
X0354834Y0319934D01*
X0355878Y0319132D01*
X0357095Y0318629D01*
X0358400Y0318457D01*
X0359705Y0318629D01*
X0360922Y0319132D01*
X0361966Y0319934D01*
X0362768Y0320978D01*
X0363271Y0322195D01*
X0363443Y0323500D01*
X0363424Y0323648D01*
X0364083Y0324400D01*
X0379200D01*
Y0261412D01*
D02*
G37*
G36*
X0207242Y0303511D02*
X0206889Y0303158D01*
X0204071Y0303109D01*
X0207291Y0306329D01*
X0207242Y0303511D01*
D02*
G37*
G36*
X0344400Y0346271D02*
X0344314Y0345400D01*
X0344400Y0344529D01*
Y0326223D01*
X0342371D01*
X0342016Y0326177D01*
X0341670Y0326131D01*
X0341668Y0326131D01*
X0341666Y0326130D01*
X0341341Y0325996D01*
X0341012Y0325860D01*
X0341011Y0325859D01*
X0341009Y0325858D01*
X0340731Y0325645D01*
X0340448Y0325428D01*
X0313526Y0298573D01*
X0294645D01*
X0293953Y0298482D01*
X0293308Y0298215D01*
X0292755Y0297790D01*
X0292188Y0297223D01*
X0289250D01*
X0288558Y0297132D01*
X0287914Y0296865D01*
X0287360Y0296440D01*
X0286000Y0295080D01*
X0285100Y0295198D01*
X0283677Y0295011D01*
X0282351Y0294461D01*
X0281212Y0293588D01*
X0280338Y0292449D01*
X0280219Y0292160D01*
X0273079Y0290379D01*
X0255800Y0289100D01*
X0249197Y0284034D01*
X0248912Y0283977D01*
X0248499Y0283701D01*
X0248222Y0283288D01*
X0248222Y0283286D01*
X0246807Y0282200D01*
X0242582D01*
Y0282927D01*
X0242508Y0283298D01*
X0242298Y0283612D01*
X0241983Y0283823D01*
X0241612Y0283896D01*
X0241241Y0283823D01*
X0240926Y0283612D01*
X0240716Y0283298D01*
X0240642Y0282927D01*
Y0282200D01*
X0239432D01*
Y0282927D01*
X0239358Y0283298D01*
X0239148Y0283612D01*
X0238833Y0283823D01*
X0238462Y0283896D01*
X0238091Y0283823D01*
X0237776Y0283612D01*
X0237566Y0283298D01*
X0237492Y0282927D01*
Y0282200D01*
X0236282D01*
Y0282927D01*
X0236209Y0283298D01*
X0235998Y0283612D01*
X0235684Y0283823D01*
X0235313Y0283896D01*
X0234942Y0283823D01*
X0234627Y0283612D01*
X0234417Y0283298D01*
X0234343Y0282927D01*
Y0282200D01*
X0233133D01*
Y0282927D01*
X0233059Y0283298D01*
X0232849Y0283612D01*
X0232534Y0283823D01*
X0232163Y0283896D01*
X0231792Y0283823D01*
X0231477Y0283612D01*
X0231321Y0283379D01*
X0231151Y0283267D01*
X0230232Y0283022D01*
X0229911Y0283288D01*
X0229909Y0283298D01*
X0229699Y0283612D01*
X0229384Y0283823D01*
X0229013Y0283896D01*
X0228642Y0283823D01*
X0228466Y0283705D01*
X0227283Y0284642D01*
X0224800Y0285512D01*
Y0290405D01*
X0242030Y0290620D01*
X0243344Y0291153D01*
X0244900D01*
X0245216Y0291216D01*
X0245538Y0291237D01*
X0245664Y0291300D01*
X0248150D01*
Y0297751D01*
X0260709Y0298550D01*
X0261315D01*
Y0298588D01*
X0262282Y0298650D01*
X0273615D01*
Y0301704D01*
X0283007Y0306737D01*
X0292308Y0315675D01*
X0296620Y0318749D01*
X0296761Y0318898D01*
X0296930Y0319012D01*
X0297084Y0319243D01*
X0297275Y0319445D01*
X0297347Y0319636D01*
X0297461Y0319806D01*
X0297515Y0320078D01*
X0297613Y0320338D01*
X0297607Y0320542D01*
X0297647Y0320742D01*
Y0390118D01*
X0344400D01*
Y0346271D01*
D02*
G37*
G36*
X0214500Y0293400D02*
X0214969D01*
X0215483Y0293006D01*
X0216456Y0292603D01*
X0216616Y0292582D01*
X0217326Y0291631D01*
X0217195Y0291051D01*
X0216722Y0290843D01*
X0216000Y0290986D01*
X0215278Y0290843D01*
X0215237Y0290815D01*
Y0290599D01*
X0213126Y0290775D01*
X0212638D01*
Y0290724D01*
X0212000Y0289831D01*
X0209700D01*
X0209257Y0289743D01*
X0208644Y0289997D01*
X0207600Y0290134D01*
X0206556Y0289997D01*
X0205583Y0289594D01*
X0204747Y0288953D01*
X0204106Y0288117D01*
X0203809Y0287400D01*
X0201600D01*
X0198300Y0290700D01*
Y0292200D01*
X0201800Y0295700D01*
X0212200D01*
X0214500Y0293400D01*
D02*
G37*
G36*
X0216469Y0281880D02*
X0215469D01*
X0215370Y0284287D01*
X0216567D01*
X0216469Y0281880D01*
D02*
G37*
G36*
X0229200Y0280702D02*
X0229013Y0280739D01*
X0228642Y0280665D01*
X0228328Y0280455D01*
X0228117Y0280140D01*
X0228077Y0279939D01*
X0227625D01*
X0227274Y0279869D01*
X0226977Y0279670D01*
X0226571Y0279264D01*
X0226378Y0279303D01*
X0224506D01*
Y0281427D01*
X0224300D01*
Y0282400D01*
X0225000Y0283100D01*
X0229200D01*
Y0280702D01*
D02*
G37*
G36*
X0250340Y0280714D02*
X0250400Y0280654D01*
Y0267258D01*
X0249509Y0266804D01*
X0245360Y0269829D01*
X0245314Y0269850D01*
X0245278Y0269886D01*
X0244882Y0270050D01*
X0244494Y0270230D01*
X0244443Y0270232D01*
X0244396Y0270251D01*
X0243968D01*
X0243841Y0270256D01*
X0243798Y0270303D01*
X0243515Y0270506D01*
X0243316Y0270597D01*
X0243141Y0270728D01*
X0242886Y0270793D01*
X0242682Y0270886D01*
Y0273227D01*
X0242608Y0273598D01*
X0242398Y0273912D01*
X0242083Y0274123D01*
X0241712Y0274197D01*
X0241341Y0274123D01*
X0241026Y0273912D01*
X0240816Y0273598D01*
X0240742Y0273227D01*
X0239742Y0272676D01*
X0239532Y0272803D01*
Y0273227D01*
X0239458Y0273598D01*
X0239248Y0273912D01*
X0238933Y0274123D01*
X0238562Y0274197D01*
X0238191Y0274123D01*
X0237876Y0273912D01*
X0237666Y0273598D01*
X0237592Y0273227D01*
Y0273161D01*
X0237382Y0273038D01*
X0237080Y0273095D01*
X0236314Y0273570D01*
X0236309Y0273598D01*
X0236098Y0273912D01*
X0235784Y0274123D01*
X0235413Y0274197D01*
X0235041Y0274123D01*
X0234727Y0273912D01*
X0234517Y0273598D01*
X0234443Y0273227D01*
Y0273117D01*
X0234431Y0273092D01*
X0234233Y0272978D01*
X0233866Y0273069D01*
X0233174Y0273523D01*
X0233159Y0273598D01*
X0232949Y0273912D01*
X0232634Y0274123D01*
X0232263Y0274197D01*
X0231892Y0274123D01*
X0231577Y0273912D01*
X0231367Y0273598D01*
X0231293Y0273227D01*
Y0273037D01*
X0231292Y0273034D01*
X0231083Y0272917D01*
X0230642Y0273054D01*
X0230034Y0273474D01*
X0230009Y0273598D01*
X0229953Y0273682D01*
X0229932Y0274120D01*
X0229868Y0274257D01*
X0229814Y0274398D01*
X0229799Y0274405D01*
X0229791Y0274420D01*
X0229649Y0274471D01*
X0229512Y0274533D01*
X0226206Y0274623D01*
Y0276327D01*
X0223091D01*
X0222985Y0276341D01*
X0222937D01*
X0222258Y0277248D01*
X0222469Y0277773D01*
X0224506D01*
Y0278373D01*
X0226505D01*
X0226571Y0278831D01*
X0226687Y0278879D01*
X0226811Y0278904D01*
X0226836Y0278941D01*
X0226877Y0278958D01*
X0227253Y0279334D01*
X0227443Y0279461D01*
X0227668Y0279506D01*
X0228077D01*
X0228194Y0279554D01*
X0228318Y0279579D01*
X0228675Y0279659D01*
X0229312Y0279283D01*
X0229618Y0278994D01*
Y0278273D01*
X0229692Y0277902D01*
X0229902Y0277587D01*
X0230217Y0277377D01*
X0230588Y0277303D01*
X0230959Y0277377D01*
X0231274Y0277587D01*
X0231484Y0277902D01*
X0231558Y0278273D01*
Y0278355D01*
X0232558Y0278941D01*
X0232768Y0278823D01*
Y0278273D01*
X0232842Y0277902D01*
X0233052Y0277587D01*
X0233367Y0277377D01*
X0233738Y0277303D01*
X0234109Y0277377D01*
X0234424Y0277587D01*
X0234634Y0277902D01*
X0234708Y0278273D01*
Y0278526D01*
X0235313Y0278879D01*
X0235918Y0278526D01*
Y0278273D01*
X0235991Y0277902D01*
X0236202Y0277587D01*
X0236516Y0277377D01*
X0236887Y0277303D01*
X0237259Y0277377D01*
X0237573Y0277587D01*
X0237783Y0277902D01*
X0237857Y0278273D01*
Y0278526D01*
X0238462Y0278879D01*
X0239067Y0278526D01*
Y0278273D01*
X0239141Y0277902D01*
X0239351Y0277587D01*
X0239666Y0277377D01*
X0240037Y0277303D01*
X0240408Y0277377D01*
X0240723Y0277587D01*
X0240933Y0277902D01*
X0241007Y0278273D01*
Y0278526D01*
X0241612Y0278879D01*
X0242217Y0278526D01*
Y0278273D01*
X0242291Y0277902D01*
X0242501Y0277587D01*
X0242815Y0277377D01*
X0243187Y0277303D01*
X0243558Y0277377D01*
X0243872Y0277587D01*
X0244083Y0277902D01*
X0244156Y0278273D01*
Y0279753D01*
X0246807D01*
X0247121Y0279815D01*
X0247440Y0279836D01*
X0247585Y0279908D01*
X0247743Y0279939D01*
X0248009Y0280117D01*
X0248296Y0280258D01*
X0249400Y0281105D01*
X0250340Y0280714D01*
D02*
G37*
G36*
X0217829Y0277884D02*
X0219512Y0277853D01*
Y0276853D01*
X0217277Y0276823D01*
X0217281Y0276890D01*
X0216362Y0277235D01*
X0215343Y0276853D01*
X0214886Y0277853D01*
X0215397Y0278432D01*
X0216306Y0277256D01*
X0216362Y0277235D01*
X0216419Y0277256D01*
X0217327Y0278432D01*
X0217829Y0277884D01*
D02*
G37*
G36*
X0186827Y0277141D02*
X0185809Y0276124D01*
X0185420Y0276682D01*
X0186268Y0277531D01*
X0186827Y0277141D01*
D02*
G37*
G36*
X0280700Y0284900D02*
X0281200Y0284400D01*
Y0275900D01*
X0280700Y0275400D01*
X0267700D01*
X0266700Y0276400D01*
Y0284900D01*
X0268000Y0286200D01*
X0279400D01*
X0280700Y0284900D01*
D02*
G37*
G36*
X0187980Y0275818D02*
X0187132Y0274970D01*
X0186574Y0275359D01*
X0187591Y0276376D01*
X0187980Y0275818D01*
D02*
G37*
G36*
X0203848Y0280849D02*
X0203839Y0280836D01*
X0203653Y0279900D01*
Y0278900D01*
X0203839Y0277963D01*
X0204370Y0277170D01*
X0205164Y0276639D01*
X0206100Y0276453D01*
X0207089D01*
X0209141Y0274541D01*
X0209105Y0273732D01*
X0208435Y0273029D01*
X0206434D01*
X0206137Y0273326D01*
Y0274781D01*
X0203019D01*
X0201800Y0276000D01*
X0197750Y0280050D01*
X0198073Y0283418D01*
X0198300Y0283500D01*
X0202600D01*
X0203848Y0280849D01*
D02*
G37*
G36*
X0222401Y0273718D02*
X0222413Y0272693D01*
X0219512Y0272916D01*
Y0273916D01*
X0222401Y0273718D01*
D02*
G37*
G36*
X0229500Y0274100D02*
X0229655Y0270851D01*
X0229485Y0270965D01*
X0229113Y0271039D01*
X0228742Y0270965D01*
X0228428Y0270755D01*
X0228217Y0270440D01*
X0228168Y0270194D01*
X0227951Y0270049D01*
X0227752Y0269751D01*
X0227682Y0269400D01*
X0226200D01*
X0226174Y0269425D01*
Y0270100D01*
X0226078Y0270588D01*
X0225801Y0271001D01*
X0224806Y0271996D01*
Y0274006D01*
X0225022Y0274222D01*
X0229500Y0274100D01*
D02*
G37*
G36*
X0217670Y0272021D02*
X0219501Y0271989D01*
Y0270989D01*
X0217740Y0270958D01*
X0216974Y0270676D01*
X0216932Y0272250D01*
X0217670Y0272021D01*
D02*
G37*
G36*
X0221673Y0271691D02*
X0220976Y0270437D01*
X0220372Y0270947D01*
X0220635Y0271947D01*
X0221673Y0271691D01*
D02*
G37*
G36*
X0214489Y0266082D02*
X0213489D01*
X0213239Y0269094D01*
X0214739D01*
X0214489Y0266082D01*
D02*
G37*
G36*
X0197380Y0260864D02*
X0188354Y0251837D01*
X0187403Y0251712D01*
X0186102Y0251173D01*
X0184984Y0250316D01*
X0184127Y0249198D01*
X0183588Y0247897D01*
X0183404Y0246500D01*
X0183588Y0245103D01*
X0184127Y0243802D01*
X0184984Y0242684D01*
X0186102Y0241827D01*
X0187403Y0241288D01*
X0188800Y0241104D01*
X0190197Y0241288D01*
X0191498Y0241827D01*
X0192616Y0242684D01*
X0193473Y0243802D01*
X0194012Y0245103D01*
X0194196Y0246500D01*
X0194012Y0247897D01*
X0193473Y0249198D01*
X0192616Y0250315D01*
X0192615Y0250331D01*
X0203545Y0261261D01*
X0207663D01*
Y0259738D01*
X0207457Y0259430D01*
X0207382Y0259054D01*
X0201947Y0253619D01*
X0201616Y0253123D01*
X0201500Y0252537D01*
Y0232804D01*
X0201384Y0232716D01*
X0200527Y0231598D01*
X0199988Y0230296D01*
X0199804Y0228900D01*
X0199988Y0227503D01*
X0200527Y0226202D01*
X0201384Y0225084D01*
X0202502Y0224227D01*
X0203803Y0223688D01*
X0205200Y0223504D01*
X0206597Y0223688D01*
X0207898Y0224227D01*
X0209016Y0225084D01*
X0209873Y0226202D01*
X0210412Y0227503D01*
X0210596Y0228900D01*
X0210412Y0230296D01*
X0209873Y0231598D01*
X0209016Y0232716D01*
X0207898Y0233573D01*
X0206597Y0234112D01*
X0205200Y0234296D01*
X0204558Y0234859D01*
Y0251904D01*
X0209270Y0256616D01*
X0209529Y0256356D01*
X0210026Y0256025D01*
X0210611Y0255908D01*
X0214589D01*
X0215174Y0256025D01*
X0215569Y0256288D01*
X0216243Y0256119D01*
X0216569Y0255984D01*
Y0221380D01*
X0215421D01*
Y0214262D01*
X0224901D01*
Y0215983D01*
X0227389Y0216190D01*
X0234642D01*
X0235499Y0215333D01*
Y0207963D01*
X0244980D01*
Y0213779D01*
X0245903Y0214162D01*
X0248319Y0211746D01*
X0248848Y0211393D01*
X0249472Y0211269D01*
X0251932D01*
X0254420Y0211062D01*
Y0207963D01*
X0263901D01*
Y0211062D01*
X0266389Y0211269D01*
X0273569D01*
X0274499Y0210144D01*
Y0204420D01*
X0283980D01*
Y0207146D01*
X0284877Y0207587D01*
X0290636Y0203134D01*
X0331500Y0203134D01*
X0331500Y0180182D01*
X0184615D01*
X0184516Y0181182D01*
X0184544Y0181188D01*
X0186623Y0181894D01*
X0188592Y0182865D01*
X0190417Y0184084D01*
X0192068Y0185532D01*
X0193516Y0187182D01*
X0194735Y0189008D01*
X0195706Y0190977D01*
X0196412Y0193056D01*
X0196840Y0195209D01*
X0196984Y0197400D01*
X0196840Y0199591D01*
X0196412Y0201744D01*
X0195706Y0203823D01*
X0194735Y0205792D01*
X0193516Y0207617D01*
X0192068Y0209268D01*
X0190417Y0210716D01*
X0188592Y0211935D01*
X0186623Y0212906D01*
X0184544Y0213612D01*
X0182391Y0214040D01*
X0180200Y0214184D01*
X0178009Y0214040D01*
X0175856Y0213612D01*
X0173777Y0212906D01*
X0171808Y0211935D01*
X0169983Y0210716D01*
X0168332Y0209268D01*
X0166884Y0207617D01*
X0165665Y0205792D01*
X0164694Y0203823D01*
X0163988Y0201744D01*
X0163882Y0201213D01*
X0162882Y0201312D01*
Y0254544D01*
X0178477Y0257844D01*
X0179590Y0257057D01*
X0179603Y0256956D01*
X0180006Y0255983D01*
X0180647Y0255147D01*
X0181483Y0254506D01*
X0182456Y0254103D01*
X0183500Y0253965D01*
X0184544Y0254103D01*
X0185517Y0254506D01*
X0186353Y0255147D01*
X0186994Y0255983D01*
X0187397Y0256956D01*
X0187534Y0258000D01*
X0187397Y0259044D01*
X0187805Y0259818D01*
X0196904Y0261743D01*
X0197380Y0260864D01*
D02*
G37*
G36*
X0243671Y0232942D02*
Y0227651D01*
X0243157Y0227439D01*
X0242311Y0226789D01*
X0241661Y0225943D01*
X0241253Y0224957D01*
X0241114Y0223900D01*
X0240233Y0222931D01*
X0229976D01*
X0223031Y0229876D01*
Y0250132D01*
X0222907Y0250757D01*
X0222553Y0251286D01*
X0222431Y0251408D01*
Y0252875D01*
X0223355Y0253257D01*
X0243671Y0232942D01*
D02*
G37*
G36*
X0227489Y0218421D02*
Y0217221D01*
X0223877Y0216921D01*
Y0218721D01*
X0227489Y0218421D01*
D02*
G37*
G36*
X0268480Y0217332D02*
X0268092Y0216779D01*
X0267079Y0217792D01*
X0267632Y0218180D01*
X0268480Y0217332D01*
D02*
G37*
G36*
X0266489Y0213500D02*
Y0212300D01*
X0262877Y0212000D01*
Y0213800D01*
X0266489Y0213500D01*
D02*
G37*
G36*
X0255445Y0212000D02*
X0251833Y0212300D01*
Y0213500D01*
X0255445Y0213800D01*
Y0212000D01*
D02*
G37*
G36*
X0277879Y0210526D02*
X0275511Y0210520D01*
X0273894Y0212476D01*
X0274995Y0213071D01*
X0277879Y0210526D01*
D02*
G37*
G36*
X0229090Y0269824D02*
X0229718Y0269295D01*
Y0268573D01*
X0229792Y0268202D01*
X0230002Y0267887D01*
X0230317Y0267677D01*
X0230688Y0267603D01*
X0231059Y0267677D01*
X0231374Y0267887D01*
X0231584Y0268202D01*
X0231658Y0268573D01*
Y0269702D01*
X0231868Y0269785D01*
X0232868Y0269106D01*
Y0268573D01*
X0232942Y0268202D01*
X0233152Y0267887D01*
X0233467Y0267677D01*
X0233838Y0267603D01*
X0234209Y0267677D01*
X0234524Y0267887D01*
X0234734Y0268202D01*
X0234808Y0268573D01*
Y0269759D01*
X0235018Y0269842D01*
X0236018Y0269159D01*
Y0268573D01*
X0236091Y0268202D01*
X0236302Y0267887D01*
X0236616Y0267677D01*
X0236987Y0267603D01*
X0237358Y0267677D01*
X0237673Y0267887D01*
X0237883Y0268202D01*
X0237957Y0268573D01*
Y0269816D01*
X0238167Y0269897D01*
X0239167Y0269210D01*
Y0268573D01*
X0239241Y0268202D01*
X0239451Y0267887D01*
X0239766Y0267677D01*
X0240137Y0267603D01*
X0240508Y0267677D01*
X0240823Y0267887D01*
X0241022Y0268185D01*
X0241056Y0268210D01*
X0242003Y0268525D01*
X0242085Y0268521D01*
X0242368Y0268317D01*
X0242391Y0268202D01*
X0242601Y0267887D01*
X0242916Y0267677D01*
X0243287Y0267603D01*
X0243658Y0267677D01*
X0243918Y0267851D01*
X0250885Y0262773D01*
Y0260150D01*
X0252745D01*
X0252749Y0260149D01*
X0252764Y0260139D01*
X0253216Y0260049D01*
X0253667Y0259953D01*
X0254773Y0259938D01*
X0257700Y0257805D01*
X0380218D01*
Y0209348D01*
X0374556Y0209279D01*
X0372917Y0210716D01*
X0371092Y0211935D01*
X0369123Y0212906D01*
X0367044Y0213612D01*
X0364891Y0214040D01*
X0362700Y0214184D01*
X0360509Y0214040D01*
X0358356Y0213612D01*
X0356277Y0212906D01*
X0354308Y0211935D01*
X0352483Y0210716D01*
X0350832Y0209268D01*
X0350583Y0208984D01*
X0289543Y0208234D01*
X0239392Y0241546D01*
X0227263Y0253675D01*
X0227316Y0254055D01*
X0227654Y0254699D01*
X0228444Y0254803D01*
X0229417Y0255206D01*
X0230253Y0255847D01*
X0230894Y0256683D01*
X0231297Y0257656D01*
X0231434Y0258700D01*
X0231297Y0259744D01*
X0230894Y0260717D01*
X0230253Y0261553D01*
X0229417Y0262194D01*
X0228444Y0262597D01*
X0227400Y0262734D01*
X0226724Y0263332D01*
X0226765Y0268967D01*
X0227682D01*
X0227799Y0269015D01*
X0227923Y0269040D01*
X0227947Y0269077D01*
X0227989Y0269094D01*
X0228037Y0269210D01*
X0228107Y0269315D01*
X0228160Y0269582D01*
X0228263Y0269737D01*
X0228409Y0269834D01*
X0228409D01*
X0228434Y0269871D01*
X0228838Y0269955D01*
X0229090Y0269824D01*
D02*
G37*
%LPC*%
G36*
X0329400Y0385743D02*
X0328095Y0385571D01*
X0326878Y0385067D01*
X0325834Y0384266D01*
X0325032Y0383222D01*
X0324529Y0382005D01*
X0324357Y0380700D01*
X0324529Y0379395D01*
X0325032Y0378178D01*
X0325834Y0377134D01*
X0326878Y0376332D01*
X0328095Y0375829D01*
X0329400Y0375657D01*
X0330705Y0375829D01*
X0331922Y0376332D01*
X0332966Y0377134D01*
X0333768Y0378178D01*
X0334271Y0379395D01*
X0334443Y0380700D01*
X0334271Y0382005D01*
X0333768Y0383222D01*
X0332966Y0384266D01*
X0331922Y0385067D01*
X0330705Y0385571D01*
X0329400Y0385743D01*
D02*
G37*
G36*
X0179000Y0235382D02*
X0177814Y0235226D01*
X0176709Y0234769D01*
X0175760Y0234040D01*
X0175031Y0233091D01*
X0174574Y0231986D01*
X0174417Y0230800D01*
X0174574Y0229614D01*
X0175031Y0228509D01*
X0175760Y0227560D01*
X0176709Y0226831D01*
X0177814Y0226374D01*
X0179000Y0226217D01*
X0180186Y0226374D01*
X0181291Y0226831D01*
X0182240Y0227560D01*
X0182969Y0228509D01*
X0183426Y0229614D01*
X0183582Y0230800D01*
X0183426Y0231986D01*
X0182969Y0233091D01*
X0182240Y0234040D01*
X0181291Y0234769D01*
X0180186Y0235226D01*
X0179000Y0235382D01*
D02*
G37*
G36*
X0208212Y0214898D02*
X0208114Y0214878D01*
X0208013Y0214878D01*
X0207921Y0214840D01*
X0207822Y0214820D01*
X0207739Y0214764D01*
X0207646Y0214726D01*
X0207575Y0214655D01*
X0207491Y0214599D01*
X0207435Y0214516D01*
X0207365Y0214445D01*
X0207326Y0214352D01*
X0207270Y0214268D01*
X0207251Y0214170D01*
X0207212Y0214077D01*
X0207212Y0213977D01*
X0207193Y0213878D01*
Y0212031D01*
X0204200D01*
X0203576Y0211907D01*
X0203046Y0211553D01*
X0202693Y0211024D01*
X0202569Y0210400D01*
X0202693Y0209776D01*
X0203046Y0209246D01*
X0203576Y0208893D01*
X0204200Y0208769D01*
X0207193D01*
Y0206922D01*
X0207212Y0206823D01*
X0207212Y0206722D01*
X0207251Y0206630D01*
X0207270Y0206531D01*
X0207326Y0206448D01*
X0207365Y0206355D01*
X0207435Y0206284D01*
X0207491Y0206201D01*
X0207575Y0206145D01*
X0207646Y0206074D01*
X0207738Y0206035D01*
X0207822Y0205980D01*
X0207921Y0205960D01*
X0208013Y0205922D01*
X0208114Y0205922D01*
X0208212Y0205902D01*
X0208311Y0205922D01*
X0208411Y0205922D01*
X0208504Y0205960D01*
X0208602Y0205980D01*
X0208686Y0206035D01*
X0208779Y0206074D01*
X0212810Y0208769D01*
X0217064D01*
X0219007Y0206825D01*
X0219536Y0206471D01*
X0220161Y0206347D01*
X0220785Y0206471D01*
X0221314Y0206825D01*
X0221668Y0207354D01*
X0221792Y0207979D01*
X0221668Y0208603D01*
X0221314Y0209132D01*
X0218893Y0211553D01*
X0218364Y0211907D01*
X0217739Y0212031D01*
X0212810D01*
X0208779Y0214726D01*
X0208686Y0214764D01*
X0208602Y0214820D01*
X0208504Y0214840D01*
X0208411Y0214878D01*
X0208311Y0214878D01*
X0208212Y0214898D01*
D02*
G37*
%LPD*%
G36*
X0212518Y0211000D02*
Y0209800D01*
X0208212Y0206922D01*
Y0213878D01*
X0212518Y0211000D01*
D02*
G37*
G54D16*
X0218251Y0291300D02*
X0219362Y0290189D01*
X0216900Y0291300D02*
X0218251D01*
X0216900Y0291200D02*
Y0291300D01*
X0192600Y0348100D02*
X0195800D01*
X0205600Y0269062D02*
Y0269200D01*
X0205062Y0269000D02*
X0205300Y0268762D01*
X0203100Y0270600D02*
X0204900Y0272400D01*
X0220800Y0264796D02*
X0222124D01*
X0219501Y0269521D02*
X0220392D01*
X0212021Y0266920D02*
Y0266962D01*
X0214425Y0286925D02*
Y0288200D01*
X0208488Y0279321D02*
X0214000D01*
X0214886Y0277353D02*
X0219512D01*
X0215987Y0285000D02*
X0218151D01*
X0215958Y0266920D02*
Y0266962D01*
X0187200Y0337400D02*
X0191751Y0332849D01*
X0190750Y0278500D02*
X0194100D01*
X0190100Y0279150D02*
Y0321783D01*
Y0279150D02*
X0190750Y0278500D01*
X0216352Y0271489D02*
X0219501D01*
X0213989Y0262371D02*
Y0271489D01*
X0219512Y0273416D02*
X0222985D01*
X0204700Y0272600D02*
X0204900Y0272400D01*
X0203100Y0270400D02*
Y0270600D01*
X0204900Y0272400D02*
X0205700Y0271600D01*
X0203562Y0272600D02*
X0204700D01*
X0205300Y0268762D02*
X0205600Y0269062D01*
X0205800Y0271500D02*
X0208435D01*
X0179300Y0265900D02*
X0182647D01*
X0168700Y0276500D02*
X0179300Y0265900D01*
X0168700Y0276500D02*
Y0286400D01*
X0245412Y0288200D02*
X0245700D01*
X0209271Y0291350D02*
X0216000D01*
X0201700Y0278916D02*
Y0279880D01*
X0200100Y0281480D02*
X0201700Y0279880D01*
X0219512Y0279321D02*
X0222322D01*
X0203029Y0231071D02*
X0205200Y0228900D01*
X0203029Y0231071D02*
Y0252537D01*
X0209200Y0258709D01*
X0208435Y0271500D02*
X0208488Y0271447D01*
X0215968Y0281880D02*
Y0285019D01*
X0219512Y0277353D02*
X0221747D01*
X0221800Y0277300D01*
X0229035Y0269400D02*
X0229113Y0269321D01*
X0228600Y0269400D02*
X0229035D01*
X0222985Y0273416D02*
X0223001Y0273400D01*
X0225599D02*
X0228192D01*
X0229113Y0272479D01*
X0222322Y0279321D02*
X0222601Y0279600D01*
X0219512Y0271447D02*
X0221407D01*
X0221800Y0270800D02*
Y0271054D01*
X0221407Y0271447D02*
X0221800Y0271054D01*
Y0277300D02*
X0222273Y0277773D01*
X0226378D01*
X0203562Y0267500D02*
X0205062Y0269000D01*
X0201700Y0278916D02*
X0207200Y0273416D01*
X0214000Y0278239D02*
X0214886Y0277353D01*
X0214000Y0279321D02*
Y0281880D01*
Y0278239D02*
Y0279321D01*
X0206137Y0273650D02*
X0206371Y0273416D01*
X0206137Y0273650D02*
Y0274195D01*
X0205332Y0275000D02*
X0206137Y0274195D01*
X0203800Y0275000D02*
X0205332D01*
X0206371Y0273416D02*
X0207200D01*
X0226378Y0277773D02*
X0227625Y0279021D01*
X0229013D01*
X0242600Y0288200D02*
X0245412D01*
X0213600Y0286100D02*
X0214425Y0286925D01*
X0245200Y0223900D02*
Y0233575D01*
X0209200Y0258709D02*
Y0260549D01*
X0209450Y0260800D01*
X0215750D02*
Y0263894D01*
X0215968Y0264113D01*
Y0263381D02*
Y0264113D01*
Y0266920D01*
X0215750Y0258598D02*
Y0260800D01*
X0209200Y0258709D02*
X0209340D01*
X0210611Y0257438D01*
X0214589D01*
X0215750Y0258598D01*
X0217937Y0262559D02*
X0218200Y0262296D01*
X0217937Y0262559D02*
Y0264403D01*
X0220242Y0265158D02*
Y0268748D01*
X0219512Y0269479D02*
X0220242Y0268748D01*
X0222124Y0264796D02*
X0222824Y0264096D01*
Y0255952D02*
Y0264096D01*
Y0255952D02*
X0245200Y0233575D01*
X0217937Y0264403D02*
X0218000Y0264466D01*
Y0266857D01*
X0217937Y0266920D02*
X0218000Y0266857D01*
X0219512Y0269479D02*
X0220426D01*
X0213600Y0284963D02*
Y0286100D01*
Y0284963D02*
X0214000Y0284563D01*
Y0281880D02*
Y0284563D01*
X0206379Y0269479D02*
X0208488D01*
X0206000Y0269100D02*
X0206379Y0269479D01*
X0191751Y0323434D02*
Y0332849D01*
X0169200Y0348400D02*
X0180700Y0336900D01*
X0187700D01*
X0180200Y0326900D02*
X0187700D01*
X0170200Y0316900D02*
X0180200Y0326900D01*
X0179119Y0272900D02*
X0179359Y0273140D01*
X0182887D01*
X0182647Y0265900D02*
X0182887Y0265660D01*
X0202200Y0276600D02*
X0203800Y0275000D01*
X0202200Y0276600D02*
Y0277900D01*
X0219362Y0286211D02*
Y0290189D01*
X0218151Y0285000D02*
X0219362Y0286211D01*
X0190100Y0321783D02*
X0191751Y0323434D01*
X0365100Y0344300D02*
X0365300D01*
X0497200Y0080717D02*
Y0101050D01*
X0413200Y0080717D02*
Y0101050D01*
X0040000Y0080717D02*
X0700200D01*
X0040000Y0060383D02*
X0700000D01*
X0040000Y0040050D02*
X0440500D01*
X0040050Y0101050D02*
X0700200D01*
X0040050Y0040050D02*
Y0101050D01*
Y0040050D02*
X0197600D01*
X0040000D02*
Y0101050D01*
X0286500Y0040050D02*
Y0101050D01*
X0700200Y0040050D02*
Y0101050D01*
X0440500Y0040050D02*
X0700200D01*
X0559400Y0039400D02*
Y0059683D01*
G54D17*
X0126900Y0073549D02*
X0130899D01*
X0128899D01*
Y0067551D01*
X0133898D02*
X0135897D01*
X0136897Y0068550D01*
Y0070550D01*
X0135897Y0071549D01*
X0133898D01*
X0132898Y0070550D01*
Y0068550D01*
X0133898Y0067551D01*
X0138896Y0065551D02*
Y0071549D01*
X0141895D01*
X0142895Y0070550D01*
Y0068550D01*
X0141895Y0067551D01*
X0138896D01*
X0150892Y0073549D02*
Y0067551D01*
X0154891D01*
X0157890Y0071549D02*
X0159889D01*
X0160889Y0070550D01*
Y0067551D01*
X0157890D01*
X0156890Y0068550D01*
X0157890Y0069550D01*
X0160889D01*
X0162888Y0071549D02*
Y0068550D01*
X0163888Y0067551D01*
X0166887D01*
Y0066551D01*
X0165887Y0065551D01*
X0164888D01*
X0166887Y0067551D02*
Y0071549D01*
X0171885Y0067551D02*
X0169886D01*
X0168886Y0068550D01*
Y0070550D01*
X0169886Y0071549D01*
X0171885D01*
X0172885Y0070550D01*
Y0069550D01*
X0168886D01*
X0174884Y0071549D02*
Y0067551D01*
Y0069550D01*
X0175884Y0070550D01*
X0176884Y0071549D01*
X0177884D01*
X0567400Y0087833D02*
Y0093831D01*
X0571399Y0087833D01*
Y0093831D01*
X0574398Y0087833D02*
X0576397D01*
X0577397Y0088833D01*
Y0090832D01*
X0576397Y0091832D01*
X0574398D01*
X0573398Y0090832D01*
Y0088833D01*
X0574398Y0087833D01*
X0580396Y0092832D02*
Y0091832D01*
X0579396D01*
X0581395D01*
X0580396D01*
Y0088833D01*
X0581395Y0087833D01*
X0590393Y0093831D02*
X0592392D01*
X0591392D01*
Y0087833D01*
X0590393D01*
X0592392D01*
X0595391D02*
Y0091832D01*
X0598390D01*
X0599390Y0090832D01*
Y0087833D01*
X0607387Y0093831D02*
Y0089833D01*
X0609386Y0087833D01*
X0611386Y0089833D01*
Y0093831D01*
X0616384Y0087833D02*
X0614385D01*
X0613385Y0088833D01*
Y0090832D01*
X0614385Y0091832D01*
X0616384D01*
X0617384Y0090832D01*
Y0089833D01*
X0613385D01*
X0619383Y0091832D02*
Y0087833D01*
Y0089833D01*
X0620383Y0090832D01*
X0621383Y0091832D01*
X0622382D01*
X0625381Y0087833D02*
X0628380D01*
X0629380Y0088833D01*
X0628380Y0089833D01*
X0626381D01*
X0625381Y0090832D01*
X0626381Y0091832D01*
X0629380D01*
X0631379Y0087833D02*
X0633379D01*
X0632379D01*
Y0091832D01*
X0631379D01*
X0637377Y0087833D02*
X0639377D01*
X0640376Y0088833D01*
Y0090832D01*
X0639377Y0091832D01*
X0637377D01*
X0636378Y0090832D01*
Y0088833D01*
X0637377Y0087833D01*
X0642376D02*
Y0091832D01*
X0645375D01*
X0646374Y0090832D01*
Y0087833D01*
X0652373Y0092832D02*
X0651373Y0093831D01*
X0649373D01*
X0648374Y0092832D01*
Y0088833D01*
X0649373Y0087833D01*
X0651373D01*
X0652373Y0088833D01*
X0655372Y0087833D02*
X0657371D01*
X0658371Y0088833D01*
Y0090832D01*
X0657371Y0091832D01*
X0655372D01*
X0654372Y0090832D01*
Y0088833D01*
X0655372Y0087833D01*
X0660370D02*
Y0091832D01*
X0663369D01*
X0664369Y0090832D01*
Y0087833D01*
X0667368Y0092832D02*
Y0091832D01*
X0666368D01*
X0668367D01*
X0667368D01*
Y0088833D01*
X0668367Y0087833D01*
X0671366Y0091832D02*
Y0087833D01*
Y0089833D01*
X0672366Y0090832D01*
X0673366Y0091832D01*
X0674365D01*
X0678364Y0087833D02*
X0680364D01*
X0681363Y0088833D01*
Y0090832D01*
X0680364Y0091832D01*
X0678364D01*
X0677364Y0090832D01*
Y0088833D01*
X0678364Y0087833D01*
X0683362D02*
X0685362D01*
X0684362D01*
Y0093831D01*
X0683362D01*
X0520799Y0092832D02*
X0519799Y0093831D01*
X0517800D01*
X0516800Y0092832D01*
Y0091832D01*
X0517800Y0090832D01*
X0519799D01*
X0520799Y0089833D01*
Y0088833D01*
X0519799Y0087833D01*
X0517800D01*
X0516800Y0088833D01*
X0522798Y0093831D02*
Y0089833D01*
X0524797Y0087833D01*
X0526797Y0089833D01*
Y0093831D01*
X0528796Y0087833D02*
Y0093831D01*
X0532795Y0087833D01*
Y0093831D01*
X0540792Y0087833D02*
Y0093831D01*
X0543791D01*
X0544791Y0092832D01*
Y0090832D01*
X0543791Y0089833D01*
X0540792D01*
X0542792D02*
X0544791Y0087833D01*
X0550789Y0093831D02*
X0546790D01*
Y0087833D01*
X0550789D01*
X0546790Y0090832D02*
X0548790D01*
X0552788Y0093831D02*
Y0089833D01*
X0554788Y0087833D01*
X0556787Y0089833D01*
Y0093831D01*
X0558786Y0091832D02*
X0559786D01*
Y0090832D01*
X0558786D01*
Y0091832D01*
Y0088833D02*
X0559786D01*
Y0087833D01*
X0558786D01*
Y0088833D01*
X0433000Y0087833D02*
Y0093831D01*
X0435999D01*
X0436999Y0092832D01*
Y0090832D01*
X0435999Y0089833D01*
X0433000D01*
X0434999D02*
X0436999Y0087833D01*
X0442997Y0093831D02*
X0438998D01*
Y0087833D01*
X0442997D01*
X0438998Y0090832D02*
X0440997D01*
X0444996Y0093831D02*
Y0089833D01*
X0446995Y0087833D01*
X0448995Y0089833D01*
Y0093831D01*
X0450994Y0091832D02*
X0451994D01*
Y0090832D01*
X0450994D01*
Y0091832D01*
Y0088833D02*
X0451994D01*
Y0087833D01*
X0450994D01*
Y0088833D01*
X0126900Y0052965D02*
Y0046966D01*
Y0049966D01*
X0130899D01*
Y0052965D01*
Y0046966D01*
X0132898Y0052965D02*
Y0048966D01*
X0134897Y0046966D01*
X0136897Y0048966D01*
Y0052965D01*
X0138896Y0046966D02*
Y0052965D01*
X0141895D01*
X0142895Y0051965D01*
Y0049966D01*
X0141895Y0048966D01*
X0138896D01*
X0144894Y0051965D02*
X0145894Y0052965D01*
X0147893D01*
X0148893Y0051965D01*
Y0047966D01*
X0147893Y0046966D01*
X0145894D01*
X0144894Y0047966D01*
Y0051965D01*
X0150892Y0046966D02*
X0152892D01*
X0151892D01*
Y0052965D01*
X0150892Y0051965D01*
X0159889Y0046966D02*
X0155891D01*
X0159889Y0050965D01*
Y0051965D01*
X0158890Y0052965D01*
X0156890D01*
X0155891Y0051965D01*
X0161889Y0046966D02*
Y0050965D01*
X0163888Y0052965D01*
X0165887Y0050965D01*
Y0046966D01*
Y0049966D01*
X0161889D01*
X0167887Y0046966D02*
Y0047966D01*
X0168886D01*
Y0046966D01*
X0167887D01*
X0176884Y0051965D02*
X0175884Y0052965D01*
X0173885D01*
X0172885Y0051965D01*
Y0047966D01*
X0173885Y0046966D01*
X0175884D01*
X0176884Y0047966D01*
Y0049966D01*
X0174884D01*
X0178883Y0052965D02*
X0182882D01*
X0180883D01*
Y0046966D01*
X0184881Y0052965D02*
Y0046966D01*
X0188880D01*
X0384149D02*
Y0052965D01*
X0381150Y0049966D01*
X0385149D01*
X0387148Y0046966D02*
X0391147Y0050965D01*
X0393146Y0051965D02*
X0394146Y0052965D01*
X0396145D01*
X0397145Y0051965D01*
Y0050965D01*
X0396145Y0049966D01*
X0397145Y0048966D01*
Y0047966D01*
X0396145Y0046966D01*
X0394146D01*
X0393146Y0047966D01*
Y0048966D01*
X0394146Y0049966D01*
X0393146Y0050965D01*
Y0051965D01*
X0394146Y0049966D02*
X0396145D01*
X0399144Y0046966D02*
X0403143Y0050965D01*
X0409141Y0046966D02*
X0405142D01*
X0409141Y0050965D01*
Y0051965D01*
X0408141Y0052965D01*
X0406142D01*
X0405142Y0051965D01*
X0411140D02*
X0412140Y0052965D01*
X0414139D01*
X0415139Y0051965D01*
Y0047966D01*
X0414139Y0046966D01*
X0412140D01*
X0411140Y0047966D01*
Y0051965D01*
X0417138Y0046966D02*
X0419138D01*
X0418138D01*
Y0052965D01*
X0417138Y0051965D01*
X0422137Y0047966D02*
X0423136Y0046966D01*
X0425136D01*
X0426135Y0047966D01*
Y0051965D01*
X0425136Y0052965D01*
X0423136D01*
X0422137Y0051965D01*
Y0050965D01*
X0423136Y0049966D01*
X0426135D01*
X0298199Y0051965D02*
X0297199Y0052965D01*
X0295200D01*
X0294200Y0051965D01*
Y0047966D01*
X0295200Y0046966D01*
X0297199D01*
X0298199Y0047966D01*
Y0049966D01*
X0296199D01*
X0304197Y0052965D02*
X0300198D01*
Y0046966D01*
X0304197D01*
X0300198Y0049966D02*
X0302197D01*
X0306196Y0046966D02*
Y0052965D01*
X0310195Y0046966D01*
Y0052965D01*
X0316193D02*
X0312194D01*
Y0046966D01*
X0316193D01*
X0312194Y0049966D02*
X0314194D01*
X0318192Y0046966D02*
Y0052965D01*
X0321191D01*
X0322191Y0051965D01*
Y0049966D01*
X0321191Y0048966D01*
X0318192D01*
X0320192D02*
X0322191Y0046966D01*
X0324190D02*
Y0050965D01*
X0326190Y0052965D01*
X0328189Y0050965D01*
Y0046966D01*
Y0049966D01*
X0324190D01*
X0330188Y0052965D02*
X0334187D01*
X0332188D01*
Y0046966D01*
X0340185Y0052965D02*
X0336186D01*
Y0046966D01*
X0340185D01*
X0336186Y0049966D02*
X0338186D01*
X0342184Y0052965D02*
Y0046966D01*
X0345183D01*
X0346183Y0047966D01*
Y0051965D01*
X0345183Y0052965D01*
X0342184D01*
X0372175Y0050965D02*
X0373175D01*
Y0049966D01*
X0372175D01*
Y0050965D01*
Y0047966D02*
X0373175D01*
Y0046966D01*
X0372175D01*
Y0047966D01*
X0046350Y0087833D02*
Y0091832D01*
X0048349Y0093831D01*
X0050349Y0091832D01*
Y0087833D01*
Y0090832D01*
X0046350D01*
X0052348Y0093831D02*
Y0087833D01*
X0056347D01*
X0058346Y0093831D02*
Y0087833D01*
X0062345D01*
X0070342D02*
Y0091832D01*
X0072342Y0093831D01*
X0074341Y0091832D01*
Y0087833D01*
Y0090832D01*
X0070342D01*
X0076340Y0087833D02*
Y0093831D01*
X0079339D01*
X0080339Y0092832D01*
Y0090832D01*
X0079339Y0089833D01*
X0076340D01*
X0078340D02*
X0080339Y0087833D01*
X0082338Y0093831D02*
X0086337D01*
X0084338D01*
Y0087833D01*
X0088336Y0093831D02*
Y0087833D01*
X0090336Y0089833D01*
X0092335Y0087833D01*
Y0093831D01*
X0097334D02*
X0095334D01*
X0094335Y0092832D01*
Y0088833D01*
X0095334Y0087833D01*
X0097334D01*
X0098333Y0088833D01*
Y0092832D01*
X0097334Y0093831D01*
X0100332Y0087833D02*
Y0093831D01*
X0103332D01*
X0104331Y0092832D01*
Y0090832D01*
X0103332Y0089833D01*
X0100332D01*
X0102332D02*
X0104331Y0087833D01*
X0106331Y0093831D02*
Y0087833D01*
Y0089833D01*
X0110329Y0093831D01*
X0107330Y0090832D01*
X0110329Y0087833D01*
X0118327Y0093831D02*
Y0089833D01*
X0120326Y0087833D01*
X0122325Y0089833D01*
Y0093831D01*
X0124325D02*
X0126324D01*
X0125324D01*
Y0087833D01*
X0124325D01*
X0126324D01*
X0133322Y0093831D02*
X0129323D01*
Y0087833D01*
X0133322D01*
X0129323Y0090832D02*
X0131323D01*
X0135321Y0093831D02*
Y0087833D01*
X0137321Y0089833D01*
X0139320Y0087833D01*
Y0093831D01*
X0145318D02*
X0141319D01*
Y0087833D01*
X0145318D01*
X0141319Y0090832D02*
X0143319D01*
X0147317Y0093831D02*
Y0087833D01*
X0150316D01*
X0151316Y0088833D01*
Y0092832D01*
X0150316Y0093831D01*
X0147317D01*
X0163312D02*
X0159313D01*
Y0090832D01*
X0161313D01*
X0159313D01*
Y0087833D01*
X0165312D02*
Y0093831D01*
X0168310D01*
X0169310Y0092832D01*
Y0090832D01*
X0168310Y0089833D01*
X0165312D01*
X0167311D02*
X0169310Y0087833D01*
X0174309Y0093831D02*
X0172309D01*
X0171310Y0092832D01*
Y0088833D01*
X0172309Y0087833D01*
X0174309D01*
X0175308Y0088833D01*
Y0092832D01*
X0174309Y0093831D01*
X0177308Y0087833D02*
Y0093831D01*
X0179307Y0091832D01*
X0181306Y0093831D01*
Y0087833D01*
X0189304Y0093831D02*
X0193303D01*
X0191303D01*
Y0087833D01*
X0198301Y0093831D02*
X0196301D01*
X0195302Y0092832D01*
Y0088833D01*
X0196301Y0087833D01*
X0198301D01*
X0199301Y0088833D01*
Y0092832D01*
X0198301Y0093831D01*
X0201300Y0087833D02*
Y0093831D01*
X0204299D01*
X0205299Y0092832D01*
Y0090832D01*
X0204299Y0089833D01*
X0201300D01*
X0217295Y0092832D02*
X0216295Y0093831D01*
X0214296D01*
X0213296Y0092832D01*
Y0091832D01*
X0214296Y0090832D01*
X0216295D01*
X0217295Y0089833D01*
Y0088833D01*
X0216295Y0087833D01*
X0214296D01*
X0213296Y0088833D01*
X0219294Y0093831D02*
X0221293D01*
X0220294D01*
Y0087833D01*
X0219294D01*
X0221293D01*
X0224292Y0093831D02*
Y0087833D01*
X0227291D01*
X0228291Y0088833D01*
Y0092832D01*
X0227291Y0093831D01*
X0224292D01*
X0234289D02*
X0230291D01*
Y0087833D01*
X0234289D01*
X0230291Y0090832D02*
X0232290D01*
X0462150Y0087833D02*
Y0091832D01*
X0464149Y0093831D01*
X0466149Y0091832D01*
Y0087833D01*
Y0090832D01*
X0462150D01*
X0348550Y0093831D02*
Y0087833D01*
Y0090832D01*
X0352549D01*
Y0093831D01*
Y0087833D01*
X0354548Y0093831D02*
Y0089833D01*
X0356547Y0087833D01*
X0358547Y0089833D01*
Y0093831D01*
X0360546Y0087833D02*
Y0093831D01*
X0363545D01*
X0364545Y0092832D01*
Y0090832D01*
X0363545Y0089833D01*
X0360546D01*
X0366544Y0092832D02*
X0367544Y0093831D01*
X0369543D01*
X0370543Y0092832D01*
Y0088833D01*
X0369543Y0087833D01*
X0367544D01*
X0366544Y0088833D01*
Y0092832D01*
X0372542Y0087833D02*
X0374542D01*
X0373542D01*
Y0093831D01*
X0372542Y0092832D01*
X0381539Y0087833D02*
X0377541D01*
X0381539Y0091832D01*
Y0092832D01*
X0380540Y0093831D01*
X0378540D01*
X0377541Y0092832D01*
X0294000Y0093831D02*
Y0087833D01*
X0296999D01*
X0297999Y0088833D01*
Y0089833D01*
X0296999Y0090832D01*
X0294000D01*
X0296999D01*
X0297999Y0091832D01*
Y0092832D01*
X0296999Y0093831D01*
X0294000D01*
X0302997D02*
X0300998D01*
X0299998Y0092832D01*
Y0088833D01*
X0300998Y0087833D01*
X0302997D01*
X0303997Y0088833D01*
Y0092832D01*
X0302997Y0093831D01*
X0305996Y0087833D02*
Y0091832D01*
X0307996Y0093831D01*
X0309995Y0091832D01*
Y0087833D01*
Y0090832D01*
X0305996D01*
X0311994Y0087833D02*
Y0093831D01*
X0314993D01*
X0315993Y0092832D01*
Y0090832D01*
X0314993Y0089833D01*
X0311994D01*
X0313994D02*
X0315993Y0087833D01*
X0317992Y0093831D02*
Y0087833D01*
X0320991D01*
X0321991Y0088833D01*
Y0092832D01*
X0320991Y0093831D01*
X0317992D01*
X0330988Y0087833D02*
Y0093831D01*
X0332987D02*
Y0087833D01*
X0329988Y0091832D02*
X0332987D01*
X0333987D01*
X0329988Y0089833D02*
X0333987D01*
X0335986Y0091832D02*
X0336986D01*
Y0090832D01*
X0335986D01*
Y0091832D01*
Y0088833D02*
X0336986D01*
Y0087833D01*
X0335986D01*
Y0088833D01*
X0046350Y0073549D02*
Y0067551D01*
X0050349D01*
X0052348D02*
Y0071549D01*
X0054347Y0073549D01*
X0056347Y0071549D01*
Y0067551D01*
Y0070550D01*
X0052348D01*
X0058346Y0073549D02*
Y0072549D01*
X0060346Y0070550D01*
X0062345Y0072549D01*
Y0073549D01*
X0060346Y0070550D02*
Y0067551D01*
X0068343Y0073549D02*
X0064344D01*
Y0067551D01*
X0068343D01*
X0064344Y0070550D02*
X0066343D01*
X0070342Y0067551D02*
Y0073549D01*
X0073341D01*
X0074341Y0072549D01*
Y0070550D01*
X0073341Y0069550D01*
X0070342D01*
X0072342D02*
X0074341Y0067551D01*
X0082338D02*
Y0073549D01*
X0086337Y0067551D01*
Y0073549D01*
X0088336Y0067551D02*
Y0071549D01*
X0090336Y0073549D01*
X0092335Y0071549D01*
Y0067551D01*
Y0070550D01*
X0088336D01*
X0094335Y0067551D02*
Y0073549D01*
X0096334Y0071549D01*
X0098333Y0073549D01*
Y0067551D01*
X0104331Y0073549D02*
X0100332D01*
Y0067551D01*
X0104331D01*
X0100332Y0070550D02*
X0102332D01*
X0112329Y0069550D02*
X0116327D01*
X0112329Y0071549D02*
X0116327D01*
X0046350Y0046966D02*
Y0052965D01*
X0049349D01*
X0050349Y0051965D01*
Y0049966D01*
X0049349Y0048966D01*
X0046350D01*
X0052348Y0052965D02*
Y0046966D01*
X0056347D01*
X0061345Y0052965D02*
X0059346D01*
X0058346Y0051965D01*
Y0047966D01*
X0059346Y0046966D01*
X0061345D01*
X0062345Y0047966D01*
Y0051965D01*
X0061345Y0052965D01*
X0064344D02*
X0068343D01*
X0066343D01*
Y0046966D01*
X0076340D02*
Y0052965D01*
X0080339Y0046966D01*
Y0052965D01*
X0082338Y0046966D02*
Y0050965D01*
X0084338Y0052965D01*
X0086337Y0050965D01*
Y0046966D01*
Y0049966D01*
X0082338D01*
X0088336Y0046966D02*
Y0052965D01*
X0090336Y0050965D01*
X0092335Y0052965D01*
Y0046966D01*
X0098333Y0052965D02*
X0094335D01*
Y0046966D01*
X0098333D01*
X0094335Y0049966D02*
X0096334D01*
X0106331Y0048966D02*
X0110329D01*
X0106331Y0050965D02*
X0110329D01*
X0454050Y0051965D02*
X0455050Y0052965D01*
X0457049D01*
X0458049Y0051965D01*
Y0050965D01*
X0457049Y0049966D01*
X0456049D01*
X0457049D01*
X0458049Y0048966D01*
Y0047966D01*
X0457049Y0046966D01*
X0455050D01*
X0454050Y0047966D01*
X0460048Y0050965D02*
X0461048D01*
Y0049966D01*
X0460048D01*
Y0050965D01*
Y0047966D02*
X0461048D01*
Y0046966D01*
X0460048D01*
Y0047966D01*
X0469045Y0046966D02*
X0465046D01*
X0469045Y0050965D01*
Y0051965D01*
X0468046Y0052965D01*
X0466046D01*
X0465046Y0051965D01*
X0471044Y0047966D02*
X0472044Y0046966D01*
X0474044D01*
X0475043Y0047966D01*
Y0051965D01*
X0474044Y0052965D01*
X0472044D01*
X0471044Y0051965D01*
Y0050965D01*
X0472044Y0049966D01*
X0475043D01*
X0477043Y0050965D02*
X0478042D01*
Y0049966D01*
X0477043D01*
Y0050965D01*
Y0047966D02*
X0478042D01*
Y0046966D01*
X0477043D01*
Y0047966D01*
X0486040Y0052965D02*
X0482041D01*
Y0049966D01*
X0484040Y0050965D01*
X0485040D01*
X0486040Y0049966D01*
Y0047966D01*
X0485040Y0046966D01*
X0483041D01*
X0482041Y0047966D01*
X0488039Y0051965D02*
X0489039Y0052965D01*
X0491038D01*
X0492038Y0051965D01*
Y0050965D01*
X0491038Y0049966D01*
X0490038D01*
X0491038D01*
X0492038Y0048966D01*
Y0047966D01*
X0491038Y0046966D01*
X0489039D01*
X0488039Y0047966D01*
X0500035Y0046966D02*
Y0052965D01*
X0503034D01*
X0504034Y0051965D01*
Y0049966D01*
X0503034Y0048966D01*
X0500035D01*
X0506033Y0046966D02*
Y0052965D01*
X0508033Y0050965D01*
X0510032Y0052965D01*
Y0046966D01*
X0580500Y0052965D02*
X0584499D01*
X0582499D01*
Y0046966D01*
X0590497Y0052965D02*
X0586498D01*
Y0046966D01*
X0590497D01*
X0586498Y0049966D02*
X0588497D01*
X0592496Y0052965D02*
X0596495Y0046966D01*
Y0052965D02*
X0592496Y0046966D01*
X0598494D02*
Y0050965D01*
X0600493Y0052965D01*
X0602493Y0050965D01*
Y0046966D01*
Y0049966D01*
X0598494D01*
X0608491Y0051965D02*
X0607491Y0052965D01*
X0605492D01*
X0604492Y0051965D01*
Y0050965D01*
X0605492Y0049966D01*
X0607491D01*
X0608491Y0048966D01*
Y0047966D01*
X0607491Y0046966D01*
X0605492D01*
X0604492Y0047966D01*
X0616488Y0052965D02*
X0618488D01*
X0617488D01*
Y0046966D01*
X0616488D01*
X0618488D01*
X0621487D02*
Y0052965D01*
X0625486Y0046966D01*
Y0052965D01*
X0631484Y0051965D02*
X0630484Y0052965D01*
X0628484D01*
X0627485Y0051965D01*
Y0050965D01*
X0628484Y0049966D01*
X0630484D01*
X0631484Y0048966D01*
Y0047966D01*
X0630484Y0046966D01*
X0628484D01*
X0627485Y0047966D01*
X0633483Y0052965D02*
X0637482D01*
X0635482D01*
Y0046966D01*
X0639481D02*
Y0052965D01*
X0642480D01*
X0643480Y0051965D01*
Y0049966D01*
X0642480Y0048966D01*
X0639481D01*
X0641480D02*
X0643480Y0046966D01*
X0645479Y0052965D02*
Y0047966D01*
X0646479Y0046966D01*
X0648478D01*
X0649478Y0047966D01*
Y0052965D01*
X0651477Y0046966D02*
Y0052965D01*
X0653476Y0050965D01*
X0655476Y0052965D01*
Y0046966D01*
X0661474Y0052965D02*
X0657475D01*
Y0046966D01*
X0661474D01*
X0657475Y0049966D02*
X0659474D01*
X0663473Y0046966D02*
Y0052965D01*
X0667472Y0046966D01*
Y0052965D01*
X0669471D02*
X0673470D01*
X0671471D01*
Y0046966D01*
X0679468Y0051965D02*
X0678468Y0052965D01*
X0676469D01*
X0675469Y0051965D01*
Y0050965D01*
X0676469Y0049966D01*
X0678468D01*
X0679468Y0048966D01*
Y0047966D01*
X0678468Y0046966D01*
X0676469D01*
X0675469Y0047966D01*
G54D19*
X0200100Y0291520D02*
X0207065D01*
X0215800Y0296100D02*
Y0296500D01*
X0284400Y0289700D02*
X0289250Y0294550D01*
X0262749Y0278400D02*
X0262875Y0278525D01*
X0261900Y0278400D02*
X0262749D01*
X0262875Y0278525D02*
X0263200Y0278200D01*
X0207065Y0291520D02*
Y0303335D01*
Y0291520D02*
X0209101D01*
X0209271Y0291350D01*
X0204300Y0306100D02*
X0207065Y0303335D01*
X0222901Y0273100D02*
X0223500Y0272501D01*
Y0271500D02*
Y0272501D01*
X0224900Y0261200D02*
X0227400Y0258700D01*
X0224900Y0261200D02*
Y0270100D01*
X0223500Y0271500D02*
X0224900Y0270100D01*
X0219750Y0292829D02*
Y0293750D01*
X0218100Y0295400D02*
X0219750Y0293750D01*
X0219512Y0279321D02*
X0220612Y0280421D01*
Y0291967D01*
X0219750Y0292829D02*
X0220612Y0291967D01*
X0294645Y0295900D02*
X0314703D01*
X0293295Y0294550D02*
X0294645Y0295900D01*
X0289250Y0294550D02*
X0293295D01*
X0284400Y0289700D02*
X0285100D01*
G54D28*
X0208488Y0279321D02*
D03*
Y0271447D02*
D03*
Y0269479D02*
D03*
Y0273416D02*
D03*
X0219512D02*
D03*
Y0269479D02*
D03*
Y0271447D02*
D03*
Y0277353D02*
D03*
Y0279321D02*
D03*
G54D29*
X0214000Y0281880D02*
D03*
X0212032D02*
D03*
X0210063D02*
D03*
X0215968D02*
D03*
X0217937D02*
D03*
Y0266920D02*
D03*
X0215968D02*
D03*
X0210063D02*
D03*
X0212032D02*
D03*
X0214000D02*
D03*
G54D30*
X0270300Y0265009D02*
D03*
Y0253591D02*
D03*
X0258600Y0265109D02*
D03*
Y0253691D02*
D03*
X0265900Y0303609D02*
D03*
Y0292191D02*
D03*
X0253600Y0303509D02*
D03*
Y0292091D02*
D03*
X0282500Y0253591D02*
D03*
Y0265009D02*
D03*
G54D31*
X0209450Y0260800D02*
D03*
X0215750D02*
D03*
G54D32*
X0212600Y0262375D02*
D03*
Y0259225D02*
D03*
G54D33*
X0234500Y0288100D02*
D03*
Y0296100D02*
D03*
X0242600Y0288200D02*
D03*
Y0296200D02*
D03*
X0226600Y0288000D02*
D03*
Y0296000D02*
D03*
G54D34*
X0304581Y0336351D02*
D03*
X0283322D02*
D03*
G54D35*
X0184350Y0279500D02*
D03*
X0190650D02*
D03*
X0175250Y0348600D02*
D03*
X0168950D02*
D03*
G54D36*
X0216000Y0285050D02*
D03*
Y0291350D02*
D03*
G54D37*
X0214425Y0288200D02*
D03*
X0217575D02*
D03*
G54D38*
X0323549Y0278322D02*
D03*
Y0249581D02*
D03*
G54D40*
X0191834Y0348400D02*
D03*
X0183566D02*
D03*
X0370234Y0340600D02*
D03*
X0361966D02*
D03*
G54D41*
X0339700Y0198000D02*
D03*
X0350600Y0345400D02*
D03*
X0204300Y0373000D02*
D03*
G54D44*
X0198838Y0272600D02*
D03*
X0203562D02*
D03*
X0198838Y0267500D02*
D03*
X0203562D02*
D03*
G54D45*
X0222601Y0279600D02*
D03*
X0225199D02*
D03*
X0222901Y0273100D02*
D03*
X0225499D02*
D03*
G54D46*
X0268500Y0272349D02*
D03*
Y0278451D02*
D03*
G54D47*
X0218200Y0259501D02*
D03*
Y0262099D02*
D03*
X0220800Y0261701D02*
D03*
Y0264299D02*
D03*
G54D48*
X0220161Y0217821D02*
D03*
Y0207979D02*
D03*
X0279239D02*
D03*
Y0217821D02*
D03*
G54D49*
X0240239Y0212900D02*
D03*
X0259161D02*
D03*
G54D50*
X0182887Y0273140D02*
D03*
Y0269400D02*
D03*
Y0265660D02*
D03*
X0193713D02*
D03*
Y0269400D02*
D03*
Y0273140D02*
D03*
G54D83*
X0169000Y0287000D02*
D03*
Y0297000D02*
D03*
Y0307000D02*
D03*
G54D84*
Y0317000D02*
D03*
G54D92*
X0214000Y0278239D02*
D03*
G54D93*
X0214000Y0271447D02*
D03*
G54D94*
X0200200Y0282069D02*
D03*
Y0290731D02*
D03*
G54D95*
X0215000Y0288200D02*
D03*
X0212000D02*
D03*
G54D96*
X0243187Y0280600D02*
D03*
X0241612Y0280600D02*
D03*
X0240037Y0280600D02*
D03*
X0238462D02*
D03*
X0236887D02*
D03*
X0235313D02*
D03*
X0233738D02*
D03*
X0232163D02*
D03*
X0230588Y0280600D02*
D03*
X0243287Y0270900D02*
D03*
X0241712Y0270900D02*
D03*
X0240137Y0270900D02*
D03*
X0238562D02*
D03*
X0236987D02*
D03*
X0235413D02*
D03*
X0233838D02*
D03*
X0232263D02*
D03*
X0230688Y0270900D02*
D03*
G54D97*
X0229013Y0279021D02*
D03*
X0229013Y0282179D02*
D03*
X0229113Y0269321D02*
D03*
X0229113Y0272479D02*
D03*
G54D98*
X0211679Y0265422D02*
X0212032D01*
X0239856Y0274148D02*
X0240137D01*
X0236706D02*
X0237233D01*
X0239892Y0274113D02*
X0240137D01*
X0236742Y0274113D02*
X0236987D01*
Y0274113D02*
X0237233D01*
X0236742D02*
X0236987D01*
X0233838D02*
X0234083D01*
X0205600Y0210400D02*
X0217739D01*
X0204200D02*
X0205600D01*
X0180400Y0269500D02*
X0186000D01*
X0179900D02*
X0180400D01*
X0190700Y0267000D02*
X0192040Y0265660D01*
X0180400Y0269500D02*
X0180500Y0269400D01*
X0192040Y0265660D02*
X0193713D01*
X0370000Y0344200D02*
X0370234Y0343966D01*
Y0340600D02*
Y0343966D01*
X0182366Y0348600D02*
X0182966Y0348000D01*
X0175250Y0348600D02*
X0182366D01*
X0243287Y0270900D02*
Y0274148D01*
X0240383Y0274113D02*
Y0274803D01*
X0240137Y0274113D02*
X0240383D01*
X0239856Y0274148D02*
X0239892Y0274113D01*
X0239201Y0274803D02*
X0239856Y0274148D01*
X0240137Y0274113D02*
Y0274148D01*
Y0270900D02*
Y0274113D01*
X0237233Y0274803D02*
X0237268D01*
X0237233Y0274148D02*
Y0274803D01*
Y0274113D02*
Y0274148D01*
X0236742Y0274113D02*
X0236742Y0274113D01*
X0236706Y0274148D02*
X0236742Y0274113D01*
X0236051Y0274803D02*
X0236706Y0274148D01*
X0237268D02*
Y0274803D01*
X0237233Y0274148D02*
X0237268D01*
X0236987Y0274113D02*
Y0274113D01*
Y0270900D02*
Y0274113D01*
X0234119Y0274803D02*
X0234266D01*
X0234083D02*
X0234119D01*
X0234083Y0274478D02*
Y0274803D01*
Y0274148D02*
Y0274478D01*
Y0274113D02*
Y0274148D01*
X0234266Y0274803D02*
X0236051D01*
X0234119Y0274443D02*
Y0274803D01*
Y0274148D02*
Y0274443D01*
X0234083Y0274148D02*
X0234119D01*
X0233873D02*
X0234083D01*
X0234266Y0274295D02*
Y0274803D01*
X0234119Y0274443D02*
X0234266Y0274295D01*
X0234083Y0274478D02*
X0234119Y0274443D01*
X0233900Y0274661D02*
X0234083Y0274478D01*
X0243251Y0274113D02*
X0243287Y0274148D01*
X0243041Y0274113D02*
X0243251D01*
X0242350Y0274803D02*
X0243041Y0274113D01*
X0240383Y0274803D02*
X0242350D01*
X0237268D02*
X0239201D01*
X0233838Y0274113D02*
X0233873Y0274148D01*
X0233838Y0270900D02*
Y0274113D01*
Y0274599D02*
X0233900Y0274661D01*
X0233838Y0274113D02*
Y0274599D01*
X0230600Y0274201D02*
Y0274800D01*
Y0274201D02*
X0230688Y0274113D01*
Y0270900D02*
Y0274113D01*
X0217739Y0210400D02*
X0220161Y0207979D01*
X0267200Y0216900D02*
X0268121Y0217821D01*
X0279239D01*
X0274318Y0212900D02*
X0279239Y0207979D01*
X0259161Y0212900D02*
X0274318D01*
X0193713Y0265660D02*
X0196998D01*
X0198838Y0267500D01*
X0187700Y0271000D02*
Y0275250D01*
X0186100Y0269400D02*
X0187700Y0271000D01*
X0180500Y0269400D02*
X0182887D01*
X0186000Y0269500D02*
X0186100Y0269400D01*
X0184450Y0278500D02*
X0186700Y0276250D01*
X0187700Y0275250D01*
X0196400Y0272600D02*
X0198838D01*
X0193713Y0273140D02*
X0194254Y0272600D01*
X0196400D01*
X0189400Y0270500D02*
Y0278500D01*
X0209700Y0288200D02*
X0212000D01*
X0207600Y0286100D02*
X0209700Y0288200D01*
X0249472Y0212900D02*
X0259161D01*
X0235318Y0217821D02*
X0240239Y0212900D01*
X0220161Y0217821D02*
X0235318D01*
X0241072Y0221300D02*
X0249472Y0212900D01*
X0220800Y0250732D02*
X0221400Y0250132D01*
X0229300Y0221300D02*
X0241072D01*
X0221400Y0229200D02*
Y0250132D01*
Y0229200D02*
X0229300Y0221300D01*
X0209980Y0264239D02*
X0210342Y0264600D01*
X0212032Y0265422D02*
Y0266920D01*
X0210978Y0264721D02*
X0211679Y0265422D01*
X0220800Y0250732D02*
Y0261804D01*
X0218200Y0219782D02*
Y0259304D01*
Y0219782D02*
X0220161Y0217821D01*
X0207600Y0286100D02*
X0210200D01*
X0212032Y0284268D01*
Y0281880D02*
Y0284268D01*
X0189400Y0270500D02*
X0190500Y0269400D01*
X0193713D01*
G54D99*
X0250841Y0293629D02*
Y0293932D01*
X0245412Y0288200D02*
X0250841Y0293629D01*
G54D100*
X0188800Y0246500D02*
Y0249400D01*
X0202700Y0263300D01*
X0209042D01*
X0209980Y0264239D01*
G54D101*
X0342371Y0323500D02*
X0358400D01*
X0314703Y0295900D02*
X0342371Y0323500D01*
G54D102*
X0361966Y0340600D02*
X0365100Y0343734D01*
G54D103*
X0220950Y0268900D02*
D03*
X0207350Y0279400D02*
D03*
G54D104*
X0212600Y0260800D02*
D03*
G54D105*
X0216000Y0288200D02*
D03*
G54D106*
X0169358Y0243858D02*
D03*
X0204300Y0326100D02*
D03*
X0217500Y0316500D02*
D03*
X0185100Y0311400D02*
D03*
X0227400Y0238700D02*
D03*
X0193458Y0300242D02*
D03*
G54D107*
X0183500Y0258000D02*
D03*
X0204300Y0306100D02*
D03*
X0217500Y0296500D02*
D03*
X0185100Y0291400D02*
D03*
X0227400Y0258700D02*
D03*
X0207600Y0286100D02*
D03*
G54D108*
X0180200Y0372900D02*
D03*
Y0197400D02*
D03*
X0362700D02*
D03*
Y0372900D02*
D03*
G54D109*
X0179000Y0220800D02*
D03*
G54D110*
Y0230800D02*
D03*
G54D111*
X0304800Y0369000D02*
D03*
G54D112*
X0284800D02*
D03*
X0359000Y0268400D02*
D03*
G54D113*
X0187700Y0336900D02*
D03*
X0245200Y0223900D02*
D03*
X0285100Y0289700D02*
D03*
G54D114*
X0187700Y0326900D02*
D03*
G54D115*
X0359000Y0248400D02*
D03*
G54D116*
X0255200Y0223900D02*
D03*
X0295100Y0289700D02*
D03*
G54D117*
X0205200Y0228900D02*
D03*
X0188800Y0246500D02*
D03*
X0205600Y0210400D02*
D03*
X0254300Y0381700D02*
D03*
X0364700Y0224400D02*
D03*
G54D118*
X0329400Y0380700D02*
D03*
X0358400Y0323500D02*
D03*
G54D119*
X0211638Y0271447D02*
D03*
X0216362D02*
D03*
X0211638Y0278239D02*
D03*
X0216362D02*
D03*
G54D120*
X0216000Y0289100D02*
D03*
X0205900Y0269100D02*
D03*
X0203000Y0270300D02*
D03*
X0269007Y0293990D02*
D03*
X0265507D02*
D03*
X0262007D02*
D03*
X0257507Y0293790D02*
D03*
X0254307Y0293890D02*
D03*
X0251007D02*
D03*
X0261800Y0303900D02*
D03*
X0270100Y0303500D02*
D03*
X0250200Y0302900D02*
D03*
X0194000Y0278600D02*
D03*
X0179900Y0269500D02*
D03*
X0277100Y0276300D02*
D03*
X0242200Y0295100D02*
D03*
X0209200Y0258709D02*
D03*
X0246800Y0279500D02*
D03*
Y0277000D02*
D03*
Y0274300D02*
D03*
Y0269200D02*
D03*
Y0271800D02*
D03*
X0249400Y0273739D02*
D03*
Y0270739D02*
D03*
Y0276600D02*
D03*
Y0279800D02*
D03*
X0240400Y0295100D02*
D03*
X0236700Y0294900D02*
D03*
X0221800Y0270800D02*
D03*
X0235400Y0267100D02*
D03*
X0238500Y0267300D02*
D03*
X0241600Y0267400D02*
D03*
X0239900Y0265500D02*
D03*
X0236800Y0265400D02*
D03*
X0233700Y0265200D02*
D03*
X0230500Y0265300D02*
D03*
X0229000Y0277000D02*
D03*
X0196400Y0272600D02*
D03*
X0186100Y0269400D02*
D03*
X0186700Y0276250D02*
D03*
X0216000Y0287300D02*
D03*
X0211700Y0260900D02*
D03*
X0213500D02*
D03*
X0179119Y0272900D02*
D03*
X0254600Y0302800D02*
D03*
X0270100Y0278600D02*
D03*
X0270300Y0285200D02*
D03*
X0277100Y0278600D02*
D03*
X0273200Y0276100D02*
D03*
X0272800Y0278700D02*
D03*
X0273200Y0282900D02*
D03*
X0270200D02*
D03*
X0269900Y0276000D02*
D03*
X0277100Y0282900D02*
D03*
Y0285800D02*
D03*
X0273600Y0285600D02*
D03*
X0279700Y0276100D02*
D03*
Y0282900D02*
D03*
X0248807Y0292090D02*
D03*
X0261900Y0278400D02*
D03*
X0229200Y0294900D02*
D03*
X0227400D02*
D03*
X0225600D02*
D03*
X0244200Y0295100D02*
D03*
X0190800Y0267100D02*
D03*
X0223800Y0294900D02*
D03*
X0232200D02*
D03*
X0234400D02*
D03*
X0232200Y0267100D02*
D03*
X0229200D02*
D03*
X0249400Y0282800D02*
D03*
G54D121*
X0313300Y0335200D02*
D03*
X0278800Y0336800D02*
D03*
X0317300Y0250900D02*
D03*
X0329800Y0271600D02*
D03*
X0208900Y0251400D02*
D03*
X0285400Y0298400D02*
D03*
X0291700D02*
D03*
X0307600Y0300400D02*
D03*
X0303200D02*
D03*
X0297300Y0300300D02*
D03*
X0377500Y0244100D02*
D03*
Y0233100D02*
D03*
Y0238600D02*
D03*
X0372500Y0233100D02*
D03*
Y0238600D02*
D03*
Y0244100D02*
D03*
Y0249600D02*
D03*
X0378000D02*
D03*
X0329900Y0250800D02*
D03*
X0323367D02*
D03*
X0312600Y0251900D02*
D03*
X0307267D02*
D03*
X0301933D02*
D03*
X0296600D02*
D03*
X0301700Y0255300D02*
D03*
X0323033Y0256800D02*
D03*
X0312367Y0255300D02*
D03*
X0307033D02*
D03*
X0296367D02*
D03*
X0317700Y0256800D02*
D03*
X0329567D02*
D03*
X0328471Y0294900D02*
D03*
X0333900D02*
D03*
X0339329D02*
D03*
X0344757D02*
D03*
X0328186Y0300900D02*
D03*
X0333614D02*
D03*
X0339043D02*
D03*
X0344471D02*
D03*
X0329333Y0262600D02*
D03*
X0324000D02*
D03*
X0318667D02*
D03*
X0313333D02*
D03*
X0308000D02*
D03*
X0302667D02*
D03*
X0297333D02*
D03*
X0302533Y0266700D02*
D03*
X0323367Y0271300D02*
D03*
X0313200Y0266700D02*
D03*
X0307867D02*
D03*
X0297200D02*
D03*
X0318533D02*
D03*
X0377700Y0279500D02*
D03*
Y0264057D02*
D03*
Y0269486D02*
D03*
Y0274914D02*
D03*
X0371700Y0279214D02*
D03*
Y0263771D02*
D03*
Y0269200D02*
D03*
Y0274628D02*
D03*
X0311400Y0385000D02*
D03*
X0307400D02*
D03*
X0303400D02*
D03*
X0299400D02*
D03*
X0311400Y0388500D02*
D03*
X0307400D02*
D03*
X0303400D02*
D03*
X0299400D02*
D03*
X0282733Y0384500D02*
D03*
X0278567Y0388500D02*
D03*
X0282733D02*
D03*
X0286900D02*
D03*
X0291067D02*
D03*
X0291067Y0384500D02*
D03*
X0286900D02*
D03*
X0278567D02*
D03*
X0254500Y0325400D02*
D03*
X0258500D02*
D03*
X0312000Y0324000D02*
D03*
X0306000D02*
D03*
X0277000Y0354000D02*
D03*
Y0346000D02*
D03*
Y0329000D02*
D03*
X0283000D02*
D03*
Y0337000D02*
D03*
Y0346000D02*
D03*
Y0354000D02*
D03*
X0268200D02*
D03*
X0312200Y0354000D02*
D03*
X0312000Y0346000D02*
D03*
X0306000Y0335000D02*
D03*
Y0346000D02*
D03*
X0306200Y0354000D02*
D03*
X0307600Y0303400D02*
D03*
X0310200Y0309400D02*
D03*
X0303200Y0303400D02*
D03*
Y0309400D02*
D03*
X0297400Y0303800D02*
D03*
X0265643Y0325400D02*
D03*
X0261929D02*
D03*
X0258214Y0322148D02*
D03*
X0254310D02*
D03*
X0261929Y0322400D02*
D03*
X0265643D02*
D03*
X0196700Y0249900D02*
D03*
Y0246300D02*
D03*
X0212000Y0251000D02*
D03*
X0276200Y0315400D02*
D03*
X0279700D02*
D03*
X0298700Y0307400D02*
D03*
G54D122*
X0197500Y0276900D02*
D03*
X0370000Y0344200D02*
D03*
X0195800Y0348100D02*
D03*
X0267200Y0216900D02*
D03*
X0174200Y0276200D02*
D03*
X0365300Y0344300D02*
D03*
M02*
