G04*
G04 #@! TF.GenerationSoftware,Altium Limited,Altium Designer,18.1.9 (240)*
G04*
G04 Layer_Color=9218505*
%FSAX25Y25*%
%MOIN*%
G70*
G01*
G75*
%ADD11C,0.00787*%
%ADD15C,0.00700*%
%ADD16C,0.01000*%
%ADD17C,0.00800*%
%ADD18C,0.01400*%
%ADD19C,0.00500*%
G36*
X0296900Y0352800D02*
X0293200Y0354000D01*
X0294200Y0350700D01*
X0294700Y0351100D01*
X0294400Y0349000D01*
X0292800Y0350800D01*
X0293600Y0350600D01*
X0291600Y0355200D01*
X0295400Y0354100D01*
X0292700Y0359400D01*
X0294200D01*
X0296900Y0352800D01*
D02*
G37*
G36*
X0339400Y0269600D02*
X0335700Y0270800D01*
X0336700Y0267500D01*
X0337200Y0267900D01*
X0336900Y0265800D01*
X0335300Y0267600D01*
X0336100Y0267400D01*
X0334100Y0272000D01*
X0337900Y0270900D01*
X0335200Y0276200D01*
X0336700D01*
X0339400Y0269600D01*
D02*
G37*
G36*
X0283350Y0247400D02*
Y0247300D01*
X0283500D01*
Y0247400D01*
X0283600D01*
Y0247300D01*
Y0247200D01*
X0283700D01*
Y0247100D01*
X0283800D01*
Y0247000D01*
Y0246900D01*
X0283900D01*
Y0246800D01*
Y0246700D01*
X0284000D01*
Y0246600D01*
Y0246500D01*
X0284100D01*
Y0246400D01*
Y0246300D01*
Y0246200D01*
Y0246100D01*
X0284200D01*
Y0246000D01*
Y0245900D01*
Y0245800D01*
Y0245700D01*
Y0245600D01*
Y0245500D01*
Y0245400D01*
Y0245300D01*
Y0245200D01*
Y0245100D01*
Y0245000D01*
Y0244900D01*
X0284100D01*
Y0244800D01*
Y0244700D01*
Y0244600D01*
Y0244500D01*
X0284000D01*
Y0244400D01*
Y0244300D01*
Y0244200D01*
X0283900D01*
Y0244100D01*
Y0244000D01*
X0283800D01*
Y0243900D01*
Y0243800D01*
Y0243700D01*
X0283700D01*
Y0243600D01*
Y0243500D01*
X0283600D01*
Y0243400D01*
Y0243300D01*
X0283500D01*
Y0243200D01*
Y0243100D01*
X0283400D01*
Y0243000D01*
Y0242900D01*
X0283300D01*
Y0242800D01*
Y0242700D01*
X0283200D01*
Y0242600D01*
Y0242500D01*
Y0242400D01*
X0283100D01*
Y0242300D01*
Y0242200D01*
Y0242100D01*
X0283000D01*
Y0242000D01*
Y0241900D01*
Y0241800D01*
Y0241700D01*
Y0241600D01*
Y0241500D01*
Y0241400D01*
Y0241300D01*
Y0241200D01*
Y0241100D01*
Y0241000D01*
Y0240900D01*
Y0240800D01*
Y0240700D01*
X0283100D01*
Y0240600D01*
Y0240500D01*
Y0240400D01*
X0283200D01*
Y0240300D01*
Y0240200D01*
X0283300D01*
Y0240100D01*
Y0240000D01*
X0283400D01*
Y0239900D01*
Y0239800D01*
X0283500D01*
Y0239700D01*
X0283400D01*
Y0239600D01*
X0283100D01*
Y0239700D01*
X0282850D01*
Y0239800D01*
X0282750D01*
Y0239900D01*
Y0240000D01*
X0282650D01*
Y0240100D01*
Y0240200D01*
X0282550D01*
Y0240300D01*
Y0240400D01*
X0282450D01*
Y0240500D01*
Y0240600D01*
Y0240700D01*
Y0240800D01*
X0282350D01*
Y0240900D01*
Y0241000D01*
Y0241100D01*
Y0241200D01*
Y0241300D01*
Y0241400D01*
Y0241500D01*
Y0241600D01*
Y0241700D01*
Y0241800D01*
Y0241900D01*
Y0242000D01*
Y0242100D01*
Y0242200D01*
X0282450D01*
Y0242300D01*
Y0242400D01*
Y0242500D01*
X0282550D01*
Y0242600D01*
Y0242700D01*
Y0242800D01*
X0282650D01*
Y0242900D01*
Y0243000D01*
X0282750D01*
Y0243100D01*
Y0243200D01*
Y0243300D01*
X0282850D01*
Y0243400D01*
Y0243500D01*
X0282950D01*
Y0243600D01*
Y0243700D01*
X0283050D01*
Y0243800D01*
Y0243900D01*
X0283150D01*
Y0244000D01*
Y0244100D01*
X0283250D01*
Y0244200D01*
Y0244300D01*
X0283350D01*
Y0244400D01*
Y0244500D01*
Y0244600D01*
X0283450D01*
Y0244700D01*
Y0244800D01*
Y0244900D01*
X0283550D01*
Y0245000D01*
Y0245100D01*
Y0245200D01*
Y0245300D01*
Y0245400D01*
Y0245500D01*
Y0245600D01*
Y0245700D01*
Y0245800D01*
Y0245900D01*
Y0246000D01*
Y0246100D01*
Y0246200D01*
X0283450D01*
Y0246300D01*
Y0246400D01*
Y0246500D01*
X0283350D01*
Y0246600D01*
Y0246700D01*
Y0246800D01*
X0283250D01*
Y0246900D01*
X0283150D01*
Y0247000D01*
Y0247100D01*
X0283050D01*
Y0247200D01*
Y0247300D01*
X0283150D01*
Y0247400D01*
X0283250D01*
Y0247500D01*
X0283350D01*
Y0247400D01*
D02*
G37*
G36*
X0280850D02*
Y0247300D01*
X0281000D01*
Y0247400D01*
X0281100D01*
Y0247300D01*
Y0247200D01*
X0281200D01*
Y0247100D01*
X0281300D01*
Y0247000D01*
Y0246900D01*
X0281400D01*
Y0246800D01*
Y0246700D01*
X0281500D01*
Y0246600D01*
Y0246500D01*
X0281600D01*
Y0246400D01*
Y0246300D01*
Y0246200D01*
Y0246100D01*
X0281700D01*
Y0246000D01*
Y0245900D01*
Y0245800D01*
Y0245700D01*
Y0245600D01*
Y0245500D01*
Y0245400D01*
Y0245300D01*
Y0245200D01*
Y0245100D01*
Y0245000D01*
Y0244900D01*
X0281600D01*
Y0244800D01*
Y0244700D01*
Y0244600D01*
Y0244500D01*
X0281500D01*
Y0244400D01*
Y0244300D01*
Y0244200D01*
X0281400D01*
Y0244100D01*
Y0244000D01*
X0281300D01*
Y0243900D01*
Y0243800D01*
Y0243700D01*
X0281200D01*
Y0243600D01*
Y0243500D01*
X0281100D01*
Y0243400D01*
Y0243300D01*
X0281000D01*
Y0243200D01*
Y0243100D01*
X0280900D01*
Y0243000D01*
Y0242900D01*
X0280800D01*
Y0242800D01*
Y0242700D01*
X0280700D01*
Y0242600D01*
Y0242500D01*
Y0242400D01*
X0280600D01*
Y0242300D01*
Y0242200D01*
Y0242100D01*
X0280500D01*
Y0242000D01*
Y0241900D01*
Y0241800D01*
Y0241700D01*
Y0241600D01*
Y0241500D01*
Y0241400D01*
Y0241300D01*
Y0241200D01*
Y0241100D01*
Y0241000D01*
Y0240900D01*
Y0240800D01*
Y0240700D01*
X0280600D01*
Y0240600D01*
Y0240500D01*
Y0240400D01*
X0280700D01*
Y0240300D01*
Y0240200D01*
X0280800D01*
Y0240100D01*
Y0240000D01*
X0280900D01*
Y0239900D01*
Y0239800D01*
X0281000D01*
Y0239700D01*
X0280900D01*
Y0239600D01*
X0280600D01*
Y0239700D01*
X0280350D01*
Y0239800D01*
X0280250D01*
Y0239900D01*
Y0240000D01*
X0280150D01*
Y0240100D01*
Y0240200D01*
X0280050D01*
Y0240300D01*
Y0240400D01*
X0279950D01*
Y0240500D01*
Y0240600D01*
Y0240700D01*
Y0240800D01*
X0279850D01*
Y0240900D01*
Y0241000D01*
Y0241100D01*
Y0241200D01*
Y0241300D01*
Y0241400D01*
Y0241500D01*
Y0241600D01*
Y0241700D01*
Y0241800D01*
Y0241900D01*
Y0242000D01*
Y0242100D01*
Y0242200D01*
X0279950D01*
Y0242300D01*
Y0242400D01*
Y0242500D01*
X0280050D01*
Y0242600D01*
Y0242700D01*
Y0242800D01*
X0280150D01*
Y0242900D01*
Y0243000D01*
X0280250D01*
Y0243100D01*
Y0243200D01*
Y0243300D01*
X0280350D01*
Y0243400D01*
Y0243500D01*
X0280450D01*
Y0243600D01*
Y0243700D01*
X0280550D01*
Y0243800D01*
Y0243900D01*
X0280650D01*
Y0244000D01*
Y0244100D01*
X0280750D01*
Y0244200D01*
Y0244300D01*
X0280850D01*
Y0244400D01*
Y0244500D01*
Y0244600D01*
X0280950D01*
Y0244700D01*
Y0244800D01*
Y0244900D01*
X0281050D01*
Y0245000D01*
Y0245100D01*
Y0245200D01*
Y0245300D01*
Y0245400D01*
Y0245500D01*
Y0245600D01*
Y0245700D01*
Y0245800D01*
Y0245900D01*
Y0246000D01*
Y0246100D01*
Y0246200D01*
X0280950D01*
Y0246300D01*
Y0246400D01*
Y0246500D01*
X0280850D01*
Y0246600D01*
Y0246700D01*
Y0246800D01*
X0280750D01*
Y0246900D01*
X0280650D01*
Y0247000D01*
Y0247100D01*
X0280550D01*
Y0247200D01*
Y0247300D01*
X0280650D01*
Y0247400D01*
X0280750D01*
Y0247500D01*
X0280850D01*
Y0247400D01*
D02*
G37*
G36*
X0278350D02*
Y0247300D01*
X0278500D01*
Y0247400D01*
X0278600D01*
Y0247300D01*
Y0247200D01*
X0278700D01*
Y0247100D01*
X0278800D01*
Y0247000D01*
Y0246900D01*
X0278900D01*
Y0246800D01*
Y0246700D01*
X0279000D01*
Y0246600D01*
Y0246500D01*
X0279100D01*
Y0246400D01*
Y0246300D01*
Y0246200D01*
Y0246100D01*
X0279200D01*
Y0246000D01*
Y0245900D01*
Y0245800D01*
Y0245700D01*
Y0245600D01*
Y0245500D01*
Y0245400D01*
Y0245300D01*
Y0245200D01*
Y0245100D01*
Y0245000D01*
Y0244900D01*
X0279100D01*
Y0244800D01*
Y0244700D01*
Y0244600D01*
Y0244500D01*
X0279000D01*
Y0244400D01*
Y0244300D01*
Y0244200D01*
X0278900D01*
Y0244100D01*
Y0244000D01*
X0278800D01*
Y0243900D01*
Y0243800D01*
Y0243700D01*
X0278700D01*
Y0243600D01*
Y0243500D01*
X0278600D01*
Y0243400D01*
Y0243300D01*
X0278500D01*
Y0243200D01*
Y0243100D01*
X0278400D01*
Y0243000D01*
Y0242900D01*
X0278300D01*
Y0242800D01*
Y0242700D01*
X0278200D01*
Y0242600D01*
Y0242500D01*
Y0242400D01*
X0278100D01*
Y0242300D01*
Y0242200D01*
Y0242100D01*
X0278000D01*
Y0242000D01*
Y0241900D01*
Y0241800D01*
Y0241700D01*
Y0241600D01*
Y0241500D01*
Y0241400D01*
Y0241300D01*
Y0241200D01*
Y0241100D01*
Y0241000D01*
Y0240900D01*
Y0240800D01*
Y0240700D01*
X0278100D01*
Y0240600D01*
Y0240500D01*
Y0240400D01*
X0278200D01*
Y0240300D01*
Y0240200D01*
X0278300D01*
Y0240100D01*
Y0240000D01*
X0278400D01*
Y0239900D01*
Y0239800D01*
X0278500D01*
Y0239700D01*
X0278400D01*
Y0239600D01*
X0278100D01*
Y0239700D01*
X0277850D01*
Y0239800D01*
X0277750D01*
Y0239900D01*
Y0240000D01*
X0277650D01*
Y0240100D01*
Y0240200D01*
X0277550D01*
Y0240300D01*
Y0240400D01*
X0277450D01*
Y0240500D01*
Y0240600D01*
Y0240700D01*
Y0240800D01*
X0277350D01*
Y0240900D01*
Y0241000D01*
Y0241100D01*
Y0241200D01*
Y0241300D01*
Y0241400D01*
Y0241500D01*
Y0241600D01*
Y0241700D01*
Y0241800D01*
Y0241900D01*
Y0242000D01*
Y0242100D01*
Y0242200D01*
X0277450D01*
Y0242300D01*
Y0242400D01*
Y0242500D01*
X0277550D01*
Y0242600D01*
Y0242700D01*
Y0242800D01*
X0277650D01*
Y0242900D01*
Y0243000D01*
X0277750D01*
Y0243100D01*
Y0243200D01*
Y0243300D01*
X0277850D01*
Y0243400D01*
Y0243500D01*
X0277950D01*
Y0243600D01*
Y0243700D01*
X0278050D01*
Y0243800D01*
Y0243900D01*
X0278150D01*
Y0244000D01*
Y0244100D01*
X0278250D01*
Y0244200D01*
Y0244300D01*
X0278350D01*
Y0244400D01*
Y0244500D01*
Y0244600D01*
X0278450D01*
Y0244700D01*
Y0244800D01*
Y0244900D01*
X0278550D01*
Y0245000D01*
Y0245100D01*
Y0245200D01*
Y0245300D01*
Y0245400D01*
Y0245500D01*
Y0245600D01*
Y0245700D01*
Y0245800D01*
Y0245900D01*
Y0246000D01*
Y0246100D01*
Y0246200D01*
X0278450D01*
Y0246300D01*
Y0246400D01*
Y0246500D01*
X0278350D01*
Y0246600D01*
Y0246700D01*
Y0246800D01*
X0278250D01*
Y0246900D01*
X0278150D01*
Y0247000D01*
Y0247100D01*
X0278050D01*
Y0247200D01*
Y0247300D01*
X0278150D01*
Y0247400D01*
X0278250D01*
Y0247500D01*
X0278350D01*
Y0247400D01*
D02*
G37*
G36*
X0285700Y0238200D02*
X0275700D01*
Y0238900D01*
X0285700D01*
Y0238200D01*
D02*
G37*
G36*
X0293520Y0204619D02*
X0293520D01*
X0293520D01*
D01*
D02*
G37*
G36*
X0310253Y0190981D02*
X0310253D01*
X0310253Y0190981D01*
Y0190981D01*
D02*
G37*
G36*
X0295985Y0207565D02*
X0297589Y0207183D01*
X0299107Y0206539D01*
X0300496Y0205652D01*
X0301719Y0204546D01*
X0302740Y0203253D01*
X0303532Y0201807D01*
X0304073Y0200250D01*
X0304347Y0198624D01*
Y0196976D01*
X0304073Y0195350D01*
X0303532Y0193793D01*
X0302740Y0192347D01*
X0301719Y0191053D01*
X0300496Y0189948D01*
X0299107Y0189060D01*
X0297589Y0188417D01*
X0295985Y0188034D01*
X0294341Y0187924D01*
X0293520Y0188007D01*
X0293520Y0188007D01*
X0293520Y0190981D01*
X0294162Y0190919D01*
X0295449Y0190975D01*
X0296704Y0191270D01*
X0297881Y0191794D01*
X0298940Y0192528D01*
X0299844Y0193446D01*
X0300561Y0194516D01*
X0301067Y0195701D01*
X0301235Y0196324D01*
X0295489D01*
Y0199276D01*
X0301235D01*
X0301067Y0199899D01*
X0300561Y0201084D01*
X0299844Y0202154D01*
X0298940Y0203072D01*
X0297881Y0203806D01*
X0296704Y0204329D01*
X0295449Y0204625D01*
X0294162Y0204681D01*
X0293520Y0204619D01*
X0293520Y0207593D01*
X0294341Y0207676D01*
X0295985Y0207565D01*
D02*
G37*
G36*
X0312718D02*
X0314321Y0207183D01*
X0315839Y0206539D01*
X0317228Y0205652D01*
X0318451Y0204546D01*
X0319473Y0203253D01*
X0320265Y0201807D01*
X0320805Y0200250D01*
X0321080Y0198624D01*
Y0196976D01*
X0320805Y0195350D01*
X0320265Y0193793D01*
X0319473Y0192347D01*
X0318451Y0191053D01*
X0317228Y0189948D01*
X0315839Y0189060D01*
X0314321Y0188417D01*
X0312718Y0188034D01*
X0311073Y0187924D01*
X0310253Y0188007D01*
X0310253Y0190981D01*
X0310988Y0190915D01*
X0312457Y0191019D01*
X0313871Y0191434D01*
X0315165Y0192139D01*
X0316279Y0193104D01*
X0317162Y0194283D01*
X0317774Y0195624D01*
X0318087Y0197063D01*
Y0198537D01*
X0317774Y0199976D01*
X0317162Y0201317D01*
X0316279Y0202496D01*
X0315165Y0203461D01*
X0313871Y0204166D01*
X0312457Y0204581D01*
X0310988Y0204685D01*
X0310253Y0204619D01*
X0310253Y0207593D01*
X0310253D01*
X0311073Y0207676D01*
X0312718Y0207565D01*
D02*
G37*
G36*
X0227682Y0186206D02*
X0226944D01*
Y0186888D01*
X0227682D01*
Y0186206D01*
D02*
G37*
G36*
X0206975Y0185096D02*
X0206237D01*
Y0185834D01*
X0206975D01*
Y0185096D01*
D02*
G37*
G36*
X0239315Y0185884D02*
X0239404Y0185878D01*
X0239481Y0185862D01*
X0239559Y0185851D01*
X0239626Y0185834D01*
X0239687Y0185812D01*
X0239742Y0185795D01*
X0239787Y0185778D01*
X0239831Y0185756D01*
X0239864Y0185740D01*
X0239898Y0185729D01*
X0239920Y0185712D01*
X0239937Y0185706D01*
X0239942Y0185695D01*
X0239948D01*
X0240042Y0185612D01*
X0240120Y0185518D01*
X0240186Y0185418D01*
X0240242Y0185323D01*
X0240281Y0185234D01*
X0240297Y0185196D01*
X0240308Y0185162D01*
X0240320Y0185135D01*
X0240325Y0185112D01*
X0240331Y0185101D01*
Y0185096D01*
X0239670Y0184974D01*
X0239643Y0185040D01*
X0239615Y0185096D01*
X0239587Y0185146D01*
X0239554Y0185185D01*
X0239531Y0185212D01*
X0239509Y0185229D01*
X0239498Y0185240D01*
X0239493Y0185246D01*
X0239448Y0185273D01*
X0239398Y0185296D01*
X0239343Y0185307D01*
X0239293Y0185318D01*
X0239248Y0185323D01*
X0239215Y0185329D01*
X0239182D01*
X0239082Y0185323D01*
X0238999Y0185312D01*
X0238932Y0185301D01*
X0238877Y0185284D01*
X0238838Y0185262D01*
X0238810Y0185251D01*
X0238793Y0185240D01*
X0238788Y0185234D01*
X0238749Y0185196D01*
X0238721Y0185151D01*
X0238704Y0185101D01*
X0238688Y0185051D01*
X0238682Y0185001D01*
X0238677Y0184963D01*
Y0184940D01*
Y0184929D01*
Y0184857D01*
X0238716Y0184841D01*
X0238766Y0184824D01*
X0238871Y0184791D01*
X0238993Y0184763D01*
X0239110Y0184735D01*
X0239221Y0184707D01*
X0239271Y0184696D01*
X0239315Y0184691D01*
X0239348Y0184685D01*
X0239376Y0184679D01*
X0239393Y0184674D01*
X0239398D01*
X0239531Y0184646D01*
X0239654Y0184618D01*
X0239754Y0184591D01*
X0239837Y0184563D01*
X0239903Y0184535D01*
X0239948Y0184519D01*
X0239976Y0184508D01*
X0239987Y0184502D01*
X0240059Y0184463D01*
X0240120Y0184419D01*
X0240175Y0184369D01*
X0240214Y0184324D01*
X0240253Y0184285D01*
X0240275Y0184252D01*
X0240292Y0184230D01*
X0240297Y0184219D01*
X0240336Y0184147D01*
X0240364Y0184075D01*
X0240381Y0184008D01*
X0240392Y0183941D01*
X0240403Y0183886D01*
X0240408Y0183842D01*
Y0183814D01*
Y0183803D01*
X0240403Y0183736D01*
X0240397Y0183675D01*
X0240370Y0183558D01*
X0240331Y0183458D01*
X0240286Y0183375D01*
X0240242Y0183309D01*
X0240203Y0183259D01*
X0240175Y0183226D01*
X0240164Y0183220D01*
Y0183214D01*
X0240064Y0183137D01*
X0239953Y0183081D01*
X0239842Y0183042D01*
X0239731Y0183015D01*
X0239637Y0182998D01*
X0239593Y0182992D01*
X0239559D01*
X0239526Y0182987D01*
X0239487D01*
X0239398Y0182992D01*
X0239310Y0183003D01*
X0239232Y0183015D01*
X0239165Y0183031D01*
X0239110Y0183048D01*
X0239065Y0183064D01*
X0239037Y0183070D01*
X0239026Y0183076D01*
X0238949Y0183115D01*
X0238871Y0183153D01*
X0238804Y0183203D01*
X0238743Y0183248D01*
X0238693Y0183286D01*
X0238655Y0183320D01*
X0238632Y0183342D01*
X0238621Y0183348D01*
X0238616Y0183325D01*
X0238605Y0183298D01*
X0238599Y0183275D01*
X0238594Y0183270D01*
Y0183264D01*
X0238577Y0183214D01*
X0238566Y0183170D01*
X0238555Y0183131D01*
X0238544Y0183103D01*
X0238532Y0183081D01*
X0238527Y0183059D01*
X0238521Y0183053D01*
Y0183048D01*
X0237794D01*
X0237828Y0183120D01*
X0237855Y0183187D01*
X0237878Y0183248D01*
X0237900Y0183303D01*
X0237911Y0183348D01*
X0237922Y0183386D01*
X0237928Y0183409D01*
Y0183414D01*
X0237939Y0183486D01*
X0237944Y0183575D01*
X0237955Y0183664D01*
Y0183753D01*
X0237961Y0183830D01*
Y0183897D01*
Y0183925D01*
Y0183941D01*
Y0183952D01*
Y0183958D01*
X0237950Y0184818D01*
Y0184907D01*
X0237955Y0184985D01*
X0237961Y0185057D01*
X0237966Y0185124D01*
X0237972Y0185185D01*
X0237983Y0185240D01*
X0237989Y0185290D01*
X0238000Y0185329D01*
X0238011Y0185368D01*
X0238016Y0185396D01*
X0238033Y0185445D01*
X0238044Y0185468D01*
X0238050Y0185479D01*
X0238094Y0185540D01*
X0238144Y0185601D01*
X0238199Y0185651D01*
X0238261Y0185695D01*
X0238311Y0185729D01*
X0238355Y0185751D01*
X0238383Y0185767D01*
X0238388Y0185773D01*
X0238394D01*
X0238444Y0185795D01*
X0238494Y0185812D01*
X0238610Y0185845D01*
X0238732Y0185867D01*
X0238849Y0185878D01*
X0238960Y0185889D01*
X0239004D01*
X0239043Y0185895D01*
X0239226D01*
X0239315Y0185884D01*
D02*
G37*
G36*
X0231556D02*
X0231645Y0185878D01*
X0231723Y0185862D01*
X0231800Y0185851D01*
X0231867Y0185834D01*
X0231928Y0185812D01*
X0231983Y0185795D01*
X0232028Y0185778D01*
X0232072Y0185756D01*
X0232106Y0185740D01*
X0232139Y0185729D01*
X0232161Y0185712D01*
X0232178Y0185706D01*
X0232183Y0185695D01*
X0232189D01*
X0232283Y0185612D01*
X0232361Y0185518D01*
X0232428Y0185418D01*
X0232483Y0185323D01*
X0232522Y0185234D01*
X0232539Y0185196D01*
X0232550Y0185162D01*
X0232561Y0185135D01*
X0232566Y0185112D01*
X0232572Y0185101D01*
Y0185096D01*
X0231911Y0184974D01*
X0231884Y0185040D01*
X0231856Y0185096D01*
X0231828Y0185146D01*
X0231795Y0185185D01*
X0231773Y0185212D01*
X0231750Y0185229D01*
X0231739Y0185240D01*
X0231734Y0185246D01*
X0231689Y0185273D01*
X0231639Y0185296D01*
X0231584Y0185307D01*
X0231534Y0185318D01*
X0231489Y0185323D01*
X0231456Y0185329D01*
X0231423D01*
X0231323Y0185323D01*
X0231240Y0185312D01*
X0231173Y0185301D01*
X0231118Y0185284D01*
X0231079Y0185262D01*
X0231051Y0185251D01*
X0231034Y0185240D01*
X0231029Y0185234D01*
X0230990Y0185196D01*
X0230962Y0185151D01*
X0230946Y0185101D01*
X0230929Y0185051D01*
X0230923Y0185001D01*
X0230918Y0184963D01*
Y0184940D01*
Y0184929D01*
Y0184857D01*
X0230957Y0184841D01*
X0231007Y0184824D01*
X0231112Y0184791D01*
X0231234Y0184763D01*
X0231351Y0184735D01*
X0231462Y0184707D01*
X0231512Y0184696D01*
X0231556Y0184691D01*
X0231589Y0184685D01*
X0231617Y0184679D01*
X0231634Y0184674D01*
X0231639D01*
X0231773Y0184646D01*
X0231895Y0184618D01*
X0231995Y0184591D01*
X0232078Y0184563D01*
X0232144Y0184535D01*
X0232189Y0184519D01*
X0232217Y0184508D01*
X0232228Y0184502D01*
X0232300Y0184463D01*
X0232361Y0184419D01*
X0232416Y0184369D01*
X0232455Y0184324D01*
X0232494Y0184285D01*
X0232516Y0184252D01*
X0232533Y0184230D01*
X0232539Y0184219D01*
X0232577Y0184147D01*
X0232605Y0184075D01*
X0232622Y0184008D01*
X0232633Y0183941D01*
X0232644Y0183886D01*
X0232649Y0183842D01*
Y0183814D01*
Y0183803D01*
X0232644Y0183736D01*
X0232638Y0183675D01*
X0232611Y0183558D01*
X0232572Y0183458D01*
X0232527Y0183375D01*
X0232483Y0183309D01*
X0232444Y0183259D01*
X0232416Y0183226D01*
X0232405Y0183220D01*
Y0183214D01*
X0232305Y0183137D01*
X0232194Y0183081D01*
X0232083Y0183042D01*
X0231972Y0183015D01*
X0231878Y0182998D01*
X0231834Y0182992D01*
X0231800D01*
X0231767Y0182987D01*
X0231728D01*
X0231639Y0182992D01*
X0231551Y0183003D01*
X0231473Y0183015D01*
X0231406Y0183031D01*
X0231351Y0183048D01*
X0231306Y0183064D01*
X0231279Y0183070D01*
X0231267Y0183076D01*
X0231190Y0183115D01*
X0231112Y0183153D01*
X0231046Y0183203D01*
X0230984Y0183248D01*
X0230935Y0183286D01*
X0230896Y0183320D01*
X0230873Y0183342D01*
X0230862Y0183348D01*
X0230857Y0183325D01*
X0230846Y0183298D01*
X0230840Y0183275D01*
X0230835Y0183270D01*
Y0183264D01*
X0230818Y0183214D01*
X0230807Y0183170D01*
X0230796Y0183131D01*
X0230785Y0183103D01*
X0230774Y0183081D01*
X0230768Y0183059D01*
X0230763Y0183053D01*
Y0183048D01*
X0230035D01*
X0230069Y0183120D01*
X0230097Y0183187D01*
X0230119Y0183248D01*
X0230141Y0183303D01*
X0230152Y0183348D01*
X0230163Y0183386D01*
X0230169Y0183409D01*
Y0183414D01*
X0230180Y0183486D01*
X0230185Y0183575D01*
X0230196Y0183664D01*
Y0183753D01*
X0230202Y0183830D01*
Y0183897D01*
Y0183925D01*
Y0183941D01*
Y0183952D01*
Y0183958D01*
X0230191Y0184818D01*
Y0184907D01*
X0230196Y0184985D01*
X0230202Y0185057D01*
X0230207Y0185124D01*
X0230213Y0185185D01*
X0230224Y0185240D01*
X0230230Y0185290D01*
X0230241Y0185329D01*
X0230252Y0185368D01*
X0230257Y0185396D01*
X0230274Y0185445D01*
X0230285Y0185468D01*
X0230291Y0185479D01*
X0230335Y0185540D01*
X0230385Y0185601D01*
X0230441Y0185651D01*
X0230502Y0185695D01*
X0230552Y0185729D01*
X0230596Y0185751D01*
X0230624Y0185767D01*
X0230629Y0185773D01*
X0230635D01*
X0230685Y0185795D01*
X0230735Y0185812D01*
X0230851Y0185845D01*
X0230973Y0185867D01*
X0231090Y0185878D01*
X0231201Y0185889D01*
X0231245D01*
X0231284Y0185895D01*
X0231467D01*
X0231556Y0185884D01*
D02*
G37*
G36*
X0242440Y0183048D02*
X0241774D01*
X0240669Y0185834D01*
X0241424D01*
X0241957Y0184408D01*
X0241990Y0184324D01*
X0242012Y0184247D01*
X0242023Y0184219D01*
X0242029Y0184197D01*
X0242035Y0184180D01*
Y0184175D01*
X0242040Y0184147D01*
X0242051Y0184113D01*
X0242079Y0184030D01*
X0242090Y0183997D01*
X0242101Y0183964D01*
X0242107Y0183941D01*
X0242112Y0183936D01*
X0242262Y0184408D01*
X0242789Y0185834D01*
X0243561D01*
X0242440Y0183048D01*
D02*
G37*
G36*
X0209373Y0183042D02*
X0209401Y0182959D01*
X0209428Y0182887D01*
X0209462Y0182820D01*
X0209489Y0182765D01*
X0209517Y0182720D01*
X0209539Y0182687D01*
X0209556Y0182665D01*
X0209561Y0182659D01*
X0209611Y0182609D01*
X0209672Y0182571D01*
X0209734Y0182543D01*
X0209795Y0182526D01*
X0209850Y0182515D01*
X0209894Y0182504D01*
X0209939D01*
X0210044Y0182510D01*
X0210100Y0182515D01*
X0210144Y0182526D01*
X0210189Y0182532D01*
X0210222Y0182537D01*
X0210244Y0182543D01*
X0210250D01*
X0210183Y0181966D01*
X0210033Y0181938D01*
X0209967Y0181927D01*
X0209900Y0181921D01*
X0209850D01*
X0209806Y0181916D01*
X0209695D01*
X0209623Y0181921D01*
X0209561Y0181932D01*
X0209506Y0181943D01*
X0209456Y0181949D01*
X0209423Y0181960D01*
X0209401Y0181966D01*
X0209395D01*
X0209334Y0181982D01*
X0209278Y0182004D01*
X0209234Y0182027D01*
X0209195Y0182043D01*
X0209162Y0182060D01*
X0209140Y0182077D01*
X0209123Y0182082D01*
X0209118Y0182088D01*
X0209034Y0182154D01*
X0208973Y0182221D01*
X0208951Y0182254D01*
X0208934Y0182276D01*
X0208923Y0182293D01*
X0208918Y0182299D01*
X0208884Y0182354D01*
X0208851Y0182410D01*
X0208818Y0182471D01*
X0208790Y0182532D01*
X0208768Y0182587D01*
X0208746Y0182632D01*
X0208734Y0182659D01*
X0208729Y0182670D01*
X0208551Y0183148D01*
X0207569Y0185834D01*
X0208329D01*
X0208984Y0183853D01*
X0209645Y0185834D01*
X0210427D01*
X0209373Y0183042D01*
D02*
G37*
G36*
X0229431Y0186389D02*
Y0185834D01*
X0229769D01*
Y0185246D01*
X0229431D01*
Y0184030D01*
Y0183958D01*
Y0183897D01*
Y0183836D01*
X0229425Y0183786D01*
Y0183697D01*
X0229419Y0183625D01*
X0229414Y0183570D01*
Y0183536D01*
X0229408Y0183514D01*
Y0183509D01*
X0229397Y0183448D01*
X0229380Y0183392D01*
X0229364Y0183342D01*
X0229347Y0183303D01*
X0229331Y0183270D01*
X0229320Y0183248D01*
X0229314Y0183231D01*
X0229308Y0183226D01*
X0229275Y0183187D01*
X0229236Y0183153D01*
X0229158Y0183098D01*
X0229125Y0183081D01*
X0229098Y0183064D01*
X0229075Y0183059D01*
X0229070Y0183053D01*
X0229009Y0183031D01*
X0228948Y0183015D01*
X0228887Y0183003D01*
X0228831Y0182998D01*
X0228781Y0182992D01*
X0228742Y0182987D01*
X0228709D01*
X0228592Y0182992D01*
X0228481Y0183003D01*
X0228381Y0183020D01*
X0228298Y0183042D01*
X0228226Y0183059D01*
X0228171Y0183076D01*
X0228137Y0183087D01*
X0228132Y0183092D01*
X0228126D01*
X0228193Y0183664D01*
X0228259Y0183642D01*
X0228321Y0183625D01*
X0228370Y0183614D01*
X0228415Y0183608D01*
X0228448Y0183603D01*
X0228470Y0183597D01*
X0228492D01*
X0228542Y0183603D01*
X0228581Y0183614D01*
X0228604Y0183625D01*
X0228615Y0183631D01*
X0228648Y0183664D01*
X0228665Y0183692D01*
X0228676Y0183714D01*
X0228681Y0183725D01*
Y0183736D01*
X0228687Y0183758D01*
Y0183808D01*
Y0183875D01*
X0228692Y0183941D01*
Y0184008D01*
Y0184063D01*
Y0184086D01*
Y0184102D01*
Y0184113D01*
Y0184119D01*
Y0185246D01*
X0228187D01*
Y0185834D01*
X0228692D01*
Y0186822D01*
X0229431Y0186389D01*
D02*
G37*
G36*
X0235746Y0184069D02*
X0235741Y0183930D01*
X0235730Y0183808D01*
X0235713Y0183703D01*
X0235696Y0183614D01*
X0235680Y0183542D01*
X0235663Y0183492D01*
X0235652Y0183464D01*
X0235647Y0183453D01*
X0235602Y0183375D01*
X0235552Y0183303D01*
X0235502Y0183248D01*
X0235447Y0183198D01*
X0235402Y0183159D01*
X0235358Y0183131D01*
X0235336Y0183115D01*
X0235325Y0183109D01*
X0235241Y0183070D01*
X0235153Y0183037D01*
X0235069Y0183015D01*
X0234986Y0183003D01*
X0234919Y0182992D01*
X0234870Y0182987D01*
X0234820D01*
X0234720Y0182992D01*
X0234625Y0183003D01*
X0234537Y0183026D01*
X0234459Y0183048D01*
X0234392Y0183070D01*
X0234342Y0183092D01*
X0234309Y0183103D01*
X0234298Y0183109D01*
X0234209Y0183159D01*
X0234131Y0183220D01*
X0234059Y0183275D01*
X0234004Y0183336D01*
X0233954Y0183386D01*
X0233920Y0183425D01*
X0233898Y0183453D01*
X0233893Y0183464D01*
Y0183048D01*
X0233210D01*
Y0185834D01*
X0233948D01*
Y0184657D01*
Y0184552D01*
Y0184458D01*
X0233954Y0184369D01*
X0233959Y0184291D01*
Y0184219D01*
X0233965Y0184158D01*
X0233970Y0184108D01*
X0233976Y0184058D01*
X0233981Y0184019D01*
X0233987Y0183991D01*
X0233993Y0183964D01*
Y0183941D01*
X0234004Y0183914D01*
Y0183908D01*
X0234026Y0183853D01*
X0234059Y0183803D01*
X0234092Y0183764D01*
X0234126Y0183725D01*
X0234159Y0183692D01*
X0234187Y0183669D01*
X0234204Y0183658D01*
X0234209Y0183653D01*
X0234264Y0183619D01*
X0234326Y0183597D01*
X0234381Y0183575D01*
X0234437Y0183564D01*
X0234481Y0183558D01*
X0234514Y0183553D01*
X0234548D01*
X0234609Y0183558D01*
X0234659Y0183564D01*
X0234708Y0183575D01*
X0234747Y0183592D01*
X0234781Y0183603D01*
X0234803Y0183614D01*
X0234820Y0183619D01*
X0234825Y0183625D01*
X0234864Y0183658D01*
X0234892Y0183692D01*
X0234919Y0183725D01*
X0234936Y0183758D01*
X0234953Y0183792D01*
X0234964Y0183814D01*
X0234969Y0183830D01*
Y0183836D01*
X0234975Y0183864D01*
X0234981Y0183903D01*
X0234986Y0183952D01*
X0234992Y0184002D01*
X0234997Y0184119D01*
X0235003Y0184247D01*
X0235008Y0184363D01*
Y0184413D01*
Y0184458D01*
Y0184496D01*
Y0184524D01*
Y0184546D01*
Y0184552D01*
Y0185834D01*
X0235746D01*
Y0184069D01*
D02*
G37*
G36*
X0245226Y0185889D02*
X0245320Y0185878D01*
X0245414Y0185856D01*
X0245498Y0185834D01*
X0245581Y0185806D01*
X0245653Y0185773D01*
X0245725Y0185734D01*
X0245786Y0185701D01*
X0245842Y0185662D01*
X0245892Y0185623D01*
X0245936Y0185590D01*
X0245970Y0185562D01*
X0245997Y0185540D01*
X0246019Y0185518D01*
X0246030Y0185506D01*
X0246036Y0185501D01*
X0246097Y0185423D01*
X0246153Y0185340D01*
X0246203Y0185257D01*
X0246247Y0185168D01*
X0246280Y0185074D01*
X0246308Y0184985D01*
X0246352Y0184813D01*
X0246369Y0184730D01*
X0246380Y0184657D01*
X0246386Y0184591D01*
X0246391Y0184535D01*
X0246397Y0184485D01*
Y0184447D01*
Y0184424D01*
Y0184419D01*
X0246391Y0184313D01*
X0246386Y0184208D01*
X0246369Y0184113D01*
X0246352Y0184025D01*
X0246336Y0183936D01*
X0246308Y0183858D01*
X0246286Y0183786D01*
X0246258Y0183719D01*
X0246236Y0183658D01*
X0246208Y0183608D01*
X0246186Y0183564D01*
X0246169Y0183525D01*
X0246147Y0183497D01*
X0246136Y0183475D01*
X0246130Y0183464D01*
X0246125Y0183458D01*
X0246053Y0183375D01*
X0245981Y0183303D01*
X0245897Y0183242D01*
X0245809Y0183187D01*
X0245720Y0183142D01*
X0245631Y0183103D01*
X0245542Y0183070D01*
X0245453Y0183048D01*
X0245376Y0183026D01*
X0245298Y0183015D01*
X0245226Y0183003D01*
X0245165Y0182992D01*
X0245115D01*
X0245081Y0182987D01*
X0245048D01*
X0244887Y0182998D01*
X0244737Y0183020D01*
X0244610Y0183053D01*
X0244499Y0183092D01*
X0244449Y0183115D01*
X0244410Y0183131D01*
X0244371Y0183148D01*
X0244343Y0183164D01*
X0244321Y0183181D01*
X0244299Y0183187D01*
X0244293Y0183198D01*
X0244288D01*
X0244182Y0183286D01*
X0244088Y0183381D01*
X0244010Y0183486D01*
X0243949Y0183586D01*
X0243899Y0183675D01*
X0243883Y0183714D01*
X0243866Y0183747D01*
X0243855Y0183775D01*
X0243844Y0183797D01*
X0243838Y0183808D01*
Y0183814D01*
X0244571Y0183936D01*
X0244599Y0183864D01*
X0244626Y0183797D01*
X0244654Y0183747D01*
X0244687Y0183703D01*
X0244710Y0183669D01*
X0244732Y0183647D01*
X0244748Y0183636D01*
X0244754Y0183631D01*
X0244798Y0183597D01*
X0244848Y0183575D01*
X0244898Y0183558D01*
X0244943Y0183547D01*
X0244982Y0183542D01*
X0245015Y0183536D01*
X0245043D01*
X0245131Y0183542D01*
X0245215Y0183564D01*
X0245292Y0183592D01*
X0245353Y0183625D01*
X0245403Y0183658D01*
X0245437Y0183686D01*
X0245464Y0183708D01*
X0245470Y0183714D01*
X0245526Y0183786D01*
X0245564Y0183869D01*
X0245598Y0183958D01*
X0245620Y0184036D01*
X0245631Y0184113D01*
X0245637Y0184169D01*
X0245642Y0184191D01*
Y0184208D01*
Y0184219D01*
Y0184224D01*
X0243799D01*
Y0184380D01*
X0243811Y0184519D01*
X0243827Y0184652D01*
X0243849Y0184774D01*
X0243877Y0184890D01*
X0243905Y0184990D01*
X0243938Y0185085D01*
X0243971Y0185168D01*
X0244005Y0185240D01*
X0244038Y0185307D01*
X0244066Y0185357D01*
X0244094Y0185401D01*
X0244116Y0185434D01*
X0244132Y0185462D01*
X0244144Y0185473D01*
X0244149Y0185479D01*
X0244216Y0185551D01*
X0244293Y0185617D01*
X0244371Y0185673D01*
X0244449Y0185717D01*
X0244532Y0185762D01*
X0244615Y0185795D01*
X0244693Y0185823D01*
X0244771Y0185845D01*
X0244843Y0185862D01*
X0244909Y0185873D01*
X0244970Y0185884D01*
X0245020Y0185889D01*
X0245065Y0185895D01*
X0245126D01*
X0245226Y0185889D01*
D02*
G37*
G36*
X0256315Y0183048D02*
X0255538D01*
Y0184679D01*
X0253934D01*
Y0185329D01*
X0255538D01*
Y0186239D01*
X0253678D01*
Y0186888D01*
X0256315D01*
Y0183048D01*
D02*
G37*
G36*
X0248550Y0185889D02*
X0248606Y0185884D01*
X0248661Y0185867D01*
X0248706Y0185851D01*
X0248745Y0185834D01*
X0248778Y0185823D01*
X0248794Y0185812D01*
X0248800Y0185806D01*
X0248855Y0185767D01*
X0248905Y0185712D01*
X0248961Y0185651D01*
X0249005Y0185590D01*
X0249050Y0185529D01*
X0249083Y0185479D01*
X0249105Y0185445D01*
X0249111Y0185440D01*
Y0185834D01*
X0249793D01*
Y0183048D01*
X0249055D01*
Y0183903D01*
Y0184030D01*
Y0184147D01*
X0249050Y0184252D01*
X0249044Y0184347D01*
Y0184435D01*
X0249039Y0184508D01*
X0249033Y0184580D01*
X0249027Y0184635D01*
X0249022Y0184685D01*
X0249016Y0184730D01*
X0249011Y0184763D01*
Y0184791D01*
X0249005Y0184807D01*
X0249000Y0184824D01*
Y0184835D01*
X0248978Y0184913D01*
X0248950Y0184979D01*
X0248922Y0185035D01*
X0248894Y0185074D01*
X0248872Y0185107D01*
X0248850Y0185129D01*
X0248839Y0185140D01*
X0248833Y0185146D01*
X0248789Y0185173D01*
X0248745Y0185196D01*
X0248700Y0185212D01*
X0248661Y0185223D01*
X0248628Y0185229D01*
X0248595Y0185234D01*
X0248572D01*
X0248511Y0185229D01*
X0248450Y0185218D01*
X0248395Y0185196D01*
X0248339Y0185173D01*
X0248295Y0185151D01*
X0248262Y0185129D01*
X0248234Y0185118D01*
X0248228Y0185112D01*
X0247995Y0185751D01*
X0248084Y0185801D01*
X0248167Y0185834D01*
X0248251Y0185862D01*
X0248328Y0185878D01*
X0248389Y0185889D01*
X0248439Y0185895D01*
X0248484D01*
X0248550Y0185889D01*
D02*
G37*
G36*
X0237228Y0183048D02*
X0236490D01*
Y0186888D01*
X0237228D01*
Y0183048D01*
D02*
G37*
G36*
X0227682Y0183048D02*
X0226944D01*
Y0185834D01*
X0227682D01*
Y0183048D01*
D02*
G37*
G36*
X0221416Y0185889D02*
X0221516Y0185873D01*
X0221605Y0185851D01*
X0221694Y0185823D01*
X0221777Y0185784D01*
X0221849Y0185745D01*
X0221921Y0185701D01*
X0221982Y0185662D01*
X0222038Y0185617D01*
X0222088Y0185573D01*
X0222132Y0185534D01*
X0222165Y0185495D01*
X0222193Y0185468D01*
X0222216Y0185445D01*
X0222227Y0185429D01*
X0222232Y0185423D01*
Y0185834D01*
X0222915D01*
Y0183048D01*
X0222177D01*
Y0184302D01*
Y0184385D01*
Y0184463D01*
X0222171Y0184535D01*
X0222165Y0184596D01*
Y0184657D01*
X0222160Y0184707D01*
X0222154Y0184757D01*
X0222149Y0184796D01*
X0222138Y0184863D01*
X0222132Y0184907D01*
X0222121Y0184935D01*
Y0184940D01*
X0222099Y0185001D01*
X0222066Y0185063D01*
X0222032Y0185107D01*
X0221999Y0185151D01*
X0221966Y0185179D01*
X0221938Y0185207D01*
X0221921Y0185218D01*
X0221916Y0185223D01*
X0221855Y0185257D01*
X0221794Y0185284D01*
X0221738Y0185301D01*
X0221683Y0185318D01*
X0221638Y0185323D01*
X0221605Y0185329D01*
X0221572D01*
X0221516Y0185323D01*
X0221466Y0185318D01*
X0221427Y0185307D01*
X0221389Y0185290D01*
X0221355Y0185273D01*
X0221333Y0185262D01*
X0221322Y0185257D01*
X0221316Y0185251D01*
X0221277Y0185223D01*
X0221250Y0185190D01*
X0221200Y0185124D01*
X0221183Y0185090D01*
X0221172Y0185068D01*
X0221161Y0185051D01*
Y0185046D01*
X0221150Y0185018D01*
X0221144Y0184985D01*
X0221133Y0184901D01*
X0221122Y0184802D01*
X0221117Y0184707D01*
X0221111Y0184613D01*
Y0184574D01*
Y0184535D01*
Y0184508D01*
Y0184485D01*
Y0184469D01*
Y0184463D01*
Y0183048D01*
X0220373D01*
Y0184774D01*
Y0184890D01*
X0220378Y0184985D01*
X0220384Y0185074D01*
X0220395Y0185140D01*
X0220401Y0185196D01*
X0220412Y0185234D01*
X0220417Y0185262D01*
Y0185268D01*
X0220434Y0185334D01*
X0220456Y0185390D01*
X0220478Y0185445D01*
X0220506Y0185490D01*
X0220528Y0185529D01*
X0220545Y0185556D01*
X0220556Y0185573D01*
X0220562Y0185579D01*
X0220606Y0185629D01*
X0220656Y0185673D01*
X0220706Y0185712D01*
X0220756Y0185745D01*
X0220800Y0185773D01*
X0220839Y0185790D01*
X0220861Y0185801D01*
X0220872Y0185806D01*
X0220950Y0185834D01*
X0221028Y0185856D01*
X0221100Y0185873D01*
X0221166Y0185884D01*
X0221228Y0185889D01*
X0221277Y0185895D01*
X0221316D01*
X0221416Y0185889D01*
D02*
G37*
G36*
X0213363D02*
X0213463Y0185873D01*
X0213552Y0185851D01*
X0213641Y0185823D01*
X0213724Y0185784D01*
X0213796Y0185745D01*
X0213868Y0185701D01*
X0213929Y0185662D01*
X0213985Y0185617D01*
X0214035Y0185573D01*
X0214079Y0185534D01*
X0214112Y0185495D01*
X0214140Y0185468D01*
X0214162Y0185445D01*
X0214174Y0185429D01*
X0214179Y0185423D01*
Y0185834D01*
X0214862D01*
Y0183048D01*
X0214124D01*
Y0184302D01*
Y0184385D01*
Y0184463D01*
X0214118Y0184535D01*
X0214112Y0184596D01*
Y0184657D01*
X0214107Y0184707D01*
X0214101Y0184757D01*
X0214096Y0184796D01*
X0214085Y0184863D01*
X0214079Y0184907D01*
X0214068Y0184935D01*
Y0184940D01*
X0214046Y0185001D01*
X0214013Y0185063D01*
X0213979Y0185107D01*
X0213946Y0185151D01*
X0213913Y0185179D01*
X0213885Y0185207D01*
X0213868Y0185218D01*
X0213863Y0185223D01*
X0213802Y0185257D01*
X0213741Y0185284D01*
X0213685Y0185301D01*
X0213630Y0185318D01*
X0213585Y0185323D01*
X0213552Y0185329D01*
X0213519D01*
X0213463Y0185323D01*
X0213413Y0185318D01*
X0213374Y0185307D01*
X0213335Y0185290D01*
X0213302Y0185273D01*
X0213280Y0185262D01*
X0213269Y0185257D01*
X0213263Y0185251D01*
X0213225Y0185223D01*
X0213197Y0185190D01*
X0213147Y0185124D01*
X0213130Y0185090D01*
X0213119Y0185068D01*
X0213108Y0185051D01*
Y0185046D01*
X0213097Y0185018D01*
X0213091Y0184985D01*
X0213080Y0184901D01*
X0213069Y0184802D01*
X0213064Y0184707D01*
X0213058Y0184613D01*
Y0184574D01*
Y0184535D01*
Y0184508D01*
Y0184485D01*
Y0184469D01*
Y0184463D01*
Y0183048D01*
X0212320D01*
Y0184774D01*
Y0184890D01*
X0212325Y0184985D01*
X0212331Y0185074D01*
X0212342Y0185140D01*
X0212348Y0185196D01*
X0212359Y0185234D01*
X0212364Y0185262D01*
Y0185268D01*
X0212381Y0185334D01*
X0212403Y0185390D01*
X0212425Y0185445D01*
X0212453Y0185490D01*
X0212475Y0185529D01*
X0212492Y0185556D01*
X0212503Y0185573D01*
X0212509Y0185579D01*
X0212553Y0185629D01*
X0212603Y0185673D01*
X0212653Y0185712D01*
X0212703Y0185745D01*
X0212747Y0185773D01*
X0212786Y0185790D01*
X0212808Y0185801D01*
X0212819Y0185806D01*
X0212897Y0185834D01*
X0212975Y0185856D01*
X0213047Y0185873D01*
X0213113Y0185884D01*
X0213175Y0185889D01*
X0213225Y0185895D01*
X0213263D01*
X0213363Y0185889D01*
D02*
G37*
G36*
X0211576Y0183048D02*
X0210838D01*
Y0186888D01*
X0211576D01*
Y0183048D01*
D02*
G37*
G36*
X0251930Y0185889D02*
X0252069Y0185867D01*
X0252197Y0185839D01*
X0252308Y0185806D01*
X0252352Y0185784D01*
X0252396Y0185767D01*
X0252435Y0185756D01*
X0252463Y0185740D01*
X0252491Y0185729D01*
X0252507Y0185717D01*
X0252519Y0185712D01*
X0252524D01*
X0252641Y0185634D01*
X0252741Y0185551D01*
X0252829Y0185462D01*
X0252901Y0185379D01*
X0252957Y0185301D01*
X0253001Y0185240D01*
X0253018Y0185218D01*
X0253024Y0185201D01*
X0253035Y0185190D01*
Y0185185D01*
X0253096Y0185057D01*
X0253134Y0184929D01*
X0253168Y0184813D01*
X0253190Y0184707D01*
X0253201Y0184613D01*
X0253207Y0184574D01*
Y0184541D01*
X0253212Y0184519D01*
Y0184496D01*
Y0184485D01*
Y0184480D01*
X0253207Y0184308D01*
X0253185Y0184147D01*
X0253157Y0184008D01*
X0253140Y0183947D01*
X0253123Y0183891D01*
X0253107Y0183842D01*
X0253090Y0183797D01*
X0253074Y0183758D01*
X0253062Y0183725D01*
X0253051Y0183697D01*
X0253040Y0183680D01*
X0253035Y0183669D01*
Y0183664D01*
X0252957Y0183547D01*
X0252874Y0183448D01*
X0252785Y0183359D01*
X0252702Y0183286D01*
X0252624Y0183231D01*
X0252563Y0183192D01*
X0252541Y0183176D01*
X0252524Y0183164D01*
X0252513Y0183159D01*
X0252507D01*
X0252374Y0183103D01*
X0252246Y0183059D01*
X0252124Y0183031D01*
X0252008Y0183009D01*
X0251913Y0182998D01*
X0251875Y0182992D01*
X0251841D01*
X0251814Y0182987D01*
X0251775D01*
X0251658Y0182992D01*
X0251553Y0183003D01*
X0251447Y0183026D01*
X0251353Y0183053D01*
X0251259Y0183081D01*
X0251175Y0183115D01*
X0251098Y0183153D01*
X0251026Y0183192D01*
X0250964Y0183231D01*
X0250909Y0183270D01*
X0250859Y0183303D01*
X0250820Y0183331D01*
X0250787Y0183359D01*
X0250765Y0183381D01*
X0250754Y0183392D01*
X0250748Y0183397D01*
X0250676Y0183481D01*
X0250615Y0183564D01*
X0250559Y0183647D01*
X0250509Y0183736D01*
X0250470Y0183825D01*
X0250437Y0183914D01*
X0250410Y0183997D01*
X0250387Y0184080D01*
X0250371Y0184152D01*
X0250360Y0184224D01*
X0250348Y0184285D01*
X0250343Y0184341D01*
X0250337Y0184385D01*
Y0184419D01*
Y0184441D01*
Y0184447D01*
X0250343Y0184563D01*
X0250354Y0184674D01*
X0250376Y0184774D01*
X0250398Y0184874D01*
X0250432Y0184963D01*
X0250465Y0185051D01*
X0250504Y0185129D01*
X0250537Y0185201D01*
X0250576Y0185262D01*
X0250615Y0185323D01*
X0250648Y0185368D01*
X0250681Y0185412D01*
X0250704Y0185440D01*
X0250726Y0185468D01*
X0250737Y0185479D01*
X0250743Y0185484D01*
X0250820Y0185556D01*
X0250903Y0185617D01*
X0250987Y0185673D01*
X0251076Y0185723D01*
X0251164Y0185762D01*
X0251248Y0185795D01*
X0251331Y0185823D01*
X0251414Y0185845D01*
X0251486Y0185862D01*
X0251558Y0185873D01*
X0251619Y0185884D01*
X0251675Y0185889D01*
X0251719Y0185895D01*
X0251780D01*
X0251930Y0185889D01*
D02*
G37*
G36*
X0225074Y0185889D02*
X0225213Y0185867D01*
X0225340Y0185839D01*
X0225451Y0185806D01*
X0225496Y0185784D01*
X0225540Y0185767D01*
X0225579Y0185756D01*
X0225606Y0185740D01*
X0225634Y0185729D01*
X0225651Y0185717D01*
X0225662Y0185712D01*
X0225668D01*
X0225784Y0185634D01*
X0225884Y0185551D01*
X0225973Y0185462D01*
X0226045Y0185379D01*
X0226100Y0185301D01*
X0226145Y0185240D01*
X0226162Y0185218D01*
X0226167Y0185201D01*
X0226178Y0185190D01*
Y0185185D01*
X0226239Y0185057D01*
X0226278Y0184929D01*
X0226311Y0184813D01*
X0226334Y0184707D01*
X0226345Y0184613D01*
X0226350Y0184574D01*
Y0184541D01*
X0226356Y0184519D01*
Y0184496D01*
Y0184485D01*
Y0184480D01*
X0226350Y0184308D01*
X0226328Y0184147D01*
X0226300Y0184008D01*
X0226284Y0183947D01*
X0226267Y0183891D01*
X0226250Y0183842D01*
X0226234Y0183797D01*
X0226217Y0183758D01*
X0226206Y0183725D01*
X0226195Y0183697D01*
X0226184Y0183680D01*
X0226178Y0183669D01*
Y0183664D01*
X0226100Y0183547D01*
X0226017Y0183447D01*
X0225928Y0183359D01*
X0225845Y0183286D01*
X0225767Y0183231D01*
X0225706Y0183192D01*
X0225684Y0183176D01*
X0225668Y0183164D01*
X0225657Y0183159D01*
X0225651D01*
X0225518Y0183103D01*
X0225390Y0183059D01*
X0225268Y0183031D01*
X0225151Y0183009D01*
X0225057Y0182998D01*
X0225018Y0182992D01*
X0224985D01*
X0224957Y0182987D01*
X0224918D01*
X0224802Y0182992D01*
X0224696Y0183003D01*
X0224591Y0183026D01*
X0224497Y0183053D01*
X0224402Y0183081D01*
X0224319Y0183114D01*
X0224241Y0183153D01*
X0224169Y0183192D01*
X0224108Y0183231D01*
X0224053Y0183270D01*
X0224003Y0183303D01*
X0223964Y0183331D01*
X0223930Y0183359D01*
X0223908Y0183381D01*
X0223897Y0183392D01*
X0223892Y0183397D01*
X0223819Y0183481D01*
X0223758Y0183564D01*
X0223703Y0183647D01*
X0223653Y0183736D01*
X0223614Y0183825D01*
X0223581Y0183914D01*
X0223553Y0183997D01*
X0223531Y0184080D01*
X0223514Y0184152D01*
X0223503Y0184224D01*
X0223492Y0184285D01*
X0223486Y0184341D01*
X0223481Y0184385D01*
Y0184419D01*
Y0184441D01*
Y0184446D01*
X0223486Y0184563D01*
X0223498Y0184674D01*
X0223520Y0184774D01*
X0223542Y0184874D01*
X0223575Y0184963D01*
X0223608Y0185051D01*
X0223647Y0185129D01*
X0223681Y0185201D01*
X0223720Y0185262D01*
X0223758Y0185323D01*
X0223792Y0185368D01*
X0223825Y0185412D01*
X0223847Y0185440D01*
X0223869Y0185468D01*
X0223881Y0185479D01*
X0223886Y0185484D01*
X0223964Y0185556D01*
X0224047Y0185617D01*
X0224130Y0185673D01*
X0224219Y0185723D01*
X0224308Y0185762D01*
X0224391Y0185795D01*
X0224474Y0185823D01*
X0224558Y0185845D01*
X0224630Y0185862D01*
X0224702Y0185873D01*
X0224763Y0185884D01*
X0224818Y0185889D01*
X0224863Y0185895D01*
X0224924D01*
X0225074Y0185889D01*
D02*
G37*
G36*
X0217021D02*
X0217159Y0185867D01*
X0217287Y0185839D01*
X0217398Y0185806D01*
X0217442Y0185784D01*
X0217487Y0185767D01*
X0217526Y0185756D01*
X0217553Y0185740D01*
X0217581Y0185729D01*
X0217598Y0185717D01*
X0217609Y0185712D01*
X0217615D01*
X0217731Y0185634D01*
X0217831Y0185551D01*
X0217920Y0185462D01*
X0217992Y0185379D01*
X0218047Y0185301D01*
X0218092Y0185240D01*
X0218109Y0185218D01*
X0218114Y0185201D01*
X0218125Y0185190D01*
Y0185185D01*
X0218186Y0185057D01*
X0218225Y0184929D01*
X0218258Y0184813D01*
X0218281Y0184707D01*
X0218292Y0184613D01*
X0218297Y0184574D01*
Y0184541D01*
X0218303Y0184519D01*
Y0184496D01*
Y0184485D01*
Y0184480D01*
X0218297Y0184308D01*
X0218275Y0184147D01*
X0218247Y0184008D01*
X0218231Y0183947D01*
X0218214Y0183891D01*
X0218197Y0183842D01*
X0218181Y0183797D01*
X0218164Y0183758D01*
X0218153Y0183725D01*
X0218142Y0183697D01*
X0218131Y0183680D01*
X0218125Y0183669D01*
Y0183664D01*
X0218047Y0183547D01*
X0217964Y0183447D01*
X0217875Y0183359D01*
X0217792Y0183286D01*
X0217714Y0183231D01*
X0217653Y0183192D01*
X0217631Y0183176D01*
X0217615Y0183164D01*
X0217603Y0183159D01*
X0217598D01*
X0217465Y0183103D01*
X0217337Y0183059D01*
X0217215Y0183031D01*
X0217098Y0183009D01*
X0217004Y0182998D01*
X0216965Y0182992D01*
X0216932D01*
X0216904Y0182987D01*
X0216865D01*
X0216749Y0182992D01*
X0216643Y0183003D01*
X0216538Y0183026D01*
X0216443Y0183053D01*
X0216349Y0183081D01*
X0216266Y0183114D01*
X0216188Y0183153D01*
X0216116Y0183192D01*
X0216055Y0183231D01*
X0216000Y0183270D01*
X0215950Y0183303D01*
X0215911Y0183331D01*
X0215877Y0183359D01*
X0215855Y0183381D01*
X0215844Y0183392D01*
X0215839Y0183397D01*
X0215766Y0183481D01*
X0215705Y0183564D01*
X0215650Y0183647D01*
X0215600Y0183736D01*
X0215561Y0183825D01*
X0215528Y0183914D01*
X0215500Y0183997D01*
X0215478Y0184080D01*
X0215461Y0184152D01*
X0215450Y0184224D01*
X0215439Y0184285D01*
X0215433Y0184341D01*
X0215428Y0184385D01*
Y0184419D01*
Y0184441D01*
Y0184446D01*
X0215433Y0184563D01*
X0215444Y0184674D01*
X0215467Y0184774D01*
X0215489Y0184874D01*
X0215522Y0184963D01*
X0215556Y0185051D01*
X0215594Y0185129D01*
X0215628Y0185201D01*
X0215667Y0185262D01*
X0215705Y0185323D01*
X0215739Y0185368D01*
X0215772Y0185412D01*
X0215794Y0185440D01*
X0215816Y0185468D01*
X0215827Y0185479D01*
X0215833Y0185484D01*
X0215911Y0185556D01*
X0215994Y0185617D01*
X0216077Y0185673D01*
X0216166Y0185723D01*
X0216255Y0185762D01*
X0216338Y0185795D01*
X0216421Y0185823D01*
X0216505Y0185845D01*
X0216577Y0185862D01*
X0216649Y0185873D01*
X0216710Y0185884D01*
X0216765Y0185889D01*
X0216810Y0185895D01*
X0216871D01*
X0217021Y0185889D01*
D02*
G37*
G36*
X0206975Y0183048D02*
X0206614D01*
X0206620Y0182976D01*
X0206631Y0182904D01*
X0206648Y0182848D01*
X0206670Y0182798D01*
X0206687Y0182759D01*
X0206703Y0182731D01*
X0206714Y0182715D01*
X0206720Y0182709D01*
X0206759Y0182665D01*
X0206809Y0182621D01*
X0206859Y0182582D01*
X0206914Y0182554D01*
X0206959Y0182532D01*
X0206997Y0182515D01*
X0207025Y0182504D01*
X0207036Y0182498D01*
X0206892Y0182193D01*
X0206809Y0182226D01*
X0206731Y0182265D01*
X0206664Y0182304D01*
X0206609Y0182343D01*
X0206564Y0182376D01*
X0206531Y0182404D01*
X0206509Y0182421D01*
X0206503Y0182426D01*
X0206448Y0182482D01*
X0206403Y0182537D01*
X0206370Y0182593D01*
X0206337Y0182648D01*
X0206320Y0182693D01*
X0206304Y0182726D01*
X0206293Y0182754D01*
Y0182759D01*
X0206276Y0182831D01*
X0206259Y0182915D01*
X0206248Y0182998D01*
X0206243Y0183076D01*
X0206237Y0183148D01*
Y0183209D01*
Y0183231D01*
Y0183248D01*
Y0183253D01*
Y0183259D01*
Y0183786D01*
X0206975D01*
Y0183048D01*
D02*
G37*
G36*
X0244287Y0180545D02*
X0244375Y0180540D01*
X0244453Y0180523D01*
X0244531Y0180512D01*
X0244597Y0180495D01*
X0244658Y0180473D01*
X0244714Y0180456D01*
X0244758Y0180440D01*
X0244803Y0180418D01*
X0244836Y0180401D01*
X0244869Y0180390D01*
X0244892Y0180373D01*
X0244908Y0180368D01*
X0244914Y0180357D01*
X0244919D01*
X0245014Y0180273D01*
X0245091Y0180179D01*
X0245158Y0180079D01*
X0245213Y0179985D01*
X0245252Y0179896D01*
X0245269Y0179857D01*
X0245280Y0179824D01*
X0245291Y0179796D01*
X0245297Y0179774D01*
X0245302Y0179763D01*
Y0179757D01*
X0244642Y0179635D01*
X0244614Y0179702D01*
X0244586Y0179757D01*
X0244559Y0179807D01*
X0244525Y0179846D01*
X0244503Y0179874D01*
X0244481Y0179890D01*
X0244470Y0179902D01*
X0244464Y0179907D01*
X0244420Y0179935D01*
X0244370Y0179957D01*
X0244314Y0179968D01*
X0244264Y0179979D01*
X0244220Y0179985D01*
X0244187Y0179990D01*
X0244153D01*
X0244054Y0179985D01*
X0243970Y0179974D01*
X0243904Y0179963D01*
X0243848Y0179946D01*
X0243809Y0179924D01*
X0243781Y0179913D01*
X0243765Y0179902D01*
X0243759Y0179896D01*
X0243721Y0179857D01*
X0243693Y0179813D01*
X0243676Y0179763D01*
X0243659Y0179713D01*
X0243654Y0179663D01*
X0243648Y0179624D01*
Y0179602D01*
Y0179591D01*
Y0179519D01*
X0243687Y0179502D01*
X0243737Y0179485D01*
X0243843Y0179452D01*
X0243965Y0179424D01*
X0244081Y0179396D01*
X0244192Y0179369D01*
X0244242Y0179358D01*
X0244287Y0179352D01*
X0244320Y0179347D01*
X0244348Y0179341D01*
X0244364Y0179335D01*
X0244370D01*
X0244503Y0179308D01*
X0244625Y0179280D01*
X0244725Y0179252D01*
X0244808Y0179224D01*
X0244875Y0179197D01*
X0244919Y0179180D01*
X0244947Y0179169D01*
X0244958Y0179163D01*
X0245030Y0179124D01*
X0245091Y0179080D01*
X0245147Y0179030D01*
X0245186Y0178986D01*
X0245224Y0178947D01*
X0245247Y0178914D01*
X0245263Y0178891D01*
X0245269Y0178880D01*
X0245308Y0178808D01*
X0245336Y0178736D01*
X0245352Y0178669D01*
X0245363Y0178603D01*
X0245374Y0178547D01*
X0245380Y0178503D01*
Y0178475D01*
Y0178464D01*
X0245374Y0178398D01*
X0245369Y0178336D01*
X0245341Y0178220D01*
X0245302Y0178120D01*
X0245258Y0178037D01*
X0245213Y0177970D01*
X0245175Y0177920D01*
X0245147Y0177887D01*
X0245136Y0177881D01*
Y0177876D01*
X0245036Y0177798D01*
X0244925Y0177743D01*
X0244814Y0177704D01*
X0244703Y0177676D01*
X0244608Y0177659D01*
X0244564Y0177654D01*
X0244531D01*
X0244497Y0177648D01*
X0244459D01*
X0244370Y0177654D01*
X0244281Y0177665D01*
X0244203Y0177676D01*
X0244137Y0177693D01*
X0244081Y0177709D01*
X0244037Y0177726D01*
X0244009Y0177731D01*
X0243998Y0177737D01*
X0243920Y0177776D01*
X0243843Y0177815D01*
X0243776Y0177865D01*
X0243715Y0177909D01*
X0243665Y0177948D01*
X0243626Y0177981D01*
X0243604Y0178003D01*
X0243593Y0178009D01*
X0243587Y0177987D01*
X0243576Y0177959D01*
X0243571Y0177937D01*
X0243565Y0177931D01*
Y0177926D01*
X0243548Y0177876D01*
X0243537Y0177831D01*
X0243526Y0177793D01*
X0243515Y0177765D01*
X0243504Y0177743D01*
X0243498Y0177720D01*
X0243493Y0177715D01*
Y0177709D01*
X0242766D01*
X0242799Y0177781D01*
X0242827Y0177848D01*
X0242849Y0177909D01*
X0242871Y0177965D01*
X0242882Y0178009D01*
X0242894Y0178048D01*
X0242899Y0178070D01*
Y0178076D01*
X0242910Y0178148D01*
X0242916Y0178236D01*
X0242927Y0178325D01*
Y0178414D01*
X0242932Y0178492D01*
Y0178558D01*
Y0178586D01*
Y0178603D01*
Y0178614D01*
Y0178620D01*
X0242921Y0179480D01*
Y0179569D01*
X0242927Y0179646D01*
X0242932Y0179718D01*
X0242938Y0179785D01*
X0242944Y0179846D01*
X0242955Y0179902D01*
X0242960Y0179951D01*
X0242971Y0179990D01*
X0242982Y0180029D01*
X0242988Y0180057D01*
X0243004Y0180107D01*
X0243016Y0180129D01*
X0243021Y0180140D01*
X0243066Y0180201D01*
X0243115Y0180262D01*
X0243171Y0180312D01*
X0243232Y0180357D01*
X0243282Y0180390D01*
X0243326Y0180412D01*
X0243354Y0180429D01*
X0243360Y0180434D01*
X0243365D01*
X0243415Y0180456D01*
X0243465Y0180473D01*
X0243582Y0180506D01*
X0243704Y0180529D01*
X0243820Y0180540D01*
X0243931Y0180551D01*
X0243976D01*
X0244015Y0180556D01*
X0244198D01*
X0244287Y0180545D01*
D02*
G37*
G36*
X0201923Y0180545D02*
X0202012Y0180540D01*
X0202090Y0180523D01*
X0202168Y0180512D01*
X0202234Y0180495D01*
X0202295Y0180473D01*
X0202351Y0180456D01*
X0202395Y0180440D01*
X0202440Y0180418D01*
X0202473Y0180401D01*
X0202506Y0180390D01*
X0202528Y0180373D01*
X0202545Y0180368D01*
X0202551Y0180357D01*
X0202556D01*
X0202650Y0180273D01*
X0202728Y0180179D01*
X0202795Y0180079D01*
X0202850Y0179985D01*
X0202889Y0179896D01*
X0202906Y0179857D01*
X0202917Y0179824D01*
X0202928Y0179796D01*
X0202934Y0179774D01*
X0202939Y0179763D01*
Y0179757D01*
X0202279Y0179635D01*
X0202251Y0179702D01*
X0202223Y0179757D01*
X0202195Y0179807D01*
X0202162Y0179846D01*
X0202140Y0179874D01*
X0202118Y0179890D01*
X0202107Y0179902D01*
X0202101Y0179907D01*
X0202057Y0179935D01*
X0202007Y0179957D01*
X0201951Y0179968D01*
X0201901Y0179979D01*
X0201857Y0179985D01*
X0201823Y0179990D01*
X0201790D01*
X0201690Y0179985D01*
X0201607Y0179974D01*
X0201540Y0179963D01*
X0201485Y0179946D01*
X0201446Y0179924D01*
X0201418Y0179913D01*
X0201402Y0179902D01*
X0201396Y0179896D01*
X0201357Y0179857D01*
X0201330Y0179813D01*
X0201313Y0179763D01*
X0201296Y0179713D01*
X0201291Y0179663D01*
X0201285Y0179624D01*
Y0179602D01*
Y0179591D01*
Y0179518D01*
X0201324Y0179502D01*
X0201374Y0179485D01*
X0201479Y0179452D01*
X0201602Y0179424D01*
X0201718Y0179396D01*
X0201829Y0179369D01*
X0201879Y0179358D01*
X0201923Y0179352D01*
X0201957Y0179347D01*
X0201985Y0179341D01*
X0202001Y0179335D01*
X0202007D01*
X0202140Y0179308D01*
X0202262Y0179280D01*
X0202362Y0179252D01*
X0202445Y0179224D01*
X0202512Y0179197D01*
X0202556Y0179180D01*
X0202584Y0179169D01*
X0202595Y0179163D01*
X0202667Y0179124D01*
X0202728Y0179080D01*
X0202784Y0179030D01*
X0202822Y0178986D01*
X0202861Y0178947D01*
X0202884Y0178914D01*
X0202900Y0178891D01*
X0202906Y0178880D01*
X0202945Y0178808D01*
X0202972Y0178736D01*
X0202989Y0178669D01*
X0203000Y0178603D01*
X0203011Y0178547D01*
X0203017Y0178503D01*
Y0178475D01*
Y0178464D01*
X0203011Y0178397D01*
X0203006Y0178336D01*
X0202978Y0178220D01*
X0202939Y0178120D01*
X0202895Y0178037D01*
X0202850Y0177970D01*
X0202811Y0177920D01*
X0202784Y0177887D01*
X0202773Y0177881D01*
Y0177876D01*
X0202673Y0177798D01*
X0202562Y0177743D01*
X0202451Y0177704D01*
X0202340Y0177676D01*
X0202245Y0177659D01*
X0202201Y0177654D01*
X0202168D01*
X0202134Y0177648D01*
X0202096D01*
X0202007Y0177654D01*
X0201918Y0177665D01*
X0201840Y0177676D01*
X0201774Y0177693D01*
X0201718Y0177709D01*
X0201674Y0177726D01*
X0201646Y0177731D01*
X0201635Y0177737D01*
X0201557Y0177776D01*
X0201479Y0177815D01*
X0201413Y0177865D01*
X0201352Y0177909D01*
X0201302Y0177948D01*
X0201263Y0177981D01*
X0201241Y0178003D01*
X0201230Y0178009D01*
X0201224Y0177987D01*
X0201213Y0177959D01*
X0201207Y0177937D01*
X0201202Y0177931D01*
Y0177926D01*
X0201185Y0177876D01*
X0201174Y0177831D01*
X0201163Y0177793D01*
X0201152Y0177765D01*
X0201141Y0177743D01*
X0201135Y0177720D01*
X0201130Y0177715D01*
Y0177709D01*
X0200403D01*
X0200436Y0177781D01*
X0200464Y0177848D01*
X0200486Y0177909D01*
X0200508Y0177964D01*
X0200519Y0178009D01*
X0200530Y0178048D01*
X0200536Y0178070D01*
Y0178076D01*
X0200547Y0178148D01*
X0200553Y0178236D01*
X0200564Y0178325D01*
Y0178414D01*
X0200569Y0178492D01*
Y0178558D01*
Y0178586D01*
Y0178603D01*
Y0178614D01*
Y0178619D01*
X0200558Y0179480D01*
Y0179569D01*
X0200564Y0179646D01*
X0200569Y0179718D01*
X0200575Y0179785D01*
X0200580Y0179846D01*
X0200591Y0179902D01*
X0200597Y0179951D01*
X0200608Y0179990D01*
X0200619Y0180029D01*
X0200625Y0180057D01*
X0200641Y0180107D01*
X0200653Y0180129D01*
X0200658Y0180140D01*
X0200702Y0180201D01*
X0200752Y0180262D01*
X0200808Y0180312D01*
X0200869Y0180357D01*
X0200919Y0180390D01*
X0200963Y0180412D01*
X0200991Y0180429D01*
X0200997Y0180434D01*
X0201002D01*
X0201052Y0180456D01*
X0201102Y0180473D01*
X0201219Y0180506D01*
X0201341Y0180529D01*
X0201457Y0180540D01*
X0201568Y0180551D01*
X0201613D01*
X0201652Y0180556D01*
X0201835D01*
X0201923Y0180545D01*
D02*
G37*
G36*
X0229513Y0177709D02*
X0228847D01*
X0227742Y0180495D01*
X0228497D01*
X0229030Y0179069D01*
X0229063Y0178986D01*
X0229085Y0178908D01*
X0229096Y0178880D01*
X0229102Y0178858D01*
X0229107Y0178841D01*
Y0178836D01*
X0229113Y0178808D01*
X0229124Y0178775D01*
X0229152Y0178692D01*
X0229163Y0178658D01*
X0229174Y0178625D01*
X0229180Y0178603D01*
X0229185Y0178597D01*
X0229335Y0179069D01*
X0229862Y0180495D01*
X0230634D01*
X0229513Y0177709D01*
D02*
G37*
G36*
X0252906Y0181616D02*
X0253050Y0181600D01*
X0253178Y0181572D01*
X0253305Y0181539D01*
X0253416Y0181500D01*
X0253527Y0181456D01*
X0253622Y0181405D01*
X0253711Y0181356D01*
X0253794Y0181306D01*
X0253860Y0181256D01*
X0253921Y0181211D01*
X0253971Y0181173D01*
X0254010Y0181139D01*
X0254038Y0181111D01*
X0254055Y0181095D01*
X0254060Y0181089D01*
X0254149Y0180984D01*
X0254221Y0180873D01*
X0254288Y0180756D01*
X0254343Y0180634D01*
X0254393Y0180506D01*
X0254432Y0180384D01*
X0254465Y0180262D01*
X0254493Y0180146D01*
X0254515Y0180029D01*
X0254526Y0179929D01*
X0254537Y0179835D01*
X0254549Y0179757D01*
Y0179691D01*
X0254554Y0179641D01*
Y0179607D01*
Y0179602D01*
Y0179596D01*
X0254549Y0179430D01*
X0254532Y0179274D01*
X0254510Y0179124D01*
X0254476Y0178991D01*
X0254443Y0178864D01*
X0254399Y0178742D01*
X0254354Y0178636D01*
X0254310Y0178542D01*
X0254265Y0178453D01*
X0254221Y0178375D01*
X0254177Y0178314D01*
X0254143Y0178259D01*
X0254110Y0178220D01*
X0254088Y0178187D01*
X0254071Y0178170D01*
X0254066Y0178164D01*
X0253971Y0178070D01*
X0253871Y0177992D01*
X0253766Y0177920D01*
X0253660Y0177865D01*
X0253555Y0177815D01*
X0253450Y0177770D01*
X0253350Y0177737D01*
X0253255Y0177709D01*
X0253161Y0177687D01*
X0253078Y0177670D01*
X0253000Y0177659D01*
X0252939Y0177654D01*
X0252884Y0177648D01*
X0252845Y0177643D01*
X0252811D01*
X0252695Y0177648D01*
X0252589Y0177654D01*
X0252484Y0177670D01*
X0252390Y0177693D01*
X0252301Y0177715D01*
X0252218Y0177737D01*
X0252140Y0177765D01*
X0252068Y0177798D01*
X0252007Y0177826D01*
X0251951Y0177854D01*
X0251901Y0177876D01*
X0251862Y0177898D01*
X0251829Y0177920D01*
X0251807Y0177937D01*
X0251796Y0177942D01*
X0251790Y0177948D01*
X0251718Y0178009D01*
X0251651Y0178076D01*
X0251529Y0178225D01*
X0251429Y0178381D01*
X0251352Y0178531D01*
X0251318Y0178603D01*
X0251291Y0178669D01*
X0251269Y0178730D01*
X0251246Y0178780D01*
X0251230Y0178825D01*
X0251219Y0178858D01*
X0251213Y0178880D01*
Y0178886D01*
X0251968Y0179119D01*
X0252012Y0178969D01*
X0252062Y0178841D01*
X0252112Y0178736D01*
X0252168Y0178647D01*
X0252212Y0178581D01*
X0252251Y0178536D01*
X0252279Y0178508D01*
X0252290Y0178497D01*
X0252379Y0178431D01*
X0252467Y0178386D01*
X0252556Y0178353D01*
X0252634Y0178325D01*
X0252706Y0178314D01*
X0252767Y0178309D01*
X0252789Y0178303D01*
X0252817D01*
X0252895Y0178309D01*
X0252967Y0178314D01*
X0253100Y0178353D01*
X0253217Y0178398D01*
X0253311Y0178458D01*
X0253389Y0178514D01*
X0253444Y0178558D01*
X0253466Y0178581D01*
X0253483Y0178597D01*
X0253488Y0178603D01*
X0253494Y0178608D01*
X0253538Y0178669D01*
X0253577Y0178742D01*
X0253616Y0178819D01*
X0253644Y0178902D01*
X0253688Y0179075D01*
X0253722Y0179247D01*
X0253733Y0179330D01*
X0253738Y0179402D01*
X0253749Y0179474D01*
Y0179535D01*
X0253755Y0179580D01*
Y0179619D01*
Y0179646D01*
Y0179652D01*
X0253749Y0179779D01*
X0253744Y0179896D01*
X0253733Y0180001D01*
X0253716Y0180101D01*
X0253694Y0180190D01*
X0253672Y0180273D01*
X0253649Y0180345D01*
X0253622Y0180412D01*
X0253600Y0180468D01*
X0253577Y0180518D01*
X0253555Y0180556D01*
X0253533Y0180590D01*
X0253516Y0180617D01*
X0253505Y0180634D01*
X0253494Y0180645D01*
Y0180651D01*
X0253444Y0180706D01*
X0253389Y0180756D01*
X0253333Y0180795D01*
X0253272Y0180828D01*
X0253155Y0180884D01*
X0253045Y0180923D01*
X0252950Y0180945D01*
X0252906Y0180950D01*
X0252872Y0180956D01*
X0252839Y0180962D01*
X0252800D01*
X0252689Y0180956D01*
X0252589Y0180934D01*
X0252501Y0180906D01*
X0252423Y0180873D01*
X0252362Y0180840D01*
X0252317Y0180812D01*
X0252290Y0180789D01*
X0252279Y0180784D01*
X0252206Y0180717D01*
X0252140Y0180640D01*
X0252090Y0180562D01*
X0252051Y0180484D01*
X0252023Y0180418D01*
X0252007Y0180368D01*
X0251995Y0180345D01*
Y0180329D01*
X0251990Y0180323D01*
Y0180318D01*
X0251224Y0180501D01*
X0251280Y0180662D01*
X0251341Y0180801D01*
X0251407Y0180923D01*
X0251468Y0181023D01*
X0251529Y0181100D01*
X0251552Y0181134D01*
X0251574Y0181161D01*
X0251590Y0181178D01*
X0251607Y0181195D01*
X0251613Y0181206D01*
X0251618D01*
X0251701Y0181278D01*
X0251796Y0181344D01*
X0251885Y0181400D01*
X0251979Y0181444D01*
X0252079Y0181489D01*
X0252173Y0181522D01*
X0252268Y0181550D01*
X0252356Y0181572D01*
X0252439Y0181589D01*
X0252517Y0181600D01*
X0252584Y0181611D01*
X0252645Y0181616D01*
X0252695Y0181622D01*
X0252761D01*
X0252906Y0181616D01*
D02*
G37*
G36*
X0249032D02*
X0249176Y0181600D01*
X0249304Y0181572D01*
X0249431Y0181539D01*
X0249542Y0181500D01*
X0249653Y0181456D01*
X0249748Y0181405D01*
X0249837Y0181356D01*
X0249920Y0181306D01*
X0249986Y0181256D01*
X0250047Y0181211D01*
X0250097Y0181173D01*
X0250136Y0181139D01*
X0250164Y0181111D01*
X0250181Y0181095D01*
X0250186Y0181089D01*
X0250275Y0180984D01*
X0250347Y0180873D01*
X0250414Y0180756D01*
X0250469Y0180634D01*
X0250519Y0180506D01*
X0250558Y0180384D01*
X0250591Y0180262D01*
X0250619Y0180146D01*
X0250641Y0180029D01*
X0250652Y0179929D01*
X0250663Y0179835D01*
X0250675Y0179757D01*
Y0179691D01*
X0250680Y0179641D01*
Y0179607D01*
Y0179602D01*
Y0179596D01*
X0250675Y0179430D01*
X0250658Y0179274D01*
X0250636Y0179124D01*
X0250603Y0178991D01*
X0250569Y0178864D01*
X0250525Y0178742D01*
X0250480Y0178636D01*
X0250436Y0178542D01*
X0250392Y0178453D01*
X0250347Y0178375D01*
X0250303Y0178314D01*
X0250270Y0178259D01*
X0250236Y0178220D01*
X0250214Y0178187D01*
X0250197Y0178170D01*
X0250192Y0178164D01*
X0250097Y0178070D01*
X0249997Y0177992D01*
X0249892Y0177920D01*
X0249787Y0177865D01*
X0249681Y0177815D01*
X0249576Y0177770D01*
X0249476Y0177737D01*
X0249381Y0177709D01*
X0249287Y0177687D01*
X0249204Y0177670D01*
X0249126Y0177659D01*
X0249065Y0177654D01*
X0249010Y0177648D01*
X0248971Y0177643D01*
X0248938D01*
X0248821Y0177648D01*
X0248715Y0177654D01*
X0248610Y0177670D01*
X0248516Y0177693D01*
X0248427Y0177715D01*
X0248344Y0177737D01*
X0248266Y0177765D01*
X0248194Y0177798D01*
X0248133Y0177826D01*
X0248077Y0177854D01*
X0248027Y0177876D01*
X0247988Y0177898D01*
X0247955Y0177920D01*
X0247933Y0177937D01*
X0247922Y0177942D01*
X0247916Y0177948D01*
X0247844Y0178009D01*
X0247778Y0178076D01*
X0247655Y0178225D01*
X0247555Y0178381D01*
X0247478Y0178531D01*
X0247445Y0178603D01*
X0247417Y0178669D01*
X0247395Y0178730D01*
X0247372Y0178780D01*
X0247356Y0178825D01*
X0247345Y0178858D01*
X0247339Y0178880D01*
Y0178886D01*
X0248094Y0179119D01*
X0248138Y0178969D01*
X0248188Y0178841D01*
X0248238Y0178736D01*
X0248294Y0178647D01*
X0248338Y0178581D01*
X0248377Y0178536D01*
X0248405Y0178508D01*
X0248416Y0178497D01*
X0248505Y0178431D01*
X0248593Y0178386D01*
X0248682Y0178353D01*
X0248760Y0178325D01*
X0248832Y0178314D01*
X0248893Y0178309D01*
X0248915Y0178303D01*
X0248943D01*
X0249021Y0178309D01*
X0249093Y0178314D01*
X0249226Y0178353D01*
X0249343Y0178398D01*
X0249437Y0178458D01*
X0249515Y0178514D01*
X0249570Y0178558D01*
X0249592Y0178581D01*
X0249609Y0178597D01*
X0249615Y0178603D01*
X0249620Y0178608D01*
X0249664Y0178669D01*
X0249703Y0178742D01*
X0249742Y0178819D01*
X0249770Y0178902D01*
X0249814Y0179075D01*
X0249848Y0179247D01*
X0249859Y0179330D01*
X0249864Y0179402D01*
X0249875Y0179474D01*
Y0179535D01*
X0249881Y0179580D01*
Y0179619D01*
Y0179646D01*
Y0179652D01*
X0249875Y0179779D01*
X0249870Y0179896D01*
X0249859Y0180001D01*
X0249842Y0180101D01*
X0249820Y0180190D01*
X0249798Y0180273D01*
X0249776Y0180345D01*
X0249748Y0180412D01*
X0249726Y0180468D01*
X0249703Y0180518D01*
X0249681Y0180556D01*
X0249659Y0180590D01*
X0249642Y0180617D01*
X0249631Y0180634D01*
X0249620Y0180645D01*
Y0180651D01*
X0249570Y0180706D01*
X0249515Y0180756D01*
X0249459Y0180795D01*
X0249398Y0180828D01*
X0249282Y0180884D01*
X0249171Y0180923D01*
X0249076Y0180945D01*
X0249032Y0180950D01*
X0248998Y0180956D01*
X0248965Y0180962D01*
X0248926D01*
X0248815Y0180956D01*
X0248715Y0180934D01*
X0248627Y0180906D01*
X0248549Y0180873D01*
X0248488Y0180840D01*
X0248444Y0180812D01*
X0248416Y0180789D01*
X0248405Y0180784D01*
X0248333Y0180717D01*
X0248266Y0180640D01*
X0248216Y0180562D01*
X0248177Y0180484D01*
X0248149Y0180418D01*
X0248133Y0180368D01*
X0248122Y0180345D01*
Y0180329D01*
X0248116Y0180323D01*
Y0180318D01*
X0247350Y0180501D01*
X0247406Y0180662D01*
X0247467Y0180801D01*
X0247533Y0180923D01*
X0247594Y0181023D01*
X0247655Y0181100D01*
X0247678Y0181134D01*
X0247700Y0181161D01*
X0247716Y0181178D01*
X0247733Y0181195D01*
X0247739Y0181206D01*
X0247744D01*
X0247828Y0181278D01*
X0247922Y0181344D01*
X0248011Y0181400D01*
X0248105Y0181444D01*
X0248205Y0181489D01*
X0248299Y0181522D01*
X0248394Y0181550D01*
X0248482Y0181572D01*
X0248566Y0181589D01*
X0248643Y0181600D01*
X0248710Y0181611D01*
X0248771Y0181616D01*
X0248821Y0181622D01*
X0248887D01*
X0249032Y0181616D01*
D02*
G37*
G36*
X0260948Y0181050D02*
Y0180495D01*
X0261286D01*
Y0179907D01*
X0260948D01*
Y0178692D01*
Y0178620D01*
Y0178558D01*
Y0178497D01*
X0260942Y0178447D01*
Y0178359D01*
X0260937Y0178286D01*
X0260931Y0178231D01*
Y0178198D01*
X0260926Y0178175D01*
Y0178170D01*
X0260914Y0178109D01*
X0260898Y0178053D01*
X0260881Y0178003D01*
X0260864Y0177965D01*
X0260848Y0177931D01*
X0260837Y0177909D01*
X0260831Y0177892D01*
X0260826Y0177887D01*
X0260792Y0177848D01*
X0260753Y0177815D01*
X0260676Y0177759D01*
X0260642Y0177743D01*
X0260615Y0177726D01*
X0260593Y0177720D01*
X0260587Y0177715D01*
X0260526Y0177693D01*
X0260465Y0177676D01*
X0260404Y0177665D01*
X0260348Y0177659D01*
X0260298Y0177654D01*
X0260260Y0177648D01*
X0260226D01*
X0260110Y0177654D01*
X0259999Y0177665D01*
X0259899Y0177682D01*
X0259816Y0177704D01*
X0259743Y0177720D01*
X0259688Y0177737D01*
X0259654Y0177748D01*
X0259649Y0177754D01*
X0259643D01*
X0259710Y0178325D01*
X0259777Y0178303D01*
X0259838Y0178286D01*
X0259888Y0178275D01*
X0259932Y0178270D01*
X0259965Y0178264D01*
X0259987Y0178259D01*
X0260010D01*
X0260060Y0178264D01*
X0260099Y0178275D01*
X0260121Y0178286D01*
X0260132Y0178292D01*
X0260165Y0178325D01*
X0260182Y0178353D01*
X0260193Y0178375D01*
X0260198Y0178386D01*
Y0178398D01*
X0260204Y0178420D01*
Y0178470D01*
Y0178536D01*
X0260209Y0178603D01*
Y0178669D01*
Y0178725D01*
Y0178747D01*
Y0178764D01*
Y0178775D01*
Y0178780D01*
Y0179907D01*
X0259704D01*
Y0180495D01*
X0260209D01*
Y0181483D01*
X0260948Y0181050D01*
D02*
G37*
G36*
X0226327Y0180551D02*
X0226421Y0180540D01*
X0226516Y0180517D01*
X0226599Y0180495D01*
X0226682Y0180468D01*
X0226754Y0180434D01*
X0226826Y0180395D01*
X0226887Y0180362D01*
X0226943Y0180323D01*
X0226993Y0180284D01*
X0227037Y0180251D01*
X0227070Y0180223D01*
X0227098Y0180201D01*
X0227120Y0180179D01*
X0227132Y0180168D01*
X0227137Y0180162D01*
X0227198Y0180085D01*
X0227254Y0180001D01*
X0227304Y0179918D01*
X0227348Y0179829D01*
X0227381Y0179735D01*
X0227409Y0179646D01*
X0227453Y0179474D01*
X0227470Y0179391D01*
X0227481Y0179319D01*
X0227487Y0179252D01*
X0227492Y0179197D01*
X0227498Y0179147D01*
Y0179108D01*
Y0179086D01*
Y0179080D01*
X0227492Y0178975D01*
X0227487Y0178869D01*
X0227470Y0178775D01*
X0227453Y0178686D01*
X0227437Y0178597D01*
X0227409Y0178519D01*
X0227387Y0178447D01*
X0227359Y0178381D01*
X0227337Y0178320D01*
X0227309Y0178270D01*
X0227287Y0178225D01*
X0227270Y0178187D01*
X0227248Y0178159D01*
X0227237Y0178137D01*
X0227231Y0178126D01*
X0227226Y0178120D01*
X0227154Y0178037D01*
X0227082Y0177964D01*
X0226998Y0177903D01*
X0226909Y0177848D01*
X0226821Y0177804D01*
X0226732Y0177765D01*
X0226643Y0177731D01*
X0226554Y0177709D01*
X0226477Y0177687D01*
X0226399Y0177676D01*
X0226327Y0177665D01*
X0226266Y0177654D01*
X0226216D01*
X0226183Y0177648D01*
X0226149D01*
X0225988Y0177659D01*
X0225838Y0177682D01*
X0225711Y0177715D01*
X0225600Y0177754D01*
X0225550Y0177776D01*
X0225511Y0177793D01*
X0225472Y0177809D01*
X0225444Y0177826D01*
X0225422Y0177842D01*
X0225400Y0177848D01*
X0225394Y0177859D01*
X0225389D01*
X0225283Y0177948D01*
X0225189Y0178042D01*
X0225111Y0178148D01*
X0225050Y0178248D01*
X0225000Y0178336D01*
X0224984Y0178375D01*
X0224967Y0178409D01*
X0224956Y0178436D01*
X0224945Y0178458D01*
X0224939Y0178470D01*
Y0178475D01*
X0225672Y0178597D01*
X0225700Y0178525D01*
X0225727Y0178458D01*
X0225755Y0178409D01*
X0225788Y0178364D01*
X0225811Y0178331D01*
X0225833Y0178309D01*
X0225850Y0178297D01*
X0225855Y0178292D01*
X0225899Y0178259D01*
X0225949Y0178236D01*
X0225999Y0178220D01*
X0226044Y0178209D01*
X0226083Y0178203D01*
X0226116Y0178198D01*
X0226144D01*
X0226232Y0178203D01*
X0226316Y0178225D01*
X0226393Y0178253D01*
X0226454Y0178286D01*
X0226504Y0178320D01*
X0226538Y0178348D01*
X0226565Y0178370D01*
X0226571Y0178375D01*
X0226626Y0178447D01*
X0226665Y0178531D01*
X0226699Y0178619D01*
X0226721Y0178697D01*
X0226732Y0178775D01*
X0226737Y0178830D01*
X0226743Y0178852D01*
Y0178869D01*
Y0178880D01*
Y0178886D01*
X0224900D01*
Y0179041D01*
X0224911Y0179180D01*
X0224928Y0179313D01*
X0224950Y0179435D01*
X0224978Y0179552D01*
X0225006Y0179652D01*
X0225039Y0179746D01*
X0225073Y0179829D01*
X0225106Y0179902D01*
X0225139Y0179968D01*
X0225167Y0180018D01*
X0225195Y0180062D01*
X0225217Y0180096D01*
X0225233Y0180123D01*
X0225244Y0180135D01*
X0225250Y0180140D01*
X0225317Y0180212D01*
X0225394Y0180279D01*
X0225472Y0180334D01*
X0225550Y0180379D01*
X0225633Y0180423D01*
X0225716Y0180456D01*
X0225794Y0180484D01*
X0225872Y0180506D01*
X0225944Y0180523D01*
X0226010Y0180534D01*
X0226072Y0180545D01*
X0226121Y0180551D01*
X0226166Y0180556D01*
X0226227D01*
X0226327Y0180551D01*
D02*
G37*
G36*
X0207834D02*
X0207928Y0180540D01*
X0208023Y0180517D01*
X0208106Y0180495D01*
X0208189Y0180468D01*
X0208261Y0180434D01*
X0208334Y0180395D01*
X0208395Y0180362D01*
X0208450Y0180323D01*
X0208500Y0180284D01*
X0208545Y0180251D01*
X0208578Y0180223D01*
X0208606Y0180201D01*
X0208628Y0180179D01*
X0208639Y0180168D01*
X0208645Y0180162D01*
X0208705Y0180085D01*
X0208761Y0180001D01*
X0208811Y0179918D01*
X0208855Y0179829D01*
X0208889Y0179735D01*
X0208916Y0179646D01*
X0208961Y0179474D01*
X0208978Y0179391D01*
X0208989Y0179319D01*
X0208994Y0179252D01*
X0209000Y0179197D01*
X0209005Y0179147D01*
Y0179108D01*
Y0179086D01*
Y0179080D01*
X0209000Y0178975D01*
X0208994Y0178869D01*
X0208978Y0178775D01*
X0208961Y0178686D01*
X0208944Y0178597D01*
X0208916Y0178519D01*
X0208894Y0178447D01*
X0208867Y0178381D01*
X0208844Y0178320D01*
X0208817Y0178270D01*
X0208794Y0178225D01*
X0208778Y0178187D01*
X0208755Y0178159D01*
X0208744Y0178137D01*
X0208739Y0178126D01*
X0208733Y0178120D01*
X0208661Y0178037D01*
X0208589Y0177964D01*
X0208506Y0177903D01*
X0208417Y0177848D01*
X0208328Y0177804D01*
X0208239Y0177765D01*
X0208151Y0177731D01*
X0208062Y0177709D01*
X0207984Y0177687D01*
X0207906Y0177676D01*
X0207834Y0177665D01*
X0207773Y0177654D01*
X0207723D01*
X0207690Y0177648D01*
X0207657D01*
X0207496Y0177659D01*
X0207346Y0177682D01*
X0207218Y0177715D01*
X0207107Y0177754D01*
X0207057Y0177776D01*
X0207018Y0177793D01*
X0206979Y0177809D01*
X0206952Y0177826D01*
X0206929Y0177842D01*
X0206907Y0177848D01*
X0206902Y0177859D01*
X0206896D01*
X0206791Y0177948D01*
X0206696Y0178042D01*
X0206619Y0178148D01*
X0206558Y0178248D01*
X0206508Y0178336D01*
X0206491Y0178375D01*
X0206474Y0178409D01*
X0206463Y0178436D01*
X0206452Y0178458D01*
X0206447Y0178470D01*
Y0178475D01*
X0207179Y0178597D01*
X0207207Y0178525D01*
X0207235Y0178458D01*
X0207262Y0178409D01*
X0207296Y0178364D01*
X0207318Y0178331D01*
X0207340Y0178309D01*
X0207357Y0178297D01*
X0207362Y0178292D01*
X0207407Y0178259D01*
X0207457Y0178236D01*
X0207507Y0178220D01*
X0207551Y0178209D01*
X0207590Y0178203D01*
X0207623Y0178198D01*
X0207651D01*
X0207740Y0178203D01*
X0207823Y0178225D01*
X0207901Y0178253D01*
X0207962Y0178286D01*
X0208012Y0178320D01*
X0208045Y0178348D01*
X0208073Y0178370D01*
X0208078Y0178375D01*
X0208134Y0178447D01*
X0208173Y0178531D01*
X0208206Y0178619D01*
X0208228Y0178697D01*
X0208239Y0178775D01*
X0208245Y0178830D01*
X0208250Y0178852D01*
Y0178869D01*
Y0178880D01*
Y0178886D01*
X0206408D01*
Y0179041D01*
X0206419Y0179180D01*
X0206436Y0179313D01*
X0206458Y0179435D01*
X0206486Y0179552D01*
X0206513Y0179652D01*
X0206547Y0179746D01*
X0206580Y0179829D01*
X0206613Y0179902D01*
X0206646Y0179968D01*
X0206674Y0180018D01*
X0206702Y0180062D01*
X0206724Y0180096D01*
X0206741Y0180123D01*
X0206752Y0180135D01*
X0206757Y0180140D01*
X0206824Y0180212D01*
X0206902Y0180279D01*
X0206979Y0180334D01*
X0207057Y0180379D01*
X0207140Y0180423D01*
X0207224Y0180456D01*
X0207301Y0180484D01*
X0207379Y0180506D01*
X0207451Y0180523D01*
X0207518Y0180534D01*
X0207579Y0180545D01*
X0207629Y0180551D01*
X0207673Y0180556D01*
X0207734D01*
X0207834Y0180551D01*
D02*
G37*
G36*
X0197383D02*
X0197478Y0180540D01*
X0197572Y0180517D01*
X0197655Y0180495D01*
X0197739Y0180468D01*
X0197811Y0180434D01*
X0197883Y0180395D01*
X0197944Y0180362D01*
X0198000Y0180323D01*
X0198049Y0180284D01*
X0198094Y0180251D01*
X0198127Y0180223D01*
X0198155Y0180201D01*
X0198177Y0180179D01*
X0198188Y0180168D01*
X0198194Y0180162D01*
X0198255Y0180085D01*
X0198310Y0180001D01*
X0198360Y0179918D01*
X0198405Y0179829D01*
X0198438Y0179735D01*
X0198466Y0179646D01*
X0198510Y0179474D01*
X0198527Y0179391D01*
X0198538Y0179319D01*
X0198544Y0179252D01*
X0198549Y0179197D01*
X0198555Y0179147D01*
Y0179108D01*
Y0179086D01*
Y0179080D01*
X0198549Y0178975D01*
X0198544Y0178869D01*
X0198527Y0178775D01*
X0198510Y0178686D01*
X0198494Y0178597D01*
X0198466Y0178519D01*
X0198444Y0178447D01*
X0198416Y0178381D01*
X0198394Y0178320D01*
X0198366Y0178270D01*
X0198344Y0178225D01*
X0198327Y0178187D01*
X0198305Y0178159D01*
X0198294Y0178137D01*
X0198288Y0178126D01*
X0198283Y0178120D01*
X0198211Y0178037D01*
X0198138Y0177964D01*
X0198055Y0177903D01*
X0197966Y0177848D01*
X0197878Y0177804D01*
X0197789Y0177765D01*
X0197700Y0177731D01*
X0197611Y0177709D01*
X0197533Y0177687D01*
X0197456Y0177676D01*
X0197383Y0177665D01*
X0197322Y0177654D01*
X0197273D01*
X0197239Y0177648D01*
X0197206D01*
X0197045Y0177659D01*
X0196895Y0177682D01*
X0196767Y0177715D01*
X0196657Y0177754D01*
X0196607Y0177776D01*
X0196568Y0177793D01*
X0196529Y0177809D01*
X0196501Y0177826D01*
X0196479Y0177842D01*
X0196457Y0177848D01*
X0196451Y0177859D01*
X0196446D01*
X0196340Y0177948D01*
X0196246Y0178042D01*
X0196168Y0178148D01*
X0196107Y0178248D01*
X0196057Y0178336D01*
X0196040Y0178375D01*
X0196024Y0178409D01*
X0196013Y0178436D01*
X0196002Y0178458D01*
X0195996Y0178470D01*
Y0178475D01*
X0196729Y0178597D01*
X0196756Y0178525D01*
X0196784Y0178458D01*
X0196812Y0178409D01*
X0196845Y0178364D01*
X0196867Y0178331D01*
X0196890Y0178309D01*
X0196906Y0178297D01*
X0196912Y0178292D01*
X0196956Y0178259D01*
X0197006Y0178236D01*
X0197056Y0178220D01*
X0197100Y0178209D01*
X0197139Y0178203D01*
X0197173Y0178198D01*
X0197200D01*
X0197289Y0178203D01*
X0197372Y0178225D01*
X0197450Y0178253D01*
X0197511Y0178286D01*
X0197561Y0178320D01*
X0197594Y0178348D01*
X0197622Y0178370D01*
X0197628Y0178375D01*
X0197683Y0178447D01*
X0197722Y0178531D01*
X0197755Y0178619D01*
X0197778Y0178697D01*
X0197789Y0178775D01*
X0197794Y0178830D01*
X0197800Y0178852D01*
Y0178869D01*
Y0178880D01*
Y0178886D01*
X0195957D01*
Y0179041D01*
X0195968Y0179180D01*
X0195985Y0179313D01*
X0196007Y0179435D01*
X0196035Y0179552D01*
X0196063Y0179652D01*
X0196096Y0179746D01*
X0196129Y0179829D01*
X0196162Y0179902D01*
X0196196Y0179968D01*
X0196224Y0180018D01*
X0196251Y0180062D01*
X0196274Y0180096D01*
X0196290Y0180123D01*
X0196301Y0180135D01*
X0196307Y0180140D01*
X0196373Y0180212D01*
X0196451Y0180279D01*
X0196529Y0180334D01*
X0196607Y0180379D01*
X0196690Y0180423D01*
X0196773Y0180456D01*
X0196851Y0180484D01*
X0196928Y0180506D01*
X0197001Y0180523D01*
X0197067Y0180534D01*
X0197128Y0180545D01*
X0197178Y0180551D01*
X0197223Y0180556D01*
X0197284D01*
X0197383Y0180551D01*
D02*
G37*
G36*
X0266054Y0180551D02*
X0266154Y0180534D01*
X0266242Y0180512D01*
X0266331Y0180484D01*
X0266414Y0180445D01*
X0266487Y0180406D01*
X0266559Y0180362D01*
X0266620Y0180323D01*
X0266675Y0180279D01*
X0266725Y0180235D01*
X0266770Y0180196D01*
X0266803Y0180157D01*
X0266831Y0180129D01*
X0266853Y0180107D01*
X0266864Y0180090D01*
X0266869Y0180085D01*
Y0180495D01*
X0267552D01*
Y0177709D01*
X0266814D01*
Y0178964D01*
Y0179047D01*
Y0179124D01*
X0266809Y0179197D01*
X0266803Y0179258D01*
Y0179319D01*
X0266797Y0179369D01*
X0266792Y0179419D01*
X0266786Y0179457D01*
X0266775Y0179524D01*
X0266770Y0179569D01*
X0266758Y0179596D01*
Y0179602D01*
X0266736Y0179663D01*
X0266703Y0179724D01*
X0266670Y0179768D01*
X0266636Y0179813D01*
X0266603Y0179841D01*
X0266575Y0179868D01*
X0266559Y0179879D01*
X0266553Y0179885D01*
X0266492Y0179918D01*
X0266431Y0179946D01*
X0266376Y0179963D01*
X0266320Y0179979D01*
X0266276Y0179985D01*
X0266242Y0179990D01*
X0266209D01*
X0266154Y0179985D01*
X0266104Y0179979D01*
X0266065Y0179968D01*
X0266026Y0179951D01*
X0265993Y0179935D01*
X0265970Y0179924D01*
X0265959Y0179918D01*
X0265954Y0179913D01*
X0265915Y0179885D01*
X0265887Y0179851D01*
X0265837Y0179785D01*
X0265821Y0179752D01*
X0265809Y0179729D01*
X0265798Y0179713D01*
Y0179707D01*
X0265787Y0179680D01*
X0265782Y0179646D01*
X0265771Y0179563D01*
X0265759Y0179463D01*
X0265754Y0179369D01*
X0265748Y0179274D01*
Y0179235D01*
Y0179197D01*
Y0179169D01*
Y0179147D01*
Y0179130D01*
Y0179124D01*
Y0177709D01*
X0265010D01*
Y0179435D01*
Y0179552D01*
X0265016Y0179646D01*
X0265021Y0179735D01*
X0265033Y0179802D01*
X0265038Y0179857D01*
X0265049Y0179896D01*
X0265055Y0179924D01*
Y0179929D01*
X0265071Y0179996D01*
X0265093Y0180051D01*
X0265116Y0180107D01*
X0265143Y0180151D01*
X0265166Y0180190D01*
X0265182Y0180218D01*
X0265193Y0180235D01*
X0265199Y0180240D01*
X0265243Y0180290D01*
X0265293Y0180334D01*
X0265343Y0180373D01*
X0265393Y0180406D01*
X0265438Y0180434D01*
X0265476Y0180451D01*
X0265499Y0180462D01*
X0265510Y0180468D01*
X0265587Y0180495D01*
X0265665Y0180518D01*
X0265737Y0180534D01*
X0265804Y0180545D01*
X0265865Y0180551D01*
X0265915Y0180556D01*
X0265954D01*
X0266054Y0180551D01*
D02*
G37*
G36*
X0257695Y0177709D02*
X0256918D01*
Y0179341D01*
X0255314D01*
Y0179990D01*
X0256918D01*
Y0180901D01*
X0255059D01*
Y0181550D01*
X0257695D01*
Y0177709D01*
D02*
G37*
G36*
X0234424Y0180551D02*
X0234480Y0180545D01*
X0234535Y0180529D01*
X0234580Y0180512D01*
X0234618Y0180495D01*
X0234652Y0180484D01*
X0234668Y0180473D01*
X0234674Y0180468D01*
X0234730Y0180429D01*
X0234779Y0180373D01*
X0234835Y0180312D01*
X0234879Y0180251D01*
X0234924Y0180190D01*
X0234957Y0180140D01*
X0234979Y0180107D01*
X0234985Y0180101D01*
Y0180495D01*
X0235667D01*
Y0177709D01*
X0234929D01*
Y0178564D01*
Y0178692D01*
Y0178808D01*
X0234924Y0178914D01*
X0234918Y0179008D01*
Y0179097D01*
X0234913Y0179169D01*
X0234907Y0179241D01*
X0234901Y0179297D01*
X0234896Y0179347D01*
X0234890Y0179391D01*
X0234885Y0179424D01*
Y0179452D01*
X0234879Y0179469D01*
X0234874Y0179485D01*
Y0179496D01*
X0234852Y0179574D01*
X0234824Y0179641D01*
X0234796Y0179696D01*
X0234768Y0179735D01*
X0234746Y0179768D01*
X0234724Y0179790D01*
X0234713Y0179802D01*
X0234707Y0179807D01*
X0234663Y0179835D01*
X0234618Y0179857D01*
X0234574Y0179874D01*
X0234535Y0179885D01*
X0234502Y0179890D01*
X0234469Y0179896D01*
X0234446D01*
X0234385Y0179890D01*
X0234324Y0179879D01*
X0234269Y0179857D01*
X0234213Y0179835D01*
X0234169Y0179813D01*
X0234136Y0179790D01*
X0234108Y0179779D01*
X0234102Y0179774D01*
X0233869Y0180412D01*
X0233958Y0180462D01*
X0234041Y0180495D01*
X0234124Y0180523D01*
X0234202Y0180540D01*
X0234263Y0180551D01*
X0234313Y0180556D01*
X0234358D01*
X0234424Y0180551D01*
D02*
G37*
G36*
X0218695Y0181616D02*
X0218795Y0181605D01*
X0218879Y0181589D01*
X0218956Y0181567D01*
X0219012Y0181544D01*
X0219056Y0181528D01*
X0219084Y0181517D01*
X0219095Y0181511D01*
X0219162Y0181467D01*
X0219223Y0181422D01*
X0219267Y0181372D01*
X0219306Y0181328D01*
X0219334Y0181289D01*
X0219350Y0181256D01*
X0219361Y0181234D01*
X0219367Y0181228D01*
X0219389Y0181156D01*
X0219406Y0181072D01*
X0219423Y0180984D01*
X0219428Y0180901D01*
X0219434Y0180823D01*
X0219439Y0180762D01*
Y0180734D01*
Y0180717D01*
Y0180706D01*
Y0180701D01*
Y0180495D01*
X0219850D01*
Y0179918D01*
X0219439D01*
Y0177709D01*
X0218701D01*
Y0179918D01*
X0218152D01*
Y0180495D01*
X0218701D01*
Y0180690D01*
X0218695Y0180762D01*
X0218690Y0180823D01*
X0218679Y0180873D01*
X0218668Y0180912D01*
X0218657Y0180945D01*
X0218646Y0180962D01*
X0218635Y0180973D01*
Y0180978D01*
X0218601Y0181006D01*
X0218568Y0181023D01*
X0218490Y0181045D01*
X0218457Y0181050D01*
X0218429Y0181056D01*
X0218401D01*
X0218279Y0181050D01*
X0218224Y0181045D01*
X0218174Y0181034D01*
X0218129Y0181028D01*
X0218091Y0181017D01*
X0218068Y0181011D01*
X0218063D01*
X0217963Y0181528D01*
X0218079Y0181561D01*
X0218191Y0181583D01*
X0218296Y0181600D01*
X0218390Y0181611D01*
X0218468Y0181616D01*
X0218529Y0181622D01*
X0218584D01*
X0218695Y0181616D01*
D02*
G37*
G36*
X0213245Y0180551D02*
X0213301Y0180545D01*
X0213356Y0180529D01*
X0213401Y0180512D01*
X0213440Y0180495D01*
X0213473Y0180484D01*
X0213490Y0180473D01*
X0213495Y0180468D01*
X0213551Y0180429D01*
X0213601Y0180373D01*
X0213656Y0180312D01*
X0213701Y0180251D01*
X0213745Y0180190D01*
X0213778Y0180140D01*
X0213800Y0180107D01*
X0213806Y0180101D01*
Y0180495D01*
X0214489D01*
Y0177709D01*
X0213751D01*
Y0178564D01*
Y0178692D01*
Y0178808D01*
X0213745Y0178914D01*
X0213739Y0179008D01*
Y0179097D01*
X0213734Y0179169D01*
X0213728Y0179241D01*
X0213723Y0179297D01*
X0213717Y0179347D01*
X0213712Y0179391D01*
X0213706Y0179424D01*
Y0179452D01*
X0213701Y0179469D01*
X0213695Y0179485D01*
Y0179496D01*
X0213673Y0179574D01*
X0213645Y0179641D01*
X0213617Y0179696D01*
X0213590Y0179735D01*
X0213567Y0179768D01*
X0213545Y0179790D01*
X0213534Y0179802D01*
X0213528Y0179807D01*
X0213484Y0179835D01*
X0213440Y0179857D01*
X0213395Y0179874D01*
X0213356Y0179885D01*
X0213323Y0179890D01*
X0213290Y0179896D01*
X0213268D01*
X0213207Y0179890D01*
X0213145Y0179879D01*
X0213090Y0179857D01*
X0213035Y0179835D01*
X0212990Y0179813D01*
X0212957Y0179790D01*
X0212929Y0179779D01*
X0212924Y0179774D01*
X0212690Y0180412D01*
X0212779Y0180462D01*
X0212862Y0180495D01*
X0212946Y0180523D01*
X0213023Y0180540D01*
X0213085Y0180551D01*
X0213134Y0180556D01*
X0213179D01*
X0213245Y0180551D01*
D02*
G37*
G36*
X0209666D02*
X0209721Y0180545D01*
X0209777Y0180529D01*
X0209821Y0180512D01*
X0209860Y0180495D01*
X0209893Y0180484D01*
X0209910Y0180473D01*
X0209915Y0180468D01*
X0209971Y0180429D01*
X0210021Y0180373D01*
X0210076Y0180312D01*
X0210121Y0180251D01*
X0210165Y0180190D01*
X0210198Y0180140D01*
X0210221Y0180107D01*
X0210226Y0180101D01*
Y0180495D01*
X0210909D01*
Y0177709D01*
X0210171D01*
Y0178564D01*
Y0178692D01*
Y0178808D01*
X0210165Y0178914D01*
X0210160Y0179008D01*
Y0179097D01*
X0210154Y0179169D01*
X0210149Y0179241D01*
X0210143Y0179297D01*
X0210137Y0179347D01*
X0210132Y0179391D01*
X0210126Y0179424D01*
Y0179452D01*
X0210121Y0179469D01*
X0210115Y0179485D01*
Y0179496D01*
X0210093Y0179574D01*
X0210065Y0179641D01*
X0210037Y0179696D01*
X0210010Y0179735D01*
X0209988Y0179768D01*
X0209965Y0179790D01*
X0209954Y0179802D01*
X0209949Y0179807D01*
X0209904Y0179835D01*
X0209860Y0179857D01*
X0209816Y0179874D01*
X0209777Y0179885D01*
X0209743Y0179890D01*
X0209710Y0179896D01*
X0209688D01*
X0209627Y0179890D01*
X0209566Y0179879D01*
X0209510Y0179857D01*
X0209455Y0179835D01*
X0209410Y0179813D01*
X0209377Y0179790D01*
X0209349Y0179779D01*
X0209344Y0179774D01*
X0209111Y0180412D01*
X0209200Y0180462D01*
X0209283Y0180495D01*
X0209366Y0180523D01*
X0209444Y0180540D01*
X0209505Y0180551D01*
X0209555Y0180556D01*
X0209599D01*
X0209666Y0180551D01*
D02*
G37*
G36*
X0199837Y0177709D02*
X0199099D01*
Y0181550D01*
X0199837D01*
Y0177709D01*
D02*
G37*
G36*
X0195358D02*
X0194620D01*
Y0178447D01*
X0195358D01*
Y0177709D01*
D02*
G37*
G36*
X0263151Y0180551D02*
X0263290Y0180529D01*
X0263417Y0180501D01*
X0263528Y0180468D01*
X0263573Y0180445D01*
X0263617Y0180429D01*
X0263656Y0180418D01*
X0263684Y0180401D01*
X0263712Y0180390D01*
X0263728Y0180379D01*
X0263739Y0180373D01*
X0263745D01*
X0263861Y0180296D01*
X0263961Y0180212D01*
X0264050Y0180123D01*
X0264122Y0180040D01*
X0264178Y0179963D01*
X0264222Y0179902D01*
X0264239Y0179879D01*
X0264244Y0179863D01*
X0264255Y0179851D01*
Y0179846D01*
X0264317Y0179718D01*
X0264355Y0179591D01*
X0264389Y0179474D01*
X0264411Y0179369D01*
X0264422Y0179274D01*
X0264427Y0179235D01*
Y0179202D01*
X0264433Y0179180D01*
Y0179158D01*
Y0179147D01*
Y0179141D01*
X0264427Y0178969D01*
X0264405Y0178808D01*
X0264378Y0178669D01*
X0264361Y0178608D01*
X0264344Y0178553D01*
X0264328Y0178503D01*
X0264311Y0178458D01*
X0264294Y0178420D01*
X0264283Y0178386D01*
X0264272Y0178359D01*
X0264261Y0178342D01*
X0264255Y0178331D01*
Y0178325D01*
X0264178Y0178209D01*
X0264094Y0178109D01*
X0264006Y0178020D01*
X0263923Y0177948D01*
X0263845Y0177892D01*
X0263784Y0177854D01*
X0263761Y0177837D01*
X0263745Y0177826D01*
X0263734Y0177820D01*
X0263728D01*
X0263595Y0177765D01*
X0263467Y0177720D01*
X0263345Y0177693D01*
X0263229Y0177670D01*
X0263134Y0177659D01*
X0263095Y0177654D01*
X0263062D01*
X0263035Y0177648D01*
X0262996D01*
X0262879Y0177654D01*
X0262774Y0177665D01*
X0262668Y0177687D01*
X0262574Y0177715D01*
X0262479Y0177743D01*
X0262396Y0177776D01*
X0262318Y0177815D01*
X0262246Y0177854D01*
X0262185Y0177892D01*
X0262130Y0177931D01*
X0262080Y0177965D01*
X0262041Y0177992D01*
X0262008Y0178020D01*
X0261985Y0178042D01*
X0261974Y0178053D01*
X0261969Y0178059D01*
X0261897Y0178142D01*
X0261836Y0178225D01*
X0261780Y0178309D01*
X0261730Y0178398D01*
X0261691Y0178486D01*
X0261658Y0178575D01*
X0261630Y0178658D01*
X0261608Y0178742D01*
X0261592Y0178814D01*
X0261580Y0178886D01*
X0261569Y0178947D01*
X0261564Y0179002D01*
X0261558Y0179047D01*
Y0179080D01*
Y0179102D01*
Y0179108D01*
X0261564Y0179224D01*
X0261575Y0179335D01*
X0261597Y0179435D01*
X0261619Y0179535D01*
X0261652Y0179624D01*
X0261686Y0179713D01*
X0261725Y0179790D01*
X0261758Y0179863D01*
X0261797Y0179924D01*
X0261836Y0179985D01*
X0261869Y0180029D01*
X0261902Y0180074D01*
X0261925Y0180101D01*
X0261947Y0180129D01*
X0261958Y0180140D01*
X0261963Y0180146D01*
X0262041Y0180218D01*
X0262124Y0180279D01*
X0262208Y0180334D01*
X0262296Y0180384D01*
X0262385Y0180423D01*
X0262468Y0180456D01*
X0262552Y0180484D01*
X0262635Y0180506D01*
X0262707Y0180523D01*
X0262779Y0180534D01*
X0262840Y0180545D01*
X0262896Y0180551D01*
X0262940Y0180556D01*
X0263001D01*
X0263151Y0180551D01*
D02*
G37*
G36*
X0232437Y0180551D02*
X0232576Y0180529D01*
X0232704Y0180501D01*
X0232815Y0180468D01*
X0232859Y0180445D01*
X0232904Y0180429D01*
X0232942Y0180418D01*
X0232970Y0180401D01*
X0232998Y0180390D01*
X0233014Y0180379D01*
X0233026Y0180373D01*
X0233031D01*
X0233148Y0180296D01*
X0233248Y0180212D01*
X0233336Y0180123D01*
X0233409Y0180040D01*
X0233464Y0179963D01*
X0233508Y0179902D01*
X0233525Y0179879D01*
X0233531Y0179863D01*
X0233542Y0179851D01*
Y0179846D01*
X0233603Y0179718D01*
X0233642Y0179591D01*
X0233675Y0179474D01*
X0233697Y0179369D01*
X0233708Y0179274D01*
X0233714Y0179235D01*
Y0179202D01*
X0233719Y0179180D01*
Y0179158D01*
Y0179147D01*
Y0179141D01*
X0233714Y0178969D01*
X0233692Y0178808D01*
X0233664Y0178669D01*
X0233647Y0178608D01*
X0233631Y0178553D01*
X0233614Y0178503D01*
X0233597Y0178458D01*
X0233581Y0178420D01*
X0233570Y0178386D01*
X0233558Y0178359D01*
X0233547Y0178342D01*
X0233542Y0178331D01*
Y0178325D01*
X0233464Y0178209D01*
X0233381Y0178109D01*
X0233292Y0178020D01*
X0233209Y0177948D01*
X0233131Y0177892D01*
X0233070Y0177854D01*
X0233048Y0177837D01*
X0233031Y0177826D01*
X0233020Y0177820D01*
X0233014D01*
X0232881Y0177765D01*
X0232754Y0177720D01*
X0232632Y0177693D01*
X0232515Y0177670D01*
X0232421Y0177659D01*
X0232382Y0177654D01*
X0232348D01*
X0232321Y0177648D01*
X0232282D01*
X0232165Y0177654D01*
X0232060Y0177665D01*
X0231955Y0177687D01*
X0231860Y0177715D01*
X0231766Y0177743D01*
X0231682Y0177776D01*
X0231605Y0177815D01*
X0231533Y0177854D01*
X0231472Y0177892D01*
X0231416Y0177931D01*
X0231366Y0177964D01*
X0231327Y0177992D01*
X0231294Y0178020D01*
X0231272Y0178042D01*
X0231261Y0178053D01*
X0231255Y0178059D01*
X0231183Y0178142D01*
X0231122Y0178225D01*
X0231066Y0178309D01*
X0231016Y0178397D01*
X0230978Y0178486D01*
X0230944Y0178575D01*
X0230917Y0178658D01*
X0230894Y0178742D01*
X0230878Y0178814D01*
X0230867Y0178886D01*
X0230856Y0178947D01*
X0230850Y0179002D01*
X0230844Y0179047D01*
Y0179080D01*
Y0179102D01*
Y0179108D01*
X0230850Y0179224D01*
X0230861Y0179335D01*
X0230883Y0179435D01*
X0230906Y0179535D01*
X0230939Y0179624D01*
X0230972Y0179713D01*
X0231011Y0179790D01*
X0231044Y0179863D01*
X0231083Y0179924D01*
X0231122Y0179985D01*
X0231155Y0180029D01*
X0231189Y0180073D01*
X0231211Y0180101D01*
X0231233Y0180129D01*
X0231244Y0180140D01*
X0231250Y0180146D01*
X0231327Y0180218D01*
X0231411Y0180279D01*
X0231494Y0180334D01*
X0231583Y0180384D01*
X0231671Y0180423D01*
X0231755Y0180456D01*
X0231838Y0180484D01*
X0231921Y0180506D01*
X0231993Y0180523D01*
X0232066Y0180534D01*
X0232126Y0180545D01*
X0232182Y0180551D01*
X0232226Y0180556D01*
X0232288D01*
X0232437Y0180551D01*
D02*
G37*
G36*
X0222481Y0180168D02*
X0222547Y0180235D01*
X0222614Y0180296D01*
X0222680Y0180345D01*
X0222753Y0180395D01*
X0222819Y0180429D01*
X0222886Y0180462D01*
X0222952Y0180490D01*
X0223013Y0180506D01*
X0223075Y0180523D01*
X0223124Y0180534D01*
X0223174Y0180545D01*
X0223213Y0180551D01*
X0223247Y0180556D01*
X0223291D01*
X0223385Y0180551D01*
X0223474Y0180540D01*
X0223557Y0180523D01*
X0223641Y0180501D01*
X0223779Y0180440D01*
X0223846Y0180406D01*
X0223901Y0180373D01*
X0223957Y0180334D01*
X0224001Y0180301D01*
X0224040Y0180273D01*
X0224074Y0180246D01*
X0224101Y0180218D01*
X0224118Y0180201D01*
X0224129Y0180190D01*
X0224134Y0180184D01*
X0224190Y0180112D01*
X0224240Y0180035D01*
X0224284Y0179951D01*
X0224323Y0179863D01*
X0224357Y0179774D01*
X0224384Y0179685D01*
X0224423Y0179507D01*
X0224434Y0179430D01*
X0224445Y0179352D01*
X0224451Y0179285D01*
X0224456Y0179224D01*
X0224462Y0179174D01*
Y0179141D01*
Y0179113D01*
Y0179108D01*
X0224456Y0178980D01*
X0224445Y0178864D01*
X0224429Y0178753D01*
X0224407Y0178647D01*
X0224384Y0178553D01*
X0224357Y0178464D01*
X0224323Y0178386D01*
X0224290Y0178314D01*
X0224262Y0178248D01*
X0224229Y0178192D01*
X0224201Y0178142D01*
X0224173Y0178103D01*
X0224157Y0178070D01*
X0224140Y0178048D01*
X0224129Y0178037D01*
X0224123Y0178031D01*
X0224057Y0177964D01*
X0223990Y0177903D01*
X0223918Y0177854D01*
X0223851Y0177809D01*
X0223779Y0177770D01*
X0223713Y0177743D01*
X0223646Y0177715D01*
X0223585Y0177698D01*
X0223524Y0177682D01*
X0223468Y0177670D01*
X0223424Y0177659D01*
X0223380Y0177654D01*
X0223346Y0177648D01*
X0223302D01*
X0223213Y0177654D01*
X0223130Y0177665D01*
X0223047Y0177682D01*
X0222975Y0177704D01*
X0222919Y0177726D01*
X0222869Y0177743D01*
X0222841Y0177754D01*
X0222830Y0177759D01*
X0222747Y0177809D01*
X0222669Y0177865D01*
X0222597Y0177926D01*
X0222542Y0177981D01*
X0222492Y0178031D01*
X0222453Y0178076D01*
X0222431Y0178103D01*
X0222425Y0178114D01*
Y0177709D01*
X0221743D01*
Y0181550D01*
X0222481D01*
Y0180168D01*
D02*
G37*
G36*
X0216625Y0180551D02*
X0216764Y0180529D01*
X0216892Y0180501D01*
X0217003Y0180468D01*
X0217047Y0180445D01*
X0217092Y0180429D01*
X0217130Y0180418D01*
X0217158Y0180401D01*
X0217186Y0180390D01*
X0217203Y0180379D01*
X0217214Y0180373D01*
X0217219D01*
X0217336Y0180296D01*
X0217436Y0180212D01*
X0217525Y0180123D01*
X0217597Y0180040D01*
X0217652Y0179963D01*
X0217696Y0179902D01*
X0217713Y0179879D01*
X0217719Y0179863D01*
X0217730Y0179851D01*
Y0179846D01*
X0217791Y0179718D01*
X0217830Y0179591D01*
X0217863Y0179474D01*
X0217885Y0179369D01*
X0217896Y0179274D01*
X0217902Y0179235D01*
Y0179202D01*
X0217907Y0179180D01*
Y0179158D01*
Y0179147D01*
Y0179141D01*
X0217902Y0178969D01*
X0217880Y0178808D01*
X0217852Y0178669D01*
X0217835Y0178608D01*
X0217819Y0178553D01*
X0217802Y0178503D01*
X0217785Y0178458D01*
X0217769Y0178420D01*
X0217758Y0178386D01*
X0217746Y0178359D01*
X0217735Y0178342D01*
X0217730Y0178331D01*
Y0178325D01*
X0217652Y0178209D01*
X0217569Y0178109D01*
X0217480Y0178020D01*
X0217397Y0177948D01*
X0217319Y0177892D01*
X0217258Y0177854D01*
X0217236Y0177837D01*
X0217219Y0177826D01*
X0217208Y0177820D01*
X0217203D01*
X0217069Y0177765D01*
X0216942Y0177720D01*
X0216820Y0177693D01*
X0216703Y0177670D01*
X0216609Y0177659D01*
X0216570Y0177654D01*
X0216537D01*
X0216509Y0177648D01*
X0216470D01*
X0216353Y0177654D01*
X0216248Y0177665D01*
X0216143Y0177687D01*
X0216048Y0177715D01*
X0215954Y0177743D01*
X0215871Y0177776D01*
X0215793Y0177815D01*
X0215721Y0177854D01*
X0215660Y0177892D01*
X0215604Y0177931D01*
X0215554Y0177964D01*
X0215515Y0177992D01*
X0215482Y0178020D01*
X0215460Y0178042D01*
X0215449Y0178053D01*
X0215443Y0178059D01*
X0215371Y0178142D01*
X0215310Y0178225D01*
X0215254Y0178309D01*
X0215205Y0178397D01*
X0215166Y0178486D01*
X0215132Y0178575D01*
X0215105Y0178658D01*
X0215083Y0178742D01*
X0215066Y0178814D01*
X0215055Y0178886D01*
X0215044Y0178947D01*
X0215038Y0179002D01*
X0215033Y0179047D01*
Y0179080D01*
Y0179102D01*
Y0179108D01*
X0215038Y0179224D01*
X0215049Y0179335D01*
X0215071Y0179435D01*
X0215094Y0179535D01*
X0215127Y0179624D01*
X0215160Y0179713D01*
X0215199Y0179790D01*
X0215232Y0179863D01*
X0215271Y0179924D01*
X0215310Y0179985D01*
X0215343Y0180029D01*
X0215377Y0180073D01*
X0215399Y0180101D01*
X0215421Y0180129D01*
X0215432Y0180140D01*
X0215438Y0180146D01*
X0215515Y0180218D01*
X0215599Y0180279D01*
X0215682Y0180334D01*
X0215771Y0180384D01*
X0215860Y0180423D01*
X0215943Y0180456D01*
X0216026Y0180484D01*
X0216109Y0180506D01*
X0216181Y0180523D01*
X0216253Y0180534D01*
X0216315Y0180545D01*
X0216370Y0180551D01*
X0216414Y0180556D01*
X0216476D01*
X0216625Y0180551D01*
D02*
G37*
G36*
X0205004Y0180545D02*
X0205098Y0180534D01*
X0205187Y0180517D01*
X0205264Y0180501D01*
X0205337Y0180479D01*
X0205403Y0180456D01*
X0205464Y0180434D01*
X0205514Y0180406D01*
X0205559Y0180384D01*
X0205597Y0180362D01*
X0205625Y0180345D01*
X0205653Y0180329D01*
X0205670Y0180318D01*
X0205675Y0180312D01*
X0205681Y0180307D01*
X0205731Y0180262D01*
X0205775Y0180212D01*
X0205814Y0180162D01*
X0205842Y0180107D01*
X0205897Y0180007D01*
X0205930Y0179913D01*
X0205947Y0179829D01*
X0205953Y0179790D01*
X0205958Y0179763D01*
X0205964Y0179735D01*
Y0179718D01*
Y0179707D01*
Y0179702D01*
X0205958Y0179630D01*
X0205947Y0179563D01*
X0205936Y0179496D01*
X0205914Y0179435D01*
X0205858Y0179330D01*
X0205797Y0179241D01*
X0205742Y0179169D01*
X0205686Y0179119D01*
X0205664Y0179097D01*
X0205653Y0179086D01*
X0205642Y0179080D01*
X0205636Y0179075D01*
X0205586Y0179047D01*
X0205520Y0179014D01*
X0205442Y0178980D01*
X0205359Y0178952D01*
X0205270Y0178919D01*
X0205176Y0178891D01*
X0204981Y0178836D01*
X0204887Y0178808D01*
X0204798Y0178786D01*
X0204721Y0178764D01*
X0204648Y0178747D01*
X0204587Y0178736D01*
X0204543Y0178725D01*
X0204515Y0178714D01*
X0204504D01*
X0204438Y0178697D01*
X0204388Y0178681D01*
X0204343Y0178664D01*
X0204310Y0178653D01*
X0204288Y0178636D01*
X0204271Y0178630D01*
X0204260Y0178619D01*
X0204227Y0178575D01*
X0204210Y0178531D01*
X0204205Y0178497D01*
Y0178486D01*
Y0178481D01*
X0204210Y0178436D01*
X0204221Y0178397D01*
X0204238Y0178364D01*
X0204254Y0178336D01*
X0204271Y0178314D01*
X0204288Y0178297D01*
X0204299Y0178286D01*
X0204304Y0178281D01*
X0204365Y0178248D01*
X0204432Y0178225D01*
X0204504Y0178203D01*
X0204571Y0178192D01*
X0204632Y0178187D01*
X0204687Y0178181D01*
X0204732D01*
X0204826Y0178187D01*
X0204904Y0178198D01*
X0204976Y0178214D01*
X0205031Y0178236D01*
X0205076Y0178253D01*
X0205109Y0178270D01*
X0205131Y0178281D01*
X0205137Y0178286D01*
X0205187Y0178331D01*
X0205226Y0178386D01*
X0205259Y0178436D01*
X0205287Y0178492D01*
X0205303Y0178542D01*
X0205314Y0178581D01*
X0205326Y0178603D01*
Y0178614D01*
X0206064Y0178503D01*
X0206014Y0178364D01*
X0205953Y0178236D01*
X0205886Y0178131D01*
X0205814Y0178042D01*
X0205747Y0177970D01*
X0205686Y0177920D01*
X0205670Y0177898D01*
X0205653Y0177887D01*
X0205642Y0177881D01*
X0205636Y0177876D01*
X0205570Y0177837D01*
X0205503Y0177798D01*
X0205353Y0177743D01*
X0205204Y0177704D01*
X0205059Y0177676D01*
X0204993Y0177665D01*
X0204931Y0177659D01*
X0204876Y0177654D01*
X0204826D01*
X0204787Y0177648D01*
X0204732D01*
X0204621Y0177654D01*
X0204515Y0177659D01*
X0204415Y0177676D01*
X0204321Y0177693D01*
X0204238Y0177709D01*
X0204160Y0177737D01*
X0204088Y0177759D01*
X0204027Y0177787D01*
X0203971Y0177809D01*
X0203921Y0177837D01*
X0203883Y0177859D01*
X0203849Y0177876D01*
X0203821Y0177898D01*
X0203805Y0177909D01*
X0203794Y0177915D01*
X0203788Y0177920D01*
X0203733Y0177976D01*
X0203683Y0178031D01*
X0203638Y0178087D01*
X0203600Y0178142D01*
X0203572Y0178198D01*
X0203544Y0178253D01*
X0203505Y0178353D01*
X0203483Y0178447D01*
X0203477Y0178486D01*
X0203472Y0178514D01*
X0203466Y0178542D01*
Y0178564D01*
Y0178575D01*
Y0178581D01*
X0203477Y0178703D01*
X0203505Y0178814D01*
X0203538Y0178908D01*
X0203583Y0178986D01*
X0203627Y0179047D01*
X0203661Y0179091D01*
X0203688Y0179113D01*
X0203699Y0179124D01*
X0203749Y0179158D01*
X0203799Y0179197D01*
X0203860Y0179224D01*
X0203927Y0179258D01*
X0204060Y0179313D01*
X0204199Y0179363D01*
X0204321Y0179402D01*
X0204377Y0179413D01*
X0204427Y0179430D01*
X0204465Y0179441D01*
X0204493Y0179446D01*
X0204515Y0179452D01*
X0204521D01*
X0204626Y0179480D01*
X0204721Y0179502D01*
X0204804Y0179524D01*
X0204876Y0179546D01*
X0204943Y0179563D01*
X0204998Y0179580D01*
X0205043Y0179596D01*
X0205087Y0179607D01*
X0205120Y0179624D01*
X0205148Y0179635D01*
X0205170Y0179641D01*
X0205181Y0179652D01*
X0205204Y0179657D01*
X0205209Y0179663D01*
X0205231Y0179685D01*
X0205248Y0179707D01*
X0205270Y0179752D01*
X0205281Y0179785D01*
Y0179790D01*
Y0179796D01*
X0205276Y0179829D01*
X0205270Y0179857D01*
X0205237Y0179907D01*
X0205209Y0179935D01*
X0205204Y0179946D01*
X0205198D01*
X0205142Y0179974D01*
X0205081Y0179996D01*
X0205015Y0180007D01*
X0204943Y0180018D01*
X0204882Y0180024D01*
X0204832Y0180029D01*
X0204782D01*
X0204698Y0180024D01*
X0204626Y0180018D01*
X0204565Y0180001D01*
X0204515Y0179985D01*
X0204476Y0179968D01*
X0204449Y0179957D01*
X0204432Y0179946D01*
X0204427Y0179940D01*
X0204382Y0179907D01*
X0204349Y0179868D01*
X0204315Y0179829D01*
X0204293Y0179785D01*
X0204277Y0179752D01*
X0204265Y0179724D01*
X0204254Y0179702D01*
Y0179696D01*
X0203561Y0179824D01*
X0203605Y0179951D01*
X0203666Y0180062D01*
X0203727Y0180157D01*
X0203794Y0180229D01*
X0203849Y0180290D01*
X0203899Y0180334D01*
X0203932Y0180357D01*
X0203938Y0180368D01*
X0203944D01*
X0203999Y0180401D01*
X0204060Y0180429D01*
X0204193Y0180479D01*
X0204332Y0180512D01*
X0204471Y0180534D01*
X0204538Y0180540D01*
X0204598Y0180545D01*
X0204654Y0180551D01*
X0204698Y0180556D01*
X0204904D01*
X0205004Y0180545D01*
D02*
G37*
G36*
X0240762Y0180551D02*
X0240857Y0180534D01*
X0240946Y0180512D01*
X0241018Y0180490D01*
X0241079Y0180468D01*
X0241129Y0180445D01*
X0241156Y0180429D01*
X0241167Y0180423D01*
X0241251Y0180373D01*
X0241317Y0180318D01*
X0241384Y0180262D01*
X0241434Y0180207D01*
X0241473Y0180157D01*
X0241506Y0180118D01*
X0241523Y0180096D01*
X0241528Y0180085D01*
Y0180495D01*
X0242216D01*
Y0176644D01*
X0241478D01*
Y0178053D01*
X0241401Y0177976D01*
X0241328Y0177909D01*
X0241267Y0177854D01*
X0241206Y0177815D01*
X0241156Y0177781D01*
X0241123Y0177754D01*
X0241095Y0177743D01*
X0241090Y0177737D01*
X0241018Y0177709D01*
X0240946Y0177687D01*
X0240873Y0177670D01*
X0240807Y0177659D01*
X0240751Y0177654D01*
X0240707Y0177648D01*
X0240668D01*
X0240579Y0177654D01*
X0240496Y0177665D01*
X0240413Y0177682D01*
X0240335Y0177709D01*
X0240196Y0177770D01*
X0240135Y0177804D01*
X0240074Y0177842D01*
X0240024Y0177876D01*
X0239980Y0177909D01*
X0239941Y0177942D01*
X0239908Y0177970D01*
X0239880Y0177998D01*
X0239863Y0178015D01*
X0239852Y0178026D01*
X0239847Y0178031D01*
X0239786Y0178109D01*
X0239736Y0178192D01*
X0239686Y0178275D01*
X0239647Y0178364D01*
X0239614Y0178453D01*
X0239586Y0178542D01*
X0239547Y0178719D01*
X0239530Y0178797D01*
X0239519Y0178875D01*
X0239514Y0178941D01*
X0239508Y0178997D01*
X0239503Y0179047D01*
Y0179086D01*
Y0179108D01*
Y0179113D01*
X0239508Y0179235D01*
X0239519Y0179358D01*
X0239536Y0179463D01*
X0239552Y0179569D01*
X0239580Y0179663D01*
X0239608Y0179752D01*
X0239641Y0179829D01*
X0239669Y0179902D01*
X0239702Y0179963D01*
X0239736Y0180018D01*
X0239763Y0180068D01*
X0239786Y0180101D01*
X0239808Y0180135D01*
X0239824Y0180157D01*
X0239836Y0180168D01*
X0239841Y0180174D01*
X0239908Y0180240D01*
X0239974Y0180301D01*
X0240041Y0180351D01*
X0240113Y0180395D01*
X0240180Y0180434D01*
X0240252Y0180462D01*
X0240313Y0180490D01*
X0240379Y0180506D01*
X0240435Y0180523D01*
X0240490Y0180534D01*
X0240540Y0180545D01*
X0240579Y0180551D01*
X0240618Y0180556D01*
X0240662D01*
X0240762Y0180551D01*
D02*
G37*
G36*
X0237482Y0180551D02*
X0237577Y0180534D01*
X0237665Y0180512D01*
X0237738Y0180490D01*
X0237799Y0180468D01*
X0237849Y0180445D01*
X0237876Y0180429D01*
X0237887Y0180423D01*
X0237971Y0180373D01*
X0238037Y0180318D01*
X0238104Y0180262D01*
X0238154Y0180207D01*
X0238193Y0180157D01*
X0238226Y0180118D01*
X0238243Y0180096D01*
X0238248Y0180085D01*
Y0180495D01*
X0238936D01*
Y0176644D01*
X0238198D01*
Y0178053D01*
X0238121Y0177976D01*
X0238048Y0177909D01*
X0237987Y0177854D01*
X0237926Y0177815D01*
X0237876Y0177781D01*
X0237843Y0177754D01*
X0237815Y0177743D01*
X0237810Y0177737D01*
X0237738Y0177709D01*
X0237665Y0177687D01*
X0237593Y0177670D01*
X0237527Y0177659D01*
X0237471Y0177654D01*
X0237427Y0177648D01*
X0237388D01*
X0237299Y0177654D01*
X0237216Y0177665D01*
X0237133Y0177682D01*
X0237055Y0177709D01*
X0236916Y0177770D01*
X0236855Y0177804D01*
X0236794Y0177842D01*
X0236744Y0177876D01*
X0236700Y0177909D01*
X0236661Y0177942D01*
X0236628Y0177970D01*
X0236600Y0177998D01*
X0236583Y0178015D01*
X0236572Y0178026D01*
X0236566Y0178031D01*
X0236506Y0178109D01*
X0236455Y0178192D01*
X0236406Y0178275D01*
X0236367Y0178364D01*
X0236333Y0178453D01*
X0236306Y0178542D01*
X0236267Y0178719D01*
X0236250Y0178797D01*
X0236239Y0178875D01*
X0236233Y0178941D01*
X0236228Y0178997D01*
X0236222Y0179047D01*
Y0179086D01*
Y0179108D01*
Y0179113D01*
X0236228Y0179235D01*
X0236239Y0179358D01*
X0236256Y0179463D01*
X0236272Y0179569D01*
X0236300Y0179663D01*
X0236328Y0179752D01*
X0236361Y0179829D01*
X0236389Y0179902D01*
X0236422Y0179963D01*
X0236455Y0180018D01*
X0236483Y0180068D01*
X0236506Y0180101D01*
X0236528Y0180135D01*
X0236544Y0180157D01*
X0236555Y0180168D01*
X0236561Y0180173D01*
X0236628Y0180240D01*
X0236694Y0180301D01*
X0236761Y0180351D01*
X0236833Y0180395D01*
X0236899Y0180434D01*
X0236972Y0180462D01*
X0237033Y0180490D01*
X0237099Y0180506D01*
X0237155Y0180523D01*
X0237210Y0180534D01*
X0237260Y0180545D01*
X0237299Y0180551D01*
X0237338Y0180556D01*
X0237382D01*
X0237482Y0180551D01*
D02*
G37*
%LPC*%
G36*
X0238682Y0184380D02*
X0238677D01*
Y0184230D01*
Y0184141D01*
X0238682Y0184063D01*
X0238688Y0184002D01*
X0238693Y0183952D01*
X0238699Y0183919D01*
X0238704Y0183891D01*
X0238710Y0183880D01*
Y0183875D01*
X0238727Y0183825D01*
X0238755Y0183775D01*
X0238782Y0183736D01*
X0238810Y0183697D01*
X0238838Y0183669D01*
X0238860Y0183647D01*
X0238877Y0183636D01*
X0238882Y0183631D01*
X0238949Y0183586D01*
X0239021Y0183558D01*
X0239082Y0183536D01*
X0239143Y0183520D01*
X0239193Y0183509D01*
X0239232Y0183503D01*
X0239265D01*
X0239326Y0183509D01*
X0239387Y0183520D01*
X0239437Y0183536D01*
X0239476Y0183558D01*
X0239515Y0183581D01*
X0239537Y0183597D01*
X0239554Y0183608D01*
X0239559Y0183614D01*
X0239598Y0183658D01*
X0239626Y0183703D01*
X0239643Y0183747D01*
X0239654Y0183792D01*
X0239665Y0183825D01*
X0239670Y0183853D01*
Y0183875D01*
Y0183880D01*
X0239665Y0183936D01*
X0239648Y0183986D01*
X0239626Y0184030D01*
X0239598Y0184069D01*
X0239576Y0184097D01*
X0239554Y0184119D01*
X0239537Y0184130D01*
X0239531Y0184136D01*
X0239487Y0184158D01*
X0239432Y0184186D01*
X0239365Y0184208D01*
X0239298Y0184224D01*
X0239232Y0184241D01*
X0239182Y0184252D01*
X0239160Y0184258D01*
X0239143Y0184263D01*
X0239132D01*
X0239021Y0184285D01*
X0238932Y0184308D01*
X0238849Y0184330D01*
X0238788Y0184347D01*
X0238738Y0184363D01*
X0238704Y0184369D01*
X0238682Y0184380D01*
D02*
G37*
G36*
X0230923D02*
X0230918D01*
Y0184230D01*
Y0184141D01*
X0230923Y0184063D01*
X0230929Y0184002D01*
X0230935Y0183952D01*
X0230940Y0183919D01*
X0230946Y0183891D01*
X0230951Y0183880D01*
Y0183875D01*
X0230968Y0183825D01*
X0230996Y0183775D01*
X0231023Y0183736D01*
X0231051Y0183697D01*
X0231079Y0183669D01*
X0231101Y0183647D01*
X0231118Y0183636D01*
X0231123Y0183631D01*
X0231190Y0183586D01*
X0231262Y0183558D01*
X0231323Y0183536D01*
X0231384Y0183520D01*
X0231434Y0183509D01*
X0231473Y0183503D01*
X0231506D01*
X0231567Y0183509D01*
X0231628Y0183520D01*
X0231678Y0183536D01*
X0231717Y0183558D01*
X0231756Y0183581D01*
X0231778Y0183597D01*
X0231795Y0183608D01*
X0231800Y0183614D01*
X0231839Y0183658D01*
X0231867Y0183703D01*
X0231884Y0183747D01*
X0231895Y0183792D01*
X0231906Y0183825D01*
X0231911Y0183853D01*
Y0183875D01*
Y0183880D01*
X0231906Y0183936D01*
X0231889Y0183986D01*
X0231867Y0184030D01*
X0231839Y0184069D01*
X0231817Y0184097D01*
X0231795Y0184119D01*
X0231778Y0184130D01*
X0231773Y0184136D01*
X0231728Y0184158D01*
X0231673Y0184186D01*
X0231606Y0184208D01*
X0231540Y0184224D01*
X0231473Y0184241D01*
X0231423Y0184252D01*
X0231401Y0184258D01*
X0231384Y0184263D01*
X0231373D01*
X0231262Y0184285D01*
X0231173Y0184308D01*
X0231090Y0184330D01*
X0231029Y0184347D01*
X0230979Y0184363D01*
X0230946Y0184369D01*
X0230923Y0184380D01*
D02*
G37*
G36*
X0245120Y0185329D02*
X0245081D01*
X0244998Y0185323D01*
X0244926Y0185301D01*
X0244860Y0185273D01*
X0244804Y0185246D01*
X0244760Y0185212D01*
X0244726Y0185185D01*
X0244704Y0185162D01*
X0244699Y0185157D01*
X0244649Y0185090D01*
X0244604Y0185013D01*
X0244576Y0184929D01*
X0244554Y0184852D01*
X0244543Y0184785D01*
X0244538Y0184724D01*
X0244532Y0184702D01*
Y0184691D01*
Y0184679D01*
Y0184674D01*
X0245631D01*
X0245625Y0184779D01*
X0245609Y0184874D01*
X0245586Y0184957D01*
X0245553Y0185024D01*
X0245526Y0185079D01*
X0245498Y0185118D01*
X0245481Y0185146D01*
X0245476Y0185151D01*
X0245414Y0185212D01*
X0245348Y0185257D01*
X0245281Y0185284D01*
X0245220Y0185307D01*
X0245165Y0185318D01*
X0245120Y0185329D01*
D02*
G37*
G36*
X0251802Y0185296D02*
X0251775D01*
X0251669Y0185284D01*
X0251575Y0185262D01*
X0251497Y0185223D01*
X0251425Y0185185D01*
X0251370Y0185146D01*
X0251325Y0185107D01*
X0251303Y0185085D01*
X0251292Y0185074D01*
X0251225Y0184985D01*
X0251175Y0184879D01*
X0251142Y0184774D01*
X0251114Y0184674D01*
X0251103Y0184585D01*
X0251098Y0184541D01*
Y0184508D01*
X0251092Y0184480D01*
Y0184458D01*
Y0184447D01*
Y0184441D01*
X0251103Y0184297D01*
X0251125Y0184163D01*
X0251153Y0184058D01*
X0251192Y0183964D01*
X0251231Y0183897D01*
X0251259Y0183842D01*
X0251281Y0183814D01*
X0251292Y0183803D01*
X0251370Y0183730D01*
X0251447Y0183675D01*
X0251531Y0183642D01*
X0251608Y0183614D01*
X0251675Y0183597D01*
X0251725Y0183592D01*
X0251747Y0183586D01*
X0251775D01*
X0251880Y0183597D01*
X0251975Y0183619D01*
X0252058Y0183653D01*
X0252124Y0183697D01*
X0252186Y0183736D01*
X0252230Y0183769D01*
X0252252Y0183792D01*
X0252263Y0183803D01*
X0252330Y0183891D01*
X0252374Y0183997D01*
X0252408Y0184102D01*
X0252435Y0184208D01*
X0252446Y0184297D01*
X0252452Y0184335D01*
Y0184374D01*
X0252457Y0184402D01*
Y0184424D01*
Y0184435D01*
Y0184441D01*
X0252446Y0184585D01*
X0252424Y0184713D01*
X0252396Y0184824D01*
X0252358Y0184913D01*
X0252324Y0184979D01*
X0252291Y0185035D01*
X0252269Y0185063D01*
X0252263Y0185074D01*
X0252186Y0185146D01*
X0252102Y0185201D01*
X0252019Y0185240D01*
X0251941Y0185268D01*
X0251875Y0185284D01*
X0251825Y0185290D01*
X0251802Y0185296D01*
D02*
G37*
G36*
X0224946Y0185296D02*
X0224918D01*
X0224813Y0185284D01*
X0224718Y0185262D01*
X0224641Y0185223D01*
X0224569Y0185185D01*
X0224513Y0185146D01*
X0224469Y0185107D01*
X0224447Y0185085D01*
X0224435Y0185074D01*
X0224369Y0184985D01*
X0224319Y0184879D01*
X0224286Y0184774D01*
X0224258Y0184674D01*
X0224247Y0184585D01*
X0224241Y0184541D01*
Y0184508D01*
X0224236Y0184480D01*
Y0184458D01*
Y0184446D01*
Y0184441D01*
X0224247Y0184297D01*
X0224269Y0184163D01*
X0224297Y0184058D01*
X0224336Y0183964D01*
X0224374Y0183897D01*
X0224402Y0183842D01*
X0224424Y0183814D01*
X0224435Y0183803D01*
X0224513Y0183730D01*
X0224591Y0183675D01*
X0224674Y0183642D01*
X0224752Y0183614D01*
X0224818Y0183597D01*
X0224868Y0183592D01*
X0224891Y0183586D01*
X0224918D01*
X0225024Y0183597D01*
X0225118Y0183619D01*
X0225201Y0183653D01*
X0225268Y0183697D01*
X0225329Y0183736D01*
X0225373Y0183769D01*
X0225396Y0183791D01*
X0225407Y0183803D01*
X0225473Y0183891D01*
X0225518Y0183997D01*
X0225551Y0184102D01*
X0225579Y0184208D01*
X0225590Y0184297D01*
X0225595Y0184335D01*
Y0184374D01*
X0225601Y0184402D01*
Y0184424D01*
Y0184435D01*
Y0184441D01*
X0225590Y0184585D01*
X0225568Y0184713D01*
X0225540Y0184824D01*
X0225501Y0184913D01*
X0225468Y0184979D01*
X0225434Y0185035D01*
X0225412Y0185063D01*
X0225407Y0185074D01*
X0225329Y0185146D01*
X0225246Y0185201D01*
X0225163Y0185240D01*
X0225085Y0185268D01*
X0225018Y0185284D01*
X0224968Y0185290D01*
X0224946Y0185296D01*
D02*
G37*
G36*
X0216893D02*
X0216865D01*
X0216760Y0185284D01*
X0216666Y0185262D01*
X0216588Y0185223D01*
X0216516Y0185185D01*
X0216460Y0185146D01*
X0216416Y0185107D01*
X0216393Y0185085D01*
X0216382Y0185074D01*
X0216316Y0184985D01*
X0216266Y0184879D01*
X0216233Y0184774D01*
X0216205Y0184674D01*
X0216194Y0184585D01*
X0216188Y0184541D01*
Y0184508D01*
X0216183Y0184480D01*
Y0184458D01*
Y0184446D01*
Y0184441D01*
X0216194Y0184297D01*
X0216216Y0184163D01*
X0216244Y0184058D01*
X0216283Y0183964D01*
X0216321Y0183897D01*
X0216349Y0183842D01*
X0216371Y0183814D01*
X0216382Y0183803D01*
X0216460Y0183730D01*
X0216538Y0183675D01*
X0216621Y0183642D01*
X0216699Y0183614D01*
X0216765Y0183597D01*
X0216815Y0183592D01*
X0216838Y0183586D01*
X0216865D01*
X0216971Y0183597D01*
X0217065Y0183619D01*
X0217148Y0183653D01*
X0217215Y0183697D01*
X0217276Y0183736D01*
X0217320Y0183769D01*
X0217343Y0183791D01*
X0217354Y0183803D01*
X0217420Y0183891D01*
X0217465Y0183997D01*
X0217498Y0184102D01*
X0217526Y0184208D01*
X0217537Y0184297D01*
X0217542Y0184335D01*
Y0184374D01*
X0217548Y0184402D01*
Y0184424D01*
Y0184435D01*
Y0184441D01*
X0217537Y0184585D01*
X0217515Y0184713D01*
X0217487Y0184824D01*
X0217448Y0184913D01*
X0217415Y0184979D01*
X0217381Y0185035D01*
X0217359Y0185063D01*
X0217354Y0185074D01*
X0217276Y0185146D01*
X0217193Y0185201D01*
X0217109Y0185240D01*
X0217032Y0185268D01*
X0216965Y0185284D01*
X0216915Y0185290D01*
X0216893Y0185296D01*
D02*
G37*
G36*
X0243654Y0179041D02*
X0243648D01*
Y0178891D01*
Y0178803D01*
X0243654Y0178725D01*
X0243659Y0178664D01*
X0243665Y0178614D01*
X0243671Y0178581D01*
X0243676Y0178553D01*
X0243682Y0178542D01*
Y0178536D01*
X0243698Y0178486D01*
X0243726Y0178436D01*
X0243754Y0178398D01*
X0243781Y0178359D01*
X0243809Y0178331D01*
X0243831Y0178309D01*
X0243848Y0178298D01*
X0243854Y0178292D01*
X0243920Y0178248D01*
X0243992Y0178220D01*
X0244054Y0178198D01*
X0244114Y0178181D01*
X0244164Y0178170D01*
X0244203Y0178164D01*
X0244237D01*
X0244298Y0178170D01*
X0244359Y0178181D01*
X0244409Y0178198D01*
X0244447Y0178220D01*
X0244486Y0178242D01*
X0244509Y0178259D01*
X0244525Y0178270D01*
X0244531Y0178275D01*
X0244570Y0178320D01*
X0244597Y0178364D01*
X0244614Y0178409D01*
X0244625Y0178453D01*
X0244636Y0178486D01*
X0244642Y0178514D01*
Y0178536D01*
Y0178542D01*
X0244636Y0178597D01*
X0244620Y0178647D01*
X0244597Y0178692D01*
X0244570Y0178730D01*
X0244547Y0178758D01*
X0244525Y0178780D01*
X0244509Y0178791D01*
X0244503Y0178797D01*
X0244459Y0178819D01*
X0244403Y0178847D01*
X0244337Y0178869D01*
X0244270Y0178886D01*
X0244203Y0178902D01*
X0244153Y0178914D01*
X0244131Y0178919D01*
X0244114Y0178925D01*
X0244103D01*
X0243992Y0178947D01*
X0243904Y0178969D01*
X0243820Y0178991D01*
X0243759Y0179008D01*
X0243709Y0179025D01*
X0243676Y0179030D01*
X0243654Y0179041D01*
D02*
G37*
G36*
X0201291Y0179041D02*
X0201285D01*
Y0178891D01*
Y0178803D01*
X0201291Y0178725D01*
X0201296Y0178664D01*
X0201302Y0178614D01*
X0201307Y0178581D01*
X0201313Y0178553D01*
X0201319Y0178542D01*
Y0178536D01*
X0201335Y0178486D01*
X0201363Y0178436D01*
X0201391Y0178397D01*
X0201418Y0178359D01*
X0201446Y0178331D01*
X0201468Y0178309D01*
X0201485Y0178297D01*
X0201490Y0178292D01*
X0201557Y0178248D01*
X0201629Y0178220D01*
X0201690Y0178198D01*
X0201751Y0178181D01*
X0201801Y0178170D01*
X0201840Y0178164D01*
X0201873D01*
X0201935Y0178170D01*
X0201996Y0178181D01*
X0202045Y0178198D01*
X0202084Y0178220D01*
X0202123Y0178242D01*
X0202145Y0178259D01*
X0202162Y0178270D01*
X0202168Y0178275D01*
X0202206Y0178320D01*
X0202234Y0178364D01*
X0202251Y0178409D01*
X0202262Y0178453D01*
X0202273Y0178486D01*
X0202279Y0178514D01*
Y0178536D01*
Y0178542D01*
X0202273Y0178597D01*
X0202256Y0178647D01*
X0202234Y0178692D01*
X0202206Y0178730D01*
X0202184Y0178758D01*
X0202162Y0178780D01*
X0202145Y0178791D01*
X0202140Y0178797D01*
X0202096Y0178819D01*
X0202040Y0178847D01*
X0201973Y0178869D01*
X0201907Y0178886D01*
X0201840Y0178902D01*
X0201790Y0178914D01*
X0201768Y0178919D01*
X0201751Y0178925D01*
X0201740D01*
X0201629Y0178947D01*
X0201540Y0178969D01*
X0201457Y0178991D01*
X0201396Y0179008D01*
X0201346Y0179025D01*
X0201313Y0179030D01*
X0201291Y0179041D01*
D02*
G37*
G36*
X0226221Y0179990D02*
X0226183D01*
X0226099Y0179985D01*
X0226027Y0179963D01*
X0225960Y0179935D01*
X0225905Y0179907D01*
X0225861Y0179874D01*
X0225827Y0179846D01*
X0225805Y0179824D01*
X0225799Y0179818D01*
X0225750Y0179752D01*
X0225705Y0179674D01*
X0225677Y0179591D01*
X0225655Y0179513D01*
X0225644Y0179446D01*
X0225639Y0179385D01*
X0225633Y0179363D01*
Y0179352D01*
Y0179341D01*
Y0179335D01*
X0226732D01*
X0226726Y0179441D01*
X0226710Y0179535D01*
X0226688Y0179618D01*
X0226654Y0179685D01*
X0226626Y0179741D01*
X0226599Y0179779D01*
X0226582Y0179807D01*
X0226576Y0179813D01*
X0226516Y0179874D01*
X0226449Y0179918D01*
X0226382Y0179946D01*
X0226321Y0179968D01*
X0226266Y0179979D01*
X0226221Y0179990D01*
D02*
G37*
G36*
X0207729D02*
X0207690D01*
X0207607Y0179985D01*
X0207535Y0179963D01*
X0207468Y0179935D01*
X0207412Y0179907D01*
X0207368Y0179874D01*
X0207335Y0179846D01*
X0207312Y0179824D01*
X0207307Y0179818D01*
X0207257Y0179752D01*
X0207213Y0179674D01*
X0207185Y0179591D01*
X0207163Y0179513D01*
X0207152Y0179446D01*
X0207146Y0179385D01*
X0207140Y0179363D01*
Y0179352D01*
Y0179341D01*
Y0179335D01*
X0208239D01*
X0208234Y0179441D01*
X0208217Y0179535D01*
X0208195Y0179618D01*
X0208162Y0179685D01*
X0208134Y0179741D01*
X0208106Y0179779D01*
X0208089Y0179807D01*
X0208084Y0179813D01*
X0208023Y0179874D01*
X0207956Y0179918D01*
X0207890Y0179946D01*
X0207829Y0179968D01*
X0207773Y0179979D01*
X0207729Y0179990D01*
D02*
G37*
G36*
X0197278D02*
X0197239D01*
X0197156Y0179985D01*
X0197084Y0179963D01*
X0197017Y0179935D01*
X0196962Y0179907D01*
X0196917Y0179874D01*
X0196884Y0179846D01*
X0196862Y0179824D01*
X0196856Y0179818D01*
X0196806Y0179752D01*
X0196762Y0179674D01*
X0196734Y0179591D01*
X0196712Y0179513D01*
X0196701Y0179446D01*
X0196695Y0179385D01*
X0196690Y0179363D01*
Y0179352D01*
Y0179341D01*
Y0179335D01*
X0197789D01*
X0197783Y0179441D01*
X0197766Y0179535D01*
X0197744Y0179618D01*
X0197711Y0179685D01*
X0197683Y0179741D01*
X0197655Y0179779D01*
X0197639Y0179807D01*
X0197633Y0179813D01*
X0197572Y0179874D01*
X0197506Y0179918D01*
X0197439Y0179946D01*
X0197378Y0179968D01*
X0197322Y0179979D01*
X0197278Y0179990D01*
D02*
G37*
G36*
X0263023Y0179957D02*
X0262996D01*
X0262890Y0179946D01*
X0262796Y0179924D01*
X0262718Y0179885D01*
X0262646Y0179846D01*
X0262591Y0179807D01*
X0262546Y0179768D01*
X0262524Y0179746D01*
X0262513Y0179735D01*
X0262446Y0179646D01*
X0262396Y0179541D01*
X0262363Y0179435D01*
X0262335Y0179335D01*
X0262324Y0179247D01*
X0262318Y0179202D01*
Y0179169D01*
X0262313Y0179141D01*
Y0179119D01*
Y0179108D01*
Y0179102D01*
X0262324Y0178958D01*
X0262346Y0178825D01*
X0262374Y0178719D01*
X0262413Y0178625D01*
X0262452Y0178558D01*
X0262479Y0178503D01*
X0262502Y0178475D01*
X0262513Y0178464D01*
X0262591Y0178392D01*
X0262668Y0178336D01*
X0262751Y0178303D01*
X0262829Y0178275D01*
X0262896Y0178259D01*
X0262946Y0178253D01*
X0262968Y0178248D01*
X0262996D01*
X0263101Y0178259D01*
X0263195Y0178281D01*
X0263279Y0178314D01*
X0263345Y0178359D01*
X0263406Y0178398D01*
X0263451Y0178431D01*
X0263473Y0178453D01*
X0263484Y0178464D01*
X0263551Y0178553D01*
X0263595Y0178658D01*
X0263628Y0178764D01*
X0263656Y0178869D01*
X0263667Y0178958D01*
X0263673Y0178997D01*
Y0179036D01*
X0263678Y0179063D01*
Y0179086D01*
Y0179097D01*
Y0179102D01*
X0263667Y0179247D01*
X0263645Y0179374D01*
X0263617Y0179485D01*
X0263578Y0179574D01*
X0263545Y0179641D01*
X0263512Y0179696D01*
X0263490Y0179724D01*
X0263484Y0179735D01*
X0263406Y0179807D01*
X0263323Y0179863D01*
X0263240Y0179902D01*
X0263162Y0179929D01*
X0263095Y0179946D01*
X0263046Y0179951D01*
X0263023Y0179957D01*
D02*
G37*
G36*
X0232310Y0179957D02*
X0232282D01*
X0232176Y0179946D01*
X0232082Y0179924D01*
X0232004Y0179885D01*
X0231932Y0179846D01*
X0231877Y0179807D01*
X0231832Y0179768D01*
X0231810Y0179746D01*
X0231799Y0179735D01*
X0231733Y0179646D01*
X0231682Y0179541D01*
X0231649Y0179435D01*
X0231622Y0179335D01*
X0231610Y0179247D01*
X0231605Y0179202D01*
Y0179169D01*
X0231599Y0179141D01*
Y0179119D01*
Y0179108D01*
Y0179102D01*
X0231610Y0178958D01*
X0231633Y0178825D01*
X0231660Y0178719D01*
X0231699Y0178625D01*
X0231738Y0178558D01*
X0231766Y0178503D01*
X0231788Y0178475D01*
X0231799Y0178464D01*
X0231877Y0178392D01*
X0231955Y0178336D01*
X0232038Y0178303D01*
X0232115Y0178275D01*
X0232182Y0178259D01*
X0232232Y0178253D01*
X0232254Y0178248D01*
X0232282D01*
X0232387Y0178259D01*
X0232482Y0178281D01*
X0232565Y0178314D01*
X0232632Y0178359D01*
X0232693Y0178397D01*
X0232737Y0178431D01*
X0232759Y0178453D01*
X0232770Y0178464D01*
X0232837Y0178553D01*
X0232881Y0178658D01*
X0232915Y0178764D01*
X0232942Y0178869D01*
X0232954Y0178958D01*
X0232959Y0178997D01*
Y0179036D01*
X0232965Y0179063D01*
Y0179086D01*
Y0179097D01*
Y0179102D01*
X0232954Y0179247D01*
X0232931Y0179374D01*
X0232904Y0179485D01*
X0232865Y0179574D01*
X0232831Y0179641D01*
X0232798Y0179696D01*
X0232776Y0179724D01*
X0232770Y0179735D01*
X0232693Y0179807D01*
X0232609Y0179863D01*
X0232526Y0179902D01*
X0232448Y0179929D01*
X0232382Y0179946D01*
X0232332Y0179951D01*
X0232310Y0179957D01*
D02*
G37*
G36*
X0223108Y0179990D02*
X0223097D01*
X0223002Y0179979D01*
X0222914Y0179957D01*
X0222841Y0179924D01*
X0222775Y0179885D01*
X0222725Y0179846D01*
X0222691Y0179813D01*
X0222664Y0179790D01*
X0222658Y0179779D01*
X0222625Y0179735D01*
X0222597Y0179691D01*
X0222553Y0179580D01*
X0222525Y0179469D01*
X0222503Y0179352D01*
X0222492Y0179252D01*
X0222486Y0179202D01*
X0222481Y0179163D01*
Y0179130D01*
Y0179108D01*
Y0179091D01*
Y0179086D01*
X0222486Y0178936D01*
X0222508Y0178803D01*
X0222536Y0178692D01*
X0222569Y0178603D01*
X0222603Y0178531D01*
X0222631Y0178481D01*
X0222653Y0178453D01*
X0222658Y0178442D01*
X0222730Y0178370D01*
X0222802Y0178320D01*
X0222875Y0178281D01*
X0222941Y0178259D01*
X0223002Y0178242D01*
X0223047Y0178236D01*
X0223080Y0178231D01*
X0223091D01*
X0223147Y0178236D01*
X0223202Y0178242D01*
X0223302Y0178275D01*
X0223385Y0178320D01*
X0223457Y0178375D01*
X0223513Y0178425D01*
X0223552Y0178470D01*
X0223574Y0178503D01*
X0223585Y0178508D01*
Y0178514D01*
X0223607Y0178553D01*
X0223624Y0178597D01*
X0223657Y0178697D01*
X0223679Y0178808D01*
X0223691Y0178914D01*
X0223702Y0179008D01*
Y0179047D01*
X0223707Y0179086D01*
Y0179113D01*
Y0179141D01*
Y0179152D01*
Y0179158D01*
X0223702Y0179302D01*
X0223679Y0179430D01*
X0223652Y0179535D01*
X0223618Y0179624D01*
X0223591Y0179691D01*
X0223563Y0179741D01*
X0223541Y0179768D01*
X0223535Y0179779D01*
X0223463Y0179851D01*
X0223391Y0179902D01*
X0223319Y0179940D01*
X0223247Y0179963D01*
X0223191Y0179979D01*
X0223141Y0179985D01*
X0223108Y0179990D01*
D02*
G37*
G36*
X0216498Y0179957D02*
X0216470D01*
X0216365Y0179946D01*
X0216270Y0179924D01*
X0216193Y0179885D01*
X0216120Y0179846D01*
X0216065Y0179807D01*
X0216020Y0179768D01*
X0215998Y0179746D01*
X0215987Y0179735D01*
X0215920Y0179646D01*
X0215871Y0179541D01*
X0215837Y0179435D01*
X0215809Y0179335D01*
X0215798Y0179247D01*
X0215793Y0179202D01*
Y0179169D01*
X0215787Y0179141D01*
Y0179119D01*
Y0179108D01*
Y0179102D01*
X0215798Y0178958D01*
X0215821Y0178825D01*
X0215848Y0178719D01*
X0215887Y0178625D01*
X0215926Y0178558D01*
X0215954Y0178503D01*
X0215976Y0178475D01*
X0215987Y0178464D01*
X0216065Y0178392D01*
X0216143Y0178336D01*
X0216226Y0178303D01*
X0216303Y0178275D01*
X0216370Y0178259D01*
X0216420Y0178253D01*
X0216442Y0178248D01*
X0216470D01*
X0216575Y0178259D01*
X0216670Y0178281D01*
X0216753Y0178314D01*
X0216820Y0178359D01*
X0216881Y0178397D01*
X0216925Y0178431D01*
X0216947Y0178453D01*
X0216958Y0178464D01*
X0217025Y0178553D01*
X0217069Y0178658D01*
X0217103Y0178764D01*
X0217130Y0178869D01*
X0217142Y0178958D01*
X0217147Y0178997D01*
Y0179036D01*
X0217153Y0179063D01*
Y0179086D01*
Y0179097D01*
Y0179102D01*
X0217142Y0179247D01*
X0217119Y0179374D01*
X0217092Y0179485D01*
X0217053Y0179574D01*
X0217019Y0179641D01*
X0216986Y0179696D01*
X0216964Y0179724D01*
X0216958Y0179735D01*
X0216881Y0179807D01*
X0216797Y0179863D01*
X0216714Y0179902D01*
X0216636Y0179929D01*
X0216570Y0179946D01*
X0216520Y0179951D01*
X0216498Y0179957D01*
D02*
G37*
G36*
X0240879Y0179974D02*
X0240868D01*
X0240773Y0179963D01*
X0240690Y0179940D01*
X0240618Y0179907D01*
X0240557Y0179868D01*
X0240507Y0179824D01*
X0240468Y0179790D01*
X0240440Y0179768D01*
X0240435Y0179757D01*
X0240374Y0179668D01*
X0240329Y0179569D01*
X0240302Y0179457D01*
X0240280Y0179352D01*
X0240268Y0179258D01*
X0240263Y0179219D01*
X0240257Y0179180D01*
Y0179152D01*
Y0179130D01*
Y0179113D01*
Y0179108D01*
Y0179025D01*
X0240263Y0178947D01*
X0240274Y0178875D01*
X0240285Y0178808D01*
X0240296Y0178747D01*
X0240313Y0178692D01*
X0240329Y0178642D01*
X0240340Y0178597D01*
X0240374Y0178525D01*
X0240402Y0178475D01*
X0240424Y0178447D01*
X0240429Y0178436D01*
X0240496Y0178370D01*
X0240568Y0178320D01*
X0240640Y0178281D01*
X0240707Y0178259D01*
X0240768Y0178242D01*
X0240812Y0178236D01*
X0240846Y0178231D01*
X0240857D01*
X0240951Y0178242D01*
X0241040Y0178264D01*
X0241118Y0178303D01*
X0241179Y0178342D01*
X0241234Y0178381D01*
X0241273Y0178420D01*
X0241295Y0178442D01*
X0241306Y0178453D01*
X0241339Y0178497D01*
X0241367Y0178547D01*
X0241412Y0178653D01*
X0241445Y0178769D01*
X0241467Y0178886D01*
X0241478Y0178986D01*
X0241484Y0179030D01*
Y0179069D01*
X0241489Y0179102D01*
Y0179124D01*
Y0179141D01*
Y0179147D01*
X0241484Y0179291D01*
X0241462Y0179413D01*
X0241434Y0179519D01*
X0241401Y0179607D01*
X0241373Y0179674D01*
X0241345Y0179724D01*
X0241323Y0179752D01*
X0241317Y0179763D01*
X0241245Y0179835D01*
X0241173Y0179885D01*
X0241095Y0179924D01*
X0241023Y0179946D01*
X0240962Y0179963D01*
X0240912Y0179968D01*
X0240879Y0179974D01*
D02*
G37*
G36*
X0237599Y0179974D02*
X0237588D01*
X0237493Y0179963D01*
X0237410Y0179940D01*
X0237338Y0179907D01*
X0237277Y0179868D01*
X0237227Y0179824D01*
X0237188Y0179790D01*
X0237160Y0179768D01*
X0237155Y0179757D01*
X0237094Y0179668D01*
X0237049Y0179569D01*
X0237022Y0179457D01*
X0236999Y0179352D01*
X0236988Y0179258D01*
X0236983Y0179219D01*
X0236977Y0179180D01*
Y0179152D01*
Y0179130D01*
Y0179113D01*
Y0179108D01*
Y0179025D01*
X0236983Y0178947D01*
X0236994Y0178875D01*
X0237005Y0178808D01*
X0237016Y0178747D01*
X0237033Y0178692D01*
X0237049Y0178642D01*
X0237060Y0178597D01*
X0237094Y0178525D01*
X0237122Y0178475D01*
X0237144Y0178447D01*
X0237149Y0178436D01*
X0237216Y0178370D01*
X0237288Y0178320D01*
X0237360Y0178281D01*
X0237427Y0178259D01*
X0237488Y0178242D01*
X0237532Y0178236D01*
X0237565Y0178231D01*
X0237577D01*
X0237671Y0178242D01*
X0237760Y0178264D01*
X0237838Y0178303D01*
X0237898Y0178342D01*
X0237954Y0178381D01*
X0237993Y0178420D01*
X0238015Y0178442D01*
X0238026Y0178453D01*
X0238059Y0178497D01*
X0238087Y0178547D01*
X0238132Y0178653D01*
X0238165Y0178769D01*
X0238187Y0178886D01*
X0238198Y0178986D01*
X0238204Y0179030D01*
Y0179069D01*
X0238209Y0179102D01*
Y0179124D01*
Y0179141D01*
Y0179147D01*
X0238204Y0179291D01*
X0238182Y0179413D01*
X0238154Y0179518D01*
X0238121Y0179607D01*
X0238093Y0179674D01*
X0238065Y0179724D01*
X0238043Y0179752D01*
X0238037Y0179763D01*
X0237965Y0179835D01*
X0237893Y0179885D01*
X0237815Y0179924D01*
X0237743Y0179946D01*
X0237682Y0179963D01*
X0237632Y0179968D01*
X0237599Y0179974D01*
D02*
G37*
%LPD*%
G54D11*
X0245865Y0256880D02*
Y0291920D01*
X0278935D01*
Y0256880D02*
Y0291920D01*
X0245865Y0256880D02*
X0278935D01*
G54D15*
X0211364Y0258805D02*
Y0262349D01*
X0201836D02*
X0211364D01*
X0201836Y0258805D02*
Y0262349D01*
Y0243451D02*
Y0246994D01*
Y0243451D02*
X0211364D01*
Y0246994D01*
X0248930Y0309693D02*
Y0321040D01*
X0272071Y0309693D02*
Y0321040D01*
X0248930D02*
X0272071D01*
X0248930Y0291960D02*
X0272071D01*
X0248930D02*
Y0303307D01*
X0272071Y0291960D02*
Y0303307D01*
X0184836Y0216251D02*
Y0219794D01*
Y0216251D02*
X0194364D01*
Y0219794D01*
Y0231605D02*
Y0235149D01*
X0184836D02*
X0194364D01*
X0184836Y0231605D02*
Y0235149D01*
X0212100Y0269650D02*
X0214400D01*
Y0273750D01*
X0212100D02*
X0214400D01*
X0204800Y0269650D02*
X0207100D01*
X0204800D02*
Y0273750D01*
X0207100D01*
X0205000Y0268750D02*
X0207300D01*
X0205000Y0264650D02*
Y0268750D01*
Y0264650D02*
X0207300D01*
X0212300Y0268750D02*
X0214600D01*
Y0264650D02*
Y0268750D01*
X0212300Y0264650D02*
X0214600D01*
X0315270Y0249360D02*
Y0260707D01*
X0292129Y0249360D02*
Y0260707D01*
Y0249360D02*
X0315270D01*
X0292129Y0278440D02*
X0315270D01*
Y0267093D02*
Y0278440D01*
X0292129Y0267093D02*
Y0278440D01*
X0178400Y0268550D02*
X0180700D01*
X0178400Y0264450D02*
Y0268550D01*
Y0264450D02*
X0180700D01*
X0185700Y0268550D02*
X0188000D01*
Y0264450D02*
Y0268550D01*
X0185700Y0264450D02*
X0188000D01*
X0176350Y0273100D02*
Y0275400D01*
X0172250D02*
X0176350D01*
X0172250Y0273100D02*
Y0275400D01*
X0176350Y0265800D02*
Y0268100D01*
X0172250Y0265800D02*
X0176350D01*
X0172250D02*
Y0268100D01*
X0183750Y0279200D02*
Y0281500D01*
X0179650D02*
X0183750D01*
X0179650Y0279200D02*
Y0281500D01*
X0183750Y0271900D02*
Y0274200D01*
X0179650Y0271900D02*
X0183750D01*
X0179650D02*
Y0274200D01*
X0179150Y0289100D02*
Y0291400D01*
X0175050D02*
X0179150D01*
X0175050Y0289100D02*
Y0291400D01*
X0179150Y0281800D02*
Y0284100D01*
X0175050Y0281800D02*
X0179150D01*
X0175050D02*
Y0284100D01*
X0346251Y0351664D02*
X0349795D01*
X0346251Y0342136D02*
Y0351664D01*
Y0342136D02*
X0349795D01*
X0361606D02*
X0365149D01*
Y0351664D01*
X0361606D02*
X0365149D01*
X0199300Y0301100D02*
Y0306100D01*
Y0301100D02*
X0209300D01*
Y0311100D01*
X0207600Y0313100D02*
Y0329400D01*
X0201000D02*
X0207600D01*
X0201000Y0313100D02*
Y0329400D01*
X0199300Y0306100D02*
Y0311100D01*
X0204300Y0320800D02*
Y0322800D01*
X0202300Y0320800D02*
X0206300D01*
X0203300Y0319800D02*
X0205300D01*
X0203800Y0318800D02*
X0204800D01*
X0207600Y0313100D02*
X0209300Y0311100D01*
X0199300D02*
X0201000Y0313100D01*
X0212500Y0291500D02*
Y0296500D01*
Y0291500D02*
X0222500D01*
Y0301500D01*
X0220800Y0303500D02*
Y0319800D01*
X0214200D02*
X0220800D01*
X0214200Y0303500D02*
Y0319800D01*
X0212500Y0296500D02*
Y0301500D01*
X0217500Y0311200D02*
Y0313200D01*
X0215500Y0311200D02*
X0219500D01*
X0216500Y0310200D02*
X0218500D01*
X0217000Y0309200D02*
X0218000D01*
X0220800Y0303500D02*
X0222500Y0301500D01*
X0212500D02*
X0214200Y0303500D01*
X0187036Y0254464D02*
X0190571Y0258000D01*
X0164691Y0243858D02*
X0176217Y0255384D01*
X0164691Y0243858D02*
X0169358Y0239191D01*
X0180884Y0250717D01*
X0183500Y0250929D02*
X0187036Y0254464D01*
X0171691Y0246191D02*
X0173106Y0247605D01*
X0171691Y0249020D02*
X0174520Y0246191D01*
X0173106Y0249020D02*
X0174520Y0247605D01*
X0174166Y0249373D02*
X0174873Y0248666D01*
X0176217Y0255384D02*
X0176429Y0258000D01*
X0180884Y0250717D02*
X0183500Y0250929D01*
X0180100Y0286400D02*
Y0291400D01*
Y0286400D02*
X0190100D01*
Y0296400D01*
X0188400Y0298400D02*
Y0314700D01*
X0181800D02*
X0188400D01*
X0181800Y0298400D02*
Y0314700D01*
X0180100Y0291400D02*
Y0296400D01*
X0185100Y0306100D02*
Y0308100D01*
X0183100Y0306100D02*
X0187100D01*
X0184100Y0305100D02*
X0186100D01*
X0184600Y0304100D02*
X0185600D01*
X0188400Y0298400D02*
X0190100Y0296400D01*
X0180100D02*
X0181800Y0298400D01*
X0232400Y0258700D02*
Y0263700D01*
X0222400D02*
X0232400D01*
X0222400Y0253700D02*
Y0263700D01*
X0224100Y0235400D02*
Y0251700D01*
Y0235400D02*
X0230700D01*
Y0251700D01*
X0232400Y0253700D02*
Y0258700D01*
X0227400Y0242000D02*
Y0244000D01*
X0225400D02*
X0229400D01*
X0226400Y0245000D02*
X0228400D01*
X0226900Y0246000D02*
X0227900D01*
X0222400Y0253700D02*
X0224100Y0251700D01*
X0230700D02*
X0232400Y0253700D01*
X0204064Y0282564D02*
X0207600Y0279029D01*
X0214671Y0286100D01*
X0207600Y0293171D02*
X0214671Y0286100D01*
X0193458Y0304909D02*
X0204984Y0293383D01*
X0188791Y0300242D02*
X0193458Y0304909D01*
X0188791Y0300242D02*
X0200317Y0288716D01*
X0200529Y0286100D02*
X0204064Y0282564D01*
X0195791Y0297909D02*
X0197205Y0296494D01*
X0195791Y0295080D02*
X0198620Y0297909D01*
X0197205Y0295080D02*
X0198620Y0296494D01*
X0198266Y0294727D02*
X0198973Y0295434D01*
X0204984Y0293383D02*
X0207600Y0293171D01*
X0200317Y0288716D02*
X0200529Y0286100D01*
X0299152Y0234011D02*
X0299819Y0234677D01*
X0301152D01*
X0301818Y0234011D01*
Y0231345D01*
X0301152Y0230678D01*
X0299819D01*
X0299152Y0231345D01*
X0297819Y0230678D02*
Y0233344D01*
X0296487Y0234677D01*
X0295154Y0233344D01*
Y0230678D01*
Y0232678D01*
X0297819D01*
X0293821Y0234677D02*
Y0231345D01*
X0293154Y0230678D01*
X0291822D01*
X0291155Y0231345D01*
Y0234677D01*
X0289822D02*
X0287156D01*
X0288489D01*
Y0230678D01*
X0285823Y0234677D02*
X0284490D01*
X0285157D01*
Y0230678D01*
X0285823D01*
X0284490D01*
X0280492Y0234677D02*
X0281825D01*
X0282491Y0234011D01*
Y0231345D01*
X0281825Y0230678D01*
X0280492D01*
X0279825Y0231345D01*
Y0234011D01*
X0280492Y0234677D01*
X0278492Y0230678D02*
Y0234677D01*
X0275827Y0230678D01*
Y0234677D01*
X0270495D02*
Y0230678D01*
Y0232678D01*
X0267829D01*
Y0234677D01*
Y0230678D01*
X0264497Y0234677D02*
X0265830D01*
X0266496Y0234011D01*
Y0231345D01*
X0265830Y0230678D01*
X0264497D01*
X0263830Y0231345D01*
Y0234011D01*
X0264497Y0234677D01*
X0262498D02*
X0259832D01*
X0261165D01*
Y0230678D01*
X0291488Y0227532D02*
X0292155Y0228199D01*
X0293488D01*
X0294154Y0227532D01*
Y0226866D01*
X0293488Y0226199D01*
X0292155D01*
X0291488Y0225533D01*
Y0224866D01*
X0292155Y0224200D01*
X0293488D01*
X0294154Y0224866D01*
X0290155Y0228199D02*
Y0224866D01*
X0289489Y0224200D01*
X0288156D01*
X0287490Y0224866D01*
Y0228199D01*
X0286157Y0224200D02*
Y0228199D01*
X0284157D01*
X0283491Y0227532D01*
Y0226199D01*
X0284157Y0225533D01*
X0286157D01*
X0284824D02*
X0283491Y0224200D01*
X0279492Y0228199D02*
X0282158D01*
Y0226199D01*
X0280825D01*
X0282158D01*
Y0224200D01*
X0278159D02*
Y0226866D01*
X0276826Y0228199D01*
X0275493Y0226866D01*
Y0224200D01*
Y0226199D01*
X0278159D01*
X0271495Y0227532D02*
X0272161Y0228199D01*
X0273494D01*
X0274161Y0227532D01*
Y0224866D01*
X0273494Y0224200D01*
X0272161D01*
X0271495Y0224866D01*
X0267496Y0228199D02*
X0270162D01*
Y0224200D01*
X0267496D01*
X0270162Y0226199D02*
X0268829D01*
X0359768Y0261077D02*
Y0257078D01*
X0357769D01*
X0357102Y0257745D01*
Y0260411D01*
X0357769Y0261077D01*
X0359768D01*
X0355769Y0257078D02*
Y0259744D01*
X0354437Y0261077D01*
X0353104Y0259744D01*
Y0257078D01*
Y0259078D01*
X0355769D01*
X0351771Y0257078D02*
Y0261077D01*
X0349105Y0257078D01*
Y0261077D01*
X0345106Y0260411D02*
X0345773Y0261077D01*
X0347106D01*
X0347772Y0260411D01*
Y0257745D01*
X0347106Y0257078D01*
X0345773D01*
X0345106Y0257745D01*
Y0259078D01*
X0346439D01*
X0341108Y0261077D02*
X0343773D01*
Y0257078D01*
X0341108D01*
X0343773Y0259078D02*
X0342441D01*
X0339775Y0257078D02*
Y0261077D01*
X0337775D01*
X0337109Y0260411D01*
Y0259078D01*
X0337775Y0258411D01*
X0339775D01*
X0338442D02*
X0337109Y0257078D01*
X0331777Y0261077D02*
Y0257078D01*
Y0259078D01*
X0329112D01*
Y0261077D01*
Y0257078D01*
X0327779Y0261077D02*
X0326446D01*
X0327112D01*
Y0257078D01*
X0327779D01*
X0326446D01*
X0321780Y0260411D02*
X0322447Y0261077D01*
X0323780D01*
X0324446Y0260411D01*
Y0257745D01*
X0323780Y0257078D01*
X0322447D01*
X0321780Y0257745D01*
Y0259078D01*
X0323113D01*
X0320448Y0261077D02*
Y0257078D01*
Y0259078D01*
X0317782D01*
Y0261077D01*
Y0257078D01*
X0352104Y0254599D02*
Y0251933D01*
X0350771Y0250600D01*
X0349438Y0251933D01*
Y0254599D01*
X0346106D02*
X0347439D01*
X0348105Y0253932D01*
Y0251266D01*
X0347439Y0250600D01*
X0346106D01*
X0345440Y0251266D01*
Y0253932D01*
X0346106Y0254599D01*
X0344107D02*
Y0250600D01*
X0341441D01*
X0340108Y0254599D02*
X0337442D01*
X0338775D01*
Y0250600D01*
X0336109D02*
Y0253266D01*
X0334776Y0254599D01*
X0333443Y0253266D01*
Y0250600D01*
Y0252599D01*
X0336109D01*
X0329445Y0253932D02*
X0330111Y0254599D01*
X0331444D01*
X0332111Y0253932D01*
Y0251266D01*
X0331444Y0250600D01*
X0330111D01*
X0329445Y0251266D01*
Y0252599D01*
X0330778D01*
X0325446Y0254599D02*
X0328112D01*
Y0250600D01*
X0325446D01*
X0328112Y0252599D02*
X0326779D01*
X0313268Y0344377D02*
Y0340378D01*
X0311269D01*
X0310602Y0341045D01*
Y0343711D01*
X0311269Y0344377D01*
X0313268D01*
X0309269Y0340378D02*
Y0343044D01*
X0307937Y0344377D01*
X0306604Y0343044D01*
Y0340378D01*
Y0342378D01*
X0309269D01*
X0305271Y0340378D02*
Y0344377D01*
X0302605Y0340378D01*
Y0344377D01*
X0298606Y0343711D02*
X0299273Y0344377D01*
X0300606D01*
X0301272Y0343711D01*
Y0341045D01*
X0300606Y0340378D01*
X0299273D01*
X0298606Y0341045D01*
Y0342378D01*
X0299939D01*
X0294608Y0344377D02*
X0297273D01*
Y0340378D01*
X0294608D01*
X0297273Y0342378D02*
X0295940D01*
X0293275Y0340378D02*
Y0344377D01*
X0291275D01*
X0290609Y0343711D01*
Y0342378D01*
X0291275Y0341711D01*
X0293275D01*
X0291942D02*
X0290609Y0340378D01*
X0285277Y0344377D02*
Y0340378D01*
Y0342378D01*
X0282611D01*
Y0344377D01*
Y0340378D01*
X0281278Y0344377D02*
X0279946D01*
X0280612D01*
Y0340378D01*
X0281278D01*
X0279946D01*
X0275280Y0343711D02*
X0275947Y0344377D01*
X0277280D01*
X0277946Y0343711D01*
Y0341045D01*
X0277280Y0340378D01*
X0275947D01*
X0275280Y0341045D01*
Y0342378D01*
X0276613D01*
X0273948Y0344377D02*
Y0340378D01*
Y0342378D01*
X0271282D01*
Y0344377D01*
Y0340378D01*
X0305604Y0337899D02*
Y0335233D01*
X0304271Y0333900D01*
X0302938Y0335233D01*
Y0337899D01*
X0299606D02*
X0300939D01*
X0301605Y0337232D01*
Y0334566D01*
X0300939Y0333900D01*
X0299606D01*
X0298939Y0334566D01*
Y0337232D01*
X0299606Y0337899D01*
X0297607D02*
Y0333900D01*
X0294941D01*
X0293608Y0337899D02*
X0290942D01*
X0292275D01*
Y0333900D01*
X0289609D02*
Y0336566D01*
X0288276Y0337899D01*
X0286943Y0336566D01*
Y0333900D01*
Y0335899D01*
X0289609D01*
X0282945Y0337232D02*
X0283611Y0337899D01*
X0284944D01*
X0285611Y0337232D01*
Y0334566D01*
X0284944Y0333900D01*
X0283611D01*
X0282945Y0334566D01*
Y0335899D01*
X0284278D01*
X0278946Y0337899D02*
X0281612D01*
Y0333900D01*
X0278946D01*
X0281612Y0335899D02*
X0280279D01*
G54D16*
X0497200Y0080717D02*
Y0101050D01*
X0413200Y0080717D02*
Y0101050D01*
X0040000Y0080717D02*
X0700200D01*
X0040000Y0060383D02*
X0700000D01*
X0040000Y0040050D02*
X0440500D01*
X0040050Y0101050D02*
X0700200D01*
X0040050Y0040050D02*
Y0101050D01*
Y0040050D02*
X0197600D01*
X0040000D02*
Y0101050D01*
X0286500Y0040050D02*
Y0101050D01*
X0700200Y0040050D02*
Y0101050D01*
X0440500Y0040050D02*
X0700200D01*
X0559400Y0039400D02*
Y0059683D01*
G54D17*
X0126900Y0073549D02*
Y0067551D01*
X0129899D01*
X0130899Y0068550D01*
Y0069550D01*
X0129899Y0070550D01*
X0126900D01*
X0129899D01*
X0130899Y0071549D01*
Y0072549D01*
X0129899Y0073549D01*
X0126900D01*
X0133898Y0067551D02*
X0135897D01*
X0136897Y0068550D01*
Y0070550D01*
X0135897Y0071549D01*
X0133898D01*
X0132898Y0070550D01*
Y0068550D01*
X0133898Y0067551D01*
X0139896Y0072549D02*
Y0071549D01*
X0138896D01*
X0140895D01*
X0139896D01*
Y0068550D01*
X0140895Y0067551D01*
X0144894Y0072549D02*
Y0071549D01*
X0143895D01*
X0145894D01*
X0144894D01*
Y0068550D01*
X0145894Y0067551D01*
X0149893D02*
X0151892D01*
X0152892Y0068550D01*
Y0070550D01*
X0151892Y0071549D01*
X0149893D01*
X0148893Y0070550D01*
Y0068550D01*
X0149893Y0067551D01*
X0154891D02*
Y0071549D01*
X0155891D01*
X0156890Y0070550D01*
Y0067551D01*
Y0070550D01*
X0157890Y0071549D01*
X0158890Y0070550D01*
Y0067551D01*
X0169886Y0073549D02*
X0167887D01*
X0166887Y0072549D01*
Y0068550D01*
X0167887Y0067551D01*
X0169886D01*
X0170886Y0068550D01*
Y0072549D01*
X0169886Y0073549D01*
X0172885Y0071549D02*
X0174884Y0067551D01*
X0176884Y0071549D01*
X0181882Y0067551D02*
X0179883D01*
X0178883Y0068550D01*
Y0070550D01*
X0179883Y0071549D01*
X0181882D01*
X0182882Y0070550D01*
Y0069550D01*
X0178883D01*
X0184881Y0071549D02*
Y0067551D01*
Y0069550D01*
X0185881Y0070550D01*
X0186881Y0071549D01*
X0187880D01*
X0190879Y0067551D02*
X0192879D01*
X0191879D01*
Y0073549D01*
X0190879D01*
X0196877Y0071549D02*
X0198877D01*
X0199876Y0070550D01*
Y0067551D01*
X0196877D01*
X0195878Y0068550D01*
X0196877Y0069550D01*
X0199876D01*
X0201876Y0071549D02*
Y0068550D01*
X0202875Y0067551D01*
X0205874D01*
Y0066551D01*
X0204875Y0065551D01*
X0203875D01*
X0205874Y0067551D02*
Y0071549D01*
X0567400Y0087833D02*
Y0093831D01*
X0571399Y0087833D01*
Y0093831D01*
X0574398Y0087833D02*
X0576397D01*
X0577397Y0088833D01*
Y0090832D01*
X0576397Y0091832D01*
X0574398D01*
X0573398Y0090832D01*
Y0088833D01*
X0574398Y0087833D01*
X0580396Y0092832D02*
Y0091832D01*
X0579396D01*
X0581395D01*
X0580396D01*
Y0088833D01*
X0581395Y0087833D01*
X0590393Y0093831D02*
X0592392D01*
X0591392D01*
Y0087833D01*
X0590393D01*
X0592392D01*
X0595391D02*
Y0091832D01*
X0598390D01*
X0599390Y0090832D01*
Y0087833D01*
X0607387Y0093831D02*
Y0089833D01*
X0609386Y0087833D01*
X0611386Y0089833D01*
Y0093831D01*
X0616384Y0087833D02*
X0614385D01*
X0613385Y0088833D01*
Y0090832D01*
X0614385Y0091832D01*
X0616384D01*
X0617384Y0090832D01*
Y0089833D01*
X0613385D01*
X0619383Y0091832D02*
Y0087833D01*
Y0089833D01*
X0620383Y0090832D01*
X0621383Y0091832D01*
X0622382D01*
X0625381Y0087833D02*
X0628380D01*
X0629380Y0088833D01*
X0628380Y0089833D01*
X0626381D01*
X0625381Y0090832D01*
X0626381Y0091832D01*
X0629380D01*
X0631379Y0087833D02*
X0633379D01*
X0632379D01*
Y0091832D01*
X0631379D01*
X0637377Y0087833D02*
X0639377D01*
X0640376Y0088833D01*
Y0090832D01*
X0639377Y0091832D01*
X0637377D01*
X0636378Y0090832D01*
Y0088833D01*
X0637377Y0087833D01*
X0642376D02*
Y0091832D01*
X0645375D01*
X0646374Y0090832D01*
Y0087833D01*
X0652373Y0092832D02*
X0651373Y0093831D01*
X0649373D01*
X0648374Y0092832D01*
Y0088833D01*
X0649373Y0087833D01*
X0651373D01*
X0652373Y0088833D01*
X0655372Y0087833D02*
X0657371D01*
X0658371Y0088833D01*
Y0090832D01*
X0657371Y0091832D01*
X0655372D01*
X0654372Y0090832D01*
Y0088833D01*
X0655372Y0087833D01*
X0660370D02*
Y0091832D01*
X0663369D01*
X0664369Y0090832D01*
Y0087833D01*
X0667368Y0092832D02*
Y0091832D01*
X0666368D01*
X0668367D01*
X0667368D01*
Y0088833D01*
X0668367Y0087833D01*
X0671366Y0091832D02*
Y0087833D01*
Y0089833D01*
X0672366Y0090832D01*
X0673366Y0091832D01*
X0674365D01*
X0678364Y0087833D02*
X0680364D01*
X0681363Y0088833D01*
Y0090832D01*
X0680364Y0091832D01*
X0678364D01*
X0677364Y0090832D01*
Y0088833D01*
X0678364Y0087833D01*
X0683362D02*
X0685362D01*
X0684362D01*
Y0093831D01*
X0683362D01*
X0520799Y0092832D02*
X0519799Y0093831D01*
X0517800D01*
X0516800Y0092832D01*
Y0091832D01*
X0517800Y0090832D01*
X0519799D01*
X0520799Y0089833D01*
Y0088833D01*
X0519799Y0087833D01*
X0517800D01*
X0516800Y0088833D01*
X0522798Y0093831D02*
Y0089833D01*
X0524797Y0087833D01*
X0526797Y0089833D01*
Y0093831D01*
X0528796Y0087833D02*
Y0093831D01*
X0532795Y0087833D01*
Y0093831D01*
X0540792Y0087833D02*
Y0093831D01*
X0543791D01*
X0544791Y0092832D01*
Y0090832D01*
X0543791Y0089833D01*
X0540792D01*
X0542792D02*
X0544791Y0087833D01*
X0550789Y0093831D02*
X0546790D01*
Y0087833D01*
X0550789D01*
X0546790Y0090832D02*
X0548790D01*
X0552788Y0093831D02*
Y0089833D01*
X0554788Y0087833D01*
X0556787Y0089833D01*
Y0093831D01*
X0558786Y0091832D02*
X0559786D01*
Y0090832D01*
X0558786D01*
Y0091832D01*
Y0088833D02*
X0559786D01*
Y0087833D01*
X0558786D01*
Y0088833D01*
X0433000Y0087833D02*
Y0093831D01*
X0435999D01*
X0436999Y0092832D01*
Y0090832D01*
X0435999Y0089833D01*
X0433000D01*
X0434999D02*
X0436999Y0087833D01*
X0442997Y0093831D02*
X0438998D01*
Y0087833D01*
X0442997D01*
X0438998Y0090832D02*
X0440997D01*
X0444996Y0093831D02*
Y0089833D01*
X0446995Y0087833D01*
X0448995Y0089833D01*
Y0093831D01*
X0450994Y0091832D02*
X0451994D01*
Y0090832D01*
X0450994D01*
Y0091832D01*
Y0088833D02*
X0451994D01*
Y0087833D01*
X0450994D01*
Y0088833D01*
X0126900Y0052965D02*
Y0046966D01*
Y0049966D01*
X0130899D01*
Y0052965D01*
Y0046966D01*
X0132898Y0052965D02*
Y0048966D01*
X0134897Y0046966D01*
X0136897Y0048966D01*
Y0052965D01*
X0138896Y0046966D02*
Y0052965D01*
X0141895D01*
X0142895Y0051965D01*
Y0049966D01*
X0141895Y0048966D01*
X0138896D01*
X0144894Y0051965D02*
X0145894Y0052965D01*
X0147893D01*
X0148893Y0051965D01*
Y0047966D01*
X0147893Y0046966D01*
X0145894D01*
X0144894Y0047966D01*
Y0051965D01*
X0150892Y0046966D02*
X0152892D01*
X0151892D01*
Y0052965D01*
X0150892Y0051965D01*
X0159889Y0046966D02*
X0155891D01*
X0159889Y0050965D01*
Y0051965D01*
X0158890Y0052965D01*
X0156890D01*
X0155891Y0051965D01*
X0161889Y0046966D02*
Y0050965D01*
X0163888Y0052965D01*
X0165887Y0050965D01*
Y0046966D01*
Y0049966D01*
X0161889D01*
X0167887Y0046966D02*
Y0047966D01*
X0168886D01*
Y0046966D01*
X0167887D01*
X0176884Y0051965D02*
X0175884Y0052965D01*
X0173885D01*
X0172885Y0051965D01*
Y0047966D01*
X0173885Y0046966D01*
X0175884D01*
X0176884Y0047966D01*
Y0049966D01*
X0174884D01*
X0178883Y0052965D02*
Y0046966D01*
X0181882D01*
X0182882Y0047966D01*
Y0048966D01*
X0181882Y0049966D01*
X0178883D01*
X0181882D01*
X0182882Y0050965D01*
Y0051965D01*
X0181882Y0052965D01*
X0178883D01*
X0187880D02*
X0185881D01*
X0184881Y0051965D01*
Y0047966D01*
X0185881Y0046966D01*
X0187880D01*
X0188880Y0047966D01*
Y0051965D01*
X0187880Y0052965D01*
X0384149Y0046966D02*
Y0052965D01*
X0381150Y0049966D01*
X0385149D01*
X0387148Y0046966D02*
X0391147Y0050965D01*
X0393146Y0051965D02*
X0394146Y0052965D01*
X0396145D01*
X0397145Y0051965D01*
Y0050965D01*
X0396145Y0049966D01*
X0397145Y0048966D01*
Y0047966D01*
X0396145Y0046966D01*
X0394146D01*
X0393146Y0047966D01*
Y0048966D01*
X0394146Y0049966D01*
X0393146Y0050965D01*
Y0051965D01*
X0394146Y0049966D02*
X0396145D01*
X0399144Y0046966D02*
X0403143Y0050965D01*
X0409141Y0046966D02*
X0405142D01*
X0409141Y0050965D01*
Y0051965D01*
X0408141Y0052965D01*
X0406142D01*
X0405142Y0051965D01*
X0411140D02*
X0412140Y0052965D01*
X0414139D01*
X0415139Y0051965D01*
Y0047966D01*
X0414139Y0046966D01*
X0412140D01*
X0411140Y0047966D01*
Y0051965D01*
X0417138Y0046966D02*
X0419138D01*
X0418138D01*
Y0052965D01*
X0417138Y0051965D01*
X0422137Y0047966D02*
X0423136Y0046966D01*
X0425136D01*
X0426135Y0047966D01*
Y0051965D01*
X0425136Y0052965D01*
X0423136D01*
X0422137Y0051965D01*
Y0050965D01*
X0423136Y0049966D01*
X0426135D01*
X0298199Y0051965D02*
X0297199Y0052965D01*
X0295200D01*
X0294200Y0051965D01*
Y0047966D01*
X0295200Y0046966D01*
X0297199D01*
X0298199Y0047966D01*
Y0049966D01*
X0296199D01*
X0304197Y0052965D02*
X0300198D01*
Y0046966D01*
X0304197D01*
X0300198Y0049966D02*
X0302197D01*
X0306196Y0046966D02*
Y0052965D01*
X0310195Y0046966D01*
Y0052965D01*
X0316193D02*
X0312194D01*
Y0046966D01*
X0316193D01*
X0312194Y0049966D02*
X0314194D01*
X0318192Y0046966D02*
Y0052965D01*
X0321191D01*
X0322191Y0051965D01*
Y0049966D01*
X0321191Y0048966D01*
X0318192D01*
X0320192D02*
X0322191Y0046966D01*
X0324190D02*
Y0050965D01*
X0326190Y0052965D01*
X0328189Y0050965D01*
Y0046966D01*
Y0049966D01*
X0324190D01*
X0330188Y0052965D02*
X0334187D01*
X0332188D01*
Y0046966D01*
X0340185Y0052965D02*
X0336186D01*
Y0046966D01*
X0340185D01*
X0336186Y0049966D02*
X0338186D01*
X0342184Y0052965D02*
Y0046966D01*
X0345183D01*
X0346183Y0047966D01*
Y0051965D01*
X0345183Y0052965D01*
X0342184D01*
X0372175Y0050965D02*
X0373175D01*
Y0049966D01*
X0372175D01*
Y0050965D01*
Y0047966D02*
X0373175D01*
Y0046966D01*
X0372175D01*
Y0047966D01*
X0046350Y0087833D02*
Y0091832D01*
X0048349Y0093831D01*
X0050349Y0091832D01*
Y0087833D01*
Y0090832D01*
X0046350D01*
X0052348Y0093831D02*
Y0087833D01*
X0056347D01*
X0058346Y0093831D02*
Y0087833D01*
X0062345D01*
X0070342D02*
Y0091832D01*
X0072342Y0093831D01*
X0074341Y0091832D01*
Y0087833D01*
Y0090832D01*
X0070342D01*
X0076340Y0087833D02*
Y0093831D01*
X0079339D01*
X0080339Y0092832D01*
Y0090832D01*
X0079339Y0089833D01*
X0076340D01*
X0078340D02*
X0080339Y0087833D01*
X0082338Y0093831D02*
X0086337D01*
X0084338D01*
Y0087833D01*
X0088336Y0093831D02*
Y0087833D01*
X0090336Y0089833D01*
X0092335Y0087833D01*
Y0093831D01*
X0097334D02*
X0095334D01*
X0094335Y0092832D01*
Y0088833D01*
X0095334Y0087833D01*
X0097334D01*
X0098333Y0088833D01*
Y0092832D01*
X0097334Y0093831D01*
X0100332Y0087833D02*
Y0093831D01*
X0103332D01*
X0104331Y0092832D01*
Y0090832D01*
X0103332Y0089833D01*
X0100332D01*
X0102332D02*
X0104331Y0087833D01*
X0106331Y0093831D02*
Y0087833D01*
Y0089833D01*
X0110329Y0093831D01*
X0107330Y0090832D01*
X0110329Y0087833D01*
X0118327Y0093831D02*
Y0089833D01*
X0120326Y0087833D01*
X0122325Y0089833D01*
Y0093831D01*
X0124325D02*
X0126324D01*
X0125324D01*
Y0087833D01*
X0124325D01*
X0126324D01*
X0133322Y0093831D02*
X0129323D01*
Y0087833D01*
X0133322D01*
X0129323Y0090832D02*
X0131323D01*
X0135321Y0093831D02*
Y0087833D01*
X0137321Y0089833D01*
X0139320Y0087833D01*
Y0093831D01*
X0145318D02*
X0141319D01*
Y0087833D01*
X0145318D01*
X0141319Y0090832D02*
X0143319D01*
X0147317Y0093831D02*
Y0087833D01*
X0150316D01*
X0151316Y0088833D01*
Y0092832D01*
X0150316Y0093831D01*
X0147317D01*
X0163312D02*
X0159313D01*
Y0090832D01*
X0161313D01*
X0159313D01*
Y0087833D01*
X0165312D02*
Y0093831D01*
X0168310D01*
X0169310Y0092832D01*
Y0090832D01*
X0168310Y0089833D01*
X0165312D01*
X0167311D02*
X0169310Y0087833D01*
X0174309Y0093831D02*
X0172309D01*
X0171310Y0092832D01*
Y0088833D01*
X0172309Y0087833D01*
X0174309D01*
X0175308Y0088833D01*
Y0092832D01*
X0174309Y0093831D01*
X0177308Y0087833D02*
Y0093831D01*
X0179307Y0091832D01*
X0181306Y0093831D01*
Y0087833D01*
X0189304Y0093831D02*
X0193303D01*
X0191303D01*
Y0087833D01*
X0198301Y0093831D02*
X0196301D01*
X0195302Y0092832D01*
Y0088833D01*
X0196301Y0087833D01*
X0198301D01*
X0199301Y0088833D01*
Y0092832D01*
X0198301Y0093831D01*
X0201300Y0087833D02*
Y0093831D01*
X0204299D01*
X0205299Y0092832D01*
Y0090832D01*
X0204299Y0089833D01*
X0201300D01*
X0217295Y0092832D02*
X0216295Y0093831D01*
X0214296D01*
X0213296Y0092832D01*
Y0091832D01*
X0214296Y0090832D01*
X0216295D01*
X0217295Y0089833D01*
Y0088833D01*
X0216295Y0087833D01*
X0214296D01*
X0213296Y0088833D01*
X0219294Y0093831D02*
X0221293D01*
X0220294D01*
Y0087833D01*
X0219294D01*
X0221293D01*
X0224292Y0093831D02*
Y0087833D01*
X0227291D01*
X0228291Y0088833D01*
Y0092832D01*
X0227291Y0093831D01*
X0224292D01*
X0234289D02*
X0230291D01*
Y0087833D01*
X0234289D01*
X0230291Y0090832D02*
X0232290D01*
X0462150Y0087833D02*
Y0091832D01*
X0464149Y0093831D01*
X0466149Y0091832D01*
Y0087833D01*
Y0090832D01*
X0462150D01*
X0348550Y0093831D02*
Y0087833D01*
Y0090832D01*
X0352549D01*
Y0093831D01*
Y0087833D01*
X0354548Y0093831D02*
Y0089833D01*
X0356547Y0087833D01*
X0358547Y0089833D01*
Y0093831D01*
X0360546Y0087833D02*
Y0093831D01*
X0363545D01*
X0364545Y0092832D01*
Y0090832D01*
X0363545Y0089833D01*
X0360546D01*
X0366544Y0092832D02*
X0367544Y0093831D01*
X0369543D01*
X0370543Y0092832D01*
Y0088833D01*
X0369543Y0087833D01*
X0367544D01*
X0366544Y0088833D01*
Y0092832D01*
X0372542Y0087833D02*
X0374542D01*
X0373542D01*
Y0093831D01*
X0372542Y0092832D01*
X0381539Y0087833D02*
X0377541D01*
X0381539Y0091832D01*
Y0092832D01*
X0380540Y0093831D01*
X0378540D01*
X0377541Y0092832D01*
X0294000Y0093831D02*
Y0087833D01*
X0296999D01*
X0297999Y0088833D01*
Y0089833D01*
X0296999Y0090832D01*
X0294000D01*
X0296999D01*
X0297999Y0091832D01*
Y0092832D01*
X0296999Y0093831D01*
X0294000D01*
X0302997D02*
X0300998D01*
X0299998Y0092832D01*
Y0088833D01*
X0300998Y0087833D01*
X0302997D01*
X0303997Y0088833D01*
Y0092832D01*
X0302997Y0093831D01*
X0305996Y0087833D02*
Y0091832D01*
X0307996Y0093831D01*
X0309995Y0091832D01*
Y0087833D01*
Y0090832D01*
X0305996D01*
X0311994Y0087833D02*
Y0093831D01*
X0314993D01*
X0315993Y0092832D01*
Y0090832D01*
X0314993Y0089833D01*
X0311994D01*
X0313994D02*
X0315993Y0087833D01*
X0317992Y0093831D02*
Y0087833D01*
X0320991D01*
X0321991Y0088833D01*
Y0092832D01*
X0320991Y0093831D01*
X0317992D01*
X0330988Y0087833D02*
Y0093831D01*
X0332987D02*
Y0087833D01*
X0329988Y0091832D02*
X0332987D01*
X0333987D01*
X0329988Y0089833D02*
X0333987D01*
X0335986Y0091832D02*
X0336986D01*
Y0090832D01*
X0335986D01*
Y0091832D01*
Y0088833D02*
X0336986D01*
Y0087833D01*
X0335986D01*
Y0088833D01*
X0046350Y0073549D02*
Y0067551D01*
X0050349D01*
X0052348D02*
Y0071549D01*
X0054347Y0073549D01*
X0056347Y0071549D01*
Y0067551D01*
Y0070550D01*
X0052348D01*
X0058346Y0073549D02*
Y0072549D01*
X0060346Y0070550D01*
X0062345Y0072549D01*
Y0073549D01*
X0060346Y0070550D02*
Y0067551D01*
X0068343Y0073549D02*
X0064344D01*
Y0067551D01*
X0068343D01*
X0064344Y0070550D02*
X0066343D01*
X0070342Y0067551D02*
Y0073549D01*
X0073341D01*
X0074341Y0072549D01*
Y0070550D01*
X0073341Y0069550D01*
X0070342D01*
X0072342D02*
X0074341Y0067551D01*
X0082338D02*
Y0073549D01*
X0086337Y0067551D01*
Y0073549D01*
X0088336Y0067551D02*
Y0071549D01*
X0090336Y0073549D01*
X0092335Y0071549D01*
Y0067551D01*
Y0070550D01*
X0088336D01*
X0094335Y0067551D02*
Y0073549D01*
X0096334Y0071549D01*
X0098333Y0073549D01*
Y0067551D01*
X0104331Y0073549D02*
X0100332D01*
Y0067551D01*
X0104331D01*
X0100332Y0070550D02*
X0102332D01*
X0112329Y0069550D02*
X0116327D01*
X0112329Y0071549D02*
X0116327D01*
X0046350Y0046966D02*
Y0052965D01*
X0049349D01*
X0050349Y0051965D01*
Y0049966D01*
X0049349Y0048966D01*
X0046350D01*
X0052348Y0052965D02*
Y0046966D01*
X0056347D01*
X0061345Y0052965D02*
X0059346D01*
X0058346Y0051965D01*
Y0047966D01*
X0059346Y0046966D01*
X0061345D01*
X0062345Y0047966D01*
Y0051965D01*
X0061345Y0052965D01*
X0064344D02*
X0068343D01*
X0066343D01*
Y0046966D01*
X0076340D02*
Y0052965D01*
X0080339Y0046966D01*
Y0052965D01*
X0082338Y0046966D02*
Y0050965D01*
X0084338Y0052965D01*
X0086337Y0050965D01*
Y0046966D01*
Y0049966D01*
X0082338D01*
X0088336Y0046966D02*
Y0052965D01*
X0090336Y0050965D01*
X0092335Y0052965D01*
Y0046966D01*
X0098333Y0052965D02*
X0094335D01*
Y0046966D01*
X0098333D01*
X0094335Y0049966D02*
X0096334D01*
X0106331Y0048966D02*
X0110329D01*
X0106331Y0050965D02*
X0110329D01*
X0454050Y0051965D02*
X0455050Y0052965D01*
X0457049D01*
X0458049Y0051965D01*
Y0050965D01*
X0457049Y0049966D01*
X0456049D01*
X0457049D01*
X0458049Y0048966D01*
Y0047966D01*
X0457049Y0046966D01*
X0455050D01*
X0454050Y0047966D01*
X0460048Y0050965D02*
X0461048D01*
Y0049966D01*
X0460048D01*
Y0050965D01*
Y0047966D02*
X0461048D01*
Y0046966D01*
X0460048D01*
Y0047966D01*
X0469045Y0046966D02*
X0465046D01*
X0469045Y0050965D01*
Y0051965D01*
X0468046Y0052965D01*
X0466046D01*
X0465046Y0051965D01*
X0471044Y0047966D02*
X0472044Y0046966D01*
X0474044D01*
X0475043Y0047966D01*
Y0051965D01*
X0474044Y0052965D01*
X0472044D01*
X0471044Y0051965D01*
Y0050965D01*
X0472044Y0049966D01*
X0475043D01*
X0477043Y0050965D02*
X0478042D01*
Y0049966D01*
X0477043D01*
Y0050965D01*
Y0047966D02*
X0478042D01*
Y0046966D01*
X0477043D01*
Y0047966D01*
X0486040Y0052965D02*
X0482041D01*
Y0049966D01*
X0484040Y0050965D01*
X0485040D01*
X0486040Y0049966D01*
Y0047966D01*
X0485040Y0046966D01*
X0483041D01*
X0482041Y0047966D01*
X0491038Y0046966D02*
Y0052965D01*
X0488039Y0049966D01*
X0492038D01*
X0500035Y0046966D02*
Y0052965D01*
X0503034D01*
X0504034Y0051965D01*
Y0049966D01*
X0503034Y0048966D01*
X0500035D01*
X0506033Y0046966D02*
Y0052965D01*
X0508033Y0050965D01*
X0510032Y0052965D01*
Y0046966D01*
X0580500Y0052965D02*
X0584499D01*
X0582499D01*
Y0046966D01*
X0590497Y0052965D02*
X0586498D01*
Y0046966D01*
X0590497D01*
X0586498Y0049966D02*
X0588497D01*
X0592496Y0052965D02*
X0596495Y0046966D01*
Y0052965D02*
X0592496Y0046966D01*
X0598494D02*
Y0050965D01*
X0600493Y0052965D01*
X0602493Y0050965D01*
Y0046966D01*
Y0049966D01*
X0598494D01*
X0608491Y0051965D02*
X0607491Y0052965D01*
X0605492D01*
X0604492Y0051965D01*
Y0050965D01*
X0605492Y0049966D01*
X0607491D01*
X0608491Y0048966D01*
Y0047966D01*
X0607491Y0046966D01*
X0605492D01*
X0604492Y0047966D01*
X0616488Y0052965D02*
X0618488D01*
X0617488D01*
Y0046966D01*
X0616488D01*
X0618488D01*
X0621487D02*
Y0052965D01*
X0625486Y0046966D01*
Y0052965D01*
X0631484Y0051965D02*
X0630484Y0052965D01*
X0628484D01*
X0627485Y0051965D01*
Y0050965D01*
X0628484Y0049966D01*
X0630484D01*
X0631484Y0048966D01*
Y0047966D01*
X0630484Y0046966D01*
X0628484D01*
X0627485Y0047966D01*
X0633483Y0052965D02*
X0637482D01*
X0635482D01*
Y0046966D01*
X0639481D02*
Y0052965D01*
X0642480D01*
X0643480Y0051965D01*
Y0049966D01*
X0642480Y0048966D01*
X0639481D01*
X0641480D02*
X0643480Y0046966D01*
X0645479Y0052965D02*
Y0047966D01*
X0646479Y0046966D01*
X0648478D01*
X0649478Y0047966D01*
Y0052965D01*
X0651477Y0046966D02*
Y0052965D01*
X0653476Y0050965D01*
X0655476Y0052965D01*
Y0046966D01*
X0661474Y0052965D02*
X0657475D01*
Y0046966D01*
X0661474D01*
X0657475Y0049966D02*
X0659474D01*
X0663473Y0046966D02*
Y0052965D01*
X0667472Y0046966D01*
Y0052965D01*
X0669471D02*
X0673470D01*
X0671471D01*
Y0046966D01*
X0679468Y0051965D02*
X0678468Y0052965D01*
X0676469D01*
X0675469Y0051965D01*
Y0050965D01*
X0676469Y0049966D01*
X0678468D01*
X0679468Y0048966D01*
Y0047966D01*
X0678468Y0046966D01*
X0676469D01*
X0675469Y0047966D01*
G54D18*
X0282800Y0347100D02*
X0304200D01*
X0282800D02*
X0293500Y0365633D01*
X0304200Y0347100D01*
X0325300Y0263900D02*
X0346700D01*
X0325300D02*
X0336000Y0282433D01*
X0346700Y0263900D01*
X0270000Y0236800D02*
X0291400D01*
X0280700Y0255333D02*
X0291400Y0236800D01*
X0270000D02*
X0280700Y0255333D01*
G54D19*
X0359400Y0339000D02*
Y0341999D01*
X0357901D01*
X0357401Y0341499D01*
Y0340499D01*
X0357901Y0340000D01*
X0359400D01*
X0358400D02*
X0357401Y0339000D01*
X0356401D02*
X0355401D01*
X0355901D01*
Y0341999D01*
X0356401Y0341499D01*
X0351902Y0341999D02*
X0352902Y0341499D01*
X0353902Y0340499D01*
Y0339500D01*
X0353402Y0339000D01*
X0352402D01*
X0351902Y0339500D01*
Y0340000D01*
X0352402Y0340499D01*
X0353902D01*
X0190700Y0279000D02*
Y0281999D01*
X0189200D01*
X0188701Y0281499D01*
Y0280499D01*
X0189200Y0280000D01*
X0190700D01*
X0189700D02*
X0188701Y0279000D01*
X0187701Y0281499D02*
X0187201Y0281999D01*
X0186201D01*
X0185702Y0281499D01*
Y0280999D01*
X0186201Y0280499D01*
X0185702Y0280000D01*
Y0279500D01*
X0186201Y0279000D01*
X0187201D01*
X0187701Y0279500D01*
Y0280000D01*
X0187201Y0280499D01*
X0187701Y0280999D01*
Y0281499D01*
X0187201Y0280499D02*
X0186201D01*
X0192900Y0262300D02*
Y0265299D01*
X0191401D01*
X0190901Y0264799D01*
Y0263799D01*
X0191401Y0263300D01*
X0192900D01*
X0191900D02*
X0190901Y0262300D01*
X0189901D02*
X0188901D01*
X0189401D01*
Y0265299D01*
X0189901Y0264799D01*
X0243664Y0255399D02*
Y0252400D01*
X0241664D01*
X0238665D02*
X0240665D01*
X0238665Y0254399D01*
Y0254899D01*
X0239165Y0255399D01*
X0240165D01*
X0240665Y0254899D01*
X0214599Y0249999D02*
X0215099Y0249499D01*
Y0248500D01*
X0214599Y0248000D01*
X0212600D01*
X0212100Y0248500D01*
Y0249499D01*
X0212600Y0249999D01*
X0212100Y0250999D02*
Y0251999D01*
Y0251499D01*
X0215099D01*
X0214599Y0250999D01*
X0170800Y0268200D02*
Y0271199D01*
X0169300D01*
X0168801Y0270699D01*
Y0269699D01*
X0169300Y0269200D01*
X0170800D01*
X0169800D02*
X0168801Y0268200D01*
X0165802Y0271199D02*
X0166801Y0270699D01*
X0167801Y0269699D01*
Y0268700D01*
X0167301Y0268200D01*
X0166301D01*
X0165802Y0268700D01*
Y0269200D01*
X0166301Y0269699D01*
X0167801D01*
X0178500Y0297200D02*
X0175501D01*
Y0295700D01*
X0176001Y0295201D01*
X0177000D01*
X0177500Y0295700D01*
Y0297200D01*
Y0296200D02*
X0178500Y0295201D01*
X0178000Y0294201D02*
X0178500Y0293701D01*
Y0292701D01*
X0178000Y0292201D01*
X0176001D01*
X0175501Y0292701D01*
Y0293701D01*
X0176001Y0294201D01*
X0176501D01*
X0177000Y0293701D01*
Y0292201D01*
X0189796Y0238805D02*
X0190296Y0239304D01*
X0191295D01*
X0191795Y0238805D01*
Y0236805D01*
X0191295Y0236305D01*
X0190296D01*
X0189796Y0236805D01*
X0188796Y0236305D02*
X0187797D01*
X0188296D01*
Y0239304D01*
X0188796Y0238805D01*
X0186297Y0236305D02*
X0185297D01*
X0185797D01*
Y0239304D01*
X0186297Y0238805D01*
X0269751Y0326549D02*
X0270251Y0327049D01*
X0271250D01*
X0271750Y0326549D01*
Y0324550D01*
X0271250Y0324050D01*
X0270251D01*
X0269751Y0324550D01*
X0268751Y0326549D02*
X0268251Y0327049D01*
X0267251D01*
X0266752Y0326549D01*
Y0326049D01*
X0267251Y0325549D01*
X0267751D01*
X0267251D01*
X0266752Y0325050D01*
Y0324550D01*
X0267251Y0324050D01*
X0268251D01*
X0268751Y0324550D01*
X0304601Y0246599D02*
X0305100Y0247099D01*
X0306100D01*
X0306600Y0246599D01*
Y0244600D01*
X0306100Y0244100D01*
X0305100D01*
X0304601Y0244600D01*
X0303601Y0244100D02*
X0302601D01*
X0303101D01*
Y0247099D01*
X0303601Y0246599D01*
X0301102Y0244600D02*
X0300602Y0244100D01*
X0299602D01*
X0299102Y0244600D01*
Y0246599D01*
X0299602Y0247099D01*
X0300602D01*
X0301102Y0246599D01*
Y0246099D01*
X0300602Y0245599D01*
X0299102D01*
X0221101Y0275699D02*
X0221601Y0276199D01*
X0222600D01*
X0223100Y0275699D01*
Y0273700D01*
X0222600Y0273200D01*
X0221601D01*
X0221101Y0273700D01*
X0220101Y0273200D02*
X0219101D01*
X0219601D01*
Y0276199D01*
X0220101Y0275699D01*
X0215602Y0276199D02*
X0217602D01*
Y0274699D01*
X0216602Y0275199D01*
X0216102D01*
X0215602Y0274699D01*
Y0273700D01*
X0216102Y0273200D01*
X0217102D01*
X0217602Y0273700D01*
X0221001Y0268199D02*
X0221500Y0268699D01*
X0222500D01*
X0223000Y0268199D01*
Y0266200D01*
X0222500Y0265700D01*
X0221500D01*
X0221001Y0266200D01*
X0220001Y0265700D02*
X0219001D01*
X0219501D01*
Y0268699D01*
X0220001Y0268199D01*
X0215502Y0268699D02*
X0216502Y0268199D01*
X0217502Y0267199D01*
Y0266200D01*
X0217002Y0265700D01*
X0216002D01*
X0215502Y0266200D01*
Y0266700D01*
X0216002Y0267199D01*
X0217502D01*
M02*
