M48
;Layer_Color=9474304
;FILE_FORMAT=2:5
INCH
;TYPE=PLATED
T1F00S00C0.00700
T2F00S00C0.00787
T3F00S00C0.01200
T4F00S00C0.03200
T5F00S00C0.03937
T6F00S00C0.04000
T7F00S00C0.04200
T8F00S00C0.05118
T9F00S00C0.05512
T10F00S00C0.06300
T11F00S00C0.12598
%
T01
X0179900Y0269500
X0179119Y0272900
X0186100Y0269400
X0190800Y0267100
X0196400Y0272600
X0194000Y0278600
X0186700Y0276250
X0203000Y0270300
X0205900Y0269100
X0209200Y0258709
X0211700Y0260900
X0213500
X0221800Y0270800
X0229200Y0267100
X0232200
X0235400
X0236800Y0265400
X0239900Y0265500
X0238500Y0267300
X0241600Y0267400
X0246800Y0269200
Y0271800
Y0274300
Y0277000
Y0279500
X0249400Y0279800
Y0282800
Y0276600
Y0273739
Y0270739
X0261900Y0278400
X0270100Y0278600
X0272800Y0278700
X0273200Y0276100
X0269900Y0276000
X0270200Y0282900
X0270300Y0285200
X0273600Y0285600
X0273200Y0282900
X0277100
X0279700
X0277100Y0285800
Y0278600
Y0276300
X0279700Y0276100
X0269007Y0293990
X0265507
X0262007
X0257507Y0293790
X0254307Y0293890
X0251007
X0248807Y0292090
X0244200Y0295100
X0242200
X0240400
X0236700Y0294900
X0234400
X0232200
X0229200
X0227400
X0225600
X0223800
X0216000Y0289100
Y0287300
X0229000Y0277000
X0230500Y0265300
X0233700Y0265200
X0250200Y0302900
X0254600Y0302800
X0261800Y0303900
X0270100Y0303500
T02
X0211638Y0271447
X0216362
Y0278239
X0211638
T03
X0312600Y0251900
X0317300Y0250900
X0323367Y0250800
X0323033Y0256800
X0317700
X0318667Y0262600
X0318533Y0266700
X0313200
X0313333Y0262600
X0324000
X0329333
X0329567Y0256800
X0329900Y0250800
X0329800Y0271600
X0323367Y0271300
X0328471Y0294900
X0333900
X0339329
X0344757
X0344471Y0300900
X0339043
X0333614
X0328186
X0371700Y0279214
Y0274628
Y0269200
Y0263771
X0377700Y0264057
Y0269486
Y0274914
Y0279500
X0378000Y0249600
X0372500
Y0244100
X0377500
Y0238600
X0372500
Y0233100
X0377500
X0312367Y0255300
X0307033
X0307267Y0251900
X0301933
X0301700Y0255300
X0296367
X0296600Y0251900
X0297333Y0262600
X0297200Y0266700
X0302533
X0302667Y0262600
X0308000
X0307867Y0266700
X0307600Y0300400
Y0303400
X0303200Y0303400
Y0300400
X0297300Y0300300
X0297400Y0303800
X0298700Y0307400
X0303200Y0309400
X0310200
X0291700Y0298400
X0285400
X0267200Y0216900
X0212000Y0251000
X0208900Y0251400
X0196700Y0249900
Y0246300
X0197500Y0276900
X0174200Y0276200
X0195800Y0348100
X0268200Y0354000
X0277000
X0283000
Y0346000
X0277000
X0278800Y0336800
X0283000Y0337000
Y0329000
X0277000
X0276200Y0315400
X0279700
X0265643Y0322400
Y0325400
X0261929
Y0322400
X0258214Y0322148
X0258500Y0325400
X0254500
X0254310Y0322148
X0306000Y0324000
X0312000
X0306000Y0335000
Y0346000
X0312000
X0312200Y0354000
X0306200
X0307400Y0385000
Y0388500
X0311400
Y0385000
X0303400
Y0388500
X0299400
Y0385000
X0291067Y0384500
X0291067Y0388500
X0286900
X0286900Y0384500
X0282733
X0282733Y0388500
X0278567
X0278567Y0384500
X0313300Y0335200
X0365300Y0344300
X0370000Y0344200
T04
X0169358Y0243858
X0227400Y0238700
X0193458Y0300242
X0185100Y0311400
X0204300Y0326100
X0217500Y0316500
T05
X0169000Y0287000
Y0297000
Y0307000
Y0317000
T06
X0245200Y0223900
X0255200
X0285100Y0289700
X0295100
X0187700Y0326900
Y0336900
X0358400Y0323500
X0329400Y0380700
T07
X0183500Y0258000
X0185100Y0291400
X0207600Y0286100
X0217500Y0296500
X0204300Y0306100
X0227400Y0258700
T08
X0179000Y0220800
Y0230800
T09
X0359000Y0248400
Y0268400
X0304800Y0369000
X0284800
T10
X0364700Y0224400
X0205200Y0228900
X0205600Y0210400
X0188800Y0246500
X0254300Y0381700
T11
X0362700Y0197400
X0180200
Y0372900
X0362700
M30
