%TF.GenerationSoftware,KiCad,Pcbnew,8.0.9-8.0.9-0~ubuntu22.04.1*%
%TF.CreationDate,2025-04-21T19:03:48+05:30*%
%TF.ProjectId,Variable Buck Converter,56617269-6162-46c6-9520-4275636b2043,rev?*%
%TF.SameCoordinates,Original*%
%TF.FileFunction,Paste,Top*%
%TF.FilePolarity,Positive*%
%FSLAX46Y46*%
G04 Gerber Fmt 4.6, Leading zero omitted, Abs format (unit mm)*
G04 Created by KiCad (PCBNEW 8.0.9-8.0.9-0~ubuntu22.04.1) date 2025-04-21 19:03:48*
%MOMM*%
%LPD*%
G01*
G04 APERTURE LIST*
G04 Aperture macros list*
%AMRoundRect*
0 Rectangle with rounded corners*
0 $1 Rounding radius*
0 $2 $3 $4 $5 $6 $7 $8 $9 X,Y pos of 4 corners*
0 Add a 4 corners polygon primitive as box body*
4,1,4,$2,$3,$4,$5,$6,$7,$8,$9,$2,$3,0*
0 Add four circle primitives for the rounded corners*
1,1,$1+$1,$2,$3*
1,1,$1+$1,$4,$5*
1,1,$1+$1,$6,$7*
1,1,$1+$1,$8,$9*
0 Add four rect primitives between the rounded corners*
20,1,$1+$1,$2,$3,$4,$5,0*
20,1,$1+$1,$4,$5,$6,$7,0*
20,1,$1+$1,$6,$7,$8,$9,0*
20,1,$1+$1,$8,$9,$2,$3,0*%
G04 Aperture macros list end*
%ADD10RoundRect,0.200000X-0.200000X-0.275000X0.200000X-0.275000X0.200000X0.275000X-0.200000X0.275000X0*%
%ADD11RoundRect,0.200000X-0.275000X0.200000X-0.275000X-0.200000X0.275000X-0.200000X0.275000X0.200000X0*%
%ADD12RoundRect,0.218750X0.256250X-0.218750X0.256250X0.218750X-0.256250X0.218750X-0.256250X-0.218750X0*%
%ADD13RoundRect,0.225000X0.225000X0.250000X-0.225000X0.250000X-0.225000X-0.250000X0.225000X-0.250000X0*%
%ADD14R,0.600000X0.600000*%
%ADD15R,0.400000X1.200000*%
%ADD16O,0.180000X0.560000*%
%ADD17O,0.180000X1.362000*%
%ADD18RoundRect,0.200000X0.200000X0.275000X-0.200000X0.275000X-0.200000X-0.275000X0.200000X-0.275000X0*%
%ADD19RoundRect,0.225000X-0.250000X0.225000X-0.250000X-0.225000X0.250000X-0.225000X0.250000X0.225000X0*%
%ADD20RoundRect,0.250000X1.500000X0.550000X-1.500000X0.550000X-1.500000X-0.550000X1.500000X-0.550000X0*%
%ADD21RoundRect,0.200000X0.275000X-0.200000X0.275000X0.200000X-0.275000X0.200000X-0.275000X-0.200000X0*%
%ADD22RoundRect,0.225000X0.250000X-0.225000X0.250000X0.225000X-0.250000X0.225000X-0.250000X-0.225000X0*%
%ADD23R,0.250000X0.600000*%
%ADD24R,0.600000X0.250000*%
%ADD25R,1.700000X1.200000*%
%ADD26R,1.700000X0.750000*%
%ADD27R,1.200000X0.600000*%
%ADD28RoundRect,0.250000X0.625000X-0.312500X0.625000X0.312500X-0.625000X0.312500X-0.625000X-0.312500X0*%
%ADD29RoundRect,0.250000X-0.312500X-0.625000X0.312500X-0.625000X0.312500X0.625000X-0.312500X0.625000X0*%
%ADD30RoundRect,0.218750X-0.256250X0.218750X-0.256250X-0.218750X0.256250X-0.218750X0.256250X0.218750X0*%
%ADD31R,0.460000X0.840000*%
G04 APERTURE END LIST*
D10*
%TO.C,R5*%
X98265000Y-95360000D03*
X99915000Y-95360000D03*
%TD*%
D11*
%TO.C,R10*%
X106400000Y-106760000D03*
X106400000Y-108410000D03*
%TD*%
%TO.C,R7*%
X104680000Y-103407500D03*
X104680000Y-105057500D03*
%TD*%
D12*
%TO.C,D2*%
X104680000Y-108290000D03*
X104680000Y-106715000D03*
%TD*%
D13*
%TO.C,C12*%
X108015000Y-80576668D03*
X106465000Y-80576668D03*
%TD*%
D14*
%TO.C,C4*%
X103210000Y-90730000D03*
D15*
X104010000Y-90730000D03*
D14*
X104810000Y-90730000D03*
%TD*%
D13*
%TO.C,C13*%
X108015000Y-82303334D03*
X106465000Y-82303334D03*
%TD*%
%TO.C,C2*%
X106045000Y-121400000D03*
X104495000Y-121400000D03*
%TD*%
D16*
%TO.C,Q2*%
X112040000Y-96079000D03*
X112040000Y-96881000D03*
D17*
X112440000Y-96480000D03*
X112840000Y-96480000D03*
X113240000Y-96480000D03*
X113640000Y-96480000D03*
X114040000Y-96480000D03*
X114440000Y-96480000D03*
X114840000Y-96480000D03*
X115240000Y-96480000D03*
X115640000Y-96480000D03*
%TD*%
D18*
%TO.C,R12*%
X109440000Y-96080000D03*
X107790000Y-96080000D03*
%TD*%
D13*
%TO.C,C9*%
X108015000Y-85756668D03*
X106465000Y-85756668D03*
%TD*%
D19*
%TO.C,C5*%
X101100000Y-100075000D03*
X101100000Y-101625000D03*
%TD*%
D20*
%TO.C,C14*%
X126700000Y-85510000D03*
X121100000Y-85510000D03*
%TD*%
D21*
%TO.C,R15*%
X116370000Y-71435000D03*
X116370000Y-69785000D03*
%TD*%
D13*
%TO.C,C6*%
X104695000Y-101970000D03*
X103145000Y-101970000D03*
%TD*%
D22*
%TO.C,C1*%
X86360000Y-131815000D03*
X86360000Y-130265000D03*
%TD*%
D23*
%TO.C,IC2*%
X103410000Y-96930000D03*
X103910000Y-96930000D03*
X104410000Y-96930000D03*
X104910000Y-96930000D03*
X105410000Y-96930000D03*
D24*
X105810000Y-96280000D03*
X105810000Y-95780000D03*
X105810000Y-95280000D03*
X105810000Y-94280000D03*
X105810000Y-93780000D03*
D23*
X105410000Y-93130000D03*
X104910000Y-93130000D03*
X104410000Y-93130000D03*
X103910000Y-93130000D03*
X103410000Y-93130000D03*
D24*
X103010000Y-93780000D03*
X103010000Y-95280000D03*
X103010000Y-95780000D03*
X103010000Y-96280000D03*
D25*
X104410000Y-95780000D03*
D26*
X104410000Y-94055000D03*
%TD*%
D16*
%TO.C,Q1*%
X112030000Y-91750000D03*
X112030000Y-92552000D03*
D17*
X112430000Y-92151000D03*
X112830000Y-92151000D03*
X113230000Y-92151000D03*
X113630000Y-92151000D03*
X114030000Y-92151000D03*
X114430000Y-92151000D03*
X114830000Y-92151000D03*
X115230000Y-92151000D03*
X115630000Y-92151000D03*
%TD*%
D27*
%TO.C,IC1*%
X93530000Y-95360000D03*
X93530000Y-96310000D03*
X93530000Y-97260000D03*
X96030000Y-97260000D03*
X96030000Y-96310000D03*
X96030000Y-95360000D03*
%TD*%
D11*
%TO.C,R8*%
X102870000Y-103410000D03*
X102870000Y-105060000D03*
%TD*%
D13*
%TO.C,C11*%
X124685000Y-91700000D03*
X123135000Y-91700000D03*
%TD*%
D18*
%TO.C,R2*%
X106070000Y-123310000D03*
X104420000Y-123310000D03*
%TD*%
D28*
%TO.C,R14*%
X127170000Y-81042500D03*
X127170000Y-78117500D03*
%TD*%
D13*
%TO.C,C10*%
X108015000Y-84030000D03*
X106465000Y-84030000D03*
%TD*%
D21*
%TO.C,R4*%
X89630000Y-97985000D03*
X89630000Y-96335000D03*
%TD*%
D11*
%TO.C,R9*%
X109290000Y-106755000D03*
X109290000Y-108405000D03*
%TD*%
D13*
%TO.C,C3*%
X94795000Y-93680000D03*
X93245000Y-93680000D03*
%TD*%
D14*
%TO.C,C7*%
X104470000Y-99940000D03*
D15*
X103670000Y-99940000D03*
D14*
X102870000Y-99940000D03*
%TD*%
D28*
%TO.C,R13*%
X111360000Y-81255000D03*
X111360000Y-78330000D03*
%TD*%
D18*
%TO.C,R1*%
X109190000Y-123300000D03*
X107540000Y-123300000D03*
%TD*%
D11*
%TO.C,R3*%
X89630000Y-93165000D03*
X89630000Y-94815000D03*
%TD*%
D18*
%TO.C,R11*%
X109430000Y-92780000D03*
X107780000Y-92780000D03*
%TD*%
D29*
%TO.C,R16*%
X120237500Y-97940000D03*
X123162500Y-97940000D03*
%TD*%
D30*
%TO.C,D4*%
X116360000Y-66492500D03*
X116360000Y-68067500D03*
%TD*%
D31*
%TO.C,D1*%
X100800000Y-91610000D03*
X100800000Y-93910000D03*
%TD*%
D18*
%TO.C,R6*%
X99915000Y-97270000D03*
X98265000Y-97270000D03*
%TD*%
D13*
%TO.C,C8*%
X124675000Y-89990000D03*
X123125000Y-89990000D03*
%TD*%
D12*
%TO.C,D3*%
X101650000Y-108287500D03*
X101650000Y-106712500D03*
%TD*%
M02*
