%TF.GenerationSoftware,KiCad,Pcbnew,8.0.9-8.0.9-0~ubuntu22.04.1*%
%TF.CreationDate,2025-04-21T19:03:49+05:30*%
%TF.ProjectId,Variable Buck Converter,56617269-6162-46c6-9520-4275636b2043,rev?*%
%TF.SameCoordinates,Original*%
%TF.FileFunction,Soldermask,Top*%
%TF.FilePolarity,Negative*%
%FSLAX46Y46*%
G04 Gerber Fmt 4.6, Leading zero omitted, Abs format (unit mm)*
G04 Created by KiCad (PCBNEW 8.0.9-8.0.9-0~ubuntu22.04.1) date 2025-04-21 19:03:49*
%MOMM*%
%LPD*%
G01*
G04 APERTURE LIST*
G04 Aperture macros list*
%AMRoundRect*
0 Rectangle with rounded corners*
0 $1 Rounding radius*
0 $2 $3 $4 $5 $6 $7 $8 $9 X,Y pos of 4 corners*
0 Add a 4 corners polygon primitive as box body*
4,1,4,$2,$3,$4,$5,$6,$7,$8,$9,$2,$3,0*
0 Add four circle primitives for the rounded corners*
1,1,$1+$1,$2,$3*
1,1,$1+$1,$4,$5*
1,1,$1+$1,$6,$7*
1,1,$1+$1,$8,$9*
0 Add four rect primitives between the rounded corners*
20,1,$1+$1,$2,$3,$4,$5,0*
20,1,$1+$1,$4,$5,$6,$7,0*
20,1,$1+$1,$6,$7,$8,$9,0*
20,1,$1+$1,$8,$9,$2,$3,0*%
G04 Aperture macros list end*
%ADD10C,3.000000*%
%ADD11RoundRect,0.200000X-0.200000X-0.275000X0.200000X-0.275000X0.200000X0.275000X-0.200000X0.275000X0*%
%ADD12RoundRect,0.200000X-0.275000X0.200000X-0.275000X-0.200000X0.275000X-0.200000X0.275000X0.200000X0*%
%ADD13R,1.700000X1.700000*%
%ADD14O,1.700000X1.700000*%
%ADD15RoundRect,0.218750X0.256250X-0.218750X0.256250X0.218750X-0.256250X0.218750X-0.256250X-0.218750X0*%
%ADD16RoundRect,0.225000X0.225000X0.250000X-0.225000X0.250000X-0.225000X-0.250000X0.225000X-0.250000X0*%
%ADD17R,0.600000X0.600000*%
%ADD18R,0.400000X1.200000*%
%ADD19O,0.180000X0.560000*%
%ADD20O,0.180000X1.362000*%
%ADD21RoundRect,0.200000X0.200000X0.275000X-0.200000X0.275000X-0.200000X-0.275000X0.200000X-0.275000X0*%
%ADD22RoundRect,0.225000X-0.250000X0.225000X-0.250000X-0.225000X0.250000X-0.225000X0.250000X0.225000X0*%
%ADD23RoundRect,0.250000X1.500000X0.550000X-1.500000X0.550000X-1.500000X-0.550000X1.500000X-0.550000X0*%
%ADD24C,1.440000*%
%ADD25RoundRect,0.200000X0.275000X-0.200000X0.275000X0.200000X-0.275000X0.200000X-0.275000X-0.200000X0*%
%ADD26RoundRect,0.225000X0.250000X-0.225000X0.250000X0.225000X-0.250000X0.225000X-0.250000X-0.225000X0*%
%ADD27R,0.250000X0.600000*%
%ADD28R,0.600000X0.250000*%
%ADD29R,1.700000X1.200000*%
%ADD30R,1.700000X0.750000*%
%ADD31R,2.600000X2.600000*%
%ADD32C,2.600000*%
%ADD33R,1.200000X0.600000*%
%ADD34RoundRect,0.250000X0.625000X-0.312500X0.625000X0.312500X-0.625000X0.312500X-0.625000X-0.312500X0*%
%ADD35RoundRect,0.250000X-0.312500X-0.625000X0.312500X-0.625000X0.312500X0.625000X-0.312500X0.625000X0*%
%ADD36RoundRect,0.218750X-0.256250X0.218750X-0.256250X-0.218750X0.256250X-0.218750X0.256250X0.218750X0*%
%ADD37R,0.460000X0.840000*%
G04 APERTURE END LIST*
D10*
%TO.C,TP3*%
X119320000Y-94420000D03*
%TD*%
D11*
%TO.C,R5*%
X98265000Y-95360000D03*
X99915000Y-95360000D03*
%TD*%
D10*
%TO.C,TP5*%
X101940000Y-87500000D03*
%TD*%
D12*
%TO.C,R10*%
X106400000Y-106760000D03*
X106400000Y-108410000D03*
%TD*%
D13*
%TO.C,JP2*%
X93545000Y-91030000D03*
D14*
X96085000Y-91030000D03*
%TD*%
D10*
%TO.C,TP14*%
X118400000Y-102230000D03*
%TD*%
%TO.C,TP10*%
X116480000Y-76240000D03*
%TD*%
D13*
%TO.C,JP6*%
X104865000Y-76310000D03*
D14*
X107405000Y-76310000D03*
%TD*%
D12*
%TO.C,R7*%
X104680000Y-103407500D03*
X104680000Y-105057500D03*
%TD*%
D15*
%TO.C,D2*%
X104680000Y-108290000D03*
X104680000Y-106715000D03*
%TD*%
D10*
%TO.C,TP15*%
X125200000Y-102230000D03*
%TD*%
D16*
%TO.C,C12*%
X108015000Y-80576668D03*
X106465000Y-80576668D03*
%TD*%
D17*
%TO.C,C4*%
X103210000Y-90730000D03*
D18*
X104010000Y-90730000D03*
D17*
X104810000Y-90730000D03*
%TD*%
D10*
%TO.C,TP11*%
X116480000Y-82470000D03*
%TD*%
%TO.C,TP7*%
X118190000Y-108500000D03*
%TD*%
D16*
%TO.C,C13*%
X108015000Y-82303334D03*
X106465000Y-82303334D03*
%TD*%
%TO.C,C2*%
X106045000Y-121400000D03*
X104495000Y-121400000D03*
%TD*%
D19*
%TO.C,Q2*%
X112040000Y-96079000D03*
X112040000Y-96881000D03*
D20*
X112440000Y-96480000D03*
X112840000Y-96480000D03*
X113240000Y-96480000D03*
X113640000Y-96480000D03*
X114040000Y-96480000D03*
X114440000Y-96480000D03*
X114840000Y-96480000D03*
X115240000Y-96480000D03*
X115640000Y-96480000D03*
%TD*%
D21*
%TO.C,R12*%
X109440000Y-96080000D03*
X107790000Y-96080000D03*
%TD*%
D10*
%TO.C,TP13*%
X131550000Y-76330000D03*
%TD*%
D16*
%TO.C,C9*%
X108015000Y-85756668D03*
X106465000Y-85756668D03*
%TD*%
D13*
%TO.C,JP1*%
X86295000Y-122640000D03*
D14*
X88835000Y-122640000D03*
%TD*%
D10*
%TO.C,TP4*%
X95850000Y-76340000D03*
%TD*%
D13*
%TO.C,JP5*%
X112970000Y-104560000D03*
D14*
X112970000Y-107100000D03*
%TD*%
D22*
%TO.C,C5*%
X101100000Y-100075000D03*
X101100000Y-101625000D03*
%TD*%
D23*
%TO.C,C14*%
X126700000Y-85510000D03*
X121100000Y-85510000D03*
%TD*%
D24*
%TO.C,POT2*%
X106390000Y-111640000D03*
X106390000Y-114180000D03*
X106390000Y-116720000D03*
%TD*%
D25*
%TO.C,R15*%
X116370000Y-71435000D03*
X116370000Y-69785000D03*
%TD*%
D13*
%TO.C,JP3*%
X93545000Y-99970000D03*
D14*
X96085000Y-99970000D03*
%TD*%
D10*
%TO.C,TP6*%
X98080000Y-111030000D03*
%TD*%
D24*
%TO.C,POT1*%
X112080000Y-111610000D03*
X112080000Y-114150000D03*
X112080000Y-116690000D03*
%TD*%
D16*
%TO.C,C6*%
X104695000Y-101970000D03*
X103145000Y-101970000D03*
%TD*%
D13*
%TO.C,J6*%
X85730000Y-145010000D03*
D14*
X88270000Y-145010000D03*
X90810000Y-145010000D03*
X93350000Y-145010000D03*
X95890000Y-145010000D03*
X98430000Y-145010000D03*
X100970000Y-145010000D03*
X103510000Y-145010000D03*
X106050000Y-145010000D03*
X108590000Y-145010000D03*
X111130000Y-145010000D03*
X113670000Y-145010000D03*
X116210000Y-145010000D03*
X118750000Y-145010000D03*
X121290000Y-145010000D03*
X123830000Y-145010000D03*
X126370000Y-145010000D03*
X128910000Y-145010000D03*
X131450000Y-145010000D03*
X133990000Y-145010000D03*
%TD*%
D26*
%TO.C,C1*%
X86360000Y-131815000D03*
X86360000Y-130265000D03*
%TD*%
D27*
%TO.C,IC2*%
X103410000Y-96930000D03*
X103910000Y-96930000D03*
X104410000Y-96930000D03*
X104910000Y-96930000D03*
X105410000Y-96930000D03*
D28*
X105810000Y-96280000D03*
X105810000Y-95780000D03*
X105810000Y-95280000D03*
X105810000Y-94280000D03*
X105810000Y-93780000D03*
D27*
X105410000Y-93130000D03*
X104910000Y-93130000D03*
X104410000Y-93130000D03*
X103910000Y-93130000D03*
X103410000Y-93130000D03*
D28*
X103010000Y-93780000D03*
X103010000Y-95280000D03*
X103010000Y-95780000D03*
X103010000Y-96280000D03*
D29*
X104410000Y-95780000D03*
D30*
X104410000Y-94055000D03*
%TD*%
D31*
%TO.C,J4*%
X131525000Y-97140000D03*
D32*
X131525000Y-92140000D03*
%TD*%
D31*
%TO.C,J3*%
X108750000Y-63830000D03*
D32*
X103750000Y-63830000D03*
%TD*%
D19*
%TO.C,Q1*%
X112030000Y-91750000D03*
X112030000Y-92552000D03*
D20*
X112430000Y-92151000D03*
X112830000Y-92151000D03*
X113230000Y-92151000D03*
X113630000Y-92151000D03*
X114030000Y-92151000D03*
X114430000Y-92151000D03*
X114830000Y-92151000D03*
X115230000Y-92151000D03*
X115630000Y-92151000D03*
%TD*%
D31*
%TO.C,J5*%
X131595000Y-63830000D03*
D32*
X126595000Y-63830000D03*
%TD*%
D10*
%TO.C,TP8*%
X107580000Y-88980000D03*
%TD*%
D33*
%TO.C,IC1*%
X93530000Y-95360000D03*
X93530000Y-96310000D03*
X93530000Y-97260000D03*
X96030000Y-97260000D03*
X96030000Y-96310000D03*
X96030000Y-95360000D03*
%TD*%
D12*
%TO.C,R8*%
X102870000Y-103410000D03*
X102870000Y-105060000D03*
%TD*%
D16*
%TO.C,C11*%
X124685000Y-91700000D03*
X123135000Y-91700000D03*
%TD*%
D21*
%TO.C,R2*%
X106070000Y-123310000D03*
X104420000Y-123310000D03*
%TD*%
D34*
%TO.C,R14*%
X127170000Y-81042500D03*
X127170000Y-78117500D03*
%TD*%
D13*
%TO.C,J7*%
X85730000Y-127230000D03*
D14*
X88270000Y-127230000D03*
X90810000Y-127230000D03*
X93350000Y-127230000D03*
X95890000Y-127230000D03*
X98430000Y-127230000D03*
X100970000Y-127230000D03*
X103510000Y-127230000D03*
X106050000Y-127230000D03*
X108590000Y-127230000D03*
X111130000Y-127230000D03*
X113670000Y-127230000D03*
X116210000Y-127230000D03*
X118750000Y-127230000D03*
X121290000Y-127230000D03*
X123830000Y-127230000D03*
X126370000Y-127230000D03*
X128910000Y-127230000D03*
X131450000Y-127230000D03*
X133990000Y-127230000D03*
%TD*%
D16*
%TO.C,C10*%
X108015000Y-84030000D03*
X106465000Y-84030000D03*
%TD*%
D25*
%TO.C,R4*%
X89630000Y-97985000D03*
X89630000Y-96335000D03*
%TD*%
D12*
%TO.C,R9*%
X109290000Y-106755000D03*
X109290000Y-108405000D03*
%TD*%
D16*
%TO.C,C3*%
X94795000Y-93680000D03*
X93245000Y-93680000D03*
%TD*%
D10*
%TO.C,TP2*%
X96160000Y-104390000D03*
%TD*%
%TO.C,TP9*%
X109440000Y-100350000D03*
%TD*%
D17*
%TO.C,C7*%
X104470000Y-99940000D03*
D18*
X103670000Y-99940000D03*
D17*
X102870000Y-99940000D03*
%TD*%
D34*
%TO.C,R13*%
X111360000Y-81255000D03*
X111360000Y-78330000D03*
%TD*%
D21*
%TO.C,R1*%
X109190000Y-123300000D03*
X107540000Y-123300000D03*
%TD*%
D12*
%TO.C,R3*%
X89630000Y-93165000D03*
X89630000Y-94815000D03*
%TD*%
D21*
%TO.C,R11*%
X109430000Y-92780000D03*
X107780000Y-92780000D03*
%TD*%
D31*
%TO.C,J2*%
X88790000Y-110350000D03*
D32*
X88790000Y-115350000D03*
%TD*%
D13*
%TO.C,JP4*%
X85975000Y-104790000D03*
D14*
X88515000Y-104790000D03*
X91055000Y-104790000D03*
%TD*%
D13*
%TO.C,J1*%
X85570000Y-91760000D03*
D14*
X85570000Y-94300000D03*
X85570000Y-96840000D03*
X85570000Y-99380000D03*
%TD*%
D35*
%TO.C,R16*%
X120237500Y-97940000D03*
X123162500Y-97940000D03*
%TD*%
D10*
%TO.C,TP1*%
X96160000Y-86010000D03*
%TD*%
D36*
%TO.C,D4*%
X116360000Y-66492500D03*
X116360000Y-68067500D03*
%TD*%
D10*
%TO.C,TP12*%
X131580000Y-82980000D03*
%TD*%
D37*
%TO.C,D1*%
X100800000Y-91610000D03*
X100800000Y-93910000D03*
%TD*%
D21*
%TO.C,R6*%
X99915000Y-97270000D03*
X98265000Y-97270000D03*
%TD*%
D16*
%TO.C,C8*%
X124675000Y-89990000D03*
X123125000Y-89990000D03*
%TD*%
D15*
%TO.C,D3*%
X101650000Y-108287500D03*
X101650000Y-106712500D03*
%TD*%
M02*
